<?xml version="1.0" encoding="utf-8" standalone="no"?>
<!DOCTYPE svg PUBLIC "-//W3C//DTD SVG 1.1//EN"
  "http://www.w3.org/Graphics/SVG/1.1/DTD/svg11.dtd">
<!-- Created with matplotlib (https://matplotlib.org/) -->
<svg height="271.252125pt" version="1.1" viewBox="0 0 674.473125 271.252125" width="674.473125pt" xmlns="http://www.w3.org/2000/svg" xmlns:xlink="http://www.w3.org/1999/xlink">
 <metadata>
  <rdf:RDF xmlns:cc="http://creativecommons.org/ns#" xmlns:dc="http://purl.org/dc/elements/1.1/" xmlns:rdf="http://www.w3.org/1999/02/22-rdf-syntax-ns#">
   <cc:Work>
    <dc:type rdf:resource="http://purl.org/dc/dcmitype/StillImage"/>
    <dc:date>2021-06-24T21:58:32.823636</dc:date>
    <dc:format>image/svg+xml</dc:format>
    <dc:creator>
     <cc:Agent>
      <dc:title>Matplotlib v3.3.4, https://matplotlib.org/</dc:title>
     </cc:Agent>
    </dc:creator>
   </cc:Work>
  </rdf:RDF>
 </metadata>
 <defs>
  <style type="text/css">*{stroke-linecap:butt;stroke-linejoin:round;}</style>
 </defs>
 <g id="figure_1">
  <g id="patch_1">
   <path d="M 0 271.252125 
L 674.473125 271.252125 
L 674.473125 0 
L 0 0 
z
" style="fill:#ffffff;"/>
  </g>
  <g id="axes_1">
   <g id="patch_2">
    <path d="M 56.6685 224.64 
L 391.4685 224.64 
L 391.4685 7.2 
L 56.6685 7.2 
z
" style="fill:#ffffff;"/>
   </g>
   <g id="matplotlib.axis_1">
    <g id="xtick_1">
     <g id="line2d_1">
      <path clip-path="url(#p389adf478c)" d="M 71.881427 224.64 
L 71.881427 7.2 
" style="fill:none;stroke:#cccccc;stroke-dasharray:0.8,1.32;stroke-dashoffset:0;stroke-width:0.8;"/>
     </g>
     <g id="line2d_2">
      <defs>
       <path d="M 0 0 
L 0 4.8 
" id="m9d30c7c57a" style="stroke:#262626;stroke-width:0.6;"/>
      </defs>
      <g>
       <use style="fill:#262626;stroke:#262626;stroke-width:0.6;" x="71.881427" xlink:href="#m9d30c7c57a" y="224.64"/>
      </g>
     </g>
     <g id="text_1">
      <!-- 0.0000 -->
      <g style="fill:#262626;" transform="translate(48.787615 242.969937)scale(0.132 -0.132)">
       <defs>
        <path d="M 31.78125 66.40625 
Q 24.171875 66.40625 20.328125 58.90625 
Q 16.5 51.421875 16.5 36.375 
Q 16.5 21.390625 20.328125 13.890625 
Q 24.171875 6.390625 31.78125 6.390625 
Q 39.453125 6.390625 43.28125 13.890625 
Q 47.125 21.390625 47.125 36.375 
Q 47.125 51.421875 43.28125 58.90625 
Q 39.453125 66.40625 31.78125 66.40625 
z
M 31.78125 74.21875 
Q 44.046875 74.21875 50.515625 64.515625 
Q 56.984375 54.828125 56.984375 36.375 
Q 56.984375 17.96875 50.515625 8.265625 
Q 44.046875 -1.421875 31.78125 -1.421875 
Q 19.53125 -1.421875 13.0625 8.265625 
Q 6.59375 17.96875 6.59375 36.375 
Q 6.59375 54.828125 13.0625 64.515625 
Q 19.53125 74.21875 31.78125 74.21875 
z
" id="DejaVuSans-48"/>
        <path d="M 10.6875 12.40625 
L 21 12.40625 
L 21 0 
L 10.6875 0 
z
" id="DejaVuSans-46"/>
       </defs>
       <use xlink:href="#DejaVuSans-48"/>
       <use x="63.623047" xlink:href="#DejaVuSans-46"/>
       <use x="95.410156" xlink:href="#DejaVuSans-48"/>
       <use x="159.033203" xlink:href="#DejaVuSans-48"/>
       <use x="222.65625" xlink:href="#DejaVuSans-48"/>
       <use x="286.279297" xlink:href="#DejaVuSans-48"/>
      </g>
     </g>
    </g>
    <g id="xtick_2">
     <g id="line2d_3">
      <path clip-path="url(#p389adf478c)" d="M 133.094788 224.64 
L 133.094788 7.2 
" style="fill:none;stroke:#cccccc;stroke-dasharray:0.8,1.32;stroke-dashoffset:0;stroke-width:0.8;"/>
     </g>
     <g id="line2d_4">
      <g>
       <use style="fill:#262626;stroke:#262626;stroke-width:0.6;" x="133.094788" xlink:href="#m9d30c7c57a" y="224.64"/>
      </g>
     </g>
     <g id="text_2">
      <!-- 0.0002 -->
      <g style="fill:#262626;" transform="translate(110.000976 242.969937)scale(0.132 -0.132)">
       <defs>
        <path d="M 19.1875 8.296875 
L 53.609375 8.296875 
L 53.609375 0 
L 7.328125 0 
L 7.328125 8.296875 
Q 12.9375 14.109375 22.625 23.890625 
Q 32.328125 33.6875 34.8125 36.53125 
Q 39.546875 41.84375 41.421875 45.53125 
Q 43.3125 49.21875 43.3125 52.78125 
Q 43.3125 58.59375 39.234375 62.25 
Q 35.15625 65.921875 28.609375 65.921875 
Q 23.96875 65.921875 18.8125 64.3125 
Q 13.671875 62.703125 7.8125 59.421875 
L 7.8125 69.390625 
Q 13.765625 71.78125 18.9375 73 
Q 24.125 74.21875 28.421875 74.21875 
Q 39.75 74.21875 46.484375 68.546875 
Q 53.21875 62.890625 53.21875 53.421875 
Q 53.21875 48.921875 51.53125 44.890625 
Q 49.859375 40.875 45.40625 35.40625 
Q 44.1875 33.984375 37.640625 27.21875 
Q 31.109375 20.453125 19.1875 8.296875 
z
" id="DejaVuSans-50"/>
       </defs>
       <use xlink:href="#DejaVuSans-48"/>
       <use x="63.623047" xlink:href="#DejaVuSans-46"/>
       <use x="95.410156" xlink:href="#DejaVuSans-48"/>
       <use x="159.033203" xlink:href="#DejaVuSans-48"/>
       <use x="222.65625" xlink:href="#DejaVuSans-48"/>
       <use x="286.279297" xlink:href="#DejaVuSans-50"/>
      </g>
     </g>
    </g>
    <g id="xtick_3">
     <g id="line2d_5">
      <path clip-path="url(#p389adf478c)" d="M 194.308149 224.64 
L 194.308149 7.2 
" style="fill:none;stroke:#cccccc;stroke-dasharray:0.8,1.32;stroke-dashoffset:0;stroke-width:0.8;"/>
     </g>
     <g id="line2d_6">
      <g>
       <use style="fill:#262626;stroke:#262626;stroke-width:0.6;" x="194.308149" xlink:href="#m9d30c7c57a" y="224.64"/>
      </g>
     </g>
     <g id="text_3">
      <!-- 0.0004 -->
      <g style="fill:#262626;" transform="translate(171.214337 242.969937)scale(0.132 -0.132)">
       <defs>
        <path d="M 37.796875 64.3125 
L 12.890625 25.390625 
L 37.796875 25.390625 
z
M 35.203125 72.90625 
L 47.609375 72.90625 
L 47.609375 25.390625 
L 58.015625 25.390625 
L 58.015625 17.1875 
L 47.609375 17.1875 
L 47.609375 0 
L 37.796875 0 
L 37.796875 17.1875 
L 4.890625 17.1875 
L 4.890625 26.703125 
z
" id="DejaVuSans-52"/>
       </defs>
       <use xlink:href="#DejaVuSans-48"/>
       <use x="63.623047" xlink:href="#DejaVuSans-46"/>
       <use x="95.410156" xlink:href="#DejaVuSans-48"/>
       <use x="159.033203" xlink:href="#DejaVuSans-48"/>
       <use x="222.65625" xlink:href="#DejaVuSans-48"/>
       <use x="286.279297" xlink:href="#DejaVuSans-52"/>
      </g>
     </g>
    </g>
    <g id="xtick_4">
     <g id="line2d_7">
      <path clip-path="url(#p389adf478c)" d="M 255.52151 224.64 
L 255.52151 7.2 
" style="fill:none;stroke:#cccccc;stroke-dasharray:0.8,1.32;stroke-dashoffset:0;stroke-width:0.8;"/>
     </g>
     <g id="line2d_8">
      <g>
       <use style="fill:#262626;stroke:#262626;stroke-width:0.6;" x="255.52151" xlink:href="#m9d30c7c57a" y="224.64"/>
      </g>
     </g>
     <g id="text_4">
      <!-- 0.0006 -->
      <g style="fill:#262626;" transform="translate(232.427698 242.969937)scale(0.132 -0.132)">
       <defs>
        <path d="M 33.015625 40.375 
Q 26.375 40.375 22.484375 35.828125 
Q 18.609375 31.296875 18.609375 23.390625 
Q 18.609375 15.53125 22.484375 10.953125 
Q 26.375 6.390625 33.015625 6.390625 
Q 39.65625 6.390625 43.53125 10.953125 
Q 47.40625 15.53125 47.40625 23.390625 
Q 47.40625 31.296875 43.53125 35.828125 
Q 39.65625 40.375 33.015625 40.375 
z
M 52.59375 71.296875 
L 52.59375 62.3125 
Q 48.875 64.0625 45.09375 64.984375 
Q 41.3125 65.921875 37.59375 65.921875 
Q 27.828125 65.921875 22.671875 59.328125 
Q 17.53125 52.734375 16.796875 39.40625 
Q 19.671875 43.65625 24.015625 45.921875 
Q 28.375 48.1875 33.59375 48.1875 
Q 44.578125 48.1875 50.953125 41.515625 
Q 57.328125 34.859375 57.328125 23.390625 
Q 57.328125 12.15625 50.6875 5.359375 
Q 44.046875 -1.421875 33.015625 -1.421875 
Q 20.359375 -1.421875 13.671875 8.265625 
Q 6.984375 17.96875 6.984375 36.375 
Q 6.984375 53.65625 15.1875 63.9375 
Q 23.390625 74.21875 37.203125 74.21875 
Q 40.921875 74.21875 44.703125 73.484375 
Q 48.484375 72.75 52.59375 71.296875 
z
" id="DejaVuSans-54"/>
       </defs>
       <use xlink:href="#DejaVuSans-48"/>
       <use x="63.623047" xlink:href="#DejaVuSans-46"/>
       <use x="95.410156" xlink:href="#DejaVuSans-48"/>
       <use x="159.033203" xlink:href="#DejaVuSans-48"/>
       <use x="222.65625" xlink:href="#DejaVuSans-48"/>
       <use x="286.279297" xlink:href="#DejaVuSans-54"/>
      </g>
     </g>
    </g>
    <g id="xtick_5">
     <g id="line2d_9">
      <path clip-path="url(#p389adf478c)" d="M 316.734871 224.64 
L 316.734871 7.2 
" style="fill:none;stroke:#cccccc;stroke-dasharray:0.8,1.32;stroke-dashoffset:0;stroke-width:0.8;"/>
     </g>
     <g id="line2d_10">
      <g>
       <use style="fill:#262626;stroke:#262626;stroke-width:0.6;" x="316.734871" xlink:href="#m9d30c7c57a" y="224.64"/>
      </g>
     </g>
     <g id="text_5">
      <!-- 0.0008 -->
      <g style="fill:#262626;" transform="translate(293.641059 242.969937)scale(0.132 -0.132)">
       <defs>
        <path d="M 31.78125 34.625 
Q 24.75 34.625 20.71875 30.859375 
Q 16.703125 27.09375 16.703125 20.515625 
Q 16.703125 13.921875 20.71875 10.15625 
Q 24.75 6.390625 31.78125 6.390625 
Q 38.8125 6.390625 42.859375 10.171875 
Q 46.921875 13.96875 46.921875 20.515625 
Q 46.921875 27.09375 42.890625 30.859375 
Q 38.875 34.625 31.78125 34.625 
z
M 21.921875 38.8125 
Q 15.578125 40.375 12.03125 44.71875 
Q 8.5 49.078125 8.5 55.328125 
Q 8.5 64.0625 14.71875 69.140625 
Q 20.953125 74.21875 31.78125 74.21875 
Q 42.671875 74.21875 48.875 69.140625 
Q 55.078125 64.0625 55.078125 55.328125 
Q 55.078125 49.078125 51.53125 44.71875 
Q 48 40.375 41.703125 38.8125 
Q 48.828125 37.15625 52.796875 32.3125 
Q 56.78125 27.484375 56.78125 20.515625 
Q 56.78125 9.90625 50.3125 4.234375 
Q 43.84375 -1.421875 31.78125 -1.421875 
Q 19.734375 -1.421875 13.25 4.234375 
Q 6.78125 9.90625 6.78125 20.515625 
Q 6.78125 27.484375 10.78125 32.3125 
Q 14.796875 37.15625 21.921875 38.8125 
z
M 18.3125 54.390625 
Q 18.3125 48.734375 21.84375 45.5625 
Q 25.390625 42.390625 31.78125 42.390625 
Q 38.140625 42.390625 41.71875 45.5625 
Q 45.3125 48.734375 45.3125 54.390625 
Q 45.3125 60.0625 41.71875 63.234375 
Q 38.140625 66.40625 31.78125 66.40625 
Q 25.390625 66.40625 21.84375 63.234375 
Q 18.3125 60.0625 18.3125 54.390625 
z
" id="DejaVuSans-56"/>
       </defs>
       <use xlink:href="#DejaVuSans-48"/>
       <use x="63.623047" xlink:href="#DejaVuSans-46"/>
       <use x="95.410156" xlink:href="#DejaVuSans-48"/>
       <use x="159.033203" xlink:href="#DejaVuSans-48"/>
       <use x="222.65625" xlink:href="#DejaVuSans-48"/>
       <use x="286.279297" xlink:href="#DejaVuSans-56"/>
      </g>
     </g>
    </g>
    <g id="xtick_6">
     <g id="line2d_11">
      <path clip-path="url(#p389adf478c)" d="M 377.948232 224.64 
L 377.948232 7.2 
" style="fill:none;stroke:#cccccc;stroke-dasharray:0.8,1.32;stroke-dashoffset:0;stroke-width:0.8;"/>
     </g>
     <g id="line2d_12">
      <g>
       <use style="fill:#262626;stroke:#262626;stroke-width:0.6;" x="377.948232" xlink:href="#m9d30c7c57a" y="224.64"/>
      </g>
     </g>
     <g id="text_6">
      <!-- 0.0010 -->
      <g style="fill:#262626;" transform="translate(354.85442 242.969937)scale(0.132 -0.132)">
       <defs>
        <path d="M 12.40625 8.296875 
L 28.515625 8.296875 
L 28.515625 63.921875 
L 10.984375 60.40625 
L 10.984375 69.390625 
L 28.421875 72.90625 
L 38.28125 72.90625 
L 38.28125 8.296875 
L 54.390625 8.296875 
L 54.390625 0 
L 12.40625 0 
z
" id="DejaVuSans-49"/>
       </defs>
       <use xlink:href="#DejaVuSans-48"/>
       <use x="63.623047" xlink:href="#DejaVuSans-46"/>
       <use x="95.410156" xlink:href="#DejaVuSans-48"/>
       <use x="159.033203" xlink:href="#DejaVuSans-48"/>
       <use x="222.65625" xlink:href="#DejaVuSans-49"/>
       <use x="286.279297" xlink:href="#DejaVuSans-48"/>
      </g>
     </g>
    </g>
    <g id="text_7">
     <!-- relative_abundance -->
     <g style="fill:#262626;" transform="translate(153.268875 260.656875)scale(0.144 -0.144)">
      <defs>
       <path d="M 41.109375 46.296875 
Q 39.59375 47.171875 37.8125 47.578125 
Q 36.03125 48 33.890625 48 
Q 26.265625 48 22.1875 43.046875 
Q 18.109375 38.09375 18.109375 28.8125 
L 18.109375 0 
L 9.078125 0 
L 9.078125 54.6875 
L 18.109375 54.6875 
L 18.109375 46.1875 
Q 20.953125 51.171875 25.484375 53.578125 
Q 30.03125 56 36.53125 56 
Q 37.453125 56 38.578125 55.875 
Q 39.703125 55.765625 41.0625 55.515625 
z
" id="DejaVuSans-114"/>
       <path d="M 56.203125 29.59375 
L 56.203125 25.203125 
L 14.890625 25.203125 
Q 15.484375 15.921875 20.484375 11.0625 
Q 25.484375 6.203125 34.421875 6.203125 
Q 39.59375 6.203125 44.453125 7.46875 
Q 49.3125 8.734375 54.109375 11.28125 
L 54.109375 2.78125 
Q 49.265625 0.734375 44.1875 -0.34375 
Q 39.109375 -1.421875 33.890625 -1.421875 
Q 20.796875 -1.421875 13.15625 6.1875 
Q 5.515625 13.8125 5.515625 26.8125 
Q 5.515625 40.234375 12.765625 48.109375 
Q 20.015625 56 32.328125 56 
Q 43.359375 56 49.78125 48.890625 
Q 56.203125 41.796875 56.203125 29.59375 
z
M 47.21875 32.234375 
Q 47.125 39.59375 43.09375 43.984375 
Q 39.0625 48.390625 32.421875 48.390625 
Q 24.90625 48.390625 20.390625 44.140625 
Q 15.875 39.890625 15.1875 32.171875 
z
" id="DejaVuSans-101"/>
       <path d="M 9.421875 75.984375 
L 18.40625 75.984375 
L 18.40625 0 
L 9.421875 0 
z
" id="DejaVuSans-108"/>
       <path d="M 34.28125 27.484375 
Q 23.390625 27.484375 19.1875 25 
Q 14.984375 22.515625 14.984375 16.5 
Q 14.984375 11.71875 18.140625 8.90625 
Q 21.296875 6.109375 26.703125 6.109375 
Q 34.1875 6.109375 38.703125 11.40625 
Q 43.21875 16.703125 43.21875 25.484375 
L 43.21875 27.484375 
z
M 52.203125 31.203125 
L 52.203125 0 
L 43.21875 0 
L 43.21875 8.296875 
Q 40.140625 3.328125 35.546875 0.953125 
Q 30.953125 -1.421875 24.3125 -1.421875 
Q 15.921875 -1.421875 10.953125 3.296875 
Q 6 8.015625 6 15.921875 
Q 6 25.140625 12.171875 29.828125 
Q 18.359375 34.515625 30.609375 34.515625 
L 43.21875 34.515625 
L 43.21875 35.40625 
Q 43.21875 41.609375 39.140625 45 
Q 35.0625 48.390625 27.6875 48.390625 
Q 23 48.390625 18.546875 47.265625 
Q 14.109375 46.140625 10.015625 43.890625 
L 10.015625 52.203125 
Q 14.9375 54.109375 19.578125 55.046875 
Q 24.21875 56 28.609375 56 
Q 40.484375 56 46.34375 49.84375 
Q 52.203125 43.703125 52.203125 31.203125 
z
" id="DejaVuSans-97"/>
       <path d="M 18.3125 70.21875 
L 18.3125 54.6875 
L 36.8125 54.6875 
L 36.8125 47.703125 
L 18.3125 47.703125 
L 18.3125 18.015625 
Q 18.3125 11.328125 20.140625 9.421875 
Q 21.96875 7.515625 27.59375 7.515625 
L 36.8125 7.515625 
L 36.8125 0 
L 27.59375 0 
Q 17.1875 0 13.234375 3.875 
Q 9.28125 7.765625 9.28125 18.015625 
L 9.28125 47.703125 
L 2.6875 47.703125 
L 2.6875 54.6875 
L 9.28125 54.6875 
L 9.28125 70.21875 
z
" id="DejaVuSans-116"/>
       <path d="M 9.421875 54.6875 
L 18.40625 54.6875 
L 18.40625 0 
L 9.421875 0 
z
M 9.421875 75.984375 
L 18.40625 75.984375 
L 18.40625 64.59375 
L 9.421875 64.59375 
z
" id="DejaVuSans-105"/>
       <path d="M 2.984375 54.6875 
L 12.5 54.6875 
L 29.59375 8.796875 
L 46.6875 54.6875 
L 56.203125 54.6875 
L 35.6875 0 
L 23.484375 0 
z
" id="DejaVuSans-118"/>
       <path d="M 50.984375 -16.609375 
L 50.984375 -23.578125 
L -0.984375 -23.578125 
L -0.984375 -16.609375 
z
" id="DejaVuSans-95"/>
       <path d="M 48.6875 27.296875 
Q 48.6875 37.203125 44.609375 42.84375 
Q 40.53125 48.484375 33.40625 48.484375 
Q 26.265625 48.484375 22.1875 42.84375 
Q 18.109375 37.203125 18.109375 27.296875 
Q 18.109375 17.390625 22.1875 11.75 
Q 26.265625 6.109375 33.40625 6.109375 
Q 40.53125 6.109375 44.609375 11.75 
Q 48.6875 17.390625 48.6875 27.296875 
z
M 18.109375 46.390625 
Q 20.953125 51.265625 25.265625 53.625 
Q 29.59375 56 35.59375 56 
Q 45.5625 56 51.78125 48.09375 
Q 58.015625 40.1875 58.015625 27.296875 
Q 58.015625 14.40625 51.78125 6.484375 
Q 45.5625 -1.421875 35.59375 -1.421875 
Q 29.59375 -1.421875 25.265625 0.953125 
Q 20.953125 3.328125 18.109375 8.203125 
L 18.109375 0 
L 9.078125 0 
L 9.078125 75.984375 
L 18.109375 75.984375 
z
" id="DejaVuSans-98"/>
       <path d="M 8.5 21.578125 
L 8.5 54.6875 
L 17.484375 54.6875 
L 17.484375 21.921875 
Q 17.484375 14.15625 20.5 10.265625 
Q 23.53125 6.390625 29.59375 6.390625 
Q 36.859375 6.390625 41.078125 11.03125 
Q 45.3125 15.671875 45.3125 23.6875 
L 45.3125 54.6875 
L 54.296875 54.6875 
L 54.296875 0 
L 45.3125 0 
L 45.3125 8.40625 
Q 42.046875 3.421875 37.71875 1 
Q 33.40625 -1.421875 27.6875 -1.421875 
Q 18.265625 -1.421875 13.375 4.4375 
Q 8.5 10.296875 8.5 21.578125 
z
M 31.109375 56 
z
" id="DejaVuSans-117"/>
       <path d="M 54.890625 33.015625 
L 54.890625 0 
L 45.90625 0 
L 45.90625 32.71875 
Q 45.90625 40.484375 42.875 44.328125 
Q 39.84375 48.1875 33.796875 48.1875 
Q 26.515625 48.1875 22.3125 43.546875 
Q 18.109375 38.921875 18.109375 30.90625 
L 18.109375 0 
L 9.078125 0 
L 9.078125 54.6875 
L 18.109375 54.6875 
L 18.109375 46.1875 
Q 21.34375 51.125 25.703125 53.5625 
Q 30.078125 56 35.796875 56 
Q 45.21875 56 50.046875 50.171875 
Q 54.890625 44.34375 54.890625 33.015625 
z
" id="DejaVuSans-110"/>
       <path d="M 45.40625 46.390625 
L 45.40625 75.984375 
L 54.390625 75.984375 
L 54.390625 0 
L 45.40625 0 
L 45.40625 8.203125 
Q 42.578125 3.328125 38.25 0.953125 
Q 33.9375 -1.421875 27.875 -1.421875 
Q 17.96875 -1.421875 11.734375 6.484375 
Q 5.515625 14.40625 5.515625 27.296875 
Q 5.515625 40.1875 11.734375 48.09375 
Q 17.96875 56 27.875 56 
Q 33.9375 56 38.25 53.625 
Q 42.578125 51.265625 45.40625 46.390625 
z
M 14.796875 27.296875 
Q 14.796875 17.390625 18.875 11.75 
Q 22.953125 6.109375 30.078125 6.109375 
Q 37.203125 6.109375 41.296875 11.75 
Q 45.40625 17.390625 45.40625 27.296875 
Q 45.40625 37.203125 41.296875 42.84375 
Q 37.203125 48.484375 30.078125 48.484375 
Q 22.953125 48.484375 18.875 42.84375 
Q 14.796875 37.203125 14.796875 27.296875 
z
" id="DejaVuSans-100"/>
       <path d="M 48.78125 52.59375 
L 48.78125 44.1875 
Q 44.96875 46.296875 41.140625 47.34375 
Q 37.3125 48.390625 33.40625 48.390625 
Q 24.65625 48.390625 19.8125 42.84375 
Q 14.984375 37.3125 14.984375 27.296875 
Q 14.984375 17.28125 19.8125 11.734375 
Q 24.65625 6.203125 33.40625 6.203125 
Q 37.3125 6.203125 41.140625 7.25 
Q 44.96875 8.296875 48.78125 10.40625 
L 48.78125 2.09375 
Q 45.015625 0.34375 40.984375 -0.53125 
Q 36.96875 -1.421875 32.421875 -1.421875 
Q 20.0625 -1.421875 12.78125 6.34375 
Q 5.515625 14.109375 5.515625 27.296875 
Q 5.515625 40.671875 12.859375 48.328125 
Q 20.21875 56 33.015625 56 
Q 37.15625 56 41.109375 55.140625 
Q 45.0625 54.296875 48.78125 52.59375 
z
" id="DejaVuSans-99"/>
      </defs>
      <use xlink:href="#DejaVuSans-114"/>
      <use x="38.863281" xlink:href="#DejaVuSans-101"/>
      <use x="100.386719" xlink:href="#DejaVuSans-108"/>
      <use x="128.169922" xlink:href="#DejaVuSans-97"/>
      <use x="189.449219" xlink:href="#DejaVuSans-116"/>
      <use x="228.658203" xlink:href="#DejaVuSans-105"/>
      <use x="256.441406" xlink:href="#DejaVuSans-118"/>
      <use x="315.621094" xlink:href="#DejaVuSans-101"/>
      <use x="377.144531" xlink:href="#DejaVuSans-95"/>
      <use x="427.144531" xlink:href="#DejaVuSans-97"/>
      <use x="488.423828" xlink:href="#DejaVuSans-98"/>
      <use x="551.900391" xlink:href="#DejaVuSans-117"/>
      <use x="615.279297" xlink:href="#DejaVuSans-110"/>
      <use x="678.658203" xlink:href="#DejaVuSans-100"/>
      <use x="742.134766" xlink:href="#DejaVuSans-97"/>
      <use x="803.414062" xlink:href="#DejaVuSans-110"/>
      <use x="866.792969" xlink:href="#DejaVuSans-99"/>
      <use x="921.773438" xlink:href="#DejaVuSans-101"/>
     </g>
    </g>
   </g>
   <g id="matplotlib.axis_2">
    <g id="ytick_1">
     <g id="line2d_13">
      <path clip-path="url(#p389adf478c)" d="M 56.6685 179.627322 
L 391.4685 179.627322 
" style="fill:none;stroke:#cccccc;stroke-dasharray:0.8,1.32;stroke-dashoffset:0;stroke-width:0.8;"/>
     </g>
     <g id="line2d_14">
      <defs>
       <path d="M 0 0 
L -4.8 0 
" id="m441cf2a8f1" style="stroke:#262626;stroke-width:0.6;"/>
      </defs>
      <g>
       <use style="fill:#262626;stroke:#262626;stroke-width:0.6;" x="56.6685" xlink:href="#m441cf2a8f1" y="179.627322"/>
      </g>
     </g>
     <g id="text_8">
      <!-- $\mathdefault{10^{1}}$ -->
      <g style="fill:#262626;" transform="translate(25.1365 184.642291)scale(0.132 -0.132)">
       <use transform="translate(0 0.684375)" xlink:href="#DejaVuSans-49"/>
       <use transform="translate(63.623047 0.684375)" xlink:href="#DejaVuSans-48"/>
       <use transform="translate(128.203125 38.965625)scale(0.7)" xlink:href="#DejaVuSans-49"/>
      </g>
     </g>
    </g>
    <g id="ytick_2">
     <g id="line2d_15">
      <path clip-path="url(#p389adf478c)" d="M 56.6685 129.929718 
L 391.4685 129.929718 
" style="fill:none;stroke:#cccccc;stroke-dasharray:0.8,1.32;stroke-dashoffset:0;stroke-width:0.8;"/>
     </g>
     <g id="line2d_16">
      <g>
       <use style="fill:#262626;stroke:#262626;stroke-width:0.6;" x="56.6685" xlink:href="#m441cf2a8f1" y="129.929718"/>
      </g>
     </g>
     <g id="text_9">
      <!-- $\mathdefault{10^{2}}$ -->
      <g style="fill:#262626;" transform="translate(25.1365 134.944687)scale(0.132 -0.132)">
       <use transform="translate(0 0.765625)" xlink:href="#DejaVuSans-49"/>
       <use transform="translate(63.623047 0.765625)" xlink:href="#DejaVuSans-48"/>
       <use transform="translate(128.203125 39.046875)scale(0.7)" xlink:href="#DejaVuSans-50"/>
      </g>
     </g>
    </g>
    <g id="ytick_3">
     <g id="line2d_17">
      <path clip-path="url(#p389adf478c)" d="M 56.6685 80.232114 
L 391.4685 80.232114 
" style="fill:none;stroke:#cccccc;stroke-dasharray:0.8,1.32;stroke-dashoffset:0;stroke-width:0.8;"/>
     </g>
     <g id="line2d_18">
      <g>
       <use style="fill:#262626;stroke:#262626;stroke-width:0.6;" x="56.6685" xlink:href="#m441cf2a8f1" y="80.232114"/>
      </g>
     </g>
     <g id="text_10">
      <!-- $\mathdefault{10^{3}}$ -->
      <g style="fill:#262626;" transform="translate(25.1365 85.247083)scale(0.132 -0.132)">
       <defs>
        <path d="M 40.578125 39.3125 
Q 47.65625 37.796875 51.625 33 
Q 55.609375 28.21875 55.609375 21.1875 
Q 55.609375 10.40625 48.1875 4.484375 
Q 40.765625 -1.421875 27.09375 -1.421875 
Q 22.515625 -1.421875 17.65625 -0.515625 
Q 12.796875 0.390625 7.625 2.203125 
L 7.625 11.71875 
Q 11.71875 9.328125 16.59375 8.109375 
Q 21.484375 6.890625 26.8125 6.890625 
Q 36.078125 6.890625 40.9375 10.546875 
Q 45.796875 14.203125 45.796875 21.1875 
Q 45.796875 27.640625 41.28125 31.265625 
Q 36.765625 34.90625 28.71875 34.90625 
L 20.21875 34.90625 
L 20.21875 43.015625 
L 29.109375 43.015625 
Q 36.375 43.015625 40.234375 45.921875 
Q 44.09375 48.828125 44.09375 54.296875 
Q 44.09375 59.90625 40.109375 62.90625 
Q 36.140625 65.921875 28.71875 65.921875 
Q 24.65625 65.921875 20.015625 65.03125 
Q 15.375 64.15625 9.8125 62.3125 
L 9.8125 71.09375 
Q 15.4375 72.65625 20.34375 73.4375 
Q 25.25 74.21875 29.59375 74.21875 
Q 40.828125 74.21875 47.359375 69.109375 
Q 53.90625 64.015625 53.90625 55.328125 
Q 53.90625 49.265625 50.4375 45.09375 
Q 46.96875 40.921875 40.578125 39.3125 
z
" id="DejaVuSans-51"/>
       </defs>
       <use transform="translate(0 0.765625)" xlink:href="#DejaVuSans-49"/>
       <use transform="translate(63.623047 0.765625)" xlink:href="#DejaVuSans-48"/>
       <use transform="translate(128.203125 39.046875)scale(0.7)" xlink:href="#DejaVuSans-51"/>
      </g>
     </g>
    </g>
    <g id="ytick_4">
     <g id="line2d_19">
      <path clip-path="url(#p389adf478c)" d="M 56.6685 30.53451 
L 391.4685 30.53451 
" style="fill:none;stroke:#cccccc;stroke-dasharray:0.8,1.32;stroke-dashoffset:0;stroke-width:0.8;"/>
     </g>
     <g id="line2d_20">
      <g>
       <use style="fill:#262626;stroke:#262626;stroke-width:0.6;" x="56.6685" xlink:href="#m441cf2a8f1" y="30.53451"/>
      </g>
     </g>
     <g id="text_11">
      <!-- $\mathdefault{10^{4}}$ -->
      <g style="fill:#262626;" transform="translate(25.1365 35.549479)scale(0.132 -0.132)">
       <use transform="translate(0 0.684375)" xlink:href="#DejaVuSans-49"/>
       <use transform="translate(63.623047 0.684375)" xlink:href="#DejaVuSans-48"/>
       <use transform="translate(128.203125 38.965625)scale(0.7)" xlink:href="#DejaVuSans-52"/>
      </g>
     </g>
    </g>
    <g id="ytick_5">
     <g id="line2d_21">
      <defs>
       <path d="M 0 0 
L -3.2 0 
" id="m16baec252a" style="stroke:#262626;stroke-width:0.8;"/>
      </defs>
      <g>
       <use style="fill:#262626;stroke:#262626;stroke-width:0.8;" x="56.6685" xlink:href="#m16baec252a" y="214.364456"/>
      </g>
     </g>
    </g>
    <g id="ytick_6">
     <g id="line2d_22">
      <g>
       <use style="fill:#262626;stroke:#262626;stroke-width:0.8;" x="56.6685" xlink:href="#m16baec252a" y="205.613143"/>
      </g>
     </g>
    </g>
    <g id="ytick_7">
     <g id="line2d_23">
      <g>
       <use style="fill:#262626;stroke:#262626;stroke-width:0.8;" x="56.6685" xlink:href="#m16baec252a" y="199.403987"/>
      </g>
     </g>
    </g>
    <g id="ytick_8">
     <g id="line2d_24">
      <g>
       <use style="fill:#262626;stroke:#262626;stroke-width:0.8;" x="56.6685" xlink:href="#m16baec252a" y="194.587791"/>
      </g>
     </g>
    </g>
    <g id="ytick_9">
     <g id="line2d_25">
      <g>
       <use style="fill:#262626;stroke:#262626;stroke-width:0.8;" x="56.6685" xlink:href="#m16baec252a" y="190.652673"/>
      </g>
     </g>
    </g>
    <g id="ytick_10">
     <g id="line2d_26">
      <g>
       <use style="fill:#262626;stroke:#262626;stroke-width:0.8;" x="56.6685" xlink:href="#m16baec252a" y="187.325578"/>
      </g>
     </g>
    </g>
    <g id="ytick_11">
     <g id="line2d_27">
      <g>
       <use style="fill:#262626;stroke:#262626;stroke-width:0.8;" x="56.6685" xlink:href="#m16baec252a" y="184.443517"/>
      </g>
     </g>
    </g>
    <g id="ytick_12">
     <g id="line2d_28">
      <g>
       <use style="fill:#262626;stroke:#262626;stroke-width:0.8;" x="56.6685" xlink:href="#m16baec252a" y="181.90136"/>
      </g>
     </g>
    </g>
    <g id="ytick_13">
     <g id="line2d_29">
      <g>
       <use style="fill:#262626;stroke:#262626;stroke-width:0.8;" x="56.6685" xlink:href="#m16baec252a" y="164.666852"/>
      </g>
     </g>
    </g>
    <g id="ytick_14">
     <g id="line2d_30">
      <g>
       <use style="fill:#262626;stroke:#262626;stroke-width:0.8;" x="56.6685" xlink:href="#m16baec252a" y="155.915539"/>
      </g>
     </g>
    </g>
    <g id="ytick_15">
     <g id="line2d_31">
      <g>
       <use style="fill:#262626;stroke:#262626;stroke-width:0.8;" x="56.6685" xlink:href="#m16baec252a" y="149.706383"/>
      </g>
     </g>
    </g>
    <g id="ytick_16">
     <g id="line2d_32">
      <g>
       <use style="fill:#262626;stroke:#262626;stroke-width:0.8;" x="56.6685" xlink:href="#m16baec252a" y="144.890187"/>
      </g>
     </g>
    </g>
    <g id="ytick_17">
     <g id="line2d_33">
      <g>
       <use style="fill:#262626;stroke:#262626;stroke-width:0.8;" x="56.6685" xlink:href="#m16baec252a" y="140.955069"/>
      </g>
     </g>
    </g>
    <g id="ytick_18">
     <g id="line2d_34">
      <g>
       <use style="fill:#262626;stroke:#262626;stroke-width:0.8;" x="56.6685" xlink:href="#m16baec252a" y="137.627974"/>
      </g>
     </g>
    </g>
    <g id="ytick_19">
     <g id="line2d_35">
      <g>
       <use style="fill:#262626;stroke:#262626;stroke-width:0.8;" x="56.6685" xlink:href="#m16baec252a" y="134.745913"/>
      </g>
     </g>
    </g>
    <g id="ytick_20">
     <g id="line2d_36">
      <g>
       <use style="fill:#262626;stroke:#262626;stroke-width:0.8;" x="56.6685" xlink:href="#m16baec252a" y="132.203756"/>
      </g>
     </g>
    </g>
    <g id="ytick_21">
     <g id="line2d_37">
      <g>
       <use style="fill:#262626;stroke:#262626;stroke-width:0.8;" x="56.6685" xlink:href="#m16baec252a" y="114.969249"/>
      </g>
     </g>
    </g>
    <g id="ytick_22">
     <g id="line2d_38">
      <g>
       <use style="fill:#262626;stroke:#262626;stroke-width:0.8;" x="56.6685" xlink:href="#m16baec252a" y="106.217935"/>
      </g>
     </g>
    </g>
    <g id="ytick_23">
     <g id="line2d_39">
      <g>
       <use style="fill:#262626;stroke:#262626;stroke-width:0.8;" x="56.6685" xlink:href="#m16baec252a" y="100.008779"/>
      </g>
     </g>
    </g>
    <g id="ytick_24">
     <g id="line2d_40">
      <g>
       <use style="fill:#262626;stroke:#262626;stroke-width:0.8;" x="56.6685" xlink:href="#m16baec252a" y="95.192584"/>
      </g>
     </g>
    </g>
    <g id="ytick_25">
     <g id="line2d_41">
      <g>
       <use style="fill:#262626;stroke:#262626;stroke-width:0.8;" x="56.6685" xlink:href="#m16baec252a" y="91.257465"/>
      </g>
     </g>
    </g>
    <g id="ytick_26">
     <g id="line2d_42">
      <g>
       <use style="fill:#262626;stroke:#262626;stroke-width:0.8;" x="56.6685" xlink:href="#m16baec252a" y="87.93037"/>
      </g>
     </g>
    </g>
    <g id="ytick_27">
     <g id="line2d_43">
      <g>
       <use style="fill:#262626;stroke:#262626;stroke-width:0.8;" x="56.6685" xlink:href="#m16baec252a" y="85.04831"/>
      </g>
     </g>
    </g>
    <g id="ytick_28">
     <g id="line2d_44">
      <g>
       <use style="fill:#262626;stroke:#262626;stroke-width:0.8;" x="56.6685" xlink:href="#m16baec252a" y="82.506152"/>
      </g>
     </g>
    </g>
    <g id="ytick_29">
     <g id="line2d_45">
      <g>
       <use style="fill:#262626;stroke:#262626;stroke-width:0.8;" x="56.6685" xlink:href="#m16baec252a" y="65.271645"/>
      </g>
     </g>
    </g>
    <g id="ytick_30">
     <g id="line2d_46">
      <g>
       <use style="fill:#262626;stroke:#262626;stroke-width:0.8;" x="56.6685" xlink:href="#m16baec252a" y="56.520331"/>
      </g>
     </g>
    </g>
    <g id="ytick_31">
     <g id="line2d_47">
      <g>
       <use style="fill:#262626;stroke:#262626;stroke-width:0.8;" x="56.6685" xlink:href="#m16baec252a" y="50.311175"/>
      </g>
     </g>
    </g>
    <g id="ytick_32">
     <g id="line2d_48">
      <g>
       <use style="fill:#262626;stroke:#262626;stroke-width:0.8;" x="56.6685" xlink:href="#m16baec252a" y="45.49498"/>
      </g>
     </g>
    </g>
    <g id="ytick_33">
     <g id="line2d_49">
      <g>
       <use style="fill:#262626;stroke:#262626;stroke-width:0.8;" x="56.6685" xlink:href="#m16baec252a" y="41.559861"/>
      </g>
     </g>
    </g>
    <g id="ytick_34">
     <g id="line2d_50">
      <g>
       <use style="fill:#262626;stroke:#262626;stroke-width:0.8;" x="56.6685" xlink:href="#m16baec252a" y="38.232766"/>
      </g>
     </g>
    </g>
    <g id="ytick_35">
     <g id="line2d_51">
      <g>
       <use style="fill:#262626;stroke:#262626;stroke-width:0.8;" x="56.6685" xlink:href="#m16baec252a" y="35.350706"/>
      </g>
     </g>
    </g>
    <g id="ytick_36">
     <g id="line2d_52">
      <g>
       <use style="fill:#262626;stroke:#262626;stroke-width:0.8;" x="56.6685" xlink:href="#m16baec252a" y="32.808548"/>
      </g>
     </g>
    </g>
    <g id="ytick_37">
     <g id="line2d_53">
      <g>
       <use style="fill:#262626;stroke:#262626;stroke-width:0.8;" x="56.6685" xlink:href="#m16baec252a" y="15.574041"/>
      </g>
     </g>
    </g>
    <g id="text_12">
     <!-- frequency -->
     <g style="fill:#262626;" transform="translate(18.14175 152.03025)rotate(-90)scale(0.144 -0.144)">
      <defs>
       <path d="M 37.109375 75.984375 
L 37.109375 68.5 
L 28.515625 68.5 
Q 23.6875 68.5 21.796875 66.546875 
Q 19.921875 64.59375 19.921875 59.515625 
L 19.921875 54.6875 
L 34.71875 54.6875 
L 34.71875 47.703125 
L 19.921875 47.703125 
L 19.921875 0 
L 10.890625 0 
L 10.890625 47.703125 
L 2.296875 47.703125 
L 2.296875 54.6875 
L 10.890625 54.6875 
L 10.890625 58.5 
Q 10.890625 67.625 15.140625 71.796875 
Q 19.390625 75.984375 28.609375 75.984375 
z
" id="DejaVuSans-102"/>
       <path d="M 14.796875 27.296875 
Q 14.796875 17.390625 18.875 11.75 
Q 22.953125 6.109375 30.078125 6.109375 
Q 37.203125 6.109375 41.296875 11.75 
Q 45.40625 17.390625 45.40625 27.296875 
Q 45.40625 37.203125 41.296875 42.84375 
Q 37.203125 48.484375 30.078125 48.484375 
Q 22.953125 48.484375 18.875 42.84375 
Q 14.796875 37.203125 14.796875 27.296875 
z
M 45.40625 8.203125 
Q 42.578125 3.328125 38.25 0.953125 
Q 33.9375 -1.421875 27.875 -1.421875 
Q 17.96875 -1.421875 11.734375 6.484375 
Q 5.515625 14.40625 5.515625 27.296875 
Q 5.515625 40.1875 11.734375 48.09375 
Q 17.96875 56 27.875 56 
Q 33.9375 56 38.25 53.625 
Q 42.578125 51.265625 45.40625 46.390625 
L 45.40625 54.6875 
L 54.390625 54.6875 
L 54.390625 -20.796875 
L 45.40625 -20.796875 
z
" id="DejaVuSans-113"/>
       <path d="M 32.171875 -5.078125 
Q 28.375 -14.84375 24.75 -17.8125 
Q 21.140625 -20.796875 15.09375 -20.796875 
L 7.90625 -20.796875 
L 7.90625 -13.28125 
L 13.1875 -13.28125 
Q 16.890625 -13.28125 18.9375 -11.515625 
Q 21 -9.765625 23.484375 -3.21875 
L 25.09375 0.875 
L 2.984375 54.6875 
L 12.5 54.6875 
L 29.59375 11.921875 
L 46.6875 54.6875 
L 56.203125 54.6875 
z
" id="DejaVuSans-121"/>
      </defs>
      <use xlink:href="#DejaVuSans-102"/>
      <use x="35.205078" xlink:href="#DejaVuSans-114"/>
      <use x="74.068359" xlink:href="#DejaVuSans-101"/>
      <use x="135.591797" xlink:href="#DejaVuSans-113"/>
      <use x="199.068359" xlink:href="#DejaVuSans-117"/>
      <use x="262.447266" xlink:href="#DejaVuSans-101"/>
      <use x="323.970703" xlink:href="#DejaVuSans-110"/>
      <use x="387.349609" xlink:href="#DejaVuSans-99"/>
      <use x="442.330078" xlink:href="#DejaVuSans-121"/>
     </g>
    </g>
   </g>
   <g id="patch_3">
    <path clip-path="url(#p389adf478c)" d="M 71.886682 49926.928848 
L 87.019968 49926.928848 
L 87.019968 159.396048 
L 71.886682 159.396048 
z
" style="fill:#029e73;stroke:#ffffff;stroke-linejoin:miter;stroke-width:0.8;"/>
   </g>
   <g id="patch_4">
    <path clip-path="url(#p389adf478c)" d="M 87.019968 49926.928848 
L 102.153254 49926.928848 
L 102.153254 142.328209 
L 87.019968 142.328209 
z
" style="fill:#029e73;stroke:#ffffff;stroke-linejoin:miter;stroke-width:0.8;"/>
   </g>
   <g id="patch_5">
    <path clip-path="url(#p389adf478c)" d="M 102.153254 49926.928848 
L 117.28654 49926.928848 
L 117.28654 102.357315 
L 102.153254 102.357315 
z
" style="fill:#029e73;stroke:#ffffff;stroke-linejoin:miter;stroke-width:0.8;"/>
   </g>
   <g id="patch_6">
    <path clip-path="url(#p389adf478c)" d="M 117.28654 49926.928848 
L 132.419826 49926.928848 
L 132.419826 149.045233 
L 117.28654 149.045233 
z
" style="fill:#029e73;stroke:#ffffff;stroke-linejoin:miter;stroke-width:0.8;"/>
   </g>
   <g id="patch_7">
    <path clip-path="url(#p389adf478c)" d="M 132.419826 49926.928848 
L 147.553112 49926.928848 
L 147.553112 148.370697 
L 132.419826 148.370697 
z
" style="fill:#029e73;stroke:#ffffff;stroke-linejoin:miter;stroke-width:0.8;"/>
   </g>
   <g id="patch_8">
    <path clip-path="url(#p389adf478c)" d="M 147.553112 49926.928848 
L 162.686399 49926.928848 
L 162.686399 151.976291 
L 147.553112 151.976291 
z
" style="fill:#029e73;stroke:#ffffff;stroke-linejoin:miter;stroke-width:0.8;"/>
   </g>
   <g id="patch_9">
    <path clip-path="url(#p389adf478c)" d="M 162.686399 49926.928848 
L 177.819685 49926.928848 
L 177.819685 164.351044 
L 162.686399 164.351044 
z
" style="fill:#029e73;stroke:#ffffff;stroke-linejoin:miter;stroke-width:0.8;"/>
   </g>
   <g id="patch_10">
    <path clip-path="url(#p389adf478c)" d="M 177.819685 49926.928848 
L 192.952971 49926.928848 
L 192.952971 176.084111 
L 177.819685 176.084111 
z
" style="fill:#029e73;stroke:#ffffff;stroke-linejoin:miter;stroke-width:0.8;"/>
   </g>
   <g id="patch_11">
    <path clip-path="url(#p389adf478c)" d="M 192.952971 49926.928848 
L 208.086257 49926.928848 
L 208.086257 177.317784 
L 192.952971 177.317784 
z
" style="fill:#029e73;stroke:#ffffff;stroke-linejoin:miter;stroke-width:0.8;"/>
   </g>
   <g id="patch_12">
    <path clip-path="url(#p389adf478c)" d="M 208.086257 49926.928848 
L 223.219543 49926.928848 
L 223.219543 188.770543 
L 208.086257 188.770543 
z
" style="fill:#029e73;stroke:#ffffff;stroke-linejoin:miter;stroke-width:0.8;"/>
   </g>
   <g id="patch_13">
    <path clip-path="url(#p389adf478c)" d="M 223.219543 49926.928848 
L 238.352829 49926.928848 
L 238.352829 193.586738 
L 223.219543 193.586738 
z
" style="fill:#029e73;stroke:#ffffff;stroke-linejoin:miter;stroke-width:0.8;"/>
   </g>
   <g id="patch_14">
    <path clip-path="url(#p389adf478c)" d="M 238.352829 49926.928848 
L 253.486115 49926.928848 
L 253.486115 174.917157 
L 238.352829 174.917157 
z
" style="fill:#029e73;stroke:#ffffff;stroke-linejoin:miter;stroke-width:0.8;"/>
   </g>
   <g id="patch_15">
    <path clip-path="url(#p389adf478c)" d="M 253.486115 49926.928848 
L 268.619401 49926.928848 
L 268.619401 186.713426 
L 253.486115 186.713426 
z
" style="fill:#029e73;stroke:#ffffff;stroke-linejoin:miter;stroke-width:0.8;"/>
   </g>
   <g id="patch_16">
    <path clip-path="url(#p389adf478c)" d="M 268.619401 49926.928848 
L 283.752687 49926.928848 
L 283.752687 184.835425 
L 268.619401 184.835425 
z
" style="fill:#029e73;stroke:#ffffff;stroke-linejoin:miter;stroke-width:0.8;"/>
   </g>
   <g id="patch_17">
    <path clip-path="url(#p389adf478c)" d="M 283.752687 49926.928848 
L 298.885974 49926.928848 
L 298.885974 199.795894 
L 283.752687 199.795894 
z
" style="fill:#029e73;stroke:#ffffff;stroke-linejoin:miter;stroke-width:0.8;"/>
   </g>
   <g id="patch_18">
    <path clip-path="url(#p389adf478c)" d="M 298.885974 49926.928848 
L 314.01926 49926.928848 
L 314.01926 214.756364 
L 298.885974 214.756364 
z
" style="fill:#029e73;stroke:#ffffff;stroke-linejoin:miter;stroke-width:0.8;"/>
   </g>
   <g id="patch_19">
    <path clip-path="url(#p389adf478c)" d="M 314.01926 49926.928848 
L 329.152546 49926.928848 
L 329.152546 196.468799 
L 314.01926 196.468799 
z
" style="fill:#029e73;stroke:#ffffff;stroke-linejoin:miter;stroke-width:0.8;"/>
   </g>
   <g id="patch_20">
    <path clip-path="url(#p389adf478c)" d="M 329.152546 49926.928848 
L 344.285832 49926.928848 
L 344.285832 208.547208 
L 329.152546 208.547208 
z
" style="fill:#029e73;stroke:#ffffff;stroke-linejoin:miter;stroke-width:0.8;"/>
   </g>
   <g id="patch_21">
    <path clip-path="url(#p389adf478c)" d="M 344.285832 49926.928848 
L 359.419118 49926.928848 
L 359.419118 193.586738 
L 344.285832 193.586738 
z
" style="fill:#029e73;stroke:#ffffff;stroke-linejoin:miter;stroke-width:0.8;"/>
   </g>
   <g id="patch_22">
    <path clip-path="url(#p389adf478c)" d="M 359.419118 49926.928848 
L 374.552404 49926.928848 
L 374.552404 191.04458 
L 359.419118 191.04458 
z
" style="fill:#029e73;stroke:#ffffff;stroke-linejoin:miter;stroke-width:0.8;"/>
   </g>
   <g id="patch_23">
    <path clip-path="url(#p389adf478c)" d="M 71.886682 159.396048 
L 87.019968 159.396048 
L 87.019968 17.083636 
L 71.886682 17.083636 
z
" style="fill:#cc78bc;stroke:#ffffff;stroke-linejoin:miter;stroke-width:0.8;"/>
   </g>
   <g id="patch_24">
    <path clip-path="url(#p389adf478c)" d="M 87.019968 142.328209 
L 102.153254 142.328209 
L 102.153254 100.472751 
L 87.019968 100.472751 
z
" style="fill:#cc78bc;stroke:#ffffff;stroke-linejoin:miter;stroke-width:0.8;"/>
   </g>
   <g id="patch_25">
    <path clip-path="url(#p389adf478c)" d="M 102.153254 102.357315 
L 117.28654 102.357315 
L 117.28654 94.381216 
L 102.153254 94.381216 
z
" style="fill:#cc78bc;stroke:#ffffff;stroke-linejoin:miter;stroke-width:0.8;"/>
   </g>
   <g id="patch_26">
    <path clip-path="url(#p389adf478c)" d="M 117.28654 149.045233 
L 132.419826 149.045233 
L 132.419826 126.386507 
L 117.28654 126.386507 
z
" style="fill:#cc78bc;stroke:#ffffff;stroke-linejoin:miter;stroke-width:0.8;"/>
   </g>
   <g id="patch_27">
    <path clip-path="url(#p389adf478c)" d="M 132.419826 148.370697 
L 147.553112 148.370697 
L 147.553112 128.134094 
L 132.419826 128.134094 
z
" style="fill:#cc78bc;stroke:#ffffff;stroke-linejoin:miter;stroke-width:0.8;"/>
   </g>
   <g id="patch_28">
    <path clip-path="url(#p389adf478c)" d="M 147.553112 151.976291 
L 162.686399 151.976291 
L 162.686399 133.410227 
L 147.553112 133.410227 
z
" style="fill:#cc78bc;stroke:#ffffff;stroke-linejoin:miter;stroke-width:0.8;"/>
   </g>
   <g id="patch_29">
    <path clip-path="url(#p389adf478c)" d="M 162.686399 164.351044 
L 177.819685 164.351044 
L 177.819685 139.730352 
L 162.686399 139.730352 
z
" style="fill:#cc78bc;stroke:#ffffff;stroke-linejoin:miter;stroke-width:0.8;"/>
   </g>
   <g id="patch_30">
    <path clip-path="url(#p389adf478c)" d="M 177.819685 176.084111 
L 192.952971 176.084111 
L 192.952971 142.078687 
L 177.819685 142.078687 
z
" style="fill:#cc78bc;stroke:#ffffff;stroke-linejoin:miter;stroke-width:0.8;"/>
   </g>
   <g id="patch_31">
    <path clip-path="url(#p389adf478c)" d="M 192.952971 177.317784 
L 208.086257 177.317784 
L 208.086257 149.390575 
L 192.952971 149.390575 
z
" style="fill:#cc78bc;stroke:#ffffff;stroke-linejoin:miter;stroke-width:0.8;"/>
   </g>
   <g id="patch_32">
    <path clip-path="url(#p389adf478c)" d="M 208.086257 188.770543 
L 223.219543 188.770543 
L 223.219543 156.792487 
L 208.086257 156.792487 
z
" style="fill:#cc78bc;stroke:#ffffff;stroke-linejoin:miter;stroke-width:0.8;"/>
   </g>
   <g id="patch_33">
    <path clip-path="url(#p389adf478c)" d="M 223.219543 193.586738 
L 238.352829 193.586738 
L 238.352829 165.05876 
L 223.219543 165.05876 
z
" style="fill:#cc78bc;stroke:#ffffff;stroke-linejoin:miter;stroke-width:0.8;"/>
   </g>
   <g id="patch_34">
    <path clip-path="url(#p389adf478c)" d="M 238.352829 174.917157 
L 253.486115 174.917157 
L 253.486115 158.849604 
L 238.352829 158.849604 
z
" style="fill:#cc78bc;stroke:#ffffff;stroke-linejoin:miter;stroke-width:0.8;"/>
   </g>
   <g id="patch_35">
    <path clip-path="url(#p389adf478c)" d="M 253.486115 186.713426 
L 268.619401 186.713426 
L 268.619401 161.123642 
L 253.486115 161.123642 
z
" style="fill:#cc78bc;stroke:#ffffff;stroke-linejoin:miter;stroke-width:0.8;"/>
   </g>
   <g id="patch_36">
    <path clip-path="url(#p389adf478c)" d="M 268.619401 184.835425 
L 283.752687 184.835425 
L 283.752687 161.123642 
L 268.619401 161.123642 
z
" style="fill:#cc78bc;stroke:#ffffff;stroke-linejoin:miter;stroke-width:0.8;"/>
   </g>
   <g id="patch_37">
    <path clip-path="url(#p389adf478c)" d="M 283.752687 199.795894 
L 298.885974 199.795894 
L 298.885974 171.752956 
L 283.752687 171.752956 
z
" style="fill:#cc78bc;stroke:#ffffff;stroke-linejoin:miter;stroke-width:0.8;"/>
   </g>
   <g id="patch_38">
    <path clip-path="url(#p389adf478c)" d="M 298.885974 214.756364 
L 314.01926 214.756364 
L 314.01926 177.317784 
L 298.885974 177.317784 
z
" style="fill:#cc78bc;stroke:#ffffff;stroke-linejoin:miter;stroke-width:0.8;"/>
   </g>
   <g id="patch_39">
    <path clip-path="url(#p389adf478c)" d="M 314.01926 196.468799 
L 329.152546 196.468799 
L 329.152546 176.084111 
L 314.01926 176.084111 
z
" style="fill:#cc78bc;stroke:#ffffff;stroke-linejoin:miter;stroke-width:0.8;"/>
   </g>
   <g id="patch_40">
    <path clip-path="url(#p389adf478c)" d="M 329.152546 208.547208 
L 344.285832 208.547208 
L 344.285832 186.713426 
L 329.152546 186.713426 
z
" style="fill:#cc78bc;stroke:#ffffff;stroke-linejoin:miter;stroke-width:0.8;"/>
   </g>
   <g id="patch_41">
    <path clip-path="url(#p389adf478c)" d="M 344.285832 193.586738 
L 359.419118 193.586738 
L 359.419118 174.917157 
L 344.285832 174.917157 
z
" style="fill:#cc78bc;stroke:#ffffff;stroke-linejoin:miter;stroke-width:0.8;"/>
   </g>
   <g id="patch_42">
    <path clip-path="url(#p389adf478c)" d="M 359.419118 191.04458 
L 374.552404 191.04458 
L 374.552404 172.757016 
L 359.419118 172.757016 
z
" style="fill:#cc78bc;stroke:#ffffff;stroke-linejoin:miter;stroke-width:0.8;"/>
   </g>
   <g id="patch_43">
    <path d="M 56.6685 224.64 
L 56.6685 7.2 
" style="fill:none;stroke:#262626;stroke-linecap:square;stroke-linejoin:miter;"/>
   </g>
   <g id="patch_44">
    <path d="M 391.4685 224.64 
L 391.4685 7.2 
" style="fill:none;stroke:#262626;stroke-linecap:square;stroke-linejoin:miter;"/>
   </g>
   <g id="patch_45">
    <path d="M 56.6685 224.64 
L 391.4685 224.64 
" style="fill:none;stroke:#262626;stroke-linecap:square;stroke-linejoin:miter;"/>
   </g>
   <g id="patch_46">
    <path d="M 56.6685 7.2 
L 391.4685 7.2 
" style="fill:none;stroke:#262626;stroke-linecap:square;stroke-linejoin:miter;"/>
   </g>
  </g>
  <g id="axes_2">
   <g id="matplotlib.axis_3">
    <g id="ytick_38">
     <g id="line2d_54">
      <defs>
       <path d="M 0 0 
L 4.8 0 
" id="md0b8cdb1b3" style="stroke:#262626;"/>
      </defs>
      <g>
       <use style="fill:#262626;stroke:#262626;" x="391.4685" xlink:href="#md0b8cdb1b3" y="215.027367"/>
      </g>
     </g>
     <g id="text_13">
      <!-- 0.0 -->
      <g style="fill:#262626;" transform="translate(399.7685 220.042336)scale(0.132 -0.132)">
       <use xlink:href="#DejaVuSans-48"/>
       <use x="63.623047" xlink:href="#DejaVuSans-46"/>
       <use x="95.410156" xlink:href="#DejaVuSans-48"/>
      </g>
     </g>
    </g>
    <g id="ytick_39">
     <g id="line2d_55">
      <g>
       <use style="fill:#262626;stroke:#262626;" x="391.4685" xlink:href="#md0b8cdb1b3" y="175.438621"/>
      </g>
     </g>
     <g id="text_14">
      <!-- 0.2 -->
      <g style="fill:#262626;" transform="translate(399.7685 180.45359)scale(0.132 -0.132)">
       <use xlink:href="#DejaVuSans-48"/>
       <use x="63.623047" xlink:href="#DejaVuSans-46"/>
       <use x="95.410156" xlink:href="#DejaVuSans-50"/>
      </g>
     </g>
    </g>
    <g id="ytick_40">
     <g id="line2d_56">
      <g>
       <use style="fill:#262626;stroke:#262626;" x="391.4685" xlink:href="#md0b8cdb1b3" y="135.849875"/>
      </g>
     </g>
     <g id="text_15">
      <!-- 0.4 -->
      <g style="fill:#262626;" transform="translate(399.7685 140.864844)scale(0.132 -0.132)">
       <use xlink:href="#DejaVuSans-48"/>
       <use x="63.623047" xlink:href="#DejaVuSans-46"/>
       <use x="95.410156" xlink:href="#DejaVuSans-52"/>
      </g>
     </g>
    </g>
    <g id="ytick_41">
     <g id="line2d_57">
      <g>
       <use style="fill:#262626;stroke:#262626;" x="391.4685" xlink:href="#md0b8cdb1b3" y="96.261129"/>
      </g>
     </g>
     <g id="text_16">
      <!-- 0.6 -->
      <g style="fill:#262626;" transform="translate(399.7685 101.276097)scale(0.132 -0.132)">
       <use xlink:href="#DejaVuSans-48"/>
       <use x="63.623047" xlink:href="#DejaVuSans-46"/>
       <use x="95.410156" xlink:href="#DejaVuSans-54"/>
      </g>
     </g>
    </g>
    <g id="ytick_42">
     <g id="line2d_58">
      <g>
       <use style="fill:#262626;stroke:#262626;" x="391.4685" xlink:href="#md0b8cdb1b3" y="56.672383"/>
      </g>
     </g>
     <g id="text_17">
      <!-- 0.8 -->
      <g style="fill:#262626;" transform="translate(399.7685 61.687351)scale(0.132 -0.132)">
       <use xlink:href="#DejaVuSans-48"/>
       <use x="63.623047" xlink:href="#DejaVuSans-46"/>
       <use x="95.410156" xlink:href="#DejaVuSans-56"/>
      </g>
     </g>
    </g>
    <g id="ytick_43">
     <g id="line2d_59">
      <g>
       <use style="fill:#262626;stroke:#262626;" x="391.4685" xlink:href="#md0b8cdb1b3" y="17.083636"/>
      </g>
     </g>
     <g id="text_18">
      <!-- 1.0 -->
      <g style="fill:#262626;" transform="translate(399.7685 22.098605)scale(0.132 -0.132)">
       <use xlink:href="#DejaVuSans-49"/>
       <use x="63.623047" xlink:href="#DejaVuSans-46"/>
       <use x="95.410156" xlink:href="#DejaVuSans-48"/>
      </g>
     </g>
    </g>
    <g id="text_19">
     <!-- test -->
     <g style="fill:#262626;" transform="translate(435.702375 129.74625)rotate(-90)scale(0.144 -0.144)">
      <defs>
       <path d="M 44.28125 53.078125 
L 44.28125 44.578125 
Q 40.484375 46.53125 36.375 47.5 
Q 32.28125 48.484375 27.875 48.484375 
Q 21.1875 48.484375 17.84375 46.4375 
Q 14.5 44.390625 14.5 40.28125 
Q 14.5 37.15625 16.890625 35.375 
Q 19.28125 33.59375 26.515625 31.984375 
L 29.59375 31.296875 
Q 39.15625 29.25 43.1875 25.515625 
Q 47.21875 21.78125 47.21875 15.09375 
Q 47.21875 7.46875 41.1875 3.015625 
Q 35.15625 -1.421875 24.609375 -1.421875 
Q 20.21875 -1.421875 15.453125 -0.5625 
Q 10.6875 0.296875 5.421875 2 
L 5.421875 11.28125 
Q 10.40625 8.6875 15.234375 7.390625 
Q 20.0625 6.109375 24.8125 6.109375 
Q 31.15625 6.109375 34.5625 8.28125 
Q 37.984375 10.453125 37.984375 14.40625 
Q 37.984375 18.0625 35.515625 20.015625 
Q 33.0625 21.96875 24.703125 23.78125 
L 21.578125 24.515625 
Q 13.234375 26.265625 9.515625 29.90625 
Q 5.8125 33.546875 5.8125 39.890625 
Q 5.8125 47.609375 11.28125 51.796875 
Q 16.75 56 26.8125 56 
Q 31.78125 56 36.171875 55.265625 
Q 40.578125 54.546875 44.28125 53.078125 
z
" id="DejaVuSans-115"/>
      </defs>
      <use xlink:href="#DejaVuSans-116"/>
      <use x="39.208984" xlink:href="#DejaVuSans-101"/>
      <use x="100.732422" xlink:href="#DejaVuSans-115"/>
      <use x="152.832031" xlink:href="#DejaVuSans-116"/>
     </g>
    </g>
   </g>
   <g id="line2d_60">
    <path clip-path="url(#p389adf478c)" d="M 79.453325 214.756364 
L 94.586611 132.616575 
L 109.719897 44.378341 
L 124.853183 44.04862 
L 139.986469 43.001008 
L 155.119755 43.715127 
L 170.253042 44.041257 
L 185.386328 44.695587 
L 200.519614 44.379991 
L 215.6529 44.48412 
L 230.786186 44.250882 
L 245.919472 43.911153 
L 261.052758 44.00069 
L 276.186044 44.424656 
L 291.31933 44.258397 
L 306.452617 44.368951 
L 321.585903 44.177072 
L 336.719189 44.259277 
L 351.852475 44.232409 
L 366.985761 44.354762 
L 376.250318 44.354762 
" style="fill:none;stroke:#0173b2;stroke-linecap:round;stroke-width:1.2;"/>
    <defs>
     <path d="M -2.4 0 
L 2.4 0 
M 0 2.4 
L 0 -2.4 
" id="m4323f07faf" style="stroke:#0173b2;"/>
    </defs>
    <g clip-path="url(#p389adf478c)">
     <use style="fill:#0173b2;stroke:#0173b2;" x="79.453325" xlink:href="#m4323f07faf" y="214.756364"/>
     <use style="fill:#0173b2;stroke:#0173b2;" x="94.586611" xlink:href="#m4323f07faf" y="132.616575"/>
     <use style="fill:#0173b2;stroke:#0173b2;" x="109.719897" xlink:href="#m4323f07faf" y="44.378341"/>
     <use style="fill:#0173b2;stroke:#0173b2;" x="124.853183" xlink:href="#m4323f07faf" y="44.04862"/>
     <use style="fill:#0173b2;stroke:#0173b2;" x="139.986469" xlink:href="#m4323f07faf" y="43.001008"/>
     <use style="fill:#0173b2;stroke:#0173b2;" x="155.119755" xlink:href="#m4323f07faf" y="43.715127"/>
     <use style="fill:#0173b2;stroke:#0173b2;" x="170.253042" xlink:href="#m4323f07faf" y="44.041257"/>
     <use style="fill:#0173b2;stroke:#0173b2;" x="185.386328" xlink:href="#m4323f07faf" y="44.695587"/>
     <use style="fill:#0173b2;stroke:#0173b2;" x="200.519614" xlink:href="#m4323f07faf" y="44.379991"/>
     <use style="fill:#0173b2;stroke:#0173b2;" x="215.6529" xlink:href="#m4323f07faf" y="44.48412"/>
     <use style="fill:#0173b2;stroke:#0173b2;" x="230.786186" xlink:href="#m4323f07faf" y="44.250882"/>
     <use style="fill:#0173b2;stroke:#0173b2;" x="245.919472" xlink:href="#m4323f07faf" y="43.911153"/>
     <use style="fill:#0173b2;stroke:#0173b2;" x="261.052758" xlink:href="#m4323f07faf" y="44.00069"/>
     <use style="fill:#0173b2;stroke:#0173b2;" x="276.186044" xlink:href="#m4323f07faf" y="44.424656"/>
     <use style="fill:#0173b2;stroke:#0173b2;" x="291.31933" xlink:href="#m4323f07faf" y="44.258397"/>
     <use style="fill:#0173b2;stroke:#0173b2;" x="306.452617" xlink:href="#m4323f07faf" y="44.368951"/>
     <use style="fill:#0173b2;stroke:#0173b2;" x="321.585903" xlink:href="#m4323f07faf" y="44.177072"/>
     <use style="fill:#0173b2;stroke:#0173b2;" x="336.719189" xlink:href="#m4323f07faf" y="44.259277"/>
     <use style="fill:#0173b2;stroke:#0173b2;" x="351.852475" xlink:href="#m4323f07faf" y="44.232409"/>
     <use style="fill:#0173b2;stroke:#0173b2;" x="366.985761" xlink:href="#m4323f07faf" y="44.354762"/>
     <use style="fill:#0173b2;stroke:#0173b2;" x="376.250318" xlink:href="#m4323f07faf" y="44.354762"/>
    </g>
   </g>
   <g id="line2d_61">
    <path clip-path="url(#p389adf478c)" d="M 79.453325 214.756364 
L 94.586611 214.176626 
L 109.719897 210.568548 
L 124.853183 210.180357 
L 139.986469 209.781266 
L 155.119755 209.445058 
L 170.253042 209.261322 
L 185.386328 209.161071 
L 200.519614 209.062985 
L 215.6529 209.006953 
L 230.786186 208.961214 
L 245.919472 208.846661 
L 261.052758 208.209754 
L 276.186044 207.419968 
L 291.31933 207.113841 
L 306.452617 207.068557 
L 321.585903 206.574866 
L 336.719189 206.305969 
L 351.852475 205.711051 
L 366.985761 205.034252 
L 376.250318 205.034252 
" style="fill:none;stroke:#de8f05;stroke-linecap:round;stroke-width:1.2;"/>
    <defs>
     <path d="M -2.4 0 
L 2.4 0 
M 0 2.4 
L 0 -2.4 
" id="m874d7ed0fb" style="stroke:#de8f05;"/>
    </defs>
    <g clip-path="url(#p389adf478c)">
     <use style="fill:#de8f05;stroke:#de8f05;" x="79.453325" xlink:href="#m874d7ed0fb" y="214.756364"/>
     <use style="fill:#de8f05;stroke:#de8f05;" x="94.586611" xlink:href="#m874d7ed0fb" y="214.176626"/>
     <use style="fill:#de8f05;stroke:#de8f05;" x="109.719897" xlink:href="#m874d7ed0fb" y="210.568548"/>
     <use style="fill:#de8f05;stroke:#de8f05;" x="124.853183" xlink:href="#m874d7ed0fb" y="210.180357"/>
     <use style="fill:#de8f05;stroke:#de8f05;" x="139.986469" xlink:href="#m874d7ed0fb" y="209.781266"/>
     <use style="fill:#de8f05;stroke:#de8f05;" x="155.119755" xlink:href="#m874d7ed0fb" y="209.445058"/>
     <use style="fill:#de8f05;stroke:#de8f05;" x="170.253042" xlink:href="#m874d7ed0fb" y="209.261322"/>
     <use style="fill:#de8f05;stroke:#de8f05;" x="185.386328" xlink:href="#m874d7ed0fb" y="209.161071"/>
     <use style="fill:#de8f05;stroke:#de8f05;" x="200.519614" xlink:href="#m874d7ed0fb" y="209.062985"/>
     <use style="fill:#de8f05;stroke:#de8f05;" x="215.6529" xlink:href="#m874d7ed0fb" y="209.006953"/>
     <use style="fill:#de8f05;stroke:#de8f05;" x="230.786186" xlink:href="#m874d7ed0fb" y="208.961214"/>
     <use style="fill:#de8f05;stroke:#de8f05;" x="245.919472" xlink:href="#m874d7ed0fb" y="208.846661"/>
     <use style="fill:#de8f05;stroke:#de8f05;" x="261.052758" xlink:href="#m874d7ed0fb" y="208.209754"/>
     <use style="fill:#de8f05;stroke:#de8f05;" x="276.186044" xlink:href="#m874d7ed0fb" y="207.419968"/>
     <use style="fill:#de8f05;stroke:#de8f05;" x="291.31933" xlink:href="#m874d7ed0fb" y="207.113841"/>
     <use style="fill:#de8f05;stroke:#de8f05;" x="306.452617" xlink:href="#m874d7ed0fb" y="207.068557"/>
     <use style="fill:#de8f05;stroke:#de8f05;" x="321.585903" xlink:href="#m874d7ed0fb" y="206.574866"/>
     <use style="fill:#de8f05;stroke:#de8f05;" x="336.719189" xlink:href="#m874d7ed0fb" y="206.305969"/>
     <use style="fill:#de8f05;stroke:#de8f05;" x="351.852475" xlink:href="#m874d7ed0fb" y="205.711051"/>
     <use style="fill:#de8f05;stroke:#de8f05;" x="366.985761" xlink:href="#m874d7ed0fb" y="205.034252"/>
     <use style="fill:#de8f05;stroke:#de8f05;" x="376.250318" xlink:href="#m874d7ed0fb" y="205.034252"/>
    </g>
   </g>
   <g id="line2d_62">
    <path clip-path="url(#p389adf478c)" d="M 79.453325 214.756364 
L 94.586611 86.638757 
L 109.719897 21.620021 
L 124.853183 38.888411 
L 139.986469 30.401107 
L 155.119755 47.541291 
L 170.253042 47.419564 
L 185.386328 66.569569 
L 200.519614 28.08051 
L 215.6529 50.194224 
L 230.786186 17.083636 
L 245.919472 22.553134 
L 261.052758 42.076532 
L 276.186044 66.569569 
L 291.31933 17.083636 
L 306.452617 71.421131 
L 321.585903 17.083636 
L 336.719189 48.574684 
L 351.852475 31.408512 
L 366.985761 53.579512 
L 376.250318 17.083636 
" style="fill:none;stroke:#0173b2;stroke-linecap:round;stroke-width:1.2;"/>
    <defs>
     <path d="M 0 2.4 
C 0.636487 2.4 1.246992 2.147121 1.697056 1.697056 
C 2.147121 1.246992 2.4 0.636487 2.4 0 
C 2.4 -0.636487 2.147121 -1.246992 1.697056 -1.697056 
C 1.246992 -2.147121 0.636487 -2.4 0 -2.4 
C -0.636487 -2.4 -1.246992 -2.147121 -1.697056 -1.697056 
C -2.147121 -1.246992 -2.4 -0.636487 -2.4 0 
C -2.4 0.636487 -2.147121 1.246992 -1.697056 1.697056 
C -1.246992 2.147121 -0.636487 2.4 0 2.4 
z
" id="m8be6d3b05a" style="stroke:#0173b2;"/>
    </defs>
    <g clip-path="url(#p389adf478c)">
     <use style="fill:#ffffff;stroke:#0173b2;" x="79.453325" xlink:href="#m8be6d3b05a" y="214.756364"/>
     <use style="fill:#ffffff;stroke:#0173b2;" x="94.586611" xlink:href="#m8be6d3b05a" y="86.638757"/>
     <use style="fill:#ffffff;stroke:#0173b2;" x="109.719897" xlink:href="#m8be6d3b05a" y="21.620021"/>
     <use style="fill:#ffffff;stroke:#0173b2;" x="124.853183" xlink:href="#m8be6d3b05a" y="38.888411"/>
     <use style="fill:#ffffff;stroke:#0173b2;" x="139.986469" xlink:href="#m8be6d3b05a" y="30.401107"/>
     <use style="fill:#ffffff;stroke:#0173b2;" x="155.119755" xlink:href="#m8be6d3b05a" y="47.541291"/>
     <use style="fill:#ffffff;stroke:#0173b2;" x="170.253042" xlink:href="#m8be6d3b05a" y="47.419564"/>
     <use style="fill:#ffffff;stroke:#0173b2;" x="185.386328" xlink:href="#m8be6d3b05a" y="66.569569"/>
     <use style="fill:#ffffff;stroke:#0173b2;" x="200.519614" xlink:href="#m8be6d3b05a" y="28.08051"/>
     <use style="fill:#ffffff;stroke:#0173b2;" x="215.6529" xlink:href="#m8be6d3b05a" y="50.194224"/>
     <use style="fill:#ffffff;stroke:#0173b2;" x="230.786186" xlink:href="#m8be6d3b05a" y="17.083636"/>
     <use style="fill:#ffffff;stroke:#0173b2;" x="245.919472" xlink:href="#m8be6d3b05a" y="22.553134"/>
     <use style="fill:#ffffff;stroke:#0173b2;" x="261.052758" xlink:href="#m8be6d3b05a" y="42.076532"/>
     <use style="fill:#ffffff;stroke:#0173b2;" x="276.186044" xlink:href="#m8be6d3b05a" y="66.569569"/>
     <use style="fill:#ffffff;stroke:#0173b2;" x="291.31933" xlink:href="#m8be6d3b05a" y="17.083636"/>
     <use style="fill:#ffffff;stroke:#0173b2;" x="306.452617" xlink:href="#m8be6d3b05a" y="71.421131"/>
     <use style="fill:#ffffff;stroke:#0173b2;" x="321.585903" xlink:href="#m8be6d3b05a" y="17.083636"/>
     <use style="fill:#ffffff;stroke:#0173b2;" x="336.719189" xlink:href="#m8be6d3b05a" y="48.574684"/>
     <use style="fill:#ffffff;stroke:#0173b2;" x="351.852475" xlink:href="#m8be6d3b05a" y="31.408512"/>
     <use style="fill:#ffffff;stroke:#0173b2;" x="366.985761" xlink:href="#m8be6d3b05a" y="53.579512"/>
     <use style="fill:#ffffff;stroke:#0173b2;" x="376.250318" xlink:href="#m8be6d3b05a" y="17.083636"/>
    </g>
   </g>
   <g id="line2d_63">
    <path clip-path="url(#p389adf478c)" d="M 79.453325 214.756364 
L 94.586611 186.560543 
L 109.719897 78.239013 
L 124.853183 145.747061 
L 139.986469 137.51928 
L 155.119755 131.281943 
L 170.253042 151.767 
L 185.386328 174.073492 
L 200.519614 160.752473 
L 215.6529 170.040156 
L 230.786186 162.242372 
L 245.919472 121.004095 
L 261.052758 153.294916 
L 276.186044 149.046124 
L 291.31933 161.042713 
L 306.452617 180.096121 
L 321.585903 138.04925 
L 336.719189 143.047829 
L 351.852475 131.682638 
L 366.985761 135.849875 
L 376.250318 17.083636 
" style="fill:none;stroke:#de8f05;stroke-linecap:round;stroke-width:1.2;"/>
    <defs>
     <path d="M 0 2.4 
C 0.636487 2.4 1.246992 2.147121 1.697056 1.697056 
C 2.147121 1.246992 2.4 0.636487 2.4 0 
C 2.4 -0.636487 2.147121 -1.246992 1.697056 -1.697056 
C 1.246992 -2.147121 0.636487 -2.4 0 -2.4 
C -0.636487 -2.4 -1.246992 -2.147121 -1.697056 -1.697056 
C -2.147121 -1.246992 -2.4 -0.636487 -2.4 0 
C -2.4 0.636487 -2.147121 1.246992 -1.697056 1.697056 
C -1.246992 2.147121 -0.636487 2.4 0 2.4 
z
" id="mf259a80526" style="stroke:#de8f05;"/>
    </defs>
    <g clip-path="url(#p389adf478c)">
     <use style="fill:#ffffff;stroke:#de8f05;" x="79.453325" xlink:href="#mf259a80526" y="214.756364"/>
     <use style="fill:#ffffff;stroke:#de8f05;" x="94.586611" xlink:href="#mf259a80526" y="186.560543"/>
     <use style="fill:#ffffff;stroke:#de8f05;" x="109.719897" xlink:href="#mf259a80526" y="78.239013"/>
     <use style="fill:#ffffff;stroke:#de8f05;" x="124.853183" xlink:href="#mf259a80526" y="145.747061"/>
     <use style="fill:#ffffff;stroke:#de8f05;" x="139.986469" xlink:href="#mf259a80526" y="137.51928"/>
     <use style="fill:#ffffff;stroke:#de8f05;" x="155.119755" xlink:href="#mf259a80526" y="131.281943"/>
     <use style="fill:#ffffff;stroke:#de8f05;" x="170.253042" xlink:href="#mf259a80526" y="151.767"/>
     <use style="fill:#ffffff;stroke:#de8f05;" x="185.386328" xlink:href="#mf259a80526" y="174.073492"/>
     <use style="fill:#ffffff;stroke:#de8f05;" x="200.519614" xlink:href="#mf259a80526" y="160.752473"/>
     <use style="fill:#ffffff;stroke:#de8f05;" x="215.6529" xlink:href="#mf259a80526" y="170.040156"/>
     <use style="fill:#ffffff;stroke:#de8f05;" x="230.786186" xlink:href="#mf259a80526" y="162.242372"/>
     <use style="fill:#ffffff;stroke:#de8f05;" x="245.919472" xlink:href="#mf259a80526" y="121.004095"/>
     <use style="fill:#ffffff;stroke:#de8f05;" x="261.052758" xlink:href="#mf259a80526" y="153.294916"/>
     <use style="fill:#ffffff;stroke:#de8f05;" x="276.186044" xlink:href="#mf259a80526" y="149.046124"/>
     <use style="fill:#ffffff;stroke:#de8f05;" x="291.31933" xlink:href="#mf259a80526" y="161.042713"/>
     <use style="fill:#ffffff;stroke:#de8f05;" x="306.452617" xlink:href="#mf259a80526" y="180.096121"/>
     <use style="fill:#ffffff;stroke:#de8f05;" x="321.585903" xlink:href="#mf259a80526" y="138.04925"/>
     <use style="fill:#ffffff;stroke:#de8f05;" x="336.719189" xlink:href="#mf259a80526" y="143.047829"/>
     <use style="fill:#ffffff;stroke:#de8f05;" x="351.852475" xlink:href="#mf259a80526" y="131.682638"/>
     <use style="fill:#ffffff;stroke:#de8f05;" x="366.985761" xlink:href="#mf259a80526" y="135.849875"/>
     <use style="fill:#ffffff;stroke:#de8f05;" x="376.250318" xlink:href="#mf259a80526" y="17.083636"/>
    </g>
   </g>
   <g id="patch_47">
    <path d="M 56.6685 224.64 
L 56.6685 7.2 
" style="fill:none;stroke:#262626;stroke-linecap:square;stroke-linejoin:miter;"/>
   </g>
   <g id="patch_48">
    <path d="M 391.4685 224.64 
L 391.4685 7.2 
" style="fill:none;stroke:#262626;stroke-linecap:square;stroke-linejoin:miter;"/>
   </g>
   <g id="patch_49">
    <path d="M 56.6685 224.64 
L 391.4685 224.64 
" style="fill:none;stroke:#262626;stroke-linecap:square;stroke-linejoin:miter;"/>
   </g>
   <g id="patch_50">
    <path d="M 56.6685 7.2 
L 391.4685 7.2 
" style="fill:none;stroke:#262626;stroke-linecap:square;stroke-linejoin:miter;"/>
   </g>
   <g id="legend_1">
    <g id="patch_51">
     <path d="M 467.6685 176.025375 
L 664.633125 176.025375 
Q 667.273125 176.025375 667.273125 173.385375 
L 667.273125 58.454625 
Q 667.273125 55.814625 664.633125 55.814625 
L 467.6685 55.814625 
Q 465.0285 55.814625 465.0285 58.454625 
L 465.0285 173.385375 
Q 465.0285 176.025375 467.6685 176.025375 
z
" style="fill:#ffffff;opacity:0.8;stroke:#cccccc;stroke-linejoin:miter;stroke-width:0.8;"/>
    </g>
    <g id="patch_52">
     <path d="M 470.3085 71.124562 
L 496.7085 71.124562 
L 496.7085 61.884562 
L 470.3085 61.884562 
z
" style="fill:#cc78bc;stroke:#cc78bc;stroke-linejoin:miter;stroke-width:0.8;"/>
    </g>
    <g id="text_20">
     <!-- absent -->
     <g style="fill:#262626;" transform="translate(507.2685 71.124562)scale(0.132 -0.132)">
      <use xlink:href="#DejaVuSans-97"/>
      <use x="61.279297" xlink:href="#DejaVuSans-98"/>
      <use x="124.755859" xlink:href="#DejaVuSans-115"/>
      <use x="176.855469" xlink:href="#DejaVuSans-101"/>
      <use x="238.378906" xlink:href="#DejaVuSans-110"/>
      <use x="301.757812" xlink:href="#DejaVuSans-116"/>
     </g>
    </g>
    <g id="patch_53">
     <path d="M 470.3085 90.499687 
L 496.7085 90.499687 
L 496.7085 81.259687 
L 470.3085 81.259687 
z
" style="fill:#029e73;stroke:#029e73;stroke-linejoin:miter;stroke-width:0.8;"/>
    </g>
    <g id="text_21">
     <!-- present -->
     <g style="fill:#262626;" transform="translate(507.2685 90.499687)scale(0.132 -0.132)">
      <defs>
       <path d="M 18.109375 8.203125 
L 18.109375 -20.796875 
L 9.078125 -20.796875 
L 9.078125 54.6875 
L 18.109375 54.6875 
L 18.109375 46.390625 
Q 20.953125 51.265625 25.265625 53.625 
Q 29.59375 56 35.59375 56 
Q 45.5625 56 51.78125 48.09375 
Q 58.015625 40.1875 58.015625 27.296875 
Q 58.015625 14.40625 51.78125 6.484375 
Q 45.5625 -1.421875 35.59375 -1.421875 
Q 29.59375 -1.421875 25.265625 0.953125 
Q 20.953125 3.328125 18.109375 8.203125 
z
M 48.6875 27.296875 
Q 48.6875 37.203125 44.609375 42.84375 
Q 40.53125 48.484375 33.40625 48.484375 
Q 26.265625 48.484375 22.1875 42.84375 
Q 18.109375 37.203125 18.109375 27.296875 
Q 18.109375 17.390625 22.1875 11.75 
Q 26.265625 6.109375 33.40625 6.109375 
Q 40.53125 6.109375 44.609375 11.75 
Q 48.6875 17.390625 48.6875 27.296875 
z
" id="DejaVuSans-112"/>
      </defs>
      <use xlink:href="#DejaVuSans-112"/>
      <use x="63.476562" xlink:href="#DejaVuSans-114"/>
      <use x="102.339844" xlink:href="#DejaVuSans-101"/>
      <use x="163.863281" xlink:href="#DejaVuSans-115"/>
      <use x="215.962891" xlink:href="#DejaVuSans-101"/>
      <use x="277.486328" xlink:href="#DejaVuSans-110"/>
      <use x="340.865234" xlink:href="#DejaVuSans-116"/>
     </g>
    </g>
    <g id="line2d_64">
     <path d="M 470.3085 105.254812 
L 496.7085 105.254812 
" style="fill:none;stroke:#0173b2;stroke-linecap:round;stroke-width:1.2;"/>
    </g>
    <g id="line2d_65">
     <g>
      <use style="fill:#0173b2;stroke:#0173b2;" x="483.5085" xlink:href="#m4323f07faf" y="105.254812"/>
     </g>
    </g>
    <g id="text_22">
     <!-- cumulative AP -->
     <g style="fill:#262626;" transform="translate(507.2685 109.874812)scale(0.132 -0.132)">
      <defs>
       <path d="M 52 44.1875 
Q 55.375 50.25 60.0625 53.125 
Q 64.75 56 71.09375 56 
Q 79.640625 56 84.28125 50.015625 
Q 88.921875 44.046875 88.921875 33.015625 
L 88.921875 0 
L 79.890625 0 
L 79.890625 32.71875 
Q 79.890625 40.578125 77.09375 44.375 
Q 74.3125 48.1875 68.609375 48.1875 
Q 61.625 48.1875 57.5625 43.546875 
Q 53.515625 38.921875 53.515625 30.90625 
L 53.515625 0 
L 44.484375 0 
L 44.484375 32.71875 
Q 44.484375 40.625 41.703125 44.40625 
Q 38.921875 48.1875 33.109375 48.1875 
Q 26.21875 48.1875 22.15625 43.53125 
Q 18.109375 38.875 18.109375 30.90625 
L 18.109375 0 
L 9.078125 0 
L 9.078125 54.6875 
L 18.109375 54.6875 
L 18.109375 46.1875 
Q 21.1875 51.21875 25.484375 53.609375 
Q 29.78125 56 35.6875 56 
Q 41.65625 56 45.828125 52.96875 
Q 50 49.953125 52 44.1875 
z
" id="DejaVuSans-109"/>
       <path id="DejaVuSans-32"/>
       <path d="M 34.1875 63.1875 
L 20.796875 26.90625 
L 47.609375 26.90625 
z
M 28.609375 72.90625 
L 39.796875 72.90625 
L 67.578125 0 
L 57.328125 0 
L 50.6875 18.703125 
L 17.828125 18.703125 
L 11.1875 0 
L 0.78125 0 
z
" id="DejaVuSans-65"/>
       <path d="M 19.671875 64.796875 
L 19.671875 37.40625 
L 32.078125 37.40625 
Q 38.96875 37.40625 42.71875 40.96875 
Q 46.484375 44.53125 46.484375 51.125 
Q 46.484375 57.671875 42.71875 61.234375 
Q 38.96875 64.796875 32.078125 64.796875 
z
M 9.8125 72.90625 
L 32.078125 72.90625 
Q 44.34375 72.90625 50.609375 67.359375 
Q 56.890625 61.8125 56.890625 51.125 
Q 56.890625 40.328125 50.609375 34.8125 
Q 44.34375 29.296875 32.078125 29.296875 
L 19.671875 29.296875 
L 19.671875 0 
L 9.8125 0 
z
" id="DejaVuSans-80"/>
      </defs>
      <use xlink:href="#DejaVuSans-99"/>
      <use x="54.980469" xlink:href="#DejaVuSans-117"/>
      <use x="118.359375" xlink:href="#DejaVuSans-109"/>
      <use x="215.771484" xlink:href="#DejaVuSans-117"/>
      <use x="279.150391" xlink:href="#DejaVuSans-108"/>
      <use x="306.933594" xlink:href="#DejaVuSans-97"/>
      <use x="368.212891" xlink:href="#DejaVuSans-116"/>
      <use x="407.421875" xlink:href="#DejaVuSans-105"/>
      <use x="435.205078" xlink:href="#DejaVuSans-118"/>
      <use x="494.384766" xlink:href="#DejaVuSans-101"/>
      <use x="555.908203" xlink:href="#DejaVuSans-32"/>
      <use x="587.695312" xlink:href="#DejaVuSans-65"/>
      <use x="656.103516" xlink:href="#DejaVuSans-80"/>
     </g>
    </g>
    <g id="line2d_66">
     <path d="M 470.3085 124.629937 
L 496.7085 124.629937 
" style="fill:none;stroke:#0173b2;stroke-linecap:round;stroke-width:1.2;"/>
    </g>
    <g id="line2d_67">
     <g>
      <use style="fill:#ffffff;stroke:#0173b2;" x="483.5085" xlink:href="#m8be6d3b05a" y="124.629937"/>
     </g>
    </g>
    <g id="text_23">
     <!-- AP -->
     <g style="fill:#262626;" transform="translate(507.2685 129.249937)scale(0.132 -0.132)">
      <use xlink:href="#DejaVuSans-65"/>
      <use x="68.408203" xlink:href="#DejaVuSans-80"/>
     </g>
    </g>
    <g id="line2d_68">
     <path d="M 470.3085 144.005062 
L 496.7085 144.005062 
" style="fill:none;stroke:#de8f05;stroke-linecap:round;stroke-width:1.2;"/>
    </g>
    <g id="line2d_69">
     <g>
      <use style="fill:#de8f05;stroke:#de8f05;" x="483.5085" xlink:href="#m874d7ed0fb" y="144.005062"/>
     </g>
    </g>
    <g id="text_24">
     <!-- cumulative Baseline AP -->
     <g style="fill:#262626;" transform="translate(507.2685 148.625062)scale(0.132 -0.132)">
      <defs>
       <path d="M 19.671875 34.8125 
L 19.671875 8.109375 
L 35.5 8.109375 
Q 43.453125 8.109375 47.28125 11.40625 
Q 51.125 14.703125 51.125 21.484375 
Q 51.125 28.328125 47.28125 31.5625 
Q 43.453125 34.8125 35.5 34.8125 
z
M 19.671875 64.796875 
L 19.671875 42.828125 
L 34.28125 42.828125 
Q 41.5 42.828125 45.03125 45.53125 
Q 48.578125 48.25 48.578125 53.8125 
Q 48.578125 59.328125 45.03125 62.0625 
Q 41.5 64.796875 34.28125 64.796875 
z
M 9.8125 72.90625 
L 35.015625 72.90625 
Q 46.296875 72.90625 52.390625 68.21875 
Q 58.5 63.53125 58.5 54.890625 
Q 58.5 48.1875 55.375 44.234375 
Q 52.25 40.28125 46.1875 39.3125 
Q 53.46875 37.75 57.5 32.78125 
Q 61.53125 27.828125 61.53125 20.40625 
Q 61.53125 10.640625 54.890625 5.3125 
Q 48.25 0 35.984375 0 
L 9.8125 0 
z
" id="DejaVuSans-66"/>
      </defs>
      <use xlink:href="#DejaVuSans-99"/>
      <use x="54.980469" xlink:href="#DejaVuSans-117"/>
      <use x="118.359375" xlink:href="#DejaVuSans-109"/>
      <use x="215.771484" xlink:href="#DejaVuSans-117"/>
      <use x="279.150391" xlink:href="#DejaVuSans-108"/>
      <use x="306.933594" xlink:href="#DejaVuSans-97"/>
      <use x="368.212891" xlink:href="#DejaVuSans-116"/>
      <use x="407.421875" xlink:href="#DejaVuSans-105"/>
      <use x="435.205078" xlink:href="#DejaVuSans-118"/>
      <use x="494.384766" xlink:href="#DejaVuSans-101"/>
      <use x="555.908203" xlink:href="#DejaVuSans-32"/>
      <use x="587.695312" xlink:href="#DejaVuSans-66"/>
      <use x="656.298828" xlink:href="#DejaVuSans-97"/>
      <use x="717.578125" xlink:href="#DejaVuSans-115"/>
      <use x="769.677734" xlink:href="#DejaVuSans-101"/>
      <use x="831.201172" xlink:href="#DejaVuSans-108"/>
      <use x="858.984375" xlink:href="#DejaVuSans-105"/>
      <use x="886.767578" xlink:href="#DejaVuSans-110"/>
      <use x="950.146484" xlink:href="#DejaVuSans-101"/>
      <use x="1011.669922" xlink:href="#DejaVuSans-32"/>
      <use x="1043.457031" xlink:href="#DejaVuSans-65"/>
      <use x="1111.865234" xlink:href="#DejaVuSans-80"/>
     </g>
    </g>
    <g id="line2d_70">
     <path d="M 470.3085 163.380187 
L 496.7085 163.380187 
" style="fill:none;stroke:#de8f05;stroke-linecap:round;stroke-width:1.2;"/>
    </g>
    <g id="line2d_71">
     <g>
      <use style="fill:#ffffff;stroke:#de8f05;" x="483.5085" xlink:href="#mf259a80526" y="163.380187"/>
     </g>
    </g>
    <g id="text_25">
     <!-- Baseline AP -->
     <g style="fill:#262626;" transform="translate(507.2685 168.000187)scale(0.132 -0.132)">
      <use xlink:href="#DejaVuSans-66"/>
      <use x="68.603516" xlink:href="#DejaVuSans-97"/>
      <use x="129.882812" xlink:href="#DejaVuSans-115"/>
      <use x="181.982422" xlink:href="#DejaVuSans-101"/>
      <use x="243.505859" xlink:href="#DejaVuSans-108"/>
      <use x="271.289062" xlink:href="#DejaVuSans-105"/>
      <use x="299.072266" xlink:href="#DejaVuSans-110"/>
      <use x="362.451172" xlink:href="#DejaVuSans-101"/>
      <use x="423.974609" xlink:href="#DejaVuSans-32"/>
      <use x="455.761719" xlink:href="#DejaVuSans-65"/>
      <use x="524.169922" xlink:href="#DejaVuSans-80"/>
     </g>
    </g>
   </g>
  </g>
 </g>
 <defs>
  <clipPath id="p389adf478c">
   <rect height="217.44" width="334.8" x="56.6685" y="7.2"/>
  </clipPath>
 </defs>
</svg>
