<?xml version="1.0" encoding="utf-8" standalone="no"?>
<!DOCTYPE svg PUBLIC "-//W3C//DTD SVG 1.1//EN"
  "http://www.w3.org/Graphics/SVG/1.1/DTD/svg11.dtd">
<!-- Created with matplotlib (https://matplotlib.org/) -->
<svg height="270.851625pt" version="1.1" viewBox="0 0 682.261125 270.851625" width="682.261125pt" xmlns="http://www.w3.org/2000/svg" xmlns:xlink="http://www.w3.org/1999/xlink">
 <metadata>
  <rdf:RDF xmlns:cc="http://creativecommons.org/ns#" xmlns:dc="http://purl.org/dc/elements/1.1/" xmlns:rdf="http://www.w3.org/1999/02/22-rdf-syntax-ns#">
   <cc:Work>
    <dc:type rdf:resource="http://purl.org/dc/dcmitype/StillImage"/>
    <dc:date>2021-06-24T21:58:36.693972</dc:date>
    <dc:format>image/svg+xml</dc:format>
    <dc:creator>
     <cc:Agent>
      <dc:title>Matplotlib v3.3.4, https://matplotlib.org/</dc:title>
     </cc:Agent>
    </dc:creator>
   </cc:Work>
  </rdf:RDF>
 </metadata>
 <defs>
  <style type="text/css">*{stroke-linecap:butt;stroke-linejoin:round;}</style>
 </defs>
 <g id="figure_1">
  <g id="patch_1">
   <path d="M 0 270.851625 
L 682.261125 270.851625 
L 682.261125 0 
L 0 0 
z
" style="fill:#ffffff;"/>
  </g>
  <g id="axes_1">
   <g id="patch_2">
    <path d="M 64.4565 224.64 
L 399.2565 224.64 
L 399.2565 7.2 
L 64.4565 7.2 
z
" style="fill:#ffffff;"/>
   </g>
   <g id="matplotlib.axis_1">
    <g id="xtick_1">
     <g id="line2d_1">
      <path clip-path="url(#pb29b693e8b)" d="M 79.522233 224.64 
L 79.522233 7.2 
" style="fill:none;stroke:#cccccc;stroke-dasharray:0.8,1.32;stroke-dashoffset:0;stroke-width:0.8;"/>
     </g>
     <g id="line2d_2">
      <defs>
       <path d="M 0 0 
L 0 4.8 
" id="md4d9fce71c" style="stroke:#262626;stroke-width:0.6;"/>
      </defs>
      <g>
       <use style="fill:#262626;stroke:#262626;stroke-width:0.6;" x="79.522233" xlink:href="#md4d9fce71c" y="224.64"/>
      </g>
     </g>
     <g id="text_1">
      <!-- 0 -->
      <g style="fill:#262626;" transform="translate(75.322983 242.969937)scale(0.132 -0.132)">
       <defs>
        <path d="M 31.78125 66.40625 
Q 24.171875 66.40625 20.328125 58.90625 
Q 16.5 51.421875 16.5 36.375 
Q 16.5 21.390625 20.328125 13.890625 
Q 24.171875 6.390625 31.78125 6.390625 
Q 39.453125 6.390625 43.28125 13.890625 
Q 47.125 21.390625 47.125 36.375 
Q 47.125 51.421875 43.28125 58.90625 
Q 39.453125 66.40625 31.78125 66.40625 
z
M 31.78125 74.21875 
Q 44.046875 74.21875 50.515625 64.515625 
Q 56.984375 54.828125 56.984375 36.375 
Q 56.984375 17.96875 50.515625 8.265625 
Q 44.046875 -1.421875 31.78125 -1.421875 
Q 19.53125 -1.421875 13.0625 8.265625 
Q 6.59375 17.96875 6.59375 36.375 
Q 6.59375 54.828125 13.0625 64.515625 
Q 19.53125 74.21875 31.78125 74.21875 
z
" id="DejaVuSans-48"/>
       </defs>
       <use xlink:href="#DejaVuSans-48"/>
      </g>
     </g>
    </g>
    <g id="xtick_2">
     <g id="line2d_3">
      <path clip-path="url(#pb29b693e8b)" d="M 155.746535 224.64 
L 155.746535 7.2 
" style="fill:none;stroke:#cccccc;stroke-dasharray:0.8,1.32;stroke-dashoffset:0;stroke-width:0.8;"/>
     </g>
     <g id="line2d_4">
      <g>
       <use style="fill:#262626;stroke:#262626;stroke-width:0.6;" x="155.746535" xlink:href="#md4d9fce71c" y="224.64"/>
      </g>
     </g>
     <g id="text_2">
      <!-- 500 -->
      <g style="fill:#262626;" transform="translate(143.148785 242.969937)scale(0.132 -0.132)">
       <defs>
        <path d="M 10.796875 72.90625 
L 49.515625 72.90625 
L 49.515625 64.59375 
L 19.828125 64.59375 
L 19.828125 46.734375 
Q 21.96875 47.46875 24.109375 47.828125 
Q 26.265625 48.1875 28.421875 48.1875 
Q 40.625 48.1875 47.75 41.5 
Q 54.890625 34.8125 54.890625 23.390625 
Q 54.890625 11.625 47.5625 5.09375 
Q 40.234375 -1.421875 26.90625 -1.421875 
Q 22.3125 -1.421875 17.546875 -0.640625 
Q 12.796875 0.140625 7.71875 1.703125 
L 7.71875 11.625 
Q 12.109375 9.234375 16.796875 8.0625 
Q 21.484375 6.890625 26.703125 6.890625 
Q 35.15625 6.890625 40.078125 11.328125 
Q 45.015625 15.765625 45.015625 23.390625 
Q 45.015625 31 40.078125 35.4375 
Q 35.15625 39.890625 26.703125 39.890625 
Q 22.75 39.890625 18.8125 39.015625 
Q 14.890625 38.140625 10.796875 36.28125 
z
" id="DejaVuSans-53"/>
       </defs>
       <use xlink:href="#DejaVuSans-53"/>
       <use x="63.623047" xlink:href="#DejaVuSans-48"/>
       <use x="127.246094" xlink:href="#DejaVuSans-48"/>
      </g>
     </g>
    </g>
    <g id="xtick_3">
     <g id="line2d_5">
      <path clip-path="url(#pb29b693e8b)" d="M 231.970836 224.64 
L 231.970836 7.2 
" style="fill:none;stroke:#cccccc;stroke-dasharray:0.8,1.32;stroke-dashoffset:0;stroke-width:0.8;"/>
     </g>
     <g id="line2d_6">
      <g>
       <use style="fill:#262626;stroke:#262626;stroke-width:0.6;" x="231.970836" xlink:href="#md4d9fce71c" y="224.64"/>
      </g>
     </g>
     <g id="text_3">
      <!-- 1000 -->
      <g style="fill:#262626;" transform="translate(215.173836 242.969937)scale(0.132 -0.132)">
       <defs>
        <path d="M 12.40625 8.296875 
L 28.515625 8.296875 
L 28.515625 63.921875 
L 10.984375 60.40625 
L 10.984375 69.390625 
L 28.421875 72.90625 
L 38.28125 72.90625 
L 38.28125 8.296875 
L 54.390625 8.296875 
L 54.390625 0 
L 12.40625 0 
z
" id="DejaVuSans-49"/>
       </defs>
       <use xlink:href="#DejaVuSans-49"/>
       <use x="63.623047" xlink:href="#DejaVuSans-48"/>
       <use x="127.246094" xlink:href="#DejaVuSans-48"/>
       <use x="190.869141" xlink:href="#DejaVuSans-48"/>
      </g>
     </g>
    </g>
    <g id="xtick_4">
     <g id="line2d_7">
      <path clip-path="url(#pb29b693e8b)" d="M 308.195138 224.64 
L 308.195138 7.2 
" style="fill:none;stroke:#cccccc;stroke-dasharray:0.8,1.32;stroke-dashoffset:0;stroke-width:0.8;"/>
     </g>
     <g id="line2d_8">
      <g>
       <use style="fill:#262626;stroke:#262626;stroke-width:0.6;" x="308.195138" xlink:href="#md4d9fce71c" y="224.64"/>
      </g>
     </g>
     <g id="text_4">
      <!-- 1500 -->
      <g style="fill:#262626;" transform="translate(291.398138 242.969937)scale(0.132 -0.132)">
       <use xlink:href="#DejaVuSans-49"/>
       <use x="63.623047" xlink:href="#DejaVuSans-53"/>
       <use x="127.246094" xlink:href="#DejaVuSans-48"/>
       <use x="190.869141" xlink:href="#DejaVuSans-48"/>
      </g>
     </g>
    </g>
    <g id="xtick_5">
     <g id="line2d_9">
      <path clip-path="url(#pb29b693e8b)" d="M 384.41944 224.64 
L 384.41944 7.2 
" style="fill:none;stroke:#cccccc;stroke-dasharray:0.8,1.32;stroke-dashoffset:0;stroke-width:0.8;"/>
     </g>
     <g id="line2d_10">
      <g>
       <use style="fill:#262626;stroke:#262626;stroke-width:0.6;" x="384.41944" xlink:href="#md4d9fce71c" y="224.64"/>
      </g>
     </g>
     <g id="text_5">
      <!-- 2000 -->
      <g style="fill:#262626;" transform="translate(367.62244 242.969937)scale(0.132 -0.132)">
       <defs>
        <path d="M 19.1875 8.296875 
L 53.609375 8.296875 
L 53.609375 0 
L 7.328125 0 
L 7.328125 8.296875 
Q 12.9375 14.109375 22.625 23.890625 
Q 32.328125 33.6875 34.8125 36.53125 
Q 39.546875 41.84375 41.421875 45.53125 
Q 43.3125 49.21875 43.3125 52.78125 
Q 43.3125 58.59375 39.234375 62.25 
Q 35.15625 65.921875 28.609375 65.921875 
Q 23.96875 65.921875 18.8125 64.3125 
Q 13.671875 62.703125 7.8125 59.421875 
L 7.8125 69.390625 
Q 13.765625 71.78125 18.9375 73 
Q 24.125 74.21875 28.421875 74.21875 
Q 39.75 74.21875 46.484375 68.546875 
Q 53.21875 62.890625 53.21875 53.421875 
Q 53.21875 48.921875 51.53125 44.890625 
Q 49.859375 40.875 45.40625 35.40625 
Q 44.1875 33.984375 37.640625 27.21875 
Q 31.109375 20.453125 19.1875 8.296875 
z
" id="DejaVuSans-50"/>
       </defs>
       <use xlink:href="#DejaVuSans-50"/>
       <use x="63.623047" xlink:href="#DejaVuSans-48"/>
       <use x="127.246094" xlink:href="#DejaVuSans-48"/>
       <use x="190.869141" xlink:href="#DejaVuSans-48"/>
      </g>
     </g>
    </g>
    <g id="text_6">
     <!-- hits -->
     <g style="fill:#262626;" transform="translate(218.719875 260.656875)scale(0.144 -0.144)">
      <defs>
       <path d="M 54.890625 33.015625 
L 54.890625 0 
L 45.90625 0 
L 45.90625 32.71875 
Q 45.90625 40.484375 42.875 44.328125 
Q 39.84375 48.1875 33.796875 48.1875 
Q 26.515625 48.1875 22.3125 43.546875 
Q 18.109375 38.921875 18.109375 30.90625 
L 18.109375 0 
L 9.078125 0 
L 9.078125 75.984375 
L 18.109375 75.984375 
L 18.109375 46.1875 
Q 21.34375 51.125 25.703125 53.5625 
Q 30.078125 56 35.796875 56 
Q 45.21875 56 50.046875 50.171875 
Q 54.890625 44.34375 54.890625 33.015625 
z
" id="DejaVuSans-104"/>
       <path d="M 9.421875 54.6875 
L 18.40625 54.6875 
L 18.40625 0 
L 9.421875 0 
z
M 9.421875 75.984375 
L 18.40625 75.984375 
L 18.40625 64.59375 
L 9.421875 64.59375 
z
" id="DejaVuSans-105"/>
       <path d="M 18.3125 70.21875 
L 18.3125 54.6875 
L 36.8125 54.6875 
L 36.8125 47.703125 
L 18.3125 47.703125 
L 18.3125 18.015625 
Q 18.3125 11.328125 20.140625 9.421875 
Q 21.96875 7.515625 27.59375 7.515625 
L 36.8125 7.515625 
L 36.8125 0 
L 27.59375 0 
Q 17.1875 0 13.234375 3.875 
Q 9.28125 7.765625 9.28125 18.015625 
L 9.28125 47.703125 
L 2.6875 47.703125 
L 2.6875 54.6875 
L 9.28125 54.6875 
L 9.28125 70.21875 
z
" id="DejaVuSans-116"/>
       <path d="M 44.28125 53.078125 
L 44.28125 44.578125 
Q 40.484375 46.53125 36.375 47.5 
Q 32.28125 48.484375 27.875 48.484375 
Q 21.1875 48.484375 17.84375 46.4375 
Q 14.5 44.390625 14.5 40.28125 
Q 14.5 37.15625 16.890625 35.375 
Q 19.28125 33.59375 26.515625 31.984375 
L 29.59375 31.296875 
Q 39.15625 29.25 43.1875 25.515625 
Q 47.21875 21.78125 47.21875 15.09375 
Q 47.21875 7.46875 41.1875 3.015625 
Q 35.15625 -1.421875 24.609375 -1.421875 
Q 20.21875 -1.421875 15.453125 -0.5625 
Q 10.6875 0.296875 5.421875 2 
L 5.421875 11.28125 
Q 10.40625 8.6875 15.234375 7.390625 
Q 20.0625 6.109375 24.8125 6.109375 
Q 31.15625 6.109375 34.5625 8.28125 
Q 37.984375 10.453125 37.984375 14.40625 
Q 37.984375 18.0625 35.515625 20.015625 
Q 33.0625 21.96875 24.703125 23.78125 
L 21.578125 24.515625 
Q 13.234375 26.265625 9.515625 29.90625 
Q 5.8125 33.546875 5.8125 39.890625 
Q 5.8125 47.609375 11.28125 51.796875 
Q 16.75 56 26.8125 56 
Q 31.78125 56 36.171875 55.265625 
Q 40.578125 54.546875 44.28125 53.078125 
z
" id="DejaVuSans-115"/>
      </defs>
      <use xlink:href="#DejaVuSans-104"/>
      <use x="63.378906" xlink:href="#DejaVuSans-105"/>
      <use x="91.162109" xlink:href="#DejaVuSans-116"/>
      <use x="130.371094" xlink:href="#DejaVuSans-115"/>
     </g>
    </g>
   </g>
   <g id="matplotlib.axis_2">
    <g id="ytick_1">
     <g id="line2d_11">
      <path clip-path="url(#pb29b693e8b)" d="M 64.4565 214.781176 
L 399.2565 214.781176 
" style="fill:none;stroke:#cccccc;stroke-dasharray:0.8,1.32;stroke-dashoffset:0;stroke-width:0.8;"/>
     </g>
     <g id="line2d_12">
      <defs>
       <path d="M 0 0 
L -4.8 0 
" id="mbf42419a02" style="stroke:#262626;stroke-width:0.6;"/>
      </defs>
      <g>
       <use style="fill:#262626;stroke:#262626;stroke-width:0.6;" x="64.4565" xlink:href="#mbf42419a02" y="214.781176"/>
      </g>
     </g>
     <g id="text_7">
      <!-- $\mathdefault{10^{-6}}$ -->
      <g style="fill:#262626;" transform="translate(25.1365 219.796145)scale(0.132 -0.132)">
       <defs>
        <path d="M 10.59375 35.5 
L 73.1875 35.5 
L 73.1875 27.203125 
L 10.59375 27.203125 
z
" id="DejaVuSans-8722"/>
        <path d="M 33.015625 40.375 
Q 26.375 40.375 22.484375 35.828125 
Q 18.609375 31.296875 18.609375 23.390625 
Q 18.609375 15.53125 22.484375 10.953125 
Q 26.375 6.390625 33.015625 6.390625 
Q 39.65625 6.390625 43.53125 10.953125 
Q 47.40625 15.53125 47.40625 23.390625 
Q 47.40625 31.296875 43.53125 35.828125 
Q 39.65625 40.375 33.015625 40.375 
z
M 52.59375 71.296875 
L 52.59375 62.3125 
Q 48.875 64.0625 45.09375 64.984375 
Q 41.3125 65.921875 37.59375 65.921875 
Q 27.828125 65.921875 22.671875 59.328125 
Q 17.53125 52.734375 16.796875 39.40625 
Q 19.671875 43.65625 24.015625 45.921875 
Q 28.375 48.1875 33.59375 48.1875 
Q 44.578125 48.1875 50.953125 41.515625 
Q 57.328125 34.859375 57.328125 23.390625 
Q 57.328125 12.15625 50.6875 5.359375 
Q 44.046875 -1.421875 33.015625 -1.421875 
Q 20.359375 -1.421875 13.671875 8.265625 
Q 6.984375 17.96875 6.984375 36.375 
Q 6.984375 53.65625 15.1875 63.9375 
Q 23.390625 74.21875 37.203125 74.21875 
Q 40.921875 74.21875 44.703125 73.484375 
Q 48.484375 72.75 52.59375 71.296875 
z
" id="DejaVuSans-54"/>
       </defs>
       <use transform="translate(0 0.765625)" xlink:href="#DejaVuSans-49"/>
       <use transform="translate(63.623047 0.765625)" xlink:href="#DejaVuSans-48"/>
       <use transform="translate(128.203125 39.046875)scale(0.7)" xlink:href="#DejaVuSans-8722"/>
       <use transform="translate(186.855469 39.046875)scale(0.7)" xlink:href="#DejaVuSans-54"/>
      </g>
     </g>
    </g>
    <g id="ytick_2">
     <g id="line2d_13">
      <path clip-path="url(#pb29b693e8b)" d="M 64.4565 164.646291 
L 399.2565 164.646291 
" style="fill:none;stroke:#cccccc;stroke-dasharray:0.8,1.32;stroke-dashoffset:0;stroke-width:0.8;"/>
     </g>
     <g id="line2d_14">
      <g>
       <use style="fill:#262626;stroke:#262626;stroke-width:0.6;" x="64.4565" xlink:href="#mbf42419a02" y="164.646291"/>
      </g>
     </g>
     <g id="text_8">
      <!-- $\mathdefault{10^{-5}}$ -->
      <g style="fill:#262626;" transform="translate(25.1365 169.66126)scale(0.132 -0.132)">
       <use transform="translate(0 0.684375)" xlink:href="#DejaVuSans-49"/>
       <use transform="translate(63.623047 0.684375)" xlink:href="#DejaVuSans-48"/>
       <use transform="translate(128.203125 38.965625)scale(0.7)" xlink:href="#DejaVuSans-8722"/>
       <use transform="translate(186.855469 38.965625)scale(0.7)" xlink:href="#DejaVuSans-53"/>
      </g>
     </g>
    </g>
    <g id="ytick_3">
     <g id="line2d_15">
      <path clip-path="url(#pb29b693e8b)" d="M 64.4565 114.511405 
L 399.2565 114.511405 
" style="fill:none;stroke:#cccccc;stroke-dasharray:0.8,1.32;stroke-dashoffset:0;stroke-width:0.8;"/>
     </g>
     <g id="line2d_16">
      <g>
       <use style="fill:#262626;stroke:#262626;stroke-width:0.6;" x="64.4565" xlink:href="#mbf42419a02" y="114.511405"/>
      </g>
     </g>
     <g id="text_9">
      <!-- $\mathdefault{10^{-4}}$ -->
      <g style="fill:#262626;" transform="translate(25.1365 119.526374)scale(0.132 -0.132)">
       <defs>
        <path d="M 37.796875 64.3125 
L 12.890625 25.390625 
L 37.796875 25.390625 
z
M 35.203125 72.90625 
L 47.609375 72.90625 
L 47.609375 25.390625 
L 58.015625 25.390625 
L 58.015625 17.1875 
L 47.609375 17.1875 
L 47.609375 0 
L 37.796875 0 
L 37.796875 17.1875 
L 4.890625 17.1875 
L 4.890625 26.703125 
z
" id="DejaVuSans-52"/>
       </defs>
       <use transform="translate(0 0.684375)" xlink:href="#DejaVuSans-49"/>
       <use transform="translate(63.623047 0.684375)" xlink:href="#DejaVuSans-48"/>
       <use transform="translate(128.203125 38.965625)scale(0.7)" xlink:href="#DejaVuSans-8722"/>
       <use transform="translate(186.855469 38.965625)scale(0.7)" xlink:href="#DejaVuSans-52"/>
      </g>
     </g>
    </g>
    <g id="ytick_4">
     <g id="line2d_17">
      <path clip-path="url(#pb29b693e8b)" d="M 64.4565 64.37652 
L 399.2565 64.37652 
" style="fill:none;stroke:#cccccc;stroke-dasharray:0.8,1.32;stroke-dashoffset:0;stroke-width:0.8;"/>
     </g>
     <g id="line2d_18">
      <g>
       <use style="fill:#262626;stroke:#262626;stroke-width:0.6;" x="64.4565" xlink:href="#mbf42419a02" y="64.37652"/>
      </g>
     </g>
     <g id="text_10">
      <!-- $\mathdefault{10^{-3}}$ -->
      <g style="fill:#262626;" transform="translate(25.1365 69.391489)scale(0.132 -0.132)">
       <defs>
        <path d="M 40.578125 39.3125 
Q 47.65625 37.796875 51.625 33 
Q 55.609375 28.21875 55.609375 21.1875 
Q 55.609375 10.40625 48.1875 4.484375 
Q 40.765625 -1.421875 27.09375 -1.421875 
Q 22.515625 -1.421875 17.65625 -0.515625 
Q 12.796875 0.390625 7.625 2.203125 
L 7.625 11.71875 
Q 11.71875 9.328125 16.59375 8.109375 
Q 21.484375 6.890625 26.8125 6.890625 
Q 36.078125 6.890625 40.9375 10.546875 
Q 45.796875 14.203125 45.796875 21.1875 
Q 45.796875 27.640625 41.28125 31.265625 
Q 36.765625 34.90625 28.71875 34.90625 
L 20.21875 34.90625 
L 20.21875 43.015625 
L 29.109375 43.015625 
Q 36.375 43.015625 40.234375 45.921875 
Q 44.09375 48.828125 44.09375 54.296875 
Q 44.09375 59.90625 40.109375 62.90625 
Q 36.140625 65.921875 28.71875 65.921875 
Q 24.65625 65.921875 20.015625 65.03125 
Q 15.375 64.15625 9.8125 62.3125 
L 9.8125 71.09375 
Q 15.4375 72.65625 20.34375 73.4375 
Q 25.25 74.21875 29.59375 74.21875 
Q 40.828125 74.21875 47.359375 69.109375 
Q 53.90625 64.015625 53.90625 55.328125 
Q 53.90625 49.265625 50.4375 45.09375 
Q 46.96875 40.921875 40.578125 39.3125 
z
" id="DejaVuSans-51"/>
       </defs>
       <use transform="translate(0 0.765625)" xlink:href="#DejaVuSans-49"/>
       <use transform="translate(63.623047 0.765625)" xlink:href="#DejaVuSans-48"/>
       <use transform="translate(128.203125 39.046875)scale(0.7)" xlink:href="#DejaVuSans-8722"/>
       <use transform="translate(186.855469 39.046875)scale(0.7)" xlink:href="#DejaVuSans-51"/>
      </g>
     </g>
    </g>
    <g id="ytick_5">
     <g id="line2d_19">
      <path clip-path="url(#pb29b693e8b)" d="M 64.4565 14.241635 
L 399.2565 14.241635 
" style="fill:none;stroke:#cccccc;stroke-dasharray:0.8,1.32;stroke-dashoffset:0;stroke-width:0.8;"/>
     </g>
     <g id="line2d_20">
      <g>
       <use style="fill:#262626;stroke:#262626;stroke-width:0.6;" x="64.4565" xlink:href="#mbf42419a02" y="14.241635"/>
      </g>
     </g>
     <g id="text_11">
      <!-- $\mathdefault{10^{-2}}$ -->
      <g style="fill:#262626;" transform="translate(25.1365 19.256604)scale(0.132 -0.132)">
       <use transform="translate(0 0.765625)" xlink:href="#DejaVuSans-49"/>
       <use transform="translate(63.623047 0.765625)" xlink:href="#DejaVuSans-48"/>
       <use transform="translate(128.203125 39.046875)scale(0.7)" xlink:href="#DejaVuSans-8722"/>
       <use transform="translate(186.855469 39.046875)scale(0.7)" xlink:href="#DejaVuSans-50"/>
      </g>
     </g>
    </g>
    <g id="ytick_6">
     <g id="line2d_21">
      <defs>
       <path d="M 0 0 
L -3.2 0 
" id="mee859b73cb" style="stroke:#262626;stroke-width:0.8;"/>
      </defs>
      <g>
       <use style="fill:#262626;stroke:#262626;stroke-width:0.8;" x="64.4565" xlink:href="#mee859b73cb" y="222.547168"/>
      </g>
     </g>
    </g>
    <g id="ytick_7">
     <g id="line2d_22">
      <g>
       <use style="fill:#262626;stroke:#262626;stroke-width:0.8;" x="64.4565" xlink:href="#mee859b73cb" y="219.639748"/>
      </g>
     </g>
    </g>
    <g id="ytick_8">
     <g id="line2d_23">
      <g>
       <use style="fill:#262626;stroke:#262626;stroke-width:0.8;" x="64.4565" xlink:href="#mee859b73cb" y="217.075223"/>
      </g>
     </g>
    </g>
    <g id="ytick_9">
     <g id="line2d_24">
      <g>
       <use style="fill:#262626;stroke:#262626;stroke-width:0.8;" x="64.4565" xlink:href="#mee859b73cb" y="199.689072"/>
      </g>
     </g>
    </g>
    <g id="ytick_10">
     <g id="line2d_25">
      <g>
       <use style="fill:#262626;stroke:#262626;stroke-width:0.8;" x="64.4565" xlink:href="#mee859b73cb" y="190.860757"/>
      </g>
     </g>
    </g>
    <g id="ytick_11">
     <g id="line2d_26">
      <g>
       <use style="fill:#262626;stroke:#262626;stroke-width:0.8;" x="64.4565" xlink:href="#mee859b73cb" y="184.596967"/>
      </g>
     </g>
    </g>
    <g id="ytick_12">
     <g id="line2d_27">
      <g>
       <use style="fill:#262626;stroke:#262626;stroke-width:0.8;" x="64.4565" xlink:href="#mee859b73cb" y="179.738395"/>
      </g>
     </g>
    </g>
    <g id="ytick_13">
     <g id="line2d_28">
      <g>
       <use style="fill:#262626;stroke:#262626;stroke-width:0.8;" x="64.4565" xlink:href="#mee859b73cb" y="175.768652"/>
      </g>
     </g>
    </g>
    <g id="ytick_14">
     <g id="line2d_29">
      <g>
       <use style="fill:#262626;stroke:#262626;stroke-width:0.8;" x="64.4565" xlink:href="#mee859b73cb" y="172.412283"/>
      </g>
     </g>
    </g>
    <g id="ytick_15">
     <g id="line2d_30">
      <g>
       <use style="fill:#262626;stroke:#262626;stroke-width:0.8;" x="64.4565" xlink:href="#mee859b73cb" y="169.504863"/>
      </g>
     </g>
    </g>
    <g id="ytick_16">
     <g id="line2d_31">
      <g>
       <use style="fill:#262626;stroke:#262626;stroke-width:0.8;" x="64.4565" xlink:href="#mee859b73cb" y="166.940337"/>
      </g>
     </g>
    </g>
    <g id="ytick_17">
     <g id="line2d_32">
      <g>
       <use style="fill:#262626;stroke:#262626;stroke-width:0.8;" x="64.4565" xlink:href="#mee859b73cb" y="149.554186"/>
      </g>
     </g>
    </g>
    <g id="ytick_18">
     <g id="line2d_33">
      <g>
       <use style="fill:#262626;stroke:#262626;stroke-width:0.8;" x="64.4565" xlink:href="#mee859b73cb" y="140.725871"/>
      </g>
     </g>
    </g>
    <g id="ytick_19">
     <g id="line2d_34">
      <g>
       <use style="fill:#262626;stroke:#262626;stroke-width:0.8;" x="64.4565" xlink:href="#mee859b73cb" y="134.462082"/>
      </g>
     </g>
    </g>
    <g id="ytick_20">
     <g id="line2d_35">
      <g>
       <use style="fill:#262626;stroke:#262626;stroke-width:0.8;" x="64.4565" xlink:href="#mee859b73cb" y="129.60351"/>
      </g>
     </g>
    </g>
    <g id="ytick_21">
     <g id="line2d_36">
      <g>
       <use style="fill:#262626;stroke:#262626;stroke-width:0.8;" x="64.4565" xlink:href="#mee859b73cb" y="125.633767"/>
      </g>
     </g>
    </g>
    <g id="ytick_22">
     <g id="line2d_37">
      <g>
       <use style="fill:#262626;stroke:#262626;stroke-width:0.8;" x="64.4565" xlink:href="#mee859b73cb" y="122.277397"/>
      </g>
     </g>
    </g>
    <g id="ytick_23">
     <g id="line2d_38">
      <g>
       <use style="fill:#262626;stroke:#262626;stroke-width:0.8;" x="64.4565" xlink:href="#mee859b73cb" y="119.369978"/>
      </g>
     </g>
    </g>
    <g id="ytick_24">
     <g id="line2d_39">
      <g>
       <use style="fill:#262626;stroke:#262626;stroke-width:0.8;" x="64.4565" xlink:href="#mee859b73cb" y="116.805452"/>
      </g>
     </g>
    </g>
    <g id="ytick_25">
     <g id="line2d_40">
      <g>
       <use style="fill:#262626;stroke:#262626;stroke-width:0.8;" x="64.4565" xlink:href="#mee859b73cb" y="99.419301"/>
      </g>
     </g>
    </g>
    <g id="ytick_26">
     <g id="line2d_41">
      <g>
       <use style="fill:#262626;stroke:#262626;stroke-width:0.8;" x="64.4565" xlink:href="#mee859b73cb" y="90.590986"/>
      </g>
     </g>
    </g>
    <g id="ytick_27">
     <g id="line2d_42">
      <g>
       <use style="fill:#262626;stroke:#262626;stroke-width:0.8;" x="64.4565" xlink:href="#mee859b73cb" y="84.327197"/>
      </g>
     </g>
    </g>
    <g id="ytick_28">
     <g id="line2d_43">
      <g>
       <use style="fill:#262626;stroke:#262626;stroke-width:0.8;" x="64.4565" xlink:href="#mee859b73cb" y="79.468624"/>
      </g>
     </g>
    </g>
    <g id="ytick_29">
     <g id="line2d_44">
      <g>
       <use style="fill:#262626;stroke:#262626;stroke-width:0.8;" x="64.4565" xlink:href="#mee859b73cb" y="75.498882"/>
      </g>
     </g>
    </g>
    <g id="ytick_30">
     <g id="line2d_45">
      <g>
       <use style="fill:#262626;stroke:#262626;stroke-width:0.8;" x="64.4565" xlink:href="#mee859b73cb" y="72.142512"/>
      </g>
     </g>
    </g>
    <g id="ytick_31">
     <g id="line2d_46">
      <g>
       <use style="fill:#262626;stroke:#262626;stroke-width:0.8;" x="64.4565" xlink:href="#mee859b73cb" y="69.235093"/>
      </g>
     </g>
    </g>
    <g id="ytick_32">
     <g id="line2d_47">
      <g>
       <use style="fill:#262626;stroke:#262626;stroke-width:0.8;" x="64.4565" xlink:href="#mee859b73cb" y="66.670567"/>
      </g>
     </g>
    </g>
    <g id="ytick_33">
     <g id="line2d_48">
      <g>
       <use style="fill:#262626;stroke:#262626;stroke-width:0.8;" x="64.4565" xlink:href="#mee859b73cb" y="49.284416"/>
      </g>
     </g>
    </g>
    <g id="ytick_34">
     <g id="line2d_49">
      <g>
       <use style="fill:#262626;stroke:#262626;stroke-width:0.8;" x="64.4565" xlink:href="#mee859b73cb" y="40.456101"/>
      </g>
     </g>
    </g>
    <g id="ytick_35">
     <g id="line2d_50">
      <g>
       <use style="fill:#262626;stroke:#262626;stroke-width:0.8;" x="64.4565" xlink:href="#mee859b73cb" y="34.192312"/>
      </g>
     </g>
    </g>
    <g id="ytick_36">
     <g id="line2d_51">
      <g>
       <use style="fill:#262626;stroke:#262626;stroke-width:0.8;" x="64.4565" xlink:href="#mee859b73cb" y="29.333739"/>
      </g>
     </g>
    </g>
    <g id="ytick_37">
     <g id="line2d_52">
      <g>
       <use style="fill:#262626;stroke:#262626;stroke-width:0.8;" x="64.4565" xlink:href="#mee859b73cb" y="25.363996"/>
      </g>
     </g>
    </g>
    <g id="ytick_38">
     <g id="line2d_53">
      <g>
       <use style="fill:#262626;stroke:#262626;stroke-width:0.8;" x="64.4565" xlink:href="#mee859b73cb" y="22.007627"/>
      </g>
     </g>
    </g>
    <g id="ytick_39">
     <g id="line2d_54">
      <g>
       <use style="fill:#262626;stroke:#262626;stroke-width:0.8;" x="64.4565" xlink:href="#mee859b73cb" y="19.100207"/>
      </g>
     </g>
    </g>
    <g id="ytick_40">
     <g id="line2d_55">
      <g>
       <use style="fill:#262626;stroke:#262626;stroke-width:0.8;" x="64.4565" xlink:href="#mee859b73cb" y="16.535681"/>
      </g>
     </g>
    </g>
    <g id="text_12">
     <!-- frequency -->
     <g style="fill:#262626;" transform="translate(18.14175 152.03025)rotate(-90)scale(0.144 -0.144)">
      <defs>
       <path d="M 37.109375 75.984375 
L 37.109375 68.5 
L 28.515625 68.5 
Q 23.6875 68.5 21.796875 66.546875 
Q 19.921875 64.59375 19.921875 59.515625 
L 19.921875 54.6875 
L 34.71875 54.6875 
L 34.71875 47.703125 
L 19.921875 47.703125 
L 19.921875 0 
L 10.890625 0 
L 10.890625 47.703125 
L 2.296875 47.703125 
L 2.296875 54.6875 
L 10.890625 54.6875 
L 10.890625 58.5 
Q 10.890625 67.625 15.140625 71.796875 
Q 19.390625 75.984375 28.609375 75.984375 
z
" id="DejaVuSans-102"/>
       <path d="M 41.109375 46.296875 
Q 39.59375 47.171875 37.8125 47.578125 
Q 36.03125 48 33.890625 48 
Q 26.265625 48 22.1875 43.046875 
Q 18.109375 38.09375 18.109375 28.8125 
L 18.109375 0 
L 9.078125 0 
L 9.078125 54.6875 
L 18.109375 54.6875 
L 18.109375 46.1875 
Q 20.953125 51.171875 25.484375 53.578125 
Q 30.03125 56 36.53125 56 
Q 37.453125 56 38.578125 55.875 
Q 39.703125 55.765625 41.0625 55.515625 
z
" id="DejaVuSans-114"/>
       <path d="M 56.203125 29.59375 
L 56.203125 25.203125 
L 14.890625 25.203125 
Q 15.484375 15.921875 20.484375 11.0625 
Q 25.484375 6.203125 34.421875 6.203125 
Q 39.59375 6.203125 44.453125 7.46875 
Q 49.3125 8.734375 54.109375 11.28125 
L 54.109375 2.78125 
Q 49.265625 0.734375 44.1875 -0.34375 
Q 39.109375 -1.421875 33.890625 -1.421875 
Q 20.796875 -1.421875 13.15625 6.1875 
Q 5.515625 13.8125 5.515625 26.8125 
Q 5.515625 40.234375 12.765625 48.109375 
Q 20.015625 56 32.328125 56 
Q 43.359375 56 49.78125 48.890625 
Q 56.203125 41.796875 56.203125 29.59375 
z
M 47.21875 32.234375 
Q 47.125 39.59375 43.09375 43.984375 
Q 39.0625 48.390625 32.421875 48.390625 
Q 24.90625 48.390625 20.390625 44.140625 
Q 15.875 39.890625 15.1875 32.171875 
z
" id="DejaVuSans-101"/>
       <path d="M 14.796875 27.296875 
Q 14.796875 17.390625 18.875 11.75 
Q 22.953125 6.109375 30.078125 6.109375 
Q 37.203125 6.109375 41.296875 11.75 
Q 45.40625 17.390625 45.40625 27.296875 
Q 45.40625 37.203125 41.296875 42.84375 
Q 37.203125 48.484375 30.078125 48.484375 
Q 22.953125 48.484375 18.875 42.84375 
Q 14.796875 37.203125 14.796875 27.296875 
z
M 45.40625 8.203125 
Q 42.578125 3.328125 38.25 0.953125 
Q 33.9375 -1.421875 27.875 -1.421875 
Q 17.96875 -1.421875 11.734375 6.484375 
Q 5.515625 14.40625 5.515625 27.296875 
Q 5.515625 40.1875 11.734375 48.09375 
Q 17.96875 56 27.875 56 
Q 33.9375 56 38.25 53.625 
Q 42.578125 51.265625 45.40625 46.390625 
L 45.40625 54.6875 
L 54.390625 54.6875 
L 54.390625 -20.796875 
L 45.40625 -20.796875 
z
" id="DejaVuSans-113"/>
       <path d="M 8.5 21.578125 
L 8.5 54.6875 
L 17.484375 54.6875 
L 17.484375 21.921875 
Q 17.484375 14.15625 20.5 10.265625 
Q 23.53125 6.390625 29.59375 6.390625 
Q 36.859375 6.390625 41.078125 11.03125 
Q 45.3125 15.671875 45.3125 23.6875 
L 45.3125 54.6875 
L 54.296875 54.6875 
L 54.296875 0 
L 45.3125 0 
L 45.3125 8.40625 
Q 42.046875 3.421875 37.71875 1 
Q 33.40625 -1.421875 27.6875 -1.421875 
Q 18.265625 -1.421875 13.375 4.4375 
Q 8.5 10.296875 8.5 21.578125 
z
M 31.109375 56 
z
" id="DejaVuSans-117"/>
       <path d="M 54.890625 33.015625 
L 54.890625 0 
L 45.90625 0 
L 45.90625 32.71875 
Q 45.90625 40.484375 42.875 44.328125 
Q 39.84375 48.1875 33.796875 48.1875 
Q 26.515625 48.1875 22.3125 43.546875 
Q 18.109375 38.921875 18.109375 30.90625 
L 18.109375 0 
L 9.078125 0 
L 9.078125 54.6875 
L 18.109375 54.6875 
L 18.109375 46.1875 
Q 21.34375 51.125 25.703125 53.5625 
Q 30.078125 56 35.796875 56 
Q 45.21875 56 50.046875 50.171875 
Q 54.890625 44.34375 54.890625 33.015625 
z
" id="DejaVuSans-110"/>
       <path d="M 48.78125 52.59375 
L 48.78125 44.1875 
Q 44.96875 46.296875 41.140625 47.34375 
Q 37.3125 48.390625 33.40625 48.390625 
Q 24.65625 48.390625 19.8125 42.84375 
Q 14.984375 37.3125 14.984375 27.296875 
Q 14.984375 17.28125 19.8125 11.734375 
Q 24.65625 6.203125 33.40625 6.203125 
Q 37.3125 6.203125 41.140625 7.25 
Q 44.96875 8.296875 48.78125 10.40625 
L 48.78125 2.09375 
Q 45.015625 0.34375 40.984375 -0.53125 
Q 36.96875 -1.421875 32.421875 -1.421875 
Q 20.0625 -1.421875 12.78125 6.34375 
Q 5.515625 14.109375 5.515625 27.296875 
Q 5.515625 40.671875 12.859375 48.328125 
Q 20.21875 56 33.015625 56 
Q 37.15625 56 41.109375 55.140625 
Q 45.0625 54.296875 48.78125 52.59375 
z
" id="DejaVuSans-99"/>
       <path d="M 32.171875 -5.078125 
Q 28.375 -14.84375 24.75 -17.8125 
Q 21.140625 -20.796875 15.09375 -20.796875 
L 7.90625 -20.796875 
L 7.90625 -13.28125 
L 13.1875 -13.28125 
Q 16.890625 -13.28125 18.9375 -11.515625 
Q 21 -9.765625 23.484375 -3.21875 
L 25.09375 0.875 
L 2.984375 54.6875 
L 12.5 54.6875 
L 29.59375 11.921875 
L 46.6875 54.6875 
L 56.203125 54.6875 
z
" id="DejaVuSans-121"/>
      </defs>
      <use xlink:href="#DejaVuSans-102"/>
      <use x="35.205078" xlink:href="#DejaVuSans-114"/>
      <use x="74.068359" xlink:href="#DejaVuSans-101"/>
      <use x="135.591797" xlink:href="#DejaVuSans-113"/>
      <use x="199.068359" xlink:href="#DejaVuSans-117"/>
      <use x="262.447266" xlink:href="#DejaVuSans-101"/>
      <use x="323.970703" xlink:href="#DejaVuSans-110"/>
      <use x="387.349609" xlink:href="#DejaVuSans-99"/>
      <use x="442.330078" xlink:href="#DejaVuSans-121"/>
     </g>
    </g>
   </g>
   <g id="patch_3">
    <path clip-path="url(#pb29b693e8b)" d="M 79.674682 50048.857182 
L 94.873808 50048.857182 
L 94.873808 169.480051 
L 79.674682 169.480051 
z
" style="fill:#029e73;stroke:#ffffff;stroke-linejoin:miter;stroke-width:0.8;"/>
   </g>
   <g id="patch_4">
    <path clip-path="url(#pb29b693e8b)" d="M 94.873808 50048.857182 
L 110.072933 50048.857182 
L 110.072933 203.634002 
L 94.873808 203.634002 
z
" style="fill:#029e73;stroke:#ffffff;stroke-linejoin:miter;stroke-width:0.8;"/>
   </g>
   <g id="patch_5">
    <path clip-path="url(#pb29b693e8b)" d="M 110.072933 50048.857182 
L 125.272059 50048.857182 
L 125.272059 208.492574 
L 110.072933 208.492574 
z
" style="fill:#029e73;stroke:#ffffff;stroke-linejoin:miter;stroke-width:0.8;"/>
   </g>
   <g id="patch_6">
    <path clip-path="url(#pb29b693e8b)" d="M 125.272059 50048.857182 
L 140.471185 50048.857182 
L 140.471185 214.756364 
L 125.272059 214.756364 
z
" style="fill:#029e73;stroke:#ffffff;stroke-linejoin:miter;stroke-width:0.8;"/>
   </g>
   <g id="patch_7">
    <path clip-path="url(#pb29b693e8b)" d="M 140.471185 50048.857182 
L 155.670311 50048.857182 
L 155.670311 214.756364 
L 140.471185 214.756364 
z
" style="fill:#029e73;stroke:#ffffff;stroke-linejoin:miter;stroke-width:0.8;"/>
   </g>
   <g id="patch_8">
    <path clip-path="url(#pb29b693e8b)" d="M 155.670311 50048.857182 
L 170.869436 50048.857182 
L 170.869436 214.756364 
L 155.670311 214.756364 
z
" style="fill:#029e73;stroke:#ffffff;stroke-linejoin:miter;stroke-width:0.8;"/>
   </g>
   <g id="patch_9">
    <path clip-path="url(#pb29b693e8b)" d="M 170.869436 50048.857182 
L 186.068562 50048.857182 
L 186.068562 186.46668 
L 170.869436 186.46668 
z
" style="fill:#029e73;stroke:#ffffff;stroke-linejoin:miter;stroke-width:0.8;"/>
   </g>
   <g id="patch_10">
    <path clip-path="url(#pb29b693e8b)" d="M 186.068562 50048.857182 
L 201.267688 50048.857182 
L 201.267688 199.664259 
L 186.068562 199.664259 
z
" style="fill:#029e73;stroke:#ffffff;stroke-linejoin:miter;stroke-width:0.8;"/>
   </g>
   <g id="patch_11">
    <path clip-path="url(#pb29b693e8b)" d="M 201.267688 50048.857182 
L 216.466814 50048.857182 
L 216.466814 182.829361 
L 201.267688 182.829361 
z
" style="fill:#029e73;stroke:#ffffff;stroke-linejoin:miter;stroke-width:0.8;"/>
   </g>
   <g id="patch_12">
    <path clip-path="url(#pb29b693e8b)" d="M 216.466814 50048.857182 
L 231.665939 50048.857182 
L 231.665939 131.712055 
L 216.466814 131.712055 
z
" style="fill:#029e73;stroke:#ffffff;stroke-linejoin:miter;stroke-width:0.8;"/>
   </g>
   <g id="patch_13">
    <path clip-path="url(#pb29b693e8b)" d="M 231.665939 50048.857182 
L 246.865065 50048.857182 
L 246.865065 118.282842 
L 231.665939 118.282842 
z
" style="fill:#029e73;stroke:#ffffff;stroke-linejoin:miter;stroke-width:0.8;"/>
   </g>
   <g id="patch_14">
    <path clip-path="url(#pb29b693e8b)" d="M 246.865065 50048.857182 
L 262.064191 50048.857182 
L 262.064191 139.523837 
L 246.865065 139.523837 
z
" style="fill:#029e73;stroke:#ffffff;stroke-linejoin:miter;stroke-width:0.8;"/>
   </g>
   <g id="patch_15">
    <path clip-path="url(#pb29b693e8b)" d="M 262.064191 50048.857182 
L 277.263316 50048.857182 
L 277.263316 147.454156 
L 262.064191 147.454156 
z
" style="fill:#029e73;stroke:#ffffff;stroke-linejoin:miter;stroke-width:0.8;"/>
   </g>
   <g id="patch_16">
    <path clip-path="url(#pb29b693e8b)" d="M 277.263316 50048.857182 
L 292.462442 50048.857182 
L 292.462442 161.896263 
L 277.263316 161.896263 
z
" style="fill:#029e73;stroke:#ffffff;stroke-linejoin:miter;stroke-width:0.8;"/>
   </g>
   <g id="patch_17">
    <path clip-path="url(#pb29b693e8b)" d="M 292.462442 50048.857182 
L 307.661568 50048.857182 
L 307.661568 175.74384 
L 292.462442 175.74384 
z
" style="fill:#029e73;stroke:#ffffff;stroke-linejoin:miter;stroke-width:0.8;"/>
   </g>
   <g id="patch_18">
    <path clip-path="url(#pb29b693e8b)" d="M 307.661568 50048.857182 
L 322.860694 50048.857182 
L 322.860694 173.449793 
L 307.661568 173.449793 
z
" style="fill:#029e73;stroke:#ffffff;stroke-linejoin:miter;stroke-width:0.8;"/>
   </g>
   <g id="patch_19">
    <path clip-path="url(#pb29b693e8b)" d="M 322.860694 50048.857182 
L 338.059819 50048.857182 
L 338.059819 182.829361 
L 322.860694 182.829361 
z
" style="fill:#029e73;stroke:#ffffff;stroke-linejoin:miter;stroke-width:0.8;"/>
   </g>
   <g id="patch_20">
    <path clip-path="url(#pb29b693e8b)" d="M 338.059819 50048.857182 
L 353.258945 50048.857182 
L 353.258945 184.572155 
L 338.059819 184.572155 
z
" style="fill:#029e73;stroke:#ffffff;stroke-linejoin:miter;stroke-width:0.8;"/>
   </g>
   <g id="patch_21">
    <path clip-path="url(#pb29b693e8b)" d="M 353.258945 50048.857182 
L 368.458071 50048.857182 
L 368.458071 181.215785 
L 353.258945 181.215785 
z
" style="fill:#029e73;stroke:#ffffff;stroke-linejoin:miter;stroke-width:0.8;"/>
   </g>
   <g id="patch_22">
    <path clip-path="url(#pb29b693e8b)" d="M 368.458071 50048.857182 
L 383.657197 50048.857182 
L 383.657197 196.30789 
L 368.458071 196.30789 
z
" style="fill:#029e73;stroke:#ffffff;stroke-linejoin:miter;stroke-width:0.8;"/>
   </g>
   <g id="patch_23">
    <path clip-path="url(#pb29b693e8b)" d="M 79.674682 169.480051 
L 94.873808 169.480051 
L 94.873808 17.083636 
L 79.674682 17.083636 
z
" style="fill:#cc78bc;stroke:#ffffff;stroke-linejoin:miter;stroke-width:0.8;"/>
   </g>
   <g id="patch_24">
    <path clip-path="url(#pb29b693e8b)" d="M 94.873808 203.634002 
L 110.072933 203.634002 
L 110.072933 84.946884 
L 94.873808 84.946884 
z
" style="fill:#cc78bc;stroke:#ffffff;stroke-linejoin:miter;stroke-width:0.8;"/>
   </g>
   <g id="patch_25">
    <path clip-path="url(#pb29b693e8b)" d="M 110.072933 208.492574 
L 125.272059 208.492574 
L 125.272059 101.972627 
L 110.072933 101.972627 
z
" style="fill:#cc78bc;stroke:#ffffff;stroke-linejoin:miter;stroke-width:0.8;"/>
   </g>
   <g id="patch_26">
    <path clip-path="url(#pb29b693e8b)" d="M 125.272059 214.756364 
L 140.471185 214.756364 
L 140.471185 114.341919 
L 125.272059 114.341919 
z
" style="fill:#cc78bc;stroke:#ffffff;stroke-linejoin:miter;stroke-width:0.8;"/>
   </g>
   <g id="patch_27">
    <path clip-path="url(#pb29b693e8b)" d="M 140.471185 214.756364 
L 155.670311 214.756364 
L 155.670311 123.206313 
L 140.471185 123.206313 
z
" style="fill:#cc78bc;stroke:#ffffff;stroke-linejoin:miter;stroke-width:0.8;"/>
   </g>
   <g id="patch_28">
    <path clip-path="url(#pb29b693e8b)" d="M 155.670311 214.756364 
L 170.869436 214.756364 
L 170.869436 131.236982 
L 155.670311 131.236982 
z
" style="fill:#cc78bc;stroke:#ffffff;stroke-linejoin:miter;stroke-width:0.8;"/>
   </g>
   <g id="patch_29">
    <path clip-path="url(#pb29b693e8b)" d="M 170.869436 186.46668 
L 186.068562 186.46668 
L 186.068562 131.872744 
L 170.869436 131.872744 
z
" style="fill:#cc78bc;stroke:#ffffff;stroke-linejoin:miter;stroke-width:0.8;"/>
   </g>
   <g id="patch_30">
    <path clip-path="url(#pb29b693e8b)" d="M 186.068562 199.664259 
L 201.267688 199.664259 
L 201.267688 138.190361 
L 186.068562 138.190361 
z
" style="fill:#cc78bc;stroke:#ffffff;stroke-linejoin:miter;stroke-width:0.8;"/>
   </g>
   <g id="patch_31">
    <path clip-path="url(#pb29b693e8b)" d="M 201.267688 182.829361 
L 216.466814 182.829361 
L 216.466814 139.987116 
L 201.267688 139.987116 
z
" style="fill:#cc78bc;stroke:#ffffff;stroke-linejoin:miter;stroke-width:0.8;"/>
   </g>
   <g id="patch_32">
    <path clip-path="url(#pb29b693e8b)" d="M 216.466814 131.712055 
L 231.665939 131.712055 
L 231.665939 123.314908 
L 216.466814 123.314908 
z
" style="fill:#cc78bc;stroke:#ffffff;stroke-linejoin:miter;stroke-width:0.8;"/>
   </g>
   <g id="patch_33">
    <path clip-path="url(#pb29b693e8b)" d="M 231.665939 118.282842 
L 246.865065 118.282842 
L 246.865065 113.632628 
L 231.665939 113.632628 
z
" style="fill:#cc78bc;stroke:#ffffff;stroke-linejoin:miter;stroke-width:0.8;"/>
   </g>
   <g id="patch_34">
    <path clip-path="url(#pb29b693e8b)" d="M 246.865065 139.523837 
L 262.064191 139.523837 
L 262.064191 129.724339 
L 246.865065 129.724339 
z
" style="fill:#cc78bc;stroke:#ffffff;stroke-linejoin:miter;stroke-width:0.8;"/>
   </g>
   <g id="patch_35">
    <path clip-path="url(#pb29b693e8b)" d="M 262.064191 147.454156 
L 277.263316 147.454156 
L 277.263316 134.619474 
L 262.064191 134.619474 
z
" style="fill:#cc78bc;stroke:#ffffff;stroke-linejoin:miter;stroke-width:0.8;"/>
   </g>
   <g id="patch_36">
    <path clip-path="url(#pb29b693e8b)" d="M 277.263316 161.896263 
L 292.462442 161.896263 
L 292.462442 146.173004 
L 277.263316 146.173004 
z
" style="fill:#cc78bc;stroke:#ffffff;stroke-linejoin:miter;stroke-width:0.8;"/>
   </g>
   <g id="patch_37">
    <path clip-path="url(#pb29b693e8b)" d="M 292.462442 175.74384 
L 307.661568 175.74384 
L 307.661568 152.23041 
L 292.462442 152.23041 
z
" style="fill:#cc78bc;stroke:#ffffff;stroke-linejoin:miter;stroke-width:0.8;"/>
   </g>
   <g id="patch_38">
    <path clip-path="url(#pb29b693e8b)" d="M 307.661568 173.449793 
L 322.860694 173.449793 
L 322.860694 157.820049 
L 307.661568 157.820049 
z
" style="fill:#cc78bc;stroke:#ffffff;stroke-linejoin:miter;stroke-width:0.8;"/>
   </g>
   <g id="patch_39">
    <path clip-path="url(#pb29b693e8b)" d="M 322.860694 182.829361 
L 338.059819 182.829361 
L 338.059819 155.31461 
L 322.860694 155.31461 
z
" style="fill:#cc78bc;stroke:#ffffff;stroke-linejoin:miter;stroke-width:0.8;"/>
   </g>
   <g id="patch_40">
    <path clip-path="url(#pb29b693e8b)" d="M 338.059819 184.572155 
L 353.258945 184.572155 
L 353.258945 162.546261 
L 338.059819 162.546261 
z
" style="fill:#cc78bc;stroke:#ffffff;stroke-linejoin:miter;stroke-width:0.8;"/>
   </g>
   <g id="patch_41">
    <path clip-path="url(#pb29b693e8b)" d="M 353.258945 181.215785 
L 368.458071 181.215785 
L 368.458071 161.265109 
L 353.258945 161.265109 
z
" style="fill:#cc78bc;stroke:#ffffff;stroke-linejoin:miter;stroke-width:0.8;"/>
   </g>
   <g id="patch_42">
    <path clip-path="url(#pb29b693e8b)" d="M 368.458071 196.30789 
L 383.657197 196.30789 
L 383.657197 164.621478 
L 368.458071 164.621478 
z
" style="fill:#cc78bc;stroke:#ffffff;stroke-linejoin:miter;stroke-width:0.8;"/>
   </g>
   <g id="patch_43">
    <path d="M 64.4565 224.64 
L 64.4565 7.2 
" style="fill:none;stroke:#262626;stroke-linecap:square;stroke-linejoin:miter;"/>
   </g>
   <g id="patch_44">
    <path d="M 399.2565 224.64 
L 399.2565 7.2 
" style="fill:none;stroke:#262626;stroke-linecap:square;stroke-linejoin:miter;"/>
   </g>
   <g id="patch_45">
    <path d="M 64.4565 224.64 
L 399.2565 224.64 
" style="fill:none;stroke:#262626;stroke-linecap:square;stroke-linejoin:miter;"/>
   </g>
   <g id="patch_46">
    <path d="M 64.4565 7.2 
L 399.2565 7.2 
" style="fill:none;stroke:#262626;stroke-linecap:square;stroke-linejoin:miter;"/>
   </g>
  </g>
  <g id="axes_2">
   <g id="matplotlib.axis_3">
    <g id="ytick_41">
     <g id="line2d_56">
      <defs>
       <path d="M 0 0 
L 4.8 0 
" id="m36ad77a6ad" style="stroke:#262626;"/>
      </defs>
      <g>
       <use style="fill:#262626;stroke:#262626;" x="399.2565" xlink:href="#m36ad77a6ad" y="214.936921"/>
      </g>
     </g>
     <g id="text_13">
      <!-- 0.0 -->
      <g style="fill:#262626;" transform="translate(407.5565 219.95189)scale(0.132 -0.132)">
       <defs>
        <path d="M 10.6875 12.40625 
L 21 12.40625 
L 21 0 
L 10.6875 0 
z
" id="DejaVuSans-46"/>
       </defs>
       <use xlink:href="#DejaVuSans-48"/>
       <use x="63.623047" xlink:href="#DejaVuSans-46"/>
       <use x="95.410156" xlink:href="#DejaVuSans-48"/>
      </g>
     </g>
    </g>
    <g id="ytick_42">
     <g id="line2d_57">
      <g>
       <use style="fill:#262626;stroke:#262626;" x="399.2565" xlink:href="#m36ad77a6ad" y="175.366264"/>
      </g>
     </g>
     <g id="text_14">
      <!-- 0.2 -->
      <g style="fill:#262626;" transform="translate(407.5565 180.381233)scale(0.132 -0.132)">
       <use xlink:href="#DejaVuSans-48"/>
       <use x="63.623047" xlink:href="#DejaVuSans-46"/>
       <use x="95.410156" xlink:href="#DejaVuSans-50"/>
      </g>
     </g>
    </g>
    <g id="ytick_43">
     <g id="line2d_58">
      <g>
       <use style="fill:#262626;stroke:#262626;" x="399.2565" xlink:href="#m36ad77a6ad" y="135.795607"/>
      </g>
     </g>
     <g id="text_15">
      <!-- 0.4 -->
      <g style="fill:#262626;" transform="translate(407.5565 140.810576)scale(0.132 -0.132)">
       <use xlink:href="#DejaVuSans-48"/>
       <use x="63.623047" xlink:href="#DejaVuSans-46"/>
       <use x="95.410156" xlink:href="#DejaVuSans-52"/>
      </g>
     </g>
    </g>
    <g id="ytick_44">
     <g id="line2d_59">
      <g>
       <use style="fill:#262626;stroke:#262626;" x="399.2565" xlink:href="#m36ad77a6ad" y="96.22495"/>
      </g>
     </g>
     <g id="text_16">
      <!-- 0.6 -->
      <g style="fill:#262626;" transform="translate(407.5565 101.239919)scale(0.132 -0.132)">
       <use xlink:href="#DejaVuSans-48"/>
       <use x="63.623047" xlink:href="#DejaVuSans-46"/>
       <use x="95.410156" xlink:href="#DejaVuSans-54"/>
      </g>
     </g>
    </g>
    <g id="ytick_45">
     <g id="line2d_60">
      <g>
       <use style="fill:#262626;stroke:#262626;" x="399.2565" xlink:href="#m36ad77a6ad" y="56.654293"/>
      </g>
     </g>
     <g id="text_17">
      <!-- 0.8 -->
      <g style="fill:#262626;" transform="translate(407.5565 61.669262)scale(0.132 -0.132)">
       <defs>
        <path d="M 31.78125 34.625 
Q 24.75 34.625 20.71875 30.859375 
Q 16.703125 27.09375 16.703125 20.515625 
Q 16.703125 13.921875 20.71875 10.15625 
Q 24.75 6.390625 31.78125 6.390625 
Q 38.8125 6.390625 42.859375 10.171875 
Q 46.921875 13.96875 46.921875 20.515625 
Q 46.921875 27.09375 42.890625 30.859375 
Q 38.875 34.625 31.78125 34.625 
z
M 21.921875 38.8125 
Q 15.578125 40.375 12.03125 44.71875 
Q 8.5 49.078125 8.5 55.328125 
Q 8.5 64.0625 14.71875 69.140625 
Q 20.953125 74.21875 31.78125 74.21875 
Q 42.671875 74.21875 48.875 69.140625 
Q 55.078125 64.0625 55.078125 55.328125 
Q 55.078125 49.078125 51.53125 44.71875 
Q 48 40.375 41.703125 38.8125 
Q 48.828125 37.15625 52.796875 32.3125 
Q 56.78125 27.484375 56.78125 20.515625 
Q 56.78125 9.90625 50.3125 4.234375 
Q 43.84375 -1.421875 31.78125 -1.421875 
Q 19.734375 -1.421875 13.25 4.234375 
Q 6.78125 9.90625 6.78125 20.515625 
Q 6.78125 27.484375 10.78125 32.3125 
Q 14.796875 37.15625 21.921875 38.8125 
z
M 18.3125 54.390625 
Q 18.3125 48.734375 21.84375 45.5625 
Q 25.390625 42.390625 31.78125 42.390625 
Q 38.140625 42.390625 41.71875 45.5625 
Q 45.3125 48.734375 45.3125 54.390625 
Q 45.3125 60.0625 41.71875 63.234375 
Q 38.140625 66.40625 31.78125 66.40625 
Q 25.390625 66.40625 21.84375 63.234375 
Q 18.3125 60.0625 18.3125 54.390625 
z
" id="DejaVuSans-56"/>
       </defs>
       <use xlink:href="#DejaVuSans-48"/>
       <use x="63.623047" xlink:href="#DejaVuSans-46"/>
       <use x="95.410156" xlink:href="#DejaVuSans-56"/>
      </g>
     </g>
    </g>
    <g id="ytick_46">
     <g id="line2d_61">
      <g>
       <use style="fill:#262626;stroke:#262626;" x="399.2565" xlink:href="#m36ad77a6ad" y="17.083636"/>
      </g>
     </g>
     <g id="text_18">
      <!-- 1.0 -->
      <g style="fill:#262626;" transform="translate(407.5565 22.098605)scale(0.132 -0.132)">
       <use xlink:href="#DejaVuSans-49"/>
       <use x="63.623047" xlink:href="#DejaVuSans-46"/>
       <use x="95.410156" xlink:href="#DejaVuSans-48"/>
      </g>
     </g>
    </g>
    <g id="text_19">
     <!-- test -->
     <g style="fill:#262626;" transform="translate(443.490375 129.74625)rotate(-90)scale(0.144 -0.144)">
      <use xlink:href="#DejaVuSans-116"/>
      <use x="39.208984" xlink:href="#DejaVuSans-101"/>
      <use x="100.732422" xlink:href="#DejaVuSans-115"/>
      <use x="152.832031" xlink:href="#DejaVuSans-116"/>
     </g>
    </g>
   </g>
   <g id="line2d_62">
    <path clip-path="url(#pb29b693e8b)" d="M 87.274245 214.756364 
L 102.47337 214.728002 
L 117.672496 214.703712 
L 132.871622 214.685226 
L 148.070748 214.666174 
L 163.269873 214.646763 
L 178.468999 212.712823 
L 193.668125 212.862779 
L 208.867251 193.375286 
L 224.066376 83.112039 
L 239.265502 51.761842 
L 254.464628 47.153304 
L 269.663754 44.837452 
L 284.862879 44.25598 
L 300.062005 44.644075 
L 315.261131 44.37752 
L 330.460257 44.931004 
L 345.659382 44.718189 
L 360.858508 44.184667 
L 376.057634 43.925646 
L 384.038318 43.925646 
" style="fill:none;stroke:#0173b2;stroke-linecap:round;stroke-width:1.2;"/>
    <defs>
     <path d="M -2.4 0 
L 2.4 0 
M 0 2.4 
L 0 -2.4 
" id="mafc4b1c3f0" style="stroke:#0173b2;"/>
    </defs>
    <g clip-path="url(#pb29b693e8b)">
     <use style="fill:#0173b2;stroke:#0173b2;" x="87.274245" xlink:href="#mafc4b1c3f0" y="214.756364"/>
     <use style="fill:#0173b2;stroke:#0173b2;" x="102.47337" xlink:href="#mafc4b1c3f0" y="214.728002"/>
     <use style="fill:#0173b2;stroke:#0173b2;" x="117.672496" xlink:href="#mafc4b1c3f0" y="214.703712"/>
     <use style="fill:#0173b2;stroke:#0173b2;" x="132.871622" xlink:href="#mafc4b1c3f0" y="214.685226"/>
     <use style="fill:#0173b2;stroke:#0173b2;" x="148.070748" xlink:href="#mafc4b1c3f0" y="214.666174"/>
     <use style="fill:#0173b2;stroke:#0173b2;" x="163.269873" xlink:href="#mafc4b1c3f0" y="214.646763"/>
     <use style="fill:#0173b2;stroke:#0173b2;" x="178.468999" xlink:href="#mafc4b1c3f0" y="212.712823"/>
     <use style="fill:#0173b2;stroke:#0173b2;" x="193.668125" xlink:href="#mafc4b1c3f0" y="212.862779"/>
     <use style="fill:#0173b2;stroke:#0173b2;" x="208.867251" xlink:href="#mafc4b1c3f0" y="193.375286"/>
     <use style="fill:#0173b2;stroke:#0173b2;" x="224.066376" xlink:href="#mafc4b1c3f0" y="83.112039"/>
     <use style="fill:#0173b2;stroke:#0173b2;" x="239.265502" xlink:href="#mafc4b1c3f0" y="51.761842"/>
     <use style="fill:#0173b2;stroke:#0173b2;" x="254.464628" xlink:href="#mafc4b1c3f0" y="47.153304"/>
     <use style="fill:#0173b2;stroke:#0173b2;" x="269.663754" xlink:href="#mafc4b1c3f0" y="44.837452"/>
     <use style="fill:#0173b2;stroke:#0173b2;" x="284.862879" xlink:href="#mafc4b1c3f0" y="44.25598"/>
     <use style="fill:#0173b2;stroke:#0173b2;" x="300.062005" xlink:href="#mafc4b1c3f0" y="44.644075"/>
     <use style="fill:#0173b2;stroke:#0173b2;" x="315.261131" xlink:href="#mafc4b1c3f0" y="44.37752"/>
     <use style="fill:#0173b2;stroke:#0173b2;" x="330.460257" xlink:href="#mafc4b1c3f0" y="44.931004"/>
     <use style="fill:#0173b2;stroke:#0173b2;" x="345.659382" xlink:href="#mafc4b1c3f0" y="44.718189"/>
     <use style="fill:#0173b2;stroke:#0173b2;" x="360.858508" xlink:href="#mafc4b1c3f0" y="44.184667"/>
     <use style="fill:#0173b2;stroke:#0173b2;" x="376.057634" xlink:href="#mafc4b1c3f0" y="43.925646"/>
     <use style="fill:#0173b2;stroke:#0173b2;" x="384.038318" xlink:href="#mafc4b1c3f0" y="43.925646"/>
    </g>
   </g>
   <g id="line2d_63">
    <path clip-path="url(#pb29b693e8b)" d="M 87.274245 214.756364 
L 102.47337 214.728002 
L 117.672496 214.703712 
L 132.871622 214.685226 
L 148.070748 214.666174 
L 163.269873 214.646763 
L 178.468999 214.572487 
L 193.668125 214.532649 
L 208.867251 214.445156 
L 224.066376 213.411688 
L 239.265502 211.849658 
L 254.464628 211.230803 
L 269.663754 210.806664 
L 284.862879 210.590758 
L 300.062005 210.479244 
L 315.261131 210.353064 
L 330.460257 210.274246 
L 345.659382 210.200211 
L 360.858508 210.113481 
L 376.057634 210.072216 
L 384.038318 210.072216 
" style="fill:none;stroke:#de8f05;stroke-linecap:round;stroke-width:1.2;"/>
    <defs>
     <path d="M -2.4 0 
L 2.4 0 
M 0 2.4 
L 0 -2.4 
" id="mfccb1a4531" style="stroke:#de8f05;"/>
    </defs>
    <g clip-path="url(#pb29b693e8b)">
     <use style="fill:#de8f05;stroke:#de8f05;" x="87.274245" xlink:href="#mfccb1a4531" y="214.756364"/>
     <use style="fill:#de8f05;stroke:#de8f05;" x="102.47337" xlink:href="#mfccb1a4531" y="214.728002"/>
     <use style="fill:#de8f05;stroke:#de8f05;" x="117.672496" xlink:href="#mfccb1a4531" y="214.703712"/>
     <use style="fill:#de8f05;stroke:#de8f05;" x="132.871622" xlink:href="#mfccb1a4531" y="214.685226"/>
     <use style="fill:#de8f05;stroke:#de8f05;" x="148.070748" xlink:href="#mfccb1a4531" y="214.666174"/>
     <use style="fill:#de8f05;stroke:#de8f05;" x="163.269873" xlink:href="#mfccb1a4531" y="214.646763"/>
     <use style="fill:#de8f05;stroke:#de8f05;" x="178.468999" xlink:href="#mfccb1a4531" y="214.572487"/>
     <use style="fill:#de8f05;stroke:#de8f05;" x="193.668125" xlink:href="#mfccb1a4531" y="214.532649"/>
     <use style="fill:#de8f05;stroke:#de8f05;" x="208.867251" xlink:href="#mfccb1a4531" y="214.445156"/>
     <use style="fill:#de8f05;stroke:#de8f05;" x="224.066376" xlink:href="#mfccb1a4531" y="213.411688"/>
     <use style="fill:#de8f05;stroke:#de8f05;" x="239.265502" xlink:href="#mfccb1a4531" y="211.849658"/>
     <use style="fill:#de8f05;stroke:#de8f05;" x="254.464628" xlink:href="#mfccb1a4531" y="211.230803"/>
     <use style="fill:#de8f05;stroke:#de8f05;" x="269.663754" xlink:href="#mfccb1a4531" y="210.806664"/>
     <use style="fill:#de8f05;stroke:#de8f05;" x="284.862879" xlink:href="#mfccb1a4531" y="210.590758"/>
     <use style="fill:#de8f05;stroke:#de8f05;" x="300.062005" xlink:href="#mfccb1a4531" y="210.479244"/>
     <use style="fill:#de8f05;stroke:#de8f05;" x="315.261131" xlink:href="#mfccb1a4531" y="210.353064"/>
     <use style="fill:#de8f05;stroke:#de8f05;" x="330.460257" xlink:href="#mfccb1a4531" y="210.274246"/>
     <use style="fill:#de8f05;stroke:#de8f05;" x="345.659382" xlink:href="#mfccb1a4531" y="210.200211"/>
     <use style="fill:#de8f05;stroke:#de8f05;" x="360.858508" xlink:href="#mfccb1a4531" y="210.113481"/>
     <use style="fill:#de8f05;stroke:#de8f05;" x="376.057634" xlink:href="#mfccb1a4531" y="210.072216"/>
     <use style="fill:#de8f05;stroke:#de8f05;" x="384.038318" xlink:href="#mfccb1a4531" y="210.072216"/>
    </g>
   </g>
   <g id="line2d_64">
    <path clip-path="url(#pb29b693e8b)" d="M 87.274245 214.756364 
L 102.47337 214.087765 
L 117.672496 213.452093 
L 132.871622 212.971491 
L 148.070748 211.983887 
L 163.269873 210.666706 
L 178.468999 191.287791 
L 193.668125 203.183261 
L 208.867251 94.356361 
L 224.066376 26.881469 
L 239.265502 19.245286 
L 254.464628 21.408284 
L 269.663754 24.235363 
L 284.862879 28.711988 
L 300.062005 52.37162 
L 315.261131 35.070299 
L 330.460257 64.528722 
L 345.659382 32.30312 
L 360.858508 17.083636 
L 376.057634 17.083636 
L 384.038318 17.083636 
" style="fill:none;stroke:#0173b2;stroke-linecap:round;stroke-width:1.2;"/>
    <defs>
     <path d="M 0 2.4 
C 0.636487 2.4 1.246992 2.147121 1.697056 1.697056 
C 2.147121 1.246992 2.4 0.636487 2.4 0 
C 2.4 -0.636487 2.147121 -1.246992 1.697056 -1.697056 
C 1.246992 -2.147121 0.636487 -2.4 0 -2.4 
C -0.636487 -2.4 -1.246992 -2.147121 -1.697056 -1.697056 
C -2.147121 -1.246992 -2.4 -0.636487 -2.4 0 
C -2.4 0.636487 -2.147121 1.246992 -1.697056 1.697056 
C -1.246992 2.147121 -0.636487 2.4 0 2.4 
z
" id="mccd3e9f8ed" style="stroke:#0173b2;"/>
    </defs>
    <g clip-path="url(#pb29b693e8b)">
     <use style="fill:#ffffff;stroke:#0173b2;" x="87.274245" xlink:href="#mccd3e9f8ed" y="214.756364"/>
     <use style="fill:#ffffff;stroke:#0173b2;" x="102.47337" xlink:href="#mccd3e9f8ed" y="214.087765"/>
     <use style="fill:#ffffff;stroke:#0173b2;" x="117.672496" xlink:href="#mccd3e9f8ed" y="213.452093"/>
     <use style="fill:#ffffff;stroke:#0173b2;" x="132.871622" xlink:href="#mccd3e9f8ed" y="212.971491"/>
     <use style="fill:#ffffff;stroke:#0173b2;" x="148.070748" xlink:href="#mccd3e9f8ed" y="211.983887"/>
     <use style="fill:#ffffff;stroke:#0173b2;" x="163.269873" xlink:href="#mccd3e9f8ed" y="210.666706"/>
     <use style="fill:#ffffff;stroke:#0173b2;" x="178.468999" xlink:href="#mccd3e9f8ed" y="191.287791"/>
     <use style="fill:#ffffff;stroke:#0173b2;" x="193.668125" xlink:href="#mccd3e9f8ed" y="203.183261"/>
     <use style="fill:#ffffff;stroke:#0173b2;" x="208.867251" xlink:href="#mccd3e9f8ed" y="94.356361"/>
     <use style="fill:#ffffff;stroke:#0173b2;" x="224.066376" xlink:href="#mccd3e9f8ed" y="26.881469"/>
     <use style="fill:#ffffff;stroke:#0173b2;" x="239.265502" xlink:href="#mccd3e9f8ed" y="19.245286"/>
     <use style="fill:#ffffff;stroke:#0173b2;" x="254.464628" xlink:href="#mccd3e9f8ed" y="21.408284"/>
     <use style="fill:#ffffff;stroke:#0173b2;" x="269.663754" xlink:href="#mccd3e9f8ed" y="24.235363"/>
     <use style="fill:#ffffff;stroke:#0173b2;" x="284.862879" xlink:href="#mccd3e9f8ed" y="28.711988"/>
     <use style="fill:#ffffff;stroke:#0173b2;" x="300.062005" xlink:href="#mccd3e9f8ed" y="52.37162"/>
     <use style="fill:#ffffff;stroke:#0173b2;" x="315.261131" xlink:href="#mccd3e9f8ed" y="35.070299"/>
     <use style="fill:#ffffff;stroke:#0173b2;" x="330.460257" xlink:href="#mccd3e9f8ed" y="64.528722"/>
     <use style="fill:#ffffff;stroke:#0173b2;" x="345.659382" xlink:href="#mccd3e9f8ed" y="32.30312"/>
     <use style="fill:#ffffff;stroke:#0173b2;" x="360.858508" xlink:href="#mccd3e9f8ed" y="17.083636"/>
     <use style="fill:#ffffff;stroke:#0173b2;" x="376.057634" xlink:href="#mccd3e9f8ed" y="17.083636"/>
     <use style="fill:#ffffff;stroke:#0173b2;" x="384.038318" xlink:href="#mccd3e9f8ed" y="17.083636"/>
    </g>
   </g>
   <g id="line2d_65">
    <path clip-path="url(#pb29b693e8b)" d="M 87.274245 214.756364 
L 102.47337 214.087765 
L 117.672496 213.452093 
L 132.871622 212.971491 
L 148.070748 211.983887 
L 163.269873 210.666706 
L 178.468999 198.815542 
L 193.668125 203.183261 
L 208.867251 187.28001 
L 224.066376 80.396687 
L 239.265502 55.132345 
L 254.464628 88.788854 
L 269.663754 105.203167 
L 284.862879 118.836754 
L 300.062005 147.741466 
L 315.261131 118.423124 
L 330.460257 159.021862 
L 345.659382 142.990272 
L 360.858508 135.795607 
L 376.057634 174.001759 
L 384.038318 17.083636 
" style="fill:none;stroke:#de8f05;stroke-linecap:round;stroke-width:1.2;"/>
    <defs>
     <path d="M 0 2.4 
C 0.636487 2.4 1.246992 2.147121 1.697056 1.697056 
C 2.147121 1.246992 2.4 0.636487 2.4 0 
C 2.4 -0.636487 2.147121 -1.246992 1.697056 -1.697056 
C 1.246992 -2.147121 0.636487 -2.4 0 -2.4 
C -0.636487 -2.4 -1.246992 -2.147121 -1.697056 -1.697056 
C -2.147121 -1.246992 -2.4 -0.636487 -2.4 0 
C -2.4 0.636487 -2.147121 1.246992 -1.697056 1.697056 
C -1.246992 2.147121 -0.636487 2.4 0 2.4 
z
" id="md038d5fb9a" style="stroke:#de8f05;"/>
    </defs>
    <g clip-path="url(#pb29b693e8b)">
     <use style="fill:#ffffff;stroke:#de8f05;" x="87.274245" xlink:href="#md038d5fb9a" y="214.756364"/>
     <use style="fill:#ffffff;stroke:#de8f05;" x="102.47337" xlink:href="#md038d5fb9a" y="214.087765"/>
     <use style="fill:#ffffff;stroke:#de8f05;" x="117.672496" xlink:href="#md038d5fb9a" y="213.452093"/>
     <use style="fill:#ffffff;stroke:#de8f05;" x="132.871622" xlink:href="#md038d5fb9a" y="212.971491"/>
     <use style="fill:#ffffff;stroke:#de8f05;" x="148.070748" xlink:href="#md038d5fb9a" y="211.983887"/>
     <use style="fill:#ffffff;stroke:#de8f05;" x="163.269873" xlink:href="#md038d5fb9a" y="210.666706"/>
     <use style="fill:#ffffff;stroke:#de8f05;" x="178.468999" xlink:href="#md038d5fb9a" y="198.815542"/>
     <use style="fill:#ffffff;stroke:#de8f05;" x="193.668125" xlink:href="#md038d5fb9a" y="203.183261"/>
     <use style="fill:#ffffff;stroke:#de8f05;" x="208.867251" xlink:href="#md038d5fb9a" y="187.28001"/>
     <use style="fill:#ffffff;stroke:#de8f05;" x="224.066376" xlink:href="#md038d5fb9a" y="80.396687"/>
     <use style="fill:#ffffff;stroke:#de8f05;" x="239.265502" xlink:href="#md038d5fb9a" y="55.132345"/>
     <use style="fill:#ffffff;stroke:#de8f05;" x="254.464628" xlink:href="#md038d5fb9a" y="88.788854"/>
     <use style="fill:#ffffff;stroke:#de8f05;" x="269.663754" xlink:href="#md038d5fb9a" y="105.203167"/>
     <use style="fill:#ffffff;stroke:#de8f05;" x="284.862879" xlink:href="#md038d5fb9a" y="118.836754"/>
     <use style="fill:#ffffff;stroke:#de8f05;" x="300.062005" xlink:href="#md038d5fb9a" y="147.741466"/>
     <use style="fill:#ffffff;stroke:#de8f05;" x="315.261131" xlink:href="#md038d5fb9a" y="118.423124"/>
     <use style="fill:#ffffff;stroke:#de8f05;" x="330.460257" xlink:href="#md038d5fb9a" y="159.021862"/>
     <use style="fill:#ffffff;stroke:#de8f05;" x="345.659382" xlink:href="#md038d5fb9a" y="142.990272"/>
     <use style="fill:#ffffff;stroke:#de8f05;" x="360.858508" xlink:href="#md038d5fb9a" y="135.795607"/>
     <use style="fill:#ffffff;stroke:#de8f05;" x="376.057634" xlink:href="#md038d5fb9a" y="174.001759"/>
     <use style="fill:#ffffff;stroke:#de8f05;" x="384.038318" xlink:href="#md038d5fb9a" y="17.083636"/>
    </g>
   </g>
   <g id="patch_47">
    <path d="M 64.4565 224.64 
L 64.4565 7.2 
" style="fill:none;stroke:#262626;stroke-linecap:square;stroke-linejoin:miter;"/>
   </g>
   <g id="patch_48">
    <path d="M 399.2565 224.64 
L 399.2565 7.2 
" style="fill:none;stroke:#262626;stroke-linecap:square;stroke-linejoin:miter;"/>
   </g>
   <g id="patch_49">
    <path d="M 64.4565 224.64 
L 399.2565 224.64 
" style="fill:none;stroke:#262626;stroke-linecap:square;stroke-linejoin:miter;"/>
   </g>
   <g id="patch_50">
    <path d="M 64.4565 7.2 
L 399.2565 7.2 
" style="fill:none;stroke:#262626;stroke-linecap:square;stroke-linejoin:miter;"/>
   </g>
   <g id="legend_1">
    <g id="patch_51">
     <path d="M 475.4565 176.025375 
L 672.421125 176.025375 
Q 675.061125 176.025375 675.061125 173.385375 
L 675.061125 58.454625 
Q 675.061125 55.814625 672.421125 55.814625 
L 475.4565 55.814625 
Q 472.8165 55.814625 472.8165 58.454625 
L 472.8165 173.385375 
Q 472.8165 176.025375 475.4565 176.025375 
z
" style="fill:#ffffff;opacity:0.8;stroke:#cccccc;stroke-linejoin:miter;stroke-width:0.8;"/>
    </g>
    <g id="patch_52">
     <path d="M 478.0965 71.124562 
L 504.4965 71.124562 
L 504.4965 61.884562 
L 478.0965 61.884562 
z
" style="fill:#cc78bc;stroke:#cc78bc;stroke-linejoin:miter;stroke-width:0.8;"/>
    </g>
    <g id="text_20">
     <!-- absent -->
     <g style="fill:#262626;" transform="translate(515.0565 71.124562)scale(0.132 -0.132)">
      <defs>
       <path d="M 34.28125 27.484375 
Q 23.390625 27.484375 19.1875 25 
Q 14.984375 22.515625 14.984375 16.5 
Q 14.984375 11.71875 18.140625 8.90625 
Q 21.296875 6.109375 26.703125 6.109375 
Q 34.1875 6.109375 38.703125 11.40625 
Q 43.21875 16.703125 43.21875 25.484375 
L 43.21875 27.484375 
z
M 52.203125 31.203125 
L 52.203125 0 
L 43.21875 0 
L 43.21875 8.296875 
Q 40.140625 3.328125 35.546875 0.953125 
Q 30.953125 -1.421875 24.3125 -1.421875 
Q 15.921875 -1.421875 10.953125 3.296875 
Q 6 8.015625 6 15.921875 
Q 6 25.140625 12.171875 29.828125 
Q 18.359375 34.515625 30.609375 34.515625 
L 43.21875 34.515625 
L 43.21875 35.40625 
Q 43.21875 41.609375 39.140625 45 
Q 35.0625 48.390625 27.6875 48.390625 
Q 23 48.390625 18.546875 47.265625 
Q 14.109375 46.140625 10.015625 43.890625 
L 10.015625 52.203125 
Q 14.9375 54.109375 19.578125 55.046875 
Q 24.21875 56 28.609375 56 
Q 40.484375 56 46.34375 49.84375 
Q 52.203125 43.703125 52.203125 31.203125 
z
" id="DejaVuSans-97"/>
       <path d="M 48.6875 27.296875 
Q 48.6875 37.203125 44.609375 42.84375 
Q 40.53125 48.484375 33.40625 48.484375 
Q 26.265625 48.484375 22.1875 42.84375 
Q 18.109375 37.203125 18.109375 27.296875 
Q 18.109375 17.390625 22.1875 11.75 
Q 26.265625 6.109375 33.40625 6.109375 
Q 40.53125 6.109375 44.609375 11.75 
Q 48.6875 17.390625 48.6875 27.296875 
z
M 18.109375 46.390625 
Q 20.953125 51.265625 25.265625 53.625 
Q 29.59375 56 35.59375 56 
Q 45.5625 56 51.78125 48.09375 
Q 58.015625 40.1875 58.015625 27.296875 
Q 58.015625 14.40625 51.78125 6.484375 
Q 45.5625 -1.421875 35.59375 -1.421875 
Q 29.59375 -1.421875 25.265625 0.953125 
Q 20.953125 3.328125 18.109375 8.203125 
L 18.109375 0 
L 9.078125 0 
L 9.078125 75.984375 
L 18.109375 75.984375 
z
" id="DejaVuSans-98"/>
      </defs>
      <use xlink:href="#DejaVuSans-97"/>
      <use x="61.279297" xlink:href="#DejaVuSans-98"/>
      <use x="124.755859" xlink:href="#DejaVuSans-115"/>
      <use x="176.855469" xlink:href="#DejaVuSans-101"/>
      <use x="238.378906" xlink:href="#DejaVuSans-110"/>
      <use x="301.757812" xlink:href="#DejaVuSans-116"/>
     </g>
    </g>
    <g id="patch_53">
     <path d="M 478.0965 90.499687 
L 504.4965 90.499687 
L 504.4965 81.259687 
L 478.0965 81.259687 
z
" style="fill:#029e73;stroke:#029e73;stroke-linejoin:miter;stroke-width:0.8;"/>
    </g>
    <g id="text_21">
     <!-- present -->
     <g style="fill:#262626;" transform="translate(515.0565 90.499687)scale(0.132 -0.132)">
      <defs>
       <path d="M 18.109375 8.203125 
L 18.109375 -20.796875 
L 9.078125 -20.796875 
L 9.078125 54.6875 
L 18.109375 54.6875 
L 18.109375 46.390625 
Q 20.953125 51.265625 25.265625 53.625 
Q 29.59375 56 35.59375 56 
Q 45.5625 56 51.78125 48.09375 
Q 58.015625 40.1875 58.015625 27.296875 
Q 58.015625 14.40625 51.78125 6.484375 
Q 45.5625 -1.421875 35.59375 -1.421875 
Q 29.59375 -1.421875 25.265625 0.953125 
Q 20.953125 3.328125 18.109375 8.203125 
z
M 48.6875 27.296875 
Q 48.6875 37.203125 44.609375 42.84375 
Q 40.53125 48.484375 33.40625 48.484375 
Q 26.265625 48.484375 22.1875 42.84375 
Q 18.109375 37.203125 18.109375 27.296875 
Q 18.109375 17.390625 22.1875 11.75 
Q 26.265625 6.109375 33.40625 6.109375 
Q 40.53125 6.109375 44.609375 11.75 
Q 48.6875 17.390625 48.6875 27.296875 
z
" id="DejaVuSans-112"/>
      </defs>
      <use xlink:href="#DejaVuSans-112"/>
      <use x="63.476562" xlink:href="#DejaVuSans-114"/>
      <use x="102.339844" xlink:href="#DejaVuSans-101"/>
      <use x="163.863281" xlink:href="#DejaVuSans-115"/>
      <use x="215.962891" xlink:href="#DejaVuSans-101"/>
      <use x="277.486328" xlink:href="#DejaVuSans-110"/>
      <use x="340.865234" xlink:href="#DejaVuSans-116"/>
     </g>
    </g>
    <g id="line2d_66">
     <path d="M 478.0965 105.254812 
L 504.4965 105.254812 
" style="fill:none;stroke:#0173b2;stroke-linecap:round;stroke-width:1.2;"/>
    </g>
    <g id="line2d_67">
     <g>
      <use style="fill:#0173b2;stroke:#0173b2;" x="491.2965" xlink:href="#mafc4b1c3f0" y="105.254812"/>
     </g>
    </g>
    <g id="text_22">
     <!-- cumulative AP -->
     <g style="fill:#262626;" transform="translate(515.0565 109.874812)scale(0.132 -0.132)">
      <defs>
       <path d="M 52 44.1875 
Q 55.375 50.25 60.0625 53.125 
Q 64.75 56 71.09375 56 
Q 79.640625 56 84.28125 50.015625 
Q 88.921875 44.046875 88.921875 33.015625 
L 88.921875 0 
L 79.890625 0 
L 79.890625 32.71875 
Q 79.890625 40.578125 77.09375 44.375 
Q 74.3125 48.1875 68.609375 48.1875 
Q 61.625 48.1875 57.5625 43.546875 
Q 53.515625 38.921875 53.515625 30.90625 
L 53.515625 0 
L 44.484375 0 
L 44.484375 32.71875 
Q 44.484375 40.625 41.703125 44.40625 
Q 38.921875 48.1875 33.109375 48.1875 
Q 26.21875 48.1875 22.15625 43.53125 
Q 18.109375 38.875 18.109375 30.90625 
L 18.109375 0 
L 9.078125 0 
L 9.078125 54.6875 
L 18.109375 54.6875 
L 18.109375 46.1875 
Q 21.1875 51.21875 25.484375 53.609375 
Q 29.78125 56 35.6875 56 
Q 41.65625 56 45.828125 52.96875 
Q 50 49.953125 52 44.1875 
z
" id="DejaVuSans-109"/>
       <path d="M 9.421875 75.984375 
L 18.40625 75.984375 
L 18.40625 0 
L 9.421875 0 
z
" id="DejaVuSans-108"/>
       <path d="M 2.984375 54.6875 
L 12.5 54.6875 
L 29.59375 8.796875 
L 46.6875 54.6875 
L 56.203125 54.6875 
L 35.6875 0 
L 23.484375 0 
z
" id="DejaVuSans-118"/>
       <path id="DejaVuSans-32"/>
       <path d="M 34.1875 63.1875 
L 20.796875 26.90625 
L 47.609375 26.90625 
z
M 28.609375 72.90625 
L 39.796875 72.90625 
L 67.578125 0 
L 57.328125 0 
L 50.6875 18.703125 
L 17.828125 18.703125 
L 11.1875 0 
L 0.78125 0 
z
" id="DejaVuSans-65"/>
       <path d="M 19.671875 64.796875 
L 19.671875 37.40625 
L 32.078125 37.40625 
Q 38.96875 37.40625 42.71875 40.96875 
Q 46.484375 44.53125 46.484375 51.125 
Q 46.484375 57.671875 42.71875 61.234375 
Q 38.96875 64.796875 32.078125 64.796875 
z
M 9.8125 72.90625 
L 32.078125 72.90625 
Q 44.34375 72.90625 50.609375 67.359375 
Q 56.890625 61.8125 56.890625 51.125 
Q 56.890625 40.328125 50.609375 34.8125 
Q 44.34375 29.296875 32.078125 29.296875 
L 19.671875 29.296875 
L 19.671875 0 
L 9.8125 0 
z
" id="DejaVuSans-80"/>
      </defs>
      <use xlink:href="#DejaVuSans-99"/>
      <use x="54.980469" xlink:href="#DejaVuSans-117"/>
      <use x="118.359375" xlink:href="#DejaVuSans-109"/>
      <use x="215.771484" xlink:href="#DejaVuSans-117"/>
      <use x="279.150391" xlink:href="#DejaVuSans-108"/>
      <use x="306.933594" xlink:href="#DejaVuSans-97"/>
      <use x="368.212891" xlink:href="#DejaVuSans-116"/>
      <use x="407.421875" xlink:href="#DejaVuSans-105"/>
      <use x="435.205078" xlink:href="#DejaVuSans-118"/>
      <use x="494.384766" xlink:href="#DejaVuSans-101"/>
      <use x="555.908203" xlink:href="#DejaVuSans-32"/>
      <use x="587.695312" xlink:href="#DejaVuSans-65"/>
      <use x="656.103516" xlink:href="#DejaVuSans-80"/>
     </g>
    </g>
    <g id="line2d_68">
     <path d="M 478.0965 124.629937 
L 504.4965 124.629937 
" style="fill:none;stroke:#0173b2;stroke-linecap:round;stroke-width:1.2;"/>
    </g>
    <g id="line2d_69">
     <g>
      <use style="fill:#ffffff;stroke:#0173b2;" x="491.2965" xlink:href="#mccd3e9f8ed" y="124.629937"/>
     </g>
    </g>
    <g id="text_23">
     <!-- AP -->
     <g style="fill:#262626;" transform="translate(515.0565 129.249937)scale(0.132 -0.132)">
      <use xlink:href="#DejaVuSans-65"/>
      <use x="68.408203" xlink:href="#DejaVuSans-80"/>
     </g>
    </g>
    <g id="line2d_70">
     <path d="M 478.0965 144.005062 
L 504.4965 144.005062 
" style="fill:none;stroke:#de8f05;stroke-linecap:round;stroke-width:1.2;"/>
    </g>
    <g id="line2d_71">
     <g>
      <use style="fill:#de8f05;stroke:#de8f05;" x="491.2965" xlink:href="#mfccb1a4531" y="144.005062"/>
     </g>
    </g>
    <g id="text_24">
     <!-- cumulative Baseline AP -->
     <g style="fill:#262626;" transform="translate(515.0565 148.625062)scale(0.132 -0.132)">
      <defs>
       <path d="M 19.671875 34.8125 
L 19.671875 8.109375 
L 35.5 8.109375 
Q 43.453125 8.109375 47.28125 11.40625 
Q 51.125 14.703125 51.125 21.484375 
Q 51.125 28.328125 47.28125 31.5625 
Q 43.453125 34.8125 35.5 34.8125 
z
M 19.671875 64.796875 
L 19.671875 42.828125 
L 34.28125 42.828125 
Q 41.5 42.828125 45.03125 45.53125 
Q 48.578125 48.25 48.578125 53.8125 
Q 48.578125 59.328125 45.03125 62.0625 
Q 41.5 64.796875 34.28125 64.796875 
z
M 9.8125 72.90625 
L 35.015625 72.90625 
Q 46.296875 72.90625 52.390625 68.21875 
Q 58.5 63.53125 58.5 54.890625 
Q 58.5 48.1875 55.375 44.234375 
Q 52.25 40.28125 46.1875 39.3125 
Q 53.46875 37.75 57.5 32.78125 
Q 61.53125 27.828125 61.53125 20.40625 
Q 61.53125 10.640625 54.890625 5.3125 
Q 48.25 0 35.984375 0 
L 9.8125 0 
z
" id="DejaVuSans-66"/>
      </defs>
      <use xlink:href="#DejaVuSans-99"/>
      <use x="54.980469" xlink:href="#DejaVuSans-117"/>
      <use x="118.359375" xlink:href="#DejaVuSans-109"/>
      <use x="215.771484" xlink:href="#DejaVuSans-117"/>
      <use x="279.150391" xlink:href="#DejaVuSans-108"/>
      <use x="306.933594" xlink:href="#DejaVuSans-97"/>
      <use x="368.212891" xlink:href="#DejaVuSans-116"/>
      <use x="407.421875" xlink:href="#DejaVuSans-105"/>
      <use x="435.205078" xlink:href="#DejaVuSans-118"/>
      <use x="494.384766" xlink:href="#DejaVuSans-101"/>
      <use x="555.908203" xlink:href="#DejaVuSans-32"/>
      <use x="587.695312" xlink:href="#DejaVuSans-66"/>
      <use x="656.298828" xlink:href="#DejaVuSans-97"/>
      <use x="717.578125" xlink:href="#DejaVuSans-115"/>
      <use x="769.677734" xlink:href="#DejaVuSans-101"/>
      <use x="831.201172" xlink:href="#DejaVuSans-108"/>
      <use x="858.984375" xlink:href="#DejaVuSans-105"/>
      <use x="886.767578" xlink:href="#DejaVuSans-110"/>
      <use x="950.146484" xlink:href="#DejaVuSans-101"/>
      <use x="1011.669922" xlink:href="#DejaVuSans-32"/>
      <use x="1043.457031" xlink:href="#DejaVuSans-65"/>
      <use x="1111.865234" xlink:href="#DejaVuSans-80"/>
     </g>
    </g>
    <g id="line2d_72">
     <path d="M 478.0965 163.380187 
L 504.4965 163.380187 
" style="fill:none;stroke:#de8f05;stroke-linecap:round;stroke-width:1.2;"/>
    </g>
    <g id="line2d_73">
     <g>
      <use style="fill:#ffffff;stroke:#de8f05;" x="491.2965" xlink:href="#md038d5fb9a" y="163.380187"/>
     </g>
    </g>
    <g id="text_25">
     <!-- Baseline AP -->
     <g style="fill:#262626;" transform="translate(515.0565 168.000187)scale(0.132 -0.132)">
      <use xlink:href="#DejaVuSans-66"/>
      <use x="68.603516" xlink:href="#DejaVuSans-97"/>
      <use x="129.882812" xlink:href="#DejaVuSans-115"/>
      <use x="181.982422" xlink:href="#DejaVuSans-101"/>
      <use x="243.505859" xlink:href="#DejaVuSans-108"/>
      <use x="271.289062" xlink:href="#DejaVuSans-105"/>
      <use x="299.072266" xlink:href="#DejaVuSans-110"/>
      <use x="362.451172" xlink:href="#DejaVuSans-101"/>
      <use x="423.974609" xlink:href="#DejaVuSans-32"/>
      <use x="455.761719" xlink:href="#DejaVuSans-65"/>
      <use x="524.169922" xlink:href="#DejaVuSans-80"/>
     </g>
    </g>
   </g>
  </g>
 </g>
 <defs>
  <clipPath id="pb29b693e8b">
   <rect height="217.44" width="334.8" x="64.4565" y="7.2"/>
  </clipPath>
 </defs>
</svg>
