<?xml version="1.0" encoding="utf-8" standalone="no"?>
<!DOCTYPE svg PUBLIC "-//W3C//DTD SVG 1.1//EN"
  "http://www.w3.org/Graphics/SVG/1.1/DTD/svg11.dtd">
<!-- Created with matplotlib (https://matplotlib.org/) -->
<svg height="271.252125pt" version="1.1" viewBox="0 0 682.261125 271.252125" width="682.261125pt" xmlns="http://www.w3.org/2000/svg" xmlns:xlink="http://www.w3.org/1999/xlink">
 <metadata>
  <rdf:RDF xmlns:cc="http://creativecommons.org/ns#" xmlns:dc="http://purl.org/dc/elements/1.1/" xmlns:rdf="http://www.w3.org/1999/02/22-rdf-syntax-ns#">
   <cc:Work>
    <dc:type rdf:resource="http://purl.org/dc/dcmitype/StillImage"/>
    <dc:date>2021-06-24T21:58:46.708541</dc:date>
    <dc:format>image/svg+xml</dc:format>
    <dc:creator>
     <cc:Agent>
      <dc:title>Matplotlib v3.3.4, https://matplotlib.org/</dc:title>
     </cc:Agent>
    </dc:creator>
   </cc:Work>
  </rdf:RDF>
 </metadata>
 <defs>
  <style type="text/css">*{stroke-linecap:butt;stroke-linejoin:round;}</style>
 </defs>
 <g id="figure_1">
  <g id="patch_1">
   <path d="M 0 271.252125 
L 682.261125 271.252125 
L 682.261125 0 
L 0 0 
z
" style="fill:#ffffff;"/>
  </g>
  <g id="axes_1">
   <g id="patch_2">
    <path d="M 64.4565 224.64 
L 399.2565 224.64 
L 399.2565 7.2 
L 64.4565 7.2 
z
" style="fill:#ffffff;"/>
   </g>
   <g id="matplotlib.axis_1">
    <g id="xtick_1">
     <g id="line2d_1">
      <path clip-path="url(#pdb2f98842c)" d="M 79.522386 224.64 
L 79.522386 7.2 
" style="fill:none;stroke:#cccccc;stroke-dasharray:0.8,1.32;stroke-dashoffset:0;stroke-width:0.8;"/>
     </g>
     <g id="line2d_2">
      <defs>
       <path d="M 0 0 
L 0 4.8 
" id="m52913f927e" style="stroke:#262626;stroke-width:0.6;"/>
      </defs>
      <g>
       <use style="fill:#262626;stroke:#262626;stroke-width:0.6;" x="79.522386" xlink:href="#m52913f927e" y="224.64"/>
      </g>
     </g>
     <g id="text_1">
      <!-- 0.00 -->
      <g style="fill:#262626;" transform="translate(64.827073 242.969937)scale(0.132 -0.132)">
       <defs>
        <path d="M 31.78125 66.40625 
Q 24.171875 66.40625 20.328125 58.90625 
Q 16.5 51.421875 16.5 36.375 
Q 16.5 21.390625 20.328125 13.890625 
Q 24.171875 6.390625 31.78125 6.390625 
Q 39.453125 6.390625 43.28125 13.890625 
Q 47.125 21.390625 47.125 36.375 
Q 47.125 51.421875 43.28125 58.90625 
Q 39.453125 66.40625 31.78125 66.40625 
z
M 31.78125 74.21875 
Q 44.046875 74.21875 50.515625 64.515625 
Q 56.984375 54.828125 56.984375 36.375 
Q 56.984375 17.96875 50.515625 8.265625 
Q 44.046875 -1.421875 31.78125 -1.421875 
Q 19.53125 -1.421875 13.0625 8.265625 
Q 6.59375 17.96875 6.59375 36.375 
Q 6.59375 54.828125 13.0625 64.515625 
Q 19.53125 74.21875 31.78125 74.21875 
z
" id="DejaVuSans-48"/>
        <path d="M 10.6875 12.40625 
L 21 12.40625 
L 21 0 
L 10.6875 0 
z
" id="DejaVuSans-46"/>
       </defs>
       <use xlink:href="#DejaVuSans-48"/>
       <use x="63.623047" xlink:href="#DejaVuSans-46"/>
       <use x="95.410156" xlink:href="#DejaVuSans-48"/>
       <use x="159.033203" xlink:href="#DejaVuSans-48"/>
      </g>
     </g>
    </g>
    <g id="xtick_2">
     <g id="line2d_3">
      <path clip-path="url(#pdb2f98842c)" d="M 155.670406 224.64 
L 155.670406 7.2 
" style="fill:none;stroke:#cccccc;stroke-dasharray:0.8,1.32;stroke-dashoffset:0;stroke-width:0.8;"/>
     </g>
     <g id="line2d_4">
      <g>
       <use style="fill:#262626;stroke:#262626;stroke-width:0.6;" x="155.670406" xlink:href="#m52913f927e" y="224.64"/>
      </g>
     </g>
     <g id="text_2">
      <!-- 0.05 -->
      <g style="fill:#262626;" transform="translate(140.975093 242.969937)scale(0.132 -0.132)">
       <defs>
        <path d="M 10.796875 72.90625 
L 49.515625 72.90625 
L 49.515625 64.59375 
L 19.828125 64.59375 
L 19.828125 46.734375 
Q 21.96875 47.46875 24.109375 47.828125 
Q 26.265625 48.1875 28.421875 48.1875 
Q 40.625 48.1875 47.75 41.5 
Q 54.890625 34.8125 54.890625 23.390625 
Q 54.890625 11.625 47.5625 5.09375 
Q 40.234375 -1.421875 26.90625 -1.421875 
Q 22.3125 -1.421875 17.546875 -0.640625 
Q 12.796875 0.140625 7.71875 1.703125 
L 7.71875 11.625 
Q 12.109375 9.234375 16.796875 8.0625 
Q 21.484375 6.890625 26.703125 6.890625 
Q 35.15625 6.890625 40.078125 11.328125 
Q 45.015625 15.765625 45.015625 23.390625 
Q 45.015625 31 40.078125 35.4375 
Q 35.15625 39.890625 26.703125 39.890625 
Q 22.75 39.890625 18.8125 39.015625 
Q 14.890625 38.140625 10.796875 36.28125 
z
" id="DejaVuSans-53"/>
       </defs>
       <use xlink:href="#DejaVuSans-48"/>
       <use x="63.623047" xlink:href="#DejaVuSans-46"/>
       <use x="95.410156" xlink:href="#DejaVuSans-48"/>
       <use x="159.033203" xlink:href="#DejaVuSans-53"/>
      </g>
     </g>
    </g>
    <g id="xtick_3">
     <g id="line2d_5">
      <path clip-path="url(#pdb2f98842c)" d="M 231.818426 224.64 
L 231.818426 7.2 
" style="fill:none;stroke:#cccccc;stroke-dasharray:0.8,1.32;stroke-dashoffset:0;stroke-width:0.8;"/>
     </g>
     <g id="line2d_6">
      <g>
       <use style="fill:#262626;stroke:#262626;stroke-width:0.6;" x="231.818426" xlink:href="#m52913f927e" y="224.64"/>
      </g>
     </g>
     <g id="text_3">
      <!-- 0.10 -->
      <g style="fill:#262626;" transform="translate(217.123113 242.969937)scale(0.132 -0.132)">
       <defs>
        <path d="M 12.40625 8.296875 
L 28.515625 8.296875 
L 28.515625 63.921875 
L 10.984375 60.40625 
L 10.984375 69.390625 
L 28.421875 72.90625 
L 38.28125 72.90625 
L 38.28125 8.296875 
L 54.390625 8.296875 
L 54.390625 0 
L 12.40625 0 
z
" id="DejaVuSans-49"/>
       </defs>
       <use xlink:href="#DejaVuSans-48"/>
       <use x="63.623047" xlink:href="#DejaVuSans-46"/>
       <use x="95.410156" xlink:href="#DejaVuSans-49"/>
       <use x="159.033203" xlink:href="#DejaVuSans-48"/>
      </g>
     </g>
    </g>
    <g id="xtick_4">
     <g id="line2d_7">
      <path clip-path="url(#pdb2f98842c)" d="M 307.966446 224.64 
L 307.966446 7.2 
" style="fill:none;stroke:#cccccc;stroke-dasharray:0.8,1.32;stroke-dashoffset:0;stroke-width:0.8;"/>
     </g>
     <g id="line2d_8">
      <g>
       <use style="fill:#262626;stroke:#262626;stroke-width:0.6;" x="307.966446" xlink:href="#m52913f927e" y="224.64"/>
      </g>
     </g>
     <g id="text_4">
      <!-- 0.15 -->
      <g style="fill:#262626;" transform="translate(293.271134 242.969937)scale(0.132 -0.132)">
       <use xlink:href="#DejaVuSans-48"/>
       <use x="63.623047" xlink:href="#DejaVuSans-46"/>
       <use x="95.410156" xlink:href="#DejaVuSans-49"/>
       <use x="159.033203" xlink:href="#DejaVuSans-53"/>
      </g>
     </g>
    </g>
    <g id="xtick_5">
     <g id="line2d_9">
      <path clip-path="url(#pdb2f98842c)" d="M 384.114466 224.64 
L 384.114466 7.2 
" style="fill:none;stroke:#cccccc;stroke-dasharray:0.8,1.32;stroke-dashoffset:0;stroke-width:0.8;"/>
     </g>
     <g id="line2d_10">
      <g>
       <use style="fill:#262626;stroke:#262626;stroke-width:0.6;" x="384.114466" xlink:href="#m52913f927e" y="224.64"/>
      </g>
     </g>
     <g id="text_5">
      <!-- 0.20 -->
      <g style="fill:#262626;" transform="translate(369.419154 242.969937)scale(0.132 -0.132)">
       <defs>
        <path d="M 19.1875 8.296875 
L 53.609375 8.296875 
L 53.609375 0 
L 7.328125 0 
L 7.328125 8.296875 
Q 12.9375 14.109375 22.625 23.890625 
Q 32.328125 33.6875 34.8125 36.53125 
Q 39.546875 41.84375 41.421875 45.53125 
Q 43.3125 49.21875 43.3125 52.78125 
Q 43.3125 58.59375 39.234375 62.25 
Q 35.15625 65.921875 28.609375 65.921875 
Q 23.96875 65.921875 18.8125 64.3125 
Q 13.671875 62.703125 7.8125 59.421875 
L 7.8125 69.390625 
Q 13.765625 71.78125 18.9375 73 
Q 24.125 74.21875 28.421875 74.21875 
Q 39.75 74.21875 46.484375 68.546875 
Q 53.21875 62.890625 53.21875 53.421875 
Q 53.21875 48.921875 51.53125 44.890625 
Q 49.859375 40.875 45.40625 35.40625 
Q 44.1875 33.984375 37.640625 27.21875 
Q 31.109375 20.453125 19.1875 8.296875 
z
" id="DejaVuSans-50"/>
       </defs>
       <use xlink:href="#DejaVuSans-48"/>
       <use x="63.623047" xlink:href="#DejaVuSans-46"/>
       <use x="95.410156" xlink:href="#DejaVuSans-50"/>
       <use x="159.033203" xlink:href="#DejaVuSans-48"/>
      </g>
     </g>
    </g>
    <g id="text_6">
     <!-- percent_binned_coverage -->
     <g style="fill:#262626;" transform="translate(138.955125 260.656875)scale(0.144 -0.144)">
      <defs>
       <path d="M 18.109375 8.203125 
L 18.109375 -20.796875 
L 9.078125 -20.796875 
L 9.078125 54.6875 
L 18.109375 54.6875 
L 18.109375 46.390625 
Q 20.953125 51.265625 25.265625 53.625 
Q 29.59375 56 35.59375 56 
Q 45.5625 56 51.78125 48.09375 
Q 58.015625 40.1875 58.015625 27.296875 
Q 58.015625 14.40625 51.78125 6.484375 
Q 45.5625 -1.421875 35.59375 -1.421875 
Q 29.59375 -1.421875 25.265625 0.953125 
Q 20.953125 3.328125 18.109375 8.203125 
z
M 48.6875 27.296875 
Q 48.6875 37.203125 44.609375 42.84375 
Q 40.53125 48.484375 33.40625 48.484375 
Q 26.265625 48.484375 22.1875 42.84375 
Q 18.109375 37.203125 18.109375 27.296875 
Q 18.109375 17.390625 22.1875 11.75 
Q 26.265625 6.109375 33.40625 6.109375 
Q 40.53125 6.109375 44.609375 11.75 
Q 48.6875 17.390625 48.6875 27.296875 
z
" id="DejaVuSans-112"/>
       <path d="M 56.203125 29.59375 
L 56.203125 25.203125 
L 14.890625 25.203125 
Q 15.484375 15.921875 20.484375 11.0625 
Q 25.484375 6.203125 34.421875 6.203125 
Q 39.59375 6.203125 44.453125 7.46875 
Q 49.3125 8.734375 54.109375 11.28125 
L 54.109375 2.78125 
Q 49.265625 0.734375 44.1875 -0.34375 
Q 39.109375 -1.421875 33.890625 -1.421875 
Q 20.796875 -1.421875 13.15625 6.1875 
Q 5.515625 13.8125 5.515625 26.8125 
Q 5.515625 40.234375 12.765625 48.109375 
Q 20.015625 56 32.328125 56 
Q 43.359375 56 49.78125 48.890625 
Q 56.203125 41.796875 56.203125 29.59375 
z
M 47.21875 32.234375 
Q 47.125 39.59375 43.09375 43.984375 
Q 39.0625 48.390625 32.421875 48.390625 
Q 24.90625 48.390625 20.390625 44.140625 
Q 15.875 39.890625 15.1875 32.171875 
z
" id="DejaVuSans-101"/>
       <path d="M 41.109375 46.296875 
Q 39.59375 47.171875 37.8125 47.578125 
Q 36.03125 48 33.890625 48 
Q 26.265625 48 22.1875 43.046875 
Q 18.109375 38.09375 18.109375 28.8125 
L 18.109375 0 
L 9.078125 0 
L 9.078125 54.6875 
L 18.109375 54.6875 
L 18.109375 46.1875 
Q 20.953125 51.171875 25.484375 53.578125 
Q 30.03125 56 36.53125 56 
Q 37.453125 56 38.578125 55.875 
Q 39.703125 55.765625 41.0625 55.515625 
z
" id="DejaVuSans-114"/>
       <path d="M 48.78125 52.59375 
L 48.78125 44.1875 
Q 44.96875 46.296875 41.140625 47.34375 
Q 37.3125 48.390625 33.40625 48.390625 
Q 24.65625 48.390625 19.8125 42.84375 
Q 14.984375 37.3125 14.984375 27.296875 
Q 14.984375 17.28125 19.8125 11.734375 
Q 24.65625 6.203125 33.40625 6.203125 
Q 37.3125 6.203125 41.140625 7.25 
Q 44.96875 8.296875 48.78125 10.40625 
L 48.78125 2.09375 
Q 45.015625 0.34375 40.984375 -0.53125 
Q 36.96875 -1.421875 32.421875 -1.421875 
Q 20.0625 -1.421875 12.78125 6.34375 
Q 5.515625 14.109375 5.515625 27.296875 
Q 5.515625 40.671875 12.859375 48.328125 
Q 20.21875 56 33.015625 56 
Q 37.15625 56 41.109375 55.140625 
Q 45.0625 54.296875 48.78125 52.59375 
z
" id="DejaVuSans-99"/>
       <path d="M 54.890625 33.015625 
L 54.890625 0 
L 45.90625 0 
L 45.90625 32.71875 
Q 45.90625 40.484375 42.875 44.328125 
Q 39.84375 48.1875 33.796875 48.1875 
Q 26.515625 48.1875 22.3125 43.546875 
Q 18.109375 38.921875 18.109375 30.90625 
L 18.109375 0 
L 9.078125 0 
L 9.078125 54.6875 
L 18.109375 54.6875 
L 18.109375 46.1875 
Q 21.34375 51.125 25.703125 53.5625 
Q 30.078125 56 35.796875 56 
Q 45.21875 56 50.046875 50.171875 
Q 54.890625 44.34375 54.890625 33.015625 
z
" id="DejaVuSans-110"/>
       <path d="M 18.3125 70.21875 
L 18.3125 54.6875 
L 36.8125 54.6875 
L 36.8125 47.703125 
L 18.3125 47.703125 
L 18.3125 18.015625 
Q 18.3125 11.328125 20.140625 9.421875 
Q 21.96875 7.515625 27.59375 7.515625 
L 36.8125 7.515625 
L 36.8125 0 
L 27.59375 0 
Q 17.1875 0 13.234375 3.875 
Q 9.28125 7.765625 9.28125 18.015625 
L 9.28125 47.703125 
L 2.6875 47.703125 
L 2.6875 54.6875 
L 9.28125 54.6875 
L 9.28125 70.21875 
z
" id="DejaVuSans-116"/>
       <path d="M 50.984375 -16.609375 
L 50.984375 -23.578125 
L -0.984375 -23.578125 
L -0.984375 -16.609375 
z
" id="DejaVuSans-95"/>
       <path d="M 48.6875 27.296875 
Q 48.6875 37.203125 44.609375 42.84375 
Q 40.53125 48.484375 33.40625 48.484375 
Q 26.265625 48.484375 22.1875 42.84375 
Q 18.109375 37.203125 18.109375 27.296875 
Q 18.109375 17.390625 22.1875 11.75 
Q 26.265625 6.109375 33.40625 6.109375 
Q 40.53125 6.109375 44.609375 11.75 
Q 48.6875 17.390625 48.6875 27.296875 
z
M 18.109375 46.390625 
Q 20.953125 51.265625 25.265625 53.625 
Q 29.59375 56 35.59375 56 
Q 45.5625 56 51.78125 48.09375 
Q 58.015625 40.1875 58.015625 27.296875 
Q 58.015625 14.40625 51.78125 6.484375 
Q 45.5625 -1.421875 35.59375 -1.421875 
Q 29.59375 -1.421875 25.265625 0.953125 
Q 20.953125 3.328125 18.109375 8.203125 
L 18.109375 0 
L 9.078125 0 
L 9.078125 75.984375 
L 18.109375 75.984375 
z
" id="DejaVuSans-98"/>
       <path d="M 9.421875 54.6875 
L 18.40625 54.6875 
L 18.40625 0 
L 9.421875 0 
z
M 9.421875 75.984375 
L 18.40625 75.984375 
L 18.40625 64.59375 
L 9.421875 64.59375 
z
" id="DejaVuSans-105"/>
       <path d="M 45.40625 46.390625 
L 45.40625 75.984375 
L 54.390625 75.984375 
L 54.390625 0 
L 45.40625 0 
L 45.40625 8.203125 
Q 42.578125 3.328125 38.25 0.953125 
Q 33.9375 -1.421875 27.875 -1.421875 
Q 17.96875 -1.421875 11.734375 6.484375 
Q 5.515625 14.40625 5.515625 27.296875 
Q 5.515625 40.1875 11.734375 48.09375 
Q 17.96875 56 27.875 56 
Q 33.9375 56 38.25 53.625 
Q 42.578125 51.265625 45.40625 46.390625 
z
M 14.796875 27.296875 
Q 14.796875 17.390625 18.875 11.75 
Q 22.953125 6.109375 30.078125 6.109375 
Q 37.203125 6.109375 41.296875 11.75 
Q 45.40625 17.390625 45.40625 27.296875 
Q 45.40625 37.203125 41.296875 42.84375 
Q 37.203125 48.484375 30.078125 48.484375 
Q 22.953125 48.484375 18.875 42.84375 
Q 14.796875 37.203125 14.796875 27.296875 
z
" id="DejaVuSans-100"/>
       <path d="M 30.609375 48.390625 
Q 23.390625 48.390625 19.1875 42.75 
Q 14.984375 37.109375 14.984375 27.296875 
Q 14.984375 17.484375 19.15625 11.84375 
Q 23.34375 6.203125 30.609375 6.203125 
Q 37.796875 6.203125 41.984375 11.859375 
Q 46.1875 17.53125 46.1875 27.296875 
Q 46.1875 37.015625 41.984375 42.703125 
Q 37.796875 48.390625 30.609375 48.390625 
z
M 30.609375 56 
Q 42.328125 56 49.015625 48.375 
Q 55.71875 40.765625 55.71875 27.296875 
Q 55.71875 13.875 49.015625 6.21875 
Q 42.328125 -1.421875 30.609375 -1.421875 
Q 18.84375 -1.421875 12.171875 6.21875 
Q 5.515625 13.875 5.515625 27.296875 
Q 5.515625 40.765625 12.171875 48.375 
Q 18.84375 56 30.609375 56 
z
" id="DejaVuSans-111"/>
       <path d="M 2.984375 54.6875 
L 12.5 54.6875 
L 29.59375 8.796875 
L 46.6875 54.6875 
L 56.203125 54.6875 
L 35.6875 0 
L 23.484375 0 
z
" id="DejaVuSans-118"/>
       <path d="M 34.28125 27.484375 
Q 23.390625 27.484375 19.1875 25 
Q 14.984375 22.515625 14.984375 16.5 
Q 14.984375 11.71875 18.140625 8.90625 
Q 21.296875 6.109375 26.703125 6.109375 
Q 34.1875 6.109375 38.703125 11.40625 
Q 43.21875 16.703125 43.21875 25.484375 
L 43.21875 27.484375 
z
M 52.203125 31.203125 
L 52.203125 0 
L 43.21875 0 
L 43.21875 8.296875 
Q 40.140625 3.328125 35.546875 0.953125 
Q 30.953125 -1.421875 24.3125 -1.421875 
Q 15.921875 -1.421875 10.953125 3.296875 
Q 6 8.015625 6 15.921875 
Q 6 25.140625 12.171875 29.828125 
Q 18.359375 34.515625 30.609375 34.515625 
L 43.21875 34.515625 
L 43.21875 35.40625 
Q 43.21875 41.609375 39.140625 45 
Q 35.0625 48.390625 27.6875 48.390625 
Q 23 48.390625 18.546875 47.265625 
Q 14.109375 46.140625 10.015625 43.890625 
L 10.015625 52.203125 
Q 14.9375 54.109375 19.578125 55.046875 
Q 24.21875 56 28.609375 56 
Q 40.484375 56 46.34375 49.84375 
Q 52.203125 43.703125 52.203125 31.203125 
z
" id="DejaVuSans-97"/>
       <path d="M 45.40625 27.984375 
Q 45.40625 37.75 41.375 43.109375 
Q 37.359375 48.484375 30.078125 48.484375 
Q 22.859375 48.484375 18.828125 43.109375 
Q 14.796875 37.75 14.796875 27.984375 
Q 14.796875 18.265625 18.828125 12.890625 
Q 22.859375 7.515625 30.078125 7.515625 
Q 37.359375 7.515625 41.375 12.890625 
Q 45.40625 18.265625 45.40625 27.984375 
z
M 54.390625 6.78125 
Q 54.390625 -7.171875 48.1875 -13.984375 
Q 42 -20.796875 29.203125 -20.796875 
Q 24.46875 -20.796875 20.265625 -20.09375 
Q 16.0625 -19.390625 12.109375 -17.921875 
L 12.109375 -9.1875 
Q 16.0625 -11.328125 19.921875 -12.34375 
Q 23.78125 -13.375 27.78125 -13.375 
Q 36.625 -13.375 41.015625 -8.765625 
Q 45.40625 -4.15625 45.40625 5.171875 
L 45.40625 9.625 
Q 42.625 4.78125 38.28125 2.390625 
Q 33.9375 0 27.875 0 
Q 17.828125 0 11.671875 7.65625 
Q 5.515625 15.328125 5.515625 27.984375 
Q 5.515625 40.671875 11.671875 48.328125 
Q 17.828125 56 27.875 56 
Q 33.9375 56 38.28125 53.609375 
Q 42.625 51.21875 45.40625 46.390625 
L 45.40625 54.6875 
L 54.390625 54.6875 
z
" id="DejaVuSans-103"/>
      </defs>
      <use xlink:href="#DejaVuSans-112"/>
      <use x="63.476562" xlink:href="#DejaVuSans-101"/>
      <use x="125" xlink:href="#DejaVuSans-114"/>
      <use x="163.863281" xlink:href="#DejaVuSans-99"/>
      <use x="218.84375" xlink:href="#DejaVuSans-101"/>
      <use x="280.367188" xlink:href="#DejaVuSans-110"/>
      <use x="343.746094" xlink:href="#DejaVuSans-116"/>
      <use x="382.955078" xlink:href="#DejaVuSans-95"/>
      <use x="432.955078" xlink:href="#DejaVuSans-98"/>
      <use x="496.431641" xlink:href="#DejaVuSans-105"/>
      <use x="524.214844" xlink:href="#DejaVuSans-110"/>
      <use x="587.59375" xlink:href="#DejaVuSans-110"/>
      <use x="650.972656" xlink:href="#DejaVuSans-101"/>
      <use x="712.496094" xlink:href="#DejaVuSans-100"/>
      <use x="775.972656" xlink:href="#DejaVuSans-95"/>
      <use x="825.972656" xlink:href="#DejaVuSans-99"/>
      <use x="880.953125" xlink:href="#DejaVuSans-111"/>
      <use x="942.134766" xlink:href="#DejaVuSans-118"/>
      <use x="1001.314453" xlink:href="#DejaVuSans-101"/>
      <use x="1062.837891" xlink:href="#DejaVuSans-114"/>
      <use x="1103.951172" xlink:href="#DejaVuSans-97"/>
      <use x="1165.230469" xlink:href="#DejaVuSans-103"/>
      <use x="1228.707031" xlink:href="#DejaVuSans-101"/>
     </g>
    </g>
   </g>
   <g id="matplotlib.axis_2">
    <g id="ytick_1">
     <g id="line2d_11">
      <path clip-path="url(#pdb2f98842c)" d="M 64.4565 173.34051 
L 399.2565 173.34051 
" style="fill:none;stroke:#cccccc;stroke-dasharray:0.8,1.32;stroke-dashoffset:0;stroke-width:0.8;"/>
     </g>
     <g id="line2d_12">
      <defs>
       <path d="M 0 0 
L -4.8 0 
" id="m5b76d4d8a6" style="stroke:#262626;stroke-width:0.6;"/>
      </defs>
      <g>
       <use style="fill:#262626;stroke:#262626;stroke-width:0.6;" x="64.4565" xlink:href="#m5b76d4d8a6" y="173.34051"/>
      </g>
     </g>
     <g id="text_7">
      <!-- $\mathdefault{10^{-1}}$ -->
      <g style="fill:#262626;" transform="translate(25.1365 178.355479)scale(0.132 -0.132)">
       <defs>
        <path d="M 10.59375 35.5 
L 73.1875 35.5 
L 73.1875 27.203125 
L 10.59375 27.203125 
z
" id="DejaVuSans-8722"/>
       </defs>
       <use transform="translate(0 0.684375)" xlink:href="#DejaVuSans-49"/>
       <use transform="translate(63.623047 0.684375)" xlink:href="#DejaVuSans-48"/>
       <use transform="translate(128.203125 38.965625)scale(0.7)" xlink:href="#DejaVuSans-8722"/>
       <use transform="translate(186.855469 38.965625)scale(0.7)" xlink:href="#DejaVuSans-49"/>
      </g>
     </g>
    </g>
    <g id="ytick_2">
     <g id="line2d_13">
      <path clip-path="url(#pdb2f98842c)" d="M 64.4565 120.919478 
L 399.2565 120.919478 
" style="fill:none;stroke:#cccccc;stroke-dasharray:0.8,1.32;stroke-dashoffset:0;stroke-width:0.8;"/>
     </g>
     <g id="line2d_14">
      <g>
       <use style="fill:#262626;stroke:#262626;stroke-width:0.6;" x="64.4565" xlink:href="#m5b76d4d8a6" y="120.919478"/>
      </g>
     </g>
     <g id="text_8">
      <!-- $\mathdefault{10^{0}}$ -->
      <g style="fill:#262626;" transform="translate(32.9245 125.934447)scale(0.132 -0.132)">
       <use transform="translate(0 0.765625)" xlink:href="#DejaVuSans-49"/>
       <use transform="translate(63.623047 0.765625)" xlink:href="#DejaVuSans-48"/>
       <use transform="translate(128.203125 39.046875)scale(0.7)" xlink:href="#DejaVuSans-48"/>
      </g>
     </g>
    </g>
    <g id="ytick_3">
     <g id="line2d_15">
      <path clip-path="url(#pdb2f98842c)" d="M 64.4565 68.498445 
L 399.2565 68.498445 
" style="fill:none;stroke:#cccccc;stroke-dasharray:0.8,1.32;stroke-dashoffset:0;stroke-width:0.8;"/>
     </g>
     <g id="line2d_16">
      <g>
       <use style="fill:#262626;stroke:#262626;stroke-width:0.6;" x="64.4565" xlink:href="#m5b76d4d8a6" y="68.498445"/>
      </g>
     </g>
     <g id="text_9">
      <!-- $\mathdefault{10^{1}}$ -->
      <g style="fill:#262626;" transform="translate(32.9245 73.513414)scale(0.132 -0.132)">
       <use transform="translate(0 0.684375)" xlink:href="#DejaVuSans-49"/>
       <use transform="translate(63.623047 0.684375)" xlink:href="#DejaVuSans-48"/>
       <use transform="translate(128.203125 38.965625)scale(0.7)" xlink:href="#DejaVuSans-49"/>
      </g>
     </g>
    </g>
    <g id="ytick_4">
     <g id="line2d_17">
      <path clip-path="url(#pdb2f98842c)" d="M 64.4565 16.077413 
L 399.2565 16.077413 
" style="fill:none;stroke:#cccccc;stroke-dasharray:0.8,1.32;stroke-dashoffset:0;stroke-width:0.8;"/>
     </g>
     <g id="line2d_18">
      <g>
       <use style="fill:#262626;stroke:#262626;stroke-width:0.6;" x="64.4565" xlink:href="#m5b76d4d8a6" y="16.077413"/>
      </g>
     </g>
     <g id="text_10">
      <!-- $\mathdefault{10^{2}}$ -->
      <g style="fill:#262626;" transform="translate(32.9245 21.092382)scale(0.132 -0.132)">
       <use transform="translate(0 0.765625)" xlink:href="#DejaVuSans-49"/>
       <use transform="translate(63.623047 0.765625)" xlink:href="#DejaVuSans-48"/>
       <use transform="translate(128.203125 39.046875)scale(0.7)" xlink:href="#DejaVuSans-50"/>
      </g>
     </g>
    </g>
    <g id="ytick_5">
     <g id="line2d_19">
      <defs>
       <path d="M 0 0 
L -3.2 0 
" id="m609a70f18d" style="stroke:#262626;stroke-width:0.8;"/>
      </defs>
      <g>
       <use style="fill:#262626;stroke:#262626;stroke-width:0.8;" x="64.4565" xlink:href="#m609a70f18d" y="209.981239"/>
      </g>
     </g>
    </g>
    <g id="ytick_6">
     <g id="line2d_20">
      <g>
       <use style="fill:#262626;stroke:#262626;stroke-width:0.8;" x="64.4565" xlink:href="#m609a70f18d" y="200.750354"/>
      </g>
     </g>
    </g>
    <g id="ytick_7">
     <g id="line2d_21">
      <g>
       <use style="fill:#262626;stroke:#262626;stroke-width:0.8;" x="64.4565" xlink:href="#m609a70f18d" y="194.200936"/>
      </g>
     </g>
    </g>
    <g id="ytick_8">
     <g id="line2d_22">
      <g>
       <use style="fill:#262626;stroke:#262626;stroke-width:0.8;" x="64.4565" xlink:href="#m609a70f18d" y="189.120813"/>
      </g>
     </g>
    </g>
    <g id="ytick_9">
     <g id="line2d_23">
      <g>
       <use style="fill:#262626;stroke:#262626;stroke-width:0.8;" x="64.4565" xlink:href="#m609a70f18d" y="184.970051"/>
      </g>
     </g>
    </g>
    <g id="ytick_10">
     <g id="line2d_24">
      <g>
       <use style="fill:#262626;stroke:#262626;stroke-width:0.8;" x="64.4565" xlink:href="#m609a70f18d" y="181.460631"/>
      </g>
     </g>
    </g>
    <g id="ytick_11">
     <g id="line2d_25">
      <g>
       <use style="fill:#262626;stroke:#262626;stroke-width:0.8;" x="64.4565" xlink:href="#m609a70f18d" y="178.420633"/>
      </g>
     </g>
    </g>
    <g id="ytick_12">
     <g id="line2d_26">
      <g>
       <use style="fill:#262626;stroke:#262626;stroke-width:0.8;" x="64.4565" xlink:href="#m609a70f18d" y="175.739165"/>
      </g>
     </g>
    </g>
    <g id="ytick_13">
     <g id="line2d_27">
      <g>
       <use style="fill:#262626;stroke:#262626;stroke-width:0.8;" x="64.4565" xlink:href="#m609a70f18d" y="157.560207"/>
      </g>
     </g>
    </g>
    <g id="ytick_14">
     <g id="line2d_28">
      <g>
       <use style="fill:#262626;stroke:#262626;stroke-width:0.8;" x="64.4565" xlink:href="#m609a70f18d" y="148.329321"/>
      </g>
     </g>
    </g>
    <g id="ytick_15">
     <g id="line2d_29">
      <g>
       <use style="fill:#262626;stroke:#262626;stroke-width:0.8;" x="64.4565" xlink:href="#m609a70f18d" y="141.779904"/>
      </g>
     </g>
    </g>
    <g id="ytick_16">
     <g id="line2d_30">
      <g>
       <use style="fill:#262626;stroke:#262626;stroke-width:0.8;" x="64.4565" xlink:href="#m609a70f18d" y="136.699781"/>
      </g>
     </g>
    </g>
    <g id="ytick_17">
     <g id="line2d_31">
      <g>
       <use style="fill:#262626;stroke:#262626;stroke-width:0.8;" x="64.4565" xlink:href="#m609a70f18d" y="132.549018"/>
      </g>
     </g>
    </g>
    <g id="ytick_18">
     <g id="line2d_32">
      <g>
       <use style="fill:#262626;stroke:#262626;stroke-width:0.8;" x="64.4565" xlink:href="#m609a70f18d" y="129.039598"/>
      </g>
     </g>
    </g>
    <g id="ytick_19">
     <g id="line2d_33">
      <g>
       <use style="fill:#262626;stroke:#262626;stroke-width:0.8;" x="64.4565" xlink:href="#m609a70f18d" y="125.999601"/>
      </g>
     </g>
    </g>
    <g id="ytick_20">
     <g id="line2d_34">
      <g>
       <use style="fill:#262626;stroke:#262626;stroke-width:0.8;" x="64.4565" xlink:href="#m609a70f18d" y="123.318133"/>
      </g>
     </g>
    </g>
    <g id="ytick_21">
     <g id="line2d_35">
      <g>
       <use style="fill:#262626;stroke:#262626;stroke-width:0.8;" x="64.4565" xlink:href="#m609a70f18d" y="105.139175"/>
      </g>
     </g>
    </g>
    <g id="ytick_22">
     <g id="line2d_36">
      <g>
       <use style="fill:#262626;stroke:#262626;stroke-width:0.8;" x="64.4565" xlink:href="#m609a70f18d" y="95.908289"/>
      </g>
     </g>
    </g>
    <g id="ytick_23">
     <g id="line2d_37">
      <g>
       <use style="fill:#262626;stroke:#262626;stroke-width:0.8;" x="64.4565" xlink:href="#m609a70f18d" y="89.358871"/>
      </g>
     </g>
    </g>
    <g id="ytick_24">
     <g id="line2d_38">
      <g>
       <use style="fill:#262626;stroke:#262626;stroke-width:0.8;" x="64.4565" xlink:href="#m609a70f18d" y="84.278749"/>
      </g>
     </g>
    </g>
    <g id="ytick_25">
     <g id="line2d_39">
      <g>
       <use style="fill:#262626;stroke:#262626;stroke-width:0.8;" x="64.4565" xlink:href="#m609a70f18d" y="80.127986"/>
      </g>
     </g>
    </g>
    <g id="ytick_26">
     <g id="line2d_40">
      <g>
       <use style="fill:#262626;stroke:#262626;stroke-width:0.8;" x="64.4565" xlink:href="#m609a70f18d" y="76.618566"/>
      </g>
     </g>
    </g>
    <g id="ytick_27">
     <g id="line2d_41">
      <g>
       <use style="fill:#262626;stroke:#262626;stroke-width:0.8;" x="64.4565" xlink:href="#m609a70f18d" y="73.578568"/>
      </g>
     </g>
    </g>
    <g id="ytick_28">
     <g id="line2d_42">
      <g>
       <use style="fill:#262626;stroke:#262626;stroke-width:0.8;" x="64.4565" xlink:href="#m609a70f18d" y="70.8971"/>
      </g>
     </g>
    </g>
    <g id="ytick_29">
     <g id="line2d_43">
      <g>
       <use style="fill:#262626;stroke:#262626;stroke-width:0.8;" x="64.4565" xlink:href="#m609a70f18d" y="52.718142"/>
      </g>
     </g>
    </g>
    <g id="ytick_30">
     <g id="line2d_44">
      <g>
       <use style="fill:#262626;stroke:#262626;stroke-width:0.8;" x="64.4565" xlink:href="#m609a70f18d" y="43.487257"/>
      </g>
     </g>
    </g>
    <g id="ytick_31">
     <g id="line2d_45">
      <g>
       <use style="fill:#262626;stroke:#262626;stroke-width:0.8;" x="64.4565" xlink:href="#m609a70f18d" y="36.937839"/>
      </g>
     </g>
    </g>
    <g id="ytick_32">
     <g id="line2d_46">
      <g>
       <use style="fill:#262626;stroke:#262626;stroke-width:0.8;" x="64.4565" xlink:href="#m609a70f18d" y="31.857716"/>
      </g>
     </g>
    </g>
    <g id="ytick_33">
     <g id="line2d_47">
      <g>
       <use style="fill:#262626;stroke:#262626;stroke-width:0.8;" x="64.4565" xlink:href="#m609a70f18d" y="27.706953"/>
      </g>
     </g>
    </g>
    <g id="ytick_34">
     <g id="line2d_48">
      <g>
       <use style="fill:#262626;stroke:#262626;stroke-width:0.8;" x="64.4565" xlink:href="#m609a70f18d" y="24.197534"/>
      </g>
     </g>
    </g>
    <g id="ytick_35">
     <g id="line2d_49">
      <g>
       <use style="fill:#262626;stroke:#262626;stroke-width:0.8;" x="64.4565" xlink:href="#m609a70f18d" y="21.157536"/>
      </g>
     </g>
    </g>
    <g id="ytick_36">
     <g id="line2d_50">
      <g>
       <use style="fill:#262626;stroke:#262626;stroke-width:0.8;" x="64.4565" xlink:href="#m609a70f18d" y="18.476068"/>
      </g>
     </g>
    </g>
    <g id="text_11">
     <!-- frequency -->
     <g style="fill:#262626;" transform="translate(18.14175 152.03025)rotate(-90)scale(0.144 -0.144)">
      <defs>
       <path d="M 37.109375 75.984375 
L 37.109375 68.5 
L 28.515625 68.5 
Q 23.6875 68.5 21.796875 66.546875 
Q 19.921875 64.59375 19.921875 59.515625 
L 19.921875 54.6875 
L 34.71875 54.6875 
L 34.71875 47.703125 
L 19.921875 47.703125 
L 19.921875 0 
L 10.890625 0 
L 10.890625 47.703125 
L 2.296875 47.703125 
L 2.296875 54.6875 
L 10.890625 54.6875 
L 10.890625 58.5 
Q 10.890625 67.625 15.140625 71.796875 
Q 19.390625 75.984375 28.609375 75.984375 
z
" id="DejaVuSans-102"/>
       <path d="M 14.796875 27.296875 
Q 14.796875 17.390625 18.875 11.75 
Q 22.953125 6.109375 30.078125 6.109375 
Q 37.203125 6.109375 41.296875 11.75 
Q 45.40625 17.390625 45.40625 27.296875 
Q 45.40625 37.203125 41.296875 42.84375 
Q 37.203125 48.484375 30.078125 48.484375 
Q 22.953125 48.484375 18.875 42.84375 
Q 14.796875 37.203125 14.796875 27.296875 
z
M 45.40625 8.203125 
Q 42.578125 3.328125 38.25 0.953125 
Q 33.9375 -1.421875 27.875 -1.421875 
Q 17.96875 -1.421875 11.734375 6.484375 
Q 5.515625 14.40625 5.515625 27.296875 
Q 5.515625 40.1875 11.734375 48.09375 
Q 17.96875 56 27.875 56 
Q 33.9375 56 38.25 53.625 
Q 42.578125 51.265625 45.40625 46.390625 
L 45.40625 54.6875 
L 54.390625 54.6875 
L 54.390625 -20.796875 
L 45.40625 -20.796875 
z
" id="DejaVuSans-113"/>
       <path d="M 8.5 21.578125 
L 8.5 54.6875 
L 17.484375 54.6875 
L 17.484375 21.921875 
Q 17.484375 14.15625 20.5 10.265625 
Q 23.53125 6.390625 29.59375 6.390625 
Q 36.859375 6.390625 41.078125 11.03125 
Q 45.3125 15.671875 45.3125 23.6875 
L 45.3125 54.6875 
L 54.296875 54.6875 
L 54.296875 0 
L 45.3125 0 
L 45.3125 8.40625 
Q 42.046875 3.421875 37.71875 1 
Q 33.40625 -1.421875 27.6875 -1.421875 
Q 18.265625 -1.421875 13.375 4.4375 
Q 8.5 10.296875 8.5 21.578125 
z
M 31.109375 56 
z
" id="DejaVuSans-117"/>
       <path d="M 32.171875 -5.078125 
Q 28.375 -14.84375 24.75 -17.8125 
Q 21.140625 -20.796875 15.09375 -20.796875 
L 7.90625 -20.796875 
L 7.90625 -13.28125 
L 13.1875 -13.28125 
Q 16.890625 -13.28125 18.9375 -11.515625 
Q 21 -9.765625 23.484375 -3.21875 
L 25.09375 0.875 
L 2.984375 54.6875 
L 12.5 54.6875 
L 29.59375 11.921875 
L 46.6875 54.6875 
L 56.203125 54.6875 
z
" id="DejaVuSans-121"/>
      </defs>
      <use xlink:href="#DejaVuSans-102"/>
      <use x="35.205078" xlink:href="#DejaVuSans-114"/>
      <use x="74.068359" xlink:href="#DejaVuSans-101"/>
      <use x="135.591797" xlink:href="#DejaVuSans-113"/>
      <use x="199.068359" xlink:href="#DejaVuSans-117"/>
      <use x="262.447266" xlink:href="#DejaVuSans-101"/>
      <use x="323.970703" xlink:href="#DejaVuSans-110"/>
      <use x="387.349609" xlink:href="#DejaVuSans-99"/>
      <use x="442.330078" xlink:href="#DejaVuSans-121"/>
     </g>
    </g>
   </g>
   <g id="patch_3">
    <path clip-path="url(#pdb2f98842c)" d="M 79.674682 52541.951897 
L 94.889056 52541.951897 
L 94.889056 168.583206 
L 79.674682 168.583206 
z
" style="fill:#029e73;stroke:#ffffff;stroke-linejoin:miter;stroke-width:0.8;"/>
   </g>
   <g id="patch_4">
    <path clip-path="url(#pdb2f98842c)" d="M 94.889056 52541.951897 
L 110.103431 52541.951897 
L 110.103431 182.084992 
L 94.889056 182.084992 
z
" style="fill:#029e73;stroke:#ffffff;stroke-linejoin:miter;stroke-width:0.8;"/>
   </g>
   <g id="patch_5">
    <path clip-path="url(#pdb2f98842c)" d="M 110.103431 52541.951897 
L 125.317805 52541.951897 
L 125.317805 191.315878 
L 110.103431 191.315878 
z
" style="fill:#029e73;stroke:#ffffff;stroke-linejoin:miter;stroke-width:0.8;"/>
   </g>
   <g id="patch_6">
    <path clip-path="url(#pdb2f98842c)" d="M 125.317805 52541.951897 
L 140.532179 52541.951897 
L 140.532179 214.756364 
L 125.317805 214.756364 
z
" style="fill:#029e73;stroke:#ffffff;stroke-linejoin:miter;stroke-width:0.8;"/>
   </g>
   <g id="patch_7">
    <path clip-path="url(#pdb2f98842c)" d="M 140.532179 52541.951897 
L 155.746554 52541.951897 
L 155.746554 193.003032 
L 140.532179 193.003032 
z
" style="fill:#029e73;stroke:#ffffff;stroke-linejoin:miter;stroke-width:0.8;"/>
   </g>
   <g id="patch_8">
    <path clip-path="url(#pdb2f98842c)" d="M 155.746554 52541.951897 
L 170.960928 52541.951897 
L 170.960928 210.605601 
L 155.746554 210.605601 
z
" style="fill:#029e73;stroke:#ffffff;stroke-linejoin:miter;stroke-width:0.8;"/>
   </g>
   <g id="patch_9">
    <path clip-path="url(#pdb2f98842c)" d="M 170.960928 52541.951897 
L 186.175303 52541.951897 
L 186.175303 201.374715 
L 170.960928 201.374715 
z
" style="fill:#029e73;stroke:#ffffff;stroke-linejoin:miter;stroke-width:0.8;"/>
   </g>
   <g id="patch_10">
    <path clip-path="url(#pdb2f98842c)" d="M 186.175303 52541.951897 
L 201.389677 52541.951897 
L 201.389677 196.806213 
L 186.175303 196.806213 
z
" style="fill:#029e73;stroke:#ffffff;stroke-linejoin:miter;stroke-width:0.8;"/>
   </g>
   <g id="patch_11">
    <path clip-path="url(#pdb2f98842c)" d="M 201.389677 52541.951897 
L 216.604052 52541.951897 
L 216.604052 184.363509 
L 201.389677 184.363509 
z
" style="fill:#029e73;stroke:#ffffff;stroke-linejoin:miter;stroke-width:0.8;"/>
   </g>
   <g id="patch_12">
    <path clip-path="url(#pdb2f98842c)" d="M 216.604052 52541.951897 
L 231.818426 52541.951897 
L 231.818426 119.932699 
L 216.604052 119.932699 
z
" style="fill:#029e73;stroke:#ffffff;stroke-linejoin:miter;stroke-width:0.8;"/>
   </g>
   <g id="patch_13">
    <path clip-path="url(#pdb2f98842c)" d="M 231.818426 52541.951897 
L 247.0328 52541.951897 
L 247.0328 142.980655 
L 231.818426 142.980655 
z
" style="fill:#029e73;stroke:#ffffff;stroke-linejoin:miter;stroke-width:0.8;"/>
   </g>
   <g id="patch_14">
    <path clip-path="url(#pdb2f98842c)" d="M 247.0328 52541.951897 
L 262.247175 52541.951897 
L 262.247175 148.953683 
L 247.0328 148.953683 
z
" style="fill:#029e73;stroke:#ffffff;stroke-linejoin:miter;stroke-width:0.8;"/>
   </g>
   <g id="patch_15">
    <path clip-path="url(#pdb2f98842c)" d="M 262.247175 52541.951897 
L 277.461549 52541.951897 
L 277.461549 168.583206 
L 262.247175 168.583206 
z
" style="fill:#029e73;stroke:#ffffff;stroke-linejoin:miter;stroke-width:0.8;"/>
   </g>
   <g id="patch_16">
    <path clip-path="url(#pdb2f98842c)" d="M 277.461549 52541.951897 
L 292.675924 52541.951897 
L 292.675924 174.73668 
L 277.461549 174.73668 
z
" style="fill:#029e73;stroke:#ffffff;stroke-linejoin:miter;stroke-width:0.8;"/>
   </g>
   <g id="patch_17">
    <path clip-path="url(#pdb2f98842c)" d="M 292.675924 52541.951897 
L 307.890298 52541.951897 
L 307.890298 185.594412 
L 292.675924 185.594412 
z
" style="fill:#029e73;stroke:#ffffff;stroke-linejoin:miter;stroke-width:0.8;"/>
   </g>
   <g id="patch_18">
    <path clip-path="url(#pdb2f98842c)" d="M 307.890298 52541.951897 
L 323.104672 52541.951897 
L 323.104672 191.315878 
L 307.890298 191.315878 
z
" style="fill:#029e73;stroke:#ffffff;stroke-linejoin:miter;stroke-width:0.8;"/>
   </g>
   <g id="patch_19">
    <path clip-path="url(#pdb2f98842c)" d="M 323.104672 52541.951897 
L 338.319047 52541.951897 
L 338.319047 188.27588 
L 323.104672 188.27588 
z
" style="fill:#029e73;stroke:#ffffff;stroke-linejoin:miter;stroke-width:0.8;"/>
   </g>
   <g id="patch_20">
    <path clip-path="url(#pdb2f98842c)" d="M 338.319047 52541.951897 
L 353.533421 52541.951897 
L 353.533421 193.003032 
L 338.319047 193.003032 
z
" style="fill:#029e73;stroke:#ffffff;stroke-linejoin:miter;stroke-width:0.8;"/>
   </g>
   <g id="patch_21">
    <path clip-path="url(#pdb2f98842c)" d="M 353.533421 52541.951897 
L 368.747796 52541.951897 
L 368.747796 188.27588 
L 353.533421 188.27588 
z
" style="fill:#029e73;stroke:#ffffff;stroke-linejoin:miter;stroke-width:0.8;"/>
   </g>
   <g id="patch_22">
    <path clip-path="url(#pdb2f98842c)" d="M 368.747796 52541.951897 
L 383.96217 52541.951897 
L 383.96217 189.745175 
L 368.747796 189.745175 
z
" style="fill:#029e73;stroke:#ffffff;stroke-linejoin:miter;stroke-width:0.8;"/>
   </g>
   <g id="patch_23">
    <path clip-path="url(#pdb2f98842c)" d="M 79.674682 168.583206 
L 94.889056 168.583206 
L 94.889056 17.083636 
L 79.674682 17.083636 
z
" style="fill:#cc78bc;stroke:#ffffff;stroke-linejoin:miter;stroke-width:0.8;"/>
   </g>
   <g id="patch_24">
    <path clip-path="url(#pdb2f98842c)" d="M 94.889056 182.084992 
L 110.103431 182.084992 
L 110.103431 121.16753 
L 94.889056 121.16753 
z
" style="fill:#cc78bc;stroke:#ffffff;stroke-linejoin:miter;stroke-width:0.8;"/>
   </g>
   <g id="patch_25">
    <path clip-path="url(#pdb2f98842c)" d="M 110.103431 191.315878 
L 125.317805 191.315878 
L 125.317805 142.980655 
L 110.103431 142.980655 
z
" style="fill:#cc78bc;stroke:#ffffff;stroke-linejoin:miter;stroke-width:0.8;"/>
   </g>
   <g id="patch_26">
    <path clip-path="url(#pdb2f98842c)" d="M 125.317805 214.756364 
L 140.532179 214.756364 
L 140.532179 165.245607 
L 125.317805 165.245607 
z
" style="fill:#cc78bc;stroke:#ffffff;stroke-linejoin:miter;stroke-width:0.8;"/>
   </g>
   <g id="patch_27">
    <path clip-path="url(#pdb2f98842c)" d="M 140.532179 193.003032 
L 155.746554 193.003032 
L 155.746554 163.264691 
L 140.532179 163.264691 
z
" style="fill:#cc78bc;stroke:#ffffff;stroke-linejoin:miter;stroke-width:0.8;"/>
   </g>
   <g id="patch_28">
    <path clip-path="url(#pdb2f98842c)" d="M 155.746554 210.605601 
L 170.960928 210.605601 
L 170.960928 174.73668 
L 155.746554 174.73668 
z
" style="fill:#cc78bc;stroke:#ffffff;stroke-linejoin:miter;stroke-width:0.8;"/>
   </g>
   <g id="patch_29">
    <path clip-path="url(#pdb2f98842c)" d="M 170.960928 201.374715 
L 186.175303 201.374715 
L 186.175303 176.363527 
L 170.960928 176.363527 
z
" style="fill:#cc78bc;stroke:#ffffff;stroke-linejoin:miter;stroke-width:0.8;"/>
   </g>
   <g id="patch_30">
    <path clip-path="url(#pdb2f98842c)" d="M 186.175303 196.806213 
L 201.389677 196.806213 
L 201.389677 188.27588 
L 186.175303 188.27588 
z
" style="fill:#cc78bc;stroke:#ffffff;stroke-linejoin:miter;stroke-width:0.8;"/>
   </g>
   <g id="patch_31">
    <path clip-path="url(#pdb2f98842c)" d="M 201.389677 184.363509 
L 216.604052 184.363509 
L 216.604052 171.795024 
L 201.389677 171.795024 
z
" style="fill:#cc78bc;stroke:#ffffff;stroke-linejoin:miter;stroke-width:0.8;"/>
   </g>
   <g id="patch_32">
    <path clip-path="url(#pdb2f98842c)" d="M 216.604052 119.932699 
L 231.818426 119.932699 
L 231.818426 119.236432 
L 216.604052 119.236432 
z
" style="fill:#cc78bc;stroke:#ffffff;stroke-linejoin:miter;stroke-width:0.8;"/>
   </g>
   <g id="patch_33">
    <path clip-path="url(#pdb2f98842c)" d="M 231.818426 142.980655 
L 247.0328 142.980655 
L 247.0328 141.657767 
L 231.818426 141.657767 
z
" style="fill:#cc78bc;stroke:#ffffff;stroke-linejoin:miter;stroke-width:0.8;"/>
   </g>
   <g id="patch_34">
    <path clip-path="url(#pdb2f98842c)" d="M 247.0328 148.953683 
L 262.247175 148.953683 
L 262.247175 147.248467 
L 247.0328 147.248467 
z
" style="fill:#cc78bc;stroke:#ffffff;stroke-linejoin:miter;stroke-width:0.8;"/>
   </g>
   <g id="patch_35">
    <path clip-path="url(#pdb2f98842c)" d="M 262.247175 168.583206 
L 277.461549 168.583206 
L 277.461549 166.304689 
L 262.247175 166.304689 
z
" style="fill:#cc78bc;stroke:#ffffff;stroke-linejoin:miter;stroke-width:0.8;"/>
   </g>
   <g id="patch_36">
    <path clip-path="url(#pdb2f98842c)" d="M 277.461549 174.73668 
L 292.675924 174.73668 
L 292.675924 171.795024 
L 277.461549 171.795024 
z
" style="fill:#cc78bc;stroke:#ffffff;stroke-linejoin:miter;stroke-width:0.8;"/>
   </g>
   <g id="patch_37">
    <path clip-path="url(#pdb2f98842c)" d="M 292.675924 185.594412 
L 307.890298 185.594412 
L 307.890298 176.363527 
L 292.675924 176.363527 
z
" style="fill:#cc78bc;stroke:#ffffff;stroke-linejoin:miter;stroke-width:0.8;"/>
   </g>
   <g id="patch_38">
    <path clip-path="url(#pdb2f98842c)" d="M 307.890298 191.315878 
L 323.104672 191.315878 
L 323.104672 186.89569 
L 307.890298 186.89569 
z
" style="fill:#cc78bc;stroke:#ffffff;stroke-linejoin:miter;stroke-width:0.8;"/>
   </g>
   <g id="patch_39">
    <path clip-path="url(#pdb2f98842c)" d="M 323.104672 188.27588 
L 338.319047 188.27588 
L 338.319047 185.594412 
L 323.104672 185.594412 
z
" style="fill:#cc78bc;stroke:#ffffff;stroke-linejoin:miter;stroke-width:0.8;"/>
   </g>
   <g id="patch_40">
    <path clip-path="url(#pdb2f98842c)" d="M 338.319047 193.003032 
L 353.533421 193.003032 
L 353.533421 184.363509 
L 338.319047 184.363509 
z
" style="fill:#cc78bc;stroke:#ffffff;stroke-linejoin:miter;stroke-width:0.8;"/>
   </g>
   <g id="patch_41">
    <path clip-path="url(#pdb2f98842c)" d="M 353.533421 188.27588 
L 368.747796 188.27588 
L 368.747796 184.363509 
L 353.533421 184.363509 
z
" style="fill:#cc78bc;stroke:#ffffff;stroke-linejoin:miter;stroke-width:0.8;"/>
   </g>
   <g id="patch_42">
    <path clip-path="url(#pdb2f98842c)" d="M 368.747796 189.745175 
L 383.96217 189.745175 
L 383.96217 186.89569 
L 368.747796 186.89569 
z
" style="fill:#cc78bc;stroke:#ffffff;stroke-linejoin:miter;stroke-width:0.8;"/>
   </g>
   <g id="patch_43">
    <path d="M 64.4565 224.64 
L 64.4565 7.2 
" style="fill:none;stroke:#262626;stroke-linecap:square;stroke-linejoin:miter;"/>
   </g>
   <g id="patch_44">
    <path d="M 399.2565 224.64 
L 399.2565 7.2 
" style="fill:none;stroke:#262626;stroke-linecap:square;stroke-linejoin:miter;"/>
   </g>
   <g id="patch_45">
    <path d="M 64.4565 224.64 
L 399.2565 224.64 
" style="fill:none;stroke:#262626;stroke-linecap:square;stroke-linejoin:miter;"/>
   </g>
   <g id="patch_46">
    <path d="M 64.4565 7.2 
L 399.2565 7.2 
" style="fill:none;stroke:#262626;stroke-linecap:square;stroke-linejoin:miter;"/>
   </g>
  </g>
  <g id="axes_2">
   <g id="matplotlib.axis_3">
    <g id="ytick_37">
     <g id="line2d_51">
      <defs>
       <path d="M 0 0 
L 4.8 0 
" id="m8cf5205e95" style="stroke:#262626;"/>
      </defs>
      <g>
       <use style="fill:#262626;stroke:#262626;" x="399.2565" xlink:href="#m8cf5205e95" y="215.011313"/>
      </g>
     </g>
     <g id="text_12">
      <!-- 0.0 -->
      <g style="fill:#262626;" transform="translate(407.5565 220.026281)scale(0.132 -0.132)">
       <use xlink:href="#DejaVuSans-48"/>
       <use x="63.623047" xlink:href="#DejaVuSans-46"/>
       <use x="95.410156" xlink:href="#DejaVuSans-48"/>
      </g>
     </g>
    </g>
    <g id="ytick_38">
     <g id="line2d_52">
      <g>
       <use style="fill:#262626;stroke:#262626;" x="399.2565" xlink:href="#m8cf5205e95" y="175.425777"/>
      </g>
     </g>
     <g id="text_13">
      <!-- 0.2 -->
      <g style="fill:#262626;" transform="translate(407.5565 180.440746)scale(0.132 -0.132)">
       <use xlink:href="#DejaVuSans-48"/>
       <use x="63.623047" xlink:href="#DejaVuSans-46"/>
       <use x="95.410156" xlink:href="#DejaVuSans-50"/>
      </g>
     </g>
    </g>
    <g id="ytick_39">
     <g id="line2d_53">
      <g>
       <use style="fill:#262626;stroke:#262626;" x="399.2565" xlink:href="#m8cf5205e95" y="135.840242"/>
      </g>
     </g>
     <g id="text_14">
      <!-- 0.4 -->
      <g style="fill:#262626;" transform="translate(407.5565 140.855211)scale(0.132 -0.132)">
       <defs>
        <path d="M 37.796875 64.3125 
L 12.890625 25.390625 
L 37.796875 25.390625 
z
M 35.203125 72.90625 
L 47.609375 72.90625 
L 47.609375 25.390625 
L 58.015625 25.390625 
L 58.015625 17.1875 
L 47.609375 17.1875 
L 47.609375 0 
L 37.796875 0 
L 37.796875 17.1875 
L 4.890625 17.1875 
L 4.890625 26.703125 
z
" id="DejaVuSans-52"/>
       </defs>
       <use xlink:href="#DejaVuSans-48"/>
       <use x="63.623047" xlink:href="#DejaVuSans-46"/>
       <use x="95.410156" xlink:href="#DejaVuSans-52"/>
      </g>
     </g>
    </g>
    <g id="ytick_40">
     <g id="line2d_54">
      <g>
       <use style="fill:#262626;stroke:#262626;" x="399.2565" xlink:href="#m8cf5205e95" y="96.254707"/>
      </g>
     </g>
     <g id="text_15">
      <!-- 0.6 -->
      <g style="fill:#262626;" transform="translate(407.5565 101.269676)scale(0.132 -0.132)">
       <defs>
        <path d="M 33.015625 40.375 
Q 26.375 40.375 22.484375 35.828125 
Q 18.609375 31.296875 18.609375 23.390625 
Q 18.609375 15.53125 22.484375 10.953125 
Q 26.375 6.390625 33.015625 6.390625 
Q 39.65625 6.390625 43.53125 10.953125 
Q 47.40625 15.53125 47.40625 23.390625 
Q 47.40625 31.296875 43.53125 35.828125 
Q 39.65625 40.375 33.015625 40.375 
z
M 52.59375 71.296875 
L 52.59375 62.3125 
Q 48.875 64.0625 45.09375 64.984375 
Q 41.3125 65.921875 37.59375 65.921875 
Q 27.828125 65.921875 22.671875 59.328125 
Q 17.53125 52.734375 16.796875 39.40625 
Q 19.671875 43.65625 24.015625 45.921875 
Q 28.375 48.1875 33.59375 48.1875 
Q 44.578125 48.1875 50.953125 41.515625 
Q 57.328125 34.859375 57.328125 23.390625 
Q 57.328125 12.15625 50.6875 5.359375 
Q 44.046875 -1.421875 33.015625 -1.421875 
Q 20.359375 -1.421875 13.671875 8.265625 
Q 6.984375 17.96875 6.984375 36.375 
Q 6.984375 53.65625 15.1875 63.9375 
Q 23.390625 74.21875 37.203125 74.21875 
Q 40.921875 74.21875 44.703125 73.484375 
Q 48.484375 72.75 52.59375 71.296875 
z
" id="DejaVuSans-54"/>
       </defs>
       <use xlink:href="#DejaVuSans-48"/>
       <use x="63.623047" xlink:href="#DejaVuSans-46"/>
       <use x="95.410156" xlink:href="#DejaVuSans-54"/>
      </g>
     </g>
    </g>
    <g id="ytick_41">
     <g id="line2d_55">
      <g>
       <use style="fill:#262626;stroke:#262626;" x="399.2565" xlink:href="#m8cf5205e95" y="56.669172"/>
      </g>
     </g>
     <g id="text_16">
      <!-- 0.8 -->
      <g style="fill:#262626;" transform="translate(407.5565 61.68414)scale(0.132 -0.132)">
       <defs>
        <path d="M 31.78125 34.625 
Q 24.75 34.625 20.71875 30.859375 
Q 16.703125 27.09375 16.703125 20.515625 
Q 16.703125 13.921875 20.71875 10.15625 
Q 24.75 6.390625 31.78125 6.390625 
Q 38.8125 6.390625 42.859375 10.171875 
Q 46.921875 13.96875 46.921875 20.515625 
Q 46.921875 27.09375 42.890625 30.859375 
Q 38.875 34.625 31.78125 34.625 
z
M 21.921875 38.8125 
Q 15.578125 40.375 12.03125 44.71875 
Q 8.5 49.078125 8.5 55.328125 
Q 8.5 64.0625 14.71875 69.140625 
Q 20.953125 74.21875 31.78125 74.21875 
Q 42.671875 74.21875 48.875 69.140625 
Q 55.078125 64.0625 55.078125 55.328125 
Q 55.078125 49.078125 51.53125 44.71875 
Q 48 40.375 41.703125 38.8125 
Q 48.828125 37.15625 52.796875 32.3125 
Q 56.78125 27.484375 56.78125 20.515625 
Q 56.78125 9.90625 50.3125 4.234375 
Q 43.84375 -1.421875 31.78125 -1.421875 
Q 19.734375 -1.421875 13.25 4.234375 
Q 6.78125 9.90625 6.78125 20.515625 
Q 6.78125 27.484375 10.78125 32.3125 
Q 14.796875 37.15625 21.921875 38.8125 
z
M 18.3125 54.390625 
Q 18.3125 48.734375 21.84375 45.5625 
Q 25.390625 42.390625 31.78125 42.390625 
Q 38.140625 42.390625 41.71875 45.5625 
Q 45.3125 48.734375 45.3125 54.390625 
Q 45.3125 60.0625 41.71875 63.234375 
Q 38.140625 66.40625 31.78125 66.40625 
Q 25.390625 66.40625 21.84375 63.234375 
Q 18.3125 60.0625 18.3125 54.390625 
z
" id="DejaVuSans-56"/>
       </defs>
       <use xlink:href="#DejaVuSans-48"/>
       <use x="63.623047" xlink:href="#DejaVuSans-46"/>
       <use x="95.410156" xlink:href="#DejaVuSans-56"/>
      </g>
     </g>
    </g>
    <g id="ytick_42">
     <g id="line2d_56">
      <g>
       <use style="fill:#262626;stroke:#262626;" x="399.2565" xlink:href="#m8cf5205e95" y="17.083636"/>
      </g>
     </g>
     <g id="text_17">
      <!-- 1.0 -->
      <g style="fill:#262626;" transform="translate(407.5565 22.098605)scale(0.132 -0.132)">
       <use xlink:href="#DejaVuSans-49"/>
       <use x="63.623047" xlink:href="#DejaVuSans-46"/>
       <use x="95.410156" xlink:href="#DejaVuSans-48"/>
      </g>
     </g>
    </g>
    <g id="text_18">
     <!-- test -->
     <g style="fill:#262626;" transform="translate(443.490375 129.74625)rotate(-90)scale(0.144 -0.144)">
      <defs>
       <path d="M 44.28125 53.078125 
L 44.28125 44.578125 
Q 40.484375 46.53125 36.375 47.5 
Q 32.28125 48.484375 27.875 48.484375 
Q 21.1875 48.484375 17.84375 46.4375 
Q 14.5 44.390625 14.5 40.28125 
Q 14.5 37.15625 16.890625 35.375 
Q 19.28125 33.59375 26.515625 31.984375 
L 29.59375 31.296875 
Q 39.15625 29.25 43.1875 25.515625 
Q 47.21875 21.78125 47.21875 15.09375 
Q 47.21875 7.46875 41.1875 3.015625 
Q 35.15625 -1.421875 24.609375 -1.421875 
Q 20.21875 -1.421875 15.453125 -0.5625 
Q 10.6875 0.296875 5.421875 2 
L 5.421875 11.28125 
Q 10.40625 8.6875 15.234375 7.390625 
Q 20.0625 6.109375 24.8125 6.109375 
Q 31.15625 6.109375 34.5625 8.28125 
Q 37.984375 10.453125 37.984375 14.40625 
Q 37.984375 18.0625 35.515625 20.015625 
Q 33.0625 21.96875 24.703125 23.78125 
L 21.578125 24.515625 
Q 13.234375 26.265625 9.515625 29.90625 
Q 5.8125 33.546875 5.8125 39.890625 
Q 5.8125 47.609375 11.28125 51.796875 
Q 16.75 56 26.8125 56 
Q 31.78125 56 36.171875 55.265625 
Q 40.578125 54.546875 44.28125 53.078125 
z
" id="DejaVuSans-115"/>
      </defs>
      <use xlink:href="#DejaVuSans-116"/>
      <use x="39.208984" xlink:href="#DejaVuSans-101"/>
      <use x="100.732422" xlink:href="#DejaVuSans-115"/>
      <use x="152.832031" xlink:href="#DejaVuSans-116"/>
     </g>
    </g>
   </g>
   <g id="line2d_57">
    <path clip-path="url(#pdb2f98842c)" d="M 87.281869 214.756364 
L 102.496243 214.619521 
L 117.710618 214.528449 
L 132.924992 214.496134 
L 148.139367 210.074362 
L 163.353741 203.917855 
L 178.568116 200.016038 
L 193.78249 188.347204 
L 208.996864 173.953359 
L 224.211239 66.206404 
L 239.425613 57.759102 
L 254.639988 53.036862 
L 269.854362 51.595352 
L 285.068736 50.465567 
L 300.283111 51.595529 
L 315.497485 51.194401 
L 330.71186 50.72094 
L 345.926234 50.616498 
L 361.140609 50.646473 
L 376.354983 50.482534 
L 384.038318 50.482534 
" style="fill:none;stroke:#0173b2;stroke-linecap:round;stroke-width:1.2;"/>
    <defs>
     <path d="M -2.4 0 
L 2.4 0 
M 0 2.4 
L 0 -2.4 
" id="mc18c483b57" style="stroke:#0173b2;"/>
    </defs>
    <g clip-path="url(#pdb2f98842c)">
     <use style="fill:#0173b2;stroke:#0173b2;" x="87.281869" xlink:href="#mc18c483b57" y="214.756364"/>
     <use style="fill:#0173b2;stroke:#0173b2;" x="102.496243" xlink:href="#mc18c483b57" y="214.619521"/>
     <use style="fill:#0173b2;stroke:#0173b2;" x="117.710618" xlink:href="#mc18c483b57" y="214.528449"/>
     <use style="fill:#0173b2;stroke:#0173b2;" x="132.924992" xlink:href="#mc18c483b57" y="214.496134"/>
     <use style="fill:#0173b2;stroke:#0173b2;" x="148.139367" xlink:href="#mc18c483b57" y="210.074362"/>
     <use style="fill:#0173b2;stroke:#0173b2;" x="163.353741" xlink:href="#mc18c483b57" y="203.917855"/>
     <use style="fill:#0173b2;stroke:#0173b2;" x="178.568116" xlink:href="#mc18c483b57" y="200.016038"/>
     <use style="fill:#0173b2;stroke:#0173b2;" x="193.78249" xlink:href="#mc18c483b57" y="188.347204"/>
     <use style="fill:#0173b2;stroke:#0173b2;" x="208.996864" xlink:href="#mc18c483b57" y="173.953359"/>
     <use style="fill:#0173b2;stroke:#0173b2;" x="224.211239" xlink:href="#mc18c483b57" y="66.206404"/>
     <use style="fill:#0173b2;stroke:#0173b2;" x="239.425613" xlink:href="#mc18c483b57" y="57.759102"/>
     <use style="fill:#0173b2;stroke:#0173b2;" x="254.639988" xlink:href="#mc18c483b57" y="53.036862"/>
     <use style="fill:#0173b2;stroke:#0173b2;" x="269.854362" xlink:href="#mc18c483b57" y="51.595352"/>
     <use style="fill:#0173b2;stroke:#0173b2;" x="285.068736" xlink:href="#mc18c483b57" y="50.465567"/>
     <use style="fill:#0173b2;stroke:#0173b2;" x="300.283111" xlink:href="#mc18c483b57" y="51.595529"/>
     <use style="fill:#0173b2;stroke:#0173b2;" x="315.497485" xlink:href="#mc18c483b57" y="51.194401"/>
     <use style="fill:#0173b2;stroke:#0173b2;" x="330.71186" xlink:href="#mc18c483b57" y="50.72094"/>
     <use style="fill:#0173b2;stroke:#0173b2;" x="345.926234" xlink:href="#mc18c483b57" y="50.616498"/>
     <use style="fill:#0173b2;stroke:#0173b2;" x="361.140609" xlink:href="#mc18c483b57" y="50.646473"/>
     <use style="fill:#0173b2;stroke:#0173b2;" x="376.354983" xlink:href="#mc18c483b57" y="50.482534"/>
     <use style="fill:#0173b2;stroke:#0173b2;" x="384.038318" xlink:href="#mc18c483b57" y="50.482534"/>
    </g>
   </g>
   <g id="line2d_58">
    <path clip-path="url(#pdb2f98842c)" d="M 87.281869 214.169835 
L 102.496243 213.547073 
L 117.710618 212.891822 
L 132.924992 213.005367 
L 148.139367 213.160303 
L 163.353741 213.226344 
L 178.568116 212.943365 
L 193.78249 212.843159 
L 208.996864 212.933588 
L 224.211239 211.721595 
L 239.425613 210.959667 
L 254.639988 210.388275 
L 269.854362 210.034765 
L 285.068736 209.843398 
L 300.283111 209.746728 
L 315.497485 209.635593 
L 330.71186 209.550796 
L 345.926234 209.484526 
L 361.140609 209.327119 
L 376.354983 209.248261 
L 384.038318 209.248261 
" style="fill:none;stroke:#de8f05;stroke-linecap:round;stroke-width:1.2;"/>
    <defs>
     <path d="M -2.4 0 
L 2.4 0 
M 0 2.4 
L 0 -2.4 
" id="m77510f0d73" style="stroke:#de8f05;"/>
    </defs>
    <g clip-path="url(#pdb2f98842c)">
     <use style="fill:#de8f05;stroke:#de8f05;" x="87.281869" xlink:href="#m77510f0d73" y="214.169835"/>
     <use style="fill:#de8f05;stroke:#de8f05;" x="102.496243" xlink:href="#m77510f0d73" y="213.547073"/>
     <use style="fill:#de8f05;stroke:#de8f05;" x="117.710618" xlink:href="#m77510f0d73" y="212.891822"/>
     <use style="fill:#de8f05;stroke:#de8f05;" x="132.924992" xlink:href="#m77510f0d73" y="213.005367"/>
     <use style="fill:#de8f05;stroke:#de8f05;" x="148.139367" xlink:href="#m77510f0d73" y="213.160303"/>
     <use style="fill:#de8f05;stroke:#de8f05;" x="163.353741" xlink:href="#m77510f0d73" y="213.226344"/>
     <use style="fill:#de8f05;stroke:#de8f05;" x="178.568116" xlink:href="#m77510f0d73" y="212.943365"/>
     <use style="fill:#de8f05;stroke:#de8f05;" x="193.78249" xlink:href="#m77510f0d73" y="212.843159"/>
     <use style="fill:#de8f05;stroke:#de8f05;" x="208.996864" xlink:href="#m77510f0d73" y="212.933588"/>
     <use style="fill:#de8f05;stroke:#de8f05;" x="224.211239" xlink:href="#m77510f0d73" y="211.721595"/>
     <use style="fill:#de8f05;stroke:#de8f05;" x="239.425613" xlink:href="#m77510f0d73" y="210.959667"/>
     <use style="fill:#de8f05;stroke:#de8f05;" x="254.639988" xlink:href="#m77510f0d73" y="210.388275"/>
     <use style="fill:#de8f05;stroke:#de8f05;" x="269.854362" xlink:href="#m77510f0d73" y="210.034765"/>
     <use style="fill:#de8f05;stroke:#de8f05;" x="285.068736" xlink:href="#m77510f0d73" y="209.843398"/>
     <use style="fill:#de8f05;stroke:#de8f05;" x="300.283111" xlink:href="#m77510f0d73" y="209.746728"/>
     <use style="fill:#de8f05;stroke:#de8f05;" x="315.497485" xlink:href="#m77510f0d73" y="209.635593"/>
     <use style="fill:#de8f05;stroke:#de8f05;" x="330.71186" xlink:href="#m77510f0d73" y="209.550796"/>
     <use style="fill:#de8f05;stroke:#de8f05;" x="345.926234" xlink:href="#m77510f0d73" y="209.484526"/>
     <use style="fill:#de8f05;stroke:#de8f05;" x="361.140609" xlink:href="#m77510f0d73" y="209.327119"/>
     <use style="fill:#de8f05;stroke:#de8f05;" x="376.354983" xlink:href="#m77510f0d73" y="209.248261"/>
     <use style="fill:#de8f05;stroke:#de8f05;" x="384.038318" xlink:href="#m77510f0d73" y="209.248261"/>
    </g>
   </g>
   <g id="line2d_59">
    <path clip-path="url(#pdb2f98842c)" d="M 87.281869 214.756364 
L 102.496243 201.383505 
L 117.710618 191.327659 
L 132.924992 192.519531 
L 148.139367 139.202475 
L 163.353741 95.799701 
L 178.568116 119.712802 
L 193.78249 64.22987 
L 208.996864 79.198591 
L 224.211239 19.512197 
L 239.425613 23.720335 
L 254.639988 23.4684 
L 269.854362 26.98002 
L 285.068736 23.681226 
L 300.283111 75.270708 
L 315.497485 30.278815 
L 330.71186 28.726441 
L 345.926234 43.473993 
L 361.140609 32.535885 
L 376.354983 31.978704 
L 384.038318 17.083636 
" style="fill:none;stroke:#0173b2;stroke-linecap:round;stroke-width:1.2;"/>
    <defs>
     <path d="M 0 2.4 
C 0.636487 2.4 1.246992 2.147121 1.697056 1.697056 
C 2.147121 1.246992 2.4 0.636487 2.4 0 
C 2.4 -0.636487 2.147121 -1.246992 1.697056 -1.697056 
C 1.246992 -2.147121 0.636487 -2.4 0 -2.4 
C -0.636487 -2.4 -1.246992 -2.147121 -1.697056 -1.697056 
C -2.147121 -1.246992 -2.4 -0.636487 -2.4 0 
C -2.4 0.636487 -2.147121 1.246992 -1.697056 1.697056 
C -1.246992 2.147121 -0.636487 2.4 0 2.4 
z
" id="mb00996ee82" style="stroke:#0173b2;"/>
    </defs>
    <g clip-path="url(#pdb2f98842c)">
     <use style="fill:#ffffff;stroke:#0173b2;" x="87.281869" xlink:href="#mb00996ee82" y="214.756364"/>
     <use style="fill:#ffffff;stroke:#0173b2;" x="102.496243" xlink:href="#mb00996ee82" y="201.383505"/>
     <use style="fill:#ffffff;stroke:#0173b2;" x="117.710618" xlink:href="#mb00996ee82" y="191.327659"/>
     <use style="fill:#ffffff;stroke:#0173b2;" x="132.924992" xlink:href="#mb00996ee82" y="192.519531"/>
     <use style="fill:#ffffff;stroke:#0173b2;" x="148.139367" xlink:href="#mb00996ee82" y="139.202475"/>
     <use style="fill:#ffffff;stroke:#0173b2;" x="163.353741" xlink:href="#mb00996ee82" y="95.799701"/>
     <use style="fill:#ffffff;stroke:#0173b2;" x="178.568116" xlink:href="#mb00996ee82" y="119.712802"/>
     <use style="fill:#ffffff;stroke:#0173b2;" x="193.78249" xlink:href="#mb00996ee82" y="64.22987"/>
     <use style="fill:#ffffff;stroke:#0173b2;" x="208.996864" xlink:href="#mb00996ee82" y="79.198591"/>
     <use style="fill:#ffffff;stroke:#0173b2;" x="224.211239" xlink:href="#mb00996ee82" y="19.512197"/>
     <use style="fill:#ffffff;stroke:#0173b2;" x="239.425613" xlink:href="#mb00996ee82" y="23.720335"/>
     <use style="fill:#ffffff;stroke:#0173b2;" x="254.639988" xlink:href="#mb00996ee82" y="23.4684"/>
     <use style="fill:#ffffff;stroke:#0173b2;" x="269.854362" xlink:href="#mb00996ee82" y="26.98002"/>
     <use style="fill:#ffffff;stroke:#0173b2;" x="285.068736" xlink:href="#mb00996ee82" y="23.681226"/>
     <use style="fill:#ffffff;stroke:#0173b2;" x="300.283111" xlink:href="#mb00996ee82" y="75.270708"/>
     <use style="fill:#ffffff;stroke:#0173b2;" x="315.497485" xlink:href="#mb00996ee82" y="30.278815"/>
     <use style="fill:#ffffff;stroke:#0173b2;" x="330.71186" xlink:href="#mb00996ee82" y="28.726441"/>
     <use style="fill:#ffffff;stroke:#0173b2;" x="345.926234" xlink:href="#mb00996ee82" y="43.473993"/>
     <use style="fill:#ffffff;stroke:#0173b2;" x="361.140609" xlink:href="#mb00996ee82" y="32.535885"/>
     <use style="fill:#ffffff;stroke:#0173b2;" x="376.354983" xlink:href="#mb00996ee82" y="31.978704"/>
     <use style="fill:#ffffff;stroke:#0173b2;" x="384.038318" xlink:href="#mb00996ee82" y="17.083636"/>
    </g>
   </g>
   <g id="line2d_60">
    <path clip-path="url(#pdb2f98842c)" d="M 87.281869 214.169835 
L 102.496243 198.952544 
L 117.710618 189.3943 
L 132.924992 192.519531 
L 148.139367 161.4059 
L 163.353741 174.060759 
L 178.568116 149.035421 
L 193.78249 82.309802 
L 208.996864 101.052954 
L 224.211239 23.539034 
L 239.425613 30.000505 
L 254.639988 33.248864 
L 269.854362 40.894485 
L 285.068736 44.797647 
L 300.283111 83.059528 
L 315.497485 56.586009 
L 330.71186 39.0756 
L 345.926234 79.587113 
L 361.140609 52.675894 
L 376.354983 41.824596 
L 384.038318 17.083636 
" style="fill:none;stroke:#de8f05;stroke-linecap:round;stroke-width:1.2;"/>
    <defs>
     <path d="M 0 2.4 
C 0.636487 2.4 1.246992 2.147121 1.697056 1.697056 
C 2.147121 1.246992 2.4 0.636487 2.4 0 
C 2.4 -0.636487 2.147121 -1.246992 1.697056 -1.697056 
C 1.246992 -2.147121 0.636487 -2.4 0 -2.4 
C -0.636487 -2.4 -1.246992 -2.147121 -1.697056 -1.697056 
C -2.147121 -1.246992 -2.4 -0.636487 -2.4 0 
C -2.4 0.636487 -2.147121 1.246992 -1.697056 1.697056 
C -1.246992 2.147121 -0.636487 2.4 0 2.4 
z
" id="mc3796918b0" style="stroke:#de8f05;"/>
    </defs>
    <g clip-path="url(#pdb2f98842c)">
     <use style="fill:#ffffff;stroke:#de8f05;" x="87.281869" xlink:href="#mc3796918b0" y="214.169835"/>
     <use style="fill:#ffffff;stroke:#de8f05;" x="102.496243" xlink:href="#mc3796918b0" y="198.952544"/>
     <use style="fill:#ffffff;stroke:#de8f05;" x="117.710618" xlink:href="#mc3796918b0" y="189.3943"/>
     <use style="fill:#ffffff;stroke:#de8f05;" x="132.924992" xlink:href="#mc3796918b0" y="192.519531"/>
     <use style="fill:#ffffff;stroke:#de8f05;" x="148.139367" xlink:href="#mc3796918b0" y="161.4059"/>
     <use style="fill:#ffffff;stroke:#de8f05;" x="163.353741" xlink:href="#mc3796918b0" y="174.060759"/>
     <use style="fill:#ffffff;stroke:#de8f05;" x="178.568116" xlink:href="#mc3796918b0" y="149.035421"/>
     <use style="fill:#ffffff;stroke:#de8f05;" x="193.78249" xlink:href="#mc3796918b0" y="82.309802"/>
     <use style="fill:#ffffff;stroke:#de8f05;" x="208.996864" xlink:href="#mc3796918b0" y="101.052954"/>
     <use style="fill:#ffffff;stroke:#de8f05;" x="224.211239" xlink:href="#mc3796918b0" y="23.539034"/>
     <use style="fill:#ffffff;stroke:#de8f05;" x="239.425613" xlink:href="#mc3796918b0" y="30.000505"/>
     <use style="fill:#ffffff;stroke:#de8f05;" x="254.639988" xlink:href="#mc3796918b0" y="33.248864"/>
     <use style="fill:#ffffff;stroke:#de8f05;" x="269.854362" xlink:href="#mc3796918b0" y="40.894485"/>
     <use style="fill:#ffffff;stroke:#de8f05;" x="285.068736" xlink:href="#mc3796918b0" y="44.797647"/>
     <use style="fill:#ffffff;stroke:#de8f05;" x="300.283111" xlink:href="#mc3796918b0" y="83.059528"/>
     <use style="fill:#ffffff;stroke:#de8f05;" x="315.497485" xlink:href="#mc3796918b0" y="56.586009"/>
     <use style="fill:#ffffff;stroke:#de8f05;" x="330.71186" xlink:href="#mc3796918b0" y="39.0756"/>
     <use style="fill:#ffffff;stroke:#de8f05;" x="345.926234" xlink:href="#mc3796918b0" y="79.587113"/>
     <use style="fill:#ffffff;stroke:#de8f05;" x="361.140609" xlink:href="#mc3796918b0" y="52.675894"/>
     <use style="fill:#ffffff;stroke:#de8f05;" x="376.354983" xlink:href="#mc3796918b0" y="41.824596"/>
     <use style="fill:#ffffff;stroke:#de8f05;" x="384.038318" xlink:href="#mc3796918b0" y="17.083636"/>
    </g>
   </g>
   <g id="patch_47">
    <path d="M 64.4565 224.64 
L 64.4565 7.2 
" style="fill:none;stroke:#262626;stroke-linecap:square;stroke-linejoin:miter;"/>
   </g>
   <g id="patch_48">
    <path d="M 399.2565 224.64 
L 399.2565 7.2 
" style="fill:none;stroke:#262626;stroke-linecap:square;stroke-linejoin:miter;"/>
   </g>
   <g id="patch_49">
    <path d="M 64.4565 224.64 
L 399.2565 224.64 
" style="fill:none;stroke:#262626;stroke-linecap:square;stroke-linejoin:miter;"/>
   </g>
   <g id="patch_50">
    <path d="M 64.4565 7.2 
L 399.2565 7.2 
" style="fill:none;stroke:#262626;stroke-linecap:square;stroke-linejoin:miter;"/>
   </g>
   <g id="legend_1">
    <g id="patch_51">
     <path d="M 475.4565 176.025375 
L 672.421125 176.025375 
Q 675.061125 176.025375 675.061125 173.385375 
L 675.061125 58.454625 
Q 675.061125 55.814625 672.421125 55.814625 
L 475.4565 55.814625 
Q 472.8165 55.814625 472.8165 58.454625 
L 472.8165 173.385375 
Q 472.8165 176.025375 475.4565 176.025375 
z
" style="fill:#ffffff;opacity:0.8;stroke:#cccccc;stroke-linejoin:miter;stroke-width:0.8;"/>
    </g>
    <g id="patch_52">
     <path d="M 478.0965 71.124562 
L 504.4965 71.124562 
L 504.4965 61.884562 
L 478.0965 61.884562 
z
" style="fill:#cc78bc;stroke:#cc78bc;stroke-linejoin:miter;stroke-width:0.8;"/>
    </g>
    <g id="text_19">
     <!-- absent -->
     <g style="fill:#262626;" transform="translate(515.0565 71.124562)scale(0.132 -0.132)">
      <use xlink:href="#DejaVuSans-97"/>
      <use x="61.279297" xlink:href="#DejaVuSans-98"/>
      <use x="124.755859" xlink:href="#DejaVuSans-115"/>
      <use x="176.855469" xlink:href="#DejaVuSans-101"/>
      <use x="238.378906" xlink:href="#DejaVuSans-110"/>
      <use x="301.757812" xlink:href="#DejaVuSans-116"/>
     </g>
    </g>
    <g id="patch_53">
     <path d="M 478.0965 90.499687 
L 504.4965 90.499687 
L 504.4965 81.259687 
L 478.0965 81.259687 
z
" style="fill:#029e73;stroke:#029e73;stroke-linejoin:miter;stroke-width:0.8;"/>
    </g>
    <g id="text_20">
     <!-- present -->
     <g style="fill:#262626;" transform="translate(515.0565 90.499687)scale(0.132 -0.132)">
      <use xlink:href="#DejaVuSans-112"/>
      <use x="63.476562" xlink:href="#DejaVuSans-114"/>
      <use x="102.339844" xlink:href="#DejaVuSans-101"/>
      <use x="163.863281" xlink:href="#DejaVuSans-115"/>
      <use x="215.962891" xlink:href="#DejaVuSans-101"/>
      <use x="277.486328" xlink:href="#DejaVuSans-110"/>
      <use x="340.865234" xlink:href="#DejaVuSans-116"/>
     </g>
    </g>
    <g id="line2d_61">
     <path d="M 478.0965 105.254812 
L 504.4965 105.254812 
" style="fill:none;stroke:#0173b2;stroke-linecap:round;stroke-width:1.2;"/>
    </g>
    <g id="line2d_62">
     <g>
      <use style="fill:#0173b2;stroke:#0173b2;" x="491.2965" xlink:href="#mc18c483b57" y="105.254812"/>
     </g>
    </g>
    <g id="text_21">
     <!-- cumulative AP -->
     <g style="fill:#262626;" transform="translate(515.0565 109.874812)scale(0.132 -0.132)">
      <defs>
       <path d="M 52 44.1875 
Q 55.375 50.25 60.0625 53.125 
Q 64.75 56 71.09375 56 
Q 79.640625 56 84.28125 50.015625 
Q 88.921875 44.046875 88.921875 33.015625 
L 88.921875 0 
L 79.890625 0 
L 79.890625 32.71875 
Q 79.890625 40.578125 77.09375 44.375 
Q 74.3125 48.1875 68.609375 48.1875 
Q 61.625 48.1875 57.5625 43.546875 
Q 53.515625 38.921875 53.515625 30.90625 
L 53.515625 0 
L 44.484375 0 
L 44.484375 32.71875 
Q 44.484375 40.625 41.703125 44.40625 
Q 38.921875 48.1875 33.109375 48.1875 
Q 26.21875 48.1875 22.15625 43.53125 
Q 18.109375 38.875 18.109375 30.90625 
L 18.109375 0 
L 9.078125 0 
L 9.078125 54.6875 
L 18.109375 54.6875 
L 18.109375 46.1875 
Q 21.1875 51.21875 25.484375 53.609375 
Q 29.78125 56 35.6875 56 
Q 41.65625 56 45.828125 52.96875 
Q 50 49.953125 52 44.1875 
z
" id="DejaVuSans-109"/>
       <path d="M 9.421875 75.984375 
L 18.40625 75.984375 
L 18.40625 0 
L 9.421875 0 
z
" id="DejaVuSans-108"/>
       <path id="DejaVuSans-32"/>
       <path d="M 34.1875 63.1875 
L 20.796875 26.90625 
L 47.609375 26.90625 
z
M 28.609375 72.90625 
L 39.796875 72.90625 
L 67.578125 0 
L 57.328125 0 
L 50.6875 18.703125 
L 17.828125 18.703125 
L 11.1875 0 
L 0.78125 0 
z
" id="DejaVuSans-65"/>
       <path d="M 19.671875 64.796875 
L 19.671875 37.40625 
L 32.078125 37.40625 
Q 38.96875 37.40625 42.71875 40.96875 
Q 46.484375 44.53125 46.484375 51.125 
Q 46.484375 57.671875 42.71875 61.234375 
Q 38.96875 64.796875 32.078125 64.796875 
z
M 9.8125 72.90625 
L 32.078125 72.90625 
Q 44.34375 72.90625 50.609375 67.359375 
Q 56.890625 61.8125 56.890625 51.125 
Q 56.890625 40.328125 50.609375 34.8125 
Q 44.34375 29.296875 32.078125 29.296875 
L 19.671875 29.296875 
L 19.671875 0 
L 9.8125 0 
z
" id="DejaVuSans-80"/>
      </defs>
      <use xlink:href="#DejaVuSans-99"/>
      <use x="54.980469" xlink:href="#DejaVuSans-117"/>
      <use x="118.359375" xlink:href="#DejaVuSans-109"/>
      <use x="215.771484" xlink:href="#DejaVuSans-117"/>
      <use x="279.150391" xlink:href="#DejaVuSans-108"/>
      <use x="306.933594" xlink:href="#DejaVuSans-97"/>
      <use x="368.212891" xlink:href="#DejaVuSans-116"/>
      <use x="407.421875" xlink:href="#DejaVuSans-105"/>
      <use x="435.205078" xlink:href="#DejaVuSans-118"/>
      <use x="494.384766" xlink:href="#DejaVuSans-101"/>
      <use x="555.908203" xlink:href="#DejaVuSans-32"/>
      <use x="587.695312" xlink:href="#DejaVuSans-65"/>
      <use x="656.103516" xlink:href="#DejaVuSans-80"/>
     </g>
    </g>
    <g id="line2d_63">
     <path d="M 478.0965 124.629937 
L 504.4965 124.629937 
" style="fill:none;stroke:#0173b2;stroke-linecap:round;stroke-width:1.2;"/>
    </g>
    <g id="line2d_64">
     <g>
      <use style="fill:#ffffff;stroke:#0173b2;" x="491.2965" xlink:href="#mb00996ee82" y="124.629937"/>
     </g>
    </g>
    <g id="text_22">
     <!-- AP -->
     <g style="fill:#262626;" transform="translate(515.0565 129.249937)scale(0.132 -0.132)">
      <use xlink:href="#DejaVuSans-65"/>
      <use x="68.408203" xlink:href="#DejaVuSans-80"/>
     </g>
    </g>
    <g id="line2d_65">
     <path d="M 478.0965 144.005062 
L 504.4965 144.005062 
" style="fill:none;stroke:#de8f05;stroke-linecap:round;stroke-width:1.2;"/>
    </g>
    <g id="line2d_66">
     <g>
      <use style="fill:#de8f05;stroke:#de8f05;" x="491.2965" xlink:href="#m77510f0d73" y="144.005062"/>
     </g>
    </g>
    <g id="text_23">
     <!-- cumulative Baseline AP -->
     <g style="fill:#262626;" transform="translate(515.0565 148.625062)scale(0.132 -0.132)">
      <defs>
       <path d="M 19.671875 34.8125 
L 19.671875 8.109375 
L 35.5 8.109375 
Q 43.453125 8.109375 47.28125 11.40625 
Q 51.125 14.703125 51.125 21.484375 
Q 51.125 28.328125 47.28125 31.5625 
Q 43.453125 34.8125 35.5 34.8125 
z
M 19.671875 64.796875 
L 19.671875 42.828125 
L 34.28125 42.828125 
Q 41.5 42.828125 45.03125 45.53125 
Q 48.578125 48.25 48.578125 53.8125 
Q 48.578125 59.328125 45.03125 62.0625 
Q 41.5 64.796875 34.28125 64.796875 
z
M 9.8125 72.90625 
L 35.015625 72.90625 
Q 46.296875 72.90625 52.390625 68.21875 
Q 58.5 63.53125 58.5 54.890625 
Q 58.5 48.1875 55.375 44.234375 
Q 52.25 40.28125 46.1875 39.3125 
Q 53.46875 37.75 57.5 32.78125 
Q 61.53125 27.828125 61.53125 20.40625 
Q 61.53125 10.640625 54.890625 5.3125 
Q 48.25 0 35.984375 0 
L 9.8125 0 
z
" id="DejaVuSans-66"/>
      </defs>
      <use xlink:href="#DejaVuSans-99"/>
      <use x="54.980469" xlink:href="#DejaVuSans-117"/>
      <use x="118.359375" xlink:href="#DejaVuSans-109"/>
      <use x="215.771484" xlink:href="#DejaVuSans-117"/>
      <use x="279.150391" xlink:href="#DejaVuSans-108"/>
      <use x="306.933594" xlink:href="#DejaVuSans-97"/>
      <use x="368.212891" xlink:href="#DejaVuSans-116"/>
      <use x="407.421875" xlink:href="#DejaVuSans-105"/>
      <use x="435.205078" xlink:href="#DejaVuSans-118"/>
      <use x="494.384766" xlink:href="#DejaVuSans-101"/>
      <use x="555.908203" xlink:href="#DejaVuSans-32"/>
      <use x="587.695312" xlink:href="#DejaVuSans-66"/>
      <use x="656.298828" xlink:href="#DejaVuSans-97"/>
      <use x="717.578125" xlink:href="#DejaVuSans-115"/>
      <use x="769.677734" xlink:href="#DejaVuSans-101"/>
      <use x="831.201172" xlink:href="#DejaVuSans-108"/>
      <use x="858.984375" xlink:href="#DejaVuSans-105"/>
      <use x="886.767578" xlink:href="#DejaVuSans-110"/>
      <use x="950.146484" xlink:href="#DejaVuSans-101"/>
      <use x="1011.669922" xlink:href="#DejaVuSans-32"/>
      <use x="1043.457031" xlink:href="#DejaVuSans-65"/>
      <use x="1111.865234" xlink:href="#DejaVuSans-80"/>
     </g>
    </g>
    <g id="line2d_67">
     <path d="M 478.0965 163.380187 
L 504.4965 163.380187 
" style="fill:none;stroke:#de8f05;stroke-linecap:round;stroke-width:1.2;"/>
    </g>
    <g id="line2d_68">
     <g>
      <use style="fill:#ffffff;stroke:#de8f05;" x="491.2965" xlink:href="#mc3796918b0" y="163.380187"/>
     </g>
    </g>
    <g id="text_24">
     <!-- Baseline AP -->
     <g style="fill:#262626;" transform="translate(515.0565 168.000187)scale(0.132 -0.132)">
      <use xlink:href="#DejaVuSans-66"/>
      <use x="68.603516" xlink:href="#DejaVuSans-97"/>
      <use x="129.882812" xlink:href="#DejaVuSans-115"/>
      <use x="181.982422" xlink:href="#DejaVuSans-101"/>
      <use x="243.505859" xlink:href="#DejaVuSans-108"/>
      <use x="271.289062" xlink:href="#DejaVuSans-105"/>
      <use x="299.072266" xlink:href="#DejaVuSans-110"/>
      <use x="362.451172" xlink:href="#DejaVuSans-101"/>
      <use x="423.974609" xlink:href="#DejaVuSans-32"/>
      <use x="455.761719" xlink:href="#DejaVuSans-65"/>
      <use x="524.169922" xlink:href="#DejaVuSans-80"/>
     </g>
    </g>
   </g>
  </g>
 </g>
 <defs>
  <clipPath id="pdb2f98842c">
   <rect height="217.44" width="334.8" x="64.4565" y="7.2"/>
  </clipPath>
 </defs>
</svg>
