<?xml version="1.0" encoding="utf-8" standalone="no"?>
<!DOCTYPE svg PUBLIC "-//W3C//DTD SVG 1.1//EN"
  "http://www.w3.org/Graphics/SVG/1.1/DTD/svg11.dtd">
<!-- Created with matplotlib (https://matplotlib.org/) -->
<svg height="266.760567pt" version="1.1" viewBox="0 0 682.853856 266.760567" width="682.853856pt" xmlns="http://www.w3.org/2000/svg" xmlns:xlink="http://www.w3.org/1999/xlink">
 <metadata>
  <rdf:RDF xmlns:cc="http://creativecommons.org/ns#" xmlns:dc="http://purl.org/dc/elements/1.1/" xmlns:rdf="http://www.w3.org/1999/02/22-rdf-syntax-ns#">
   <cc:Work>
    <dc:type rdf:resource="http://purl.org/dc/dcmitype/StillImage"/>
    <dc:date>2021-05-31T21:56:18.489942</dc:date>
    <dc:format>image/svg+xml</dc:format>
    <dc:creator>
     <cc:Agent>
      <dc:title>Matplotlib v3.3.4, https://matplotlib.org/</dc:title>
     </cc:Agent>
    </dc:creator>
   </cc:Work>
  </rdf:RDF>
 </metadata>
 <defs>
  <style type="text/css">*{stroke-linecap:butt;stroke-linejoin:round;}</style>
 </defs>
 <g id="figure_1">
  <g id="patch_1">
   <path d="M 0 266.760567 
L 682.853856 266.760567 
L 682.853856 0 
L 0 0 
z
" style="fill:#ffffff;"/>
  </g>
  <g id="axes_1">
   <g id="patch_2">
    <path d="M 60.299541 211.22493 
L 401.29285 211.22493 
L 401.29285 23.162625 
L 60.299541 23.162625 
z
" style="fill:#ffffff;"/>
   </g>
   <g id="matplotlib.axis_1">
    <g id="xtick_1">
     <g id="line2d_1">
      <defs>
       <path d="M 0 0 
L 0 4.8 
" id="m48bd89ec85" style="stroke:#262626;"/>
      </defs>
      <g>
       <use style="fill:#262626;stroke:#262626;" x="75.799237" xlink:href="#m48bd89ec85" y="221.22493"/>
      </g>
     </g>
     <g id="text_1">
      <!-- $\mathdefault{0.0}$ -->
      <g style="fill:#262626;" transform="translate(67.572557 238.657325)scale(0.132 -0.132)">
       <defs>
        <path d="M 42 31.84375 
C 42 37.96875 41.90625 48.421875 37.703125 56.453125 
C 34 63.484375 28.09375 66 22.90625 66 
C 18.09375 66 12 63.78125 8.203125 56.5625 
C 4.203125 49.015625 3.796875 39.671875 3.796875 31.84375 
C 3.796875 26.109375 3.90625 17.375 7 9.734375 
C 11.296875 -0.609375 19 -2 22.90625 -2 
C 27.5 -2 34.5 -0.109375 38.59375 9.4375 
C 41.59375 16.375 42 24.5 42 31.84375 
z
M 22.90625 -0.40625 
C 16.5 -0.40625 12.703125 5.125 11.296875 12.75 
C 10.203125 18.6875 10.203125 27.328125 10.203125 32.953125 
C 10.203125 40.6875 10.203125 47.109375 11.5 53.234375 
C 13.40625 61.78125 19 64.390625 22.90625 64.390625 
C 27 64.390625 32.296875 61.671875 34.203125 53.4375 
C 35.5 47.71875 35.59375 40.984375 35.59375 32.953125 
C 35.59375 26.421875 35.59375 18.375 34.40625 12.453125 
C 32.296875 1.5 26.40625 -0.40625 22.90625 -0.40625 
z
" id="CMR17-48"/>
        <path d="M 18.40625 4.796875 
C 18.40625 7.6875 16 9.6875 13.59375 9.6875 
C 10.703125 9.6875 8.703125 7.296875 8.703125 4.890625 
C 8.703125 2 11.09375 0 13.5 0 
C 16.40625 0 18.40625 2.390625 18.40625 4.796875 
z
" id="CMMI12-58"/>
       </defs>
       <use transform="scale(0.996264)" xlink:href="#CMR17-48"/>
       <use transform="translate(45.690477 0)scale(0.996264)" xlink:href="#CMMI12-58"/>
       <use transform="translate(72.787654 0)scale(0.996264)" xlink:href="#CMR17-48"/>
      </g>
     </g>
    </g>
    <g id="xtick_2">
     <g id="line2d_2">
      <g>
       <use style="fill:#262626;stroke:#262626;" x="137.79802" xlink:href="#m48bd89ec85" y="221.22493"/>
      </g>
     </g>
     <g id="text_2">
      <!-- $\mathdefault{0.2}$ -->
      <g style="fill:#262626;" transform="translate(129.57134 238.657325)scale(0.132 -0.132)">
       <defs>
        <path d="M 41.703125 15.46875 
L 39.90625 15.46875 
C 38.90625 8.390625 38.09375 7.1875 37.703125 6.59375 
C 37.203125 5.796875 30 5.796875 28.59375 5.796875 
L 9.40625 5.796875 
C 13 9.6875 20 16.765625 28.5 24.9375 
C 34.59375 30.71875 41.703125 37.5 41.703125 47.390625 
C 41.703125 59.1875 32.296875 66 21.796875 66 
C 10.796875 66 4.09375 56.296875 4.09375 47.296875 
C 4.09375 43.390625 7 42.890625 8.203125 42.890625 
C 9.203125 42.890625 12.203125 43.484375 12.203125 46.984375 
C 12.203125 50.09375 9.59375 51 8.203125 51 
C 7.59375 51 7 50.890625 6.59375 50.6875 
C 8.5 59.1875 14.296875 63.390625 20.40625 63.390625 
C 29.09375 63.390625 34.796875 56.5 34.796875 47.390625 
C 34.796875 38.703125 29.703125 31.21875 24 24.734375 
L 4.09375 2.296875 
L 4.09375 0 
L 39.296875 0 
z
" id="CMR17-50"/>
       </defs>
       <use transform="scale(0.996264)" xlink:href="#CMR17-48"/>
       <use transform="translate(45.690477 0)scale(0.996264)" xlink:href="#CMMI12-58"/>
       <use transform="translate(72.787654 0)scale(0.996264)" xlink:href="#CMR17-50"/>
      </g>
     </g>
    </g>
    <g id="xtick_3">
     <g id="line2d_3">
      <g>
       <use style="fill:#262626;stroke:#262626;" x="199.796804" xlink:href="#m48bd89ec85" y="221.22493"/>
      </g>
     </g>
     <g id="text_3">
      <!-- $\mathdefault{0.4}$ -->
      <g style="fill:#262626;" transform="translate(191.570124 238.657325)scale(0.132 -0.132)">
       <defs>
        <path d="M 33.59375 64.796875 
C 33.59375 66.890625 33.5 67 31.703125 67 
L 2 19.59375 
L 2 17 
L 27.796875 17 
L 27.796875 7.1875 
C 27.796875 3.59375 27.59375 2.59375 20.59375 2.59375 
L 18.703125 2.59375 
L 18.703125 0 
C 21.90625 0.1875 27.296875 0.1875 30.703125 0.1875 
C 34.09375 0.1875 39.5 0.1875 42.703125 0 
L 42.703125 2.59375 
L 40.796875 2.59375 
C 33.796875 2.59375 33.59375 3.59375 33.59375 7.1875 
L 33.59375 17 
L 43.796875 17 
L 43.796875 19.59375 
L 33.59375 19.59375 
z
M 28.09375 58.171875 
L 28.09375 19.59375 
L 4 19.59375 
z
" id="CMR17-52"/>
       </defs>
       <use transform="scale(0.996264)" xlink:href="#CMR17-48"/>
       <use transform="translate(45.690477 0)scale(0.996264)" xlink:href="#CMMI12-58"/>
       <use transform="translate(72.787654 0)scale(0.996264)" xlink:href="#CMR17-52"/>
      </g>
     </g>
    </g>
    <g id="xtick_4">
     <g id="line2d_4">
      <g>
       <use style="fill:#262626;stroke:#262626;" x="261.795587" xlink:href="#m48bd89ec85" y="221.22493"/>
      </g>
     </g>
     <g id="text_4">
      <!-- $\mathdefault{0.6}$ -->
      <g style="fill:#262626;" transform="translate(253.568907 238.657325)scale(0.132 -0.132)">
       <defs>
        <path d="M 10.59375 34.34375 
C 10.59375 58 21.796875 63.6875 28.296875 63.6875 
C 30.40625 63.6875 35.5 63.265625 37.5 59.09375 
C 35.90625 59.09375 32.90625 59.09375 32.90625 55.59375 
C 32.90625 52.890625 35.09375 52 36.5 52 
C 37.40625 52 40.09375 52.390625 40.09375 55.796875 
C 40.09375 62.296875 35.09375 66 28.203125 66 
C 16.296875 66 3.796875 53.296875 3.796875 31.421875 
C 3.796875 4.015625 15.09375 -2 23.09375 -2 
C 32.796875 -2 42 6.734375 42 20.234375 
C 42 32.828125 33.90625 42 23.703125 42 
C 17.59375 42 13.09375 37.96875 10.59375 30.921875 
z
M 23.09375 0.390625 
C 10.796875 0.390625 10.796875 18.9375 10.796875 22.65625 
C 10.796875 29.90625 14.203125 40.390625 23.5 40.390625 
C 25.203125 40.390625 30.09375 40.390625 33.40625 33.4375 
C 35.203125 29.515625 35.203125 25.375 35.203125 20.34375 
C 35.203125 14.90625 35.203125 10.875 33.09375 6.84375 
C 30.90625 2.703125 27.703125 0.390625 23.09375 0.390625 
z
" id="CMR17-54"/>
       </defs>
       <use transform="scale(0.996264)" xlink:href="#CMR17-48"/>
       <use transform="translate(45.690477 0)scale(0.996264)" xlink:href="#CMMI12-58"/>
       <use transform="translate(72.787654 0)scale(0.996264)" xlink:href="#CMR17-54"/>
      </g>
     </g>
    </g>
    <g id="xtick_5">
     <g id="line2d_5">
      <g>
       <use style="fill:#262626;stroke:#262626;" x="323.794371" xlink:href="#m48bd89ec85" y="221.22493"/>
      </g>
     </g>
     <g id="text_5">
      <!-- $\mathdefault{0.8}$ -->
      <g style="fill:#262626;" transform="translate(315.567691 238.657325)scale(0.132 -0.132)">
       <defs>
        <path d="M 27.203125 35.765625 
C 33.5 38.96875 39.90625 43.796875 39.90625 51.53125 
C 39.90625 60.6875 31.09375 66 23 66 
C 13.90625 66 5.90625 59.375 5.90625 50.234375 
C 5.90625 47.71875 6.5 43.390625 10.40625 39.578125 
C 11.40625 38.578125 15.59375 35.5625 18.296875 33.65625 
C 13.796875 31.34375 3.296875 25.8125 3.296875 14.765625 
C 3.296875 4.40625 13.09375 -2 22.796875 -2 
C 33.5 -2 42.5 5.71875 42.5 15.96875 
C 42.5 25.109375 36.40625 29.328125 32.40625 32.046875 
z
M 14.09375 44.609375 
C 13.296875 45.109375 9.296875 48.21875 9.296875 52.9375 
C 9.296875 59.078125 15.59375 63.6875 22.796875 63.6875 
C 30.703125 63.6875 36.5 58.0625 36.5 51.53125 
C 36.5 42.1875 26.09375 36.859375 25.59375 36.859375 
C 25.5 36.859375 25.40625 36.859375 24.59375 37.46875 
z
M 32.5 24 
C 34 22.90625 38.796875 19.578125 38.796875 13.453125 
C 38.796875 6.015625 31.40625 0.390625 23 0.390625 
C 13.90625 0.390625 7 6.921875 7 14.859375 
C 7 22.796875 13.09375 29.4375 20 32.546875 
z
" id="CMR17-56"/>
       </defs>
       <use transform="scale(0.996264)" xlink:href="#CMR17-48"/>
       <use transform="translate(45.690477 0)scale(0.996264)" xlink:href="#CMMI12-58"/>
       <use transform="translate(72.787654 0)scale(0.996264)" xlink:href="#CMR17-56"/>
      </g>
     </g>
    </g>
    <g id="xtick_6">
     <g id="line2d_6">
      <g>
       <use style="fill:#262626;stroke:#262626;" x="385.793155" xlink:href="#m48bd89ec85" y="221.22493"/>
      </g>
     </g>
     <g id="text_6">
      <!-- $\mathdefault{1.0}$ -->
      <g style="fill:#262626;" transform="translate(377.566474 238.657325)scale(0.132 -0.132)">
       <defs>
        <path d="M 26.59375 63.796875 
C 26.59375 65.890625 26.5 66 25.09375 66 
C 21.203125 61.359375 15.296875 59.890625 9.703125 59.6875 
C 9.40625 59.6875 8.90625 59.6875 8.796875 59.5 
C 8.703125 59.296875 8.703125 59.09375 8.703125 57 
C 11.796875 57 17 57.59375 21 59.984375 
L 21 7.296875 
C 21 3.796875 20.796875 2.59375 12.203125 2.59375 
L 9.203125 2.59375 
L 9.203125 0 
C 14 0.09375 19 0.1875 23.796875 0.1875 
C 28.59375 0.1875 33.59375 0.09375 38.40625 0 
L 38.40625 2.59375 
L 35.40625 2.59375 
C 26.796875 2.59375 26.59375 3.6875 26.59375 7.296875 
z
" id="CMR17-49"/>
       </defs>
       <use transform="scale(0.996264)" xlink:href="#CMR17-49"/>
       <use transform="translate(45.690477 0)scale(0.996264)" xlink:href="#CMMI12-58"/>
       <use transform="translate(72.787654 0)scale(0.996264)" xlink:href="#CMR17-48"/>
      </g>
     </g>
    </g>
    <g id="text_7">
     <!-- Recall (Positive label: True) -->
     <g style="fill:#262626;" transform="translate(143.745431 255.974026)scale(0.144 -0.144)">
      <defs>
       <path d="M 39.203125 33.6875 
C 48.703125 35.59375 56.703125 42.015625 56.703125 50.046875 
C 56.703125 59.46875 46.09375 68 32.09375 68 
L 5.203125 68 
L 5.203125 65.390625 
C 12.09375 65.390625 13.203125 65.390625 13.203125 60.875 
L 13.203125 6.6875 
C 13.203125 2.1875 12.09375 2.1875 5.203125 2.1875 
L 5.203125 -0.40625 
C 8.09375 -0.203125 13.296875 -0.203125 16.40625 -0.203125 
C 19.5 -0.203125 24.703125 -0.203125 27.59375 -0.40625 
L 27.59375 2.1875 
C 20.703125 2.1875 19.59375 2.1875 19.59375 6.6875 
L 19.59375 33 
L 31.296875 33 
C 37 33 40.203125 30.6875 41.59375 29.390625 
C 45.59375 25.5 45.59375 22.796875 45.59375 16 
C 45.59375 9.296875 45.59375 5.890625 48.59375 2.5 
C 52.40625 -1.609375 57.5 -2 59.703125 -2 
C 67.09375 -2 68.203125 6.296875 68.203125 8 
C 68.203125 8.59375 68.203125 9.296875 67.296875 9.296875 
C 66.5 9.296875 66.40625 8.6875 66.40625 8.296875 
C 65.90625 1.796875 63 -0.40625 59.90625 -0.40625 
C 54.40625 -0.40625 53.796875 5.890625 53.203125 12 
C 52.90625 14.09375 52.703125 15.59375 52.5 17.796875 
C 51.90625 22.796875 51.09375 30.09375 39.203125 33.6875 
z
M 31 34.59375 
L 19.59375 34.59375 
L 19.59375 61.484375 
C 19.59375 64.890625 19.796875 65.390625 23.796875 65.390625 
L 31.09375 65.390625 
C 39.40625 65.390625 49.09375 62.484375 49.09375 50.046875 
C 49.09375 37.09375 38.5 34.59375 31 34.59375 
z
" id="CMR17-82"/>
       <path d="M 38.09375 23.484375 
C 38.5 23.890625 38.5 24.09375 38.5 25.09375 
C 38.5 35.171875 33.09375 44 21.703125 44 
C 11.09375 44 2.703125 33.984375 2.703125 21.78125 
C 2.703125 8.65625 12.203125 -1 22.796875 -1 
C 34 -1 38.40625 9.671875 38.40625 11.796875 
C 38.40625 12.5 37.796875 12.5 37.59375 12.5 
C 36.90625 12.5 36.796875 12.296875 36.40625 11.078125 
C 34.203125 4.21875 28.703125 0.796875 23.5 0.796875 
C 19.203125 0.796875 14.90625 3.21875 12.203125 7.65625 
C 9.09375 12.796875 9.09375 18.75 9.09375 23.484375 
z
M 9.203125 25 
C 9.90625 39.234375 17.59375 42.390625 21.59375 42.390625 
C 28.40625 42.390625 33 36.0625 33.09375 25 
z
" id="CMR17-101"/>
       <path d="M 34.90625 35 
C 33 35 30.203125 35 30.203125 31.484375 
C 30.203125 28.6875 32.5 27.890625 33.796875 27.890625 
C 34.5 27.890625 37.40625 28.1875 37.40625 31.6875 
C 37.40625 38.6875 30.59375 44 22.90625 44 
C 12.296875 44 3.296875 34.390625 3.296875 21.546875 
C 3.296875 8.140625 12.703125 -1 22.90625 -1 
C 35.296875 -1 38.40625 10.5625 38.40625 11.671875 
C 38.40625 12.078125 38.296875 12.375 37.59375 12.375 
C 36.90625 12.375 36.796875 12.28125 36.40625 10.96875 
C 33.796875 2.8125 28.09375 0.796875 23.796875 0.796875 
C 17.40625 0.796875 9.703125 6.734375 9.703125 21.640625 
C 9.703125 36.84375 17.09375 42.1875 23 42.1875 
C 26.90625 42.1875 32.703125 40.34375 34.90625 35 
z
" id="CMR17-99"/>
       <path d="M 36 25.875 
C 36 32 36 35.546875 31.796875 39.59375 
C 28.09375 42.984375 23.796875 44 20.40625 44 
C 12.5 44 6.796875 37.625 6.796875 30.890625 
C 6.796875 27.1875 9.796875 27 10.40625 27 
C 11.703125 27 14 27.796875 14 30.59375 
C 14 33.09375 12.09375 34.1875 10.40625 34.1875 
C 10 34.1875 9.5 34.09375 9.203125 34 
C 11.296875 40.53125 16.703125 42.390625 20.203125 42.390625 
C 25.203125 42.390625 30.703125 37.828125 30.703125 29.296875 
L 30.703125 25.5 
C 24.796875 25.296875 17.703125 24.5 12.09375 21.453125 
C 5.796875 17.921875 4 12.84375 4 9 
C 4 1.203125 13 -1 18.296875 -1 
C 23.796875 -1 28.90625 2.109375 31.09375 7.890625 
C 31.296875 3.421875 34.09375 -0.609375 38.5 -0.609375 
C 40.59375 -0.609375 45.90625 0.796875 45.90625 8.796875 
L 45.90625 14.46875 
L 44.09375 14.46875 
L 44.09375 8.703125 
C 44.09375 2.515625 41.40625 1.703125 40.09375 1.703125 
C 36 1.703125 36 6.96875 36 11.4375 
z
M 30.703125 13.859375 
C 30.703125 5.046875 24.5 0.59375 19 0.59375 
C 14 0.59375 10.09375 4.34375 10.09375 9 
C 10.09375 12.046875 11.40625 17.40625 17.203125 20.65625 
C 22 23.390625 27.5 23.796875 30.703125 24 
z
" id="CMR17-97"/>
       <path d="M 15.296875 69 
L 3.40625 67.890625 
L 3.40625 65.296875 
C 9.296875 65.296875 10.203125 64.703125 10.203125 59.921875 
L 10.203125 6.859375 
C 10.203125 3.09375 9.796875 2.59375 3.40625 2.59375 
L 3.40625 0 
C 5.796875 0.1875 10.203125 0.1875 12.703125 0.1875 
C 15.296875 0.1875 19.703125 0.1875 22.09375 0 
L 22.09375 2.59375 
C 15.703125 2.59375 15.296875 2.984375 15.296875 6.859375 
z
" id="CMR17-108"/>
       <path d="M 30.59375 -24.40625 
C 30.59375 -24.3125 30.59375 -24.109375 30.296875 -23.8125 
C 25.703125 -19.109375 13.40625 -6.296875 13.40625 24.9375 
C 13.40625 56.171875 25.5 68.875 30.40625 73.890625 
C 30.40625 73.984375 30.59375 74.1875 30.59375 74.484375 
C 30.59375 74.796875 30.296875 75 29.90625 75 
C 28.796875 75 20.296875 67.578125 15.40625 56.5625 
C 10.40625 45.453125 9 34.65625 9 25.046875 
C 9 17.828125 9.703125 5.625 15.703125 -7.296875 
C 20.5 -17.703125 28.703125 -25 29.90625 -25 
C 30.40625 -25 30.59375 -24.8125 30.59375 -24.40625 
z
" id="CMR17-40"/>
       <path d="M 19.796875 32 
L 35.796875 32 
C 48.703125 32 58.09375 40.359375 58.09375 49.796875 
C 58.09375 59.234375 48.90625 68 35.796875 68 
L 5.203125 68 
L 5.203125 65.390625 
C 12.09375 65.390625 13.203125 65.390625 13.203125 60.921875 
L 13.203125 7.078125 
C 13.203125 2.59375 12.09375 2.59375 5.203125 2.59375 
L 5.203125 0 
C 8.09375 0.1875 13.40625 0.1875 16.5 0.1875 
C 19.59375 0.1875 24.90625 0.1875 27.796875 0 
L 27.796875 2.59375 
C 20.90625 2.59375 19.796875 2.59375 19.796875 7.078125 
z
M 19.59375 34.09375 
L 19.59375 61.515625 
C 19.59375 64.890625 19.796875 65.390625 23.796875 65.390625 
L 33.90625 65.390625 
C 46.796875 65.390625 50.5 58.046875 50.5 49.796875 
C 50.5 40.75 46.09375 34.09375 33.90625 34.09375 
z
" id="CMR17-80"/>
       <path d="M 43.09375 21.1875 
C 43.09375 34 33.796875 44 22.90625 44 
C 12 44 2.703125 34 2.703125 21.1875 
C 2.703125 8.59375 12 -1 22.90625 -1 
C 33.796875 -1 43.09375 8.59375 43.09375 21.1875 
z
M 22.90625 0.796875 
C 18.203125 0.796875 14.203125 3.59375 11.90625 7.5 
C 9.40625 12 9.09375 17.59375 9.09375 22 
C 9.09375 26.1875 9.296875 31.390625 11.90625 35.890625 
C 13.90625 39.1875 17.796875 42.390625 22.90625 42.390625 
C 27.40625 42.390625 31.203125 39.890625 33.59375 36.390625 
C 36.703125 31.6875 36.703125 25.09375 36.703125 22 
C 36.703125 18.09375 36.5 12.09375 33.796875 7.296875 
C 31 2.6875 26.703125 0.796875 22.90625 0.796875 
z
" id="CMR17-111"/>
       <path d="M 30.90625 42 
C 30.90625 43.796875 30.796875 43.890625 30.203125 43.890625 
C 29.796875 43.890625 29.703125 43.796875 28.5 42.296875 
C 28.203125 41.890625 27.296875 40.890625 27 40.5 
C 23.796875 43.890625 19.296875 44 17.59375 44 
C 6.5 44 2.5 38.1875 2.5 32.390625 
C 2.5 23.390625 12.703125 21.296875 15.59375 20.6875 
C 21.90625 19.390625 24.09375 19 26.203125 17.1875 
C 27.5 16 29.703125 13.796875 29.703125 10.1875 
C 29.703125 6 27.296875 0.59375 18.09375 0.59375 
C 9.40625 0.59375 6.296875 7.1875 4.5 16 
C 4.203125 17.390625 4.203125 17.5 3.40625 17.5 
C 2.59375 17.5 2.5 17.390625 2.5 15.390625 
L 2.5 1 
C 2.5 -0.8125 2.59375 -0.90625 3.203125 -0.90625 
C 3.703125 -0.90625 3.796875 -0.8125 4.296875 0 
C 4.90625 0.890625 6.40625 3.296875 7 4.296875 
C 9 1.59375 12.5 -1 18.09375 -1 
C 28 -1 33.296875 4.390625 33.296875 12.1875 
C 33.296875 17.296875 30.59375 20 29.296875 21.1875 
C 26.296875 24.296875 22.796875 25 18.59375 25.796875 
C 13.09375 27 6.09375 28.390625 6.09375 34.5 
C 6.09375 37.09375 7.5 42.59375 17.59375 42.59375 
C 28.296875 42.59375 28.90625 32.59375 29.09375 29.390625 
C 29.203125 28.890625 29.703125 28.796875 30 28.796875 
C 30.90625 28.796875 30.90625 29.09375 30.90625 30.796875 
z
" id="CMR17-115"/>
       <path d="M 15.5 61.890625 
C 15.5 64.09375 13.703125 66 11.40625 66 
C 9.203125 66 7.296875 64.1875 7.296875 61.890625 
C 7.296875 59.6875 9.09375 57.796875 11.40625 57.796875 
C 13.59375 57.796875 15.5 59.59375 15.5 61.890625 
z
M 3.796875 42.890625 
L 3.796875 40.296875 
C 9.40625 40.296875 10.203125 39.6875 10.203125 34.859375 
L 10.203125 6.921875 
C 10.203125 3.09375 9.796875 2.59375 3.40625 2.59375 
L 3.40625 0 
C 5.796875 0.1875 10.09375 0.1875 12.59375 0.1875 
C 15 0.1875 19.09375 0.1875 21.40625 0 
L 21.40625 2.59375 
C 15.5 2.59375 15.296875 3.203125 15.296875 6.8125 
L 15.296875 44 
z
" id="CMR17-105"/>
       <path d="M 15.09375 40.390625 
L 29.09375 40.390625 
L 29.09375 43 
L 15.09375 43 
L 15.09375 62 
L 13.296875 62 
C 13.09375 51.4375 9.59375 42.1875 1.09375 41.984375 
L 1.09375 40.390625 
L 9.796875 40.390625 
L 9.796875 12.15625 
C 9.796875 10.234375 9.796875 -1 21.40625 -1 
C 27.296875 -1 30.703125 4.8125 30.703125 12.25 
L 30.703125 17.984375 
L 28.90625 17.984375 
L 28.90625 12.34375 
C 28.90625 5.421875 26.203125 0.796875 22 0.796875 
C 19.09375 0.796875 15.09375 2.796875 15.09375 11.953125 
z
" id="CMR17-116"/>
       <path d="M 39.09375 33.953125 
C 40 36.171875 41.59375 40.1875 47.40625 40.390625 
L 47.40625 43 
C 45.5 42.890625 43 42.796875 41.09375 42.796875 
C 39 42.796875 35.703125 42.796875 33.703125 43 
L 33.703125 40.390625 
C 36.203125 40.1875 37.59375 38.984375 37.59375 36.375 
C 37.59375 35.46875 37.59375 35.265625 37 33.859375 
L 26 5.921875 
L 14.09375 36.0625 
C 13.5 37.375 13.5 37.578125 13.5 37.984375 
C 13.5 40.390625 16.796875 40.390625 18.296875 40.390625 
L 18.296875 43 
C 15.90625 42.796875 11.5 42.796875 9 42.796875 
C 6.296875 42.796875 3.203125 42.796875 1 43 
L 1 40.390625 
C 4.796875 40.390625 6.90625 40.390625 8.09375 37.28125 
L 22.59375 0.6875 
C 23.203125 -0.8125 23.296875 -1 24.203125 -1 
C 25.09375 -1 25.203125 -0.8125 25.796875 0.6875 
z
" id="CMR17-118"/>
       <path d="M 15 69 
L 3.09375 67.890625 
L 3.09375 65.296875 
C 9 65.296875 9.90625 64.703125 9.90625 60.046875 
L 9.90625 -0.203125 
L 11.703125 -0.203125 
L 14.59375 6.953125 
C 17.5 2.203125 21.796875 -1 27.59375 -1 
C 37.59375 -1 47.703125 7.859375 47.703125 21.59375 
C 47.703125 34.515625 38.703125 44 28.59375 44 
C 22.40625 44 18 40.671875 15 36.734375 
z
M 15.203125 31.59375 
C 15.203125 33.40625 15.203125 33.703125 16.59375 35.828125 
C 20.5 41.890625 26.09375 42.390625 28 42.390625 
C 31 42.390625 41.296875 40.78125 41.296875 21.6875 
C 41.296875 1.703125 29.5 0.59375 27.09375 0.59375 
C 24 0.59375 19.5 1.796875 16.296875 7.65625 
C 15.203125 9.578125 15.203125 9.78125 15.203125 11.59375 
z
" id="CMR17-98"/>
       <path d="M 16.59375 38.890625 
C 16.59375 41.390625 14.59375 43 12.5 43 
C 10.5 43 8.40625 41.390625 8.40625 38.890625 
C 8.40625 36.390625 10.40625 34.796875 12.5 34.796875 
C 14.5 34.796875 16.59375 36.390625 16.59375 38.890625 
z
M 16.59375 4.09375 
C 16.59375 6.59375 14.59375 8.1875 12.5 8.1875 
C 10.5 8.1875 8.40625 6.59375 8.40625 4.09375 
C 8.40625 1.59375 10.40625 0 12.5 0 
C 14.5 0 16.59375 1.59375 16.59375 4.09375 
z
" id="CMR17-58"/>
       <path d="M 62.203125 67.6875 
L 4.5 67.6875 
L 2.796875 45.6875 
L 4.59375 45.6875 
C 5.90625 62.203125 7.296875 65.09375 22.703125 65.09375 
C 24.5 65.09375 27.40625 65.09375 28.203125 64.984375 
C 30.09375 64.6875 30.09375 63.5 30.09375 61.203125 
L 30.09375 7.265625 
C 30.09375 3.6875 29.796875 2.59375 21.5 2.59375 
L 18.703125 2.59375 
L 18.703125 0 
C 23.5 0.09375 28.5 0.1875 33.40625 0.1875 
C 38.296875 0.1875 43.296875 0.09375 48.09375 0 
L 48.09375 2.59375 
L 45.296875 2.59375 
C 37 2.59375 36.703125 3.6875 36.703125 7.265625 
L 36.703125 61.203125 
C 36.703125 63.390625 36.703125 64.59375 38.5 64.984375 
C 39.296875 65.09375 42.203125 65.09375 44 65.09375 
C 59.296875 65.09375 60.796875 62.203125 62.09375 45.6875 
L 63.90625 45.6875 
z
" id="CMR17-84"/>
       <path d="M 15 23.703125 
C 15 33.34375 19.09375 42.390625 26.59375 42.390625 
C 27.296875 42.390625 28 42.296875 28.703125 41.984375 
C 28.703125 41.984375 26.5 41.28125 26.5 38.671875 
C 26.5 36.265625 28.40625 35.265625 29.90625 35.265625 
C 31.09375 35.265625 33.296875 35.96875 33.296875 38.78125 
C 33.296875 41.984375 30.09375 44 26.703125 44 
C 19.09375 44 15.796875 36.5625 14.796875 33.046875 
L 14.703125 33.046875 
L 14.703125 44 
L 3.09375 42.890625 
L 3.09375 40.28125 
C 9 40.28125 9.90625 39.6875 9.90625 34.859375 
L 9.90625 6.921875 
C 9.90625 3.09375 9.5 2.59375 3.09375 2.59375 
L 3.09375 0 
C 5.5 0.1875 10.09375 0.1875 12.703125 0.1875 
C 15.59375 0.1875 20.703125 0.1875 23.40625 0 
L 23.40625 2.59375 
C 16.203125 2.59375 15 2.59375 15 7.109375 
z
" id="CMR17-114"/>
       <path d="M 29.40625 42.890625 
L 29.40625 40.296875 
C 35.296875 40.296875 36.203125 39.6875 36.203125 34.828125 
L 36.203125 16.453125 
C 36.203125 7.96875 31.703125 0.59375 24.296875 0.59375 
C 16.09375 0.59375 15.40625 5.546875 15.40625 10.796875 
L 15.40625 44 
L 3.296875 42.890625 
L 3.296875 40.296875 
C 7.296875 40.296875 10 40.296875 10.09375 36.25 
L 10.09375 16.859375 
C 10.09375 10.09375 10.09375 5.75 12.703125 2.921875 
C 14 1.609375 16.5 -1 23.703125 -1 
C 32.203125 -1 35.5 6.25 36.296875 8.375 
L 36.40625 8.375 
L 36.40625 -1 
L 48.296875 -0.203125 
L 48.296875 2.40625 
C 42.40625 2.40625 41.5 3.015625 41.5 7.859375 
L 41.5 44 
z
" id="CMR17-117"/>
       <path d="M 26.296875 24.9375 
C 26.296875 32.140625 25.59375 44.359375 19.59375 57.265625 
C 14.796875 67.6875 6.59375 75 5.40625 75 
C 5.09375 75 4.703125 74.890625 4.703125 74.390625 
C 4.703125 74.1875 4.796875 74.09375 4.90625 73.890625 
C 9.703125 68.875 21.90625 56.171875 21.90625 25.046875 
C 21.90625 -6.1875 9.796875 -18.90625 4.90625 -23.90625 
C 4.796875 -24.109375 4.703125 -24.203125 4.703125 -24.40625 
C 4.703125 -24.90625 5.09375 -25 5.40625 -25 
C 6.5 -25 15 -17.609375 19.90625 -6.59375 
C 24.90625 4.515625 26.296875 15.328125 26.296875 24.9375 
z
" id="CMR17-41"/>
      </defs>
      <use transform="scale(0.996264)" xlink:href="#CMR17-82"/>
      <use transform="translate(67.791102 0)scale(0.996264)" xlink:href="#CMR17-101"/>
      <use transform="translate(108.276762 0)scale(0.996264)" xlink:href="#CMR17-99"/>
      <use transform="translate(148.762423 0)scale(0.996264)" xlink:href="#CMR17-97"/>
      <use transform="translate(194.4529 0)scale(0.996264)" xlink:href="#CMR17-108"/>
      <use transform="translate(219.323958 0)scale(0.996264)" xlink:href="#CMR17-108"/>
      <use transform="translate(274.270983 0)scale(0.996264)" xlink:href="#CMR17-40"/>
      <use transform="translate(309.551751 0)scale(0.996264)" xlink:href="#CMR17-80"/>
      <use transform="translate(369.535598 0)scale(0.996264)" xlink:href="#CMR17-111"/>
      <use transform="translate(415.226075 0)scale(0.996264)" xlink:href="#CMR17-115"/>
      <use transform="translate(451.027412 0)scale(0.996264)" xlink:href="#CMR17-105"/>
      <use transform="translate(475.898471 0)scale(0.996264)" xlink:href="#CMR17-116"/>
      <use transform="translate(511.179239 0)scale(0.996264)" xlink:href="#CMR17-105"/>
      <use transform="translate(536.050297 0)scale(0.996264)" xlink:href="#CMR17-118"/>
      <use transform="translate(581.740759 0)scale(0.996264)" xlink:href="#CMR17-101"/>
      <use transform="translate(652.302386 0)scale(0.996264)" xlink:href="#CMR17-108"/>
      <use transform="translate(677.173444 0)scale(0.996264)" xlink:href="#CMR17-97"/>
      <use transform="translate(722.863922 0)scale(0.996264)" xlink:href="#CMR17-98"/>
      <use transform="translate(776.36173 0)scale(0.996264)" xlink:href="#CMR17-101"/>
      <use transform="translate(816.847391 0)scale(0.996264)" xlink:href="#CMR17-108"/>
      <use transform="translate(841.718449 0)scale(0.996264)" xlink:href="#CMR17-58"/>
      <use transform="translate(907.075168 0)scale(0.996264)" xlink:href="#CMR17-84"/>
      <use transform="translate(965.777793 0)scale(0.996264)" xlink:href="#CMR17-114"/>
      <use transform="translate(1001.058561 0)scale(0.996264)" xlink:href="#CMR17-117"/>
      <use transform="translate(1051.953931 0)scale(0.996264)" xlink:href="#CMR17-101"/>
      <use transform="translate(1092.439591 0)scale(0.996264)" xlink:href="#CMR17-41"/>
     </g>
    </g>
   </g>
   <g id="matplotlib.axis_2">
    <g id="ytick_1">
     <g id="line2d_7">
      <defs>
       <path d="M 0 0 
L -4.8 0 
" id="m0c2aa60c0d" style="stroke:#262626;"/>
      </defs>
      <g>
       <use style="fill:#262626;stroke:#262626;" x="50.299541" xlink:href="#m0c2aa60c0d" y="202.676644"/>
      </g>
     </g>
     <g id="text_8">
      <!-- $\mathdefault{0.0}$ -->
      <g style="fill:#262626;" transform="translate(25.54618 207.242841)scale(0.132 -0.132)">
       <use transform="scale(0.996264)" xlink:href="#CMR17-48"/>
       <use transform="translate(45.690477 0)scale(0.996264)" xlink:href="#CMMI12-58"/>
       <use transform="translate(72.787654 0)scale(0.996264)" xlink:href="#CMR17-48"/>
      </g>
     </g>
    </g>
    <g id="ytick_2">
     <g id="line2d_8">
      <g>
       <use style="fill:#262626;stroke:#262626;" x="50.299541" xlink:href="#m0c2aa60c0d" y="168.483497"/>
      </g>
     </g>
     <g id="text_9">
      <!-- $\mathdefault{0.2}$ -->
      <g style="fill:#262626;" transform="translate(25.54618 173.049695)scale(0.132 -0.132)">
       <use transform="scale(0.996264)" xlink:href="#CMR17-48"/>
       <use transform="translate(45.690477 0)scale(0.996264)" xlink:href="#CMMI12-58"/>
       <use transform="translate(72.787654 0)scale(0.996264)" xlink:href="#CMR17-50"/>
      </g>
     </g>
    </g>
    <g id="ytick_3">
     <g id="line2d_9">
      <g>
       <use style="fill:#262626;stroke:#262626;" x="50.299541" xlink:href="#m0c2aa60c0d" y="134.290351"/>
      </g>
     </g>
     <g id="text_10">
      <!-- $\mathdefault{0.4}$ -->
      <g style="fill:#262626;" transform="translate(25.54618 138.856548)scale(0.132 -0.132)">
       <use transform="scale(0.996264)" xlink:href="#CMR17-48"/>
       <use transform="translate(45.690477 0)scale(0.996264)" xlink:href="#CMMI12-58"/>
       <use transform="translate(72.787654 0)scale(0.996264)" xlink:href="#CMR17-52"/>
      </g>
     </g>
    </g>
    <g id="ytick_4">
     <g id="line2d_10">
      <g>
       <use style="fill:#262626;stroke:#262626;" x="50.299541" xlink:href="#m0c2aa60c0d" y="100.097204"/>
      </g>
     </g>
     <g id="text_11">
      <!-- $\mathdefault{0.6}$ -->
      <g style="fill:#262626;" transform="translate(25.54618 104.663402)scale(0.132 -0.132)">
       <use transform="scale(0.996264)" xlink:href="#CMR17-48"/>
       <use transform="translate(45.690477 0)scale(0.996264)" xlink:href="#CMMI12-58"/>
       <use transform="translate(72.787654 0)scale(0.996264)" xlink:href="#CMR17-54"/>
      </g>
     </g>
    </g>
    <g id="ytick_5">
     <g id="line2d_11">
      <g>
       <use style="fill:#262626;stroke:#262626;" x="50.299541" xlink:href="#m0c2aa60c0d" y="65.904058"/>
      </g>
     </g>
     <g id="text_12">
      <!-- $\mathdefault{0.8}$ -->
      <g style="fill:#262626;" transform="translate(25.54618 70.470255)scale(0.132 -0.132)">
       <use transform="scale(0.996264)" xlink:href="#CMR17-48"/>
       <use transform="translate(45.690477 0)scale(0.996264)" xlink:href="#CMMI12-58"/>
       <use transform="translate(72.787654 0)scale(0.996264)" xlink:href="#CMR17-56"/>
      </g>
     </g>
    </g>
    <g id="ytick_6">
     <g id="line2d_12">
      <g>
       <use style="fill:#262626;stroke:#262626;" x="50.299541" xlink:href="#m0c2aa60c0d" y="31.710912"/>
      </g>
     </g>
     <g id="text_13">
      <!-- $\mathdefault{1.0}$ -->
      <g style="fill:#262626;" transform="translate(25.54618 36.277109)scale(0.132 -0.132)">
       <use transform="scale(0.996264)" xlink:href="#CMR17-49"/>
       <use transform="translate(45.690477 0)scale(0.996264)" xlink:href="#CMMI12-58"/>
       <use transform="translate(72.787654 0)scale(0.996264)" xlink:href="#CMR17-48"/>
      </g>
     </g>
    </g>
    <g id="text_14">
     <!-- Precision (Positive label: True) -->
     <g style="fill:#262626;" transform="translate(17.959639 213.258127)rotate(-90)scale(0.144 -0.144)">
      <defs>
       <path d="M 41.5 30.53125 
C 41.5 35.65625 40.5 44 28.703125 44 
C 20.796875 44 16.703125 37.875 15.203125 33.84375 
L 15.09375 33.84375 
L 15.09375 44 
L 3.296875 42.890625 
L 3.296875 40.28125 
C 9.203125 40.28125 10.09375 39.6875 10.09375 34.859375 
L 10.09375 6.921875 
C 10.09375 3.09375 9.703125 2.59375 3.296875 2.59375 
L 3.296875 0 
C 5.703125 0.1875 10.09375 0.1875 12.703125 0.1875 
C 15.296875 0.1875 19.796875 0.1875 22.203125 0 
L 22.203125 2.59375 
C 15.796875 2.59375 15.40625 3 15.40625 6.921875 
L 15.40625 26.21875 
C 15.40625 35.453125 21 42.390625 28 42.390625 
C 35.40625 42.390625 36.203125 35.765625 36.203125 30.9375 
L 36.203125 6.921875 
C 36.203125 3.09375 35.796875 2.59375 29.40625 2.59375 
L 29.40625 0 
C 31.796875 0.1875 36.203125 0.1875 38.796875 0.1875 
C 41.40625 0.1875 45.90625 0.1875 48.296875 0 
L 48.296875 2.59375 
C 41.90625 2.59375 41.5 3 41.5 6.921875 
z
" id="CMR17-110"/>
      </defs>
      <use transform="scale(0.996264)" xlink:href="#CMR17-80"/>
      <use transform="translate(62.586301 0)scale(0.996264)" xlink:href="#CMR17-114"/>
      <use transform="translate(97.867068 0)scale(0.996264)" xlink:href="#CMR17-101"/>
      <use transform="translate(138.352729 0)scale(0.996264)" xlink:href="#CMR17-99"/>
      <use transform="translate(178.838389 0)scale(0.996264)" xlink:href="#CMR17-105"/>
      <use transform="translate(203.709448 0)scale(0.996264)" xlink:href="#CMR17-115"/>
      <use transform="translate(239.510785 0)scale(0.996264)" xlink:href="#CMR17-105"/>
      <use transform="translate(264.381844 0)scale(0.996264)" xlink:href="#CMR17-111"/>
      <use transform="translate(310.072321 0)scale(0.996264)" xlink:href="#CMR17-110"/>
      <use transform="translate(391.043657 0)scale(0.996264)" xlink:href="#CMR17-40"/>
      <use transform="translate(426.324425 0)scale(0.996264)" xlink:href="#CMR17-80"/>
      <use transform="translate(486.308271 0)scale(0.996264)" xlink:href="#CMR17-111"/>
      <use transform="translate(531.998749 0)scale(0.996264)" xlink:href="#CMR17-115"/>
      <use transform="translate(567.800086 0)scale(0.996264)" xlink:href="#CMR17-105"/>
      <use transform="translate(592.671145 0)scale(0.996264)" xlink:href="#CMR17-116"/>
      <use transform="translate(627.951913 0)scale(0.996264)" xlink:href="#CMR17-105"/>
      <use transform="translate(652.822971 0)scale(0.996264)" xlink:href="#CMR17-118"/>
      <use transform="translate(698.513433 0)scale(0.996264)" xlink:href="#CMR17-101"/>
      <use transform="translate(769.07506 0)scale(0.996264)" xlink:href="#CMR17-108"/>
      <use transform="translate(793.946118 0)scale(0.996264)" xlink:href="#CMR17-97"/>
      <use transform="translate(839.636595 0)scale(0.996264)" xlink:href="#CMR17-98"/>
      <use transform="translate(893.134404 0)scale(0.996264)" xlink:href="#CMR17-101"/>
      <use transform="translate(933.620064 0)scale(0.996264)" xlink:href="#CMR17-108"/>
      <use transform="translate(958.491123 0)scale(0.996264)" xlink:href="#CMR17-58"/>
      <use transform="translate(1023.847842 0)scale(0.996264)" xlink:href="#CMR17-84"/>
      <use transform="translate(1082.550467 0)scale(0.996264)" xlink:href="#CMR17-114"/>
      <use transform="translate(1117.831235 0)scale(0.996264)" xlink:href="#CMR17-117"/>
      <use transform="translate(1168.726604 0)scale(0.996264)" xlink:href="#CMR17-101"/>
      <use transform="translate(1209.212265 0)scale(0.996264)" xlink:href="#CMR17-41"/>
     </g>
    </g>
   </g>
   <g id="PolyCollection_1">
    <defs>
     <path d="M 75.799237 -235.049655 
L 75.799237 -235.049655 
L 78.930488 -226.96882 
L 82.06174 -218.887985 
L 85.192992 -210.80715 
L 88.324243 -204.796995 
L 91.455495 -207.483666 
L 94.586747 -210.170276 
L 97.717999 -212.856803 
L 100.84925 -215.02557 
L 103.980502 -216.366002 
L 107.111754 -217.706324 
L 110.243005 -219.046506 
L 113.374257 -220.075984 
L 116.505509 -220.877589 
L 119.63676 -221.583687 
L 122.768012 -222.107744 
L 125.899264 -207.866929 
L 129.030515 -208.904949 
L 132.161767 -209.814842 
L 135.293019 -210.720821 
L 138.424271 -211.75788 
L 141.555522 -212.746052 
L 144.686774 -213.509139 
L 147.818026 -214.136499 
L 150.949277 -214.844097 
L 154.080529 -215.5413 
L 157.211781 -216.236054 
L 160.343032 -201.908998 
L 163.474284 -202.739265 
L 166.605536 -203.523349 
L 169.736788 -204.34493 
L 172.868039 -205.187071 
L 175.999291 -205.864107 
L 179.130543 -206.521172 
L 182.261794 -207.166774 
L 185.393046 -207.779225 
L 188.524298 -208.424288 
L 191.655549 -208.992744 
L 194.786801 -209.525098 
L 197.918053 -209.990827 
L 201.049304 -210.476896 
L 204.180556 -210.926044 
L 207.311808 -211.345565 
L 210.44306 -211.750766 
L 213.574311 -212.109857 
L 216.705563 -212.52735 
L 219.836815 -212.938029 
L 222.968066 -213.30747 
L 226.099318 -213.618077 
L 229.23057 -213.96704 
L 232.361821 -214.217304 
L 235.493073 -214.499937 
L 238.624325 -214.811215 
L 241.755577 -214.920919 
L 244.886828 -215.214771 
L 248.01808 -215.478353 
L 251.149332 -215.725178 
L 254.280583 -215.96102 
L 257.411835 -216.18682 
L 260.543087 -216.314991 
L 263.674338 -216.504219 
L 266.80559 -216.776414 
L 269.936842 -216.965485 
L 273.068093 -217.203263 
L 276.199345 -217.402539 
L 279.330597 -217.640771 
L 282.461849 -217.861137 
L 285.5931 -217.931019 
L 288.724352 -218.135105 
L 291.855604 -218.328174 
L 294.986855 -218.551711 
L 298.118107 -218.753044 
L 301.249359 -218.919669 
L 304.38061 -216.046386 
L 307.511862 -216.251258 
L 310.643114 -216.005166 
L 313.774366 -216.206976 
L 316.905617 -215.578479 
L 320.036869 -215.790786 
L 323.168121 -215.984072 
L 326.299372 -216.17157 
L 329.430624 -216.382399 
L 332.561876 -197.238902 
L 335.693127 -197.513839 
L 338.824379 -197.675688 
L 341.955631 -196.556728 
L 345.086882 -196.458195 
L 348.218134 -190.496961 
L 351.349386 -190.483037 
L 354.480638 -179.906683 
L 357.611889 -149.922249 
L 360.743141 -149.40019 
L 363.874393 -143.509328 
L 367.005644 -142.048783 
L 370.136896 -138.609033 
L 373.268148 -128.829692 
L 376.399399 -110.644152 
L 379.530651 -98.268386 
L 382.661903 -86.476282 
L 385.793155 -64.083923 
L 385.793155 -122.850209 
L 385.793155 -122.850209 
L 382.661903 -190.566889 
L 379.530651 -197.317537 
L 376.399399 -207.793634 
L 373.268148 -222.387287 
L 370.136896 -225.210097 
L 367.005644 -227.925363 
L 363.874393 -230.132473 
L 360.743141 -233.614751 
L 357.611889 -234.830042 
L 354.480638 -227.887583 
L 351.349386 -232.397579 
L 348.218134 -233.990863 
L 345.086882 -232.249516 
L 341.955631 -232.947028 
L 338.824379 -233.255468 
L 335.693127 -233.71807 
L 332.561876 -233.904566 
L 329.430624 -229.431151 
L 326.299372 -229.541314 
L 323.168121 -229.603838 
L 320.036869 -229.646444 
L 316.905617 -229.627545 
L 313.774366 -230.310933 
L 310.643114 -230.29399 
L 307.511862 -231.560303 
L 304.38061 -231.543765 
L 301.249359 -231.764034 
L 298.118107 -231.817974 
L 294.986855 -231.837607 
L 291.855604 -231.882799 
L 288.724352 -231.864624 
L 285.5931 -231.94554 
L 282.461849 -233.892746 
L 279.330597 -233.90943 
L 276.199345 -233.888376 
L 273.068093 -233.904048 
L 269.936842 -233.890181 
L 266.80559 -233.950175 
L 263.674338 -233.928382 
L 260.543087 -234.050703 
L 257.411835 -234.263149 
L 254.280583 -234.367077 
L 251.149332 -234.45392 
L 248.01808 -234.520872 
L 244.886828 -234.549654 
L 241.755577 -234.543302 
L 238.624325 -234.74098 
L 235.493073 -234.797281 
L 232.361821 -234.869743 
L 229.23057 -234.990308 
L 226.099318 -235.018991 
L 222.968066 -235.049655 
L 219.836815 -235.049655 
L 216.705563 -235.049655 
L 213.574311 -235.049655 
L 210.44306 -235.049655 
L 207.311808 -235.049655 
L 204.180556 -235.049655 
L 201.049304 -235.049655 
L 197.918053 -235.049655 
L 194.786801 -235.049655 
L 191.655549 -235.049655 
L 188.524298 -235.049655 
L 185.393046 -235.049655 
L 182.261794 -235.049655 
L 179.130543 -235.049655 
L 175.999291 -235.049655 
L 172.868039 -235.049655 
L 169.736788 -235.049655 
L 166.605536 -235.049655 
L 163.474284 -235.049655 
L 160.343032 -235.049655 
L 157.211781 -235.049655 
L 154.080529 -235.049655 
L 150.949277 -235.049655 
L 147.818026 -235.049655 
L 144.686774 -235.049655 
L 141.555522 -235.049655 
L 138.424271 -235.049655 
L 135.293019 -235.049655 
L 132.161767 -235.049655 
L 129.030515 -235.049655 
L 125.899264 -235.049655 
L 122.768012 -235.049655 
L 119.63676 -235.049655 
L 116.505509 -235.049655 
L 113.374257 -235.049655 
L 110.243005 -235.049655 
L 107.111754 -235.049655 
L 103.980502 -235.049655 
L 100.84925 -235.049655 
L 97.717999 -235.049655 
L 94.586747 -235.049655 
L 91.455495 -235.049655 
L 88.324243 -235.049655 
L 85.192992 -235.049655 
L 82.06174 -235.049655 
L 78.930488 -235.049655 
L 75.799237 -235.049655 
z
" id="m2009a52944" style="stroke:#808080;stroke-opacity:0.2;stroke-width:0.8;"/>
    </defs>
    <g clip-path="url(#pd79a46ca21)">
     <use style="fill:#808080;fill-opacity:0.2;stroke:#808080;stroke-opacity:0.2;stroke-width:0.8;" x="0" xlink:href="#m2009a52944" y="266.760567"/>
    </g>
   </g>
   <g id="PolyCollection_2">
    <defs>
     <path d="M 75.799237 -235.049655 
L 75.799237 -235.049655 
L 78.930488 -142.313698 
L 82.06174 -152.157179 
L 85.192992 -161.61531 
L 88.324243 -171.250054 
L 91.455495 -181.211316 
L 94.586747 -185.95456 
L 97.717999 -189.293334 
L 100.84925 -192.458118 
L 103.980502 -195.642284 
L 107.111754 -198.978091 
L 110.243005 -201.228701 
L 113.374257 -202.674445 
L 116.505509 -204.134434 
L 119.63676 -205.22148 
L 122.768012 -206.704012 
L 125.899264 -208.203996 
L 129.030515 -208.925662 
L 132.161767 -209.775346 
L 135.293019 -210.260792 
L 138.424271 -211.240172 
L 141.555522 -211.552729 
L 144.686774 -210.813304 
L 147.818026 -209.768165 
L 150.949277 -209.286438 
L 154.080529 -207.06399 
L 157.211781 -206.160484 
L 160.343032 -204.719152 
L 163.474284 -202.008439 
L 166.605536 -200.571073 
L 169.736788 -198.305193 
L 172.868039 -198.132096 
L 175.999291 -196.835087 
L 179.130543 -194.135321 
L 182.261794 -193.065711 
L 185.393046 -193.074831 
L 188.524298 -193.307207 
L 191.655549 -192.586055 
L 194.786801 -192.51978 
L 197.918053 -192.262962 
L 201.049304 -190.517946 
L 204.180556 -189.464955 
L 207.311808 -188.663348 
L 210.44306 -187.598118 
L 213.574311 -187.464585 
L 216.705563 -186.857134 
L 219.836815 -186.291592 
L 222.968066 -185.809782 
L 226.099318 -182.409004 
L 229.23057 -182.30457 
L 232.361821 -181.016915 
L 235.493073 -180.6231 
L 238.624325 -179.322997 
L 241.755577 -174.122293 
L 244.886828 -174.304773 
L 248.01808 -172.552676 
L 251.149332 -172.337917 
L 254.280583 -170.241334 
L 257.411835 -170.58364 
L 260.543087 -171.049103 
L 263.674338 -170.344111 
L 266.80559 -170.827037 
L 269.936842 -169.226618 
L 273.068093 -162.111684 
L 276.199345 -162.694684 
L 279.330597 -160.570768 
L 282.461849 -161.113675 
L 285.5931 -152.012897 
L 288.724352 -152.657631 
L 291.855604 -153.305254 
L 294.986855 -152.66613 
L 298.118107 -153.294464 
L 301.249359 -152.697728 
L 304.38061 -147.877519 
L 307.511862 -148.47963 
L 310.643114 -144.619311 
L 313.774366 -145.214968 
L 316.905617 -144.921956 
L 320.036869 -145.50293 
L 323.168121 -137.897191 
L 326.299372 -136.202699 
L 329.430624 -136.743475 
L 332.561876 -132.152645 
L 335.693127 -132.675972 
L 338.824379 -130.9071 
L 341.955631 -127.405692 
L 345.086882 -127.886332 
L 348.218134 -125.26269 
L 351.349386 -125.707021 
L 354.480638 -126.11513 
L 357.611889 -118.955319 
L 360.743141 -119.25166 
L 363.874393 -117.357733 
L 367.005644 -117.488744 
L 370.136896 -110.339734 
L 373.268148 -109.532564 
L 376.399399 -86.628996 
L 379.530651 -84.206553 
L 382.661903 -78.185789 
L 385.793155 -64.083923 
L 385.793155 -109.885377 
L 385.793155 -109.885377 
L 382.661903 -162.320823 
L 379.530651 -168.03565 
L 376.399399 -171.353488 
L 373.268148 -213.070089 
L 370.136896 -213.667888 
L 367.005644 -222.452423 
L 363.874393 -222.490506 
L 360.743141 -222.082924 
L 357.611889 -221.998293 
L 354.480638 -220.533878 
L 351.349386 -220.41642 
L 348.218134 -220.270719 
L 345.086882 -219.687053 
L 341.955631 -219.537933 
L 338.824379 -218.948014 
L 335.693127 -222.592407 
L 332.561876 -222.472584 
L 329.430624 -221.948316 
L 326.299372 -221.839121 
L 323.168121 -221.669755 
L 320.036869 -222.659383 
L 316.905617 -222.533347 
L 313.774366 -222.320443 
L 310.643114 -222.195052 
L 307.511862 -221.801776 
L 304.38061 -221.68281 
L 301.249359 -223.4092 
L 298.118107 -223.175563 
L 294.986855 -223.041809 
L 291.855604 -222.829043 
L 288.724352 -222.696411 
L 285.5931 -222.552061 
L 282.461849 -223.068632 
L 279.330597 -222.912196 
L 276.199345 -223.590925 
L 273.068093 -223.434565 
L 269.936842 -232.460629 
L 266.80559 -232.902788 
L 263.674338 -232.804401 
L 260.543087 -233.057041 
L 257.411835 -232.95102 
L 254.280583 -232.812948 
L 251.149332 -233.652643 
L 248.01808 -233.367111 
L 244.886828 -234.85146 
L 241.755577 -234.663959 
L 238.624325 -235.049655 
L 235.493073 -235.049655 
L 232.361821 -235.049655 
L 229.23057 -235.049655 
L 226.099318 -235.049655 
L 222.968066 -235.049655 
L 219.836815 -235.049655 
L 216.705563 -235.049655 
L 213.574311 -235.049655 
L 210.44306 -235.049655 
L 207.311808 -235.049655 
L 204.180556 -235.049655 
L 201.049304 -235.049655 
L 197.918053 -235.049655 
L 194.786801 -235.049655 
L 191.655549 -235.049655 
L 188.524298 -235.049655 
L 185.393046 -235.049655 
L 182.261794 -235.049655 
L 179.130543 -235.049655 
L 175.999291 -235.049655 
L 172.868039 -235.049655 
L 169.736788 -235.049655 
L 166.605536 -235.049655 
L 163.474284 -235.049655 
L 160.343032 -235.049655 
L 157.211781 -235.049655 
L 154.080529 -235.049655 
L 150.949277 -235.049655 
L 147.818026 -235.049655 
L 144.686774 -235.049655 
L 141.555522 -235.049655 
L 138.424271 -235.049655 
L 135.293019 -235.049655 
L 132.161767 -235.049655 
L 129.030515 -235.049655 
L 125.899264 -235.049655 
L 122.768012 -235.049655 
L 119.63676 -235.049655 
L 116.505509 -235.049655 
L 113.374257 -235.049655 
L 110.243005 -235.049655 
L 107.111754 -235.049655 
L 103.980502 -235.049655 
L 100.84925 -235.049655 
L 97.717999 -235.049655 
L 94.586747 -235.049655 
L 91.455495 -235.049655 
L 88.324243 -235.049655 
L 85.192992 -235.049655 
L 82.06174 -235.049655 
L 78.930488 -235.049655 
L 75.799237 -235.049655 
z
" id="ma3a535462a" style="stroke:#808080;stroke-opacity:0.2;stroke-width:0.8;"/>
    </defs>
    <g clip-path="url(#pd79a46ca21)">
     <use style="fill:#808080;fill-opacity:0.2;stroke:#808080;stroke-opacity:0.2;stroke-width:0.8;" x="0" xlink:href="#ma3a535462a" y="266.760567"/>
    </g>
   </g>
   <g id="line2d_13">
    <path clip-path="url(#pd79a46ca21)" d="M 385.793155 194.341954 
L 372.484301 194.341954 
L 372.484301 107.065163 
L 371.870046 107.065163 
L 371.870046 106.967604 
L 371.870046 98.101158 
L 371.665294 98.101158 
L 371.665294 97.506153 
L 371.460543 97.506153 
L 371.460543 97.534175 
L 371.460543 96.265214 
L 371.05104 96.293051 
L 371.05104 94.167583 
L 370.846288 94.167583 
L 370.846288 94.147296 
L 370.846288 93.473798 
L 370.641536 93.501187 
L 370.641536 93.452751 
L 370.641536 92.770102 
L 370.436785 92.770102 
L 370.436785 92.699134 
L 370.436785 92.353913 
L 370.232033 92.353913 
L 370.232033 92.133153 
L 369.82253 92.110596 
L 369.82253 92.038162 
L 369.82253 90.828447 
L 367.979766 90.737595 
L 367.979766 90.764671 
L 367.979766 90.610452 
L 367.775014 90.610452 
L 367.775014 90.63752 
L 367.775014 90.275936 
L 367.365511 90.199188 
L 367.365511 90.226204 
L 367.365511 85.461813 
L 366.956008 85.431228 
L 366.956008 85.45713 
L 366.956008 84.832111 
L 366.751256 84.832111 
L 366.751256 84.743486 
L 366.751256 77.89888 
L 366.546504 77.89888 
L 366.546504 77.858474 
L 366.546504 77.278224 
L 365.93225 77.260499 
L 365.93225 77.284075 
L 365.93225 77.089063 
L 365.727498 77.089063 
L 365.727498 76.982211 
L 365.727498 76.916915 
L 364.908492 76.85655 
L 364.908492 76.814488 
L 364.908492 76.154834 
L 364.70374 76.154834 
L 364.70374 76.045332 
L 364.70374 75.77888 
L 364.089485 75.691553 
L 364.089485 75.71475 
L 364.089485 75.513542 
L 363.679982 75.46946 
L 363.679982 75.425283 
L 363.679982 75.019809 
L 363.270479 74.974967 
L 363.270479 74.99798 
L 363.270479 74.246527 
L 363.065727 74.246527 
L 363.065727 74.20052 
L 363.065727 73.786304 
L 362.860976 73.808925 
L 362.860976 73.808925 
L 362.860976 73.112343 
L 362.656224 73.112343 
L 362.656224 73.064636 
L 362.656224 72.713002 
L 362.451472 72.713002 
L 362.451472 72.66468 
L 362.451472 72.594021 
L 362.041969 72.616253 
L 362.041969 72.638508 
L 362.041969 72.141366 
L 360.81346 72.180608 
L 360.81346 72.059575 
L 360.81346 71.772189 
L 360.608708 71.772189 
L 360.608708 71.722165 
L 360.608708 71.650014 
L 359.994453 71.694072 
L 359.994453 71.57143 
L 359.994453 71.135382 
L 359.789702 71.135382 
L 359.789702 71.084263 
L 359.789702 70.202079 
L 359.380198 70.149516 
L 359.380198 70.171026 
L 359.380198 69.350327 
L 359.175447 69.350327 
L 359.175447 69.296388 
L 359.175447 68.768 
L 358.765944 68.788984 
L 358.765944 68.658129 
L 358.765944 68.505921 
L 358.561192 68.505921 
L 358.561192 68.450563 
L 358.561192 68.297773 
L 358.356441 68.297773 
L 358.356441 68.242051 
L 358.356441 67.626437 
L 358.151689 67.626437 
L 358.151689 67.569627 
L 358.151689 67.025467 
L 357.946937 67.025467 
L 357.946937 66.96767 
L 357.946937 66.418241 
L 357.127931 66.320564 
L 357.127931 66.340651 
L 357.127931 66.102855 
L 356.718428 66.043378 
L 356.718428 66.063374 
L 356.718428 63.386273 
L 356.308925 63.322292 
L 356.308925 63.341098 
L 356.308925 63.008753 
L 356.104173 63.008753 
L 356.104173 62.944054 
L 356.104173 61.68141 
L 355.899421 61.68141 
L 355.899421 61.614447 
L 355.899421 59.015021 
L 355.69467 59.015021 
L 355.69467 58.94346 
L 355.69467 58.766449 
L 355.489918 58.783119 
L 355.489918 58.694406 
L 355.489918 58.427607 
L 355.285167 58.427607 
L 355.285167 58.354922 
L 355.285167 57.907274 
L 355.080415 57.907274 
L 355.080415 57.833626 
L 355.080415 57.653473 
L 354.670912 57.669616 
L 354.670912 57.595443 
L 354.670912 57.323755 
L 354.46616 57.339753 
L 354.46616 57.248918 
L 354.46616 56.975729 
L 354.056657 56.991559 
L 354.056657 56.916023 
L 354.056657 56.824522 
L 353.647154 56.748633 
L 353.647154 56.76438 
L 353.647154 56.580612 
L 353.442402 56.596283 
L 353.442402 56.504177 
L 353.442402 56.319615 
L 353.237651 56.319615 
L 353.237651 56.242657 
L 353.237651 55.404827 
L 353.032899 55.404827 
L 353.032899 55.326165 
L 353.032899 54.950031 
L 352.828147 54.950031 
L 352.828147 54.870487 
L 352.828147 54.586608 
L 352.213893 54.615936 
L 352.213893 54.535605 
L 352.213893 54.44046 
L 352.009141 54.44046 
L 352.009141 54.359748 
L 352.009141 53.303086 
L 351.804389 53.303086 
L 351.804389 53.220219 
L 351.804389 53.123232 
L 351.394886 53.03997 
L 351.394886 53.053838 
L 351.394886 52.95649 
L 350.780631 52.984172 
L 350.780631 52.900402 
L 350.780631 52.802637 
L 350.371128 52.816413 
L 350.371128 52.732205 
L 350.371128 52.634074 
L 350.166377 52.634074 
L 350.166377 52.549461 
L 350.166377 52.352443 
L 349.961625 52.352443 
L 349.961625 52.267238 
L 349.961625 51.771492 
L 349.142619 51.711529 
L 349.142619 51.724757 
L 349.142619 51.424654 
L 348.528364 51.350401 
L 348.528364 51.363451 
L 348.528364 51.262844 
L 347.914109 51.18802 
L 347.914109 51.201005 
L 347.914109 50.998768 
L 347.504606 50.910272 
L 347.504606 50.923114 
L 347.504606 50.719827 
L 347.299854 50.719827 
L 347.299854 50.630661 
L 347.299854 50.528616 
L 347.095103 50.528616 
L 347.095103 50.439013 
L 347.095103 50.131462 
L 346.480848 50.053389 
L 346.480848 50.065774 
L 346.480848 49.859404 
L 346.276096 49.859404 
L 346.276096 49.768226 
L 346.276096 49.457015 
L 345.866593 49.364982 
L 345.866593 49.376983 
L 345.866593 49.272698 
L 345.047587 49.203995 
L 345.047587 49.215935 
L 345.047587 48.161223 
L 344.638084 48.066202 
L 344.638084 48.077466 
L 344.638084 47.757385 
L 344.433332 47.757385 
L 344.433332 47.661412 
L 344.433332 47.554209 
L 344.22858 47.554209 
L 344.22858 47.457755 
L 344.22858 47.350188 
L 343.614326 47.371895 
L 343.614326 47.274852 
L 343.614326 46.950197 
L 343.409574 46.950197 
L 343.409574 46.852228 
L 343.409574 46.743488 
L 343.000071 46.645025 
L 343.000071 46.655469 
L 343.000071 46.546286 
L 342.795319 46.546286 
L 342.795319 46.447271 
L 342.795319 46.337713 
L 342.181064 46.248405 
L 342.181064 46.258629 
L 342.181064 46.038321 
L 341.771561 46.048418 
L 341.771561 45.948001 
L 341.771561 45.726477 
L 340.543052 45.776177 
L 340.543052 45.674732 
L 340.543052 45.339497 
L 339.519294 45.378408 
L 339.519294 45.275741 
L 339.519294 44.711175 
L 339.10979 44.720508 
L 339.10979 44.616305 
L 339.10979 44.046101 
L 338.905039 44.046101 
L 338.905039 43.940397 
L 338.905039 43.364848 
L 338.495536 43.257617 
L 338.495536 43.266008 
L 338.495536 42.917697 
L 338.290784 42.925865 
L 338.290784 42.809343 
L 338.290784 42.57579 
L 337.676529 42.591686 
L 337.676529 42.482379 
L 337.676529 42.364934 
L 337.062274 42.262801 
L 337.062274 42.27056 
L 337.062274 42.034321 
L 336.038516 42.064818 
L 336.038516 41.953681 
L 336.038516 41.834715 
L 335.833765 41.834715 
L 335.833765 41.842214 
L 335.833765 41.722989 
L 335.014758 41.745304 
L 335.014758 41.63303 
L 335.014758 41.513117 
L 333.786249 41.429233 
L 333.786249 41.436507 
L 333.786249 41.315728 
L 333.581497 41.315728 
L 333.581497 41.322928 
L 333.581497 41.201882 
L 332.352988 41.115959 
L 332.352988 41.001125 
L 332.148236 41.001125 
L 332.148236 41.008142 
L 332.148236 40.885943 
L 331.533981 40.777276 
L 331.533981 40.78415 
L 331.533981 40.415094 
L 329.281714 40.357454 
L 329.281714 40.364085 
L 329.281714 40.239517 
L 328.872211 40.246067 
L 328.872211 40.252628 
L 328.872211 40.127686 
L 325.391433 40.232568 
L 325.391433 40.23921 
L 324.162924 40.145399 
L 324.162924 40.15201 
L 324.162924 40.024539 
L 323.958172 40.024539 
L 323.958172 40.031065 
L 323.958172 39.903299 
L 322.524911 39.813553 
L 322.524911 39.819958 
L 322.524911 39.691116 
L 318.839382 39.799908 
L 318.839382 39.8064 
L 306.96379 39.783492 
L 306.96379 39.790305 
L 306.96379 39.652732 
L 303.483013 39.761524 
L 303.483013 39.768422 
L 296.111955 39.873732 
L 296.111955 39.880955 
L 292.835929 39.990866 
L 292.835929 39.998299 
L 289.764656 40.103775 
L 289.764656 40.111412 
L 289.764656 39.963356 
L 287.307636 39.897116 
L 287.307636 39.904661 
L 287.307636 39.754502 
L 285.26012 39.814306 
L 285.26012 39.677628 
L 285.26012 39.525577 
L 281.779343 39.636475 
L 281.779343 39.6515 
L 278.708069 39.735165 
L 278.708069 39.766028 
L 271.337012 39.836016 
L 271.337012 39.892721 
L 268.470489 40.000159 
L 268.470489 40.008541 
L 268.060986 40.016939 
L 268.060986 39.695098 
L 265.194464 39.801882 
L 265.194464 39.810215 
L 261.918438 39.741661 
L 261.918438 39.604398 
L 261.713687 39.612689 
L 261.713687 39.612689 
L 261.713687 39.441223 
L 258.847164 39.498545 
L 258.847164 39.556724 
L 258.847164 39.207805 
L 258.437661 39.215831 
L 258.437661 39.223875 
L 258.437661 38.520096 
L 255.980642 38.422761 
L 255.980642 38.430089 
L 255.980642 38.070687 
L 252.295113 38.169617 
L 252.295113 38.19845 
L 252.090362 38.19845 
L 252.090362 37.837343 
L 248.814336 37.942009 
L 248.814336 37.949114 
L 248.609585 37.949114 
L 248.609585 37.767983 
L 247.790578 37.78186 
L 247.790578 37.606282 
L 241.852782 37.613066 
L 241.852782 37.80957 
L 241.238527 37.816831 
L 241.238527 37.634455 
L 240.624272 37.634455 
L 240.624272 37.457659 
L 228.543928 37.431773 
L 228.543928 37.254547 
L 216.258832 37.290733 
L 216.258832 37.490035 
L 213.187558 37.589389 
L 213.187558 37.614764 
L 207.454514 37.666176 
L 207.454514 37.862602 
L 207.04501 37.871839 
L 207.04501 37.632917 
L 206.840259 37.632917 
L 206.840259 37.142501 
L 203.973736 37.242931 
L 203.973736 37.260031 
L 203.973736 37.003968 
L 200.288208 37.112672 
L 200.288208 37.15568 
L 196.602679 37.261747 
L 196.602679 37.316345 
L 192.91715 37.419283 
L 192.91715 37.486781 
L 189.845876 37.596135 
L 189.845876 37.636933 
L 187.388857 37.741449 
L 187.388857 37.762796 
L 184.317583 37.838716 
L 184.317583 37.927847 
L 184.112831 37.927847 
L 184.112831 37.939171 
L 184.112831 37.638556 
L 179.813048 37.649392 
L 179.813048 37.874761 
L 177.765532 37.957736 
L 177.765532 37.993985 
L 175.718016 38.080223 
L 175.718016 38.117911 
L 173.875252 38.207609 
L 173.875252 38.2337 
L 173.260997 38.2337 
L 173.260997 37.940432 
L 171.418232 38.042976 
L 171.418232 38.056031 
L 169.575468 38.162449 
L 169.575468 38.176002 
L 168.55171 38.230791 
L 168.55171 38.244634 
L 168.55171 37.894778 
L 166.708946 38.001858 
L 166.708946 38.015505 
L 165.070933 38.112712 
L 165.070933 38.126844 
L 163.842423 38.19845 
L 163.842423 38.212964 
L 163.842423 37.844211 
L 163.637672 37.844211 
L 163.637672 37.857994 
L 163.637672 37.486781 
L 161.999659 37.5793 
L 161.999659 37.59276 
L 161.999659 37.213257 
L 160.156895 37.316345 
L 160.156895 37.329504 
L 158.31413 37.437037 
L 158.31413 37.450768 
L 156.676117 37.548766 
L 156.676117 37.563039 
L 155.038105 37.664942 
L 155.038105 37.67979 
L 153.400092 37.785836 
L 153.400092 37.801294 
L 151.762079 37.911741 
L 151.762079 37.927847 
L 150.328818 38.026268 
L 150.328818 38.042976 
L 148.895557 38.145106 
L 148.895557 38.162449 
L 147.462296 38.268501 
L 147.462296 38.286517 
L 147.052792 38.304631 
L 147.052792 38.322846 
L 147.052792 37.867572 
L 146.233786 37.919164 
L 146.233786 37.936554 
L 146.233786 37.473801 
L 144.800525 37.572594 
L 144.800525 37.589389 
L 143.367264 37.69222 
L 143.367264 37.709709 
L 141.934003 37.816831 
L 141.934003 37.835057 
L 140.705493 37.927847 
L 140.705493 37.946744 
L 139.476983 38.042976 
L 139.476983 38.06258 
L 138.248474 38.162449 
L 138.248474 38.1828 
L 137.019964 38.286517 
L 137.019964 38.30766 
L 135.791455 38.41545 
L 135.791455 38.437432 
L 134.972448 38.504252 
L 134.972448 38.526821 
L 134.972448 37.979655 
L 134.767697 37.979655 
L 134.767697 38.000621 
L 134.767697 37.448017 
L 134.153442 37.486781 
L 134.153442 37.50636 
L 134.153442 36.944556 
L 132.720181 37.053591 
L 132.720181 37.072206 
L 131.491671 37.167265 
L 131.491671 37.186682 
L 131.491671 36.595647 
L 130.263161 36.68446 
L 130.263161 36.702612 
L 130.263161 35.482214 
L 128.625149 35.581834 
L 128.625149 35.596496 
L 126.987136 35.702329 
L 126.987136 35.717921 
L 126.372881 35.749472 
L 126.372881 35.765435 
L 126.372881 35.103089 
L 123.915862 35.171756 
L 123.915862 35.272698 
L 122.687352 35.34848 
L 122.687352 33.921675 
L 120.844588 34.000631 
L 120.844588 34.010899 
L 120.844588 33.251143 
L 120.435085 33.251143 
L 120.435085 33.265145 
L 120.435085 32.491577 
L 119.206575 32.509817 
L 119.206575 32.513568 
L 119.206575 31.710912 
L 75.799237 31.710912 
L 75.799237 31.710912 
" style="fill:none;stroke:#0173b2;stroke-linecap:round;stroke-opacity:0.3;"/>
   </g>
   <g id="line2d_14">
    <path clip-path="url(#pd79a46ca21)" d="M 385.793155 47.993362 
L 369.477685 47.993362 
L 369.477685 48.807485 
L 353.162216 48.807485 
L 353.162216 49.707304 
L 336.846746 49.707304 
L 336.846746 50.707104 
L 320.531277 50.707104 
L 320.531277 51.824527 
L 304.215808 51.824527 
L 304.215808 53.081628 
L 304.215808 53.081628 
L 304.215808 43.108627 
L 287.900338 43.108627 
L 287.900338 43.92275 
L 271.584869 43.92275 
L 271.584869 44.862122 
L 255.2694 44.862122 
L 255.2694 45.958056 
L 238.95393 45.958056 
L 238.95393 47.253251 
L 222.638461 47.253251 
L 222.638461 48.807485 
L 206.322992 48.807485 
L 206.322992 50.707104 
L 190.007522 50.707104 
L 190.007522 53.081628 
L 173.692053 53.081628 
L 173.692053 56.134588 
L 157.376583 56.134588 
L 157.376583 60.2052 
L 141.061114 60.2052 
L 141.061114 65.904058 
L 124.745645 65.904058 
L 124.745645 74.452345 
L 124.745645 74.452345 
L 124.745645 31.710912 
L 108.430175 31.710912 
L 108.430175 31.710912 
L 92.114706 31.710912 
L 92.114706 31.710912 
L 75.799237 31.710912 
L 75.799237 31.710912 
" style="fill:none;stroke:#de8f05;stroke-linecap:round;stroke-opacity:0.3;"/>
   </g>
   <g id="line2d_15">
    <path clip-path="url(#pd79a46ca21)" d="M 385.793155 97.891195 
L 369.477685 97.891195 
L 369.477685 100.097204 
L 369.477685 100.097204 
L 369.477685 96.559982 
L 369.477685 96.559982 
L 369.477685 92.770102 
L 369.477685 92.770102 
L 369.477685 88.699489 
L 353.162216 88.699489 
L 353.162216 90.891357 
L 353.162216 90.891357 
L 353.162216 86.419946 
L 353.162216 86.419946 
L 353.162216 81.575917 
L 353.162216 81.575917 
L 353.162216 76.310668 
L 353.162216 76.310668 
L 353.162216 70.56676 
L 353.162216 70.56676 
L 353.162216 64.275813 
L 353.162216 64.275813 
L 353.162216 57.355771 
L 353.162216 57.355771 
L 353.162216 49.707304 
L 336.846746 49.707304 
L 336.846746 50.707104 
L 320.531277 50.707104 
L 320.531277 51.824527 
L 304.215808 51.824527 
L 304.215808 53.081628 
L 287.900338 53.081628 
L 287.900338 54.506342 
L 271.584869 54.506342 
L 271.584869 56.134588 
L 255.2694 56.134588 
L 255.2694 58.013332 
L 238.95393 58.013332 
L 238.95393 60.2052 
L 222.638461 60.2052 
L 222.638461 62.79559 
L 206.322992 62.79559 
L 206.322992 65.904058 
L 190.007522 65.904058 
L 190.007522 69.703296 
L 173.692053 69.703296 
L 173.692053 74.452345 
L 157.376583 74.452345 
L 157.376583 80.558264 
L 157.376583 80.558264 
L 157.376583 60.2052 
L 157.376583 60.2052 
L 157.376583 31.710912 
L 141.061114 31.710912 
L 141.061114 31.710912 
L 124.745645 31.710912 
L 124.745645 31.710912 
L 108.430175 31.710912 
L 108.430175 31.710912 
L 92.114706 31.710912 
L 92.114706 31.710912 
L 75.799237 31.710912 
L 75.799237 31.710912 
" style="fill:none;stroke:#029e73;stroke-linecap:round;stroke-opacity:0.3;"/>
   </g>
   <g id="line2d_16">
    <path clip-path="url(#pd79a46ca21)" d="M 385.793155 185.005767 
L 378.043307 185.005767 
L 378.043307 185.402904 
L 378.043307 179.525034 
L 370.293459 179.525034 
L 370.293459 180.040066 
L 370.293459 169.188511 
L 362.543611 169.188511 
L 362.543611 169.90083 
L 362.543611 160.222066 
L 354.793763 160.222066 
L 354.793763 161.090385 
L 354.793763 100.097204 
L 347.043915 100.097204 
L 347.043915 101.256294 
L 347.043915 89.774745 
L 339.294067 89.774745 
L 339.294067 90.891357 
L 339.294067 88.699489 
L 331.544219 88.699489 
L 331.544219 89.83926 
L 331.544219 45.958056 
L 323.794371 45.958056 
L 323.794371 46.365117 
L 316.044523 46.365117 
L 316.044523 46.796123 
L 316.044523 42.072471 
L 308.294675 42.072471 
L 308.294675 42.39627 
L 308.294675 37.225935 
L 300.544827 37.225935 
L 300.544827 37.409769 
L 292.794979 37.409769 
L 292.794979 37.606282 
L 285.045131 37.606282 
L 285.045131 37.816831 
L 285.045131 31.710912 
L 75.799237 31.710912 
L 75.799237 31.710912 
" style="fill:none;stroke:#d55e00;stroke-linecap:round;stroke-opacity:0.3;"/>
   </g>
   <g id="line2d_17">
    <path clip-path="url(#pd79a46ca21)" d="M 385.793155 75.673528 
L 373.870312 75.673528 
L 373.870312 76.966546 
L 373.870312 76.966546 
L 373.870312 73.15715 
L 373.870312 73.15715 
L 373.870312 69.109665 
L 373.870312 69.109665 
L 373.870312 64.801053 
L 373.870312 64.801053 
L 373.870312 60.2052 
L 373.870312 60.2052 
L 373.870312 55.292392 
L 373.870312 55.292392 
L 373.870312 50.028669 
L 361.947469 50.028669 
L 361.947469 50.707104 
L 361.947469 50.707104 
L 361.947469 44.862122 
L 361.947469 44.862122 
L 361.947469 38.549541 
L 350.024626 38.549541 
L 350.024626 38.834484 
L 350.024626 38.834484 
L 350.024626 31.710912 
L 338.101783 31.710912 
L 338.101783 31.710912 
L 326.17894 31.710912 
L 326.17894 31.710912 
L 314.256097 31.710912 
L 314.256097 31.710912 
L 302.333254 31.710912 
L 302.333254 31.710912 
L 290.410411 31.710912 
L 290.410411 31.710912 
L 278.487568 31.710912 
L 278.487568 31.710912 
L 266.564725 31.710912 
L 266.564725 31.710912 
L 254.641882 31.710912 
L 254.641882 31.710912 
L 230.796196 31.710912 
L 230.796196 31.710912 
L 218.873353 31.710912 
L 218.873353 31.710912 
L 206.95051 31.710912 
L 206.95051 31.710912 
L 195.027667 31.710912 
L 195.027667 31.710912 
L 183.104824 31.710912 
L 183.104824 31.710912 
L 171.181981 31.710912 
L 171.181981 31.710912 
L 159.259138 31.710912 
L 159.259138 31.710912 
L 147.336295 31.710912 
L 147.336295 31.710912 
L 135.413452 31.710912 
L 135.413452 31.710912 
L 123.490609 31.710912 
L 123.490609 31.710912 
L 111.567766 31.710912 
L 111.567766 31.710912 
L 99.644923 31.710912 
L 99.644923 31.710912 
L 87.72208 31.710912 
L 87.72208 31.710912 
L 75.799237 31.710912 
L 75.799237 31.710912 
" style="fill:none;stroke:#cc78bc;stroke-linecap:round;stroke-opacity:0.3;"/>
   </g>
   <g id="line2d_18">
    <path clip-path="url(#pd79a46ca21)" d="M 75.799237 31.710912 
L 78.930488 33.589031 
L 82.06174 35.46715 
L 85.192992 37.34527 
L 88.324243 38.743687 
L 91.455495 38.127357 
L 94.586747 37.511027 
L 97.717999 36.894697 
L 100.84925 36.398292 
L 103.980502 36.093768 
L 107.111754 35.789245 
L 110.243005 35.484721 
L 113.374257 35.252152 
L 116.505509 35.072351 
L 119.63676 35.025019 
L 122.768012 35.174887 
L 125.899264 42.174354 
L 129.030515 41.855658 
L 132.161767 41.724135 
L 135.293019 41.56125 
L 138.424271 41.150271 
L 141.555522 40.760046 
L 144.686774 40.450909 
L 147.818026 40.306918 
L 150.949277 40.028563 
L 154.080529 39.767392 
L 157.211781 39.506927 
L 160.343032 47.224911 
L 163.474284 46.869117 
L 166.605536 46.632777 
L 169.736788 46.299425 
L 172.868039 45.913057 
L 175.999291 45.642307 
L 179.130543 45.33667 
L 182.261794 45.057766 
L 185.393046 44.832367 
L 188.524298 44.533589 
L 191.655549 44.286331 
L 194.786801 44.01784 
L 197.918053 43.866103 
L 201.049304 43.667789 
L 204.180556 43.530739 
L 207.311808 43.424494 
L 210.44306 43.241031 
L 213.574311 43.113201 
L 216.705563 42.911241 
L 219.836815 42.720469 
L 222.968066 42.569744 
L 226.099318 42.442032 
L 229.23057 42.281893 
L 232.361821 42.217044 
L 235.493073 42.111958 
L 238.624325 41.984469 
L 241.755577 42.028456 
L 244.886828 41.878354 
L 248.01808 41.760954 
L 251.149332 41.671018 
L 254.280583 41.596519 
L 257.411835 41.535583 
L 260.543087 41.57772 
L 263.674338 41.544266 
L 266.80559 41.397272 
L 269.936842 41.332734 
L 273.068093 41.206911 
L 276.199345 41.11511 
L 279.330597 40.985467 
L 282.461849 40.883625 
L 285.5931 41.822288 
L 288.724352 41.760702 
L 291.855604 41.65508 
L 294.986855 41.565908 
L 298.118107 41.475058 
L 301.249359 41.418715 
L 304.38061 42.965491 
L 307.511862 42.854787 
L 310.643114 43.610989 
L 313.774366 43.501613 
L 316.905617 44.157555 
L 320.036869 44.041952 
L 323.168121 43.966612 
L 326.299372 43.904125 
L 329.430624 43.853792 
L 332.561876 51.188833 
L 335.693127 51.144612 
L 338.824379 51.294989 
L 341.955631 52.008689 
L 345.086882 52.406712 
L 348.218134 54.516655 
L 351.349386 55.320259 
L 354.480638 62.863434 
L 357.611889 74.384421 
L 360.743141 75.253096 
L 363.874393 79.939666 
L 367.005644 81.773494 
L 370.136896 84.851002 
L 373.268148 91.152077 
L 376.399399 107.541674 
L 379.530651 118.967605 
L 382.661903 128.238982 
L 385.793155 202.676644 
" style="fill:none;stroke:#0173b2;stroke-linecap:round;stroke-opacity:0.8;stroke-width:2;"/>
   </g>
   <g id="line2d_19">
    <path clip-path="url(#pd79a46ca21)" d="M 75.799237 31.710912 
L 78.930488 62.622897 
L 82.06174 59.341737 
L 85.192992 56.790007 
L 88.324243 53.862 
L 91.455495 50.369846 
L 94.586747 48.673432 
L 97.717999 47.47741 
L 100.84925 46.57498 
L 103.980502 45.628532 
L 107.111754 44.440699 
L 110.243005 43.779003 
L 113.374257 43.501513 
L 116.505509 43.179186 
L 119.63676 43.250097 
L 122.768012 42.834029 
L 125.899264 42.236969 
L 129.030515 42.138932 
L 132.161767 41.905719 
L 135.293019 41.962305 
L 138.424271 41.599447 
L 141.555522 41.701139 
L 144.686774 42.33012 
L 147.818026 42.989164 
L 150.949277 43.269696 
L 154.080529 44.272154 
L 157.211781 44.618186 
L 160.343032 45.15871 
L 163.474284 46.150037 
L 166.605536 46.624039 
L 169.736788 49.525368 
L 172.868039 49.455303 
L 175.999291 49.799866 
L 179.130543 52.061617 
L 182.261794 52.310772 
L 185.393046 52.167543 
L 188.524298 51.948012 
L 191.655549 52.075055 
L 194.786801 51.980788 
L 197.918053 51.953184 
L 201.049304 52.447082 
L 204.180556 52.697442 
L 207.311808 52.861265 
L 210.44306 53.127491 
L 213.574311 53.071323 
L 216.705563 53.179395 
L 219.836815 53.274552 
L 222.968066 53.340959 
L 226.099318 56.178335 
L 229.23057 56.111329 
L 232.361821 57.108997 
L 235.493073 57.146582 
L 238.624325 57.503267 
L 241.755577 62.36744 
L 244.886828 62.18245 
L 248.01808 63.800673 
L 251.149332 63.765287 
L 254.280583 65.233426 
L 257.411835 64.993237 
L 260.543087 64.707495 
L 263.674338 65.186311 
L 266.80559 64.895655 
L 269.936842 65.916943 
L 273.068093 73.987442 
L 276.199345 73.617762 
L 279.330597 75.019085 
L 282.461849 74.669414 
L 285.5931 79.478088 
L 288.724352 79.083546 
L 291.855604 78.693418 
L 294.986855 78.906598 
L 298.118107 78.525553 
L 301.249359 78.707103 
L 304.38061 81.980403 
L 307.511862 81.619864 
L 310.643114 83.353385 
L 313.774366 82.992862 
L 316.905617 83.032916 
L 320.036869 82.67941 
L 323.168121 86.977094 
L 326.299372 87.739657 
L 329.430624 87.414671 
L 332.561876 89.447952 
L 335.693127 89.126378 
L 338.824379 91.83301 
L 341.955631 93.288754 
L 345.086882 92.973874 
L 348.218134 93.993862 
L 351.349386 93.698846 
L 354.480638 93.436063 
L 357.611889 96.283761 
L 360.743141 96.093275 
L 363.874393 96.836447 
L 367.005644 96.789983 
L 370.136896 104.756756 
L 373.268148 105.459241 
L 376.399399 137.769325 
L 379.530651 140.639465 
L 382.661903 146.507261 
L 385.793155 202.676644 
" style="fill:none;stroke:#d55e00;stroke-linecap:round;stroke-opacity:0.8;stroke-width:2;"/>
   </g>
   <g id="patch_3">
    <path d="M 50.299541 202.676644 
L 50.299541 31.710912 
" style="fill:none;stroke:#262626;stroke-linecap:square;stroke-linejoin:miter;"/>
   </g>
   <g id="patch_4">
    <path d="M 75.799237 221.22493 
L 385.793155 221.22493 
" style="fill:none;stroke:#262626;stroke-linecap:square;stroke-linejoin:miter;"/>
   </g>
   <g id="text_15">
    <!-- Precision Recall Curves -->
    <g style="fill:#262626;" transform="translate(158.338823 17.162625)scale(0.144 -0.144)">
     <defs>
      <path d="M 62.09375 67.984375 
C 62.09375 69.796875 62 69.890625 61.40625 69.890625 
C 61 69.890625 60.90625 69.796875 60.203125 68.59375 
L 55.796875 60.140625 
C 50.90625 66.390625 44.90625 70 37.203125 70 
C 20.09375 70 4.59375 54.796875 4.59375 34.046875 
C 4.59375 13.078125 20.09375 -2 37.296875 -2 
C 52.59375 -2 62.09375 11.578125 62.09375 23.15625 
C 62.09375 24.171875 62.09375 24.578125 61.203125 24.578125 
C 60.40625 24.578125 60.40625 24.265625 60.296875 23.359375 
C 59.5 9.25 49.5 0.59375 38.703125 0.59375 
C 28.5 0.59375 12.203125 7.84375 12.203125 34.046875 
C 12.203125 60.34375 28.796875 67.390625 38.5 67.390625 
C 49.796875 67.390625 58 57.515625 59.90625 43.515625 
C 60.09375 42.296875 60.09375 42.109375 61 42.109375 
C 62.09375 42.109375 62.09375 42.296875 62.09375 44.125 
z
" id="CMR17-67"/>
     </defs>
     <use transform="scale(0.996264)" xlink:href="#CMR17-80"/>
     <use transform="translate(62.586301 0)scale(0.996264)" xlink:href="#CMR17-114"/>
     <use transform="translate(97.867068 0)scale(0.996264)" xlink:href="#CMR17-101"/>
     <use transform="translate(138.352729 0)scale(0.996264)" xlink:href="#CMR17-99"/>
     <use transform="translate(178.838389 0)scale(0.996264)" xlink:href="#CMR17-105"/>
     <use transform="translate(203.709448 0)scale(0.996264)" xlink:href="#CMR17-115"/>
     <use transform="translate(239.510785 0)scale(0.996264)" xlink:href="#CMR17-105"/>
     <use transform="translate(264.381844 0)scale(0.996264)" xlink:href="#CMR17-111"/>
     <use transform="translate(310.072321 0)scale(0.996264)" xlink:href="#CMR17-110"/>
     <use transform="translate(391.043657 0)scale(0.996264)" xlink:href="#CMR17-82"/>
     <use transform="translate(458.834759 0)scale(0.996264)" xlink:href="#CMR17-101"/>
     <use transform="translate(499.32042 0)scale(0.996264)" xlink:href="#CMR17-99"/>
     <use transform="translate(539.80608 0)scale(0.996264)" xlink:href="#CMR17-97"/>
     <use transform="translate(585.496557 0)scale(0.996264)" xlink:href="#CMR17-108"/>
     <use transform="translate(610.367616 0)scale(0.996264)" xlink:href="#CMR17-108"/>
     <use transform="translate(665.31464 0)scale(0.996264)" xlink:href="#CMR17-67"/>
     <use transform="translate(731.824521 0)scale(0.996264)" xlink:href="#CMR17-117"/>
     <use transform="translate(782.719891 0)scale(0.996264)" xlink:href="#CMR17-114"/>
     <use transform="translate(818.000659 0)scale(0.996264)" xlink:href="#CMR17-118"/>
     <use transform="translate(863.69112 0)scale(0.996264)" xlink:href="#CMR17-101"/>
     <use transform="translate(904.176781 0)scale(0.996264)" xlink:href="#CMR17-115"/>
    </g>
   </g>
   <g id="legend_1">
    <g id="line2d_20">
     <path d="M 413.17285 36.911065 
L 439.57285 36.911065 
" style="fill:none;stroke:#0173b2;stroke-linecap:round;stroke-opacity:0.3;"/>
    </g>
    <g id="line2d_21"/>
    <g id="text_16">
     <!-- assembly (AP = 0.91) -->
     <g style="fill:#262626;" transform="translate(450.13285 41.531065)scale(0.132 -0.132)">
      <defs>
       <path d="M 67.59375 30.53125 
C 67.59375 35.5625 66.703125 44 54.796875 44 
C 48 44 43.296875 39.375 41.5 33.953125 
L 41.40625 33.953125 
C 40.203125 42.1875 34.296875 44 28.703125 44 
C 20.796875 44 16.703125 37.875 15.203125 33.84375 
L 15.09375 33.84375 
L 15.09375 44 
L 3.296875 42.890625 
L 3.296875 40.28125 
C 9.203125 40.28125 10.09375 39.6875 10.09375 34.859375 
L 10.09375 6.921875 
C 10.09375 3.09375 9.703125 2.59375 3.296875 2.59375 
L 3.296875 0 
C 5.703125 0.1875 10.09375 0.1875 12.703125 0.1875 
C 15.296875 0.1875 19.796875 0.1875 22.203125 0 
L 22.203125 2.59375 
C 15.796875 2.59375 15.40625 3 15.40625 6.921875 
L 15.40625 26.21875 
C 15.40625 35.453125 21 42.390625 28 42.390625 
C 35.40625 42.390625 36.203125 35.765625 36.203125 30.9375 
L 36.203125 6.921875 
C 36.203125 3.09375 35.796875 2.59375 29.40625 2.59375 
L 29.40625 0 
C 31.796875 0.1875 36.203125 0.1875 38.796875 0.1875 
C 41.40625 0.1875 45.90625 0.1875 48.296875 0 
L 48.296875 2.59375 
C 41.90625 2.59375 41.5 3 41.5 6.921875 
L 41.5 26.21875 
C 41.5 35.453125 47.09375 42.390625 54.09375 42.390625 
C 61.5 42.390625 62.296875 35.765625 62.296875 30.9375 
L 62.296875 6.921875 
C 62.296875 3.09375 61.90625 2.59375 55.5 2.59375 
L 55.5 0 
C 57.90625 0.1875 62.296875 0.1875 64.90625 0.1875 
C 67.5 0.1875 72 0.1875 74.40625 0 
L 74.40625 2.59375 
C 68 2.59375 67.59375 3 67.59375 6.921875 
z
" id="CMR17-109"/>
       <path d="M 39 34.109375 
C 41.5 40.296875 46 40.390625 47.40625 40.390625 
L 47.40625 43 
C 45.5 42.890625 43 42.796875 41.09375 42.796875 
C 39 42.796875 35.703125 42.796875 33.703125 43 
L 33.703125 40.390625 
C 37.5 40.09375 37.59375 37.25 37.59375 36.4375 
C 37.59375 35.4375 37.40625 34.921875 36.90625 33.71875 
L 26 6.390625 
L 14.09375 35.9375 
C 13.59375 37.15625 13.59375 37.859375 13.59375 37.96875 
C 13.59375 40.1875 15.90625 40.390625 18.296875 40.390625 
L 18.296875 43 
C 15.90625 42.796875 11.59375 42.796875 9.09375 42.796875 
C 6.40625 42.796875 3.203125 42.796875 1 43 
L 1 40.390625 
C 6.40625 40.390625 7 39.890625 8.296875 36.640625 
L 23.203125 -0.484375 
C 18.703125 -12.421875 16.09375 -19.40625 9.796875 -19.40625 
C 8.703125 -19.40625 6.203125 -19.109375 4.40625 -17.28125 
C 6.703125 -17.078125 7.703125 -15.65625 7.703125 -13.9375 
C 7.703125 -12.21875 6.5 -10.703125 4.5 -10.703125 
C 2.296875 -10.703125 1.203125 -12.21875 1.203125 -14.046875 
C 1.203125 -18.09375 5.296875 -21 9.796875 -21 
C 15.59375 -21 19.203125 -15.359375 21.203125 -10.296875 
z
" id="CMR17-121"/>
       <path d="M 36.296875 69.390625 
C 35.796875 70.6875 35.59375 71 34.59375 71 
C 33.59375 71 33.40625 70.6875 32.90625 69.390625 
L 11.703125 9.0625 
C 9.796875 3.6875 5.796875 2.59375 2.296875 2.59375 
L 2.296875 0 
C 4.09375 0.1875 8.09375 0.1875 10 0.1875 
C 12.5 0.1875 16.5 0.1875 18.90625 0 
L 18.90625 2.59375 
C 14.203125 2.796875 13.5 5.96875 13.5 7.171875 
C 13.5 8.0625 13.703125 8.5625 13.90625 9.15625 
L 19.203125 24 
L 45.40625 24 
L 51.40625 7.078125 
C 51.90625 5.875 51.90625 5.671875 51.90625 5.28125 
C 51.90625 2.59375 47.59375 2.59375 45.703125 2.59375 
L 45.703125 0 
C 48.59375 0.1875 53.796875 0.1875 56.90625 0.1875 
C 59.5 0.1875 64.5 0.1875 66.90625 0 
L 66.90625 2.59375 
C 61.59375 2.59375 59.796875 2.59375 58.5 6.28125 
z
M 32.296875 61.3125 
L 44.5 26.59375 
L 20.09375 26.59375 
z
" id="CMR17-65"/>
       <path d="M 64.296875 32 
C 65.796875 32 67.296875 32 67.296875 33.6875 
C 67.296875 35.5 65.59375 35.5 63.90625 35.5 
L 8 35.5 
C 6.296875 35.5 4.59375 35.5 4.59375 33.6875 
C 4.59375 32 6.09375 32 7.59375 32 
z
M 63.90625 14.484375 
C 65.59375 14.484375 67.296875 14.484375 67.296875 16.296875 
C 67.296875 18 65.796875 18 64.296875 18 
L 7.59375 18 
C 6.09375 18 4.59375 18 4.59375 16.296875 
C 4.59375 14.484375 6.296875 14.484375 8 14.484375 
z
" id="CMR17-61"/>
       <path d="M 16.59375 4.09375 
C 16.59375 6.59375 14.59375 8.1875 12.5 8.1875 
C 10.5 8.1875 8.40625 6.59375 8.40625 4.09375 
C 8.40625 1.59375 10.40625 0 12.5 0 
C 14.5 0 16.59375 1.59375 16.59375 4.09375 
z
" id="CMR17-46"/>
       <path d="M 35.203125 29.234375 
C 35.203125 7 26.09375 0.390625 18.59375 0.390625 
C 16.296875 0.390625 10.703125 0.671875 8.40625 4.390625 
C 11 4 12.90625 5.390625 12.90625 7.890625 
C 12.90625 10.59375 10.703125 11.5 9.296875 11.5 
C 8.40625 11.5 5.703125 11.09375 5.703125 7.6875 
C 5.703125 1.0625 11.59375 -2 18.796875 -2 
C 30.296875 -2 42 10.390625 42 32.65625 
C 42 60.265625 30.796875 66 23.203125 66 
C 13.296875 66 3.796875 57.25 3.796875 43.75 
C 3.796875 31.25 11.90625 22 22.09375 22 
C 30.5 22 34.203125 29.84375 35.203125 33.15625 
z
M 22.296875 23.59375 
C 19.59375 23.59375 15.796875 24.09375 12.703125 30.140625 
C 10.59375 34.078125 10.59375 38.703125 10.59375 43.640625 
C 10.59375 49.59375 10.59375 53.71875 13.40625 58.15625 
C 14.796875 60.265625 17.40625 63.6875 23.203125 63.6875 
C 35 63.6875 35 45.453125 35 41.421875 
C 35 34.265625 31.796875 23.59375 22.296875 23.59375 
z
" id="CMR17-57"/>
      </defs>
      <use transform="scale(0.996264)" xlink:href="#CMR17-97"/>
      <use transform="translate(45.690477 0)scale(0.996264)" xlink:href="#CMR17-115"/>
      <use transform="translate(81.491815 0)scale(0.996264)" xlink:href="#CMR17-115"/>
      <use transform="translate(117.293152 0)scale(0.996264)" xlink:href="#CMR17-101"/>
      <use transform="translate(157.778813 0)scale(0.996264)" xlink:href="#CMR17-109"/>
      <use transform="translate(232.095949 0)scale(0.996264)" xlink:href="#CMR17-98"/>
      <use transform="translate(282.991319 0)scale(0.996264)" xlink:href="#CMR17-108"/>
      <use transform="translate(307.862377 0)scale(0.996264)" xlink:href="#CMR17-121"/>
      <use transform="translate(386.231259 0)scale(0.996264)" xlink:href="#CMR17-40"/>
      <use transform="translate(421.512027 0)scale(0.996264)" xlink:href="#CMR17-65"/>
      <use transform="translate(490.584457 0)scale(0.996264)" xlink:href="#CMR17-80"/>
      <use transform="translate(583.246724 0)scale(0.996264)" xlink:href="#CMR17-61"/>
      <use transform="translate(685.037478 0)scale(0.996264)" xlink:href="#CMR17-48"/>
      <use transform="translate(730.727956 0)scale(0.996264)" xlink:href="#CMR17-46"/>
      <use transform="translate(755.599014 0)scale(0.996264)" xlink:href="#CMR17-57"/>
      <use transform="translate(801.289491 0)scale(0.996264)" xlink:href="#CMR17-49"/>
      <use transform="translate(846.979968 0)scale(0.996264)" xlink:href="#CMR17-41"/>
     </g>
    </g>
    <g id="line2d_22">
     <path d="M 413.17285 56.828662 
L 439.57285 56.828662 
" style="fill:none;stroke:#de8f05;stroke-linecap:round;stroke-opacity:0.3;"/>
    </g>
    <g id="line2d_23"/>
    <g id="text_17">
     <!-- dual (AP = 0.91) -->
     <g style="fill:#262626;" transform="translate(450.13285 61.448662)scale(0.132 -0.132)">
      <defs>
       <path d="M 29.203125 67.890625 
L 29.203125 65.296875 
C 35.09375 65.296875 36 64.703125 36 60.046875 
L 36 37.046875 
C 35.59375 37.546875 31.5 44 23.40625 44 
C 13.203125 44 3.296875 34.8125 3.296875 21.5 
C 3.296875 8.265625 12.59375 -1 22.40625 -1 
C 30.90625 -1 35.296875 5.640625 35.796875 6.34375 
L 35.796875 -1 
L 47.90625 -0.203125 
L 47.90625 2.40625 
C 42 2.40625 41.09375 3.015625 41.09375 7.859375 
L 41.09375 69 
z
M 35.796875 11.90625 
C 35.796875 8.875 34 6.140625 31.703125 4.125 
C 28.296875 1.09375 24.90625 0.59375 23 0.59375 
C 20.09375 0.59375 9.703125 2.109375 9.703125 21.390625 
C 9.703125 41.1875 21.296875 42.390625 23.90625 42.390625 
C 28.5 42.390625 32.203125 39.765625 34.5 36.140625 
C 35.796875 34.015625 35.796875 33.703125 35.796875 31.890625 
z
" id="CMR17-100"/>
      </defs>
      <use transform="scale(0.996264)" xlink:href="#CMR17-100"/>
      <use transform="translate(50.89537 0)scale(0.996264)" xlink:href="#CMR17-117"/>
      <use transform="translate(101.79074 0)scale(0.996264)" xlink:href="#CMR17-97"/>
      <use transform="translate(147.481217 0)scale(0.996264)" xlink:href="#CMR17-108"/>
      <use transform="translate(202.428242 0)scale(0.996264)" xlink:href="#CMR17-40"/>
      <use transform="translate(237.709009 0)scale(0.996264)" xlink:href="#CMR17-65"/>
      <use transform="translate(306.781439 0)scale(0.996264)" xlink:href="#CMR17-80"/>
      <use transform="translate(399.443706 0)scale(0.996264)" xlink:href="#CMR17-61"/>
      <use transform="translate(501.234461 0)scale(0.996264)" xlink:href="#CMR17-48"/>
      <use transform="translate(546.924938 0)scale(0.996264)" xlink:href="#CMR17-46"/>
      <use transform="translate(571.795996 0)scale(0.996264)" xlink:href="#CMR17-57"/>
      <use transform="translate(617.486473 0)scale(0.996264)" xlink:href="#CMR17-49"/>
      <use transform="translate(663.176951 0)scale(0.996264)" xlink:href="#CMR17-41"/>
     </g>
    </g>
    <g id="line2d_24">
     <path d="M 413.17285 76.746258 
L 439.57285 76.746258 
" style="fill:none;stroke:#029e73;stroke-linecap:round;stroke-opacity:0.3;"/>
    </g>
    <g id="line2d_25"/>
    <g id="text_18">
     <!-- gis (AP = 0.86) -->
     <g style="fill:#262626;" transform="translate(450.13285 81.366258)scale(0.132 -0.132)">
      <defs>
       <path d="M 11.09375 18.203125 
C 13 16.6875 16.296875 15 20.296875 15 
C 28.203125 15 35 21.234375 35 29.609375 
C 35 32.234375 34.203125 36.265625 31.203125 39.390625 
C 34 42.390625 38.09375 43.390625 40.40625 43.390625 
C 40.796875 43.390625 41.40625 43.390625 41.90625 43.09375 
C 41.5 42.984375 40.59375 42.59375 40.59375 40.984375 
C 40.59375 39.6875 41.5 38.796875 42.796875 38.796875 
C 44.296875 38.796875 45.09375 39.796875 45.09375 41.09375 
C 45.09375 42.984375 43.59375 45 40.40625 45 
C 36.40625 45 32.90625 43.09375 30.09375 40.484375 
C 27.09375 43.1875 23.5 44.1875 20.296875 44.1875 
C 12.40625 44.1875 5.59375 37.984375 5.59375 29.609375 
C 5.59375 23.859375 8.90625 20.21875 9.90625 19.21875 
C 6.90625 15.6875 6.90625 11.59375 6.90625 11.09375 
C 6.90625 8.5 7.90625 4.6875 11.296875 2.59375 
C 6.09375 1.28125 2 -2.875 2 -8.078125 
C 2 -15.5625 11.5 -21 22.90625 -21 
C 33.90625 -21 43.796875 -15.765625 43.796875 -7.96875 
C 43.796875 6 29 6 21.296875 6 
C 19 6 14.90625 6 14.40625 6.09375 
C 11.296875 6.59375 9.203125 9.390625 9.203125 12.890625 
C 9.203125 13.796875 9.203125 16 11.09375 18.203125 
z
M 20.296875 16.6875 
C 11.5 16.6875 11.5 27.59375 11.5 29.609375 
C 11.5 31.625 11.5 42.484375 20.296875 42.484375 
C 29.09375 42.484375 29.09375 31.625 29.09375 29.609375 
C 29.09375 27.59375 29.09375 16.6875 20.296875 16.6875 
z
M 22.90625 -19.3125 
C 12.90625 -19.3125 6 -13.796875 6 -8.078125 
C 6 -4.859375 7.703125 -1.84375 9.90625 -0.171875 
C 12.40625 1.59375 13.40625 1.59375 20.203125 1.59375 
C 28.40625 1.59375 39.796875 1.59375 39.796875 -8.078125 
C 39.796875 -13.796875 32.90625 -19.3125 22.90625 -19.3125 
z
" id="CMR17-103"/>
      </defs>
      <use transform="scale(0.996264)" xlink:href="#CMR17-103"/>
      <use transform="translate(45.690477 0)scale(0.996264)" xlink:href="#CMR17-105"/>
      <use transform="translate(70.561536 0)scale(0.996264)" xlink:href="#CMR17-115"/>
      <use transform="translate(136.43884 0)scale(0.996264)" xlink:href="#CMR17-40"/>
      <use transform="translate(171.719607 0)scale(0.996264)" xlink:href="#CMR17-65"/>
      <use transform="translate(240.792037 0)scale(0.996264)" xlink:href="#CMR17-80"/>
      <use transform="translate(333.454304 0)scale(0.996264)" xlink:href="#CMR17-61"/>
      <use transform="translate(435.245059 0)scale(0.996264)" xlink:href="#CMR17-48"/>
      <use transform="translate(480.935536 0)scale(0.996264)" xlink:href="#CMR17-46"/>
      <use transform="translate(505.806594 0)scale(0.996264)" xlink:href="#CMR17-56"/>
      <use transform="translate(551.497072 0)scale(0.996264)" xlink:href="#CMR17-54"/>
      <use transform="translate(597.187549 0)scale(0.996264)" xlink:href="#CMR17-41"/>
     </g>
    </g>
    <g id="line2d_26">
     <path d="M 413.17285 96.663855 
L 439.57285 96.663855 
" style="fill:none;stroke:#d55e00;stroke-linecap:round;stroke-opacity:0.3;"/>
    </g>
    <g id="line2d_27"/>
    <g id="text_19">
     <!-- hmp (AP = 0.88) -->
     <g style="fill:#262626;" transform="translate(450.13285 101.283855)scale(0.132 -0.132)">
      <defs>
       <path d="M 41.5 30.53125 
C 41.5 35.65625 40.5 44 28.703125 44 
C 20.5 44 16.5 37.375 15.296875 34.046875 
L 15.203125 34.046875 
L 15.203125 69 
L 3.296875 67.890625 
L 3.296875 65.296875 
C 9.203125 65.296875 10.09375 64.703125 10.09375 60.046875 
L 10.09375 6.921875 
C 10.09375 3.09375 9.703125 2.59375 3.296875 2.59375 
L 3.296875 0 
C 5.703125 0.1875 10.09375 0.1875 12.703125 0.1875 
C 15.296875 0.1875 19.796875 0.1875 22.203125 0 
L 22.203125 2.59375 
C 15.796875 2.59375 15.40625 3 15.40625 6.921875 
L 15.40625 26.21875 
C 15.40625 35.453125 21 42.390625 28 42.390625 
C 35.40625 42.390625 36.203125 35.765625 36.203125 30.9375 
L 36.203125 6.921875 
C 36.203125 3.09375 35.796875 2.59375 29.40625 2.59375 
L 29.40625 0 
C 31.796875 0.1875 36.203125 0.1875 38.796875 0.1875 
C 41.40625 0.1875 45.90625 0.1875 48.296875 0 
L 48.296875 2.59375 
C 41.90625 2.59375 41.5 3 41.5 6.921875 
z
" id="CMR17-104"/>
       <path d="M 22 -17.40625 
C 15.59375 -17.40625 15.203125 -17 15.203125 -13.03125 
L 15.203125 5.9375 
C 18.09375 1.703125 22.296875 -1 27.59375 -1 
C 37.59375 -1 47.703125 7.859375 47.703125 21.59375 
C 47.703125 34.3125 39 44 28.703125 44 
C 22.703125 44 17.796875 40.671875 15 36.640625 
L 15 44 
L 3.09375 42.890625 
L 3.09375 40.265625 
C 9 40.265625 9.90625 39.671875 9.90625 34.8125 
L 9.90625 -13.03125 
C 9.90625 -16.890625 9.5 -17.40625 3.09375 -17.40625 
L 3.09375 -20 
C 5.5 -19.8125 9.90625 -19.8125 12.5 -19.8125 
C 15.09375 -19.8125 19.59375 -19.8125 22 -20 
z
M 15.203125 31.484375 
C 15.203125 32.90625 15.203125 35.015625 19.09375 38.765625 
C 19.59375 39.15625 23 42.1875 28 42.1875 
C 35.296875 42.1875 41.296875 33 41.296875 21.5 
C 41.296875 9.984375 34.90625 0.59375 27 0.59375 
C 23.40625 0.59375 19.5 2.3125 16.5 7.046875 
C 15.203125 9.28125 15.203125 9.875 15.203125 11.5 
z
" id="CMR17-112"/>
      </defs>
      <use transform="scale(0.996264)" xlink:href="#CMR17-104"/>
      <use transform="translate(50.89537 0)scale(0.996264)" xlink:href="#CMR17-109"/>
      <use transform="translate(127.81496 0)scale(0.996264)" xlink:href="#CMR17-112"/>
      <use transform="translate(208.786296 0)scale(0.996264)" xlink:href="#CMR17-40"/>
      <use transform="translate(244.067064 0)scale(0.996264)" xlink:href="#CMR17-65"/>
      <use transform="translate(313.139493 0)scale(0.996264)" xlink:href="#CMR17-80"/>
      <use transform="translate(405.80176 0)scale(0.996264)" xlink:href="#CMR17-61"/>
      <use transform="translate(507.592515 0)scale(0.996264)" xlink:href="#CMR17-48"/>
      <use transform="translate(553.282992 0)scale(0.996264)" xlink:href="#CMR17-46"/>
      <use transform="translate(578.154051 0)scale(0.996264)" xlink:href="#CMR17-56"/>
      <use transform="translate(623.844528 0)scale(0.996264)" xlink:href="#CMR17-56"/>
      <use transform="translate(669.535005 0)scale(0.996264)" xlink:href="#CMR17-41"/>
     </g>
    </g>
    <g id="line2d_28">
     <path d="M 413.17285 116.581451 
L 439.57285 116.581451 
" style="fill:none;stroke:#cc78bc;stroke-linecap:round;stroke-opacity:0.3;"/>
    </g>
    <g id="line2d_29"/>
    <g id="text_20">
     <!-- mbarc (AP = 0.98) -->
     <g style="fill:#262626;" transform="translate(450.13285 121.201451)scale(0.132 -0.132)">
      <use transform="scale(0.996264)" xlink:href="#CMR17-109"/>
      <use transform="translate(74.317136 0)scale(0.996264)" xlink:href="#CMR17-98"/>
      <use transform="translate(125.212506 0)scale(0.996264)" xlink:href="#CMR17-97"/>
      <use transform="translate(170.902983 0)scale(0.996264)" xlink:href="#CMR17-114"/>
      <use transform="translate(206.183751 0)scale(0.996264)" xlink:href="#CMR17-99"/>
      <use transform="translate(276.745377 0)scale(0.996264)" xlink:href="#CMR17-40"/>
      <use transform="translate(312.026145 0)scale(0.996264)" xlink:href="#CMR17-65"/>
      <use transform="translate(381.098575 0)scale(0.996264)" xlink:href="#CMR17-80"/>
      <use transform="translate(473.760842 0)scale(0.996264)" xlink:href="#CMR17-61"/>
      <use transform="translate(575.551597 0)scale(0.996264)" xlink:href="#CMR17-48"/>
      <use transform="translate(621.242074 0)scale(0.996264)" xlink:href="#CMR17-46"/>
      <use transform="translate(646.113132 0)scale(0.996264)" xlink:href="#CMR17-57"/>
      <use transform="translate(691.803609 0)scale(0.996264)" xlink:href="#CMR17-56"/>
      <use transform="translate(737.494087 0)scale(0.996264)" xlink:href="#CMR17-41"/>
     </g>
    </g>
    <g id="line2d_30">
     <path d="M 413.17285 136.499048 
L 439.57285 136.499048 
" style="fill:none;stroke:#0173b2;stroke-linecap:round;stroke-opacity:0.8;stroke-width:2;"/>
    </g>
    <g id="line2d_31"/>
    <g id="text_21">
     <!-- Mean PR (AP = 0.91 $\pm$ 0.04) -->
     <g style="fill:#262626;" transform="translate(450.13285 141.119048)scale(0.132 -0.132)">
      <defs>
       <path d="M 20.90625 66.390625 
C 20.296875 67.890625 20.203125 68 18.09375 68 
L 5.296875 68 
L 5.296875 65.390625 
C 12.203125 65.390625 13.296875 65.390625 13.296875 60.90625 
L 13.296875 9.75 
C 13.296875 7.265625 13.296875 2.59375 5.296875 2.59375 
L 5.296875 0 
C 7.59375 0.1875 11.796875 0.1875 14.296875 0.1875 
C 16.796875 0.1875 21 0.1875 23.296875 0 
L 23.296875 2.59375 
C 15.296875 2.59375 15.296875 7.265625 15.296875 9.75 
L 15.296875 64.984375 
L 15.40625 64.984375 
L 38.90625 1.59375 
C 39.296875 0.59375 39.5 0 40.296875 0 
C 41.09375 0 41.296875 0.59375 41.703125 1.59375 
L 65.40625 65.484375 
L 65.5 65.484375 
L 65.5 7.078125 
C 65.5 2.59375 64.40625 2.59375 57.5 2.59375 
L 57.5 0 
C 60.203125 0.1875 65.59375 0.1875 68.5 0.1875 
C 71.40625 0.1875 76.90625 0.1875 79.59375 0 
L 79.59375 2.59375 
C 72.703125 2.59375 71.59375 2.59375 71.59375 7.078125 
L 71.59375 60.90625 
C 71.59375 65.390625 72.703125 65.390625 79.59375 65.390625 
L 79.59375 68 
L 66.90625 68 
C 64.796875 68 64.703125 67.890625 64.09375 66.390625 
L 42.5 8.0625 
z
" id="CMR17-77"/>
       <path d="M 40.90625 31 
L 68.703125 31 
C 70.40625 31 72.203125 31 72.203125 33 
C 72.203125 35 70.40625 35 68.703125 35 
L 40.90625 35 
L 40.90625 63.25 
C 40.90625 64.890625 40.90625 67 38.90625 67 
C 36.90625 67 36.90625 65.1875 36.90625 63.5625 
L 36.90625 35 
L 9 35 
C 7.296875 35 5.5 35 5.5 33 
C 5.5 31 7.296875 31 9 31 
L 36.90625 31 
L 36.90625 4 
L 9 4 
C 7.296875 4 5.5 4 5.5 2 
C 5.5 0 7.296875 0 9 0 
L 68.703125 0 
C 70.40625 0 72.203125 0 72.203125 2 
C 72.203125 4 70.40625 4 68.703125 4 
L 40.90625 4 
z
" id="CMSY10-6"/>
      </defs>
      <use transform="scale(0.996264)" xlink:href="#CMR17-77"/>
      <use transform="translate(84.686941 0)scale(0.996264)" xlink:href="#CMR17-101"/>
      <use transform="translate(125.172601 0)scale(0.996264)" xlink:href="#CMR17-97"/>
      <use transform="translate(170.863078 0)scale(0.996264)" xlink:href="#CMR17-110"/>
      <use transform="translate(251.834414 0)scale(0.996264)" xlink:href="#CMR17-80"/>
      <use transform="translate(314.420715 0)scale(0.996264)" xlink:href="#CMR17-82"/>
      <use transform="translate(412.287783 0)scale(0.996264)" xlink:href="#CMR17-40"/>
      <use transform="translate(447.568551 0)scale(0.996264)" xlink:href="#CMR17-65"/>
      <use transform="translate(516.640981 0)scale(0.996264)" xlink:href="#CMR17-80"/>
      <use transform="translate(609.303248 0)scale(0.996264)" xlink:href="#CMR17-61"/>
      <use transform="translate(711.094002 0)scale(0.996264)" xlink:href="#CMR17-48"/>
      <use transform="translate(756.784479 0)scale(0.996264)" xlink:href="#CMR17-46"/>
      <use transform="translate(781.655538 0)scale(0.996264)" xlink:href="#CMR17-57"/>
      <use transform="translate(827.346015 0)scale(0.996264)" xlink:href="#CMR17-49"/>
      <use transform="translate(903.112459 0)scale(0.996264)" xlink:href="#CMSY10-6"/>
      <use transform="translate(1010.675893 0)scale(0.996264)" xlink:href="#CMR17-48"/>
      <use transform="translate(1056.36637 0)scale(0.996264)" xlink:href="#CMR17-46"/>
      <use transform="translate(1081.237428 0)scale(0.996264)" xlink:href="#CMR17-48"/>
      <use transform="translate(1126.927905 0)scale(0.996264)" xlink:href="#CMR17-52"/>
      <use transform="translate(1172.618382 0)scale(0.996264)" xlink:href="#CMR17-41"/>
     </g>
    </g>
    <g id="line2d_32">
     <path d="M 413.17285 156.416645 
L 439.57285 156.416645 
" style="fill:none;stroke:#d55e00;stroke-linecap:round;stroke-opacity:0.8;stroke-width:2;"/>
    </g>
    <g id="line2d_33"/>
    <g id="text_22">
     <!-- Baseline Mean PR (AP = 0.80 $\pm$ 0.13) -->
     <g style="fill:#262626;" transform="translate(450.13285 161.036645)scale(0.132 -0.132)">
      <defs>
       <path d="M 5.203125 68 
L 5.203125 65.390625 
C 12.09375 65.390625 13.203125 65.390625 13.203125 60.890625 
L 13.203125 7.046875 
C 13.203125 2.59375 12.09375 2.59375 5.203125 2.59375 
L 5.203125 0 
L 39.59375 0 
C 52.40625 0 60.703125 9.03125 60.703125 18.046875 
C 60.703125 26.96875 52.5 34.59375 41.796875 35.296875 
C 51.40625 37.1875 58.09375 43.59375 58.09375 51.1875 
C 58.09375 59.5 49.90625 68 37 68 
z
M 19.5 36 
L 19.5 61.5 
C 19.5 64.890625 19.703125 65.390625 23.703125 65.390625 
L 36.5 65.390625 
C 46.40625 65.390625 50.796875 57.390625 50.796875 51.1875 
C 50.796875 43.59375 44.703125 36 33.90625 36 
z
M 23.703125 2.59375 
C 19.703125 2.59375 19.5 3.09375 19.5 6.453125 
L 19.5 34.390625 
L 38 34.390625 
C 48.296875 34.390625 53.296875 25.375 53.296875 18.140625 
C 53.296875 10.90625 47.59375 2.59375 36.703125 2.59375 
z
" id="CMR17-66"/>
       <path d="M 22.09375 34 
C 31 34 34.90625 26.140625 34.90625 17.09375 
C 34.90625 5.03125 28.5 0.390625 22.703125 0.390625 
C 17.40625 0.390625 8.796875 3.015625 6.09375 10.796875 
C 6.59375 10.59375 7.09375 10.59375 7.59375 10.59375 
C 10 10.59375 11.796875 12.1875 11.796875 14.796875 
C 11.796875 17.6875 9.59375 19 7.59375 19 
C 5.90625 19 3.296875 18.1875 3.296875 14.484375 
C 3.296875 5.234375 12.296875 -2 22.90625 -2 
C 34 -2 42.5 6.75 42.5 16.984375 
C 42.5 26.84375 34.5 34 25 35.09375 
C 32.59375 36.671875 39.90625 43.375 39.90625 52.390625 
C 39.90625 60.25 32 66 23 66 
C 13.90625 66 5.90625 60.34375 5.90625 52.296875 
C 5.90625 48.796875 8.5 48.1875 9.796875 48.1875 
C 11.90625 48.1875 13.703125 49.484375 13.703125 52.09375 
C 13.703125 54.6875 11.90625 56 9.796875 56 
C 9.40625 56 8.90625 56 8.5 55.796875 
C 11.40625 62.484375 19.296875 63.6875 22.796875 63.6875 
C 26.296875 63.6875 32.90625 61.96875 32.90625 52.296875 
C 32.90625 49.484375 32.5 44.546875 29.09375 40.21875 
C 26.09375 36.390625 22.703125 36.1875 19.40625 35.890625 
C 18.90625 35.890625 16.59375 35.6875 16.203125 35.6875 
C 15.5 35.59375 15.09375 35.5 15.09375 34.796875 
C 15.09375 34.09375 15.203125 34 17.203125 34 
z
" id="CMR17-51"/>
      </defs>
      <use transform="scale(0.996264)" xlink:href="#CMR17-66"/>
      <use transform="translate(65.188754 0)scale(0.996264)" xlink:href="#CMR17-97"/>
      <use transform="translate(110.879232 0)scale(0.996264)" xlink:href="#CMR17-115"/>
      <use transform="translate(146.680569 0)scale(0.996264)" xlink:href="#CMR17-101"/>
      <use transform="translate(187.16623 0)scale(0.996264)" xlink:href="#CMR17-108"/>
      <use transform="translate(212.037288 0)scale(0.996264)" xlink:href="#CMR17-105"/>
      <use transform="translate(236.908347 0)scale(0.996264)" xlink:href="#CMR17-110"/>
      <use transform="translate(287.803716 0)scale(0.996264)" xlink:href="#CMR17-101"/>
      <use transform="translate(358.365343 0)scale(0.996264)" xlink:href="#CMR17-77"/>
      <use transform="translate(443.052284 0)scale(0.996264)" xlink:href="#CMR17-101"/>
      <use transform="translate(483.537944 0)scale(0.996264)" xlink:href="#CMR17-97"/>
      <use transform="translate(529.228421 0)scale(0.996264)" xlink:href="#CMR17-110"/>
      <use transform="translate(610.199758 0)scale(0.996264)" xlink:href="#CMR17-80"/>
      <use transform="translate(672.786058 0)scale(0.996264)" xlink:href="#CMR17-82"/>
      <use transform="translate(770.653126 0)scale(0.996264)" xlink:href="#CMR17-40"/>
      <use transform="translate(805.933894 0)scale(0.996264)" xlink:href="#CMR17-65"/>
      <use transform="translate(875.006324 0)scale(0.996264)" xlink:href="#CMR17-80"/>
      <use transform="translate(967.668591 0)scale(0.996264)" xlink:href="#CMR17-61"/>
      <use transform="translate(1069.459346 0)scale(0.996264)" xlink:href="#CMR17-48"/>
      <use transform="translate(1115.149823 0)scale(0.996264)" xlink:href="#CMR17-46"/>
      <use transform="translate(1140.020881 0)scale(0.996264)" xlink:href="#CMR17-56"/>
      <use transform="translate(1185.711358 0)scale(0.996264)" xlink:href="#CMR17-48"/>
      <use transform="translate(1261.477802 0)scale(0.996264)" xlink:href="#CMSY10-6"/>
      <use transform="translate(1369.041236 0)scale(0.996264)" xlink:href="#CMR17-48"/>
      <use transform="translate(1414.731713 0)scale(0.996264)" xlink:href="#CMR17-46"/>
      <use transform="translate(1439.602771 0)scale(0.996264)" xlink:href="#CMR17-49"/>
      <use transform="translate(1485.293248 0)scale(0.996264)" xlink:href="#CMR17-51"/>
      <use transform="translate(1530.983726 0)scale(0.996264)" xlink:href="#CMR17-41"/>
     </g>
    </g>
    <g id="patch_5">
     <path d="M 413.17285 180.954241 
L 439.57285 180.954241 
L 439.57285 171.714241 
L 413.17285 171.714241 
z
" style="fill:#808080;opacity:0.2;stroke:#808080;stroke-linejoin:miter;stroke-width:0.8;"/>
    </g>
    <g id="text_23">
     <!-- $\pm$ 1 std. dev. -->
     <g style="fill:#262626;" transform="translate(450.13285 180.954241)scale(0.132 -0.132)">
      <use transform="scale(0.996264)" xlink:href="#CMSY10-6"/>
      <use transform="translate(107.563434 0)scale(0.996264)" xlink:href="#CMR17-49"/>
      <use transform="translate(183.329877 0)scale(0.996264)" xlink:href="#CMR17-115"/>
      <use transform="translate(219.131215 0)scale(0.996264)" xlink:href="#CMR17-116"/>
      <use transform="translate(254.411983 0)scale(0.996264)" xlink:href="#CMR17-100"/>
      <use transform="translate(305.307353 0)scale(0.996264)" xlink:href="#CMR17-46"/>
      <use transform="translate(370.664072 0)scale(0.996264)" xlink:href="#CMR17-100"/>
      <use transform="translate(421.559441 0)scale(0.996264)" xlink:href="#CMR17-101"/>
      <use transform="translate(462.045102 0)scale(0.996264)" xlink:href="#CMR17-118"/>
      <use transform="translate(510.338018 0)scale(0.996264)" xlink:href="#CMR17-46"/>
     </g>
    </g>
    <g id="patch_6">
     <path d="M 413.17285 200.329366 
L 439.57285 200.329366 
L 439.57285 191.089366 
L 413.17285 191.089366 
z
" style="fill:#808080;opacity:0.2;stroke:#808080;stroke-linejoin:miter;stroke-width:0.8;"/>
    </g>
    <g id="text_24">
     <!-- $\pm$ 1 std. dev. -->
     <g style="fill:#262626;" transform="translate(450.13285 200.329366)scale(0.132 -0.132)">
      <use transform="scale(0.996264)" xlink:href="#CMSY10-6"/>
      <use transform="translate(107.563434 0)scale(0.996264)" xlink:href="#CMR17-49"/>
      <use transform="translate(183.329877 0)scale(0.996264)" xlink:href="#CMR17-115"/>
      <use transform="translate(219.131215 0)scale(0.996264)" xlink:href="#CMR17-116"/>
      <use transform="translate(254.411983 0)scale(0.996264)" xlink:href="#CMR17-100"/>
      <use transform="translate(305.307353 0)scale(0.996264)" xlink:href="#CMR17-46"/>
      <use transform="translate(370.664072 0)scale(0.996264)" xlink:href="#CMR17-100"/>
      <use transform="translate(421.559441 0)scale(0.996264)" xlink:href="#CMR17-101"/>
      <use transform="translate(462.045102 0)scale(0.996264)" xlink:href="#CMR17-118"/>
      <use transform="translate(510.338018 0)scale(0.996264)" xlink:href="#CMR17-46"/>
     </g>
    </g>
   </g>
  </g>
 </g>
 <defs>
  <clipPath id="pd79a46ca21">
   <rect height="188.062305" width="340.99331" x="60.299541" y="23.162625"/>
  </clipPath>
 </defs>
</svg>
