<?xml version="1.0" encoding="utf-8" standalone="no"?>
<!DOCTYPE svg PUBLIC "-//W3C//DTD SVG 1.1//EN"
  "http://www.w3.org/Graphics/SVG/1.1/DTD/svg11.dtd">
<!-- Created with matplotlib (https://matplotlib.org/) -->
<svg height="266.760567pt" version="1.1" viewBox="0 0 682.853856 266.760567" width="682.853856pt" xmlns="http://www.w3.org/2000/svg" xmlns:xlink="http://www.w3.org/1999/xlink">
 <metadata>
  <rdf:RDF xmlns:cc="http://creativecommons.org/ns#" xmlns:dc="http://purl.org/dc/elements/1.1/" xmlns:rdf="http://www.w3.org/1999/02/22-rdf-syntax-ns#">
   <cc:Work>
    <dc:type rdf:resource="http://purl.org/dc/dcmitype/StillImage"/>
    <dc:date>2021-05-31T23:54:24.699457</dc:date>
    <dc:format>image/svg+xml</dc:format>
    <dc:creator>
     <cc:Agent>
      <dc:title>Matplotlib v3.3.4, https://matplotlib.org/</dc:title>
     </cc:Agent>
    </dc:creator>
   </cc:Work>
  </rdf:RDF>
 </metadata>
 <defs>
  <style type="text/css">*{stroke-linecap:butt;stroke-linejoin:round;}</style>
 </defs>
 <g id="figure_1">
  <g id="patch_1">
   <path d="M 0 266.760567 
L 682.853856 266.760567 
L 682.853856 0 
L 0 0 
z
" style="fill:#ffffff;"/>
  </g>
  <g id="axes_1">
   <g id="patch_2">
    <path d="M 60.299541 211.22493 
L 401.29285 211.22493 
L 401.29285 23.162625 
L 60.299541 23.162625 
z
" style="fill:#ffffff;"/>
   </g>
   <g id="matplotlib.axis_1">
    <g id="xtick_1">
     <g id="line2d_1">
      <defs>
       <path d="M 0 0 
L 0 4.8 
" id="me30c40c4a5" style="stroke:#262626;"/>
      </defs>
      <g>
       <use style="fill:#262626;stroke:#262626;" x="75.799237" xlink:href="#me30c40c4a5" y="221.22493"/>
      </g>
     </g>
     <g id="text_1">
      <!-- $\mathdefault{0.0}$ -->
      <g style="fill:#262626;" transform="translate(67.572557 238.657325)scale(0.132 -0.132)">
       <defs>
        <path d="M 42 31.84375 
C 42 37.96875 41.90625 48.421875 37.703125 56.453125 
C 34 63.484375 28.09375 66 22.90625 66 
C 18.09375 66 12 63.78125 8.203125 56.5625 
C 4.203125 49.015625 3.796875 39.671875 3.796875 31.84375 
C 3.796875 26.109375 3.90625 17.375 7 9.734375 
C 11.296875 -0.609375 19 -2 22.90625 -2 
C 27.5 -2 34.5 -0.109375 38.59375 9.4375 
C 41.59375 16.375 42 24.5 42 31.84375 
z
M 22.90625 -0.40625 
C 16.5 -0.40625 12.703125 5.125 11.296875 12.75 
C 10.203125 18.6875 10.203125 27.328125 10.203125 32.953125 
C 10.203125 40.6875 10.203125 47.109375 11.5 53.234375 
C 13.40625 61.78125 19 64.390625 22.90625 64.390625 
C 27 64.390625 32.296875 61.671875 34.203125 53.4375 
C 35.5 47.71875 35.59375 40.984375 35.59375 32.953125 
C 35.59375 26.421875 35.59375 18.375 34.40625 12.453125 
C 32.296875 1.5 26.40625 -0.40625 22.90625 -0.40625 
z
" id="CMR17-48"/>
        <path d="M 18.40625 4.796875 
C 18.40625 7.6875 16 9.6875 13.59375 9.6875 
C 10.703125 9.6875 8.703125 7.296875 8.703125 4.890625 
C 8.703125 2 11.09375 0 13.5 0 
C 16.40625 0 18.40625 2.390625 18.40625 4.796875 
z
" id="CMMI12-58"/>
       </defs>
       <use transform="scale(0.996264)" xlink:href="#CMR17-48"/>
       <use transform="translate(45.690477 0)scale(0.996264)" xlink:href="#CMMI12-58"/>
       <use transform="translate(72.787654 0)scale(0.996264)" xlink:href="#CMR17-48"/>
      </g>
     </g>
    </g>
    <g id="xtick_2">
     <g id="line2d_2">
      <g>
       <use style="fill:#262626;stroke:#262626;" x="137.79802" xlink:href="#me30c40c4a5" y="221.22493"/>
      </g>
     </g>
     <g id="text_2">
      <!-- $\mathdefault{0.2}$ -->
      <g style="fill:#262626;" transform="translate(129.57134 238.657325)scale(0.132 -0.132)">
       <defs>
        <path d="M 41.703125 15.46875 
L 39.90625 15.46875 
C 38.90625 8.390625 38.09375 7.1875 37.703125 6.59375 
C 37.203125 5.796875 30 5.796875 28.59375 5.796875 
L 9.40625 5.796875 
C 13 9.6875 20 16.765625 28.5 24.9375 
C 34.59375 30.71875 41.703125 37.5 41.703125 47.390625 
C 41.703125 59.1875 32.296875 66 21.796875 66 
C 10.796875 66 4.09375 56.296875 4.09375 47.296875 
C 4.09375 43.390625 7 42.890625 8.203125 42.890625 
C 9.203125 42.890625 12.203125 43.484375 12.203125 46.984375 
C 12.203125 50.09375 9.59375 51 8.203125 51 
C 7.59375 51 7 50.890625 6.59375 50.6875 
C 8.5 59.1875 14.296875 63.390625 20.40625 63.390625 
C 29.09375 63.390625 34.796875 56.5 34.796875 47.390625 
C 34.796875 38.703125 29.703125 31.21875 24 24.734375 
L 4.09375 2.296875 
L 4.09375 0 
L 39.296875 0 
z
" id="CMR17-50"/>
       </defs>
       <use transform="scale(0.996264)" xlink:href="#CMR17-48"/>
       <use transform="translate(45.690477 0)scale(0.996264)" xlink:href="#CMMI12-58"/>
       <use transform="translate(72.787654 0)scale(0.996264)" xlink:href="#CMR17-50"/>
      </g>
     </g>
    </g>
    <g id="xtick_3">
     <g id="line2d_3">
      <g>
       <use style="fill:#262626;stroke:#262626;" x="199.796804" xlink:href="#me30c40c4a5" y="221.22493"/>
      </g>
     </g>
     <g id="text_3">
      <!-- $\mathdefault{0.4}$ -->
      <g style="fill:#262626;" transform="translate(191.570124 238.657325)scale(0.132 -0.132)">
       <defs>
        <path d="M 33.59375 64.796875 
C 33.59375 66.890625 33.5 67 31.703125 67 
L 2 19.59375 
L 2 17 
L 27.796875 17 
L 27.796875 7.1875 
C 27.796875 3.59375 27.59375 2.59375 20.59375 2.59375 
L 18.703125 2.59375 
L 18.703125 0 
C 21.90625 0.1875 27.296875 0.1875 30.703125 0.1875 
C 34.09375 0.1875 39.5 0.1875 42.703125 0 
L 42.703125 2.59375 
L 40.796875 2.59375 
C 33.796875 2.59375 33.59375 3.59375 33.59375 7.1875 
L 33.59375 17 
L 43.796875 17 
L 43.796875 19.59375 
L 33.59375 19.59375 
z
M 28.09375 58.171875 
L 28.09375 19.59375 
L 4 19.59375 
z
" id="CMR17-52"/>
       </defs>
       <use transform="scale(0.996264)" xlink:href="#CMR17-48"/>
       <use transform="translate(45.690477 0)scale(0.996264)" xlink:href="#CMMI12-58"/>
       <use transform="translate(72.787654 0)scale(0.996264)" xlink:href="#CMR17-52"/>
      </g>
     </g>
    </g>
    <g id="xtick_4">
     <g id="line2d_4">
      <g>
       <use style="fill:#262626;stroke:#262626;" x="261.795587" xlink:href="#me30c40c4a5" y="221.22493"/>
      </g>
     </g>
     <g id="text_4">
      <!-- $\mathdefault{0.6}$ -->
      <g style="fill:#262626;" transform="translate(253.568907 238.657325)scale(0.132 -0.132)">
       <defs>
        <path d="M 10.59375 34.34375 
C 10.59375 58 21.796875 63.6875 28.296875 63.6875 
C 30.40625 63.6875 35.5 63.265625 37.5 59.09375 
C 35.90625 59.09375 32.90625 59.09375 32.90625 55.59375 
C 32.90625 52.890625 35.09375 52 36.5 52 
C 37.40625 52 40.09375 52.390625 40.09375 55.796875 
C 40.09375 62.296875 35.09375 66 28.203125 66 
C 16.296875 66 3.796875 53.296875 3.796875 31.421875 
C 3.796875 4.015625 15.09375 -2 23.09375 -2 
C 32.796875 -2 42 6.734375 42 20.234375 
C 42 32.828125 33.90625 42 23.703125 42 
C 17.59375 42 13.09375 37.96875 10.59375 30.921875 
z
M 23.09375 0.390625 
C 10.796875 0.390625 10.796875 18.9375 10.796875 22.65625 
C 10.796875 29.90625 14.203125 40.390625 23.5 40.390625 
C 25.203125 40.390625 30.09375 40.390625 33.40625 33.4375 
C 35.203125 29.515625 35.203125 25.375 35.203125 20.34375 
C 35.203125 14.90625 35.203125 10.875 33.09375 6.84375 
C 30.90625 2.703125 27.703125 0.390625 23.09375 0.390625 
z
" id="CMR17-54"/>
       </defs>
       <use transform="scale(0.996264)" xlink:href="#CMR17-48"/>
       <use transform="translate(45.690477 0)scale(0.996264)" xlink:href="#CMMI12-58"/>
       <use transform="translate(72.787654 0)scale(0.996264)" xlink:href="#CMR17-54"/>
      </g>
     </g>
    </g>
    <g id="xtick_5">
     <g id="line2d_5">
      <g>
       <use style="fill:#262626;stroke:#262626;" x="323.794371" xlink:href="#me30c40c4a5" y="221.22493"/>
      </g>
     </g>
     <g id="text_5">
      <!-- $\mathdefault{0.8}$ -->
      <g style="fill:#262626;" transform="translate(315.567691 238.657325)scale(0.132 -0.132)">
       <defs>
        <path d="M 27.203125 35.765625 
C 33.5 38.96875 39.90625 43.796875 39.90625 51.53125 
C 39.90625 60.6875 31.09375 66 23 66 
C 13.90625 66 5.90625 59.375 5.90625 50.234375 
C 5.90625 47.71875 6.5 43.390625 10.40625 39.578125 
C 11.40625 38.578125 15.59375 35.5625 18.296875 33.65625 
C 13.796875 31.34375 3.296875 25.8125 3.296875 14.765625 
C 3.296875 4.40625 13.09375 -2 22.796875 -2 
C 33.5 -2 42.5 5.71875 42.5 15.96875 
C 42.5 25.109375 36.40625 29.328125 32.40625 32.046875 
z
M 14.09375 44.609375 
C 13.296875 45.109375 9.296875 48.21875 9.296875 52.9375 
C 9.296875 59.078125 15.59375 63.6875 22.796875 63.6875 
C 30.703125 63.6875 36.5 58.0625 36.5 51.53125 
C 36.5 42.1875 26.09375 36.859375 25.59375 36.859375 
C 25.5 36.859375 25.40625 36.859375 24.59375 37.46875 
z
M 32.5 24 
C 34 22.90625 38.796875 19.578125 38.796875 13.453125 
C 38.796875 6.015625 31.40625 0.390625 23 0.390625 
C 13.90625 0.390625 7 6.921875 7 14.859375 
C 7 22.796875 13.09375 29.4375 20 32.546875 
z
" id="CMR17-56"/>
       </defs>
       <use transform="scale(0.996264)" xlink:href="#CMR17-48"/>
       <use transform="translate(45.690477 0)scale(0.996264)" xlink:href="#CMMI12-58"/>
       <use transform="translate(72.787654 0)scale(0.996264)" xlink:href="#CMR17-56"/>
      </g>
     </g>
    </g>
    <g id="xtick_6">
     <g id="line2d_6">
      <g>
       <use style="fill:#262626;stroke:#262626;" x="385.793155" xlink:href="#me30c40c4a5" y="221.22493"/>
      </g>
     </g>
     <g id="text_6">
      <!-- $\mathdefault{1.0}$ -->
      <g style="fill:#262626;" transform="translate(377.566474 238.657325)scale(0.132 -0.132)">
       <defs>
        <path d="M 26.59375 63.796875 
C 26.59375 65.890625 26.5 66 25.09375 66 
C 21.203125 61.359375 15.296875 59.890625 9.703125 59.6875 
C 9.40625 59.6875 8.90625 59.6875 8.796875 59.5 
C 8.703125 59.296875 8.703125 59.09375 8.703125 57 
C 11.796875 57 17 57.59375 21 59.984375 
L 21 7.296875 
C 21 3.796875 20.796875 2.59375 12.203125 2.59375 
L 9.203125 2.59375 
L 9.203125 0 
C 14 0.09375 19 0.1875 23.796875 0.1875 
C 28.59375 0.1875 33.59375 0.09375 38.40625 0 
L 38.40625 2.59375 
L 35.40625 2.59375 
C 26.796875 2.59375 26.59375 3.6875 26.59375 7.296875 
z
" id="CMR17-49"/>
       </defs>
       <use transform="scale(0.996264)" xlink:href="#CMR17-49"/>
       <use transform="translate(45.690477 0)scale(0.996264)" xlink:href="#CMMI12-58"/>
       <use transform="translate(72.787654 0)scale(0.996264)" xlink:href="#CMR17-48"/>
      </g>
     </g>
    </g>
    <g id="text_7">
     <!-- Recall (Positive label: True) -->
     <g style="fill:#262626;" transform="translate(143.745431 255.974026)scale(0.144 -0.144)">
      <defs>
       <path d="M 39.203125 33.6875 
C 48.703125 35.59375 56.703125 42.015625 56.703125 50.046875 
C 56.703125 59.46875 46.09375 68 32.09375 68 
L 5.203125 68 
L 5.203125 65.390625 
C 12.09375 65.390625 13.203125 65.390625 13.203125 60.875 
L 13.203125 6.6875 
C 13.203125 2.1875 12.09375 2.1875 5.203125 2.1875 
L 5.203125 -0.40625 
C 8.09375 -0.203125 13.296875 -0.203125 16.40625 -0.203125 
C 19.5 -0.203125 24.703125 -0.203125 27.59375 -0.40625 
L 27.59375 2.1875 
C 20.703125 2.1875 19.59375 2.1875 19.59375 6.6875 
L 19.59375 33 
L 31.296875 33 
C 37 33 40.203125 30.6875 41.59375 29.390625 
C 45.59375 25.5 45.59375 22.796875 45.59375 16 
C 45.59375 9.296875 45.59375 5.890625 48.59375 2.5 
C 52.40625 -1.609375 57.5 -2 59.703125 -2 
C 67.09375 -2 68.203125 6.296875 68.203125 8 
C 68.203125 8.59375 68.203125 9.296875 67.296875 9.296875 
C 66.5 9.296875 66.40625 8.6875 66.40625 8.296875 
C 65.90625 1.796875 63 -0.40625 59.90625 -0.40625 
C 54.40625 -0.40625 53.796875 5.890625 53.203125 12 
C 52.90625 14.09375 52.703125 15.59375 52.5 17.796875 
C 51.90625 22.796875 51.09375 30.09375 39.203125 33.6875 
z
M 31 34.59375 
L 19.59375 34.59375 
L 19.59375 61.484375 
C 19.59375 64.890625 19.796875 65.390625 23.796875 65.390625 
L 31.09375 65.390625 
C 39.40625 65.390625 49.09375 62.484375 49.09375 50.046875 
C 49.09375 37.09375 38.5 34.59375 31 34.59375 
z
" id="CMR17-82"/>
       <path d="M 38.09375 23.484375 
C 38.5 23.890625 38.5 24.09375 38.5 25.09375 
C 38.5 35.171875 33.09375 44 21.703125 44 
C 11.09375 44 2.703125 33.984375 2.703125 21.78125 
C 2.703125 8.65625 12.203125 -1 22.796875 -1 
C 34 -1 38.40625 9.671875 38.40625 11.796875 
C 38.40625 12.5 37.796875 12.5 37.59375 12.5 
C 36.90625 12.5 36.796875 12.296875 36.40625 11.078125 
C 34.203125 4.21875 28.703125 0.796875 23.5 0.796875 
C 19.203125 0.796875 14.90625 3.21875 12.203125 7.65625 
C 9.09375 12.796875 9.09375 18.75 9.09375 23.484375 
z
M 9.203125 25 
C 9.90625 39.234375 17.59375 42.390625 21.59375 42.390625 
C 28.40625 42.390625 33 36.0625 33.09375 25 
z
" id="CMR17-101"/>
       <path d="M 34.90625 35 
C 33 35 30.203125 35 30.203125 31.484375 
C 30.203125 28.6875 32.5 27.890625 33.796875 27.890625 
C 34.5 27.890625 37.40625 28.1875 37.40625 31.6875 
C 37.40625 38.6875 30.59375 44 22.90625 44 
C 12.296875 44 3.296875 34.390625 3.296875 21.546875 
C 3.296875 8.140625 12.703125 -1 22.90625 -1 
C 35.296875 -1 38.40625 10.5625 38.40625 11.671875 
C 38.40625 12.078125 38.296875 12.375 37.59375 12.375 
C 36.90625 12.375 36.796875 12.28125 36.40625 10.96875 
C 33.796875 2.8125 28.09375 0.796875 23.796875 0.796875 
C 17.40625 0.796875 9.703125 6.734375 9.703125 21.640625 
C 9.703125 36.84375 17.09375 42.1875 23 42.1875 
C 26.90625 42.1875 32.703125 40.34375 34.90625 35 
z
" id="CMR17-99"/>
       <path d="M 36 25.875 
C 36 32 36 35.546875 31.796875 39.59375 
C 28.09375 42.984375 23.796875 44 20.40625 44 
C 12.5 44 6.796875 37.625 6.796875 30.890625 
C 6.796875 27.1875 9.796875 27 10.40625 27 
C 11.703125 27 14 27.796875 14 30.59375 
C 14 33.09375 12.09375 34.1875 10.40625 34.1875 
C 10 34.1875 9.5 34.09375 9.203125 34 
C 11.296875 40.53125 16.703125 42.390625 20.203125 42.390625 
C 25.203125 42.390625 30.703125 37.828125 30.703125 29.296875 
L 30.703125 25.5 
C 24.796875 25.296875 17.703125 24.5 12.09375 21.453125 
C 5.796875 17.921875 4 12.84375 4 9 
C 4 1.203125 13 -1 18.296875 -1 
C 23.796875 -1 28.90625 2.109375 31.09375 7.890625 
C 31.296875 3.421875 34.09375 -0.609375 38.5 -0.609375 
C 40.59375 -0.609375 45.90625 0.796875 45.90625 8.796875 
L 45.90625 14.46875 
L 44.09375 14.46875 
L 44.09375 8.703125 
C 44.09375 2.515625 41.40625 1.703125 40.09375 1.703125 
C 36 1.703125 36 6.96875 36 11.4375 
z
M 30.703125 13.859375 
C 30.703125 5.046875 24.5 0.59375 19 0.59375 
C 14 0.59375 10.09375 4.34375 10.09375 9 
C 10.09375 12.046875 11.40625 17.40625 17.203125 20.65625 
C 22 23.390625 27.5 23.796875 30.703125 24 
z
" id="CMR17-97"/>
       <path d="M 15.296875 69 
L 3.40625 67.890625 
L 3.40625 65.296875 
C 9.296875 65.296875 10.203125 64.703125 10.203125 59.921875 
L 10.203125 6.859375 
C 10.203125 3.09375 9.796875 2.59375 3.40625 2.59375 
L 3.40625 0 
C 5.796875 0.1875 10.203125 0.1875 12.703125 0.1875 
C 15.296875 0.1875 19.703125 0.1875 22.09375 0 
L 22.09375 2.59375 
C 15.703125 2.59375 15.296875 2.984375 15.296875 6.859375 
z
" id="CMR17-108"/>
       <path d="M 30.59375 -24.40625 
C 30.59375 -24.3125 30.59375 -24.109375 30.296875 -23.8125 
C 25.703125 -19.109375 13.40625 -6.296875 13.40625 24.9375 
C 13.40625 56.171875 25.5 68.875 30.40625 73.890625 
C 30.40625 73.984375 30.59375 74.1875 30.59375 74.484375 
C 30.59375 74.796875 30.296875 75 29.90625 75 
C 28.796875 75 20.296875 67.578125 15.40625 56.5625 
C 10.40625 45.453125 9 34.65625 9 25.046875 
C 9 17.828125 9.703125 5.625 15.703125 -7.296875 
C 20.5 -17.703125 28.703125 -25 29.90625 -25 
C 30.40625 -25 30.59375 -24.8125 30.59375 -24.40625 
z
" id="CMR17-40"/>
       <path d="M 19.796875 32 
L 35.796875 32 
C 48.703125 32 58.09375 40.359375 58.09375 49.796875 
C 58.09375 59.234375 48.90625 68 35.796875 68 
L 5.203125 68 
L 5.203125 65.390625 
C 12.09375 65.390625 13.203125 65.390625 13.203125 60.921875 
L 13.203125 7.078125 
C 13.203125 2.59375 12.09375 2.59375 5.203125 2.59375 
L 5.203125 0 
C 8.09375 0.1875 13.40625 0.1875 16.5 0.1875 
C 19.59375 0.1875 24.90625 0.1875 27.796875 0 
L 27.796875 2.59375 
C 20.90625 2.59375 19.796875 2.59375 19.796875 7.078125 
z
M 19.59375 34.09375 
L 19.59375 61.515625 
C 19.59375 64.890625 19.796875 65.390625 23.796875 65.390625 
L 33.90625 65.390625 
C 46.796875 65.390625 50.5 58.046875 50.5 49.796875 
C 50.5 40.75 46.09375 34.09375 33.90625 34.09375 
z
" id="CMR17-80"/>
       <path d="M 43.09375 21.1875 
C 43.09375 34 33.796875 44 22.90625 44 
C 12 44 2.703125 34 2.703125 21.1875 
C 2.703125 8.59375 12 -1 22.90625 -1 
C 33.796875 -1 43.09375 8.59375 43.09375 21.1875 
z
M 22.90625 0.796875 
C 18.203125 0.796875 14.203125 3.59375 11.90625 7.5 
C 9.40625 12 9.09375 17.59375 9.09375 22 
C 9.09375 26.1875 9.296875 31.390625 11.90625 35.890625 
C 13.90625 39.1875 17.796875 42.390625 22.90625 42.390625 
C 27.40625 42.390625 31.203125 39.890625 33.59375 36.390625 
C 36.703125 31.6875 36.703125 25.09375 36.703125 22 
C 36.703125 18.09375 36.5 12.09375 33.796875 7.296875 
C 31 2.6875 26.703125 0.796875 22.90625 0.796875 
z
" id="CMR17-111"/>
       <path d="M 30.90625 42 
C 30.90625 43.796875 30.796875 43.890625 30.203125 43.890625 
C 29.796875 43.890625 29.703125 43.796875 28.5 42.296875 
C 28.203125 41.890625 27.296875 40.890625 27 40.5 
C 23.796875 43.890625 19.296875 44 17.59375 44 
C 6.5 44 2.5 38.1875 2.5 32.390625 
C 2.5 23.390625 12.703125 21.296875 15.59375 20.6875 
C 21.90625 19.390625 24.09375 19 26.203125 17.1875 
C 27.5 16 29.703125 13.796875 29.703125 10.1875 
C 29.703125 6 27.296875 0.59375 18.09375 0.59375 
C 9.40625 0.59375 6.296875 7.1875 4.5 16 
C 4.203125 17.390625 4.203125 17.5 3.40625 17.5 
C 2.59375 17.5 2.5 17.390625 2.5 15.390625 
L 2.5 1 
C 2.5 -0.8125 2.59375 -0.90625 3.203125 -0.90625 
C 3.703125 -0.90625 3.796875 -0.8125 4.296875 0 
C 4.90625 0.890625 6.40625 3.296875 7 4.296875 
C 9 1.59375 12.5 -1 18.09375 -1 
C 28 -1 33.296875 4.390625 33.296875 12.1875 
C 33.296875 17.296875 30.59375 20 29.296875 21.1875 
C 26.296875 24.296875 22.796875 25 18.59375 25.796875 
C 13.09375 27 6.09375 28.390625 6.09375 34.5 
C 6.09375 37.09375 7.5 42.59375 17.59375 42.59375 
C 28.296875 42.59375 28.90625 32.59375 29.09375 29.390625 
C 29.203125 28.890625 29.703125 28.796875 30 28.796875 
C 30.90625 28.796875 30.90625 29.09375 30.90625 30.796875 
z
" id="CMR17-115"/>
       <path d="M 15.5 61.890625 
C 15.5 64.09375 13.703125 66 11.40625 66 
C 9.203125 66 7.296875 64.1875 7.296875 61.890625 
C 7.296875 59.6875 9.09375 57.796875 11.40625 57.796875 
C 13.59375 57.796875 15.5 59.59375 15.5 61.890625 
z
M 3.796875 42.890625 
L 3.796875 40.296875 
C 9.40625 40.296875 10.203125 39.6875 10.203125 34.859375 
L 10.203125 6.921875 
C 10.203125 3.09375 9.796875 2.59375 3.40625 2.59375 
L 3.40625 0 
C 5.796875 0.1875 10.09375 0.1875 12.59375 0.1875 
C 15 0.1875 19.09375 0.1875 21.40625 0 
L 21.40625 2.59375 
C 15.5 2.59375 15.296875 3.203125 15.296875 6.8125 
L 15.296875 44 
z
" id="CMR17-105"/>
       <path d="M 15.09375 40.390625 
L 29.09375 40.390625 
L 29.09375 43 
L 15.09375 43 
L 15.09375 62 
L 13.296875 62 
C 13.09375 51.4375 9.59375 42.1875 1.09375 41.984375 
L 1.09375 40.390625 
L 9.796875 40.390625 
L 9.796875 12.15625 
C 9.796875 10.234375 9.796875 -1 21.40625 -1 
C 27.296875 -1 30.703125 4.8125 30.703125 12.25 
L 30.703125 17.984375 
L 28.90625 17.984375 
L 28.90625 12.34375 
C 28.90625 5.421875 26.203125 0.796875 22 0.796875 
C 19.09375 0.796875 15.09375 2.796875 15.09375 11.953125 
z
" id="CMR17-116"/>
       <path d="M 39.09375 33.953125 
C 40 36.171875 41.59375 40.1875 47.40625 40.390625 
L 47.40625 43 
C 45.5 42.890625 43 42.796875 41.09375 42.796875 
C 39 42.796875 35.703125 42.796875 33.703125 43 
L 33.703125 40.390625 
C 36.203125 40.1875 37.59375 38.984375 37.59375 36.375 
C 37.59375 35.46875 37.59375 35.265625 37 33.859375 
L 26 5.921875 
L 14.09375 36.0625 
C 13.5 37.375 13.5 37.578125 13.5 37.984375 
C 13.5 40.390625 16.796875 40.390625 18.296875 40.390625 
L 18.296875 43 
C 15.90625 42.796875 11.5 42.796875 9 42.796875 
C 6.296875 42.796875 3.203125 42.796875 1 43 
L 1 40.390625 
C 4.796875 40.390625 6.90625 40.390625 8.09375 37.28125 
L 22.59375 0.6875 
C 23.203125 -0.8125 23.296875 -1 24.203125 -1 
C 25.09375 -1 25.203125 -0.8125 25.796875 0.6875 
z
" id="CMR17-118"/>
       <path d="M 15 69 
L 3.09375 67.890625 
L 3.09375 65.296875 
C 9 65.296875 9.90625 64.703125 9.90625 60.046875 
L 9.90625 -0.203125 
L 11.703125 -0.203125 
L 14.59375 6.953125 
C 17.5 2.203125 21.796875 -1 27.59375 -1 
C 37.59375 -1 47.703125 7.859375 47.703125 21.59375 
C 47.703125 34.515625 38.703125 44 28.59375 44 
C 22.40625 44 18 40.671875 15 36.734375 
z
M 15.203125 31.59375 
C 15.203125 33.40625 15.203125 33.703125 16.59375 35.828125 
C 20.5 41.890625 26.09375 42.390625 28 42.390625 
C 31 42.390625 41.296875 40.78125 41.296875 21.6875 
C 41.296875 1.703125 29.5 0.59375 27.09375 0.59375 
C 24 0.59375 19.5 1.796875 16.296875 7.65625 
C 15.203125 9.578125 15.203125 9.78125 15.203125 11.59375 
z
" id="CMR17-98"/>
       <path d="M 16.59375 38.890625 
C 16.59375 41.390625 14.59375 43 12.5 43 
C 10.5 43 8.40625 41.390625 8.40625 38.890625 
C 8.40625 36.390625 10.40625 34.796875 12.5 34.796875 
C 14.5 34.796875 16.59375 36.390625 16.59375 38.890625 
z
M 16.59375 4.09375 
C 16.59375 6.59375 14.59375 8.1875 12.5 8.1875 
C 10.5 8.1875 8.40625 6.59375 8.40625 4.09375 
C 8.40625 1.59375 10.40625 0 12.5 0 
C 14.5 0 16.59375 1.59375 16.59375 4.09375 
z
" id="CMR17-58"/>
       <path d="M 62.203125 67.6875 
L 4.5 67.6875 
L 2.796875 45.6875 
L 4.59375 45.6875 
C 5.90625 62.203125 7.296875 65.09375 22.703125 65.09375 
C 24.5 65.09375 27.40625 65.09375 28.203125 64.984375 
C 30.09375 64.6875 30.09375 63.5 30.09375 61.203125 
L 30.09375 7.265625 
C 30.09375 3.6875 29.796875 2.59375 21.5 2.59375 
L 18.703125 2.59375 
L 18.703125 0 
C 23.5 0.09375 28.5 0.1875 33.40625 0.1875 
C 38.296875 0.1875 43.296875 0.09375 48.09375 0 
L 48.09375 2.59375 
L 45.296875 2.59375 
C 37 2.59375 36.703125 3.6875 36.703125 7.265625 
L 36.703125 61.203125 
C 36.703125 63.390625 36.703125 64.59375 38.5 64.984375 
C 39.296875 65.09375 42.203125 65.09375 44 65.09375 
C 59.296875 65.09375 60.796875 62.203125 62.09375 45.6875 
L 63.90625 45.6875 
z
" id="CMR17-84"/>
       <path d="M 15 23.703125 
C 15 33.34375 19.09375 42.390625 26.59375 42.390625 
C 27.296875 42.390625 28 42.296875 28.703125 41.984375 
C 28.703125 41.984375 26.5 41.28125 26.5 38.671875 
C 26.5 36.265625 28.40625 35.265625 29.90625 35.265625 
C 31.09375 35.265625 33.296875 35.96875 33.296875 38.78125 
C 33.296875 41.984375 30.09375 44 26.703125 44 
C 19.09375 44 15.796875 36.5625 14.796875 33.046875 
L 14.703125 33.046875 
L 14.703125 44 
L 3.09375 42.890625 
L 3.09375 40.28125 
C 9 40.28125 9.90625 39.6875 9.90625 34.859375 
L 9.90625 6.921875 
C 9.90625 3.09375 9.5 2.59375 3.09375 2.59375 
L 3.09375 0 
C 5.5 0.1875 10.09375 0.1875 12.703125 0.1875 
C 15.59375 0.1875 20.703125 0.1875 23.40625 0 
L 23.40625 2.59375 
C 16.203125 2.59375 15 2.59375 15 7.109375 
z
" id="CMR17-114"/>
       <path d="M 29.40625 42.890625 
L 29.40625 40.296875 
C 35.296875 40.296875 36.203125 39.6875 36.203125 34.828125 
L 36.203125 16.453125 
C 36.203125 7.96875 31.703125 0.59375 24.296875 0.59375 
C 16.09375 0.59375 15.40625 5.546875 15.40625 10.796875 
L 15.40625 44 
L 3.296875 42.890625 
L 3.296875 40.296875 
C 7.296875 40.296875 10 40.296875 10.09375 36.25 
L 10.09375 16.859375 
C 10.09375 10.09375 10.09375 5.75 12.703125 2.921875 
C 14 1.609375 16.5 -1 23.703125 -1 
C 32.203125 -1 35.5 6.25 36.296875 8.375 
L 36.40625 8.375 
L 36.40625 -1 
L 48.296875 -0.203125 
L 48.296875 2.40625 
C 42.40625 2.40625 41.5 3.015625 41.5 7.859375 
L 41.5 44 
z
" id="CMR17-117"/>
       <path d="M 26.296875 24.9375 
C 26.296875 32.140625 25.59375 44.359375 19.59375 57.265625 
C 14.796875 67.6875 6.59375 75 5.40625 75 
C 5.09375 75 4.703125 74.890625 4.703125 74.390625 
C 4.703125 74.1875 4.796875 74.09375 4.90625 73.890625 
C 9.703125 68.875 21.90625 56.171875 21.90625 25.046875 
C 21.90625 -6.1875 9.796875 -18.90625 4.90625 -23.90625 
C 4.796875 -24.109375 4.703125 -24.203125 4.703125 -24.40625 
C 4.703125 -24.90625 5.09375 -25 5.40625 -25 
C 6.5 -25 15 -17.609375 19.90625 -6.59375 
C 24.90625 4.515625 26.296875 15.328125 26.296875 24.9375 
z
" id="CMR17-41"/>
      </defs>
      <use transform="scale(0.996264)" xlink:href="#CMR17-82"/>
      <use transform="translate(67.791102 0)scale(0.996264)" xlink:href="#CMR17-101"/>
      <use transform="translate(108.276762 0)scale(0.996264)" xlink:href="#CMR17-99"/>
      <use transform="translate(148.762423 0)scale(0.996264)" xlink:href="#CMR17-97"/>
      <use transform="translate(194.4529 0)scale(0.996264)" xlink:href="#CMR17-108"/>
      <use transform="translate(219.323958 0)scale(0.996264)" xlink:href="#CMR17-108"/>
      <use transform="translate(274.270983 0)scale(0.996264)" xlink:href="#CMR17-40"/>
      <use transform="translate(309.551751 0)scale(0.996264)" xlink:href="#CMR17-80"/>
      <use transform="translate(369.535598 0)scale(0.996264)" xlink:href="#CMR17-111"/>
      <use transform="translate(415.226075 0)scale(0.996264)" xlink:href="#CMR17-115"/>
      <use transform="translate(451.027412 0)scale(0.996264)" xlink:href="#CMR17-105"/>
      <use transform="translate(475.898471 0)scale(0.996264)" xlink:href="#CMR17-116"/>
      <use transform="translate(511.179239 0)scale(0.996264)" xlink:href="#CMR17-105"/>
      <use transform="translate(536.050297 0)scale(0.996264)" xlink:href="#CMR17-118"/>
      <use transform="translate(581.740759 0)scale(0.996264)" xlink:href="#CMR17-101"/>
      <use transform="translate(652.302386 0)scale(0.996264)" xlink:href="#CMR17-108"/>
      <use transform="translate(677.173444 0)scale(0.996264)" xlink:href="#CMR17-97"/>
      <use transform="translate(722.863922 0)scale(0.996264)" xlink:href="#CMR17-98"/>
      <use transform="translate(776.36173 0)scale(0.996264)" xlink:href="#CMR17-101"/>
      <use transform="translate(816.847391 0)scale(0.996264)" xlink:href="#CMR17-108"/>
      <use transform="translate(841.718449 0)scale(0.996264)" xlink:href="#CMR17-58"/>
      <use transform="translate(907.075168 0)scale(0.996264)" xlink:href="#CMR17-84"/>
      <use transform="translate(965.777793 0)scale(0.996264)" xlink:href="#CMR17-114"/>
      <use transform="translate(1001.058561 0)scale(0.996264)" xlink:href="#CMR17-117"/>
      <use transform="translate(1051.953931 0)scale(0.996264)" xlink:href="#CMR17-101"/>
      <use transform="translate(1092.439591 0)scale(0.996264)" xlink:href="#CMR17-41"/>
     </g>
    </g>
   </g>
   <g id="matplotlib.axis_2">
    <g id="ytick_1">
     <g id="line2d_7">
      <defs>
       <path d="M 0 0 
L -4.8 0 
" id="mf507a4e9b2" style="stroke:#262626;"/>
      </defs>
      <g>
       <use style="fill:#262626;stroke:#262626;" x="50.299541" xlink:href="#mf507a4e9b2" y="202.676644"/>
      </g>
     </g>
     <g id="text_8">
      <!-- $\mathdefault{0.0}$ -->
      <g style="fill:#262626;" transform="translate(25.54618 207.242841)scale(0.132 -0.132)">
       <use transform="scale(0.996264)" xlink:href="#CMR17-48"/>
       <use transform="translate(45.690477 0)scale(0.996264)" xlink:href="#CMMI12-58"/>
       <use transform="translate(72.787654 0)scale(0.996264)" xlink:href="#CMR17-48"/>
      </g>
     </g>
    </g>
    <g id="ytick_2">
     <g id="line2d_8">
      <g>
       <use style="fill:#262626;stroke:#262626;" x="50.299541" xlink:href="#mf507a4e9b2" y="168.483497"/>
      </g>
     </g>
     <g id="text_9">
      <!-- $\mathdefault{0.2}$ -->
      <g style="fill:#262626;" transform="translate(25.54618 173.049695)scale(0.132 -0.132)">
       <use transform="scale(0.996264)" xlink:href="#CMR17-48"/>
       <use transform="translate(45.690477 0)scale(0.996264)" xlink:href="#CMMI12-58"/>
       <use transform="translate(72.787654 0)scale(0.996264)" xlink:href="#CMR17-50"/>
      </g>
     </g>
    </g>
    <g id="ytick_3">
     <g id="line2d_9">
      <g>
       <use style="fill:#262626;stroke:#262626;" x="50.299541" xlink:href="#mf507a4e9b2" y="134.290351"/>
      </g>
     </g>
     <g id="text_10">
      <!-- $\mathdefault{0.4}$ -->
      <g style="fill:#262626;" transform="translate(25.54618 138.856548)scale(0.132 -0.132)">
       <use transform="scale(0.996264)" xlink:href="#CMR17-48"/>
       <use transform="translate(45.690477 0)scale(0.996264)" xlink:href="#CMMI12-58"/>
       <use transform="translate(72.787654 0)scale(0.996264)" xlink:href="#CMR17-52"/>
      </g>
     </g>
    </g>
    <g id="ytick_4">
     <g id="line2d_10">
      <g>
       <use style="fill:#262626;stroke:#262626;" x="50.299541" xlink:href="#mf507a4e9b2" y="100.097204"/>
      </g>
     </g>
     <g id="text_11">
      <!-- $\mathdefault{0.6}$ -->
      <g style="fill:#262626;" transform="translate(25.54618 104.663402)scale(0.132 -0.132)">
       <use transform="scale(0.996264)" xlink:href="#CMR17-48"/>
       <use transform="translate(45.690477 0)scale(0.996264)" xlink:href="#CMMI12-58"/>
       <use transform="translate(72.787654 0)scale(0.996264)" xlink:href="#CMR17-54"/>
      </g>
     </g>
    </g>
    <g id="ytick_5">
     <g id="line2d_11">
      <g>
       <use style="fill:#262626;stroke:#262626;" x="50.299541" xlink:href="#mf507a4e9b2" y="65.904058"/>
      </g>
     </g>
     <g id="text_12">
      <!-- $\mathdefault{0.8}$ -->
      <g style="fill:#262626;" transform="translate(25.54618 70.470255)scale(0.132 -0.132)">
       <use transform="scale(0.996264)" xlink:href="#CMR17-48"/>
       <use transform="translate(45.690477 0)scale(0.996264)" xlink:href="#CMMI12-58"/>
       <use transform="translate(72.787654 0)scale(0.996264)" xlink:href="#CMR17-56"/>
      </g>
     </g>
    </g>
    <g id="ytick_6">
     <g id="line2d_12">
      <g>
       <use style="fill:#262626;stroke:#262626;" x="50.299541" xlink:href="#mf507a4e9b2" y="31.710912"/>
      </g>
     </g>
     <g id="text_13">
      <!-- $\mathdefault{1.0}$ -->
      <g style="fill:#262626;" transform="translate(25.54618 36.277109)scale(0.132 -0.132)">
       <use transform="scale(0.996264)" xlink:href="#CMR17-49"/>
       <use transform="translate(45.690477 0)scale(0.996264)" xlink:href="#CMMI12-58"/>
       <use transform="translate(72.787654 0)scale(0.996264)" xlink:href="#CMR17-48"/>
      </g>
     </g>
    </g>
    <g id="text_14">
     <!-- Precision (Positive label: True) -->
     <g style="fill:#262626;" transform="translate(17.959639 213.258127)rotate(-90)scale(0.144 -0.144)">
      <defs>
       <path d="M 41.5 30.53125 
C 41.5 35.65625 40.5 44 28.703125 44 
C 20.796875 44 16.703125 37.875 15.203125 33.84375 
L 15.09375 33.84375 
L 15.09375 44 
L 3.296875 42.890625 
L 3.296875 40.28125 
C 9.203125 40.28125 10.09375 39.6875 10.09375 34.859375 
L 10.09375 6.921875 
C 10.09375 3.09375 9.703125 2.59375 3.296875 2.59375 
L 3.296875 0 
C 5.703125 0.1875 10.09375 0.1875 12.703125 0.1875 
C 15.296875 0.1875 19.796875 0.1875 22.203125 0 
L 22.203125 2.59375 
C 15.796875 2.59375 15.40625 3 15.40625 6.921875 
L 15.40625 26.21875 
C 15.40625 35.453125 21 42.390625 28 42.390625 
C 35.40625 42.390625 36.203125 35.765625 36.203125 30.9375 
L 36.203125 6.921875 
C 36.203125 3.09375 35.796875 2.59375 29.40625 2.59375 
L 29.40625 0 
C 31.796875 0.1875 36.203125 0.1875 38.796875 0.1875 
C 41.40625 0.1875 45.90625 0.1875 48.296875 0 
L 48.296875 2.59375 
C 41.90625 2.59375 41.5 3 41.5 6.921875 
z
" id="CMR17-110"/>
      </defs>
      <use transform="scale(0.996264)" xlink:href="#CMR17-80"/>
      <use transform="translate(62.586301 0)scale(0.996264)" xlink:href="#CMR17-114"/>
      <use transform="translate(97.867068 0)scale(0.996264)" xlink:href="#CMR17-101"/>
      <use transform="translate(138.352729 0)scale(0.996264)" xlink:href="#CMR17-99"/>
      <use transform="translate(178.838389 0)scale(0.996264)" xlink:href="#CMR17-105"/>
      <use transform="translate(203.709448 0)scale(0.996264)" xlink:href="#CMR17-115"/>
      <use transform="translate(239.510785 0)scale(0.996264)" xlink:href="#CMR17-105"/>
      <use transform="translate(264.381844 0)scale(0.996264)" xlink:href="#CMR17-111"/>
      <use transform="translate(310.072321 0)scale(0.996264)" xlink:href="#CMR17-110"/>
      <use transform="translate(391.043657 0)scale(0.996264)" xlink:href="#CMR17-40"/>
      <use transform="translate(426.324425 0)scale(0.996264)" xlink:href="#CMR17-80"/>
      <use transform="translate(486.308271 0)scale(0.996264)" xlink:href="#CMR17-111"/>
      <use transform="translate(531.998749 0)scale(0.996264)" xlink:href="#CMR17-115"/>
      <use transform="translate(567.800086 0)scale(0.996264)" xlink:href="#CMR17-105"/>
      <use transform="translate(592.671145 0)scale(0.996264)" xlink:href="#CMR17-116"/>
      <use transform="translate(627.951913 0)scale(0.996264)" xlink:href="#CMR17-105"/>
      <use transform="translate(652.822971 0)scale(0.996264)" xlink:href="#CMR17-118"/>
      <use transform="translate(698.513433 0)scale(0.996264)" xlink:href="#CMR17-101"/>
      <use transform="translate(769.07506 0)scale(0.996264)" xlink:href="#CMR17-108"/>
      <use transform="translate(793.946118 0)scale(0.996264)" xlink:href="#CMR17-97"/>
      <use transform="translate(839.636595 0)scale(0.996264)" xlink:href="#CMR17-98"/>
      <use transform="translate(893.134404 0)scale(0.996264)" xlink:href="#CMR17-101"/>
      <use transform="translate(933.620064 0)scale(0.996264)" xlink:href="#CMR17-108"/>
      <use transform="translate(958.491123 0)scale(0.996264)" xlink:href="#CMR17-58"/>
      <use transform="translate(1023.847842 0)scale(0.996264)" xlink:href="#CMR17-84"/>
      <use transform="translate(1082.550467 0)scale(0.996264)" xlink:href="#CMR17-114"/>
      <use transform="translate(1117.831235 0)scale(0.996264)" xlink:href="#CMR17-117"/>
      <use transform="translate(1168.726604 0)scale(0.996264)" xlink:href="#CMR17-101"/>
      <use transform="translate(1209.212265 0)scale(0.996264)" xlink:href="#CMR17-41"/>
     </g>
    </g>
   </g>
   <g id="PolyCollection_1">
    <defs>
     <path d="M 75.799237 -235.049655 
L 75.799237 -235.049655 
L 78.930488 -217.08302 
L 82.06174 -199.116384 
L 85.192992 -181.149749 
L 88.324243 -166.787128 
L 91.455495 -167.561361 
L 94.586747 -168.335578 
L 97.717999 -169.109778 
L 100.84925 -169.88396 
L 103.980502 -170.658125 
L 107.111754 -171.432271 
L 110.243005 -172.206398 
L 113.374257 -172.980504 
L 116.505509 -173.75459 
L 119.63676 -174.528654 
L 122.768012 -175.302695 
L 125.899264 -168.132489 
L 129.030515 -168.863085 
L 132.161767 -169.590009 
L 135.293019 -170.313068 
L 138.424271 -171.032056 
L 141.555522 -171.746756 
L 144.686774 -172.456932 
L 147.818026 -173.162337 
L 150.949277 -173.862705 
L 154.080529 -174.557753 
L 157.211781 -175.24718 
L 160.343032 -175.930664 
L 163.474284 -176.607861 
L 166.605536 -177.278406 
L 169.736788 -177.933896 
L 172.868039 -178.562898 
L 175.999291 -179.183278 
L 179.130543 -179.794257 
L 182.261794 -180.394971 
L 185.393046 -180.984459 
L 188.524298 -181.561654 
L 191.655549 -182.235308 
L 194.786801 -182.884932 
L 197.918053 -183.446695 
L 201.049304 -184.08709 
L 204.180556 -184.944335 
L 207.311808 -185.7964 
L 210.44306 -186.639624 
L 213.574311 -187.48091 
L 216.705563 -188.320136 
L 219.836815 -189.157169 
L 222.968066 -189.990863 
L 226.099318 -190.81364 
L 229.23057 -191.633961 
L 232.361821 -192.451653 
L 235.493073 -193.26653 
L 238.624325 -194.078389 
L 241.755577 -194.887006 
L 244.886828 -195.69214 
L 248.01808 -196.493525 
L 251.149332 -197.290873 
L 254.280583 -196.346036 
L 257.411835 -197.143795 
L 260.543087 -197.935387 
L 263.674338 -197.481615 
L 266.80559 -198.260872 
L 269.936842 -194.475068 
L 273.068093 -195.063384 
L 276.199345 -195.638627 
L 279.330597 -196.200608 
L 282.461849 -196.748703 
L 285.5931 -197.281036 
L 288.724352 -194.8077 
L 291.855604 -194.492693 
L 294.986855 -194.084386 
L 298.118107 -193.694974 
L 301.249359 -189.045872 
L 304.38061 -185.578845 
L 307.511862 -185.665125 
L 310.643114 -181.475726 
L 313.774366 -182.021733 
L 316.905617 -182.559571 
L 320.036869 -183.096427 
L 323.168121 -181.943832 
L 326.299372 -182.15354 
L 329.430624 -182.352557 
L 332.561876 -169.050658 
L 335.693127 -168.176752 
L 338.824379 -165.972398 
L 341.955631 -163.997495 
L 345.086882 -163.974913 
L 348.218134 -160.336722 
L 351.349386 -160.535142 
L 354.480638 -152.688667 
L 357.611889 -140.568381 
L 360.743141 -140.992544 
L 363.874393 -140.487801 
L 367.005644 -140.905953 
L 370.136896 -132.052843 
L 373.268148 -131.353094 
L 376.399399 -98.024285 
L 379.530651 -98.528207 
L 382.661903 -99.123751 
L 385.793155 -64.083923 
L 385.793155 -98.224287 
L 385.793155 -98.224287 
L 382.661903 -184.208881 
L 379.530651 -186.060607 
L 376.399399 -189.318413 
L 373.268148 -204.612207 
L 370.136896 -205.240026 
L 367.005644 -210.095325 
L 363.874393 -210.914175 
L 360.743141 -220.747096 
L 357.611889 -220.878437 
L 354.480638 -218.258541 
L 351.349386 -223.064511 
L 348.218134 -223.203288 
L 345.086882 -222.304195 
L 341.955631 -222.38746 
L 338.824379 -221.978327 
L 335.693127 -222.821234 
L 332.561876 -222.962442 
L 329.430624 -220.514664 
L 326.299372 -220.85917 
L 323.168121 -220.664018 
L 320.036869 -221.953021 
L 316.905617 -221.56817 
L 313.774366 -221.116579 
L 310.643114 -220.660696 
L 307.511862 -219.646526 
L 304.38061 -219.197233 
L 301.249359 -218.863187 
L 298.118107 -218.789331 
L 294.986855 -219.215027 
L 291.855604 -219.281354 
L 288.724352 -219.374284 
L 285.5931 -224.459638 
L 282.461849 -224.29376 
L 279.330597 -224.149157 
L 276.199345 -224.01844 
L 273.068093 -223.900986 
L 269.936842 -223.790279 
L 266.80559 -224.37533 
L 263.674338 -224.329632 
L 260.543087 -225.077217 
L 257.411835 -225.056458 
L 254.280583 -225.033895 
L 251.149332 -227.933502 
L 248.01808 -227.91665 
L 244.886828 -227.903836 
L 241.755577 -227.89477 
L 238.624325 -227.889187 
L 235.493073 -227.886845 
L 232.361821 -227.887523 
L 229.23057 -227.891015 
L 226.099318 -227.897136 
L 222.968066 -227.905712 
L 219.836815 -227.892587 
L 216.705563 -227.878963 
L 213.574311 -227.867531 
L 210.44306 -227.85816 
L 207.311808 -227.850727 
L 204.180556 -227.82719 
L 201.049304 -227.79732 
L 197.918053 -228.430182 
L 194.786801 -229.570799 
L 191.655549 -230.703338 
L 188.524298 -231.468948 
L 185.393046 -232.449906 
L 182.261794 -233.443157 
L 179.130543 -234.447634 
L 175.999291 -235.049655 
L 172.868039 -235.049655 
L 169.736788 -235.049655 
L 166.605536 -235.049655 
L 163.474284 -235.049655 
L 160.343032 -235.049655 
L 157.211781 -235.049655 
L 154.080529 -235.049655 
L 150.949277 -235.049655 
L 147.818026 -235.049655 
L 144.686774 -235.049655 
L 141.555522 -235.049655 
L 138.424271 -235.049655 
L 135.293019 -235.049655 
L 132.161767 -235.049655 
L 129.030515 -235.049655 
L 125.899264 -235.049655 
L 122.768012 -235.049655 
L 119.63676 -235.049655 
L 116.505509 -235.049655 
L 113.374257 -235.049655 
L 110.243005 -235.049655 
L 107.111754 -235.049655 
L 103.980502 -235.049655 
L 100.84925 -235.049655 
L 97.717999 -235.049655 
L 94.586747 -235.049655 
L 91.455495 -235.049655 
L 88.324243 -235.049655 
L 85.192992 -235.049655 
L 82.06174 -235.049655 
L 78.930488 -235.049655 
L 75.799237 -235.049655 
z
" id="m17d81de1ff" style="stroke:#808080;stroke-opacity:0.2;stroke-width:0.8;"/>
    </defs>
    <g clip-path="url(#pae7eca3cbd)">
     <use style="fill:#808080;fill-opacity:0.2;stroke:#808080;stroke-opacity:0.2;stroke-width:0.8;" x="0" xlink:href="#m17d81de1ff" y="266.760567"/>
    </g>
   </g>
   <g id="PolyCollection_2">
    <defs>
     <path d="M 75.799237 -235.049655 
L 75.799237 -235.049655 
L 78.930488 -142.313698 
L 82.06174 -152.157179 
L 85.192992 -161.61531 
L 88.324243 -171.250054 
L 91.455495 -181.211316 
L 94.586747 -185.95456 
L 97.717999 -189.293334 
L 100.84925 -192.458118 
L 103.980502 -195.642284 
L 107.111754 -198.978091 
L 110.243005 -201.228701 
L 113.374257 -202.674445 
L 116.505509 -204.134434 
L 119.63676 -205.22148 
L 122.768012 -206.704012 
L 125.899264 -208.203996 
L 129.030515 -208.925662 
L 132.161767 -209.775346 
L 135.293019 -210.260792 
L 138.424271 -211.240172 
L 141.555522 -211.552729 
L 144.686774 -210.813304 
L 147.818026 -209.768165 
L 150.949277 -209.286438 
L 154.080529 -207.06399 
L 157.211781 -206.160484 
L 160.343032 -204.719152 
L 163.474284 -202.008439 
L 166.605536 -200.571073 
L 169.736788 -198.305193 
L 172.868039 -198.132096 
L 175.999291 -196.835087 
L 179.130543 -194.135321 
L 182.261794 -193.065711 
L 185.393046 -193.074831 
L 188.524298 -193.307207 
L 191.655549 -192.586055 
L 194.786801 -192.51978 
L 197.918053 -192.262962 
L 201.049304 -190.517946 
L 204.180556 -189.464955 
L 207.311808 -188.663348 
L 210.44306 -187.598118 
L 213.574311 -187.464585 
L 216.705563 -186.857134 
L 219.836815 -186.291592 
L 222.968066 -185.809782 
L 226.099318 -182.409004 
L 229.23057 -182.30457 
L 232.361821 -181.016915 
L 235.493073 -180.6231 
L 238.624325 -179.322997 
L 241.755577 -174.122293 
L 244.886828 -174.304773 
L 248.01808 -172.552676 
L 251.149332 -172.337917 
L 254.280583 -170.241334 
L 257.411835 -170.58364 
L 260.543087 -171.049103 
L 263.674338 -170.344111 
L 266.80559 -170.827037 
L 269.936842 -169.226618 
L 273.068093 -162.111684 
L 276.199345 -162.694684 
L 279.330597 -160.570768 
L 282.461849 -161.113675 
L 285.5931 -152.012897 
L 288.724352 -152.657631 
L 291.855604 -153.305254 
L 294.986855 -152.66613 
L 298.118107 -153.294464 
L 301.249359 -152.697728 
L 304.38061 -147.877519 
L 307.511862 -148.47963 
L 310.643114 -144.619311 
L 313.774366 -145.214968 
L 316.905617 -144.921956 
L 320.036869 -145.50293 
L 323.168121 -137.897191 
L 326.299372 -136.202699 
L 329.430624 -136.743475 
L 332.561876 -132.152645 
L 335.693127 -132.675972 
L 338.824379 -130.9071 
L 341.955631 -127.405692 
L 345.086882 -127.886332 
L 348.218134 -125.26269 
L 351.349386 -125.707021 
L 354.480638 -126.11513 
L 357.611889 -118.955319 
L 360.743141 -119.25166 
L 363.874393 -117.357733 
L 367.005644 -117.488744 
L 370.136896 -110.339734 
L 373.268148 -109.532564 
L 376.399399 -86.628996 
L 379.530651 -84.206553 
L 382.661903 -78.185789 
L 385.793155 -64.083923 
L 385.793155 -109.885377 
L 385.793155 -109.885377 
L 382.661903 -162.320823 
L 379.530651 -168.03565 
L 376.399399 -171.353488 
L 373.268148 -213.070089 
L 370.136896 -213.667888 
L 367.005644 -222.452423 
L 363.874393 -222.490506 
L 360.743141 -222.082924 
L 357.611889 -221.998293 
L 354.480638 -220.533878 
L 351.349386 -220.41642 
L 348.218134 -220.270719 
L 345.086882 -219.687053 
L 341.955631 -219.537933 
L 338.824379 -218.948014 
L 335.693127 -222.592407 
L 332.561876 -222.472584 
L 329.430624 -221.948316 
L 326.299372 -221.839121 
L 323.168121 -221.669755 
L 320.036869 -222.659383 
L 316.905617 -222.533347 
L 313.774366 -222.320443 
L 310.643114 -222.195052 
L 307.511862 -221.801776 
L 304.38061 -221.68281 
L 301.249359 -223.4092 
L 298.118107 -223.175563 
L 294.986855 -223.041809 
L 291.855604 -222.829043 
L 288.724352 -222.696411 
L 285.5931 -222.552061 
L 282.461849 -223.068632 
L 279.330597 -222.912196 
L 276.199345 -223.590925 
L 273.068093 -223.434565 
L 269.936842 -232.460629 
L 266.80559 -232.902788 
L 263.674338 -232.804401 
L 260.543087 -233.057041 
L 257.411835 -232.95102 
L 254.280583 -232.812948 
L 251.149332 -233.652643 
L 248.01808 -233.367111 
L 244.886828 -234.85146 
L 241.755577 -234.663959 
L 238.624325 -235.049655 
L 235.493073 -235.049655 
L 232.361821 -235.049655 
L 229.23057 -235.049655 
L 226.099318 -235.049655 
L 222.968066 -235.049655 
L 219.836815 -235.049655 
L 216.705563 -235.049655 
L 213.574311 -235.049655 
L 210.44306 -235.049655 
L 207.311808 -235.049655 
L 204.180556 -235.049655 
L 201.049304 -235.049655 
L 197.918053 -235.049655 
L 194.786801 -235.049655 
L 191.655549 -235.049655 
L 188.524298 -235.049655 
L 185.393046 -235.049655 
L 182.261794 -235.049655 
L 179.130543 -235.049655 
L 175.999291 -235.049655 
L 172.868039 -235.049655 
L 169.736788 -235.049655 
L 166.605536 -235.049655 
L 163.474284 -235.049655 
L 160.343032 -235.049655 
L 157.211781 -235.049655 
L 154.080529 -235.049655 
L 150.949277 -235.049655 
L 147.818026 -235.049655 
L 144.686774 -235.049655 
L 141.555522 -235.049655 
L 138.424271 -235.049655 
L 135.293019 -235.049655 
L 132.161767 -235.049655 
L 129.030515 -235.049655 
L 125.899264 -235.049655 
L 122.768012 -235.049655 
L 119.63676 -235.049655 
L 116.505509 -235.049655 
L 113.374257 -235.049655 
L 110.243005 -235.049655 
L 107.111754 -235.049655 
L 103.980502 -235.049655 
L 100.84925 -235.049655 
L 97.717999 -235.049655 
L 94.586747 -235.049655 
L 91.455495 -235.049655 
L 88.324243 -235.049655 
L 85.192992 -235.049655 
L 82.06174 -235.049655 
L 78.930488 -235.049655 
L 75.799237 -235.049655 
z
" id="m147c143590" style="stroke:#808080;stroke-opacity:0.2;stroke-width:0.8;"/>
    </defs>
    <g clip-path="url(#pae7eca3cbd)">
     <use style="fill:#808080;fill-opacity:0.2;stroke:#808080;stroke-opacity:0.2;stroke-width:0.8;" x="0" xlink:href="#m147c143590" y="266.760567"/>
    </g>
   </g>
   <g id="line2d_13">
    <path clip-path="url(#pae7eca3cbd)" d="M 385.793155 110.133877 
L 385.588403 110.133877 
L 385.588403 110.029383 
L 385.588403 106.085474 
L 385.383651 106.113257 
L 385.383651 106.004921 
L 385.383651 105.129403 
L 385.1789 105.129403 
L 385.1789 105.046552 
L 385.1789 102.198533 
L 384.974148 102.198533 
L 384.974148 102.108566 
L 384.974148 100.273528 
L 384.769397 100.273528 
L 384.769397 100.178714 
L 384.769397 100.015565 
L 384.564645 100.015565 
L 384.564645 99.920038 
L 384.564645 89.101171 
L 384.359893 89.101171 
L 384.359893 89.026287 
L 384.359893 82.618229 
L 384.155142 82.618229 
L 384.155142 82.529937 
L 384.155142 82.079738 
L 383.95039 82.103341 
L 383.95039 81.990233 
L 383.95039 77.953703 
L 383.745639 77.953703 
L 383.745639 77.855061 
L 383.745639 75.697651 
L 383.540887 75.697651 
L 383.540887 75.593807 
L 383.540887 72.371626 
L 383.336135 72.392255 
L 383.336135 72.326121 
L 383.336135 71.460226 
L 383.131384 71.460226 
L 383.131384 71.41344 
L 383.131384 70.738565 
L 382.721881 70.690746 
L 382.721881 70.64283 
L 382.721881 69.19871 
L 382.312377 69.218245 
L 382.312377 69.098512 
L 382.312377 68.397682 
L 382.107626 68.397682 
L 382.107626 68.346426 
L 382.107626 67.42295 
L 381.902874 67.441845 
L 381.902874 67.370254 
L 381.902874 67.226845 
L 381.288619 67.120702 
L 381.288619 67.139517 
L 381.288619 66.850833 
L 380.469613 66.834608 
L 380.469613 66.780805 
L 380.469613 66.416864 
L 380.264861 66.416864 
L 380.264861 66.362411 
L 380.264861 65.701405 
L 380.06011 65.701405 
L 380.06011 65.645857 
L 380.06011 65.571906 
L 379.855358 65.571906 
L 379.855358 65.516129 
L 379.855358 65.070079 
L 379.650607 65.088169 
L 379.650607 65.013515 
L 379.650607 64.714084 
L 379.445855 64.714084 
L 379.445855 64.656948 
L 379.445855 63.97742 
L 379.241103 63.97742 
L 379.241103 63.919133 
L 379.241103 63.46169 
L 379.036352 63.479145 
L 379.036352 63.402579 
L 379.036352 62.864248 
L 378.422097 62.89869 
L 378.422097 62.761166 
L 378.422097 62.683651 
L 377.807842 62.718008 
L 377.807842 62.579724 
L 377.807842 62.501849 
L 377.603091 62.518974 
L 377.603091 62.440979 
L 377.603091 62.049697 
L 377.193587 61.988083 
L 377.193587 62.005007 
L 377.193587 60.975316 
L 376.988836 60.991803 
L 376.988836 60.911936 
L 376.988836 59.784262 
L 376.784084 59.784262 
L 376.784084 59.71895 
L 376.784084 58.818815 
L 376.579333 58.818815 
L 376.579333 58.75191 
L 376.579333 57.587874 
L 376.374581 57.587874 
L 376.374581 57.518925 
L 376.374581 57.097934 
L 376.169829 57.097934 
L 376.169829 57.028137 
L 376.169829 56.006042 
L 375.965078 56.006042 
L 375.965078 55.934393 
L 375.965078 54.808937 
L 375.760326 54.808937 
L 375.760326 54.735239 
L 375.760326 54.12101 
L 375.555575 54.13431 
L 375.555575 54.046102 
L 375.555575 53.514646 
L 374.94132 53.540665 
L 374.94132 53.464616 
L 374.94132 53.017606 
L 374.736568 53.030379 
L 374.736568 52.94061 
L 374.736568 51.122321 
L 374.327065 51.134114 
L 374.327065 51.05375 
L 374.327065 50.683938 
L 374.122313 50.683938 
L 374.122313 50.602729 
L 374.122313 50.41682 
L 373.303307 50.357909 
L 373.303307 50.369342 
L 373.303307 50.275902 
L 373.098555 50.275902 
L 373.098555 50.287299 
L 373.098555 50.006137 
L 372.689052 50.017396 
L 372.689052 49.934616 
L 372.689052 49.746161 
L 372.484301 49.746161 
L 372.484301 49.662841 
L 372.484301 49.568272 
L 371.460543 49.517634 
L 371.460543 49.52868 
L 371.460543 49.243134 
L 371.05104 49.254037 
L 371.05104 49.16943 
L 371.05104 49.073786 
L 370.436785 48.999581 
L 370.436785 49.01038 
L 370.436785 48.818177 
L 370.027282 48.828882 
L 370.027282 48.743212 
L 370.027282 48.646702 
L 369.82253 48.646702 
L 369.82253 48.560642 
L 369.82253 48.172684 
L 368.798772 48.214228 
L 368.798772 48.127078 
L 368.798772 47.539064 
L 368.59402 47.549108 
L 368.59402 47.450614 
L 368.59402 47.253251 
L 367.160759 47.213551 
L 367.160759 47.223457 
L 367.160759 47.024541 
L 366.751256 46.934638 
L 366.751256 46.944397 
L 366.751256 46.44365 
L 366.341753 46.45313 
L 366.341753 46.36197 
L 366.341753 46.261187 
L 365.727498 46.279973 
L 365.727498 46.188294 
L 365.727498 46.087073 
L 365.522746 46.087073 
L 365.522746 45.994966 
L 365.522746 45.893422 
L 364.294237 45.939529 
L 364.294237 45.948786 
L 364.294237 45.539842 
L 363.47523 45.548869 
L 363.47523 45.473205 
L 363.47523 45.370256 
L 362.451472 45.3028 
L 362.451472 44.792722 
L 361.837218 44.810003 
L 361.837218 44.714258 
L 361.837218 44.400217 
L 360.608708 44.425495 
L 360.608708 44.028656 
L 358.356441 43.996562 
L 358.356441 43.692337 
L 357.332683 43.617247 
L 357.332683 43.625303 
L 357.332683 43.193685 
L 355.899421 43.124155 
L 355.899421 43.030827 
L 353.851905 42.991125 
L 353.851905 42.998883 
L 353.851905 42.888988 
L 353.442402 42.896686 
L 353.442402 42.683867 
L 348.937867 42.613421 
L 348.937867 42.51633 
L 347.914109 42.433921 
L 347.914109 42.441483 
L 347.914109 42.328402 
L 338.700287 42.297402 
L 338.700287 41.738227 
L 334.400504 41.640418 
L 334.400504 41.655227 
L 334.400504 41.173488 
L 331.533981 41.216144 
L 331.533981 40.661318 
L 325.800937 40.67492 
L 325.800937 39.718674 
L 323.343917 39.653414 
L 323.343917 39.537283 
L 320.886898 39.445076 
L 320.886898 39.351838 
L 317.406121 39.263615 
L 317.406121 39.192394 
L 316.791866 39.198462 
L 316.791866 39.077728 
L 300.411739 39.077728 
L 300.411739 38.734853 
L 300.002235 38.734853 
L 300.002235 38.603483 
L 294.473942 38.603483 
L 294.473942 36.533421 
L 285.669624 36.533421 
L 285.669624 36.098815 
L 75.799237 36.107173 
L 75.799237 31.710912 
L 75.799237 31.710912 
" style="fill:none;stroke:#0173b2;stroke-linecap:round;stroke-opacity:0.3;"/>
   </g>
   <g id="line2d_14">
    <path clip-path="url(#pae7eca3cbd)" d="M 385.793155 123.448621 
L 369.477685 123.448621 
L 369.477685 125.742064 
L 369.477685 125.742064 
L 369.477685 123.769383 
L 369.477685 123.769383 
L 369.477685 121.692876 
L 369.477685 121.692876 
L 369.477685 119.504125 
L 369.477685 119.504125 
L 369.477685 117.193778 
L 369.477685 117.193778 
L 369.477685 114.75141 
L 369.477685 114.75141 
L 369.477685 112.165374 
L 369.477685 112.165374 
L 369.477685 109.422608 
L 369.477685 109.422608 
L 369.477685 106.508419 
L 369.477685 106.508419 
L 369.477685 103.406219 
L 369.477685 103.406219 
L 369.477685 100.097204 
L 369.477685 100.097204 
L 369.477685 96.559982 
L 369.477685 96.559982 
L 369.477685 92.770102 
L 353.162216 92.770102 
L 353.162216 95.031553 
L 353.162216 95.031553 
L 353.162216 90.891357 
L 353.162216 90.891357 
L 353.162216 86.419946 
L 353.162216 86.419946 
L 353.162216 81.575917 
L 353.162216 81.575917 
L 353.162216 76.310668 
L 336.846746 76.310668 
L 336.846746 78.337929 
L 304.215808 78.337929 
L 304.215808 83.000631 
L 304.215808 83.000631 
L 304.215808 76.701894 
L 287.900338 76.701894 
L 287.900338 63.766986 
L 287.900338 63.766986 
L 287.900338 54.506342 
L 287.900338 54.506342 
L 287.900338 43.92275 
L 271.584869 43.92275 
L 271.584869 44.862122 
L 255.2694 44.862122 
L 255.2694 45.958056 
L 222.638461 45.958056 
L 222.638461 48.807485 
L 206.322992 48.807485 
L 206.322992 50.707104 
L 190.007522 50.707104 
L 190.007522 53.081628 
L 124.745645 53.081628 
L 124.745645 31.710912 
L 75.799237 31.710912 
L 75.799237 31.710912 
" style="fill:none;stroke:#de8f05;stroke-linecap:round;stroke-opacity:0.3;"/>
   </g>
   <g id="line2d_15">
    <path clip-path="url(#pae7eca3cbd)" d="M 385.793155 90.664612 
L 369.477685 90.664612 
L 369.477685 92.770102 
L 353.162216 92.770102 
L 353.162216 95.031553 
L 353.162216 95.031553 
L 353.162216 90.891357 
L 353.162216 90.891357 
L 353.162216 86.419946 
L 353.162216 86.419946 
L 353.162216 81.575917 
L 336.846746 81.575917 
L 336.846746 78.337929 
L 336.846746 78.337929 
L 336.846746 72.417038 
L 320.531277 72.417038 
L 320.531277 67.703697 
L 320.531277 67.703697 
L 320.531277 60.2052 
L 304.215808 60.2052 
L 304.215808 61.881335 
L 124.745645 61.881335 
L 124.745645 74.452345 
L 124.745645 74.452345 
L 124.745645 31.710912 
L 75.799237 31.710912 
L 75.799237 31.710912 
" style="fill:none;stroke:#029e73;stroke-linecap:round;stroke-opacity:0.3;"/>
   </g>
   <g id="line2d_16">
    <path clip-path="url(#pae7eca3cbd)" d="M 385.793155 152.759642 
L 378.043307 152.759642 
L 378.043307 153.649706 
L 378.043307 152.543835 
L 370.293459 152.543835 
L 370.293459 153.459236 
L 370.293459 151.11555 
L 362.543611 151.11555 
L 362.543611 152.070787 
L 354.793763 152.070787 
L 354.793763 153.041431 
L 354.793763 128.522832 
L 347.043915 128.522832 
L 347.043915 129.703465 
L 347.043915 122.892635 
L 339.294067 122.892635 
L 339.294067 123.048768 
L 339.294067 119.636145 
L 331.544219 119.636145 
L 331.544219 89.83926 
L 308.294675 89.83926 
L 308.294675 93.549581 
L 308.294675 83.398226 
L 300.544827 83.398226 
L 300.544827 72.202795 
L 269.545435 72.202795 
L 269.545435 73.15715 
L 269.545435 60.2052 
L 261.795587 60.2052 
L 261.795587 61.187762 
L 261.795587 56.134588 
L 254.045739 56.134588 
L 254.045739 57.039168 
L 254.045739 45.38817 
L 199.796804 45.38817 
L 199.796804 50.707104 
L 192.046956 50.707104 
L 192.046956 42.39627 
L 168.797412 42.39627 
L 168.797412 31.710912 
L 75.799237 31.710912 
L 75.799237 31.710912 
" style="fill:none;stroke:#d55e00;stroke-linecap:round;stroke-opacity:0.3;"/>
   </g>
   <g id="line2d_17">
    <path clip-path="url(#pae7eca3cbd)" d="M 385.793155 188.054574 
L 373.870312 188.054574 
L 373.870312 188.57056 
L 373.870312 73.15715 
L 361.947469 73.15715 
L 361.947469 44.862122 
L 350.024626 44.862122 
L 350.024626 45.38817 
L 326.17894 45.38817 
L 326.17894 46.577497 
L 87.72208 46.577497 
L 87.72208 145.688066 
L 75.799237 145.688066 
L 75.799237 31.710912 
L 75.799237 31.710912 
" style="fill:none;stroke:#cc78bc;stroke-linecap:round;stroke-opacity:0.3;"/>
   </g>
   <g id="line2d_18">
    <path clip-path="url(#pae7eca3cbd)" d="M 75.799237 31.710912 
L 78.930488 37.710734 
L 82.06174 43.710557 
L 85.192992 49.71038 
L 88.324243 54.508863 
L 91.455495 54.261716 
L 94.586747 54.01457 
L 97.717999 53.767424 
L 100.84925 53.520277 
L 103.980502 53.273131 
L 107.111754 53.025985 
L 110.243005 52.778838 
L 113.374257 52.531692 
L 116.505509 52.284546 
L 119.63676 52.037399 
L 122.768012 51.790253 
L 125.899264 60.150785 
L 129.030515 60.064845 
L 132.161767 59.978906 
L 135.293019 59.892966 
L 138.424271 59.807027 
L 141.555522 59.721087 
L 144.686774 59.635147 
L 147.818026 59.549208 
L 150.949277 59.463268 
L 154.080529 59.377329 
L 157.211781 59.291389 
L 160.343032 59.205449 
L 163.474284 59.11951 
L 166.605536 59.03357 
L 169.736788 59.033977 
L 172.868039 59.235858 
L 175.999291 59.43774 
L 179.130543 59.639621 
L 182.261794 59.841503 
L 185.393046 60.043384 
L 188.524298 60.245266 
L 191.655549 60.291244 
L 194.786801 60.532701 
L 197.918053 60.822128 
L 201.049304 60.818362 
L 204.180556 60.374804 
L 207.311808 59.937003 
L 210.44306 59.511675 
L 213.574311 59.086346 
L 216.705563 58.661017 
L 219.836815 58.235689 
L 222.968066 57.812279 
L 226.099318 57.405179 
L 229.23057 56.998079 
L 232.361821 56.590979 
L 235.493073 56.183879 
L 238.624325 55.776779 
L 241.755577 55.369679 
L 244.886828 54.962579 
L 248.01808 54.555479 
L 251.149332 54.148379 
L 254.280583 56.070602 
L 257.411835 55.660441 
L 260.543087 55.254265 
L 263.674338 55.854943 
L 266.80559 55.442466 
L 269.936842 57.627894 
L 273.068093 57.278382 
L 276.199345 56.932033 
L 279.330597 56.585685 
L 282.461849 56.239336 
L 285.5931 55.89023 
L 288.724352 59.669575 
L 291.855604 59.873543 
L 294.986855 60.11086 
L 298.118107 60.518414 
L 301.249359 62.806037 
L 304.38061 64.372528 
L 307.511862 64.104741 
L 310.643114 65.692356 
L 313.774366 65.191411 
L 316.905617 64.696696 
L 320.036869 64.235843 
L 323.168121 65.456642 
L 326.299372 65.254212 
L 329.430624 65.326957 
L 332.561876 70.754017 
L 335.693127 71.261574 
L 338.824379 72.785204 
L 341.955631 73.56809 
L 345.086882 73.621013 
L 348.218134 74.990562 
L 351.349386 74.96074 
L 354.480638 81.286963 
L 357.611889 86.037158 
L 360.743141 85.890747 
L 363.874393 91.059579 
L 367.005644 91.259928 
L 370.136896 98.114132 
L 373.268148 98.777916 
L 376.399399 123.089218 
L 379.530651 124.46616 
L 382.661903 125.094251 
L 385.793155 202.676644 
" style="fill:none;stroke:#0173b2;stroke-linecap:round;stroke-opacity:0.8;stroke-width:2;"/>
   </g>
   <g id="line2d_19">
    <path clip-path="url(#pae7eca3cbd)" d="M 75.799237 31.710912 
L 78.930488 62.622897 
L 82.06174 59.341737 
L 85.192992 56.790007 
L 88.324243 53.862 
L 91.455495 50.369846 
L 94.586747 48.673432 
L 97.717999 47.47741 
L 100.84925 46.57498 
L 103.980502 45.628532 
L 107.111754 44.440699 
L 110.243005 43.779003 
L 113.374257 43.501513 
L 116.505509 43.179186 
L 119.63676 43.250097 
L 122.768012 42.834029 
L 125.899264 42.236969 
L 129.030515 42.138932 
L 132.161767 41.905719 
L 135.293019 41.962305 
L 138.424271 41.599447 
L 141.555522 41.701139 
L 144.686774 42.33012 
L 147.818026 42.989164 
L 150.949277 43.269696 
L 154.080529 44.272154 
L 157.211781 44.618186 
L 160.343032 45.15871 
L 163.474284 46.150037 
L 166.605536 46.624039 
L 169.736788 49.525368 
L 172.868039 49.455303 
L 175.999291 49.799866 
L 179.130543 52.061617 
L 182.261794 52.310772 
L 185.393046 52.167543 
L 188.524298 51.948012 
L 191.655549 52.075055 
L 194.786801 51.980788 
L 197.918053 51.953184 
L 201.049304 52.447082 
L 204.180556 52.697442 
L 207.311808 52.861265 
L 210.44306 53.127491 
L 213.574311 53.071323 
L 216.705563 53.179395 
L 219.836815 53.274552 
L 222.968066 53.340959 
L 226.099318 56.178335 
L 229.23057 56.111329 
L 232.361821 57.108997 
L 235.493073 57.146582 
L 238.624325 57.503267 
L 241.755577 62.36744 
L 244.886828 62.18245 
L 248.01808 63.800673 
L 251.149332 63.765287 
L 254.280583 65.233426 
L 257.411835 64.993237 
L 260.543087 64.707495 
L 263.674338 65.186311 
L 266.80559 64.895655 
L 269.936842 65.916943 
L 273.068093 73.987442 
L 276.199345 73.617762 
L 279.330597 75.019085 
L 282.461849 74.669414 
L 285.5931 79.478088 
L 288.724352 79.083546 
L 291.855604 78.693418 
L 294.986855 78.906598 
L 298.118107 78.525553 
L 301.249359 78.707103 
L 304.38061 81.980403 
L 307.511862 81.619864 
L 310.643114 83.353385 
L 313.774366 82.992862 
L 316.905617 83.032916 
L 320.036869 82.67941 
L 323.168121 86.977094 
L 326.299372 87.739657 
L 329.430624 87.414671 
L 332.561876 89.447952 
L 335.693127 89.126378 
L 338.824379 91.83301 
L 341.955631 93.288754 
L 345.086882 92.973874 
L 348.218134 93.993862 
L 351.349386 93.698846 
L 354.480638 93.436063 
L 357.611889 96.283761 
L 360.743141 96.093275 
L 363.874393 96.836447 
L 367.005644 96.789983 
L 370.136896 104.756756 
L 373.268148 105.459241 
L 376.399399 137.769325 
L 379.530651 140.639465 
L 382.661903 146.507261 
L 385.793155 202.676644 
" style="fill:none;stroke:#d55e00;stroke-linecap:round;stroke-opacity:0.8;stroke-width:2;"/>
   </g>
   <g id="patch_3">
    <path d="M 50.299541 202.676644 
L 50.299541 31.710912 
" style="fill:none;stroke:#262626;stroke-linecap:square;stroke-linejoin:miter;"/>
   </g>
   <g id="patch_4">
    <path d="M 75.799237 221.22493 
L 385.793155 221.22493 
" style="fill:none;stroke:#262626;stroke-linecap:square;stroke-linejoin:miter;"/>
   </g>
   <g id="text_15">
    <!-- Precision Recall Curves -->
    <g style="fill:#262626;" transform="translate(158.338823 17.162625)scale(0.144 -0.144)">
     <defs>
      <path d="M 62.09375 67.984375 
C 62.09375 69.796875 62 69.890625 61.40625 69.890625 
C 61 69.890625 60.90625 69.796875 60.203125 68.59375 
L 55.796875 60.140625 
C 50.90625 66.390625 44.90625 70 37.203125 70 
C 20.09375 70 4.59375 54.796875 4.59375 34.046875 
C 4.59375 13.078125 20.09375 -2 37.296875 -2 
C 52.59375 -2 62.09375 11.578125 62.09375 23.15625 
C 62.09375 24.171875 62.09375 24.578125 61.203125 24.578125 
C 60.40625 24.578125 60.40625 24.265625 60.296875 23.359375 
C 59.5 9.25 49.5 0.59375 38.703125 0.59375 
C 28.5 0.59375 12.203125 7.84375 12.203125 34.046875 
C 12.203125 60.34375 28.796875 67.390625 38.5 67.390625 
C 49.796875 67.390625 58 57.515625 59.90625 43.515625 
C 60.09375 42.296875 60.09375 42.109375 61 42.109375 
C 62.09375 42.109375 62.09375 42.296875 62.09375 44.125 
z
" id="CMR17-67"/>
     </defs>
     <use transform="scale(0.996264)" xlink:href="#CMR17-80"/>
     <use transform="translate(62.586301 0)scale(0.996264)" xlink:href="#CMR17-114"/>
     <use transform="translate(97.867068 0)scale(0.996264)" xlink:href="#CMR17-101"/>
     <use transform="translate(138.352729 0)scale(0.996264)" xlink:href="#CMR17-99"/>
     <use transform="translate(178.838389 0)scale(0.996264)" xlink:href="#CMR17-105"/>
     <use transform="translate(203.709448 0)scale(0.996264)" xlink:href="#CMR17-115"/>
     <use transform="translate(239.510785 0)scale(0.996264)" xlink:href="#CMR17-105"/>
     <use transform="translate(264.381844 0)scale(0.996264)" xlink:href="#CMR17-111"/>
     <use transform="translate(310.072321 0)scale(0.996264)" xlink:href="#CMR17-110"/>
     <use transform="translate(391.043657 0)scale(0.996264)" xlink:href="#CMR17-82"/>
     <use transform="translate(458.834759 0)scale(0.996264)" xlink:href="#CMR17-101"/>
     <use transform="translate(499.32042 0)scale(0.996264)" xlink:href="#CMR17-99"/>
     <use transform="translate(539.80608 0)scale(0.996264)" xlink:href="#CMR17-97"/>
     <use transform="translate(585.496557 0)scale(0.996264)" xlink:href="#CMR17-108"/>
     <use transform="translate(610.367616 0)scale(0.996264)" xlink:href="#CMR17-108"/>
     <use transform="translate(665.31464 0)scale(0.996264)" xlink:href="#CMR17-67"/>
     <use transform="translate(731.824521 0)scale(0.996264)" xlink:href="#CMR17-117"/>
     <use transform="translate(782.719891 0)scale(0.996264)" xlink:href="#CMR17-114"/>
     <use transform="translate(818.000659 0)scale(0.996264)" xlink:href="#CMR17-118"/>
     <use transform="translate(863.69112 0)scale(0.996264)" xlink:href="#CMR17-101"/>
     <use transform="translate(904.176781 0)scale(0.996264)" xlink:href="#CMR17-115"/>
    </g>
   </g>
   <g id="legend_1">
    <g id="line2d_20">
     <path d="M 413.17285 36.911065 
L 439.57285 36.911065 
" style="fill:none;stroke:#0173b2;stroke-linecap:round;stroke-opacity:0.3;"/>
    </g>
    <g id="line2d_21"/>
    <g id="text_16">
     <!-- assembly (AP = 0.96) -->
     <g style="fill:#262626;" transform="translate(450.13285 41.531065)scale(0.132 -0.132)">
      <defs>
       <path d="M 67.59375 30.53125 
C 67.59375 35.5625 66.703125 44 54.796875 44 
C 48 44 43.296875 39.375 41.5 33.953125 
L 41.40625 33.953125 
C 40.203125 42.1875 34.296875 44 28.703125 44 
C 20.796875 44 16.703125 37.875 15.203125 33.84375 
L 15.09375 33.84375 
L 15.09375 44 
L 3.296875 42.890625 
L 3.296875 40.28125 
C 9.203125 40.28125 10.09375 39.6875 10.09375 34.859375 
L 10.09375 6.921875 
C 10.09375 3.09375 9.703125 2.59375 3.296875 2.59375 
L 3.296875 0 
C 5.703125 0.1875 10.09375 0.1875 12.703125 0.1875 
C 15.296875 0.1875 19.796875 0.1875 22.203125 0 
L 22.203125 2.59375 
C 15.796875 2.59375 15.40625 3 15.40625 6.921875 
L 15.40625 26.21875 
C 15.40625 35.453125 21 42.390625 28 42.390625 
C 35.40625 42.390625 36.203125 35.765625 36.203125 30.9375 
L 36.203125 6.921875 
C 36.203125 3.09375 35.796875 2.59375 29.40625 2.59375 
L 29.40625 0 
C 31.796875 0.1875 36.203125 0.1875 38.796875 0.1875 
C 41.40625 0.1875 45.90625 0.1875 48.296875 0 
L 48.296875 2.59375 
C 41.90625 2.59375 41.5 3 41.5 6.921875 
L 41.5 26.21875 
C 41.5 35.453125 47.09375 42.390625 54.09375 42.390625 
C 61.5 42.390625 62.296875 35.765625 62.296875 30.9375 
L 62.296875 6.921875 
C 62.296875 3.09375 61.90625 2.59375 55.5 2.59375 
L 55.5 0 
C 57.90625 0.1875 62.296875 0.1875 64.90625 0.1875 
C 67.5 0.1875 72 0.1875 74.40625 0 
L 74.40625 2.59375 
C 68 2.59375 67.59375 3 67.59375 6.921875 
z
" id="CMR17-109"/>
       <path d="M 39 34.109375 
C 41.5 40.296875 46 40.390625 47.40625 40.390625 
L 47.40625 43 
C 45.5 42.890625 43 42.796875 41.09375 42.796875 
C 39 42.796875 35.703125 42.796875 33.703125 43 
L 33.703125 40.390625 
C 37.5 40.09375 37.59375 37.25 37.59375 36.4375 
C 37.59375 35.4375 37.40625 34.921875 36.90625 33.71875 
L 26 6.390625 
L 14.09375 35.9375 
C 13.59375 37.15625 13.59375 37.859375 13.59375 37.96875 
C 13.59375 40.1875 15.90625 40.390625 18.296875 40.390625 
L 18.296875 43 
C 15.90625 42.796875 11.59375 42.796875 9.09375 42.796875 
C 6.40625 42.796875 3.203125 42.796875 1 43 
L 1 40.390625 
C 6.40625 40.390625 7 39.890625 8.296875 36.640625 
L 23.203125 -0.484375 
C 18.703125 -12.421875 16.09375 -19.40625 9.796875 -19.40625 
C 8.703125 -19.40625 6.203125 -19.109375 4.40625 -17.28125 
C 6.703125 -17.078125 7.703125 -15.65625 7.703125 -13.9375 
C 7.703125 -12.21875 6.5 -10.703125 4.5 -10.703125 
C 2.296875 -10.703125 1.203125 -12.21875 1.203125 -14.046875 
C 1.203125 -18.09375 5.296875 -21 9.796875 -21 
C 15.59375 -21 19.203125 -15.359375 21.203125 -10.296875 
z
" id="CMR17-121"/>
       <path d="M 36.296875 69.390625 
C 35.796875 70.6875 35.59375 71 34.59375 71 
C 33.59375 71 33.40625 70.6875 32.90625 69.390625 
L 11.703125 9.0625 
C 9.796875 3.6875 5.796875 2.59375 2.296875 2.59375 
L 2.296875 0 
C 4.09375 0.1875 8.09375 0.1875 10 0.1875 
C 12.5 0.1875 16.5 0.1875 18.90625 0 
L 18.90625 2.59375 
C 14.203125 2.796875 13.5 5.96875 13.5 7.171875 
C 13.5 8.0625 13.703125 8.5625 13.90625 9.15625 
L 19.203125 24 
L 45.40625 24 
L 51.40625 7.078125 
C 51.90625 5.875 51.90625 5.671875 51.90625 5.28125 
C 51.90625 2.59375 47.59375 2.59375 45.703125 2.59375 
L 45.703125 0 
C 48.59375 0.1875 53.796875 0.1875 56.90625 0.1875 
C 59.5 0.1875 64.5 0.1875 66.90625 0 
L 66.90625 2.59375 
C 61.59375 2.59375 59.796875 2.59375 58.5 6.28125 
z
M 32.296875 61.3125 
L 44.5 26.59375 
L 20.09375 26.59375 
z
" id="CMR17-65"/>
       <path d="M 64.296875 32 
C 65.796875 32 67.296875 32 67.296875 33.6875 
C 67.296875 35.5 65.59375 35.5 63.90625 35.5 
L 8 35.5 
C 6.296875 35.5 4.59375 35.5 4.59375 33.6875 
C 4.59375 32 6.09375 32 7.59375 32 
z
M 63.90625 14.484375 
C 65.59375 14.484375 67.296875 14.484375 67.296875 16.296875 
C 67.296875 18 65.796875 18 64.296875 18 
L 7.59375 18 
C 6.09375 18 4.59375 18 4.59375 16.296875 
C 4.59375 14.484375 6.296875 14.484375 8 14.484375 
z
" id="CMR17-61"/>
       <path d="M 16.59375 4.09375 
C 16.59375 6.59375 14.59375 8.1875 12.5 8.1875 
C 10.5 8.1875 8.40625 6.59375 8.40625 4.09375 
C 8.40625 1.59375 10.40625 0 12.5 0 
C 14.5 0 16.59375 1.59375 16.59375 4.09375 
z
" id="CMR17-46"/>
       <path d="M 35.203125 29.234375 
C 35.203125 7 26.09375 0.390625 18.59375 0.390625 
C 16.296875 0.390625 10.703125 0.671875 8.40625 4.390625 
C 11 4 12.90625 5.390625 12.90625 7.890625 
C 12.90625 10.59375 10.703125 11.5 9.296875 11.5 
C 8.40625 11.5 5.703125 11.09375 5.703125 7.6875 
C 5.703125 1.0625 11.59375 -2 18.796875 -2 
C 30.296875 -2 42 10.390625 42 32.65625 
C 42 60.265625 30.796875 66 23.203125 66 
C 13.296875 66 3.796875 57.25 3.796875 43.75 
C 3.796875 31.25 11.90625 22 22.09375 22 
C 30.5 22 34.203125 29.84375 35.203125 33.15625 
z
M 22.296875 23.59375 
C 19.59375 23.59375 15.796875 24.09375 12.703125 30.140625 
C 10.59375 34.078125 10.59375 38.703125 10.59375 43.640625 
C 10.59375 49.59375 10.59375 53.71875 13.40625 58.15625 
C 14.796875 60.265625 17.40625 63.6875 23.203125 63.6875 
C 35 63.6875 35 45.453125 35 41.421875 
C 35 34.265625 31.796875 23.59375 22.296875 23.59375 
z
" id="CMR17-57"/>
      </defs>
      <use transform="scale(0.996264)" xlink:href="#CMR17-97"/>
      <use transform="translate(45.690477 0)scale(0.996264)" xlink:href="#CMR17-115"/>
      <use transform="translate(81.491815 0)scale(0.996264)" xlink:href="#CMR17-115"/>
      <use transform="translate(117.293152 0)scale(0.996264)" xlink:href="#CMR17-101"/>
      <use transform="translate(157.778813 0)scale(0.996264)" xlink:href="#CMR17-109"/>
      <use transform="translate(232.095949 0)scale(0.996264)" xlink:href="#CMR17-98"/>
      <use transform="translate(282.991319 0)scale(0.996264)" xlink:href="#CMR17-108"/>
      <use transform="translate(307.862377 0)scale(0.996264)" xlink:href="#CMR17-121"/>
      <use transform="translate(386.231259 0)scale(0.996264)" xlink:href="#CMR17-40"/>
      <use transform="translate(421.512027 0)scale(0.996264)" xlink:href="#CMR17-65"/>
      <use transform="translate(490.584457 0)scale(0.996264)" xlink:href="#CMR17-80"/>
      <use transform="translate(583.246724 0)scale(0.996264)" xlink:href="#CMR17-61"/>
      <use transform="translate(685.037478 0)scale(0.996264)" xlink:href="#CMR17-48"/>
      <use transform="translate(730.727956 0)scale(0.996264)" xlink:href="#CMR17-46"/>
      <use transform="translate(755.599014 0)scale(0.996264)" xlink:href="#CMR17-57"/>
      <use transform="translate(801.289491 0)scale(0.996264)" xlink:href="#CMR17-54"/>
      <use transform="translate(846.979968 0)scale(0.996264)" xlink:href="#CMR17-41"/>
     </g>
    </g>
    <g id="line2d_22">
     <path d="M 413.17285 56.828662 
L 439.57285 56.828662 
" style="fill:none;stroke:#de8f05;stroke-linecap:round;stroke-opacity:0.3;"/>
    </g>
    <g id="line2d_23"/>
    <g id="text_17">
     <!-- dual (AP = 0.84) -->
     <g style="fill:#262626;" transform="translate(450.13285 61.448662)scale(0.132 -0.132)">
      <defs>
       <path d="M 29.203125 67.890625 
L 29.203125 65.296875 
C 35.09375 65.296875 36 64.703125 36 60.046875 
L 36 37.046875 
C 35.59375 37.546875 31.5 44 23.40625 44 
C 13.203125 44 3.296875 34.8125 3.296875 21.5 
C 3.296875 8.265625 12.59375 -1 22.40625 -1 
C 30.90625 -1 35.296875 5.640625 35.796875 6.34375 
L 35.796875 -1 
L 47.90625 -0.203125 
L 47.90625 2.40625 
C 42 2.40625 41.09375 3.015625 41.09375 7.859375 
L 41.09375 69 
z
M 35.796875 11.90625 
C 35.796875 8.875 34 6.140625 31.703125 4.125 
C 28.296875 1.09375 24.90625 0.59375 23 0.59375 
C 20.09375 0.59375 9.703125 2.109375 9.703125 21.390625 
C 9.703125 41.1875 21.296875 42.390625 23.90625 42.390625 
C 28.5 42.390625 32.203125 39.765625 34.5 36.140625 
C 35.796875 34.015625 35.796875 33.703125 35.796875 31.890625 
z
" id="CMR17-100"/>
      </defs>
      <use transform="scale(0.996264)" xlink:href="#CMR17-100"/>
      <use transform="translate(50.89537 0)scale(0.996264)" xlink:href="#CMR17-117"/>
      <use transform="translate(101.79074 0)scale(0.996264)" xlink:href="#CMR17-97"/>
      <use transform="translate(147.481217 0)scale(0.996264)" xlink:href="#CMR17-108"/>
      <use transform="translate(202.428242 0)scale(0.996264)" xlink:href="#CMR17-40"/>
      <use transform="translate(237.709009 0)scale(0.996264)" xlink:href="#CMR17-65"/>
      <use transform="translate(306.781439 0)scale(0.996264)" xlink:href="#CMR17-80"/>
      <use transform="translate(399.443706 0)scale(0.996264)" xlink:href="#CMR17-61"/>
      <use transform="translate(501.234461 0)scale(0.996264)" xlink:href="#CMR17-48"/>
      <use transform="translate(546.924938 0)scale(0.996264)" xlink:href="#CMR17-46"/>
      <use transform="translate(571.795996 0)scale(0.996264)" xlink:href="#CMR17-56"/>
      <use transform="translate(617.486473 0)scale(0.996264)" xlink:href="#CMR17-52"/>
      <use transform="translate(663.176951 0)scale(0.996264)" xlink:href="#CMR17-41"/>
     </g>
    </g>
    <g id="line2d_24">
     <path d="M 413.17285 76.746258 
L 439.57285 76.746258 
" style="fill:none;stroke:#029e73;stroke-linecap:round;stroke-opacity:0.3;"/>
    </g>
    <g id="line2d_25"/>
    <g id="text_18">
     <!-- gis (AP = 0.82) -->
     <g style="fill:#262626;" transform="translate(450.13285 81.366258)scale(0.132 -0.132)">
      <defs>
       <path d="M 11.09375 18.203125 
C 13 16.6875 16.296875 15 20.296875 15 
C 28.203125 15 35 21.234375 35 29.609375 
C 35 32.234375 34.203125 36.265625 31.203125 39.390625 
C 34 42.390625 38.09375 43.390625 40.40625 43.390625 
C 40.796875 43.390625 41.40625 43.390625 41.90625 43.09375 
C 41.5 42.984375 40.59375 42.59375 40.59375 40.984375 
C 40.59375 39.6875 41.5 38.796875 42.796875 38.796875 
C 44.296875 38.796875 45.09375 39.796875 45.09375 41.09375 
C 45.09375 42.984375 43.59375 45 40.40625 45 
C 36.40625 45 32.90625 43.09375 30.09375 40.484375 
C 27.09375 43.1875 23.5 44.1875 20.296875 44.1875 
C 12.40625 44.1875 5.59375 37.984375 5.59375 29.609375 
C 5.59375 23.859375 8.90625 20.21875 9.90625 19.21875 
C 6.90625 15.6875 6.90625 11.59375 6.90625 11.09375 
C 6.90625 8.5 7.90625 4.6875 11.296875 2.59375 
C 6.09375 1.28125 2 -2.875 2 -8.078125 
C 2 -15.5625 11.5 -21 22.90625 -21 
C 33.90625 -21 43.796875 -15.765625 43.796875 -7.96875 
C 43.796875 6 29 6 21.296875 6 
C 19 6 14.90625 6 14.40625 6.09375 
C 11.296875 6.59375 9.203125 9.390625 9.203125 12.890625 
C 9.203125 13.796875 9.203125 16 11.09375 18.203125 
z
M 20.296875 16.6875 
C 11.5 16.6875 11.5 27.59375 11.5 29.609375 
C 11.5 31.625 11.5 42.484375 20.296875 42.484375 
C 29.09375 42.484375 29.09375 31.625 29.09375 29.609375 
C 29.09375 27.59375 29.09375 16.6875 20.296875 16.6875 
z
M 22.90625 -19.3125 
C 12.90625 -19.3125 6 -13.796875 6 -8.078125 
C 6 -4.859375 7.703125 -1.84375 9.90625 -0.171875 
C 12.40625 1.59375 13.40625 1.59375 20.203125 1.59375 
C 28.40625 1.59375 39.796875 1.59375 39.796875 -8.078125 
C 39.796875 -13.796875 32.90625 -19.3125 22.90625 -19.3125 
z
" id="CMR17-103"/>
      </defs>
      <use transform="scale(0.996264)" xlink:href="#CMR17-103"/>
      <use transform="translate(45.690477 0)scale(0.996264)" xlink:href="#CMR17-105"/>
      <use transform="translate(70.561536 0)scale(0.996264)" xlink:href="#CMR17-115"/>
      <use transform="translate(136.43884 0)scale(0.996264)" xlink:href="#CMR17-40"/>
      <use transform="translate(171.719607 0)scale(0.996264)" xlink:href="#CMR17-65"/>
      <use transform="translate(240.792037 0)scale(0.996264)" xlink:href="#CMR17-80"/>
      <use transform="translate(333.454304 0)scale(0.996264)" xlink:href="#CMR17-61"/>
      <use transform="translate(435.245059 0)scale(0.996264)" xlink:href="#CMR17-48"/>
      <use transform="translate(480.935536 0)scale(0.996264)" xlink:href="#CMR17-46"/>
      <use transform="translate(505.806594 0)scale(0.996264)" xlink:href="#CMR17-56"/>
      <use transform="translate(551.497072 0)scale(0.996264)" xlink:href="#CMR17-50"/>
      <use transform="translate(597.187549 0)scale(0.996264)" xlink:href="#CMR17-41"/>
     </g>
    </g>
    <g id="line2d_26">
     <path d="M 413.17285 96.663855 
L 439.57285 96.663855 
" style="fill:none;stroke:#d55e00;stroke-linecap:round;stroke-opacity:0.3;"/>
    </g>
    <g id="line2d_27"/>
    <g id="text_19">
     <!-- hmp (AP = 0.80) -->
     <g style="fill:#262626;" transform="translate(450.13285 101.283855)scale(0.132 -0.132)">
      <defs>
       <path d="M 41.5 30.53125 
C 41.5 35.65625 40.5 44 28.703125 44 
C 20.5 44 16.5 37.375 15.296875 34.046875 
L 15.203125 34.046875 
L 15.203125 69 
L 3.296875 67.890625 
L 3.296875 65.296875 
C 9.203125 65.296875 10.09375 64.703125 10.09375 60.046875 
L 10.09375 6.921875 
C 10.09375 3.09375 9.703125 2.59375 3.296875 2.59375 
L 3.296875 0 
C 5.703125 0.1875 10.09375 0.1875 12.703125 0.1875 
C 15.296875 0.1875 19.796875 0.1875 22.203125 0 
L 22.203125 2.59375 
C 15.796875 2.59375 15.40625 3 15.40625 6.921875 
L 15.40625 26.21875 
C 15.40625 35.453125 21 42.390625 28 42.390625 
C 35.40625 42.390625 36.203125 35.765625 36.203125 30.9375 
L 36.203125 6.921875 
C 36.203125 3.09375 35.796875 2.59375 29.40625 2.59375 
L 29.40625 0 
C 31.796875 0.1875 36.203125 0.1875 38.796875 0.1875 
C 41.40625 0.1875 45.90625 0.1875 48.296875 0 
L 48.296875 2.59375 
C 41.90625 2.59375 41.5 3 41.5 6.921875 
z
" id="CMR17-104"/>
       <path d="M 22 -17.40625 
C 15.59375 -17.40625 15.203125 -17 15.203125 -13.03125 
L 15.203125 5.9375 
C 18.09375 1.703125 22.296875 -1 27.59375 -1 
C 37.59375 -1 47.703125 7.859375 47.703125 21.59375 
C 47.703125 34.3125 39 44 28.703125 44 
C 22.703125 44 17.796875 40.671875 15 36.640625 
L 15 44 
L 3.09375 42.890625 
L 3.09375 40.265625 
C 9 40.265625 9.90625 39.671875 9.90625 34.8125 
L 9.90625 -13.03125 
C 9.90625 -16.890625 9.5 -17.40625 3.09375 -17.40625 
L 3.09375 -20 
C 5.5 -19.8125 9.90625 -19.8125 12.5 -19.8125 
C 15.09375 -19.8125 19.59375 -19.8125 22 -20 
z
M 15.203125 31.484375 
C 15.203125 32.90625 15.203125 35.015625 19.09375 38.765625 
C 19.59375 39.15625 23 42.1875 28 42.1875 
C 35.296875 42.1875 41.296875 33 41.296875 21.5 
C 41.296875 9.984375 34.90625 0.59375 27 0.59375 
C 23.40625 0.59375 19.5 2.3125 16.5 7.046875 
C 15.203125 9.28125 15.203125 9.875 15.203125 11.5 
z
" id="CMR17-112"/>
      </defs>
      <use transform="scale(0.996264)" xlink:href="#CMR17-104"/>
      <use transform="translate(50.89537 0)scale(0.996264)" xlink:href="#CMR17-109"/>
      <use transform="translate(127.81496 0)scale(0.996264)" xlink:href="#CMR17-112"/>
      <use transform="translate(208.786296 0)scale(0.996264)" xlink:href="#CMR17-40"/>
      <use transform="translate(244.067064 0)scale(0.996264)" xlink:href="#CMR17-65"/>
      <use transform="translate(313.139493 0)scale(0.996264)" xlink:href="#CMR17-80"/>
      <use transform="translate(405.80176 0)scale(0.996264)" xlink:href="#CMR17-61"/>
      <use transform="translate(507.592515 0)scale(0.996264)" xlink:href="#CMR17-48"/>
      <use transform="translate(553.282992 0)scale(0.996264)" xlink:href="#CMR17-46"/>
      <use transform="translate(578.154051 0)scale(0.996264)" xlink:href="#CMR17-56"/>
      <use transform="translate(623.844528 0)scale(0.996264)" xlink:href="#CMR17-48"/>
      <use transform="translate(669.535005 0)scale(0.996264)" xlink:href="#CMR17-41"/>
     </g>
    </g>
    <g id="line2d_28">
     <path d="M 413.17285 116.581451 
L 439.57285 116.581451 
" style="fill:none;stroke:#cc78bc;stroke-linecap:round;stroke-opacity:0.3;"/>
    </g>
    <g id="line2d_29"/>
    <g id="text_20">
     <!-- mbarc (AP = 0.85) -->
     <g style="fill:#262626;" transform="translate(450.13285 121.201451)scale(0.132 -0.132)">
      <defs>
       <path d="M 11.40625 58.59375 
C 12.40625 58.1875 16.5 56.890625 20.703125 56.890625 
C 30 56.890625 35.09375 61.890625 38 64.6875 
C 38 65.484375 38 66 37.40625 66 
C 37.296875 66 37.09375 66 36.296875 65.59375 
C 32.796875 64.09375 28.703125 63 23.703125 63 
C 20.703125 63 16.203125 63.359375 11.296875 65.484375 
C 10.203125 66 10 66 9.90625 66 
C 9.40625 66 9.296875 65.890625 9.296875 63.90625 
L 9.296875 34.859375 
C 9.296875 33.015625 9.296875 32.5 10.296875 32.5 
C 10.796875 32.5 11 32.703125 11.5 33.421875 
C 14.703125 38.046875 19.09375 40 24.09375 40 
C 27.59375 40 35.09375 37.734375 35.09375 20.203125 
C 35.09375 16.984375 35.09375 11.1875 32.09375 6.59375 
C 29.59375 2.484375 25.703125 0.390625 21.40625 0.390625 
C 14.796875 0.390625 8.09375 4.984375 6.296875 12.6875 
C 6.703125 12.59375 7.5 12.390625 7.90625 12.390625 
C 9.203125 12.390625 11.703125 13.09375 11.703125 16.1875 
C 11.703125 18.890625 9.796875 20 7.90625 20 
C 5.59375 20 4.09375 18.59375 4.09375 15.796875 
C 4.09375 7.09375 11 -2 21.59375 -2 
C 31.90625 -2 41.703125 6.890625 41.703125 19.796875 
C 41.703125 32.09375 33.90625 41.59375 24.203125 41.59375 
C 19.09375 41.59375 14.796875 39.6875 11.40625 36 
z
" id="CMR17-53"/>
      </defs>
      <use transform="scale(0.996264)" xlink:href="#CMR17-109"/>
      <use transform="translate(74.317136 0)scale(0.996264)" xlink:href="#CMR17-98"/>
      <use transform="translate(125.212506 0)scale(0.996264)" xlink:href="#CMR17-97"/>
      <use transform="translate(170.902983 0)scale(0.996264)" xlink:href="#CMR17-114"/>
      <use transform="translate(206.183751 0)scale(0.996264)" xlink:href="#CMR17-99"/>
      <use transform="translate(276.745377 0)scale(0.996264)" xlink:href="#CMR17-40"/>
      <use transform="translate(312.026145 0)scale(0.996264)" xlink:href="#CMR17-65"/>
      <use transform="translate(381.098575 0)scale(0.996264)" xlink:href="#CMR17-80"/>
      <use transform="translate(473.760842 0)scale(0.996264)" xlink:href="#CMR17-61"/>
      <use transform="translate(575.551597 0)scale(0.996264)" xlink:href="#CMR17-48"/>
      <use transform="translate(621.242074 0)scale(0.996264)" xlink:href="#CMR17-46"/>
      <use transform="translate(646.113132 0)scale(0.996264)" xlink:href="#CMR17-56"/>
      <use transform="translate(691.803609 0)scale(0.996264)" xlink:href="#CMR17-53"/>
      <use transform="translate(737.494087 0)scale(0.996264)" xlink:href="#CMR17-41"/>
     </g>
    </g>
    <g id="line2d_30">
     <path d="M 413.17285 136.499048 
L 439.57285 136.499048 
" style="fill:none;stroke:#0173b2;stroke-linecap:round;stroke-opacity:0.8;stroke-width:2;"/>
    </g>
    <g id="line2d_31"/>
    <g id="text_21">
     <!-- Mean PR (AP = 0.86 $\pm$ 0.05) -->
     <g style="fill:#262626;" transform="translate(450.13285 141.119048)scale(0.132 -0.132)">
      <defs>
       <path d="M 20.90625 66.390625 
C 20.296875 67.890625 20.203125 68 18.09375 68 
L 5.296875 68 
L 5.296875 65.390625 
C 12.203125 65.390625 13.296875 65.390625 13.296875 60.90625 
L 13.296875 9.75 
C 13.296875 7.265625 13.296875 2.59375 5.296875 2.59375 
L 5.296875 0 
C 7.59375 0.1875 11.796875 0.1875 14.296875 0.1875 
C 16.796875 0.1875 21 0.1875 23.296875 0 
L 23.296875 2.59375 
C 15.296875 2.59375 15.296875 7.265625 15.296875 9.75 
L 15.296875 64.984375 
L 15.40625 64.984375 
L 38.90625 1.59375 
C 39.296875 0.59375 39.5 0 40.296875 0 
C 41.09375 0 41.296875 0.59375 41.703125 1.59375 
L 65.40625 65.484375 
L 65.5 65.484375 
L 65.5 7.078125 
C 65.5 2.59375 64.40625 2.59375 57.5 2.59375 
L 57.5 0 
C 60.203125 0.1875 65.59375 0.1875 68.5 0.1875 
C 71.40625 0.1875 76.90625 0.1875 79.59375 0 
L 79.59375 2.59375 
C 72.703125 2.59375 71.59375 2.59375 71.59375 7.078125 
L 71.59375 60.90625 
C 71.59375 65.390625 72.703125 65.390625 79.59375 65.390625 
L 79.59375 68 
L 66.90625 68 
C 64.796875 68 64.703125 67.890625 64.09375 66.390625 
L 42.5 8.0625 
z
" id="CMR17-77"/>
       <path d="M 40.90625 31 
L 68.703125 31 
C 70.40625 31 72.203125 31 72.203125 33 
C 72.203125 35 70.40625 35 68.703125 35 
L 40.90625 35 
L 40.90625 63.25 
C 40.90625 64.890625 40.90625 67 38.90625 67 
C 36.90625 67 36.90625 65.1875 36.90625 63.5625 
L 36.90625 35 
L 9 35 
C 7.296875 35 5.5 35 5.5 33 
C 5.5 31 7.296875 31 9 31 
L 36.90625 31 
L 36.90625 4 
L 9 4 
C 7.296875 4 5.5 4 5.5 2 
C 5.5 0 7.296875 0 9 0 
L 68.703125 0 
C 70.40625 0 72.203125 0 72.203125 2 
C 72.203125 4 70.40625 4 68.703125 4 
L 40.90625 4 
z
" id="CMSY10-6"/>
      </defs>
      <use transform="scale(0.996264)" xlink:href="#CMR17-77"/>
      <use transform="translate(84.686941 0)scale(0.996264)" xlink:href="#CMR17-101"/>
      <use transform="translate(125.172601 0)scale(0.996264)" xlink:href="#CMR17-97"/>
      <use transform="translate(170.863078 0)scale(0.996264)" xlink:href="#CMR17-110"/>
      <use transform="translate(251.834414 0)scale(0.996264)" xlink:href="#CMR17-80"/>
      <use transform="translate(314.420715 0)scale(0.996264)" xlink:href="#CMR17-82"/>
      <use transform="translate(412.287783 0)scale(0.996264)" xlink:href="#CMR17-40"/>
      <use transform="translate(447.568551 0)scale(0.996264)" xlink:href="#CMR17-65"/>
      <use transform="translate(516.640981 0)scale(0.996264)" xlink:href="#CMR17-80"/>
      <use transform="translate(609.303248 0)scale(0.996264)" xlink:href="#CMR17-61"/>
      <use transform="translate(711.094002 0)scale(0.996264)" xlink:href="#CMR17-48"/>
      <use transform="translate(756.784479 0)scale(0.996264)" xlink:href="#CMR17-46"/>
      <use transform="translate(781.655538 0)scale(0.996264)" xlink:href="#CMR17-56"/>
      <use transform="translate(827.346015 0)scale(0.996264)" xlink:href="#CMR17-54"/>
      <use transform="translate(903.112459 0)scale(0.996264)" xlink:href="#CMSY10-6"/>
      <use transform="translate(1010.675893 0)scale(0.996264)" xlink:href="#CMR17-48"/>
      <use transform="translate(1056.36637 0)scale(0.996264)" xlink:href="#CMR17-46"/>
      <use transform="translate(1081.237428 0)scale(0.996264)" xlink:href="#CMR17-48"/>
      <use transform="translate(1126.927905 0)scale(0.996264)" xlink:href="#CMR17-53"/>
      <use transform="translate(1172.618382 0)scale(0.996264)" xlink:href="#CMR17-41"/>
     </g>
    </g>
    <g id="line2d_32">
     <path d="M 413.17285 156.416645 
L 439.57285 156.416645 
" style="fill:none;stroke:#d55e00;stroke-linecap:round;stroke-opacity:0.8;stroke-width:2;"/>
    </g>
    <g id="line2d_33"/>
    <g id="text_22">
     <!-- Baseline Mean PR (AP = 0.80 $\pm$ 0.13) -->
     <g style="fill:#262626;" transform="translate(450.13285 161.036645)scale(0.132 -0.132)">
      <defs>
       <path d="M 5.203125 68 
L 5.203125 65.390625 
C 12.09375 65.390625 13.203125 65.390625 13.203125 60.890625 
L 13.203125 7.046875 
C 13.203125 2.59375 12.09375 2.59375 5.203125 2.59375 
L 5.203125 0 
L 39.59375 0 
C 52.40625 0 60.703125 9.03125 60.703125 18.046875 
C 60.703125 26.96875 52.5 34.59375 41.796875 35.296875 
C 51.40625 37.1875 58.09375 43.59375 58.09375 51.1875 
C 58.09375 59.5 49.90625 68 37 68 
z
M 19.5 36 
L 19.5 61.5 
C 19.5 64.890625 19.703125 65.390625 23.703125 65.390625 
L 36.5 65.390625 
C 46.40625 65.390625 50.796875 57.390625 50.796875 51.1875 
C 50.796875 43.59375 44.703125 36 33.90625 36 
z
M 23.703125 2.59375 
C 19.703125 2.59375 19.5 3.09375 19.5 6.453125 
L 19.5 34.390625 
L 38 34.390625 
C 48.296875 34.390625 53.296875 25.375 53.296875 18.140625 
C 53.296875 10.90625 47.59375 2.59375 36.703125 2.59375 
z
" id="CMR17-66"/>
       <path d="M 22.09375 34 
C 31 34 34.90625 26.140625 34.90625 17.09375 
C 34.90625 5.03125 28.5 0.390625 22.703125 0.390625 
C 17.40625 0.390625 8.796875 3.015625 6.09375 10.796875 
C 6.59375 10.59375 7.09375 10.59375 7.59375 10.59375 
C 10 10.59375 11.796875 12.1875 11.796875 14.796875 
C 11.796875 17.6875 9.59375 19 7.59375 19 
C 5.90625 19 3.296875 18.1875 3.296875 14.484375 
C 3.296875 5.234375 12.296875 -2 22.90625 -2 
C 34 -2 42.5 6.75 42.5 16.984375 
C 42.5 26.84375 34.5 34 25 35.09375 
C 32.59375 36.671875 39.90625 43.375 39.90625 52.390625 
C 39.90625 60.25 32 66 23 66 
C 13.90625 66 5.90625 60.34375 5.90625 52.296875 
C 5.90625 48.796875 8.5 48.1875 9.796875 48.1875 
C 11.90625 48.1875 13.703125 49.484375 13.703125 52.09375 
C 13.703125 54.6875 11.90625 56 9.796875 56 
C 9.40625 56 8.90625 56 8.5 55.796875 
C 11.40625 62.484375 19.296875 63.6875 22.796875 63.6875 
C 26.296875 63.6875 32.90625 61.96875 32.90625 52.296875 
C 32.90625 49.484375 32.5 44.546875 29.09375 40.21875 
C 26.09375 36.390625 22.703125 36.1875 19.40625 35.890625 
C 18.90625 35.890625 16.59375 35.6875 16.203125 35.6875 
C 15.5 35.59375 15.09375 35.5 15.09375 34.796875 
C 15.09375 34.09375 15.203125 34 17.203125 34 
z
" id="CMR17-51"/>
      </defs>
      <use transform="scale(0.996264)" xlink:href="#CMR17-66"/>
      <use transform="translate(65.188754 0)scale(0.996264)" xlink:href="#CMR17-97"/>
      <use transform="translate(110.879232 0)scale(0.996264)" xlink:href="#CMR17-115"/>
      <use transform="translate(146.680569 0)scale(0.996264)" xlink:href="#CMR17-101"/>
      <use transform="translate(187.16623 0)scale(0.996264)" xlink:href="#CMR17-108"/>
      <use transform="translate(212.037288 0)scale(0.996264)" xlink:href="#CMR17-105"/>
      <use transform="translate(236.908347 0)scale(0.996264)" xlink:href="#CMR17-110"/>
      <use transform="translate(287.803716 0)scale(0.996264)" xlink:href="#CMR17-101"/>
      <use transform="translate(358.365343 0)scale(0.996264)" xlink:href="#CMR17-77"/>
      <use transform="translate(443.052284 0)scale(0.996264)" xlink:href="#CMR17-101"/>
      <use transform="translate(483.537944 0)scale(0.996264)" xlink:href="#CMR17-97"/>
      <use transform="translate(529.228421 0)scale(0.996264)" xlink:href="#CMR17-110"/>
      <use transform="translate(610.199758 0)scale(0.996264)" xlink:href="#CMR17-80"/>
      <use transform="translate(672.786058 0)scale(0.996264)" xlink:href="#CMR17-82"/>
      <use transform="translate(770.653126 0)scale(0.996264)" xlink:href="#CMR17-40"/>
      <use transform="translate(805.933894 0)scale(0.996264)" xlink:href="#CMR17-65"/>
      <use transform="translate(875.006324 0)scale(0.996264)" xlink:href="#CMR17-80"/>
      <use transform="translate(967.668591 0)scale(0.996264)" xlink:href="#CMR17-61"/>
      <use transform="translate(1069.459346 0)scale(0.996264)" xlink:href="#CMR17-48"/>
      <use transform="translate(1115.149823 0)scale(0.996264)" xlink:href="#CMR17-46"/>
      <use transform="translate(1140.020881 0)scale(0.996264)" xlink:href="#CMR17-56"/>
      <use transform="translate(1185.711358 0)scale(0.996264)" xlink:href="#CMR17-48"/>
      <use transform="translate(1261.477802 0)scale(0.996264)" xlink:href="#CMSY10-6"/>
      <use transform="translate(1369.041236 0)scale(0.996264)" xlink:href="#CMR17-48"/>
      <use transform="translate(1414.731713 0)scale(0.996264)" xlink:href="#CMR17-46"/>
      <use transform="translate(1439.602771 0)scale(0.996264)" xlink:href="#CMR17-49"/>
      <use transform="translate(1485.293248 0)scale(0.996264)" xlink:href="#CMR17-51"/>
      <use transform="translate(1530.983726 0)scale(0.996264)" xlink:href="#CMR17-41"/>
     </g>
    </g>
    <g id="patch_5">
     <path d="M 413.17285 180.954241 
L 439.57285 180.954241 
L 439.57285 171.714241 
L 413.17285 171.714241 
z
" style="fill:#808080;opacity:0.2;stroke:#808080;stroke-linejoin:miter;stroke-width:0.8;"/>
    </g>
    <g id="text_23">
     <!-- $\pm$ 1 std. dev. -->
     <g style="fill:#262626;" transform="translate(450.13285 180.954241)scale(0.132 -0.132)">
      <use transform="scale(0.996264)" xlink:href="#CMSY10-6"/>
      <use transform="translate(107.563434 0)scale(0.996264)" xlink:href="#CMR17-49"/>
      <use transform="translate(183.329877 0)scale(0.996264)" xlink:href="#CMR17-115"/>
      <use transform="translate(219.131215 0)scale(0.996264)" xlink:href="#CMR17-116"/>
      <use transform="translate(254.411983 0)scale(0.996264)" xlink:href="#CMR17-100"/>
      <use transform="translate(305.307353 0)scale(0.996264)" xlink:href="#CMR17-46"/>
      <use transform="translate(370.664072 0)scale(0.996264)" xlink:href="#CMR17-100"/>
      <use transform="translate(421.559441 0)scale(0.996264)" xlink:href="#CMR17-101"/>
      <use transform="translate(462.045102 0)scale(0.996264)" xlink:href="#CMR17-118"/>
      <use transform="translate(510.338018 0)scale(0.996264)" xlink:href="#CMR17-46"/>
     </g>
    </g>
    <g id="patch_6">
     <path d="M 413.17285 200.329366 
L 439.57285 200.329366 
L 439.57285 191.089366 
L 413.17285 191.089366 
z
" style="fill:#808080;opacity:0.2;stroke:#808080;stroke-linejoin:miter;stroke-width:0.8;"/>
    </g>
    <g id="text_24">
     <!-- $\pm$ 1 std. dev. -->
     <g style="fill:#262626;" transform="translate(450.13285 200.329366)scale(0.132 -0.132)">
      <use transform="scale(0.996264)" xlink:href="#CMSY10-6"/>
      <use transform="translate(107.563434 0)scale(0.996264)" xlink:href="#CMR17-49"/>
      <use transform="translate(183.329877 0)scale(0.996264)" xlink:href="#CMR17-115"/>
      <use transform="translate(219.131215 0)scale(0.996264)" xlink:href="#CMR17-116"/>
      <use transform="translate(254.411983 0)scale(0.996264)" xlink:href="#CMR17-100"/>
      <use transform="translate(305.307353 0)scale(0.996264)" xlink:href="#CMR17-46"/>
      <use transform="translate(370.664072 0)scale(0.996264)" xlink:href="#CMR17-100"/>
      <use transform="translate(421.559441 0)scale(0.996264)" xlink:href="#CMR17-101"/>
      <use transform="translate(462.045102 0)scale(0.996264)" xlink:href="#CMR17-118"/>
      <use transform="translate(510.338018 0)scale(0.996264)" xlink:href="#CMR17-46"/>
     </g>
    </g>
   </g>
  </g>
 </g>
 <defs>
  <clipPath id="pae7eca3cbd">
   <rect height="188.062305" width="340.99331" x="60.299541" y="23.162625"/>
  </clipPath>
 </defs>
</svg>
