<?xml version="1.0" encoding="utf-8" standalone="no"?>
<!DOCTYPE svg PUBLIC "-//W3C//DTD SVG 1.1//EN"
  "http://www.w3.org/Graphics/SVG/1.1/DTD/svg11.dtd">
<!-- Created with matplotlib (https://matplotlib.org/) -->
<svg height="266.760567pt" version="1.1" viewBox="0 0 682.853856 266.760567" width="682.853856pt" xmlns="http://www.w3.org/2000/svg" xmlns:xlink="http://www.w3.org/1999/xlink">
 <metadata>
  <rdf:RDF xmlns:cc="http://creativecommons.org/ns#" xmlns:dc="http://purl.org/dc/elements/1.1/" xmlns:rdf="http://www.w3.org/1999/02/22-rdf-syntax-ns#">
   <cc:Work>
    <dc:type rdf:resource="http://purl.org/dc/dcmitype/StillImage"/>
    <dc:date>2021-05-31T23:41:31.556443</dc:date>
    <dc:format>image/svg+xml</dc:format>
    <dc:creator>
     <cc:Agent>
      <dc:title>Matplotlib v3.3.4, https://matplotlib.org/</dc:title>
     </cc:Agent>
    </dc:creator>
   </cc:Work>
  </rdf:RDF>
 </metadata>
 <defs>
  <style type="text/css">*{stroke-linecap:butt;stroke-linejoin:round;}</style>
 </defs>
 <g id="figure_1">
  <g id="patch_1">
   <path d="M 0 266.760567 
L 682.853856 266.760567 
L 682.853856 0 
L 0 0 
z
" style="fill:#ffffff;"/>
  </g>
  <g id="axes_1">
   <g id="patch_2">
    <path d="M 60.299541 211.22493 
L 401.29285 211.22493 
L 401.29285 23.162625 
L 60.299541 23.162625 
z
" style="fill:#ffffff;"/>
   </g>
   <g id="matplotlib.axis_1">
    <g id="xtick_1">
     <g id="line2d_1">
      <defs>
       <path d="M 0 0 
L 0 4.8 
" id="m8aeef789df" style="stroke:#262626;"/>
      </defs>
      <g>
       <use style="fill:#262626;stroke:#262626;" x="75.799237" xlink:href="#m8aeef789df" y="221.22493"/>
      </g>
     </g>
     <g id="text_1">
      <!-- $\mathdefault{0.0}$ -->
      <g style="fill:#262626;" transform="translate(67.572557 238.657325)scale(0.132 -0.132)">
       <defs>
        <path d="M 42 31.84375 
C 42 37.96875 41.90625 48.421875 37.703125 56.453125 
C 34 63.484375 28.09375 66 22.90625 66 
C 18.09375 66 12 63.78125 8.203125 56.5625 
C 4.203125 49.015625 3.796875 39.671875 3.796875 31.84375 
C 3.796875 26.109375 3.90625 17.375 7 9.734375 
C 11.296875 -0.609375 19 -2 22.90625 -2 
C 27.5 -2 34.5 -0.109375 38.59375 9.4375 
C 41.59375 16.375 42 24.5 42 31.84375 
z
M 22.90625 -0.40625 
C 16.5 -0.40625 12.703125 5.125 11.296875 12.75 
C 10.203125 18.6875 10.203125 27.328125 10.203125 32.953125 
C 10.203125 40.6875 10.203125 47.109375 11.5 53.234375 
C 13.40625 61.78125 19 64.390625 22.90625 64.390625 
C 27 64.390625 32.296875 61.671875 34.203125 53.4375 
C 35.5 47.71875 35.59375 40.984375 35.59375 32.953125 
C 35.59375 26.421875 35.59375 18.375 34.40625 12.453125 
C 32.296875 1.5 26.40625 -0.40625 22.90625 -0.40625 
z
" id="CMR17-48"/>
        <path d="M 18.40625 4.796875 
C 18.40625 7.6875 16 9.6875 13.59375 9.6875 
C 10.703125 9.6875 8.703125 7.296875 8.703125 4.890625 
C 8.703125 2 11.09375 0 13.5 0 
C 16.40625 0 18.40625 2.390625 18.40625 4.796875 
z
" id="CMMI12-58"/>
       </defs>
       <use transform="scale(0.996264)" xlink:href="#CMR17-48"/>
       <use transform="translate(45.690477 0)scale(0.996264)" xlink:href="#CMMI12-58"/>
       <use transform="translate(72.787654 0)scale(0.996264)" xlink:href="#CMR17-48"/>
      </g>
     </g>
    </g>
    <g id="xtick_2">
     <g id="line2d_2">
      <g>
       <use style="fill:#262626;stroke:#262626;" x="137.79802" xlink:href="#m8aeef789df" y="221.22493"/>
      </g>
     </g>
     <g id="text_2">
      <!-- $\mathdefault{0.2}$ -->
      <g style="fill:#262626;" transform="translate(129.57134 238.657325)scale(0.132 -0.132)">
       <defs>
        <path d="M 41.703125 15.46875 
L 39.90625 15.46875 
C 38.90625 8.390625 38.09375 7.1875 37.703125 6.59375 
C 37.203125 5.796875 30 5.796875 28.59375 5.796875 
L 9.40625 5.796875 
C 13 9.6875 20 16.765625 28.5 24.9375 
C 34.59375 30.71875 41.703125 37.5 41.703125 47.390625 
C 41.703125 59.1875 32.296875 66 21.796875 66 
C 10.796875 66 4.09375 56.296875 4.09375 47.296875 
C 4.09375 43.390625 7 42.890625 8.203125 42.890625 
C 9.203125 42.890625 12.203125 43.484375 12.203125 46.984375 
C 12.203125 50.09375 9.59375 51 8.203125 51 
C 7.59375 51 7 50.890625 6.59375 50.6875 
C 8.5 59.1875 14.296875 63.390625 20.40625 63.390625 
C 29.09375 63.390625 34.796875 56.5 34.796875 47.390625 
C 34.796875 38.703125 29.703125 31.21875 24 24.734375 
L 4.09375 2.296875 
L 4.09375 0 
L 39.296875 0 
z
" id="CMR17-50"/>
       </defs>
       <use transform="scale(0.996264)" xlink:href="#CMR17-48"/>
       <use transform="translate(45.690477 0)scale(0.996264)" xlink:href="#CMMI12-58"/>
       <use transform="translate(72.787654 0)scale(0.996264)" xlink:href="#CMR17-50"/>
      </g>
     </g>
    </g>
    <g id="xtick_3">
     <g id="line2d_3">
      <g>
       <use style="fill:#262626;stroke:#262626;" x="199.796804" xlink:href="#m8aeef789df" y="221.22493"/>
      </g>
     </g>
     <g id="text_3">
      <!-- $\mathdefault{0.4}$ -->
      <g style="fill:#262626;" transform="translate(191.570124 238.657325)scale(0.132 -0.132)">
       <defs>
        <path d="M 33.59375 64.796875 
C 33.59375 66.890625 33.5 67 31.703125 67 
L 2 19.59375 
L 2 17 
L 27.796875 17 
L 27.796875 7.1875 
C 27.796875 3.59375 27.59375 2.59375 20.59375 2.59375 
L 18.703125 2.59375 
L 18.703125 0 
C 21.90625 0.1875 27.296875 0.1875 30.703125 0.1875 
C 34.09375 0.1875 39.5 0.1875 42.703125 0 
L 42.703125 2.59375 
L 40.796875 2.59375 
C 33.796875 2.59375 33.59375 3.59375 33.59375 7.1875 
L 33.59375 17 
L 43.796875 17 
L 43.796875 19.59375 
L 33.59375 19.59375 
z
M 28.09375 58.171875 
L 28.09375 19.59375 
L 4 19.59375 
z
" id="CMR17-52"/>
       </defs>
       <use transform="scale(0.996264)" xlink:href="#CMR17-48"/>
       <use transform="translate(45.690477 0)scale(0.996264)" xlink:href="#CMMI12-58"/>
       <use transform="translate(72.787654 0)scale(0.996264)" xlink:href="#CMR17-52"/>
      </g>
     </g>
    </g>
    <g id="xtick_4">
     <g id="line2d_4">
      <g>
       <use style="fill:#262626;stroke:#262626;" x="261.795587" xlink:href="#m8aeef789df" y="221.22493"/>
      </g>
     </g>
     <g id="text_4">
      <!-- $\mathdefault{0.6}$ -->
      <g style="fill:#262626;" transform="translate(253.568907 238.657325)scale(0.132 -0.132)">
       <defs>
        <path d="M 10.59375 34.34375 
C 10.59375 58 21.796875 63.6875 28.296875 63.6875 
C 30.40625 63.6875 35.5 63.265625 37.5 59.09375 
C 35.90625 59.09375 32.90625 59.09375 32.90625 55.59375 
C 32.90625 52.890625 35.09375 52 36.5 52 
C 37.40625 52 40.09375 52.390625 40.09375 55.796875 
C 40.09375 62.296875 35.09375 66 28.203125 66 
C 16.296875 66 3.796875 53.296875 3.796875 31.421875 
C 3.796875 4.015625 15.09375 -2 23.09375 -2 
C 32.796875 -2 42 6.734375 42 20.234375 
C 42 32.828125 33.90625 42 23.703125 42 
C 17.59375 42 13.09375 37.96875 10.59375 30.921875 
z
M 23.09375 0.390625 
C 10.796875 0.390625 10.796875 18.9375 10.796875 22.65625 
C 10.796875 29.90625 14.203125 40.390625 23.5 40.390625 
C 25.203125 40.390625 30.09375 40.390625 33.40625 33.4375 
C 35.203125 29.515625 35.203125 25.375 35.203125 20.34375 
C 35.203125 14.90625 35.203125 10.875 33.09375 6.84375 
C 30.90625 2.703125 27.703125 0.390625 23.09375 0.390625 
z
" id="CMR17-54"/>
       </defs>
       <use transform="scale(0.996264)" xlink:href="#CMR17-48"/>
       <use transform="translate(45.690477 0)scale(0.996264)" xlink:href="#CMMI12-58"/>
       <use transform="translate(72.787654 0)scale(0.996264)" xlink:href="#CMR17-54"/>
      </g>
     </g>
    </g>
    <g id="xtick_5">
     <g id="line2d_5">
      <g>
       <use style="fill:#262626;stroke:#262626;" x="323.794371" xlink:href="#m8aeef789df" y="221.22493"/>
      </g>
     </g>
     <g id="text_5">
      <!-- $\mathdefault{0.8}$ -->
      <g style="fill:#262626;" transform="translate(315.567691 238.657325)scale(0.132 -0.132)">
       <defs>
        <path d="M 27.203125 35.765625 
C 33.5 38.96875 39.90625 43.796875 39.90625 51.53125 
C 39.90625 60.6875 31.09375 66 23 66 
C 13.90625 66 5.90625 59.375 5.90625 50.234375 
C 5.90625 47.71875 6.5 43.390625 10.40625 39.578125 
C 11.40625 38.578125 15.59375 35.5625 18.296875 33.65625 
C 13.796875 31.34375 3.296875 25.8125 3.296875 14.765625 
C 3.296875 4.40625 13.09375 -2 22.796875 -2 
C 33.5 -2 42.5 5.71875 42.5 15.96875 
C 42.5 25.109375 36.40625 29.328125 32.40625 32.046875 
z
M 14.09375 44.609375 
C 13.296875 45.109375 9.296875 48.21875 9.296875 52.9375 
C 9.296875 59.078125 15.59375 63.6875 22.796875 63.6875 
C 30.703125 63.6875 36.5 58.0625 36.5 51.53125 
C 36.5 42.1875 26.09375 36.859375 25.59375 36.859375 
C 25.5 36.859375 25.40625 36.859375 24.59375 37.46875 
z
M 32.5 24 
C 34 22.90625 38.796875 19.578125 38.796875 13.453125 
C 38.796875 6.015625 31.40625 0.390625 23 0.390625 
C 13.90625 0.390625 7 6.921875 7 14.859375 
C 7 22.796875 13.09375 29.4375 20 32.546875 
z
" id="CMR17-56"/>
       </defs>
       <use transform="scale(0.996264)" xlink:href="#CMR17-48"/>
       <use transform="translate(45.690477 0)scale(0.996264)" xlink:href="#CMMI12-58"/>
       <use transform="translate(72.787654 0)scale(0.996264)" xlink:href="#CMR17-56"/>
      </g>
     </g>
    </g>
    <g id="xtick_6">
     <g id="line2d_6">
      <g>
       <use style="fill:#262626;stroke:#262626;" x="385.793155" xlink:href="#m8aeef789df" y="221.22493"/>
      </g>
     </g>
     <g id="text_6">
      <!-- $\mathdefault{1.0}$ -->
      <g style="fill:#262626;" transform="translate(377.566474 238.657325)scale(0.132 -0.132)">
       <defs>
        <path d="M 26.59375 63.796875 
C 26.59375 65.890625 26.5 66 25.09375 66 
C 21.203125 61.359375 15.296875 59.890625 9.703125 59.6875 
C 9.40625 59.6875 8.90625 59.6875 8.796875 59.5 
C 8.703125 59.296875 8.703125 59.09375 8.703125 57 
C 11.796875 57 17 57.59375 21 59.984375 
L 21 7.296875 
C 21 3.796875 20.796875 2.59375 12.203125 2.59375 
L 9.203125 2.59375 
L 9.203125 0 
C 14 0.09375 19 0.1875 23.796875 0.1875 
C 28.59375 0.1875 33.59375 0.09375 38.40625 0 
L 38.40625 2.59375 
L 35.40625 2.59375 
C 26.796875 2.59375 26.59375 3.6875 26.59375 7.296875 
z
" id="CMR17-49"/>
       </defs>
       <use transform="scale(0.996264)" xlink:href="#CMR17-49"/>
       <use transform="translate(45.690477 0)scale(0.996264)" xlink:href="#CMMI12-58"/>
       <use transform="translate(72.787654 0)scale(0.996264)" xlink:href="#CMR17-48"/>
      </g>
     </g>
    </g>
    <g id="text_7">
     <!-- Recall (Positive label: True) -->
     <g style="fill:#262626;" transform="translate(143.745431 255.974026)scale(0.144 -0.144)">
      <defs>
       <path d="M 39.203125 33.6875 
C 48.703125 35.59375 56.703125 42.015625 56.703125 50.046875 
C 56.703125 59.46875 46.09375 68 32.09375 68 
L 5.203125 68 
L 5.203125 65.390625 
C 12.09375 65.390625 13.203125 65.390625 13.203125 60.875 
L 13.203125 6.6875 
C 13.203125 2.1875 12.09375 2.1875 5.203125 2.1875 
L 5.203125 -0.40625 
C 8.09375 -0.203125 13.296875 -0.203125 16.40625 -0.203125 
C 19.5 -0.203125 24.703125 -0.203125 27.59375 -0.40625 
L 27.59375 2.1875 
C 20.703125 2.1875 19.59375 2.1875 19.59375 6.6875 
L 19.59375 33 
L 31.296875 33 
C 37 33 40.203125 30.6875 41.59375 29.390625 
C 45.59375 25.5 45.59375 22.796875 45.59375 16 
C 45.59375 9.296875 45.59375 5.890625 48.59375 2.5 
C 52.40625 -1.609375 57.5 -2 59.703125 -2 
C 67.09375 -2 68.203125 6.296875 68.203125 8 
C 68.203125 8.59375 68.203125 9.296875 67.296875 9.296875 
C 66.5 9.296875 66.40625 8.6875 66.40625 8.296875 
C 65.90625 1.796875 63 -0.40625 59.90625 -0.40625 
C 54.40625 -0.40625 53.796875 5.890625 53.203125 12 
C 52.90625 14.09375 52.703125 15.59375 52.5 17.796875 
C 51.90625 22.796875 51.09375 30.09375 39.203125 33.6875 
z
M 31 34.59375 
L 19.59375 34.59375 
L 19.59375 61.484375 
C 19.59375 64.890625 19.796875 65.390625 23.796875 65.390625 
L 31.09375 65.390625 
C 39.40625 65.390625 49.09375 62.484375 49.09375 50.046875 
C 49.09375 37.09375 38.5 34.59375 31 34.59375 
z
" id="CMR17-82"/>
       <path d="M 38.09375 23.484375 
C 38.5 23.890625 38.5 24.09375 38.5 25.09375 
C 38.5 35.171875 33.09375 44 21.703125 44 
C 11.09375 44 2.703125 33.984375 2.703125 21.78125 
C 2.703125 8.65625 12.203125 -1 22.796875 -1 
C 34 -1 38.40625 9.671875 38.40625 11.796875 
C 38.40625 12.5 37.796875 12.5 37.59375 12.5 
C 36.90625 12.5 36.796875 12.296875 36.40625 11.078125 
C 34.203125 4.21875 28.703125 0.796875 23.5 0.796875 
C 19.203125 0.796875 14.90625 3.21875 12.203125 7.65625 
C 9.09375 12.796875 9.09375 18.75 9.09375 23.484375 
z
M 9.203125 25 
C 9.90625 39.234375 17.59375 42.390625 21.59375 42.390625 
C 28.40625 42.390625 33 36.0625 33.09375 25 
z
" id="CMR17-101"/>
       <path d="M 34.90625 35 
C 33 35 30.203125 35 30.203125 31.484375 
C 30.203125 28.6875 32.5 27.890625 33.796875 27.890625 
C 34.5 27.890625 37.40625 28.1875 37.40625 31.6875 
C 37.40625 38.6875 30.59375 44 22.90625 44 
C 12.296875 44 3.296875 34.390625 3.296875 21.546875 
C 3.296875 8.140625 12.703125 -1 22.90625 -1 
C 35.296875 -1 38.40625 10.5625 38.40625 11.671875 
C 38.40625 12.078125 38.296875 12.375 37.59375 12.375 
C 36.90625 12.375 36.796875 12.28125 36.40625 10.96875 
C 33.796875 2.8125 28.09375 0.796875 23.796875 0.796875 
C 17.40625 0.796875 9.703125 6.734375 9.703125 21.640625 
C 9.703125 36.84375 17.09375 42.1875 23 42.1875 
C 26.90625 42.1875 32.703125 40.34375 34.90625 35 
z
" id="CMR17-99"/>
       <path d="M 36 25.875 
C 36 32 36 35.546875 31.796875 39.59375 
C 28.09375 42.984375 23.796875 44 20.40625 44 
C 12.5 44 6.796875 37.625 6.796875 30.890625 
C 6.796875 27.1875 9.796875 27 10.40625 27 
C 11.703125 27 14 27.796875 14 30.59375 
C 14 33.09375 12.09375 34.1875 10.40625 34.1875 
C 10 34.1875 9.5 34.09375 9.203125 34 
C 11.296875 40.53125 16.703125 42.390625 20.203125 42.390625 
C 25.203125 42.390625 30.703125 37.828125 30.703125 29.296875 
L 30.703125 25.5 
C 24.796875 25.296875 17.703125 24.5 12.09375 21.453125 
C 5.796875 17.921875 4 12.84375 4 9 
C 4 1.203125 13 -1 18.296875 -1 
C 23.796875 -1 28.90625 2.109375 31.09375 7.890625 
C 31.296875 3.421875 34.09375 -0.609375 38.5 -0.609375 
C 40.59375 -0.609375 45.90625 0.796875 45.90625 8.796875 
L 45.90625 14.46875 
L 44.09375 14.46875 
L 44.09375 8.703125 
C 44.09375 2.515625 41.40625 1.703125 40.09375 1.703125 
C 36 1.703125 36 6.96875 36 11.4375 
z
M 30.703125 13.859375 
C 30.703125 5.046875 24.5 0.59375 19 0.59375 
C 14 0.59375 10.09375 4.34375 10.09375 9 
C 10.09375 12.046875 11.40625 17.40625 17.203125 20.65625 
C 22 23.390625 27.5 23.796875 30.703125 24 
z
" id="CMR17-97"/>
       <path d="M 15.296875 69 
L 3.40625 67.890625 
L 3.40625 65.296875 
C 9.296875 65.296875 10.203125 64.703125 10.203125 59.921875 
L 10.203125 6.859375 
C 10.203125 3.09375 9.796875 2.59375 3.40625 2.59375 
L 3.40625 0 
C 5.796875 0.1875 10.203125 0.1875 12.703125 0.1875 
C 15.296875 0.1875 19.703125 0.1875 22.09375 0 
L 22.09375 2.59375 
C 15.703125 2.59375 15.296875 2.984375 15.296875 6.859375 
z
" id="CMR17-108"/>
       <path d="M 30.59375 -24.40625 
C 30.59375 -24.3125 30.59375 -24.109375 30.296875 -23.8125 
C 25.703125 -19.109375 13.40625 -6.296875 13.40625 24.9375 
C 13.40625 56.171875 25.5 68.875 30.40625 73.890625 
C 30.40625 73.984375 30.59375 74.1875 30.59375 74.484375 
C 30.59375 74.796875 30.296875 75 29.90625 75 
C 28.796875 75 20.296875 67.578125 15.40625 56.5625 
C 10.40625 45.453125 9 34.65625 9 25.046875 
C 9 17.828125 9.703125 5.625 15.703125 -7.296875 
C 20.5 -17.703125 28.703125 -25 29.90625 -25 
C 30.40625 -25 30.59375 -24.8125 30.59375 -24.40625 
z
" id="CMR17-40"/>
       <path d="M 19.796875 32 
L 35.796875 32 
C 48.703125 32 58.09375 40.359375 58.09375 49.796875 
C 58.09375 59.234375 48.90625 68 35.796875 68 
L 5.203125 68 
L 5.203125 65.390625 
C 12.09375 65.390625 13.203125 65.390625 13.203125 60.921875 
L 13.203125 7.078125 
C 13.203125 2.59375 12.09375 2.59375 5.203125 2.59375 
L 5.203125 0 
C 8.09375 0.1875 13.40625 0.1875 16.5 0.1875 
C 19.59375 0.1875 24.90625 0.1875 27.796875 0 
L 27.796875 2.59375 
C 20.90625 2.59375 19.796875 2.59375 19.796875 7.078125 
z
M 19.59375 34.09375 
L 19.59375 61.515625 
C 19.59375 64.890625 19.796875 65.390625 23.796875 65.390625 
L 33.90625 65.390625 
C 46.796875 65.390625 50.5 58.046875 50.5 49.796875 
C 50.5 40.75 46.09375 34.09375 33.90625 34.09375 
z
" id="CMR17-80"/>
       <path d="M 43.09375 21.1875 
C 43.09375 34 33.796875 44 22.90625 44 
C 12 44 2.703125 34 2.703125 21.1875 
C 2.703125 8.59375 12 -1 22.90625 -1 
C 33.796875 -1 43.09375 8.59375 43.09375 21.1875 
z
M 22.90625 0.796875 
C 18.203125 0.796875 14.203125 3.59375 11.90625 7.5 
C 9.40625 12 9.09375 17.59375 9.09375 22 
C 9.09375 26.1875 9.296875 31.390625 11.90625 35.890625 
C 13.90625 39.1875 17.796875 42.390625 22.90625 42.390625 
C 27.40625 42.390625 31.203125 39.890625 33.59375 36.390625 
C 36.703125 31.6875 36.703125 25.09375 36.703125 22 
C 36.703125 18.09375 36.5 12.09375 33.796875 7.296875 
C 31 2.6875 26.703125 0.796875 22.90625 0.796875 
z
" id="CMR17-111"/>
       <path d="M 30.90625 42 
C 30.90625 43.796875 30.796875 43.890625 30.203125 43.890625 
C 29.796875 43.890625 29.703125 43.796875 28.5 42.296875 
C 28.203125 41.890625 27.296875 40.890625 27 40.5 
C 23.796875 43.890625 19.296875 44 17.59375 44 
C 6.5 44 2.5 38.1875 2.5 32.390625 
C 2.5 23.390625 12.703125 21.296875 15.59375 20.6875 
C 21.90625 19.390625 24.09375 19 26.203125 17.1875 
C 27.5 16 29.703125 13.796875 29.703125 10.1875 
C 29.703125 6 27.296875 0.59375 18.09375 0.59375 
C 9.40625 0.59375 6.296875 7.1875 4.5 16 
C 4.203125 17.390625 4.203125 17.5 3.40625 17.5 
C 2.59375 17.5 2.5 17.390625 2.5 15.390625 
L 2.5 1 
C 2.5 -0.8125 2.59375 -0.90625 3.203125 -0.90625 
C 3.703125 -0.90625 3.796875 -0.8125 4.296875 0 
C 4.90625 0.890625 6.40625 3.296875 7 4.296875 
C 9 1.59375 12.5 -1 18.09375 -1 
C 28 -1 33.296875 4.390625 33.296875 12.1875 
C 33.296875 17.296875 30.59375 20 29.296875 21.1875 
C 26.296875 24.296875 22.796875 25 18.59375 25.796875 
C 13.09375 27 6.09375 28.390625 6.09375 34.5 
C 6.09375 37.09375 7.5 42.59375 17.59375 42.59375 
C 28.296875 42.59375 28.90625 32.59375 29.09375 29.390625 
C 29.203125 28.890625 29.703125 28.796875 30 28.796875 
C 30.90625 28.796875 30.90625 29.09375 30.90625 30.796875 
z
" id="CMR17-115"/>
       <path d="M 15.5 61.890625 
C 15.5 64.09375 13.703125 66 11.40625 66 
C 9.203125 66 7.296875 64.1875 7.296875 61.890625 
C 7.296875 59.6875 9.09375 57.796875 11.40625 57.796875 
C 13.59375 57.796875 15.5 59.59375 15.5 61.890625 
z
M 3.796875 42.890625 
L 3.796875 40.296875 
C 9.40625 40.296875 10.203125 39.6875 10.203125 34.859375 
L 10.203125 6.921875 
C 10.203125 3.09375 9.796875 2.59375 3.40625 2.59375 
L 3.40625 0 
C 5.796875 0.1875 10.09375 0.1875 12.59375 0.1875 
C 15 0.1875 19.09375 0.1875 21.40625 0 
L 21.40625 2.59375 
C 15.5 2.59375 15.296875 3.203125 15.296875 6.8125 
L 15.296875 44 
z
" id="CMR17-105"/>
       <path d="M 15.09375 40.390625 
L 29.09375 40.390625 
L 29.09375 43 
L 15.09375 43 
L 15.09375 62 
L 13.296875 62 
C 13.09375 51.4375 9.59375 42.1875 1.09375 41.984375 
L 1.09375 40.390625 
L 9.796875 40.390625 
L 9.796875 12.15625 
C 9.796875 10.234375 9.796875 -1 21.40625 -1 
C 27.296875 -1 30.703125 4.8125 30.703125 12.25 
L 30.703125 17.984375 
L 28.90625 17.984375 
L 28.90625 12.34375 
C 28.90625 5.421875 26.203125 0.796875 22 0.796875 
C 19.09375 0.796875 15.09375 2.796875 15.09375 11.953125 
z
" id="CMR17-116"/>
       <path d="M 39.09375 33.953125 
C 40 36.171875 41.59375 40.1875 47.40625 40.390625 
L 47.40625 43 
C 45.5 42.890625 43 42.796875 41.09375 42.796875 
C 39 42.796875 35.703125 42.796875 33.703125 43 
L 33.703125 40.390625 
C 36.203125 40.1875 37.59375 38.984375 37.59375 36.375 
C 37.59375 35.46875 37.59375 35.265625 37 33.859375 
L 26 5.921875 
L 14.09375 36.0625 
C 13.5 37.375 13.5 37.578125 13.5 37.984375 
C 13.5 40.390625 16.796875 40.390625 18.296875 40.390625 
L 18.296875 43 
C 15.90625 42.796875 11.5 42.796875 9 42.796875 
C 6.296875 42.796875 3.203125 42.796875 1 43 
L 1 40.390625 
C 4.796875 40.390625 6.90625 40.390625 8.09375 37.28125 
L 22.59375 0.6875 
C 23.203125 -0.8125 23.296875 -1 24.203125 -1 
C 25.09375 -1 25.203125 -0.8125 25.796875 0.6875 
z
" id="CMR17-118"/>
       <path d="M 15 69 
L 3.09375 67.890625 
L 3.09375 65.296875 
C 9 65.296875 9.90625 64.703125 9.90625 60.046875 
L 9.90625 -0.203125 
L 11.703125 -0.203125 
L 14.59375 6.953125 
C 17.5 2.203125 21.796875 -1 27.59375 -1 
C 37.59375 -1 47.703125 7.859375 47.703125 21.59375 
C 47.703125 34.515625 38.703125 44 28.59375 44 
C 22.40625 44 18 40.671875 15 36.734375 
z
M 15.203125 31.59375 
C 15.203125 33.40625 15.203125 33.703125 16.59375 35.828125 
C 20.5 41.890625 26.09375 42.390625 28 42.390625 
C 31 42.390625 41.296875 40.78125 41.296875 21.6875 
C 41.296875 1.703125 29.5 0.59375 27.09375 0.59375 
C 24 0.59375 19.5 1.796875 16.296875 7.65625 
C 15.203125 9.578125 15.203125 9.78125 15.203125 11.59375 
z
" id="CMR17-98"/>
       <path d="M 16.59375 38.890625 
C 16.59375 41.390625 14.59375 43 12.5 43 
C 10.5 43 8.40625 41.390625 8.40625 38.890625 
C 8.40625 36.390625 10.40625 34.796875 12.5 34.796875 
C 14.5 34.796875 16.59375 36.390625 16.59375 38.890625 
z
M 16.59375 4.09375 
C 16.59375 6.59375 14.59375 8.1875 12.5 8.1875 
C 10.5 8.1875 8.40625 6.59375 8.40625 4.09375 
C 8.40625 1.59375 10.40625 0 12.5 0 
C 14.5 0 16.59375 1.59375 16.59375 4.09375 
z
" id="CMR17-58"/>
       <path d="M 62.203125 67.6875 
L 4.5 67.6875 
L 2.796875 45.6875 
L 4.59375 45.6875 
C 5.90625 62.203125 7.296875 65.09375 22.703125 65.09375 
C 24.5 65.09375 27.40625 65.09375 28.203125 64.984375 
C 30.09375 64.6875 30.09375 63.5 30.09375 61.203125 
L 30.09375 7.265625 
C 30.09375 3.6875 29.796875 2.59375 21.5 2.59375 
L 18.703125 2.59375 
L 18.703125 0 
C 23.5 0.09375 28.5 0.1875 33.40625 0.1875 
C 38.296875 0.1875 43.296875 0.09375 48.09375 0 
L 48.09375 2.59375 
L 45.296875 2.59375 
C 37 2.59375 36.703125 3.6875 36.703125 7.265625 
L 36.703125 61.203125 
C 36.703125 63.390625 36.703125 64.59375 38.5 64.984375 
C 39.296875 65.09375 42.203125 65.09375 44 65.09375 
C 59.296875 65.09375 60.796875 62.203125 62.09375 45.6875 
L 63.90625 45.6875 
z
" id="CMR17-84"/>
       <path d="M 15 23.703125 
C 15 33.34375 19.09375 42.390625 26.59375 42.390625 
C 27.296875 42.390625 28 42.296875 28.703125 41.984375 
C 28.703125 41.984375 26.5 41.28125 26.5 38.671875 
C 26.5 36.265625 28.40625 35.265625 29.90625 35.265625 
C 31.09375 35.265625 33.296875 35.96875 33.296875 38.78125 
C 33.296875 41.984375 30.09375 44 26.703125 44 
C 19.09375 44 15.796875 36.5625 14.796875 33.046875 
L 14.703125 33.046875 
L 14.703125 44 
L 3.09375 42.890625 
L 3.09375 40.28125 
C 9 40.28125 9.90625 39.6875 9.90625 34.859375 
L 9.90625 6.921875 
C 9.90625 3.09375 9.5 2.59375 3.09375 2.59375 
L 3.09375 0 
C 5.5 0.1875 10.09375 0.1875 12.703125 0.1875 
C 15.59375 0.1875 20.703125 0.1875 23.40625 0 
L 23.40625 2.59375 
C 16.203125 2.59375 15 2.59375 15 7.109375 
z
" id="CMR17-114"/>
       <path d="M 29.40625 42.890625 
L 29.40625 40.296875 
C 35.296875 40.296875 36.203125 39.6875 36.203125 34.828125 
L 36.203125 16.453125 
C 36.203125 7.96875 31.703125 0.59375 24.296875 0.59375 
C 16.09375 0.59375 15.40625 5.546875 15.40625 10.796875 
L 15.40625 44 
L 3.296875 42.890625 
L 3.296875 40.296875 
C 7.296875 40.296875 10 40.296875 10.09375 36.25 
L 10.09375 16.859375 
C 10.09375 10.09375 10.09375 5.75 12.703125 2.921875 
C 14 1.609375 16.5 -1 23.703125 -1 
C 32.203125 -1 35.5 6.25 36.296875 8.375 
L 36.40625 8.375 
L 36.40625 -1 
L 48.296875 -0.203125 
L 48.296875 2.40625 
C 42.40625 2.40625 41.5 3.015625 41.5 7.859375 
L 41.5 44 
z
" id="CMR17-117"/>
       <path d="M 26.296875 24.9375 
C 26.296875 32.140625 25.59375 44.359375 19.59375 57.265625 
C 14.796875 67.6875 6.59375 75 5.40625 75 
C 5.09375 75 4.703125 74.890625 4.703125 74.390625 
C 4.703125 74.1875 4.796875 74.09375 4.90625 73.890625 
C 9.703125 68.875 21.90625 56.171875 21.90625 25.046875 
C 21.90625 -6.1875 9.796875 -18.90625 4.90625 -23.90625 
C 4.796875 -24.109375 4.703125 -24.203125 4.703125 -24.40625 
C 4.703125 -24.90625 5.09375 -25 5.40625 -25 
C 6.5 -25 15 -17.609375 19.90625 -6.59375 
C 24.90625 4.515625 26.296875 15.328125 26.296875 24.9375 
z
" id="CMR17-41"/>
      </defs>
      <use transform="scale(0.996264)" xlink:href="#CMR17-82"/>
      <use transform="translate(67.791102 0)scale(0.996264)" xlink:href="#CMR17-101"/>
      <use transform="translate(108.276762 0)scale(0.996264)" xlink:href="#CMR17-99"/>
      <use transform="translate(148.762423 0)scale(0.996264)" xlink:href="#CMR17-97"/>
      <use transform="translate(194.4529 0)scale(0.996264)" xlink:href="#CMR17-108"/>
      <use transform="translate(219.323958 0)scale(0.996264)" xlink:href="#CMR17-108"/>
      <use transform="translate(274.270983 0)scale(0.996264)" xlink:href="#CMR17-40"/>
      <use transform="translate(309.551751 0)scale(0.996264)" xlink:href="#CMR17-80"/>
      <use transform="translate(369.535598 0)scale(0.996264)" xlink:href="#CMR17-111"/>
      <use transform="translate(415.226075 0)scale(0.996264)" xlink:href="#CMR17-115"/>
      <use transform="translate(451.027412 0)scale(0.996264)" xlink:href="#CMR17-105"/>
      <use transform="translate(475.898471 0)scale(0.996264)" xlink:href="#CMR17-116"/>
      <use transform="translate(511.179239 0)scale(0.996264)" xlink:href="#CMR17-105"/>
      <use transform="translate(536.050297 0)scale(0.996264)" xlink:href="#CMR17-118"/>
      <use transform="translate(581.740759 0)scale(0.996264)" xlink:href="#CMR17-101"/>
      <use transform="translate(652.302386 0)scale(0.996264)" xlink:href="#CMR17-108"/>
      <use transform="translate(677.173444 0)scale(0.996264)" xlink:href="#CMR17-97"/>
      <use transform="translate(722.863922 0)scale(0.996264)" xlink:href="#CMR17-98"/>
      <use transform="translate(776.36173 0)scale(0.996264)" xlink:href="#CMR17-101"/>
      <use transform="translate(816.847391 0)scale(0.996264)" xlink:href="#CMR17-108"/>
      <use transform="translate(841.718449 0)scale(0.996264)" xlink:href="#CMR17-58"/>
      <use transform="translate(907.075168 0)scale(0.996264)" xlink:href="#CMR17-84"/>
      <use transform="translate(965.777793 0)scale(0.996264)" xlink:href="#CMR17-114"/>
      <use transform="translate(1001.058561 0)scale(0.996264)" xlink:href="#CMR17-117"/>
      <use transform="translate(1051.953931 0)scale(0.996264)" xlink:href="#CMR17-101"/>
      <use transform="translate(1092.439591 0)scale(0.996264)" xlink:href="#CMR17-41"/>
     </g>
    </g>
   </g>
   <g id="matplotlib.axis_2">
    <g id="ytick_1">
     <g id="line2d_7">
      <defs>
       <path d="M 0 0 
L -4.8 0 
" id="md2278de704" style="stroke:#262626;"/>
      </defs>
      <g>
       <use style="fill:#262626;stroke:#262626;" x="50.299541" xlink:href="#md2278de704" y="202.676644"/>
      </g>
     </g>
     <g id="text_8">
      <!-- $\mathdefault{0.0}$ -->
      <g style="fill:#262626;" transform="translate(25.54618 207.242841)scale(0.132 -0.132)">
       <use transform="scale(0.996264)" xlink:href="#CMR17-48"/>
       <use transform="translate(45.690477 0)scale(0.996264)" xlink:href="#CMMI12-58"/>
       <use transform="translate(72.787654 0)scale(0.996264)" xlink:href="#CMR17-48"/>
      </g>
     </g>
    </g>
    <g id="ytick_2">
     <g id="line2d_8">
      <g>
       <use style="fill:#262626;stroke:#262626;" x="50.299541" xlink:href="#md2278de704" y="168.483497"/>
      </g>
     </g>
     <g id="text_9">
      <!-- $\mathdefault{0.2}$ -->
      <g style="fill:#262626;" transform="translate(25.54618 173.049695)scale(0.132 -0.132)">
       <use transform="scale(0.996264)" xlink:href="#CMR17-48"/>
       <use transform="translate(45.690477 0)scale(0.996264)" xlink:href="#CMMI12-58"/>
       <use transform="translate(72.787654 0)scale(0.996264)" xlink:href="#CMR17-50"/>
      </g>
     </g>
    </g>
    <g id="ytick_3">
     <g id="line2d_9">
      <g>
       <use style="fill:#262626;stroke:#262626;" x="50.299541" xlink:href="#md2278de704" y="134.290351"/>
      </g>
     </g>
     <g id="text_10">
      <!-- $\mathdefault{0.4}$ -->
      <g style="fill:#262626;" transform="translate(25.54618 138.856548)scale(0.132 -0.132)">
       <use transform="scale(0.996264)" xlink:href="#CMR17-48"/>
       <use transform="translate(45.690477 0)scale(0.996264)" xlink:href="#CMMI12-58"/>
       <use transform="translate(72.787654 0)scale(0.996264)" xlink:href="#CMR17-52"/>
      </g>
     </g>
    </g>
    <g id="ytick_4">
     <g id="line2d_10">
      <g>
       <use style="fill:#262626;stroke:#262626;" x="50.299541" xlink:href="#md2278de704" y="100.097204"/>
      </g>
     </g>
     <g id="text_11">
      <!-- $\mathdefault{0.6}$ -->
      <g style="fill:#262626;" transform="translate(25.54618 104.663402)scale(0.132 -0.132)">
       <use transform="scale(0.996264)" xlink:href="#CMR17-48"/>
       <use transform="translate(45.690477 0)scale(0.996264)" xlink:href="#CMMI12-58"/>
       <use transform="translate(72.787654 0)scale(0.996264)" xlink:href="#CMR17-54"/>
      </g>
     </g>
    </g>
    <g id="ytick_5">
     <g id="line2d_11">
      <g>
       <use style="fill:#262626;stroke:#262626;" x="50.299541" xlink:href="#md2278de704" y="65.904058"/>
      </g>
     </g>
     <g id="text_12">
      <!-- $\mathdefault{0.8}$ -->
      <g style="fill:#262626;" transform="translate(25.54618 70.470255)scale(0.132 -0.132)">
       <use transform="scale(0.996264)" xlink:href="#CMR17-48"/>
       <use transform="translate(45.690477 0)scale(0.996264)" xlink:href="#CMMI12-58"/>
       <use transform="translate(72.787654 0)scale(0.996264)" xlink:href="#CMR17-56"/>
      </g>
     </g>
    </g>
    <g id="ytick_6">
     <g id="line2d_12">
      <g>
       <use style="fill:#262626;stroke:#262626;" x="50.299541" xlink:href="#md2278de704" y="31.710912"/>
      </g>
     </g>
     <g id="text_13">
      <!-- $\mathdefault{1.0}$ -->
      <g style="fill:#262626;" transform="translate(25.54618 36.277109)scale(0.132 -0.132)">
       <use transform="scale(0.996264)" xlink:href="#CMR17-49"/>
       <use transform="translate(45.690477 0)scale(0.996264)" xlink:href="#CMMI12-58"/>
       <use transform="translate(72.787654 0)scale(0.996264)" xlink:href="#CMR17-48"/>
      </g>
     </g>
    </g>
    <g id="text_14">
     <!-- Precision (Positive label: True) -->
     <g style="fill:#262626;" transform="translate(17.959639 213.258127)rotate(-90)scale(0.144 -0.144)">
      <defs>
       <path d="M 41.5 30.53125 
C 41.5 35.65625 40.5 44 28.703125 44 
C 20.796875 44 16.703125 37.875 15.203125 33.84375 
L 15.09375 33.84375 
L 15.09375 44 
L 3.296875 42.890625 
L 3.296875 40.28125 
C 9.203125 40.28125 10.09375 39.6875 10.09375 34.859375 
L 10.09375 6.921875 
C 10.09375 3.09375 9.703125 2.59375 3.296875 2.59375 
L 3.296875 0 
C 5.703125 0.1875 10.09375 0.1875 12.703125 0.1875 
C 15.296875 0.1875 19.796875 0.1875 22.203125 0 
L 22.203125 2.59375 
C 15.796875 2.59375 15.40625 3 15.40625 6.921875 
L 15.40625 26.21875 
C 15.40625 35.453125 21 42.390625 28 42.390625 
C 35.40625 42.390625 36.203125 35.765625 36.203125 30.9375 
L 36.203125 6.921875 
C 36.203125 3.09375 35.796875 2.59375 29.40625 2.59375 
L 29.40625 0 
C 31.796875 0.1875 36.203125 0.1875 38.796875 0.1875 
C 41.40625 0.1875 45.90625 0.1875 48.296875 0 
L 48.296875 2.59375 
C 41.90625 2.59375 41.5 3 41.5 6.921875 
z
" id="CMR17-110"/>
      </defs>
      <use transform="scale(0.996264)" xlink:href="#CMR17-80"/>
      <use transform="translate(62.586301 0)scale(0.996264)" xlink:href="#CMR17-114"/>
      <use transform="translate(97.867068 0)scale(0.996264)" xlink:href="#CMR17-101"/>
      <use transform="translate(138.352729 0)scale(0.996264)" xlink:href="#CMR17-99"/>
      <use transform="translate(178.838389 0)scale(0.996264)" xlink:href="#CMR17-105"/>
      <use transform="translate(203.709448 0)scale(0.996264)" xlink:href="#CMR17-115"/>
      <use transform="translate(239.510785 0)scale(0.996264)" xlink:href="#CMR17-105"/>
      <use transform="translate(264.381844 0)scale(0.996264)" xlink:href="#CMR17-111"/>
      <use transform="translate(310.072321 0)scale(0.996264)" xlink:href="#CMR17-110"/>
      <use transform="translate(391.043657 0)scale(0.996264)" xlink:href="#CMR17-40"/>
      <use transform="translate(426.324425 0)scale(0.996264)" xlink:href="#CMR17-80"/>
      <use transform="translate(486.308271 0)scale(0.996264)" xlink:href="#CMR17-111"/>
      <use transform="translate(531.998749 0)scale(0.996264)" xlink:href="#CMR17-115"/>
      <use transform="translate(567.800086 0)scale(0.996264)" xlink:href="#CMR17-105"/>
      <use transform="translate(592.671145 0)scale(0.996264)" xlink:href="#CMR17-116"/>
      <use transform="translate(627.951913 0)scale(0.996264)" xlink:href="#CMR17-105"/>
      <use transform="translate(652.822971 0)scale(0.996264)" xlink:href="#CMR17-118"/>
      <use transform="translate(698.513433 0)scale(0.996264)" xlink:href="#CMR17-101"/>
      <use transform="translate(769.07506 0)scale(0.996264)" xlink:href="#CMR17-108"/>
      <use transform="translate(793.946118 0)scale(0.996264)" xlink:href="#CMR17-97"/>
      <use transform="translate(839.636595 0)scale(0.996264)" xlink:href="#CMR17-98"/>
      <use transform="translate(893.134404 0)scale(0.996264)" xlink:href="#CMR17-101"/>
      <use transform="translate(933.620064 0)scale(0.996264)" xlink:href="#CMR17-108"/>
      <use transform="translate(958.491123 0)scale(0.996264)" xlink:href="#CMR17-58"/>
      <use transform="translate(1023.847842 0)scale(0.996264)" xlink:href="#CMR17-84"/>
      <use transform="translate(1082.550467 0)scale(0.996264)" xlink:href="#CMR17-114"/>
      <use transform="translate(1117.831235 0)scale(0.996264)" xlink:href="#CMR17-117"/>
      <use transform="translate(1168.726604 0)scale(0.996264)" xlink:href="#CMR17-101"/>
      <use transform="translate(1209.212265 0)scale(0.996264)" xlink:href="#CMR17-41"/>
     </g>
    </g>
   </g>
   <g id="PolyCollection_1">
    <defs>
     <path d="M 75.799237 -235.049655 
L 75.799237 -235.049655 
L 78.930488 -235.049655 
L 82.06174 -235.049655 
L 85.192992 -235.049655 
L 88.324243 -235.049655 
L 91.455495 -235.049655 
L 94.586747 -235.049655 
L 97.717999 -235.049655 
L 100.84925 -235.049655 
L 103.980502 -235.049655 
L 107.111754 -235.049655 
L 110.243005 -235.049655 
L 113.374257 -235.049655 
L 116.505509 -235.049655 
L 119.63676 -235.049655 
L 122.768012 -235.049655 
L 125.899264 -235.049655 
L 129.030515 -235.049655 
L 132.161767 -235.049655 
L 135.293019 -235.049655 
L 138.424271 -235.049655 
L 141.555522 -235.049655 
L 144.686774 -235.049655 
L 147.818026 -235.049655 
L 150.949277 -235.049655 
L 154.080529 -235.049655 
L 157.211781 -235.049655 
L 160.343032 -235.049655 
L 163.474284 -235.049655 
L 166.605536 -235.049655 
L 169.736788 -235.049655 
L 172.868039 -235.049655 
L 175.999291 -220.654489 
L 179.130543 -221.006042 
L 182.261794 -221.357595 
L 185.393046 -221.709148 
L 188.524298 -222.0607 
L 191.655549 -222.371136 
L 194.786801 -222.644566 
L 197.918053 -219.134918 
L 201.049304 -219.492432 
L 204.180556 -219.849945 
L 207.311808 -220.190817 
L 210.44306 -220.482861 
L 213.574311 -220.774902 
L 216.705563 -221.06694 
L 219.836815 -221.354122 
L 222.968066 -221.626902 
L 226.099318 -221.870147 
L 229.23057 -222.113383 
L 232.361821 -222.350311 
L 235.493073 -222.580936 
L 238.624325 -222.811559 
L 241.755577 -223.020012 
L 244.886828 -223.218762 
L 248.01808 -223.414363 
L 251.149332 -223.609964 
L 254.280583 -223.805565 
L 257.411835 -223.980662 
L 260.543087 -224.148762 
L 263.674338 -224.31686 
L 266.80559 -224.484418 
L 269.936842 -224.645502 
L 273.068093 -224.799483 
L 276.199345 -224.94557 
L 279.330597 -225.090065 
L 282.461849 -225.230248 
L 285.5931 -225.363492 
L 288.724352 -225.500618 
L 291.855604 -225.611087 
L 294.986855 -225.024568 
L 298.118107 -225.15932 
L 301.249359 -225.292321 
L 304.38061 -223.579994 
L 307.511862 -223.738867 
L 310.643114 -220.991495 
L 313.774366 -221.285141 
L 316.905617 -219.232942 
L 320.036869 -219.450736 
L 323.168121 -219.63957 
L 326.299372 -219.821641 
L 329.430624 -220.01005 
L 332.561876 -217.955901 
L 335.693127 -218.151504 
L 338.824379 -215.796474 
L 341.955631 -214.143043 
L 345.086882 -214.355672 
L 348.218134 -201.047465 
L 351.349386 -201.307058 
L 354.480638 -199.743189 
L 357.611889 -163.637389 
L 360.743141 -163.834323 
L 363.874393 -160.519459 
L 367.005644 -160.700425 
L 370.136896 -158.001001 
L 373.268148 -156.386366 
L 376.399399 -121.987745 
L 379.530651 -121.093446 
L 382.661903 -121.021293 
L 385.793155 -64.083923 
L 385.793155 -109.567748 
L 385.793155 -109.567748 
L 382.661903 -214.479694 
L 379.530651 -216.584303 
L 376.399399 -219.173918 
L 373.268148 -233.736229 
L 370.136896 -233.807465 
L 367.005644 -235.049655 
L 363.874393 -235.049655 
L 360.743141 -235.049655 
L 357.611889 -235.049655 
L 354.480638 -231.038712 
L 351.349386 -232.462036 
L 348.218134 -232.56631 
L 345.086882 -228.864607 
L 341.955631 -229.284566 
L 338.824379 -228.994936 
L 335.693127 -230.20749 
L 332.561876 -230.416161 
L 329.430624 -229.888649 
L 326.299372 -229.952239 
L 323.168121 -229.953271 
L 320.036869 -229.956135 
L 316.905617 -230.09049 
L 313.774366 -229.693312 
L 310.643114 -230.097159 
L 307.511862 -231.255799 
L 304.38061 -231.28583 
L 301.249359 -234.109535 
L 298.118107 -234.096284 
L 294.986855 -234.210756 
L 291.855604 -235.049655 
L 288.724352 -235.049655 
L 285.5931 -235.049655 
L 282.461849 -235.049655 
L 279.330597 -235.049655 
L 276.199345 -235.049655 
L 273.068093 -235.049655 
L 269.936842 -235.049655 
L 266.80559 -235.049655 
L 263.674338 -235.049655 
L 260.543087 -235.049655 
L 257.411835 -235.049655 
L 254.280583 -235.049655 
L 251.149332 -235.049655 
L 248.01808 -235.049655 
L 244.886828 -235.049655 
L 241.755577 -235.049655 
L 238.624325 -235.049655 
L 235.493073 -235.049655 
L 232.361821 -235.049655 
L 229.23057 -235.049655 
L 226.099318 -235.049655 
L 222.968066 -235.049655 
L 219.836815 -235.049655 
L 216.705563 -235.049655 
L 213.574311 -235.049655 
L 210.44306 -235.049655 
L 207.311808 -235.049655 
L 204.180556 -235.049655 
L 201.049304 -235.049655 
L 197.918053 -235.049655 
L 194.786801 -235.049655 
L 191.655549 -235.049655 
L 188.524298 -235.049655 
L 185.393046 -235.049655 
L 182.261794 -235.049655 
L 179.130543 -235.049655 
L 175.999291 -235.049655 
L 172.868039 -235.049655 
L 169.736788 -235.049655 
L 166.605536 -235.049655 
L 163.474284 -235.049655 
L 160.343032 -235.049655 
L 157.211781 -235.049655 
L 154.080529 -235.049655 
L 150.949277 -235.049655 
L 147.818026 -235.049655 
L 144.686774 -235.049655 
L 141.555522 -235.049655 
L 138.424271 -235.049655 
L 135.293019 -235.049655 
L 132.161767 -235.049655 
L 129.030515 -235.049655 
L 125.899264 -235.049655 
L 122.768012 -235.049655 
L 119.63676 -235.049655 
L 116.505509 -235.049655 
L 113.374257 -235.049655 
L 110.243005 -235.049655 
L 107.111754 -235.049655 
L 103.980502 -235.049655 
L 100.84925 -235.049655 
L 97.717999 -235.049655 
L 94.586747 -235.049655 
L 91.455495 -235.049655 
L 88.324243 -235.049655 
L 85.192992 -235.049655 
L 82.06174 -235.049655 
L 78.930488 -235.049655 
L 75.799237 -235.049655 
z
" id="m0383bfbf9d" style="stroke:#808080;stroke-opacity:0.2;stroke-width:0.8;"/>
    </defs>
    <g clip-path="url(#pf2867b156f)">
     <use style="fill:#808080;fill-opacity:0.2;stroke:#808080;stroke-opacity:0.2;stroke-width:0.8;" x="0" xlink:href="#m0383bfbf9d" y="266.760567"/>
    </g>
   </g>
   <g id="PolyCollection_2">
    <defs>
     <path d="M 75.799237 -235.049655 
L 75.799237 -235.049655 
L 78.930488 -142.313698 
L 82.06174 -152.157179 
L 85.192992 -161.61531 
L 88.324243 -171.250054 
L 91.455495 -181.211316 
L 94.586747 -185.95456 
L 97.717999 -189.293334 
L 100.84925 -192.458118 
L 103.980502 -195.642284 
L 107.111754 -198.978091 
L 110.243005 -201.228701 
L 113.374257 -202.674445 
L 116.505509 -204.134434 
L 119.63676 -205.22148 
L 122.768012 -206.704012 
L 125.899264 -208.203996 
L 129.030515 -208.925662 
L 132.161767 -209.775346 
L 135.293019 -210.260792 
L 138.424271 -211.240172 
L 141.555522 -211.552729 
L 144.686774 -210.813304 
L 147.818026 -209.768165 
L 150.949277 -209.286438 
L 154.080529 -207.06399 
L 157.211781 -206.160484 
L 160.343032 -204.719152 
L 163.474284 -202.008439 
L 166.605536 -200.571073 
L 169.736788 -198.305193 
L 172.868039 -198.132096 
L 175.999291 -196.835087 
L 179.130543 -194.135321 
L 182.261794 -193.065711 
L 185.393046 -193.074831 
L 188.524298 -193.307207 
L 191.655549 -192.586055 
L 194.786801 -192.51978 
L 197.918053 -192.262962 
L 201.049304 -190.517946 
L 204.180556 -189.464955 
L 207.311808 -188.663348 
L 210.44306 -187.598118 
L 213.574311 -187.464585 
L 216.705563 -186.857134 
L 219.836815 -186.291592 
L 222.968066 -185.809782 
L 226.099318 -182.409004 
L 229.23057 -182.30457 
L 232.361821 -181.016915 
L 235.493073 -180.6231 
L 238.624325 -179.322997 
L 241.755577 -174.122293 
L 244.886828 -174.304773 
L 248.01808 -172.552676 
L 251.149332 -172.337917 
L 254.280583 -170.241334 
L 257.411835 -170.58364 
L 260.543087 -171.049103 
L 263.674338 -170.344111 
L 266.80559 -170.827037 
L 269.936842 -169.226618 
L 273.068093 -162.111684 
L 276.199345 -162.694684 
L 279.330597 -160.570768 
L 282.461849 -161.113675 
L 285.5931 -152.012897 
L 288.724352 -152.657631 
L 291.855604 -153.305254 
L 294.986855 -152.66613 
L 298.118107 -153.294464 
L 301.249359 -152.697728 
L 304.38061 -147.877519 
L 307.511862 -148.47963 
L 310.643114 -144.619311 
L 313.774366 -145.214968 
L 316.905617 -144.921956 
L 320.036869 -145.50293 
L 323.168121 -137.897191 
L 326.299372 -136.202699 
L 329.430624 -136.743475 
L 332.561876 -132.152645 
L 335.693127 -132.675972 
L 338.824379 -130.9071 
L 341.955631 -127.405692 
L 345.086882 -127.886332 
L 348.218134 -125.26269 
L 351.349386 -125.707021 
L 354.480638 -126.11513 
L 357.611889 -118.955319 
L 360.743141 -119.25166 
L 363.874393 -117.357733 
L 367.005644 -117.488744 
L 370.136896 -110.339734 
L 373.268148 -109.532564 
L 376.399399 -86.628996 
L 379.530651 -84.206553 
L 382.661903 -78.185789 
L 385.793155 -64.083923 
L 385.793155 -109.885377 
L 385.793155 -109.885377 
L 382.661903 -162.320823 
L 379.530651 -168.03565 
L 376.399399 -171.353488 
L 373.268148 -213.070089 
L 370.136896 -213.667888 
L 367.005644 -222.452423 
L 363.874393 -222.490506 
L 360.743141 -222.082924 
L 357.611889 -221.998293 
L 354.480638 -220.533878 
L 351.349386 -220.41642 
L 348.218134 -220.270719 
L 345.086882 -219.687053 
L 341.955631 -219.537933 
L 338.824379 -218.948014 
L 335.693127 -222.592407 
L 332.561876 -222.472584 
L 329.430624 -221.948316 
L 326.299372 -221.839121 
L 323.168121 -221.669755 
L 320.036869 -222.659383 
L 316.905617 -222.533347 
L 313.774366 -222.320443 
L 310.643114 -222.195052 
L 307.511862 -221.801776 
L 304.38061 -221.68281 
L 301.249359 -223.4092 
L 298.118107 -223.175563 
L 294.986855 -223.041809 
L 291.855604 -222.829043 
L 288.724352 -222.696411 
L 285.5931 -222.552061 
L 282.461849 -223.068632 
L 279.330597 -222.912196 
L 276.199345 -223.590925 
L 273.068093 -223.434565 
L 269.936842 -232.460629 
L 266.80559 -232.902788 
L 263.674338 -232.804401 
L 260.543087 -233.057041 
L 257.411835 -232.95102 
L 254.280583 -232.812948 
L 251.149332 -233.652643 
L 248.01808 -233.367111 
L 244.886828 -234.85146 
L 241.755577 -234.663959 
L 238.624325 -235.049655 
L 235.493073 -235.049655 
L 232.361821 -235.049655 
L 229.23057 -235.049655 
L 226.099318 -235.049655 
L 222.968066 -235.049655 
L 219.836815 -235.049655 
L 216.705563 -235.049655 
L 213.574311 -235.049655 
L 210.44306 -235.049655 
L 207.311808 -235.049655 
L 204.180556 -235.049655 
L 201.049304 -235.049655 
L 197.918053 -235.049655 
L 194.786801 -235.049655 
L 191.655549 -235.049655 
L 188.524298 -235.049655 
L 185.393046 -235.049655 
L 182.261794 -235.049655 
L 179.130543 -235.049655 
L 175.999291 -235.049655 
L 172.868039 -235.049655 
L 169.736788 -235.049655 
L 166.605536 -235.049655 
L 163.474284 -235.049655 
L 160.343032 -235.049655 
L 157.211781 -235.049655 
L 154.080529 -235.049655 
L 150.949277 -235.049655 
L 147.818026 -235.049655 
L 144.686774 -235.049655 
L 141.555522 -235.049655 
L 138.424271 -235.049655 
L 135.293019 -235.049655 
L 132.161767 -235.049655 
L 129.030515 -235.049655 
L 125.899264 -235.049655 
L 122.768012 -235.049655 
L 119.63676 -235.049655 
L 116.505509 -235.049655 
L 113.374257 -235.049655 
L 110.243005 -235.049655 
L 107.111754 -235.049655 
L 103.980502 -235.049655 
L 100.84925 -235.049655 
L 97.717999 -235.049655 
L 94.586747 -235.049655 
L 91.455495 -235.049655 
L 88.324243 -235.049655 
L 85.192992 -235.049655 
L 82.06174 -235.049655 
L 78.930488 -235.049655 
L 75.799237 -235.049655 
z
" id="m62a3227bc0" style="stroke:#808080;stroke-opacity:0.2;stroke-width:0.8;"/>
    </defs>
    <g clip-path="url(#pf2867b156f)">
     <use style="fill:#808080;fill-opacity:0.2;stroke:#808080;stroke-opacity:0.2;stroke-width:0.8;" x="0" xlink:href="#m62a3227bc0" y="266.760567"/>
    </g>
   </g>
   <g id="line2d_13">
    <path clip-path="url(#pf2867b156f)" d="M 385.793155 78.947142 
L 385.383651 78.969732 
L 385.383651 78.873872 
L 385.383651 78.695739 
L 384.974148 78.658775 
L 384.974148 78.62174 
L 384.974148 77.902233 
L 384.769397 77.902233 
L 384.769397 77.803803 
L 384.769397 77.135383 
L 384.564645 77.135383 
L 384.564645 77.03516 
L 384.564645 76.789767 
L 384.359893 76.789767 
L 384.359893 76.688693 
L 384.359893 75.444368 
L 384.155142 75.444368 
L 384.155142 75.340149 
L 384.155142 75.214073 
L 383.95039 75.23562 
L 383.95039 75.109253 
L 383.95039 74.792237 
L 383.745639 74.792237 
L 383.745639 74.686369 
L 383.745639 71.953481 
L 383.540887 71.953481 
L 383.540887 71.907435 
L 383.540887 71.707482 
L 383.336135 71.727878 
L 383.336135 71.661067 
L 383.336135 70.378586 
L 382.926632 70.398518 
L 382.926632 70.28191 
L 382.926632 69.663885 
L 382.721881 69.663885 
L 382.721881 69.614529 
L 382.721881 68.710291 
L 382.517129 68.710291 
L 382.517129 68.65955 
L 382.517129 68.378444 
L 382.312377 68.378444 
L 382.312377 68.327194 
L 382.312377 68.115287 
L 382.107626 68.115287 
L 382.107626 68.063625 
L 382.107626 66.486689 
L 381.902874 66.505216 
L 381.902874 66.43263 
L 381.902874 65.849144 
L 381.698123 65.849144 
L 381.698123 65.794112 
L 381.698123 64.833792 
L 381.288619 64.851677 
L 381.288619 64.795091 
L 381.288619 64.645869 
L 381.083868 64.6637 
L 381.083868 64.588937 
L 381.083868 64.289072 
L 380.879116 64.289072 
L 380.879116 64.231567 
L 380.879116 63.929944 
L 380.469613 63.871859 
L 380.469613 63.889404 
L 380.469613 63.281022 
L 380.06011 63.29833 
L 380.06011 63.239169 
L 380.06011 62.701394 
L 379.650607 62.641281 
L 379.650607 62.658351 
L 379.650607 62.115344 
L 379.445855 62.115344 
L 379.445855 62.054247 
L 379.445855 61.191052 
L 379.241103 61.191052 
L 379.241103 61.128479 
L 379.241103 60.890849 
L 379.036352 60.907187 
L 379.036352 60.827764 
L 379.036352 60.588962 
L 378.8316 60.588962 
L 378.8316 60.525361 
L 378.8316 60.044579 
L 378.626849 60.044579 
L 378.626849 59.980076 
L 378.626849 59.899502 
L 378.422097 59.899502 
L 378.422097 59.834726 
L 378.422097 59.592073 
L 378.012594 59.60787 
L 378.012594 59.542542 
L 378.012594 59.217053 
L 377.603091 59.151057 
L 377.603091 59.166684 
L 377.603091 58.67465 
L 377.398339 58.67465 
L 377.398339 58.607694 
L 377.398339 57.778759 
L 377.193587 57.778759 
L 377.193587 57.710309 
L 377.193587 56.870411 
L 376.988836 56.884996 
L 376.988836 56.80043 
L 376.988836 56.376125 
L 376.784084 56.376125 
L 376.784084 56.305283 
L 376.784084 56.04909 
L 376.579333 56.04909 
L 376.579333 55.97766 
L 376.579333 54.506342 
L 376.374581 54.506342 
L 376.374581 54.432288 
L 376.374581 54.081206 
L 376.169829 54.081206 
L 376.169829 54.006383 
L 376.169829 52.851835 
L 375.760326 52.864472 
L 375.760326 52.787477 
L 375.760326 52.337629 
L 375.146071 52.272034 
L 375.146071 52.284405 
L 375.146071 52.012448 
L 374.736568 51.933774 
L 374.736568 51.945986 
L 374.736568 51.85491 
L 374.531817 51.85491 
L 374.531817 51.775855 
L 374.531817 51.50149 
L 374.122313 51.513492 
L 374.122313 51.433734 
L 374.122313 50.41682 
L 373.71281 50.335086 
L 373.71281 50.34649 
L 373.71281 50.253151 
L 373.508059 50.264519 
L 373.508059 50.171015 
L 373.508059 50.077396 
L 373.303307 50.077396 
L 373.303307 49.994893 
L 373.303307 49.712845 
L 372.893804 49.723937 
L 372.893804 49.640692 
L 372.893804 49.546226 
L 372.689052 49.557242 
L 372.689052 49.462607 
L 372.689052 49.367855 
L 372.484301 49.367855 
L 372.484301 49.28386 
L 372.484301 49.188821 
L 371.870046 49.115244 
L 371.870046 49.126054 
L 371.870046 48.647704 
L 371.460543 48.562181 
L 371.460543 48.5727 
L 371.460543 48.38007 
L 371.05104 48.293946 
L 371.05104 48.304329 
L 371.05104 48.110759 
L 370.846288 48.110759 
L 370.846288 48.024026 
L 370.846288 47.732229 
L 370.436785 47.644745 
L 370.436785 47.654786 
L 370.436785 47.557042 
L 370.027282 47.469117 
L 370.027282 47.479071 
L 370.027282 47.380969 
L 369.413027 47.400805 
L 369.413027 47.312347 
L 369.413027 46.91752 
L 368.798772 46.837733 
L 368.798772 46.847368 
L 368.798772 46.74805 
L 368.59402 46.75764 
L 368.59402 46.658139 
L 368.59402 46.55851 
L 368.389269 46.55851 
L 368.389269 46.468184 
L 368.389269 46.368242 
L 367.979766 46.277499 
L 367.979766 46.286836 
L 367.979766 46.086079 
L 367.775014 46.086079 
L 367.775014 45.994681 
L 367.775014 45.590861 
L 367.570262 45.590861 
L 367.570262 45.498471 
L 367.570262 45.397 
L 367.365511 45.397 
L 367.365511 45.304179 
L 367.365511 44.793892 
L 366.751256 44.810883 
L 366.751256 44.716757 
L 366.751256 44.098115 
L 365.317995 44.14682 
L 365.317995 44.050958 
L 365.317995 43.842514 
L 364.294237 43.7698 
L 364.294237 43.777754 
L 364.294237 43.67287 
L 363.884734 43.680771 
L 363.884734 43.583532 
L 363.884734 43.478242 
L 363.679982 43.478242 
L 363.679982 43.380541 
L 363.679982 42.957162 
L 362.860976 42.873231 
L 362.860976 42.880673 
L 362.860976 42.667327 
L 361.837218 42.589508 
L 361.837218 42.596799 
L 361.837218 42.166477 
L 360.403956 42.208807 
L 360.403956 42.107476 
L 360.403956 41.99891 
L 359.789702 41.90399 
L 359.789702 41.910901 
L 359.789702 41.801833 
L 359.175447 41.706189 
L 359.175447 41.712988 
L 359.175447 41.383819 
L 358.356441 41.293406 
L 358.356441 41.299961 
L 358.356441 41.189504 
L 357.742186 41.091747 
L 357.742186 41.098186 
L 357.742186 40.876085 
L 357.537434 40.876085 
L 357.537434 40.771036 
L 357.537434 40.659531 
L 356.104173 40.696662 
L 356.104173 40.590711 
L 356.104173 40.478385 
L 355.080415 40.389979 
L 355.080415 40.396018 
L 355.080415 40.283009 
L 354.670912 40.175742 
L 354.670912 40.181649 
L 354.670912 40.068175 
L 352.828147 40.000887 
L 352.828147 40.006717 
L 352.828147 39.662806 
L 351.804389 39.570015 
L 351.804389 39.575577 
L 351.804389 39.460067 
L 350.780631 39.482081 
L 350.780631 39.371538 
L 350.780631 39.255307 
L 349.34737 39.17079 
L 349.34737 39.17613 
L 349.34737 39.059009 
L 347.709357 39.09604 
L 347.709357 38.983426 
L 347.709357 38.865322 
L 347.504606 38.865322 
L 347.504606 38.870487 
L 347.504606 38.75213 
L 346.071345 38.782789 
L 346.071345 38.668819 
L 346.071345 38.430089 
L 345.252338 38.324914 
L 345.252338 38.329746 
L 345.252338 38.209609 
L 345.047587 38.209609 
L 345.047587 38.214363 
L 345.047587 37.973393 
L 344.638084 37.977984 
L 344.638084 37.982582 
L 344.638084 37.861661 
L 344.22858 37.86618 
L 344.22858 37.870706 
L 344.22858 37.749436 
L 343.819077 37.753883 
L 343.819077 37.758336 
L 343.819077 37.636715 
L 343.614326 37.636715 
L 343.614326 37.641088 
L 343.614326 37.519201 
L 343.409574 37.519201 
L 343.409574 37.523494 
L 343.409574 37.401339 
L 342.590568 37.413994 
L 342.590568 37.295538 
L 342.590568 37.049618 
L 340.3383 36.96548 
L 340.3383 36.969422 
L 340.3383 36.720426 
L 338.086032 36.632652 
L 338.086032 36.636384 
L 338.086032 36.510405 
L 336.038516 36.41639 
L 336.038516 36.419991 
L 336.038516 36.165191 
L 333.991 36.067567 
L 333.991 36.070934 
L 333.991 35.942082 
L 333.581497 35.945357 
L 333.581497 35.948637 
L 333.581497 35.81939 
L 333.171994 35.822578 
L 333.171994 35.82577 
L 333.171994 35.696127 
L 332.762491 35.699226 
L 332.762491 35.702329 
L 332.762491 35.572287 
L 332.557739 35.572287 
L 332.557739 35.575297 
L 332.557739 35.444952 
L 331.32923 35.459573 
L 331.32923 35.462511 
L 331.32923 35.331362 
L 330.919727 35.334204 
L 330.919727 35.33705 
L 330.919727 35.205494 
L 329.076962 35.095031 
L 329.076962 35.097713 
L 329.076962 34.964819 
L 321.09165 34.928761 
L 321.09165 34.931396 
L 321.09165 34.7939 
L 319.658389 34.809137 
L 319.658389 34.811691 
L 319.658389 34.673189 
L 318.020376 34.690397 
L 318.020376 34.692872 
L 318.020376 34.413365 
L 315.563357 34.438325 
L 315.563357 34.440616 
L 315.563357 34.299123 
L 315.153854 34.301301 
L 315.153854 34.303484 
L 315.153854 34.161516 
L 313.311089 34.178159 
L 313.311089 34.180255 
L 313.311089 33.893453 
L 312.696834 33.897174 
L 312.696834 33.899039 
L 312.696834 33.754908 
L 311.058822 33.7672 
L 311.058822 33.768968 
L 311.058822 33.477999 
L 310.85407 33.477999 
L 310.85407 33.479523 
L 310.85407 33.333537 
L 309.62556 33.340568 
L 309.62556 33.341981 
L 309.62556 33.194989 
L 307.987548 33.204062 
L 307.987548 33.205367 
L 307.987548 33.057098 
L 304.711522 33.075 
L 304.711522 33.07621 
L 304.711522 32.925588 
L 304.097267 32.927749 
L 304.097267 32.928833 
L 304.097267 32.777543 
L 301.640248 32.788103 
L 301.640248 32.789074 
L 301.640248 32.635884 
L 297.135713 32.653737 
L 297.135713 32.654605 
L 297.135713 32.498047 
L 296.521458 32.499499 
L 296.521458 32.500227 
L 296.521458 32.342947 
L 294.883445 32.347063 
L 294.883445 32.347655 
L 294.883445 32.188914 
L 290.993165 32.19707 
L 290.993165 32.197531 
L 290.993165 32.035633 
L 289.764656 32.037182 
L 289.764656 32.037494 
L 289.764656 31.874359 
L 283.212604 31.879351 
L 283.212604 31.879517 
L 283.212604 31.710912 
L 75.799237 31.710912 
L 75.799237 31.710912 
" style="fill:none;stroke:#0173b2;stroke-linecap:round;stroke-opacity:0.3;"/>
   </g>
   <g id="line2d_14">
    <path clip-path="url(#pf2867b156f)" d="M 385.793155 47.993362 
L 369.477685 47.993362 
L 369.477685 48.807485 
L 369.477685 48.807485 
L 369.477685 40.709108 
L 353.162216 40.709108 
L 353.162216 41.209008 
L 336.846746 41.209008 
L 336.846746 41.767719 
L 320.531277 41.767719 
L 320.531277 42.39627 
L 304.215808 42.39627 
L 304.215808 43.108627 
L 287.900338 43.108627 
L 287.900338 43.92275 
L 271.584869 43.92275 
L 271.584869 44.862122 
L 255.2694 44.862122 
L 255.2694 45.958056 
L 238.95393 45.958056 
L 238.95393 47.253251 
L 222.638461 47.253251 
L 222.638461 48.807485 
L 206.322992 48.807485 
L 206.322992 50.707104 
L 190.007522 50.707104 
L 190.007522 53.081628 
L 173.692053 53.081628 
L 173.692053 56.134588 
L 173.692053 56.134588 
L 173.692053 31.710912 
L 157.376583 31.710912 
L 157.376583 31.710912 
L 141.061114 31.710912 
L 141.061114 31.710912 
L 124.745645 31.710912 
L 124.745645 31.710912 
L 108.430175 31.710912 
L 108.430175 31.710912 
L 92.114706 31.710912 
L 92.114706 31.710912 
L 75.799237 31.710912 
L 75.799237 31.710912 
" style="fill:none;stroke:#de8f05;stroke-linecap:round;stroke-opacity:0.3;"/>
   </g>
   <g id="line2d_15">
    <path clip-path="url(#pf2867b156f)" d="M 385.793155 67.328772 
L 369.477685 67.328772 
L 369.477685 68.877375 
L 369.477685 68.877375 
L 369.477685 62.79559 
L 369.477685 62.79559 
L 369.477685 56.134588 
L 353.162216 56.134588 
L 353.162216 57.355771 
L 353.162216 57.355771 
L 353.162216 49.707304 
L 336.846746 49.707304 
L 336.846746 50.707104 
L 336.846746 50.707104 
L 336.846746 41.767719 
L 320.531277 41.767719 
L 320.531277 42.39627 
L 304.215808 42.39627 
L 304.215808 43.108627 
L 304.215808 43.108627 
L 304.215808 31.710912 
L 287.900338 31.710912 
L 287.900338 31.710912 
L 271.584869 31.710912 
L 271.584869 31.710912 
L 255.2694 31.710912 
L 255.2694 31.710912 
L 238.95393 31.710912 
L 238.95393 31.710912 
L 222.638461 31.710912 
L 222.638461 31.710912 
L 206.322992 31.710912 
L 206.322992 31.710912 
L 190.007522 31.710912 
L 190.007522 31.710912 
L 173.692053 31.710912 
L 173.692053 31.710912 
L 157.376583 31.710912 
L 157.376583 31.710912 
L 141.061114 31.710912 
L 141.061114 31.710912 
L 124.745645 31.710912 
L 124.745645 31.710912 
L 108.430175 31.710912 
L 108.430175 31.710912 
L 92.114706 31.710912 
L 92.114706 31.710912 
L 75.799237 31.710912 
L 75.799237 31.710912 
" style="fill:none;stroke:#029e73;stroke-linecap:round;stroke-opacity:0.3;"/>
   </g>
   <g id="line2d_16">
    <path clip-path="url(#pf2867b156f)" d="M 385.793155 147.967609 
L 378.043307 147.967609 
L 378.043307 148.905163 
L 378.043307 146.645858 
L 370.293459 146.645858 
L 370.293459 147.619882 
L 370.293459 144.670413 
L 362.543611 144.670413 
L 362.543611 145.688066 
L 362.543611 140.659662 
L 354.793763 140.659662 
L 354.793763 141.738363 
L 354.793763 79.581317 
L 347.043915 79.581317 
L 347.043915 80.558264 
L 347.043915 56.730287 
L 339.294067 56.730287 
L 339.294067 57.355771 
L 339.294067 53.629595 
L 331.544219 53.629595 
L 331.544219 54.206403 
L 331.544219 50.193693 
L 323.794371 50.193693 
L 323.794371 50.707104 
L 316.044523 50.707104 
L 316.044523 51.249852 
L 316.044523 46.796123 
L 308.294675 46.796123 
L 308.294675 47.253251 
L 308.294675 37.225935 
L 300.544827 37.225935 
L 300.544827 37.409769 
L 292.794979 37.409769 
L 292.794979 37.606282 
L 292.794979 31.710912 
L 75.799237 31.710912 
L 75.799237 31.710912 
" style="fill:none;stroke:#d55e00;stroke-linecap:round;stroke-opacity:0.3;"/>
   </g>
   <g id="line2d_17">
    <path clip-path="url(#pf2867b156f)" d="M 385.793155 161.895827 
L 373.870312 161.895827 
L 373.870312 163.101243 
L 373.870312 44.37504 
L 361.947469 44.37504 
L 361.947469 44.862122 
L 361.947469 38.549541 
L 350.024626 38.549541 
L 350.024626 38.834484 
L 338.101783 38.834484 
L 338.101783 39.144204 
L 326.17894 39.144204 
L 326.17894 39.482081 
L 314.256097 39.482081 
L 314.256097 39.852137 
L 302.333254 39.852137 
L 302.333254 40.259198 
L 290.410411 40.259198 
L 290.410411 40.709108 
L 278.487568 40.709108 
L 278.487568 41.209008 
L 266.564725 41.209008 
L 266.564725 41.767719 
L 254.641882 41.767719 
L 254.641882 42.39627 
L 242.719039 42.39627 
L 242.719039 43.108627 
L 230.796196 43.108627 
L 230.796196 43.92275 
L 218.873353 43.92275 
L 218.873353 44.862122 
L 206.95051 44.862122 
L 206.95051 45.958056 
L 195.027667 45.958056 
L 195.027667 47.253251 
L 195.027667 31.710912 
L 75.799237 31.710912 
L 75.799237 31.710912 
" style="fill:none;stroke:#cc78bc;stroke-linecap:round;stroke-opacity:0.3;"/>
   </g>
   <g id="line2d_18">
    <path clip-path="url(#pf2867b156f)" d="M 75.799237 31.710912 
L 78.930488 31.710912 
L 82.06174 31.710912 
L 85.192992 31.710912 
L 88.324243 31.710912 
L 91.455495 31.710912 
L 94.586747 31.710912 
L 97.717999 31.710912 
L 100.84925 31.710912 
L 103.980502 31.710912 
L 107.111754 31.710912 
L 110.243005 31.710912 
L 113.374257 31.710912 
L 116.505509 31.710912 
L 119.63676 31.710912 
L 122.768012 31.710912 
L 125.899264 31.710912 
L 129.030515 31.710912 
L 132.161767 31.710912 
L 135.293019 31.710912 
L 138.424271 31.710912 
L 141.555522 31.710912 
L 144.686774 31.710912 
L 147.818026 31.710912 
L 150.949277 31.710912 
L 154.080529 31.710912 
L 157.211781 31.710912 
L 160.343032 31.710912 
L 163.474284 31.710912 
L 166.605536 31.710912 
L 169.736788 31.710912 
L 172.868039 31.710912 
L 175.999291 36.5093 
L 179.130543 36.392116 
L 182.261794 36.274932 
L 185.393046 36.157747 
L 188.524298 36.040563 
L 191.655549 35.937085 
L 194.786801 35.845941 
L 197.918053 38.800468 
L 201.049304 38.641295 
L 204.180556 38.482121 
L 207.311808 38.329911 
L 210.44306 38.199432 
L 213.574311 38.068953 
L 216.705563 37.938474 
L 219.836815 37.810526 
L 222.968066 37.689666 
L 226.099318 37.580668 
L 229.23057 37.471669 
L 232.361821 37.365961 
L 235.493073 37.263541 
L 238.624325 37.161122 
L 241.755577 37.067599 
L 244.886828 36.978823 
L 248.01808 36.891691 
L 251.149332 36.80456 
L 254.280583 36.717429 
L 257.411835 36.639425 
L 260.543087 36.564344 
L 263.674338 36.489263 
L 266.80559 36.414464 
L 269.936842 36.343051 
L 273.068093 36.274485 
L 276.199345 36.209082 
L 279.330597 36.144511 
L 282.461849 36.082197 
L 285.5931 36.053221 
L 288.724352 35.991683 
L 291.855604 35.999475 
L 294.986855 37.142905 
L 298.118107 37.132765 
L 301.249359 37.059639 
L 304.38061 39.327655 
L 307.511862 39.263234 
L 310.643114 41.21624 
L 313.774366 41.271341 
L 316.905617 42.098851 
L 320.036869 42.057131 
L 323.168121 41.964146 
L 326.299372 41.873627 
L 329.430624 41.811217 
L 332.561876 42.574536 
L 335.693127 42.58107 
L 338.824379 44.364862 
L 341.955631 45.046762 
L 345.086882 45.150427 
L 348.218134 49.953679 
L 351.349386 49.87602 
L 354.480638 51.369617 
L 357.611889 63.794951 
L 360.743141 63.891567 
L 363.874393 66.242026 
L 367.005644 66.334183 
L 370.136896 70.856334 
L 373.268148 71.69927 
L 376.399399 96.179735 
L 379.530651 97.921692 
L 382.661903 99.010073 
L 385.793155 202.676644 
" style="fill:none;stroke:#0173b2;stroke-linecap:round;stroke-opacity:0.8;stroke-width:2;"/>
   </g>
   <g id="line2d_19">
    <path clip-path="url(#pf2867b156f)" d="M 75.799237 31.710912 
L 78.930488 62.622897 
L 82.06174 59.341737 
L 85.192992 56.790007 
L 88.324243 53.862 
L 91.455495 50.369846 
L 94.586747 48.673432 
L 97.717999 47.47741 
L 100.84925 46.57498 
L 103.980502 45.628532 
L 107.111754 44.440699 
L 110.243005 43.779003 
L 113.374257 43.501513 
L 116.505509 43.179186 
L 119.63676 43.250097 
L 122.768012 42.834029 
L 125.899264 42.236969 
L 129.030515 42.138932 
L 132.161767 41.905719 
L 135.293019 41.962305 
L 138.424271 41.599447 
L 141.555522 41.701139 
L 144.686774 42.33012 
L 147.818026 42.989164 
L 150.949277 43.269696 
L 154.080529 44.272154 
L 157.211781 44.618186 
L 160.343032 45.15871 
L 163.474284 46.150037 
L 166.605536 46.624039 
L 169.736788 49.525368 
L 172.868039 49.455303 
L 175.999291 49.799866 
L 179.130543 52.061617 
L 182.261794 52.310772 
L 185.393046 52.167543 
L 188.524298 51.948012 
L 191.655549 52.075055 
L 194.786801 51.980788 
L 197.918053 51.953184 
L 201.049304 52.447082 
L 204.180556 52.697442 
L 207.311808 52.861265 
L 210.44306 53.127491 
L 213.574311 53.071323 
L 216.705563 53.179395 
L 219.836815 53.274552 
L 222.968066 53.340959 
L 226.099318 56.178335 
L 229.23057 56.111329 
L 232.361821 57.108997 
L 235.493073 57.146582 
L 238.624325 57.503267 
L 241.755577 62.36744 
L 244.886828 62.18245 
L 248.01808 63.800673 
L 251.149332 63.765287 
L 254.280583 65.233426 
L 257.411835 64.993237 
L 260.543087 64.707495 
L 263.674338 65.186311 
L 266.80559 64.895655 
L 269.936842 65.916943 
L 273.068093 73.987442 
L 276.199345 73.617762 
L 279.330597 75.019085 
L 282.461849 74.669414 
L 285.5931 79.478088 
L 288.724352 79.083546 
L 291.855604 78.693418 
L 294.986855 78.906598 
L 298.118107 78.525553 
L 301.249359 78.707103 
L 304.38061 81.980403 
L 307.511862 81.619864 
L 310.643114 83.353385 
L 313.774366 82.992862 
L 316.905617 83.032916 
L 320.036869 82.67941 
L 323.168121 86.977094 
L 326.299372 87.739657 
L 329.430624 87.414671 
L 332.561876 89.447952 
L 335.693127 89.126378 
L 338.824379 91.83301 
L 341.955631 93.288754 
L 345.086882 92.973874 
L 348.218134 93.993862 
L 351.349386 93.698846 
L 354.480638 93.436063 
L 357.611889 96.283761 
L 360.743141 96.093275 
L 363.874393 96.836447 
L 367.005644 96.789983 
L 370.136896 104.756756 
L 373.268148 105.459241 
L 376.399399 137.769325 
L 379.530651 140.639465 
L 382.661903 146.507261 
L 385.793155 202.676644 
" style="fill:none;stroke:#d55e00;stroke-linecap:round;stroke-opacity:0.8;stroke-width:2;"/>
   </g>
   <g id="patch_3">
    <path d="M 50.299541 202.676644 
L 50.299541 31.710912 
" style="fill:none;stroke:#262626;stroke-linecap:square;stroke-linejoin:miter;"/>
   </g>
   <g id="patch_4">
    <path d="M 75.799237 221.22493 
L 385.793155 221.22493 
" style="fill:none;stroke:#262626;stroke-linecap:square;stroke-linejoin:miter;"/>
   </g>
   <g id="text_15">
    <!-- Precision Recall Curves -->
    <g style="fill:#262626;" transform="translate(158.338823 17.162625)scale(0.144 -0.144)">
     <defs>
      <path d="M 62.09375 67.984375 
C 62.09375 69.796875 62 69.890625 61.40625 69.890625 
C 61 69.890625 60.90625 69.796875 60.203125 68.59375 
L 55.796875 60.140625 
C 50.90625 66.390625 44.90625 70 37.203125 70 
C 20.09375 70 4.59375 54.796875 4.59375 34.046875 
C 4.59375 13.078125 20.09375 -2 37.296875 -2 
C 52.59375 -2 62.09375 11.578125 62.09375 23.15625 
C 62.09375 24.171875 62.09375 24.578125 61.203125 24.578125 
C 60.40625 24.578125 60.40625 24.265625 60.296875 23.359375 
C 59.5 9.25 49.5 0.59375 38.703125 0.59375 
C 28.5 0.59375 12.203125 7.84375 12.203125 34.046875 
C 12.203125 60.34375 28.796875 67.390625 38.5 67.390625 
C 49.796875 67.390625 58 57.515625 59.90625 43.515625 
C 60.09375 42.296875 60.09375 42.109375 61 42.109375 
C 62.09375 42.109375 62.09375 42.296875 62.09375 44.125 
z
" id="CMR17-67"/>
     </defs>
     <use transform="scale(0.996264)" xlink:href="#CMR17-80"/>
     <use transform="translate(62.586301 0)scale(0.996264)" xlink:href="#CMR17-114"/>
     <use transform="translate(97.867068 0)scale(0.996264)" xlink:href="#CMR17-101"/>
     <use transform="translate(138.352729 0)scale(0.996264)" xlink:href="#CMR17-99"/>
     <use transform="translate(178.838389 0)scale(0.996264)" xlink:href="#CMR17-105"/>
     <use transform="translate(203.709448 0)scale(0.996264)" xlink:href="#CMR17-115"/>
     <use transform="translate(239.510785 0)scale(0.996264)" xlink:href="#CMR17-105"/>
     <use transform="translate(264.381844 0)scale(0.996264)" xlink:href="#CMR17-111"/>
     <use transform="translate(310.072321 0)scale(0.996264)" xlink:href="#CMR17-110"/>
     <use transform="translate(391.043657 0)scale(0.996264)" xlink:href="#CMR17-82"/>
     <use transform="translate(458.834759 0)scale(0.996264)" xlink:href="#CMR17-101"/>
     <use transform="translate(499.32042 0)scale(0.996264)" xlink:href="#CMR17-99"/>
     <use transform="translate(539.80608 0)scale(0.996264)" xlink:href="#CMR17-97"/>
     <use transform="translate(585.496557 0)scale(0.996264)" xlink:href="#CMR17-108"/>
     <use transform="translate(610.367616 0)scale(0.996264)" xlink:href="#CMR17-108"/>
     <use transform="translate(665.31464 0)scale(0.996264)" xlink:href="#CMR17-67"/>
     <use transform="translate(731.824521 0)scale(0.996264)" xlink:href="#CMR17-117"/>
     <use transform="translate(782.719891 0)scale(0.996264)" xlink:href="#CMR17-114"/>
     <use transform="translate(818.000659 0)scale(0.996264)" xlink:href="#CMR17-118"/>
     <use transform="translate(863.69112 0)scale(0.996264)" xlink:href="#CMR17-101"/>
     <use transform="translate(904.176781 0)scale(0.996264)" xlink:href="#CMR17-115"/>
    </g>
   </g>
   <g id="legend_1">
    <g id="line2d_20">
     <path d="M 413.17285 36.911065 
L 439.57285 36.911065 
" style="fill:none;stroke:#0173b2;stroke-linecap:round;stroke-opacity:0.3;"/>
    </g>
    <g id="line2d_21"/>
    <g id="text_16">
     <!-- assembly (AP = 0.98) -->
     <g style="fill:#262626;" transform="translate(450.13285 41.531065)scale(0.132 -0.132)">
      <defs>
       <path d="M 67.59375 30.53125 
C 67.59375 35.5625 66.703125 44 54.796875 44 
C 48 44 43.296875 39.375 41.5 33.953125 
L 41.40625 33.953125 
C 40.203125 42.1875 34.296875 44 28.703125 44 
C 20.796875 44 16.703125 37.875 15.203125 33.84375 
L 15.09375 33.84375 
L 15.09375 44 
L 3.296875 42.890625 
L 3.296875 40.28125 
C 9.203125 40.28125 10.09375 39.6875 10.09375 34.859375 
L 10.09375 6.921875 
C 10.09375 3.09375 9.703125 2.59375 3.296875 2.59375 
L 3.296875 0 
C 5.703125 0.1875 10.09375 0.1875 12.703125 0.1875 
C 15.296875 0.1875 19.796875 0.1875 22.203125 0 
L 22.203125 2.59375 
C 15.796875 2.59375 15.40625 3 15.40625 6.921875 
L 15.40625 26.21875 
C 15.40625 35.453125 21 42.390625 28 42.390625 
C 35.40625 42.390625 36.203125 35.765625 36.203125 30.9375 
L 36.203125 6.921875 
C 36.203125 3.09375 35.796875 2.59375 29.40625 2.59375 
L 29.40625 0 
C 31.796875 0.1875 36.203125 0.1875 38.796875 0.1875 
C 41.40625 0.1875 45.90625 0.1875 48.296875 0 
L 48.296875 2.59375 
C 41.90625 2.59375 41.5 3 41.5 6.921875 
L 41.5 26.21875 
C 41.5 35.453125 47.09375 42.390625 54.09375 42.390625 
C 61.5 42.390625 62.296875 35.765625 62.296875 30.9375 
L 62.296875 6.921875 
C 62.296875 3.09375 61.90625 2.59375 55.5 2.59375 
L 55.5 0 
C 57.90625 0.1875 62.296875 0.1875 64.90625 0.1875 
C 67.5 0.1875 72 0.1875 74.40625 0 
L 74.40625 2.59375 
C 68 2.59375 67.59375 3 67.59375 6.921875 
z
" id="CMR17-109"/>
       <path d="M 39 34.109375 
C 41.5 40.296875 46 40.390625 47.40625 40.390625 
L 47.40625 43 
C 45.5 42.890625 43 42.796875 41.09375 42.796875 
C 39 42.796875 35.703125 42.796875 33.703125 43 
L 33.703125 40.390625 
C 37.5 40.09375 37.59375 37.25 37.59375 36.4375 
C 37.59375 35.4375 37.40625 34.921875 36.90625 33.71875 
L 26 6.390625 
L 14.09375 35.9375 
C 13.59375 37.15625 13.59375 37.859375 13.59375 37.96875 
C 13.59375 40.1875 15.90625 40.390625 18.296875 40.390625 
L 18.296875 43 
C 15.90625 42.796875 11.59375 42.796875 9.09375 42.796875 
C 6.40625 42.796875 3.203125 42.796875 1 43 
L 1 40.390625 
C 6.40625 40.390625 7 39.890625 8.296875 36.640625 
L 23.203125 -0.484375 
C 18.703125 -12.421875 16.09375 -19.40625 9.796875 -19.40625 
C 8.703125 -19.40625 6.203125 -19.109375 4.40625 -17.28125 
C 6.703125 -17.078125 7.703125 -15.65625 7.703125 -13.9375 
C 7.703125 -12.21875 6.5 -10.703125 4.5 -10.703125 
C 2.296875 -10.703125 1.203125 -12.21875 1.203125 -14.046875 
C 1.203125 -18.09375 5.296875 -21 9.796875 -21 
C 15.59375 -21 19.203125 -15.359375 21.203125 -10.296875 
z
" id="CMR17-121"/>
       <path d="M 36.296875 69.390625 
C 35.796875 70.6875 35.59375 71 34.59375 71 
C 33.59375 71 33.40625 70.6875 32.90625 69.390625 
L 11.703125 9.0625 
C 9.796875 3.6875 5.796875 2.59375 2.296875 2.59375 
L 2.296875 0 
C 4.09375 0.1875 8.09375 0.1875 10 0.1875 
C 12.5 0.1875 16.5 0.1875 18.90625 0 
L 18.90625 2.59375 
C 14.203125 2.796875 13.5 5.96875 13.5 7.171875 
C 13.5 8.0625 13.703125 8.5625 13.90625 9.15625 
L 19.203125 24 
L 45.40625 24 
L 51.40625 7.078125 
C 51.90625 5.875 51.90625 5.671875 51.90625 5.28125 
C 51.90625 2.59375 47.59375 2.59375 45.703125 2.59375 
L 45.703125 0 
C 48.59375 0.1875 53.796875 0.1875 56.90625 0.1875 
C 59.5 0.1875 64.5 0.1875 66.90625 0 
L 66.90625 2.59375 
C 61.59375 2.59375 59.796875 2.59375 58.5 6.28125 
z
M 32.296875 61.3125 
L 44.5 26.59375 
L 20.09375 26.59375 
z
" id="CMR17-65"/>
       <path d="M 64.296875 32 
C 65.796875 32 67.296875 32 67.296875 33.6875 
C 67.296875 35.5 65.59375 35.5 63.90625 35.5 
L 8 35.5 
C 6.296875 35.5 4.59375 35.5 4.59375 33.6875 
C 4.59375 32 6.09375 32 7.59375 32 
z
M 63.90625 14.484375 
C 65.59375 14.484375 67.296875 14.484375 67.296875 16.296875 
C 67.296875 18 65.796875 18 64.296875 18 
L 7.59375 18 
C 6.09375 18 4.59375 18 4.59375 16.296875 
C 4.59375 14.484375 6.296875 14.484375 8 14.484375 
z
" id="CMR17-61"/>
       <path d="M 16.59375 4.09375 
C 16.59375 6.59375 14.59375 8.1875 12.5 8.1875 
C 10.5 8.1875 8.40625 6.59375 8.40625 4.09375 
C 8.40625 1.59375 10.40625 0 12.5 0 
C 14.5 0 16.59375 1.59375 16.59375 4.09375 
z
" id="CMR17-46"/>
       <path d="M 35.203125 29.234375 
C 35.203125 7 26.09375 0.390625 18.59375 0.390625 
C 16.296875 0.390625 10.703125 0.671875 8.40625 4.390625 
C 11 4 12.90625 5.390625 12.90625 7.890625 
C 12.90625 10.59375 10.703125 11.5 9.296875 11.5 
C 8.40625 11.5 5.703125 11.09375 5.703125 7.6875 
C 5.703125 1.0625 11.59375 -2 18.796875 -2 
C 30.296875 -2 42 10.390625 42 32.65625 
C 42 60.265625 30.796875 66 23.203125 66 
C 13.296875 66 3.796875 57.25 3.796875 43.75 
C 3.796875 31.25 11.90625 22 22.09375 22 
C 30.5 22 34.203125 29.84375 35.203125 33.15625 
z
M 22.296875 23.59375 
C 19.59375 23.59375 15.796875 24.09375 12.703125 30.140625 
C 10.59375 34.078125 10.59375 38.703125 10.59375 43.640625 
C 10.59375 49.59375 10.59375 53.71875 13.40625 58.15625 
C 14.796875 60.265625 17.40625 63.6875 23.203125 63.6875 
C 35 63.6875 35 45.453125 35 41.421875 
C 35 34.265625 31.796875 23.59375 22.296875 23.59375 
z
" id="CMR17-57"/>
      </defs>
      <use transform="scale(0.996264)" xlink:href="#CMR17-97"/>
      <use transform="translate(45.690477 0)scale(0.996264)" xlink:href="#CMR17-115"/>
      <use transform="translate(81.491815 0)scale(0.996264)" xlink:href="#CMR17-115"/>
      <use transform="translate(117.293152 0)scale(0.996264)" xlink:href="#CMR17-101"/>
      <use transform="translate(157.778813 0)scale(0.996264)" xlink:href="#CMR17-109"/>
      <use transform="translate(232.095949 0)scale(0.996264)" xlink:href="#CMR17-98"/>
      <use transform="translate(282.991319 0)scale(0.996264)" xlink:href="#CMR17-108"/>
      <use transform="translate(307.862377 0)scale(0.996264)" xlink:href="#CMR17-121"/>
      <use transform="translate(386.231259 0)scale(0.996264)" xlink:href="#CMR17-40"/>
      <use transform="translate(421.512027 0)scale(0.996264)" xlink:href="#CMR17-65"/>
      <use transform="translate(490.584457 0)scale(0.996264)" xlink:href="#CMR17-80"/>
      <use transform="translate(583.246724 0)scale(0.996264)" xlink:href="#CMR17-61"/>
      <use transform="translate(685.037478 0)scale(0.996264)" xlink:href="#CMR17-48"/>
      <use transform="translate(730.727956 0)scale(0.996264)" xlink:href="#CMR17-46"/>
      <use transform="translate(755.599014 0)scale(0.996264)" xlink:href="#CMR17-57"/>
      <use transform="translate(801.289491 0)scale(0.996264)" xlink:href="#CMR17-56"/>
      <use transform="translate(846.979968 0)scale(0.996264)" xlink:href="#CMR17-41"/>
     </g>
    </g>
    <g id="line2d_22">
     <path d="M 413.17285 56.828662 
L 439.57285 56.828662 
" style="fill:none;stroke:#de8f05;stroke-linecap:round;stroke-opacity:0.3;"/>
    </g>
    <g id="line2d_23"/>
    <g id="text_17">
     <!-- dual (AP = 0.94) -->
     <g style="fill:#262626;" transform="translate(450.13285 61.448662)scale(0.132 -0.132)">
      <defs>
       <path d="M 29.203125 67.890625 
L 29.203125 65.296875 
C 35.09375 65.296875 36 64.703125 36 60.046875 
L 36 37.046875 
C 35.59375 37.546875 31.5 44 23.40625 44 
C 13.203125 44 3.296875 34.8125 3.296875 21.5 
C 3.296875 8.265625 12.59375 -1 22.40625 -1 
C 30.90625 -1 35.296875 5.640625 35.796875 6.34375 
L 35.796875 -1 
L 47.90625 -0.203125 
L 47.90625 2.40625 
C 42 2.40625 41.09375 3.015625 41.09375 7.859375 
L 41.09375 69 
z
M 35.796875 11.90625 
C 35.796875 8.875 34 6.140625 31.703125 4.125 
C 28.296875 1.09375 24.90625 0.59375 23 0.59375 
C 20.09375 0.59375 9.703125 2.109375 9.703125 21.390625 
C 9.703125 41.1875 21.296875 42.390625 23.90625 42.390625 
C 28.5 42.390625 32.203125 39.765625 34.5 36.140625 
C 35.796875 34.015625 35.796875 33.703125 35.796875 31.890625 
z
" id="CMR17-100"/>
      </defs>
      <use transform="scale(0.996264)" xlink:href="#CMR17-100"/>
      <use transform="translate(50.89537 0)scale(0.996264)" xlink:href="#CMR17-117"/>
      <use transform="translate(101.79074 0)scale(0.996264)" xlink:href="#CMR17-97"/>
      <use transform="translate(147.481217 0)scale(0.996264)" xlink:href="#CMR17-108"/>
      <use transform="translate(202.428242 0)scale(0.996264)" xlink:href="#CMR17-40"/>
      <use transform="translate(237.709009 0)scale(0.996264)" xlink:href="#CMR17-65"/>
      <use transform="translate(306.781439 0)scale(0.996264)" xlink:href="#CMR17-80"/>
      <use transform="translate(399.443706 0)scale(0.996264)" xlink:href="#CMR17-61"/>
      <use transform="translate(501.234461 0)scale(0.996264)" xlink:href="#CMR17-48"/>
      <use transform="translate(546.924938 0)scale(0.996264)" xlink:href="#CMR17-46"/>
      <use transform="translate(571.795996 0)scale(0.996264)" xlink:href="#CMR17-57"/>
      <use transform="translate(617.486473 0)scale(0.996264)" xlink:href="#CMR17-52"/>
      <use transform="translate(663.176951 0)scale(0.996264)" xlink:href="#CMR17-41"/>
     </g>
    </g>
    <g id="line2d_24">
     <path d="M 413.17285 76.746258 
L 439.57285 76.746258 
" style="fill:none;stroke:#029e73;stroke-linecap:round;stroke-opacity:0.3;"/>
    </g>
    <g id="line2d_25"/>
    <g id="text_18">
     <!-- gis (AP = 0.97) -->
     <g style="fill:#262626;" transform="translate(450.13285 81.366258)scale(0.132 -0.132)">
      <defs>
       <path d="M 11.09375 18.203125 
C 13 16.6875 16.296875 15 20.296875 15 
C 28.203125 15 35 21.234375 35 29.609375 
C 35 32.234375 34.203125 36.265625 31.203125 39.390625 
C 34 42.390625 38.09375 43.390625 40.40625 43.390625 
C 40.796875 43.390625 41.40625 43.390625 41.90625 43.09375 
C 41.5 42.984375 40.59375 42.59375 40.59375 40.984375 
C 40.59375 39.6875 41.5 38.796875 42.796875 38.796875 
C 44.296875 38.796875 45.09375 39.796875 45.09375 41.09375 
C 45.09375 42.984375 43.59375 45 40.40625 45 
C 36.40625 45 32.90625 43.09375 30.09375 40.484375 
C 27.09375 43.1875 23.5 44.1875 20.296875 44.1875 
C 12.40625 44.1875 5.59375 37.984375 5.59375 29.609375 
C 5.59375 23.859375 8.90625 20.21875 9.90625 19.21875 
C 6.90625 15.6875 6.90625 11.59375 6.90625 11.09375 
C 6.90625 8.5 7.90625 4.6875 11.296875 2.59375 
C 6.09375 1.28125 2 -2.875 2 -8.078125 
C 2 -15.5625 11.5 -21 22.90625 -21 
C 33.90625 -21 43.796875 -15.765625 43.796875 -7.96875 
C 43.796875 6 29 6 21.296875 6 
C 19 6 14.90625 6 14.40625 6.09375 
C 11.296875 6.59375 9.203125 9.390625 9.203125 12.890625 
C 9.203125 13.796875 9.203125 16 11.09375 18.203125 
z
M 20.296875 16.6875 
C 11.5 16.6875 11.5 27.59375 11.5 29.609375 
C 11.5 31.625 11.5 42.484375 20.296875 42.484375 
C 29.09375 42.484375 29.09375 31.625 29.09375 29.609375 
C 29.09375 27.59375 29.09375 16.6875 20.296875 16.6875 
z
M 22.90625 -19.3125 
C 12.90625 -19.3125 6 -13.796875 6 -8.078125 
C 6 -4.859375 7.703125 -1.84375 9.90625 -0.171875 
C 12.40625 1.59375 13.40625 1.59375 20.203125 1.59375 
C 28.40625 1.59375 39.796875 1.59375 39.796875 -8.078125 
C 39.796875 -13.796875 32.90625 -19.3125 22.90625 -19.3125 
z
" id="CMR17-103"/>
       <path d="M 45.09375 61.796875 
L 45.09375 64 
L 21.59375 64 
C 9.90625 64 9.703125 65.09375 9.296875 67 
L 7.5 67 
L 4.59375 48.5 
L 6.40625 48.5 
C 6.703125 50.40625 7.40625 55.5 8.59375 57.390625 
C 9.203125 58.1875 16.59375 58.1875 18.296875 58.1875 
L 40.296875 58.1875 
L 29.203125 41.71875 
C 21.796875 30.640625 16.703125 15.671875 16.703125 2.59375 
C 16.703125 1.390625 16.703125 -2 20.296875 -2 
C 23.90625 -2 23.90625 1.390625 23.90625 2.6875 
L 23.90625 7.28125 
C 23.90625 23.65625 26.703125 34.4375 31.296875 41.3125 
z
" id="CMR17-55"/>
      </defs>
      <use transform="scale(0.996264)" xlink:href="#CMR17-103"/>
      <use transform="translate(45.690477 0)scale(0.996264)" xlink:href="#CMR17-105"/>
      <use transform="translate(70.561536 0)scale(0.996264)" xlink:href="#CMR17-115"/>
      <use transform="translate(136.43884 0)scale(0.996264)" xlink:href="#CMR17-40"/>
      <use transform="translate(171.719607 0)scale(0.996264)" xlink:href="#CMR17-65"/>
      <use transform="translate(240.792037 0)scale(0.996264)" xlink:href="#CMR17-80"/>
      <use transform="translate(333.454304 0)scale(0.996264)" xlink:href="#CMR17-61"/>
      <use transform="translate(435.245059 0)scale(0.996264)" xlink:href="#CMR17-48"/>
      <use transform="translate(480.935536 0)scale(0.996264)" xlink:href="#CMR17-46"/>
      <use transform="translate(505.806594 0)scale(0.996264)" xlink:href="#CMR17-57"/>
      <use transform="translate(551.497072 0)scale(0.996264)" xlink:href="#CMR17-55"/>
      <use transform="translate(597.187549 0)scale(0.996264)" xlink:href="#CMR17-41"/>
     </g>
    </g>
    <g id="line2d_26">
     <path d="M 413.17285 96.663855 
L 439.57285 96.663855 
" style="fill:none;stroke:#d55e00;stroke-linecap:round;stroke-opacity:0.3;"/>
    </g>
    <g id="line2d_27"/>
    <g id="text_19">
     <!-- hmp (AP = 0.91) -->
     <g style="fill:#262626;" transform="translate(450.13285 101.283855)scale(0.132 -0.132)">
      <defs>
       <path d="M 41.5 30.53125 
C 41.5 35.65625 40.5 44 28.703125 44 
C 20.5 44 16.5 37.375 15.296875 34.046875 
L 15.203125 34.046875 
L 15.203125 69 
L 3.296875 67.890625 
L 3.296875 65.296875 
C 9.203125 65.296875 10.09375 64.703125 10.09375 60.046875 
L 10.09375 6.921875 
C 10.09375 3.09375 9.703125 2.59375 3.296875 2.59375 
L 3.296875 0 
C 5.703125 0.1875 10.09375 0.1875 12.703125 0.1875 
C 15.296875 0.1875 19.796875 0.1875 22.203125 0 
L 22.203125 2.59375 
C 15.796875 2.59375 15.40625 3 15.40625 6.921875 
L 15.40625 26.21875 
C 15.40625 35.453125 21 42.390625 28 42.390625 
C 35.40625 42.390625 36.203125 35.765625 36.203125 30.9375 
L 36.203125 6.921875 
C 36.203125 3.09375 35.796875 2.59375 29.40625 2.59375 
L 29.40625 0 
C 31.796875 0.1875 36.203125 0.1875 38.796875 0.1875 
C 41.40625 0.1875 45.90625 0.1875 48.296875 0 
L 48.296875 2.59375 
C 41.90625 2.59375 41.5 3 41.5 6.921875 
z
" id="CMR17-104"/>
       <path d="M 22 -17.40625 
C 15.59375 -17.40625 15.203125 -17 15.203125 -13.03125 
L 15.203125 5.9375 
C 18.09375 1.703125 22.296875 -1 27.59375 -1 
C 37.59375 -1 47.703125 7.859375 47.703125 21.59375 
C 47.703125 34.3125 39 44 28.703125 44 
C 22.703125 44 17.796875 40.671875 15 36.640625 
L 15 44 
L 3.09375 42.890625 
L 3.09375 40.265625 
C 9 40.265625 9.90625 39.671875 9.90625 34.8125 
L 9.90625 -13.03125 
C 9.90625 -16.890625 9.5 -17.40625 3.09375 -17.40625 
L 3.09375 -20 
C 5.5 -19.8125 9.90625 -19.8125 12.5 -19.8125 
C 15.09375 -19.8125 19.59375 -19.8125 22 -20 
z
M 15.203125 31.484375 
C 15.203125 32.90625 15.203125 35.015625 19.09375 38.765625 
C 19.59375 39.15625 23 42.1875 28 42.1875 
C 35.296875 42.1875 41.296875 33 41.296875 21.5 
C 41.296875 9.984375 34.90625 0.59375 27 0.59375 
C 23.40625 0.59375 19.5 2.3125 16.5 7.046875 
C 15.203125 9.28125 15.203125 9.875 15.203125 11.5 
z
" id="CMR17-112"/>
      </defs>
      <use transform="scale(0.996264)" xlink:href="#CMR17-104"/>
      <use transform="translate(50.89537 0)scale(0.996264)" xlink:href="#CMR17-109"/>
      <use transform="translate(127.81496 0)scale(0.996264)" xlink:href="#CMR17-112"/>
      <use transform="translate(208.786296 0)scale(0.996264)" xlink:href="#CMR17-40"/>
      <use transform="translate(244.067064 0)scale(0.996264)" xlink:href="#CMR17-65"/>
      <use transform="translate(313.139493 0)scale(0.996264)" xlink:href="#CMR17-80"/>
      <use transform="translate(405.80176 0)scale(0.996264)" xlink:href="#CMR17-61"/>
      <use transform="translate(507.592515 0)scale(0.996264)" xlink:href="#CMR17-48"/>
      <use transform="translate(553.282992 0)scale(0.996264)" xlink:href="#CMR17-46"/>
      <use transform="translate(578.154051 0)scale(0.996264)" xlink:href="#CMR17-57"/>
      <use transform="translate(623.844528 0)scale(0.996264)" xlink:href="#CMR17-49"/>
      <use transform="translate(669.535005 0)scale(0.996264)" xlink:href="#CMR17-41"/>
     </g>
    </g>
    <g id="line2d_28">
     <path d="M 413.17285 116.581451 
L 439.57285 116.581451 
" style="fill:none;stroke:#cc78bc;stroke-linecap:round;stroke-opacity:0.3;"/>
    </g>
    <g id="line2d_29"/>
    <g id="text_20">
     <!-- mbarc (AP = 0.94) -->
     <g style="fill:#262626;" transform="translate(450.13285 121.201451)scale(0.132 -0.132)">
      <use transform="scale(0.996264)" xlink:href="#CMR17-109"/>
      <use transform="translate(74.317136 0)scale(0.996264)" xlink:href="#CMR17-98"/>
      <use transform="translate(125.212506 0)scale(0.996264)" xlink:href="#CMR17-97"/>
      <use transform="translate(170.902983 0)scale(0.996264)" xlink:href="#CMR17-114"/>
      <use transform="translate(206.183751 0)scale(0.996264)" xlink:href="#CMR17-99"/>
      <use transform="translate(276.745377 0)scale(0.996264)" xlink:href="#CMR17-40"/>
      <use transform="translate(312.026145 0)scale(0.996264)" xlink:href="#CMR17-65"/>
      <use transform="translate(381.098575 0)scale(0.996264)" xlink:href="#CMR17-80"/>
      <use transform="translate(473.760842 0)scale(0.996264)" xlink:href="#CMR17-61"/>
      <use transform="translate(575.551597 0)scale(0.996264)" xlink:href="#CMR17-48"/>
      <use transform="translate(621.242074 0)scale(0.996264)" xlink:href="#CMR17-46"/>
      <use transform="translate(646.113132 0)scale(0.996264)" xlink:href="#CMR17-57"/>
      <use transform="translate(691.803609 0)scale(0.996264)" xlink:href="#CMR17-52"/>
      <use transform="translate(737.494087 0)scale(0.996264)" xlink:href="#CMR17-41"/>
     </g>
    </g>
    <g id="line2d_30">
     <path d="M 413.17285 136.499048 
L 439.57285 136.499048 
" style="fill:none;stroke:#0173b2;stroke-linecap:round;stroke-opacity:0.8;stroke-width:2;"/>
    </g>
    <g id="line2d_31"/>
    <g id="text_21">
     <!-- Mean PR (AP = 0.95 $\pm$ 0.03) -->
     <g style="fill:#262626;" transform="translate(450.13285 141.119048)scale(0.132 -0.132)">
      <defs>
       <path d="M 20.90625 66.390625 
C 20.296875 67.890625 20.203125 68 18.09375 68 
L 5.296875 68 
L 5.296875 65.390625 
C 12.203125 65.390625 13.296875 65.390625 13.296875 60.90625 
L 13.296875 9.75 
C 13.296875 7.265625 13.296875 2.59375 5.296875 2.59375 
L 5.296875 0 
C 7.59375 0.1875 11.796875 0.1875 14.296875 0.1875 
C 16.796875 0.1875 21 0.1875 23.296875 0 
L 23.296875 2.59375 
C 15.296875 2.59375 15.296875 7.265625 15.296875 9.75 
L 15.296875 64.984375 
L 15.40625 64.984375 
L 38.90625 1.59375 
C 39.296875 0.59375 39.5 0 40.296875 0 
C 41.09375 0 41.296875 0.59375 41.703125 1.59375 
L 65.40625 65.484375 
L 65.5 65.484375 
L 65.5 7.078125 
C 65.5 2.59375 64.40625 2.59375 57.5 2.59375 
L 57.5 0 
C 60.203125 0.1875 65.59375 0.1875 68.5 0.1875 
C 71.40625 0.1875 76.90625 0.1875 79.59375 0 
L 79.59375 2.59375 
C 72.703125 2.59375 71.59375 2.59375 71.59375 7.078125 
L 71.59375 60.90625 
C 71.59375 65.390625 72.703125 65.390625 79.59375 65.390625 
L 79.59375 68 
L 66.90625 68 
C 64.796875 68 64.703125 67.890625 64.09375 66.390625 
L 42.5 8.0625 
z
" id="CMR17-77"/>
       <path d="M 11.40625 58.59375 
C 12.40625 58.1875 16.5 56.890625 20.703125 56.890625 
C 30 56.890625 35.09375 61.890625 38 64.6875 
C 38 65.484375 38 66 37.40625 66 
C 37.296875 66 37.09375 66 36.296875 65.59375 
C 32.796875 64.09375 28.703125 63 23.703125 63 
C 20.703125 63 16.203125 63.359375 11.296875 65.484375 
C 10.203125 66 10 66 9.90625 66 
C 9.40625 66 9.296875 65.890625 9.296875 63.90625 
L 9.296875 34.859375 
C 9.296875 33.015625 9.296875 32.5 10.296875 32.5 
C 10.796875 32.5 11 32.703125 11.5 33.421875 
C 14.703125 38.046875 19.09375 40 24.09375 40 
C 27.59375 40 35.09375 37.734375 35.09375 20.203125 
C 35.09375 16.984375 35.09375 11.1875 32.09375 6.59375 
C 29.59375 2.484375 25.703125 0.390625 21.40625 0.390625 
C 14.796875 0.390625 8.09375 4.984375 6.296875 12.6875 
C 6.703125 12.59375 7.5 12.390625 7.90625 12.390625 
C 9.203125 12.390625 11.703125 13.09375 11.703125 16.1875 
C 11.703125 18.890625 9.796875 20 7.90625 20 
C 5.59375 20 4.09375 18.59375 4.09375 15.796875 
C 4.09375 7.09375 11 -2 21.59375 -2 
C 31.90625 -2 41.703125 6.890625 41.703125 19.796875 
C 41.703125 32.09375 33.90625 41.59375 24.203125 41.59375 
C 19.09375 41.59375 14.796875 39.6875 11.40625 36 
z
" id="CMR17-53"/>
       <path d="M 40.90625 31 
L 68.703125 31 
C 70.40625 31 72.203125 31 72.203125 33 
C 72.203125 35 70.40625 35 68.703125 35 
L 40.90625 35 
L 40.90625 63.25 
C 40.90625 64.890625 40.90625 67 38.90625 67 
C 36.90625 67 36.90625 65.1875 36.90625 63.5625 
L 36.90625 35 
L 9 35 
C 7.296875 35 5.5 35 5.5 33 
C 5.5 31 7.296875 31 9 31 
L 36.90625 31 
L 36.90625 4 
L 9 4 
C 7.296875 4 5.5 4 5.5 2 
C 5.5 0 7.296875 0 9 0 
L 68.703125 0 
C 70.40625 0 72.203125 0 72.203125 2 
C 72.203125 4 70.40625 4 68.703125 4 
L 40.90625 4 
z
" id="CMSY10-6"/>
       <path d="M 22.09375 34 
C 31 34 34.90625 26.140625 34.90625 17.09375 
C 34.90625 5.03125 28.5 0.390625 22.703125 0.390625 
C 17.40625 0.390625 8.796875 3.015625 6.09375 10.796875 
C 6.59375 10.59375 7.09375 10.59375 7.59375 10.59375 
C 10 10.59375 11.796875 12.1875 11.796875 14.796875 
C 11.796875 17.6875 9.59375 19 7.59375 19 
C 5.90625 19 3.296875 18.1875 3.296875 14.484375 
C 3.296875 5.234375 12.296875 -2 22.90625 -2 
C 34 -2 42.5 6.75 42.5 16.984375 
C 42.5 26.84375 34.5 34 25 35.09375 
C 32.59375 36.671875 39.90625 43.375 39.90625 52.390625 
C 39.90625 60.25 32 66 23 66 
C 13.90625 66 5.90625 60.34375 5.90625 52.296875 
C 5.90625 48.796875 8.5 48.1875 9.796875 48.1875 
C 11.90625 48.1875 13.703125 49.484375 13.703125 52.09375 
C 13.703125 54.6875 11.90625 56 9.796875 56 
C 9.40625 56 8.90625 56 8.5 55.796875 
C 11.40625 62.484375 19.296875 63.6875 22.796875 63.6875 
C 26.296875 63.6875 32.90625 61.96875 32.90625 52.296875 
C 32.90625 49.484375 32.5 44.546875 29.09375 40.21875 
C 26.09375 36.390625 22.703125 36.1875 19.40625 35.890625 
C 18.90625 35.890625 16.59375 35.6875 16.203125 35.6875 
C 15.5 35.59375 15.09375 35.5 15.09375 34.796875 
C 15.09375 34.09375 15.203125 34 17.203125 34 
z
" id="CMR17-51"/>
      </defs>
      <use transform="scale(0.996264)" xlink:href="#CMR17-77"/>
      <use transform="translate(84.686941 0)scale(0.996264)" xlink:href="#CMR17-101"/>
      <use transform="translate(125.172601 0)scale(0.996264)" xlink:href="#CMR17-97"/>
      <use transform="translate(170.863078 0)scale(0.996264)" xlink:href="#CMR17-110"/>
      <use transform="translate(251.834414 0)scale(0.996264)" xlink:href="#CMR17-80"/>
      <use transform="translate(314.420715 0)scale(0.996264)" xlink:href="#CMR17-82"/>
      <use transform="translate(412.287783 0)scale(0.996264)" xlink:href="#CMR17-40"/>
      <use transform="translate(447.568551 0)scale(0.996264)" xlink:href="#CMR17-65"/>
      <use transform="translate(516.640981 0)scale(0.996264)" xlink:href="#CMR17-80"/>
      <use transform="translate(609.303248 0)scale(0.996264)" xlink:href="#CMR17-61"/>
      <use transform="translate(711.094002 0)scale(0.996264)" xlink:href="#CMR17-48"/>
      <use transform="translate(756.784479 0)scale(0.996264)" xlink:href="#CMR17-46"/>
      <use transform="translate(781.655538 0)scale(0.996264)" xlink:href="#CMR17-57"/>
      <use transform="translate(827.346015 0)scale(0.996264)" xlink:href="#CMR17-53"/>
      <use transform="translate(903.112459 0)scale(0.996264)" xlink:href="#CMSY10-6"/>
      <use transform="translate(1010.675893 0)scale(0.996264)" xlink:href="#CMR17-48"/>
      <use transform="translate(1056.36637 0)scale(0.996264)" xlink:href="#CMR17-46"/>
      <use transform="translate(1081.237428 0)scale(0.996264)" xlink:href="#CMR17-48"/>
      <use transform="translate(1126.927905 0)scale(0.996264)" xlink:href="#CMR17-51"/>
      <use transform="translate(1172.618382 0)scale(0.996264)" xlink:href="#CMR17-41"/>
     </g>
    </g>
    <g id="line2d_32">
     <path d="M 413.17285 156.416645 
L 439.57285 156.416645 
" style="fill:none;stroke:#d55e00;stroke-linecap:round;stroke-opacity:0.8;stroke-width:2;"/>
    </g>
    <g id="line2d_33"/>
    <g id="text_22">
     <!-- Baseline Mean PR (AP = 0.80 $\pm$ 0.13) -->
     <g style="fill:#262626;" transform="translate(450.13285 161.036645)scale(0.132 -0.132)">
      <defs>
       <path d="M 5.203125 68 
L 5.203125 65.390625 
C 12.09375 65.390625 13.203125 65.390625 13.203125 60.890625 
L 13.203125 7.046875 
C 13.203125 2.59375 12.09375 2.59375 5.203125 2.59375 
L 5.203125 0 
L 39.59375 0 
C 52.40625 0 60.703125 9.03125 60.703125 18.046875 
C 60.703125 26.96875 52.5 34.59375 41.796875 35.296875 
C 51.40625 37.1875 58.09375 43.59375 58.09375 51.1875 
C 58.09375 59.5 49.90625 68 37 68 
z
M 19.5 36 
L 19.5 61.5 
C 19.5 64.890625 19.703125 65.390625 23.703125 65.390625 
L 36.5 65.390625 
C 46.40625 65.390625 50.796875 57.390625 50.796875 51.1875 
C 50.796875 43.59375 44.703125 36 33.90625 36 
z
M 23.703125 2.59375 
C 19.703125 2.59375 19.5 3.09375 19.5 6.453125 
L 19.5 34.390625 
L 38 34.390625 
C 48.296875 34.390625 53.296875 25.375 53.296875 18.140625 
C 53.296875 10.90625 47.59375 2.59375 36.703125 2.59375 
z
" id="CMR17-66"/>
      </defs>
      <use transform="scale(0.996264)" xlink:href="#CMR17-66"/>
      <use transform="translate(65.188754 0)scale(0.996264)" xlink:href="#CMR17-97"/>
      <use transform="translate(110.879232 0)scale(0.996264)" xlink:href="#CMR17-115"/>
      <use transform="translate(146.680569 0)scale(0.996264)" xlink:href="#CMR17-101"/>
      <use transform="translate(187.16623 0)scale(0.996264)" xlink:href="#CMR17-108"/>
      <use transform="translate(212.037288 0)scale(0.996264)" xlink:href="#CMR17-105"/>
      <use transform="translate(236.908347 0)scale(0.996264)" xlink:href="#CMR17-110"/>
      <use transform="translate(287.803716 0)scale(0.996264)" xlink:href="#CMR17-101"/>
      <use transform="translate(358.365343 0)scale(0.996264)" xlink:href="#CMR17-77"/>
      <use transform="translate(443.052284 0)scale(0.996264)" xlink:href="#CMR17-101"/>
      <use transform="translate(483.537944 0)scale(0.996264)" xlink:href="#CMR17-97"/>
      <use transform="translate(529.228421 0)scale(0.996264)" xlink:href="#CMR17-110"/>
      <use transform="translate(610.199758 0)scale(0.996264)" xlink:href="#CMR17-80"/>
      <use transform="translate(672.786058 0)scale(0.996264)" xlink:href="#CMR17-82"/>
      <use transform="translate(770.653126 0)scale(0.996264)" xlink:href="#CMR17-40"/>
      <use transform="translate(805.933894 0)scale(0.996264)" xlink:href="#CMR17-65"/>
      <use transform="translate(875.006324 0)scale(0.996264)" xlink:href="#CMR17-80"/>
      <use transform="translate(967.668591 0)scale(0.996264)" xlink:href="#CMR17-61"/>
      <use transform="translate(1069.459346 0)scale(0.996264)" xlink:href="#CMR17-48"/>
      <use transform="translate(1115.149823 0)scale(0.996264)" xlink:href="#CMR17-46"/>
      <use transform="translate(1140.020881 0)scale(0.996264)" xlink:href="#CMR17-56"/>
      <use transform="translate(1185.711358 0)scale(0.996264)" xlink:href="#CMR17-48"/>
      <use transform="translate(1261.477802 0)scale(0.996264)" xlink:href="#CMSY10-6"/>
      <use transform="translate(1369.041236 0)scale(0.996264)" xlink:href="#CMR17-48"/>
      <use transform="translate(1414.731713 0)scale(0.996264)" xlink:href="#CMR17-46"/>
      <use transform="translate(1439.602771 0)scale(0.996264)" xlink:href="#CMR17-49"/>
      <use transform="translate(1485.293248 0)scale(0.996264)" xlink:href="#CMR17-51"/>
      <use transform="translate(1530.983726 0)scale(0.996264)" xlink:href="#CMR17-41"/>
     </g>
    </g>
    <g id="patch_5">
     <path d="M 413.17285 180.954241 
L 439.57285 180.954241 
L 439.57285 171.714241 
L 413.17285 171.714241 
z
" style="fill:#808080;opacity:0.2;stroke:#808080;stroke-linejoin:miter;stroke-width:0.8;"/>
    </g>
    <g id="text_23">
     <!-- $\pm$ 1 std. dev. -->
     <g style="fill:#262626;" transform="translate(450.13285 180.954241)scale(0.132 -0.132)">
      <use transform="scale(0.996264)" xlink:href="#CMSY10-6"/>
      <use transform="translate(107.563434 0)scale(0.996264)" xlink:href="#CMR17-49"/>
      <use transform="translate(183.329877 0)scale(0.996264)" xlink:href="#CMR17-115"/>
      <use transform="translate(219.131215 0)scale(0.996264)" xlink:href="#CMR17-116"/>
      <use transform="translate(254.411983 0)scale(0.996264)" xlink:href="#CMR17-100"/>
      <use transform="translate(305.307353 0)scale(0.996264)" xlink:href="#CMR17-46"/>
      <use transform="translate(370.664072 0)scale(0.996264)" xlink:href="#CMR17-100"/>
      <use transform="translate(421.559441 0)scale(0.996264)" xlink:href="#CMR17-101"/>
      <use transform="translate(462.045102 0)scale(0.996264)" xlink:href="#CMR17-118"/>
      <use transform="translate(510.338018 0)scale(0.996264)" xlink:href="#CMR17-46"/>
     </g>
    </g>
    <g id="patch_6">
     <path d="M 413.17285 200.329366 
L 439.57285 200.329366 
L 439.57285 191.089366 
L 413.17285 191.089366 
z
" style="fill:#808080;opacity:0.2;stroke:#808080;stroke-linejoin:miter;stroke-width:0.8;"/>
    </g>
    <g id="text_24">
     <!-- $\pm$ 1 std. dev. -->
     <g style="fill:#262626;" transform="translate(450.13285 200.329366)scale(0.132 -0.132)">
      <use transform="scale(0.996264)" xlink:href="#CMSY10-6"/>
      <use transform="translate(107.563434 0)scale(0.996264)" xlink:href="#CMR17-49"/>
      <use transform="translate(183.329877 0)scale(0.996264)" xlink:href="#CMR17-115"/>
      <use transform="translate(219.131215 0)scale(0.996264)" xlink:href="#CMR17-116"/>
      <use transform="translate(254.411983 0)scale(0.996264)" xlink:href="#CMR17-100"/>
      <use transform="translate(305.307353 0)scale(0.996264)" xlink:href="#CMR17-46"/>
      <use transform="translate(370.664072 0)scale(0.996264)" xlink:href="#CMR17-100"/>
      <use transform="translate(421.559441 0)scale(0.996264)" xlink:href="#CMR17-101"/>
      <use transform="translate(462.045102 0)scale(0.996264)" xlink:href="#CMR17-118"/>
      <use transform="translate(510.338018 0)scale(0.996264)" xlink:href="#CMR17-46"/>
     </g>
    </g>
   </g>
  </g>
 </g>
 <defs>
  <clipPath id="pf2867b156f">
   <rect height="188.062305" width="340.99331" x="60.299541" y="23.162625"/>
  </clipPath>
 </defs>
</svg>
