<?xml version="1.0" encoding="utf-8" standalone="no"?>
<!DOCTYPE svg PUBLIC "-//W3C//DTD SVG 1.1//EN"
  "http://www.w3.org/Graphics/SVG/1.1/DTD/svg11.dtd">
<!-- Created with matplotlib (https://matplotlib.org/) -->
<svg height="271.618942pt" version="1.1" viewBox="0 0 686.678815 271.618942" width="686.678815pt" xmlns="http://www.w3.org/2000/svg" xmlns:xlink="http://www.w3.org/1999/xlink">
 <metadata>
  <rdf:RDF xmlns:cc="http://creativecommons.org/ns#" xmlns:dc="http://purl.org/dc/elements/1.1/" xmlns:rdf="http://www.w3.org/1999/02/22-rdf-syntax-ns#">
   <cc:Work>
    <dc:type rdf:resource="http://purl.org/dc/dcmitype/StillImage"/>
    <dc:date>2021-06-24T20:24:13.330521</dc:date>
    <dc:format>image/svg+xml</dc:format>
    <dc:creator>
     <cc:Agent>
      <dc:title>Matplotlib v3.3.4, https://matplotlib.org/</dc:title>
     </cc:Agent>
    </dc:creator>
   </cc:Work>
  </rdf:RDF>
 </metadata>
 <defs>
  <style type="text/css">*{stroke-linecap:butt;stroke-linejoin:round;}</style>
 </defs>
 <g id="figure_1">
  <g id="patch_1">
   <path d="M 0 271.618942 
L 686.678815 271.618942 
L 686.678815 0 
L 0 0 
z
" style="fill:#ffffff;"/>
  </g>
  <g id="axes_1">
   <g id="patch_2">
    <path d="M 43.83625 232.762692 
L 406.358815 232.762692 
L 406.358815 22.318125 
L 43.83625 22.318125 
z
" style="fill:#ffffff;"/>
   </g>
   <g id="matplotlib.axis_1">
    <g id="xtick_1">
     <g id="line2d_1">
      <path clip-path="url(#p178812068b)" d="M 60.314548 232.762692 
L 60.314548 22.318125 
" style="fill:none;stroke:#cccccc;stroke-dasharray:0.8,1.32;stroke-dashoffset:0;stroke-width:0.8;"/>
     </g>
     <g id="line2d_2">
      <defs>
       <path d="M 0 0 
L 0 4.8 
" id="m54eb0aaf90" style="stroke:#262626;stroke-width:0.6;"/>
      </defs>
      <g>
       <use style="fill:#262626;stroke:#262626;stroke-width:0.6;" x="60.314548" xlink:href="#m54eb0aaf90" y="232.762692"/>
      </g>
     </g>
     <g id="text_1">
      <!-- 0.0 -->
      <g style="fill:#262626;" transform="translate(53.953298 247.141442)scale(0.08 -0.08)">
       <defs>
        <path d="M 31.78125 66.40625 
Q 24.171875 66.40625 20.328125 58.90625 
Q 16.5 51.421875 16.5 36.375 
Q 16.5 21.390625 20.328125 13.890625 
Q 24.171875 6.390625 31.78125 6.390625 
Q 39.453125 6.390625 43.28125 13.890625 
Q 47.125 21.390625 47.125 36.375 
Q 47.125 51.421875 43.28125 58.90625 
Q 39.453125 66.40625 31.78125 66.40625 
z
M 31.78125 74.21875 
Q 44.046875 74.21875 50.515625 64.515625 
Q 56.984375 54.828125 56.984375 36.375 
Q 56.984375 17.96875 50.515625 8.265625 
Q 44.046875 -1.421875 31.78125 -1.421875 
Q 19.53125 -1.421875 13.0625 8.265625 
Q 6.59375 17.96875 6.59375 36.375 
Q 6.59375 54.828125 13.0625 64.515625 
Q 19.53125 74.21875 31.78125 74.21875 
z
" id="DejaVuSans-48"/>
        <path d="M 10.6875 12.40625 
L 21 12.40625 
L 21 0 
L 10.6875 0 
z
" id="DejaVuSans-46"/>
       </defs>
       <use xlink:href="#DejaVuSans-48"/>
       <use x="63.623047" xlink:href="#DejaVuSans-46"/>
       <use x="95.410156" xlink:href="#DejaVuSans-48"/>
      </g>
     </g>
    </g>
    <g id="xtick_2">
     <g id="line2d_3">
      <path clip-path="url(#p178812068b)" d="M 126.227742 232.762692 
L 126.227742 22.318125 
" style="fill:none;stroke:#cccccc;stroke-dasharray:0.8,1.32;stroke-dashoffset:0;stroke-width:0.8;"/>
     </g>
     <g id="line2d_4">
      <g>
       <use style="fill:#262626;stroke:#262626;stroke-width:0.6;" x="126.227742" xlink:href="#m54eb0aaf90" y="232.762692"/>
      </g>
     </g>
     <g id="text_2">
      <!-- 0.2 -->
      <g style="fill:#262626;" transform="translate(119.866492 247.141442)scale(0.08 -0.08)">
       <defs>
        <path d="M 19.1875 8.296875 
L 53.609375 8.296875 
L 53.609375 0 
L 7.328125 0 
L 7.328125 8.296875 
Q 12.9375 14.109375 22.625 23.890625 
Q 32.328125 33.6875 34.8125 36.53125 
Q 39.546875 41.84375 41.421875 45.53125 
Q 43.3125 49.21875 43.3125 52.78125 
Q 43.3125 58.59375 39.234375 62.25 
Q 35.15625 65.921875 28.609375 65.921875 
Q 23.96875 65.921875 18.8125 64.3125 
Q 13.671875 62.703125 7.8125 59.421875 
L 7.8125 69.390625 
Q 13.765625 71.78125 18.9375 73 
Q 24.125 74.21875 28.421875 74.21875 
Q 39.75 74.21875 46.484375 68.546875 
Q 53.21875 62.890625 53.21875 53.421875 
Q 53.21875 48.921875 51.53125 44.890625 
Q 49.859375 40.875 45.40625 35.40625 
Q 44.1875 33.984375 37.640625 27.21875 
Q 31.109375 20.453125 19.1875 8.296875 
z
" id="DejaVuSans-50"/>
       </defs>
       <use xlink:href="#DejaVuSans-48"/>
       <use x="63.623047" xlink:href="#DejaVuSans-46"/>
       <use x="95.410156" xlink:href="#DejaVuSans-50"/>
      </g>
     </g>
    </g>
    <g id="xtick_3">
     <g id="line2d_5">
      <path clip-path="url(#p178812068b)" d="M 192.140936 232.762692 
L 192.140936 22.318125 
" style="fill:none;stroke:#cccccc;stroke-dasharray:0.8,1.32;stroke-dashoffset:0;stroke-width:0.8;"/>
     </g>
     <g id="line2d_6">
      <g>
       <use style="fill:#262626;stroke:#262626;stroke-width:0.6;" x="192.140936" xlink:href="#m54eb0aaf90" y="232.762692"/>
      </g>
     </g>
     <g id="text_3">
      <!-- 0.4 -->
      <g style="fill:#262626;" transform="translate(185.779686 247.141442)scale(0.08 -0.08)">
       <defs>
        <path d="M 37.796875 64.3125 
L 12.890625 25.390625 
L 37.796875 25.390625 
z
M 35.203125 72.90625 
L 47.609375 72.90625 
L 47.609375 25.390625 
L 58.015625 25.390625 
L 58.015625 17.1875 
L 47.609375 17.1875 
L 47.609375 0 
L 37.796875 0 
L 37.796875 17.1875 
L 4.890625 17.1875 
L 4.890625 26.703125 
z
" id="DejaVuSans-52"/>
       </defs>
       <use xlink:href="#DejaVuSans-48"/>
       <use x="63.623047" xlink:href="#DejaVuSans-46"/>
       <use x="95.410156" xlink:href="#DejaVuSans-52"/>
      </g>
     </g>
    </g>
    <g id="xtick_4">
     <g id="line2d_7">
      <path clip-path="url(#p178812068b)" d="M 258.054129 232.762692 
L 258.054129 22.318125 
" style="fill:none;stroke:#cccccc;stroke-dasharray:0.8,1.32;stroke-dashoffset:0;stroke-width:0.8;"/>
     </g>
     <g id="line2d_8">
      <g>
       <use style="fill:#262626;stroke:#262626;stroke-width:0.6;" x="258.054129" xlink:href="#m54eb0aaf90" y="232.762692"/>
      </g>
     </g>
     <g id="text_4">
      <!-- 0.6 -->
      <g style="fill:#262626;" transform="translate(251.692879 247.141442)scale(0.08 -0.08)">
       <defs>
        <path d="M 33.015625 40.375 
Q 26.375 40.375 22.484375 35.828125 
Q 18.609375 31.296875 18.609375 23.390625 
Q 18.609375 15.53125 22.484375 10.953125 
Q 26.375 6.390625 33.015625 6.390625 
Q 39.65625 6.390625 43.53125 10.953125 
Q 47.40625 15.53125 47.40625 23.390625 
Q 47.40625 31.296875 43.53125 35.828125 
Q 39.65625 40.375 33.015625 40.375 
z
M 52.59375 71.296875 
L 52.59375 62.3125 
Q 48.875 64.0625 45.09375 64.984375 
Q 41.3125 65.921875 37.59375 65.921875 
Q 27.828125 65.921875 22.671875 59.328125 
Q 17.53125 52.734375 16.796875 39.40625 
Q 19.671875 43.65625 24.015625 45.921875 
Q 28.375 48.1875 33.59375 48.1875 
Q 44.578125 48.1875 50.953125 41.515625 
Q 57.328125 34.859375 57.328125 23.390625 
Q 57.328125 12.15625 50.6875 5.359375 
Q 44.046875 -1.421875 33.015625 -1.421875 
Q 20.359375 -1.421875 13.671875 8.265625 
Q 6.984375 17.96875 6.984375 36.375 
Q 6.984375 53.65625 15.1875 63.9375 
Q 23.390625 74.21875 37.203125 74.21875 
Q 40.921875 74.21875 44.703125 73.484375 
Q 48.484375 72.75 52.59375 71.296875 
z
" id="DejaVuSans-54"/>
       </defs>
       <use xlink:href="#DejaVuSans-48"/>
       <use x="63.623047" xlink:href="#DejaVuSans-46"/>
       <use x="95.410156" xlink:href="#DejaVuSans-54"/>
      </g>
     </g>
    </g>
    <g id="xtick_5">
     <g id="line2d_9">
      <path clip-path="url(#p178812068b)" d="M 323.967323 232.762692 
L 323.967323 22.318125 
" style="fill:none;stroke:#cccccc;stroke-dasharray:0.8,1.32;stroke-dashoffset:0;stroke-width:0.8;"/>
     </g>
     <g id="line2d_10">
      <g>
       <use style="fill:#262626;stroke:#262626;stroke-width:0.6;" x="323.967323" xlink:href="#m54eb0aaf90" y="232.762692"/>
      </g>
     </g>
     <g id="text_5">
      <!-- 0.8 -->
      <g style="fill:#262626;" transform="translate(317.606073 247.141442)scale(0.08 -0.08)">
       <defs>
        <path d="M 31.78125 34.625 
Q 24.75 34.625 20.71875 30.859375 
Q 16.703125 27.09375 16.703125 20.515625 
Q 16.703125 13.921875 20.71875 10.15625 
Q 24.75 6.390625 31.78125 6.390625 
Q 38.8125 6.390625 42.859375 10.171875 
Q 46.921875 13.96875 46.921875 20.515625 
Q 46.921875 27.09375 42.890625 30.859375 
Q 38.875 34.625 31.78125 34.625 
z
M 21.921875 38.8125 
Q 15.578125 40.375 12.03125 44.71875 
Q 8.5 49.078125 8.5 55.328125 
Q 8.5 64.0625 14.71875 69.140625 
Q 20.953125 74.21875 31.78125 74.21875 
Q 42.671875 74.21875 48.875 69.140625 
Q 55.078125 64.0625 55.078125 55.328125 
Q 55.078125 49.078125 51.53125 44.71875 
Q 48 40.375 41.703125 38.8125 
Q 48.828125 37.15625 52.796875 32.3125 
Q 56.78125 27.484375 56.78125 20.515625 
Q 56.78125 9.90625 50.3125 4.234375 
Q 43.84375 -1.421875 31.78125 -1.421875 
Q 19.734375 -1.421875 13.25 4.234375 
Q 6.78125 9.90625 6.78125 20.515625 
Q 6.78125 27.484375 10.78125 32.3125 
Q 14.796875 37.15625 21.921875 38.8125 
z
M 18.3125 54.390625 
Q 18.3125 48.734375 21.84375 45.5625 
Q 25.390625 42.390625 31.78125 42.390625 
Q 38.140625 42.390625 41.71875 45.5625 
Q 45.3125 48.734375 45.3125 54.390625 
Q 45.3125 60.0625 41.71875 63.234375 
Q 38.140625 66.40625 31.78125 66.40625 
Q 25.390625 66.40625 21.84375 63.234375 
Q 18.3125 60.0625 18.3125 54.390625 
z
" id="DejaVuSans-56"/>
       </defs>
       <use xlink:href="#DejaVuSans-48"/>
       <use x="63.623047" xlink:href="#DejaVuSans-46"/>
       <use x="95.410156" xlink:href="#DejaVuSans-56"/>
      </g>
     </g>
    </g>
    <g id="xtick_6">
     <g id="line2d_11">
      <path clip-path="url(#p178812068b)" d="M 389.880516 232.762692 
L 389.880516 22.318125 
" style="fill:none;stroke:#cccccc;stroke-dasharray:0.8,1.32;stroke-dashoffset:0;stroke-width:0.8;"/>
     </g>
     <g id="line2d_12">
      <g>
       <use style="fill:#262626;stroke:#262626;stroke-width:0.6;" x="389.880516" xlink:href="#m54eb0aaf90" y="232.762692"/>
      </g>
     </g>
     <g id="text_6">
      <!-- 1.0 -->
      <g style="fill:#262626;" transform="translate(383.519266 247.141442)scale(0.08 -0.08)">
       <defs>
        <path d="M 12.40625 8.296875 
L 28.515625 8.296875 
L 28.515625 63.921875 
L 10.984375 60.40625 
L 10.984375 69.390625 
L 28.421875 72.90625 
L 38.28125 72.90625 
L 38.28125 8.296875 
L 54.390625 8.296875 
L 54.390625 0 
L 12.40625 0 
z
" id="DejaVuSans-49"/>
       </defs>
       <use xlink:href="#DejaVuSans-49"/>
       <use x="63.623047" xlink:href="#DejaVuSans-46"/>
       <use x="95.410156" xlink:href="#DejaVuSans-48"/>
      </g>
     </g>
    </g>
    <g id="text_7">
     <!-- Recall (Positive label: True) -->
     <g style="fill:#262626;" transform="translate(144.39472 261.923317)scale(0.12 -0.12)">
      <defs>
       <path d="M 44.390625 34.1875 
Q 47.5625 33.109375 50.5625 29.59375 
Q 53.5625 26.078125 56.59375 19.921875 
L 66.609375 0 
L 56 0 
L 46.6875 18.703125 
Q 43.0625 26.03125 39.671875 28.421875 
Q 36.28125 30.8125 30.421875 30.8125 
L 19.671875 30.8125 
L 19.671875 0 
L 9.8125 0 
L 9.8125 72.90625 
L 32.078125 72.90625 
Q 44.578125 72.90625 50.734375 67.671875 
Q 56.890625 62.453125 56.890625 51.90625 
Q 56.890625 45.015625 53.6875 40.46875 
Q 50.484375 35.9375 44.390625 34.1875 
z
M 19.671875 64.796875 
L 19.671875 38.921875 
L 32.078125 38.921875 
Q 39.203125 38.921875 42.84375 42.21875 
Q 46.484375 45.515625 46.484375 51.90625 
Q 46.484375 58.296875 42.84375 61.546875 
Q 39.203125 64.796875 32.078125 64.796875 
z
" id="DejaVuSans-82"/>
       <path d="M 56.203125 29.59375 
L 56.203125 25.203125 
L 14.890625 25.203125 
Q 15.484375 15.921875 20.484375 11.0625 
Q 25.484375 6.203125 34.421875 6.203125 
Q 39.59375 6.203125 44.453125 7.46875 
Q 49.3125 8.734375 54.109375 11.28125 
L 54.109375 2.78125 
Q 49.265625 0.734375 44.1875 -0.34375 
Q 39.109375 -1.421875 33.890625 -1.421875 
Q 20.796875 -1.421875 13.15625 6.1875 
Q 5.515625 13.8125 5.515625 26.8125 
Q 5.515625 40.234375 12.765625 48.109375 
Q 20.015625 56 32.328125 56 
Q 43.359375 56 49.78125 48.890625 
Q 56.203125 41.796875 56.203125 29.59375 
z
M 47.21875 32.234375 
Q 47.125 39.59375 43.09375 43.984375 
Q 39.0625 48.390625 32.421875 48.390625 
Q 24.90625 48.390625 20.390625 44.140625 
Q 15.875 39.890625 15.1875 32.171875 
z
" id="DejaVuSans-101"/>
       <path d="M 48.78125 52.59375 
L 48.78125 44.1875 
Q 44.96875 46.296875 41.140625 47.34375 
Q 37.3125 48.390625 33.40625 48.390625 
Q 24.65625 48.390625 19.8125 42.84375 
Q 14.984375 37.3125 14.984375 27.296875 
Q 14.984375 17.28125 19.8125 11.734375 
Q 24.65625 6.203125 33.40625 6.203125 
Q 37.3125 6.203125 41.140625 7.25 
Q 44.96875 8.296875 48.78125 10.40625 
L 48.78125 2.09375 
Q 45.015625 0.34375 40.984375 -0.53125 
Q 36.96875 -1.421875 32.421875 -1.421875 
Q 20.0625 -1.421875 12.78125 6.34375 
Q 5.515625 14.109375 5.515625 27.296875 
Q 5.515625 40.671875 12.859375 48.328125 
Q 20.21875 56 33.015625 56 
Q 37.15625 56 41.109375 55.140625 
Q 45.0625 54.296875 48.78125 52.59375 
z
" id="DejaVuSans-99"/>
       <path d="M 34.28125 27.484375 
Q 23.390625 27.484375 19.1875 25 
Q 14.984375 22.515625 14.984375 16.5 
Q 14.984375 11.71875 18.140625 8.90625 
Q 21.296875 6.109375 26.703125 6.109375 
Q 34.1875 6.109375 38.703125 11.40625 
Q 43.21875 16.703125 43.21875 25.484375 
L 43.21875 27.484375 
z
M 52.203125 31.203125 
L 52.203125 0 
L 43.21875 0 
L 43.21875 8.296875 
Q 40.140625 3.328125 35.546875 0.953125 
Q 30.953125 -1.421875 24.3125 -1.421875 
Q 15.921875 -1.421875 10.953125 3.296875 
Q 6 8.015625 6 15.921875 
Q 6 25.140625 12.171875 29.828125 
Q 18.359375 34.515625 30.609375 34.515625 
L 43.21875 34.515625 
L 43.21875 35.40625 
Q 43.21875 41.609375 39.140625 45 
Q 35.0625 48.390625 27.6875 48.390625 
Q 23 48.390625 18.546875 47.265625 
Q 14.109375 46.140625 10.015625 43.890625 
L 10.015625 52.203125 
Q 14.9375 54.109375 19.578125 55.046875 
Q 24.21875 56 28.609375 56 
Q 40.484375 56 46.34375 49.84375 
Q 52.203125 43.703125 52.203125 31.203125 
z
" id="DejaVuSans-97"/>
       <path d="M 9.421875 75.984375 
L 18.40625 75.984375 
L 18.40625 0 
L 9.421875 0 
z
" id="DejaVuSans-108"/>
       <path id="DejaVuSans-32"/>
       <path d="M 31 75.875 
Q 24.46875 64.65625 21.28125 53.65625 
Q 18.109375 42.671875 18.109375 31.390625 
Q 18.109375 20.125 21.3125 9.0625 
Q 24.515625 -2 31 -13.1875 
L 23.1875 -13.1875 
Q 15.875 -1.703125 12.234375 9.375 
Q 8.59375 20.453125 8.59375 31.390625 
Q 8.59375 42.28125 12.203125 53.3125 
Q 15.828125 64.359375 23.1875 75.875 
z
" id="DejaVuSans-40"/>
       <path d="M 19.671875 64.796875 
L 19.671875 37.40625 
L 32.078125 37.40625 
Q 38.96875 37.40625 42.71875 40.96875 
Q 46.484375 44.53125 46.484375 51.125 
Q 46.484375 57.671875 42.71875 61.234375 
Q 38.96875 64.796875 32.078125 64.796875 
z
M 9.8125 72.90625 
L 32.078125 72.90625 
Q 44.34375 72.90625 50.609375 67.359375 
Q 56.890625 61.8125 56.890625 51.125 
Q 56.890625 40.328125 50.609375 34.8125 
Q 44.34375 29.296875 32.078125 29.296875 
L 19.671875 29.296875 
L 19.671875 0 
L 9.8125 0 
z
" id="DejaVuSans-80"/>
       <path d="M 30.609375 48.390625 
Q 23.390625 48.390625 19.1875 42.75 
Q 14.984375 37.109375 14.984375 27.296875 
Q 14.984375 17.484375 19.15625 11.84375 
Q 23.34375 6.203125 30.609375 6.203125 
Q 37.796875 6.203125 41.984375 11.859375 
Q 46.1875 17.53125 46.1875 27.296875 
Q 46.1875 37.015625 41.984375 42.703125 
Q 37.796875 48.390625 30.609375 48.390625 
z
M 30.609375 56 
Q 42.328125 56 49.015625 48.375 
Q 55.71875 40.765625 55.71875 27.296875 
Q 55.71875 13.875 49.015625 6.21875 
Q 42.328125 -1.421875 30.609375 -1.421875 
Q 18.84375 -1.421875 12.171875 6.21875 
Q 5.515625 13.875 5.515625 27.296875 
Q 5.515625 40.765625 12.171875 48.375 
Q 18.84375 56 30.609375 56 
z
" id="DejaVuSans-111"/>
       <path d="M 44.28125 53.078125 
L 44.28125 44.578125 
Q 40.484375 46.53125 36.375 47.5 
Q 32.28125 48.484375 27.875 48.484375 
Q 21.1875 48.484375 17.84375 46.4375 
Q 14.5 44.390625 14.5 40.28125 
Q 14.5 37.15625 16.890625 35.375 
Q 19.28125 33.59375 26.515625 31.984375 
L 29.59375 31.296875 
Q 39.15625 29.25 43.1875 25.515625 
Q 47.21875 21.78125 47.21875 15.09375 
Q 47.21875 7.46875 41.1875 3.015625 
Q 35.15625 -1.421875 24.609375 -1.421875 
Q 20.21875 -1.421875 15.453125 -0.5625 
Q 10.6875 0.296875 5.421875 2 
L 5.421875 11.28125 
Q 10.40625 8.6875 15.234375 7.390625 
Q 20.0625 6.109375 24.8125 6.109375 
Q 31.15625 6.109375 34.5625 8.28125 
Q 37.984375 10.453125 37.984375 14.40625 
Q 37.984375 18.0625 35.515625 20.015625 
Q 33.0625 21.96875 24.703125 23.78125 
L 21.578125 24.515625 
Q 13.234375 26.265625 9.515625 29.90625 
Q 5.8125 33.546875 5.8125 39.890625 
Q 5.8125 47.609375 11.28125 51.796875 
Q 16.75 56 26.8125 56 
Q 31.78125 56 36.171875 55.265625 
Q 40.578125 54.546875 44.28125 53.078125 
z
" id="DejaVuSans-115"/>
       <path d="M 9.421875 54.6875 
L 18.40625 54.6875 
L 18.40625 0 
L 9.421875 0 
z
M 9.421875 75.984375 
L 18.40625 75.984375 
L 18.40625 64.59375 
L 9.421875 64.59375 
z
" id="DejaVuSans-105"/>
       <path d="M 18.3125 70.21875 
L 18.3125 54.6875 
L 36.8125 54.6875 
L 36.8125 47.703125 
L 18.3125 47.703125 
L 18.3125 18.015625 
Q 18.3125 11.328125 20.140625 9.421875 
Q 21.96875 7.515625 27.59375 7.515625 
L 36.8125 7.515625 
L 36.8125 0 
L 27.59375 0 
Q 17.1875 0 13.234375 3.875 
Q 9.28125 7.765625 9.28125 18.015625 
L 9.28125 47.703125 
L 2.6875 47.703125 
L 2.6875 54.6875 
L 9.28125 54.6875 
L 9.28125 70.21875 
z
" id="DejaVuSans-116"/>
       <path d="M 2.984375 54.6875 
L 12.5 54.6875 
L 29.59375 8.796875 
L 46.6875 54.6875 
L 56.203125 54.6875 
L 35.6875 0 
L 23.484375 0 
z
" id="DejaVuSans-118"/>
       <path d="M 48.6875 27.296875 
Q 48.6875 37.203125 44.609375 42.84375 
Q 40.53125 48.484375 33.40625 48.484375 
Q 26.265625 48.484375 22.1875 42.84375 
Q 18.109375 37.203125 18.109375 27.296875 
Q 18.109375 17.390625 22.1875 11.75 
Q 26.265625 6.109375 33.40625 6.109375 
Q 40.53125 6.109375 44.609375 11.75 
Q 48.6875 17.390625 48.6875 27.296875 
z
M 18.109375 46.390625 
Q 20.953125 51.265625 25.265625 53.625 
Q 29.59375 56 35.59375 56 
Q 45.5625 56 51.78125 48.09375 
Q 58.015625 40.1875 58.015625 27.296875 
Q 58.015625 14.40625 51.78125 6.484375 
Q 45.5625 -1.421875 35.59375 -1.421875 
Q 29.59375 -1.421875 25.265625 0.953125 
Q 20.953125 3.328125 18.109375 8.203125 
L 18.109375 0 
L 9.078125 0 
L 9.078125 75.984375 
L 18.109375 75.984375 
z
" id="DejaVuSans-98"/>
       <path d="M 11.71875 12.40625 
L 22.015625 12.40625 
L 22.015625 0 
L 11.71875 0 
z
M 11.71875 51.703125 
L 22.015625 51.703125 
L 22.015625 39.3125 
L 11.71875 39.3125 
z
" id="DejaVuSans-58"/>
       <path d="M -0.296875 72.90625 
L 61.375 72.90625 
L 61.375 64.59375 
L 35.5 64.59375 
L 35.5 0 
L 25.59375 0 
L 25.59375 64.59375 
L -0.296875 64.59375 
z
" id="DejaVuSans-84"/>
       <path d="M 41.109375 46.296875 
Q 39.59375 47.171875 37.8125 47.578125 
Q 36.03125 48 33.890625 48 
Q 26.265625 48 22.1875 43.046875 
Q 18.109375 38.09375 18.109375 28.8125 
L 18.109375 0 
L 9.078125 0 
L 9.078125 54.6875 
L 18.109375 54.6875 
L 18.109375 46.1875 
Q 20.953125 51.171875 25.484375 53.578125 
Q 30.03125 56 36.53125 56 
Q 37.453125 56 38.578125 55.875 
Q 39.703125 55.765625 41.0625 55.515625 
z
" id="DejaVuSans-114"/>
       <path d="M 8.5 21.578125 
L 8.5 54.6875 
L 17.484375 54.6875 
L 17.484375 21.921875 
Q 17.484375 14.15625 20.5 10.265625 
Q 23.53125 6.390625 29.59375 6.390625 
Q 36.859375 6.390625 41.078125 11.03125 
Q 45.3125 15.671875 45.3125 23.6875 
L 45.3125 54.6875 
L 54.296875 54.6875 
L 54.296875 0 
L 45.3125 0 
L 45.3125 8.40625 
Q 42.046875 3.421875 37.71875 1 
Q 33.40625 -1.421875 27.6875 -1.421875 
Q 18.265625 -1.421875 13.375 4.4375 
Q 8.5 10.296875 8.5 21.578125 
z
M 31.109375 56 
z
" id="DejaVuSans-117"/>
       <path d="M 8.015625 75.875 
L 15.828125 75.875 
Q 23.140625 64.359375 26.78125 53.3125 
Q 30.421875 42.28125 30.421875 31.390625 
Q 30.421875 20.453125 26.78125 9.375 
Q 23.140625 -1.703125 15.828125 -13.1875 
L 8.015625 -13.1875 
Q 14.5 -2 17.703125 9.0625 
Q 20.90625 20.125 20.90625 31.390625 
Q 20.90625 42.671875 17.703125 53.65625 
Q 14.5 64.65625 8.015625 75.875 
z
" id="DejaVuSans-41"/>
      </defs>
      <use xlink:href="#DejaVuSans-82"/>
      <use x="64.982422" xlink:href="#DejaVuSans-101"/>
      <use x="126.505859" xlink:href="#DejaVuSans-99"/>
      <use x="181.486328" xlink:href="#DejaVuSans-97"/>
      <use x="242.765625" xlink:href="#DejaVuSans-108"/>
      <use x="270.548828" xlink:href="#DejaVuSans-108"/>
      <use x="298.332031" xlink:href="#DejaVuSans-32"/>
      <use x="330.119141" xlink:href="#DejaVuSans-40"/>
      <use x="369.132812" xlink:href="#DejaVuSans-80"/>
      <use x="425.810547" xlink:href="#DejaVuSans-111"/>
      <use x="486.992188" xlink:href="#DejaVuSans-115"/>
      <use x="539.091797" xlink:href="#DejaVuSans-105"/>
      <use x="566.875" xlink:href="#DejaVuSans-116"/>
      <use x="606.083984" xlink:href="#DejaVuSans-105"/>
      <use x="633.867188" xlink:href="#DejaVuSans-118"/>
      <use x="693.046875" xlink:href="#DejaVuSans-101"/>
      <use x="754.570312" xlink:href="#DejaVuSans-32"/>
      <use x="786.357422" xlink:href="#DejaVuSans-108"/>
      <use x="814.140625" xlink:href="#DejaVuSans-97"/>
      <use x="875.419922" xlink:href="#DejaVuSans-98"/>
      <use x="938.896484" xlink:href="#DejaVuSans-101"/>
      <use x="1000.419922" xlink:href="#DejaVuSans-108"/>
      <use x="1028.203125" xlink:href="#DejaVuSans-58"/>
      <use x="1061.894531" xlink:href="#DejaVuSans-32"/>
      <use x="1093.681641" xlink:href="#DejaVuSans-84"/>
      <use x="1140.015625" xlink:href="#DejaVuSans-114"/>
      <use x="1181.128906" xlink:href="#DejaVuSans-117"/>
      <use x="1244.507812" xlink:href="#DejaVuSans-101"/>
      <use x="1306.03125" xlink:href="#DejaVuSans-41"/>
     </g>
    </g>
   </g>
   <g id="matplotlib.axis_2">
    <g id="ytick_1">
     <g id="line2d_13">
      <path clip-path="url(#p178812068b)" d="M 43.83625 223.19703 
L 406.358815 223.19703 
" style="fill:none;stroke:#cccccc;stroke-dasharray:0.8,1.32;stroke-dashoffset:0;stroke-width:0.8;"/>
     </g>
     <g id="line2d_14">
      <defs>
       <path d="M 0 0 
L -4.8 0 
" id="mf18fd4b8fb" style="stroke:#262626;stroke-width:0.6;"/>
      </defs>
      <g>
       <use style="fill:#262626;stroke:#262626;stroke-width:0.6;" x="43.83625" xlink:href="#mf18fd4b8fb" y="223.19703"/>
      </g>
     </g>
     <g id="text_8">
      <!-- 0.0 -->
      <g style="fill:#262626;" transform="translate(22.81375 226.236405)scale(0.08 -0.08)">
       <use xlink:href="#DejaVuSans-48"/>
       <use x="63.623047" xlink:href="#DejaVuSans-46"/>
       <use x="95.410156" xlink:href="#DejaVuSans-48"/>
      </g>
     </g>
    </g>
    <g id="ytick_2">
     <g id="line2d_15">
      <path clip-path="url(#p178812068b)" d="M 43.83625 184.934381 
L 406.358815 184.934381 
" style="fill:none;stroke:#cccccc;stroke-dasharray:0.8,1.32;stroke-dashoffset:0;stroke-width:0.8;"/>
     </g>
     <g id="line2d_16">
      <g>
       <use style="fill:#262626;stroke:#262626;stroke-width:0.6;" x="43.83625" xlink:href="#mf18fd4b8fb" y="184.934381"/>
      </g>
     </g>
     <g id="text_9">
      <!-- 0.2 -->
      <g style="fill:#262626;" transform="translate(22.81375 187.973756)scale(0.08 -0.08)">
       <use xlink:href="#DejaVuSans-48"/>
       <use x="63.623047" xlink:href="#DejaVuSans-46"/>
       <use x="95.410156" xlink:href="#DejaVuSans-50"/>
      </g>
     </g>
    </g>
    <g id="ytick_3">
     <g id="line2d_17">
      <path clip-path="url(#p178812068b)" d="M 43.83625 146.671733 
L 406.358815 146.671733 
" style="fill:none;stroke:#cccccc;stroke-dasharray:0.8,1.32;stroke-dashoffset:0;stroke-width:0.8;"/>
     </g>
     <g id="line2d_18">
      <g>
       <use style="fill:#262626;stroke:#262626;stroke-width:0.6;" x="43.83625" xlink:href="#mf18fd4b8fb" y="146.671733"/>
      </g>
     </g>
     <g id="text_10">
      <!-- 0.4 -->
      <g style="fill:#262626;" transform="translate(22.81375 149.711108)scale(0.08 -0.08)">
       <use xlink:href="#DejaVuSans-48"/>
       <use x="63.623047" xlink:href="#DejaVuSans-46"/>
       <use x="95.410156" xlink:href="#DejaVuSans-52"/>
      </g>
     </g>
    </g>
    <g id="ytick_4">
     <g id="line2d_19">
      <path clip-path="url(#p178812068b)" d="M 43.83625 108.409084 
L 406.358815 108.409084 
" style="fill:none;stroke:#cccccc;stroke-dasharray:0.8,1.32;stroke-dashoffset:0;stroke-width:0.8;"/>
     </g>
     <g id="line2d_20">
      <g>
       <use style="fill:#262626;stroke:#262626;stroke-width:0.6;" x="43.83625" xlink:href="#mf18fd4b8fb" y="108.409084"/>
      </g>
     </g>
     <g id="text_11">
      <!-- 0.6 -->
      <g style="fill:#262626;" transform="translate(22.81375 111.448459)scale(0.08 -0.08)">
       <use xlink:href="#DejaVuSans-48"/>
       <use x="63.623047" xlink:href="#DejaVuSans-46"/>
       <use x="95.410156" xlink:href="#DejaVuSans-54"/>
      </g>
     </g>
    </g>
    <g id="ytick_5">
     <g id="line2d_21">
      <path clip-path="url(#p178812068b)" d="M 43.83625 70.146436 
L 406.358815 70.146436 
" style="fill:none;stroke:#cccccc;stroke-dasharray:0.8,1.32;stroke-dashoffset:0;stroke-width:0.8;"/>
     </g>
     <g id="line2d_22">
      <g>
       <use style="fill:#262626;stroke:#262626;stroke-width:0.6;" x="43.83625" xlink:href="#mf18fd4b8fb" y="70.146436"/>
      </g>
     </g>
     <g id="text_12">
      <!-- 0.8 -->
      <g style="fill:#262626;" transform="translate(22.81375 73.185811)scale(0.08 -0.08)">
       <use xlink:href="#DejaVuSans-48"/>
       <use x="63.623047" xlink:href="#DejaVuSans-46"/>
       <use x="95.410156" xlink:href="#DejaVuSans-56"/>
      </g>
     </g>
    </g>
    <g id="ytick_6">
     <g id="line2d_23">
      <path clip-path="url(#p178812068b)" d="M 43.83625 31.883787 
L 406.358815 31.883787 
" style="fill:none;stroke:#cccccc;stroke-dasharray:0.8,1.32;stroke-dashoffset:0;stroke-width:0.8;"/>
     </g>
     <g id="line2d_24">
      <g>
       <use style="fill:#262626;stroke:#262626;stroke-width:0.6;" x="43.83625" xlink:href="#mf18fd4b8fb" y="31.883787"/>
      </g>
     </g>
     <g id="text_13">
      <!-- 1.0 -->
      <g style="fill:#262626;" transform="translate(22.81375 34.923162)scale(0.08 -0.08)">
       <use xlink:href="#DejaVuSans-49"/>
       <use x="63.623047" xlink:href="#DejaVuSans-46"/>
       <use x="95.410156" xlink:href="#DejaVuSans-48"/>
      </g>
     </g>
    </g>
    <g id="text_14">
     <!-- Precision (Positive label: True) -->
     <g style="fill:#262626;" transform="translate(16.318125 217.111033)rotate(-90)scale(0.12 -0.12)">
      <defs>
       <path d="M 54.890625 33.015625 
L 54.890625 0 
L 45.90625 0 
L 45.90625 32.71875 
Q 45.90625 40.484375 42.875 44.328125 
Q 39.84375 48.1875 33.796875 48.1875 
Q 26.515625 48.1875 22.3125 43.546875 
Q 18.109375 38.921875 18.109375 30.90625 
L 18.109375 0 
L 9.078125 0 
L 9.078125 54.6875 
L 18.109375 54.6875 
L 18.109375 46.1875 
Q 21.34375 51.125 25.703125 53.5625 
Q 30.078125 56 35.796875 56 
Q 45.21875 56 50.046875 50.171875 
Q 54.890625 44.34375 54.890625 33.015625 
z
" id="DejaVuSans-110"/>
      </defs>
      <use xlink:href="#DejaVuSans-80"/>
      <use x="58.552734" xlink:href="#DejaVuSans-114"/>
      <use x="97.416016" xlink:href="#DejaVuSans-101"/>
      <use x="158.939453" xlink:href="#DejaVuSans-99"/>
      <use x="213.919922" xlink:href="#DejaVuSans-105"/>
      <use x="241.703125" xlink:href="#DejaVuSans-115"/>
      <use x="293.802734" xlink:href="#DejaVuSans-105"/>
      <use x="321.585938" xlink:href="#DejaVuSans-111"/>
      <use x="382.767578" xlink:href="#DejaVuSans-110"/>
      <use x="446.146484" xlink:href="#DejaVuSans-32"/>
      <use x="477.933594" xlink:href="#DejaVuSans-40"/>
      <use x="516.947266" xlink:href="#DejaVuSans-80"/>
      <use x="573.625" xlink:href="#DejaVuSans-111"/>
      <use x="634.806641" xlink:href="#DejaVuSans-115"/>
      <use x="686.90625" xlink:href="#DejaVuSans-105"/>
      <use x="714.689453" xlink:href="#DejaVuSans-116"/>
      <use x="753.898438" xlink:href="#DejaVuSans-105"/>
      <use x="781.681641" xlink:href="#DejaVuSans-118"/>
      <use x="840.861328" xlink:href="#DejaVuSans-101"/>
      <use x="902.384766" xlink:href="#DejaVuSans-32"/>
      <use x="934.171875" xlink:href="#DejaVuSans-108"/>
      <use x="961.955078" xlink:href="#DejaVuSans-97"/>
      <use x="1023.234375" xlink:href="#DejaVuSans-98"/>
      <use x="1086.710938" xlink:href="#DejaVuSans-101"/>
      <use x="1148.234375" xlink:href="#DejaVuSans-108"/>
      <use x="1176.017578" xlink:href="#DejaVuSans-58"/>
      <use x="1209.708984" xlink:href="#DejaVuSans-32"/>
      <use x="1241.496094" xlink:href="#DejaVuSans-84"/>
      <use x="1287.830078" xlink:href="#DejaVuSans-114"/>
      <use x="1328.943359" xlink:href="#DejaVuSans-117"/>
      <use x="1392.322266" xlink:href="#DejaVuSans-101"/>
      <use x="1453.845703" xlink:href="#DejaVuSans-41"/>
     </g>
    </g>
   </g>
   <g id="PolyCollection_1">
    <defs>
     <path d="M 60.314548 -239.735155 
L 60.314548 -239.735155 
L 63.643498 -239.735155 
L 66.972447 -239.735155 
L 70.301396 -239.735155 
L 73.630345 -239.735155 
L 76.959294 -239.735155 
L 80.288243 -239.735155 
L 83.617193 -239.735155 
L 86.946142 -239.735155 
L 90.275091 -239.735155 
L 93.60404 -239.735155 
L 96.932989 -239.735155 
L 100.261938 -239.735155 
L 103.590888 -239.735155 
L 106.919837 -239.735155 
L 110.248786 -239.735155 
L 113.577735 -239.735155 
L 116.906684 -239.735155 
L 120.235633 -239.735155 
L 123.564583 -239.735155 
L 126.893532 -239.735155 
L 130.222481 -239.735155 
L 133.55143 -239.735155 
L 136.880379 -239.735155 
L 140.209328 -239.735155 
L 143.538278 -239.735155 
L 146.867227 -239.735155 
L 150.196176 -239.735155 
L 153.525125 -239.735155 
L 156.854074 -239.735155 
L 160.183024 -239.735155 
L 163.511973 -239.735155 
L 166.840922 -239.735155 
L 170.169871 -239.735155 
L 173.49882 -239.735155 
L 176.827769 -239.735155 
L 180.156719 -239.735155 
L 183.485668 -239.735155 
L 186.814617 -239.735155 
L 190.143566 -239.735155 
L 193.472515 -239.735155 
L 196.801464 -239.735155 
L 200.130414 -239.735155 
L 203.459363 -239.735155 
L 206.788312 -239.735155 
L 210.117261 -239.735155 
L 213.44621 -239.735155 
L 216.775159 -239.735155 
L 220.104109 -239.735155 
L 223.433058 -239.735155 
L 226.762007 -231.607793 
L 230.090956 -231.751347 
L 233.419905 -231.894901 
L 236.748854 -226.273802 
L 240.077804 -226.496206 
L 243.406753 -226.715087 
L 246.735702 -226.933967 
L 250.064651 -227.152848 
L 253.3936 -227.339823 
L 256.722549 -227.528079 
L 260.051499 -227.716328 
L 263.380448 -227.903968 
L 266.709397 -228.075143 
L 270.038346 -228.24773 
L 273.367295 -228.411467 
L 276.696244 -228.573417 
L 280.025194 -228.710833 
L 283.354143 -228.857357 
L 286.683092 -226.051768 
L 290.012041 -226.234182 
L 293.34099 -226.413658 
L 296.66994 -226.592451 
L 299.998889 -226.772023 
L 303.327838 -226.945656 
L 306.656787 -227.100958 
L 309.985736 -227.295887 
L 313.314685 -227.508237 
L 316.643635 -227.695687 
L 319.972584 -227.846182 
L 323.301533 -228.001361 
L 326.630482 -225.108677 
L 329.959431 -225.388624 
L 333.28838 -223.093609 
L 336.61733 -223.312649 
L 339.946279 -223.543152 
L 343.275228 -212.111981 
L 346.604177 -212.343755 
L 349.933126 -208.634992 
L 353.262075 -208.833044 
L 356.591025 -208.997169 
L 359.919974 -169.403998 
L 363.248923 -169.729127 
L 366.577872 -165.595243 
L 369.906821 -165.795706 
L 373.23577 -164.991205 
L 376.56472 -164.18469 
L 379.893669 -124.121541 
L 383.222618 -116.050915 
L 386.551567 -115.917306 
L 389.880516 -48.421912 
L 389.880516 -103.918866 
L 389.880516 -103.918866 
L 386.551567 -229.364145 
L 383.222618 -231.221591 
L 379.893669 -234.149815 
L 376.56472 -239.735155 
L 373.23577 -239.735155 
L 369.906821 -239.735155 
L 366.577872 -239.735155 
L 363.248923 -239.735155 
L 359.919974 -239.735155 
L 356.591025 -237.298367 
L 353.262075 -237.659475 
L 349.933126 -237.959166 
L 346.604177 -236.745025 
L 343.275228 -236.887327 
L 339.946279 -233.398873 
L 336.61733 -233.833804 
L 333.28838 -234.029678 
L 329.959431 -233.385775 
L 326.630482 -233.786718 
L 323.301533 -235.025764 
L 319.972584 -235.046022 
L 316.643635 -234.98758 
L 313.314685 -235.091831 
L 309.985736 -235.285468 
L 306.656787 -237.744743 
L 303.327838 -237.786079 
L 299.998889 -237.82909 
L 296.66994 -237.944937 
L 293.34099 -237.993526 
L 290.012041 -238.04472 
L 286.683092 -238.097697 
L 283.354143 -239.735155 
L 280.025194 -239.735155 
L 276.696244 -239.735155 
L 273.367295 -239.735155 
L 270.038346 -239.735155 
L 266.709397 -239.735155 
L 263.380448 -239.735155 
L 260.051499 -239.735155 
L 256.722549 -239.735155 
L 253.3936 -239.735155 
L 250.064651 -239.735155 
L 246.735702 -239.735155 
L 243.406753 -239.735155 
L 240.077804 -239.735155 
L 236.748854 -239.735155 
L 233.419905 -239.735155 
L 230.090956 -239.735155 
L 226.762007 -239.735155 
L 223.433058 -239.735155 
L 220.104109 -239.735155 
L 216.775159 -239.735155 
L 213.44621 -239.735155 
L 210.117261 -239.735155 
L 206.788312 -239.735155 
L 203.459363 -239.735155 
L 200.130414 -239.735155 
L 196.801464 -239.735155 
L 193.472515 -239.735155 
L 190.143566 -239.735155 
L 186.814617 -239.735155 
L 183.485668 -239.735155 
L 180.156719 -239.735155 
L 176.827769 -239.735155 
L 173.49882 -239.735155 
L 170.169871 -239.735155 
L 166.840922 -239.735155 
L 163.511973 -239.735155 
L 160.183024 -239.735155 
L 156.854074 -239.735155 
L 153.525125 -239.735155 
L 150.196176 -239.735155 
L 146.867227 -239.735155 
L 143.538278 -239.735155 
L 140.209328 -239.735155 
L 136.880379 -239.735155 
L 133.55143 -239.735155 
L 130.222481 -239.735155 
L 126.893532 -239.735155 
L 123.564583 -239.735155 
L 120.235633 -239.735155 
L 116.906684 -239.735155 
L 113.577735 -239.735155 
L 110.248786 -239.735155 
L 106.919837 -239.735155 
L 103.590888 -239.735155 
L 100.261938 -239.735155 
L 96.932989 -239.735155 
L 93.60404 -239.735155 
L 90.275091 -239.735155 
L 86.946142 -239.735155 
L 83.617193 -239.735155 
L 80.288243 -239.735155 
L 76.959294 -239.735155 
L 73.630345 -239.735155 
L 70.301396 -239.735155 
L 66.972447 -239.735155 
L 63.643498 -239.735155 
L 60.314548 -239.735155 
z
" id="me17e44d6e5" style="stroke:#808080;stroke-opacity:0.2;stroke-width:0.8;"/>
    </defs>
    <g clip-path="url(#p178812068b)">
     <use style="fill:#808080;fill-opacity:0.2;stroke:#808080;stroke-opacity:0.2;stroke-width:0.8;" x="0" xlink:href="#me17e44d6e5" y="271.618942"/>
    </g>
   </g>
   <g id="PolyCollection_2">
    <defs>
     <path d="M 60.314548 -239.735155 
L 60.314548 -239.735155 
L 63.643498 -135.962214 
L 66.972447 -146.977219 
L 70.301396 -157.56101 
L 73.630345 -168.342435 
L 76.959294 -179.489238 
L 80.288243 -184.797 
L 83.617193 -188.533138 
L 86.946142 -192.07458 
L 90.275091 -195.637709 
L 93.60404 -199.370528 
L 96.932989 -201.888995 
L 100.261938 -203.506804 
L 103.590888 -205.140553 
L 106.919837 -206.356975 
L 110.248786 -208.01595 
L 113.577735 -209.694456 
L 116.906684 -210.502011 
L 120.235633 -211.45282 
L 123.564583 -211.996041 
L 126.893532 -213.091983 
L 130.222481 -213.441738 
L 133.55143 -212.614311 
L 136.880379 -211.444785 
L 140.209328 -210.905725 
L 143.538278 -208.418772 
L 146.867227 -207.407735 
L 150.196176 -205.794862 
L 153.525125 -202.761533 
L 156.854074 -201.153099 
L 160.183024 -198.617545 
L 163.511973 -198.423847 
L 166.840922 -196.972474 
L 170.169871 -193.951395 
L 173.49882 -192.754485 
L 176.827769 -192.76469 
L 180.156719 -193.024723 
L 183.485668 -192.217744 
L 186.814617 -192.14358 
L 190.143566 -191.856197 
L 193.472515 -189.903498 
L 196.801464 -188.725184 
L 200.130414 -187.828174 
L 203.459363 -186.636166 
L 206.788312 -186.486741 
L 210.117261 -185.806994 
L 213.44621 -185.174143 
L 216.775159 -184.634991 
L 220.104109 -180.829469 
L 223.433058 -180.712606 
L 226.762007 -179.2717 
L 230.090956 -178.831016 
L 233.419905 -177.37618 
L 236.748854 -171.556514 
L 240.077804 -171.760712 
L 243.406753 -169.800089 
L 246.735702 -169.55977 
L 250.064651 -167.213661 
L 253.3936 -167.596707 
L 256.722549 -168.117567 
L 260.051499 -167.328671 
L 263.380448 -167.869072 
L 266.709397 -166.078179 
L 270.038346 -158.11646 
L 273.367295 -158.768846 
L 276.696244 -156.392152 
L 280.025194 -156.999673 
L 283.354143 -146.815765 
L 286.683092 -147.537232 
L 290.012041 -148.261933 
L 293.34099 -147.546742 
L 296.66994 -148.249858 
L 299.998889 -147.582101 
L 303.327838 -142.188214 
L 306.656787 -142.861985 
L 309.985736 -138.54223 
L 313.314685 -139.20878 
L 316.643635 -138.880894 
L 319.972584 -139.531014 
L 323.301533 -131.020076 
L 326.630482 -129.123914 
L 329.959431 -129.72905 
L 333.28838 -124.591843 
L 336.61733 -125.177453 
L 339.946279 -123.198058 
L 343.275228 -119.279931 
L 346.604177 -119.817773 
L 349.933126 -116.881878 
L 353.262075 -117.379092 
L 356.591025 -117.835771 
L 359.919974 -109.823835 
L 363.248923 -110.155444 
L 366.577872 -108.036112 
L 369.906821 -108.182715 
L 373.23577 -100.182865 
L 376.56472 -99.279629 
L 379.893669 -73.65019 
L 383.222618 -70.939439 
L 386.551567 -64.202113 
L 389.880516 -48.421912 
L 389.880516 -99.674432 
L 389.880516 -99.674432 
L 386.551567 -158.350491 
L 383.222618 -164.745468 
L 379.893669 -168.458179 
L 376.56472 -215.139687 
L 373.23577 -215.808633 
L 369.906821 -225.638661 
L 366.577872 -225.681277 
L 363.248923 -225.225185 
L 359.919974 -225.130483 
L 356.591025 -223.49178 
L 353.262075 -223.360343 
L 349.933126 -223.197301 
L 346.604177 -222.54417 
L 343.275228 -222.377303 
L 339.946279 -221.717174 
L 336.61733 -225.795305 
L 333.28838 -225.661222 
L 329.959431 -225.074558 
L 326.630482 -224.952367 
L 323.301533 -224.762843 
L 319.972584 -225.870252 
L 316.643635 -225.729216 
L 313.314685 -225.490973 
L 309.985736 -225.350659 
L 306.656787 -224.910577 
L 303.327838 -224.777452 
L 299.998889 -226.709308 
L 296.66994 -226.447865 
L 293.34099 -226.298193 
L 290.012041 -226.060104 
L 286.683092 -225.911688 
L 283.354143 -225.750157 
L 280.025194 -226.328208 
L 276.696244 -226.153154 
L 273.367295 -226.912662 
L 270.038346 -226.737693 
L 266.709397 -236.837996 
L 263.380448 -237.332778 
L 260.051499 -237.222681 
L 256.722549 -237.505389 
L 253.3936 -237.38675 
L 250.064651 -237.232245 
L 246.735702 -238.171877 
L 243.406753 -237.852362 
L 240.077804 -239.513371 
L 236.748854 -239.303555 
L 233.419905 -239.735155 
L 230.090956 -239.735155 
L 226.762007 -239.735155 
L 223.433058 -239.735155 
L 220.104109 -239.735155 
L 216.775159 -239.735155 
L 213.44621 -239.735155 
L 210.117261 -239.735155 
L 206.788312 -239.735155 
L 203.459363 -239.735155 
L 200.130414 -239.735155 
L 196.801464 -239.735155 
L 193.472515 -239.735155 
L 190.143566 -239.735155 
L 186.814617 -239.735155 
L 183.485668 -239.735155 
L 180.156719 -239.735155 
L 176.827769 -239.735155 
L 173.49882 -239.735155 
L 170.169871 -239.735155 
L 166.840922 -239.735155 
L 163.511973 -239.735155 
L 160.183024 -239.735155 
L 156.854074 -239.735155 
L 153.525125 -239.735155 
L 150.196176 -239.735155 
L 146.867227 -239.735155 
L 143.538278 -239.735155 
L 140.209328 -239.735155 
L 136.880379 -239.735155 
L 133.55143 -239.735155 
L 130.222481 -239.735155 
L 126.893532 -239.735155 
L 123.564583 -239.735155 
L 120.235633 -239.735155 
L 116.906684 -239.735155 
L 113.577735 -239.735155 
L 110.248786 -239.735155 
L 106.919837 -239.735155 
L 103.590888 -239.735155 
L 100.261938 -239.735155 
L 96.932989 -239.735155 
L 93.60404 -239.735155 
L 90.275091 -239.735155 
L 86.946142 -239.735155 
L 83.617193 -239.735155 
L 80.288243 -239.735155 
L 76.959294 -239.735155 
L 73.630345 -239.735155 
L 70.301396 -239.735155 
L 66.972447 -239.735155 
L 63.643498 -239.735155 
L 60.314548 -239.735155 
z
" id="mcf1bab749b" style="stroke:#808080;stroke-opacity:0.2;stroke-width:0.8;"/>
    </defs>
    <g clip-path="url(#p178812068b)">
     <use style="fill:#808080;fill-opacity:0.2;stroke:#808080;stroke-opacity:0.2;stroke-width:0.8;" x="0" xlink:href="#mcf1bab749b" y="271.618942"/>
    </g>
   </g>
   <g id="line2d_25">
    <path clip-path="url(#p178812068b)" d="M 389.880516 79.236667 
L 389.662837 79.236667 
L 389.662837 79.188604 
L 389.662837 78.829481 
L 389.445158 78.829481 
L 389.445158 78.780843 
L 389.445158 76.361688 
L 389.0098 76.309677 
L 389.0098 76.257561 
L 389.0098 75.581804 
L 388.792121 75.581804 
L 388.792121 75.52865 
L 388.792121 75.377428 
L 388.139084 75.270372 
L 388.139084 75.292644 
L 388.139084 74.988314 
L 387.921406 74.988314 
L 387.921406 74.934192 
L 387.921406 71.417151 
L 387.268369 71.37876 
L 387.268369 71.319392 
L 387.268369 71.158675 
L 386.833011 71.179466 
L 386.833011 71.11973 
L 386.833011 70.472249 
L 386.615332 70.472249 
L 386.615332 70.411441 
L 386.615332 67.761501 
L 386.179974 67.69663 
L 386.179974 67.716072 
L 386.179974 67.207964 
L 385.962295 67.207964 
L 385.962295 67.142171 
L 385.962295 66.372585 
L 385.744616 66.372585 
L 385.744616 66.305479 
L 385.744616 66.133165 
L 385.526937 66.133165 
L 385.526937 66.065647 
L 385.526937 65.022163 
L 385.091579 65.040512 
L 385.091579 64.971222 
L 385.091579 64.26643 
L 384.8739 64.26643 
L 384.8739 64.19589 
L 384.8739 63.929556 
L 384.656221 63.929556 
L 384.656221 63.858443 
L 384.656221 63.590797 
L 384.438542 63.590797 
L 384.438542 63.519105 
L 384.438542 62.980259 
L 384.003184 62.997759 
L 384.003184 62.925034 
L 384.003184 62.472289 
L 383.785505 62.472289 
L 383.785505 62.398682 
L 383.785505 62.307681 
L 383.567826 62.307681 
L 383.567826 62.233763 
L 383.567826 61.776481 
L 383.132468 61.701665 
L 383.132468 61.718635 
L 383.132468 61.350174 
L 382.914789 61.350174 
L 382.914789 61.274571 
L 382.914789 60.344517 
L 382.69711 60.344517 
L 382.69711 60.267235 
L 382.69711 60.17349 
L 382.261752 60.189776 
L 382.261752 60.112139 
L 382.261752 59.923928 
L 382.044073 59.923928 
L 382.044073 59.845804 
L 382.044073 55.783784 
L 381.826394 55.783784 
L 381.826394 55.698714 
L 381.826394 55.40032 
L 381.608715 55.40032 
L 381.608715 55.314541 
L 381.608715 54.813997 
L 380.955678 54.841376 
L 380.955678 54.754468 
L 380.955678 53.84342 
L 380.737999 53.84342 
L 380.737999 53.754735 
L 380.737999 52.935184 
L 380.084962 52.857559 
L 380.084962 52.87027 
L 380.084962 51.831692 
L 379.649604 51.739252 
L 379.649604 51.751381 
L 379.649604 51.436609 
L 379.431925 51.436609 
L 379.431925 51.343345 
L 379.431925 51.237978 
L 379.214247 51.237978 
L 379.214247 51.144298 
L 379.214247 50.932801 
L 378.996568 50.932801 
L 378.996568 50.838515 
L 378.996568 50.732382 
L 378.778889 50.732382 
L 378.778889 50.637675 
L 378.778889 50.104096 
L 378.56121 50.104096 
L 378.56121 50.0082 
L 378.56121 49.685888 
L 378.343531 49.685888 
L 378.343531 49.589174 
L 378.343531 49.265077 
L 377.908173 49.2759 
L 377.908173 49.178313 
L 377.908173 49.069755 
L 377.255136 49.091224 
L 377.255136 48.993102 
L 377.255136 48.446665 
L 377.037457 48.446665 
L 377.037457 48.347301 
L 377.037457 48.237402 
L 376.819778 48.237402 
L 376.819778 48.137587 
L 376.819778 48.027348 
L 376.602099 48.027348 
L 376.602099 47.927079 
L 376.602099 47.816499 
L 376.166741 47.715774 
L 376.166741 47.725781 
L 376.166741 47.614794 
L 375.949062 47.614794 
L 375.949062 47.513558 
L 375.949062 47.402225 
L 375.078346 47.431784 
L 375.078346 47.329929 
L 375.078346 47.218055 
L 374.20763 47.135162 
L 374.20763 47.144895 
L 374.20763 46.468205 
L 373.772272 46.364199 
L 373.772272 46.373494 
L 373.772272 46.259927 
L 373.554593 46.259927 
L 373.554593 46.155386 
L 373.554593 45.927386 
L 373.119235 45.936435 
L 373.119235 45.83114 
L 373.119235 45.601985 
L 372.683877 45.495984 
L 372.683877 45.504795 
L 372.683877 45.389709 
L 372.248519 45.283158 
L 372.248519 45.291853 
L 372.248519 44.944834 
L 371.595482 44.845727 
L 371.595482 44.854176 
L 371.595482 44.621353 
L 370.942445 44.638003 
L 370.942445 44.529492 
L 370.942445 44.412487 
L 369.854051 44.327947 
L 369.854051 44.336128 
L 369.854051 43.982648 
L 369.201014 43.880327 
L 369.201014 43.888251 
L 369.201014 43.769739 
L 368.112619 43.682283 
L 368.112619 43.690112 
L 368.112619 43.570917 
L 367.241903 43.474669 
L 367.241903 43.482391 
L 367.241903 43.362582 
L 366.806545 43.370239 
L 366.806545 43.257788 
L 366.806545 43.137507 
L 366.588866 43.137507 
L 366.588866 43.145035 
L 366.588866 43.024518 
L 365.935829 42.918622 
L 365.935829 42.926028 
L 365.935829 42.683728 
L 364.629755 42.598361 
L 364.629755 42.605596 
L 364.629755 42.483575 
L 363.976718 42.497918 
L 363.976718 42.382685 
L 363.976718 42.260099 
L 363.759039 42.260099 
L 363.759039 42.267138 
L 363.759039 42.02131 
L 363.54136 42.02131 
L 363.54136 42.028201 
L 363.54136 41.904957 
L 362.670644 41.92545 
L 362.670644 41.80857 
L 362.670644 41.68467 
L 359.623139 41.64736 
L 359.623139 41.654098 
L 359.623139 41.403174 
L 358.752423 41.422952 
L 358.752423 41.429562 
L 358.752423 41.177283 
L 357.664028 41.076415 
L 357.664028 41.082821 
L 357.664028 40.955824 
L 355.487238 40.885183 
L 355.487238 40.891508 
L 355.487238 40.634921 
L 355.269559 40.634921 
L 355.269559 40.641083 
L 355.269559 40.3836 
L 355.05188 40.3836 
L 355.05188 40.389598 
L 355.05188 40.260497 
L 353.745806 40.290181 
L 353.745806 40.166333 
L 353.745806 40.03634 
L 353.528127 40.03634 
L 353.528127 40.042134 
L 353.528127 39.911868 
L 353.310449 39.911868 
L 353.310449 39.917582 
L 353.310449 39.787041 
L 352.439733 39.803964 
L 352.439733 39.678537 
L 352.439733 39.547265 
L 352.222054 39.547265 
L 352.222054 39.55275 
L 352.222054 39.4212 
L 351.351338 39.437433 
L 351.351338 39.310757 
L 351.351338 39.178465 
L 351.133659 39.178465 
L 351.133659 39.183716 
L 351.133659 39.051142 
L 350.91598 39.051142 
L 350.91598 39.05631 
L 350.91598 38.923452 
L 350.480622 38.928535 
L 350.480622 38.933625 
L 350.480622 38.80039 
L 347.868474 38.855844 
L 347.868474 38.726378 
L 347.868474 38.591629 
L 347.433116 38.596532 
L 347.433116 38.601443 
L 347.433116 38.466307 
L 346.344721 38.485639 
L 346.344721 38.49049 
L 346.344721 38.354676 
L 343.950253 38.265623 
L 343.950253 38.270357 
L 343.950253 38.133069 
L 343.732574 38.133069 
L 343.732574 38.137712 
L 343.732574 38.000121 
L 343.079537 38.00923 
L 343.079537 38.013794 
L 343.079537 37.737401 
L 342.4265 37.746151 
L 342.4265 37.750536 
L 342.4265 37.611729 
L 342.208821 37.611729 
L 342.208821 37.616019 
L 342.208821 37.476903 
L 341.991142 37.476903 
L 341.991142 37.481099 
L 341.991142 37.341672 
L 339.378994 37.246355 
L 339.378994 37.250421 
L 339.378994 37.109339 
L 339.161315 37.109339 
L 339.161315 37.113306 
L 339.161315 36.971905 
L 338.943636 36.971905 
L 338.943636 36.975775 
L 338.943636 36.834054 
L 338.508278 36.837824 
L 338.508278 36.8416 
L 338.508278 36.699452 
L 338.290599 36.699452 
L 338.290599 36.703128 
L 338.290599 36.417969 
L 337.419883 36.428393 
L 337.419883 36.431878 
L 337.419883 36.288543 
L 336.549167 36.298708 
L 336.549167 36.302107 
L 336.549167 36.15812 
L 335.678452 36.168022 
L 335.678452 36.171333 
L 335.678452 36.026688 
L 334.154699 36.046002 
L 334.154699 36.049239 
L 334.154699 35.757731 
L 328.495045 35.68572 
L 328.495045 35.688744 
L 328.495045 35.539454 
L 328.277366 35.539454 
L 328.277366 35.542367 
L 328.277366 35.392722 
L 327.624329 35.398328 
L 327.624329 35.401137 
L 327.624329 34.949704 
L 325.44754 34.971975 
L 325.44754 34.97447 
L 325.44754 34.822309 
L 324.794503 34.827068 
L 324.794503 34.829453 
L 324.794503 34.676681 
L 322.182355 34.701822 
L 322.182355 34.70413 
L 322.182355 34.549627 
L 313.475196 34.477865 
L 313.475196 34.480065 
L 313.475196 34.319864 
L 313.039838 34.321934 
L 313.039838 34.324007 
L 313.039838 34.163264 
L 311.733764 34.173005 
L 311.733764 34.174964 
L 311.733764 34.01313 
L 310.863048 34.018613 
L 310.863048 34.020447 
L 310.863048 33.857784 
L 301.285174 33.764436 
L 301.285174 33.766118 
L 301.285174 33.596529 
L 297.149273 33.624581 
L 297.149273 33.626166 
L 297.149273 33.453358 
L 296.713915 33.45479 
L 296.713915 33.456225 
L 296.713915 33.282787 
L 295.190162 33.290502 
L 295.190162 33.291796 
L 295.190162 33.11693 
L 290.401225 33.141245 
L 290.401225 33.142427 
L 290.401225 32.963636 
L 286.700682 32.980138 
L 286.700682 32.981186 
L 286.700682 32.799161 
L 280.605671 32.82344 
L 280.605671 32.824364 
L 280.605671 32.636989 
L 277.775844 32.645991 
L 277.775844 32.646751 
L 277.775844 32.456581 
L 277.558165 32.456581 
L 277.558165 32.457153 
L 277.558165 32.266414 
L 265.585822 32.288255 
L 265.585822 32.288683 
L 265.585822 32.086449 
L 250.130614 32.102681 
L 250.130614 32.102932 
L 250.130614 31.883787 
L 60.314548 31.883787 
L 60.314548 31.883787 
" style="fill:none;stroke:#0173b2;stroke-linecap:round;stroke-opacity:0.3;"/>
   </g>
   <g id="line2d_26">
    <path clip-path="url(#p178812068b)" d="M 389.880516 41.449449 
L 372.534939 41.449449 
L 372.534939 41.952905 
L 355.189362 41.952905 
L 355.189362 42.512301 
L 337.843785 42.512301 
L 337.843785 43.137507 
L 320.498207 43.137507 
L 320.498207 43.840865 
L 303.15263 43.840865 
L 303.15263 44.638003 
L 285.807053 44.638003 
L 285.807053 45.549019 
L 285.807053 45.549019 
L 285.807053 31.883787 
L 268.461475 31.883787 
L 268.461475 31.883787 
L 251.115898 31.883787 
L 251.115898 31.883787 
L 233.770321 31.883787 
L 233.770321 31.883787 
L 216.424744 31.883787 
L 216.424744 31.883787 
L 199.079166 31.883787 
L 199.079166 31.883787 
L 181.733589 31.883787 
L 181.733589 31.883787 
L 164.388012 31.883787 
L 164.388012 31.883787 
L 147.042435 31.883787 
L 147.042435 31.883787 
L 129.696857 31.883787 
L 129.696857 31.883787 
L 112.35128 31.883787 
L 112.35128 31.883787 
L 95.005703 31.883787 
L 95.005703 31.883787 
L 77.660126 31.883787 
L 77.660126 31.883787 
L 60.314548 31.883787 
L 60.314548 31.883787 
" style="fill:none;stroke:#de8f05;stroke-linecap:round;stroke-opacity:0.3;"/>
   </g>
   <g id="line2d_27">
    <path clip-path="url(#p178812068b)" d="M 389.880516 50.104096 
L 372.534939 50.104096 
L 372.534939 51.015111 
L 372.534939 51.015111 
L 372.534939 41.952905 
L 355.189362 41.952905 
L 355.189362 42.512301 
L 337.843785 42.512301 
L 337.843785 43.137507 
L 320.498207 43.137507 
L 320.498207 43.840865 
L 303.15263 43.840865 
L 303.15263 44.638003 
L 285.807053 44.638003 
L 285.807053 45.549019 
L 268.461475 45.549019 
L 268.461475 46.60019 
L 251.115898 46.60019 
L 251.115898 47.826557 
L 233.770321 47.826557 
L 233.770321 49.2759 
L 233.770321 49.2759 
L 233.770321 31.883787 
L 216.424744 31.883787 
L 216.424744 31.883787 
L 199.079166 31.883787 
L 199.079166 31.883787 
L 181.733589 31.883787 
L 181.733589 31.883787 
L 164.388012 31.883787 
L 164.388012 31.883787 
L 147.042435 31.883787 
L 147.042435 31.883787 
L 129.696857 31.883787 
L 129.696857 31.883787 
L 112.35128 31.883787 
L 112.35128 31.883787 
L 95.005703 31.883787 
L 95.005703 31.883787 
L 77.660126 31.883787 
L 77.660126 31.883787 
L 60.314548 31.883787 
L 60.314548 31.883787 
" style="fill:none;stroke:#029e73;stroke-linecap:round;stroke-opacity:0.3;"/>
   </g>
   <g id="line2d_28">
    <path clip-path="url(#p178812068b)" d="M 389.880516 164.780772 
L 381.641367 164.780772 
L 381.641367 165.803057 
L 381.641367 147.062168 
L 373.402218 147.062168 
L 373.402218 148.249574 
L 373.402218 146.671733 
L 365.163069 146.671733 
L 365.163069 147.892881 
L 365.163069 141.833927 
L 356.923919 141.833927 
L 356.923919 143.112417 
L 356.923919 76.659227 
L 348.68477 76.659227 
L 348.68477 77.632606 
L 348.68477 71.016041 
L 340.445621 71.016041 
L 340.445621 71.926094 
L 340.445621 52.022023 
L 332.206472 52.022023 
L 332.206472 52.5663 
L 332.206472 47.826557 
L 323.967323 47.826557 
L 323.967323 48.282065 
L 323.967323 37.681158 
L 315.728174 37.681158 
L 315.728174 37.862326 
L 307.489024 37.862326 
L 307.489024 38.055182 
L 307.489024 31.883787 
L 60.314548 31.883787 
L 60.314548 31.883787 
" style="fill:none;stroke:#d55e00;stroke-linecap:round;stroke-opacity:0.3;"/>
   </g>
   <g id="line2d_29">
    <path clip-path="url(#p178812068b)" d="M 389.880516 169.711607 
L 377.204902 169.711607 
L 377.204902 171.209736 
L 377.204902 46.055138 
L 364.529288 46.055138 
L 364.529288 46.60019 
L 364.529288 39.536317 
L 351.853674 39.536317 
L 351.853674 39.855172 
L 339.17806 39.855172 
L 339.17806 40.201754 
L 326.502446 40.201754 
L 326.502446 40.579844 
L 313.826831 40.579844 
L 313.826831 40.993942 
L 301.151217 40.993942 
L 301.151217 41.449449 
L 288.475603 41.449449 
L 288.475603 41.952905 
L 275.799989 41.952905 
L 275.799989 42.512301 
L 263.124375 42.512301 
L 263.124375 43.137507 
L 250.448761 43.137507 
L 250.448761 43.840865 
L 237.773146 43.840865 
L 237.773146 44.638003 
L 225.097532 44.638003 
L 225.097532 45.549019 
L 225.097532 31.883787 
L 60.314548 31.883787 
L 60.314548 31.883787 
" style="fill:none;stroke:#cc78bc;stroke-linecap:round;stroke-opacity:0.3;"/>
   </g>
   <g id="line2d_30">
    <path clip-path="url(#p178812068b)" d="M 60.314548 31.883787 
L 63.643498 31.883787 
L 66.972447 31.883787 
L 70.301396 31.883787 
L 73.630345 31.883787 
L 76.959294 31.883787 
L 80.288243 31.883787 
L 83.617193 31.883787 
L 86.946142 31.883787 
L 90.275091 31.883787 
L 93.60404 31.883787 
L 96.932989 31.883787 
L 100.261938 31.883787 
L 103.590888 31.883787 
L 106.919837 31.883787 
L 110.248786 31.883787 
L 113.577735 31.883787 
L 116.906684 31.883787 
L 120.235633 31.883787 
L 123.564583 31.883787 
L 126.893532 31.883787 
L 130.222481 31.883787 
L 133.55143 31.883787 
L 136.880379 31.883787 
L 140.209328 31.883787 
L 143.538278 31.883787 
L 146.867227 31.883787 
L 150.196176 31.883787 
L 153.525125 31.883787 
L 156.854074 31.883787 
L 160.183024 31.883787 
L 163.511973 31.883787 
L 166.840922 31.883787 
L 170.169871 31.883787 
L 173.49882 31.883787 
L 176.827769 31.883787 
L 180.156719 31.883787 
L 183.485668 31.883787 
L 186.814617 31.883787 
L 190.143566 31.883787 
L 193.472515 31.883787 
L 196.801464 31.883787 
L 200.130414 31.883787 
L 203.459363 31.883787 
L 206.788312 31.883787 
L 210.117261 31.883787 
L 213.44621 31.883787 
L 216.775159 31.883787 
L 220.104109 31.883787 
L 223.433058 31.883787 
L 226.762007 34.592908 
L 230.090956 34.545056 
L 233.419905 34.497205 
L 236.748854 37.878001 
L 240.077804 37.778659 
L 243.406753 37.681158 
L 246.735702 37.583657 
L 250.064651 37.486156 
L 253.3936 37.441957 
L 256.722549 37.357211 
L 260.051499 37.272489 
L 263.380448 37.188106 
L 266.709397 37.147761 
L 270.038346 37.069759 
L 273.367295 36.995336 
L 276.696244 36.921881 
L 280.025194 36.926358 
L 283.354143 36.891399 
L 286.683092 39.544209 
L 290.012041 39.479491 
L 293.34099 39.41535 
L 296.66994 39.350248 
L 299.998889 39.318386 
L 303.327838 39.253074 
L 306.656787 39.196091 
L 309.985736 40.328264 
L 313.314685 40.318908 
L 316.643635 40.277308 
L 319.972584 40.17284 
L 323.301533 40.105379 
L 326.630482 42.171245 
L 329.959431 42.231742 
L 333.28838 43.057298 
L 336.61733 43.045715 
L 339.946279 43.147929 
L 343.275228 47.119288 
L 346.604177 47.074552 
L 349.933126 48.321863 
L 353.262075 48.372682 
L 356.591025 48.471174 
L 359.919974 61.757851 
L 363.248923 61.623672 
L 366.577872 64.302045 
L 369.906821 64.393644 
L 373.23577 66.354745 
L 376.56472 66.866819 
L 379.893669 92.483264 
L 383.222618 97.982689 
L 386.551567 98.978216 
L 389.880516 223.19703 
" style="fill:none;stroke:#0173b2;stroke-linecap:round;stroke-opacity:0.8;stroke-width:2;"/>
   </g>
   <g id="line2d_31">
    <path clip-path="url(#p178812068b)" d="M 60.314548 31.883787 
L 63.643498 66.474767 
L 66.972447 62.803099 
L 70.301396 59.947675 
L 73.630345 56.671191 
L 76.959294 52.763417 
L 80.288243 50.865104 
L 83.617193 49.526738 
L 86.946142 48.516905 
L 90.275091 47.457815 
L 93.60404 46.128612 
L 96.932989 45.388164 
L 100.261938 45.077649 
L 103.590888 44.71696 
L 106.919837 44.79631 
L 110.248786 44.330724 
L 113.577735 43.662605 
L 116.906684 43.5529 
L 120.235633 43.291931 
L 123.564583 43.355252 
L 126.893532 42.949208 
L 130.222481 43.063002 
L 133.55143 43.766842 
L 136.880379 44.504322 
L 140.209328 44.818242 
L 143.538278 45.940008 
L 146.867227 46.327222 
L 150.196176 46.932078 
L 153.525125 48.041387 
L 156.854074 48.571802 
L 160.183024 51.818434 
L 163.511973 51.74003 
L 166.840922 52.125601 
L 170.169871 54.656535 
L 173.49882 54.935343 
L 176.827769 54.775067 
L 180.156719 54.529409 
L 183.485668 54.671572 
L 186.814617 54.566086 
L 190.143566 54.535196 
L 193.472515 55.087875 
L 196.801464 55.368033 
L 200.130414 55.551353 
L 203.459363 55.849264 
L 206.788312 55.786411 
L 210.117261 55.907345 
L 213.44621 56.013828 
L 216.775159 56.088138 
L 220.104109 59.263205 
L 223.433058 59.188223 
L 226.762007 60.304629 
L 230.090956 60.346687 
L 233.419905 60.745824 
L 236.748854 66.188907 
L 240.077804 65.9819 
L 243.406753 67.792716 
L 246.735702 67.753118 
L 250.064651 69.395989 
L 253.3936 69.127213 
L 256.722549 68.807464 
L 260.051499 69.343266 
L 263.380448 69.018017 
L 266.709397 70.160854 
L 270.038346 79.191865 
L 273.367295 78.778187 
L 276.696244 80.346289 
L 280.025194 79.955001 
L 283.354143 85.335981 
L 286.683092 84.894482 
L 290.012041 84.457924 
L 293.34099 84.696474 
L 296.66994 84.27008 
L 299.998889 84.473237 
L 303.327838 88.136109 
L 306.656787 87.732661 
L 309.985736 89.672497 
L 313.314685 89.269066 
L 316.643635 89.313887 
L 319.972584 88.918309 
L 323.301533 93.727482 
L 326.630482 94.580801 
L 329.959431 94.217138 
L 333.28838 96.49241 
L 336.61733 96.132563 
L 339.946279 99.161326 
L 343.275228 100.790325 
L 346.604177 100.43797 
L 349.933126 101.579352 
L 353.262075 101.249224 
L 356.591025 100.955166 
L 359.919974 104.141783 
L 363.248923 103.928627 
L 366.577872 104.760248 
L 369.906821 104.708254 
L 373.23577 113.623193 
L 376.56472 114.409284 
L 379.893669 150.564757 
L 383.222618 153.776488 
L 386.551567 160.34264 
L 389.880516 223.19703 
" style="fill:none;stroke:#d55e00;stroke-linecap:round;stroke-opacity:0.8;stroke-width:2;"/>
   </g>
   <g id="patch_3">
    <path d="M 43.83625 232.762692 
L 43.83625 22.318125 
" style="fill:none;stroke:#262626;stroke-linecap:square;stroke-linejoin:miter;stroke-width:0.6;"/>
   </g>
   <g id="patch_4">
    <path d="M 406.358815 232.762692 
L 406.358815 22.318125 
" style="fill:none;stroke:#262626;stroke-linecap:square;stroke-linejoin:miter;stroke-width:0.6;"/>
   </g>
   <g id="patch_5">
    <path d="M 43.83625 232.762692 
L 406.358815 232.762692 
" style="fill:none;stroke:#262626;stroke-linecap:square;stroke-linejoin:miter;stroke-width:0.6;"/>
   </g>
   <g id="patch_6">
    <path d="M 43.83625 22.318125 
L 406.358815 22.318125 
" style="fill:none;stroke:#262626;stroke-linecap:square;stroke-linejoin:miter;stroke-width:0.6;"/>
   </g>
   <g id="text_15">
    <!-- Precision Recall Curves Train Set -->
    <g style="fill:#262626;" transform="translate(127.727845 16.318125)scale(0.12 -0.12)">
     <defs>
      <path d="M 64.40625 67.28125 
L 64.40625 56.890625 
Q 59.421875 61.53125 53.78125 63.8125 
Q 48.140625 66.109375 41.796875 66.109375 
Q 29.296875 66.109375 22.65625 58.46875 
Q 16.015625 50.828125 16.015625 36.375 
Q 16.015625 21.96875 22.65625 14.328125 
Q 29.296875 6.6875 41.796875 6.6875 
Q 48.140625 6.6875 53.78125 8.984375 
Q 59.421875 11.28125 64.40625 15.921875 
L 64.40625 5.609375 
Q 59.234375 2.09375 53.4375 0.328125 
Q 47.65625 -1.421875 41.21875 -1.421875 
Q 24.65625 -1.421875 15.125 8.703125 
Q 5.609375 18.84375 5.609375 36.375 
Q 5.609375 53.953125 15.125 64.078125 
Q 24.65625 74.21875 41.21875 74.21875 
Q 47.75 74.21875 53.53125 72.484375 
Q 59.328125 70.75 64.40625 67.28125 
z
" id="DejaVuSans-67"/>
      <path d="M 53.515625 70.515625 
L 53.515625 60.890625 
Q 47.90625 63.578125 42.921875 64.890625 
Q 37.9375 66.21875 33.296875 66.21875 
Q 25.25 66.21875 20.875 63.09375 
Q 16.5 59.96875 16.5 54.203125 
Q 16.5 49.359375 19.40625 46.890625 
Q 22.3125 44.4375 30.421875 42.921875 
L 36.375 41.703125 
Q 47.40625 39.59375 52.65625 34.296875 
Q 57.90625 29 57.90625 20.125 
Q 57.90625 9.515625 50.796875 4.046875 
Q 43.703125 -1.421875 29.984375 -1.421875 
Q 24.8125 -1.421875 18.96875 -0.25 
Q 13.140625 0.921875 6.890625 3.21875 
L 6.890625 13.375 
Q 12.890625 10.015625 18.65625 8.296875 
Q 24.421875 6.59375 29.984375 6.59375 
Q 38.421875 6.59375 43.015625 9.90625 
Q 47.609375 13.234375 47.609375 19.390625 
Q 47.609375 24.75 44.3125 27.78125 
Q 41.015625 30.8125 33.5 32.328125 
L 27.484375 33.5 
Q 16.453125 35.6875 11.515625 40.375 
Q 6.59375 45.0625 6.59375 53.421875 
Q 6.59375 63.09375 13.40625 68.65625 
Q 20.21875 74.21875 32.171875 74.21875 
Q 37.3125 74.21875 42.625 73.28125 
Q 47.953125 72.359375 53.515625 70.515625 
z
" id="DejaVuSans-83"/>
     </defs>
     <use xlink:href="#DejaVuSans-80"/>
     <use x="58.552734" xlink:href="#DejaVuSans-114"/>
     <use x="97.416016" xlink:href="#DejaVuSans-101"/>
     <use x="158.939453" xlink:href="#DejaVuSans-99"/>
     <use x="213.919922" xlink:href="#DejaVuSans-105"/>
     <use x="241.703125" xlink:href="#DejaVuSans-115"/>
     <use x="293.802734" xlink:href="#DejaVuSans-105"/>
     <use x="321.585938" xlink:href="#DejaVuSans-111"/>
     <use x="382.767578" xlink:href="#DejaVuSans-110"/>
     <use x="446.146484" xlink:href="#DejaVuSans-32"/>
     <use x="477.933594" xlink:href="#DejaVuSans-82"/>
     <use x="542.916016" xlink:href="#DejaVuSans-101"/>
     <use x="604.439453" xlink:href="#DejaVuSans-99"/>
     <use x="659.419922" xlink:href="#DejaVuSans-97"/>
     <use x="720.699219" xlink:href="#DejaVuSans-108"/>
     <use x="748.482422" xlink:href="#DejaVuSans-108"/>
     <use x="776.265625" xlink:href="#DejaVuSans-32"/>
     <use x="808.052734" xlink:href="#DejaVuSans-67"/>
     <use x="877.876953" xlink:href="#DejaVuSans-117"/>
     <use x="941.255859" xlink:href="#DejaVuSans-114"/>
     <use x="982.369141" xlink:href="#DejaVuSans-118"/>
     <use x="1041.548828" xlink:href="#DejaVuSans-101"/>
     <use x="1103.072266" xlink:href="#DejaVuSans-115"/>
     <use x="1155.171875" xlink:href="#DejaVuSans-32"/>
     <use x="1186.958984" xlink:href="#DejaVuSans-84"/>
     <use x="1233.292969" xlink:href="#DejaVuSans-114"/>
     <use x="1274.40625" xlink:href="#DejaVuSans-97"/>
     <use x="1335.685547" xlink:href="#DejaVuSans-105"/>
     <use x="1363.46875" xlink:href="#DejaVuSans-110"/>
     <use x="1426.847656" xlink:href="#DejaVuSans-32"/>
     <use x="1458.634766" xlink:href="#DejaVuSans-83"/>
     <use x="1522.111328" xlink:href="#DejaVuSans-101"/>
     <use x="1583.634766" xlink:href="#DejaVuSans-116"/>
    </g>
   </g>
   <g id="legend_1">
    <g id="line2d_32">
     <path d="M 417.158815 65.003533 
L 441.158815 65.003533 
" style="fill:none;stroke:#0173b2;stroke-linecap:round;stroke-opacity:0.3;"/>
    </g>
    <g id="line2d_33"/>
    <g id="text_16">
     <!-- assembly (AP = 0.99) -->
     <g style="fill:#262626;" transform="translate(450.758815 69.203533)scale(0.12 -0.12)">
      <defs>
       <path d="M 52 44.1875 
Q 55.375 50.25 60.0625 53.125 
Q 64.75 56 71.09375 56 
Q 79.640625 56 84.28125 50.015625 
Q 88.921875 44.046875 88.921875 33.015625 
L 88.921875 0 
L 79.890625 0 
L 79.890625 32.71875 
Q 79.890625 40.578125 77.09375 44.375 
Q 74.3125 48.1875 68.609375 48.1875 
Q 61.625 48.1875 57.5625 43.546875 
Q 53.515625 38.921875 53.515625 30.90625 
L 53.515625 0 
L 44.484375 0 
L 44.484375 32.71875 
Q 44.484375 40.625 41.703125 44.40625 
Q 38.921875 48.1875 33.109375 48.1875 
Q 26.21875 48.1875 22.15625 43.53125 
Q 18.109375 38.875 18.109375 30.90625 
L 18.109375 0 
L 9.078125 0 
L 9.078125 54.6875 
L 18.109375 54.6875 
L 18.109375 46.1875 
Q 21.1875 51.21875 25.484375 53.609375 
Q 29.78125 56 35.6875 56 
Q 41.65625 56 45.828125 52.96875 
Q 50 49.953125 52 44.1875 
z
" id="DejaVuSans-109"/>
       <path d="M 32.171875 -5.078125 
Q 28.375 -14.84375 24.75 -17.8125 
Q 21.140625 -20.796875 15.09375 -20.796875 
L 7.90625 -20.796875 
L 7.90625 -13.28125 
L 13.1875 -13.28125 
Q 16.890625 -13.28125 18.9375 -11.515625 
Q 21 -9.765625 23.484375 -3.21875 
L 25.09375 0.875 
L 2.984375 54.6875 
L 12.5 54.6875 
L 29.59375 11.921875 
L 46.6875 54.6875 
L 56.203125 54.6875 
z
" id="DejaVuSans-121"/>
       <path d="M 34.1875 63.1875 
L 20.796875 26.90625 
L 47.609375 26.90625 
z
M 28.609375 72.90625 
L 39.796875 72.90625 
L 67.578125 0 
L 57.328125 0 
L 50.6875 18.703125 
L 17.828125 18.703125 
L 11.1875 0 
L 0.78125 0 
z
" id="DejaVuSans-65"/>
       <path d="M 10.59375 45.40625 
L 73.1875 45.40625 
L 73.1875 37.203125 
L 10.59375 37.203125 
z
M 10.59375 25.484375 
L 73.1875 25.484375 
L 73.1875 17.1875 
L 10.59375 17.1875 
z
" id="DejaVuSans-61"/>
       <path d="M 10.984375 1.515625 
L 10.984375 10.5 
Q 14.703125 8.734375 18.5 7.8125 
Q 22.3125 6.890625 25.984375 6.890625 
Q 35.75 6.890625 40.890625 13.453125 
Q 46.046875 20.015625 46.78125 33.40625 
Q 43.953125 29.203125 39.59375 26.953125 
Q 35.25 24.703125 29.984375 24.703125 
Q 19.046875 24.703125 12.671875 31.3125 
Q 6.296875 37.9375 6.296875 49.421875 
Q 6.296875 60.640625 12.9375 67.421875 
Q 19.578125 74.21875 30.609375 74.21875 
Q 43.265625 74.21875 49.921875 64.515625 
Q 56.59375 54.828125 56.59375 36.375 
Q 56.59375 19.140625 48.40625 8.859375 
Q 40.234375 -1.421875 26.421875 -1.421875 
Q 22.703125 -1.421875 18.890625 -0.6875 
Q 15.09375 0.046875 10.984375 1.515625 
z
M 30.609375 32.421875 
Q 37.25 32.421875 41.125 36.953125 
Q 45.015625 41.5 45.015625 49.421875 
Q 45.015625 57.28125 41.125 61.84375 
Q 37.25 66.40625 30.609375 66.40625 
Q 23.96875 66.40625 20.09375 61.84375 
Q 16.21875 57.28125 16.21875 49.421875 
Q 16.21875 41.5 20.09375 36.953125 
Q 23.96875 32.421875 30.609375 32.421875 
z
" id="DejaVuSans-57"/>
      </defs>
      <use xlink:href="#DejaVuSans-97"/>
      <use x="61.279297" xlink:href="#DejaVuSans-115"/>
      <use x="113.378906" xlink:href="#DejaVuSans-115"/>
      <use x="165.478516" xlink:href="#DejaVuSans-101"/>
      <use x="227.001953" xlink:href="#DejaVuSans-109"/>
      <use x="324.414062" xlink:href="#DejaVuSans-98"/>
      <use x="387.890625" xlink:href="#DejaVuSans-108"/>
      <use x="415.673828" xlink:href="#DejaVuSans-121"/>
      <use x="474.853516" xlink:href="#DejaVuSans-32"/>
      <use x="506.640625" xlink:href="#DejaVuSans-40"/>
      <use x="545.654297" xlink:href="#DejaVuSans-65"/>
      <use x="614.0625" xlink:href="#DejaVuSans-80"/>
      <use x="674.365234" xlink:href="#DejaVuSans-32"/>
      <use x="706.152344" xlink:href="#DejaVuSans-61"/>
      <use x="789.941406" xlink:href="#DejaVuSans-32"/>
      <use x="821.728516" xlink:href="#DejaVuSans-48"/>
      <use x="885.351562" xlink:href="#DejaVuSans-46"/>
      <use x="917.138672" xlink:href="#DejaVuSans-57"/>
      <use x="980.761719" xlink:href="#DejaVuSans-57"/>
      <use x="1044.384766" xlink:href="#DejaVuSans-41"/>
     </g>
    </g>
    <g id="line2d_34">
     <path d="M 417.158815 82.617283 
L 441.158815 82.617283 
" style="fill:none;stroke:#de8f05;stroke-linecap:round;stroke-opacity:0.3;"/>
    </g>
    <g id="line2d_35"/>
    <g id="text_17">
     <!-- dual (AP = 0.98) -->
     <g style="fill:#262626;" transform="translate(450.758815 86.817283)scale(0.12 -0.12)">
      <defs>
       <path d="M 45.40625 46.390625 
L 45.40625 75.984375 
L 54.390625 75.984375 
L 54.390625 0 
L 45.40625 0 
L 45.40625 8.203125 
Q 42.578125 3.328125 38.25 0.953125 
Q 33.9375 -1.421875 27.875 -1.421875 
Q 17.96875 -1.421875 11.734375 6.484375 
Q 5.515625 14.40625 5.515625 27.296875 
Q 5.515625 40.1875 11.734375 48.09375 
Q 17.96875 56 27.875 56 
Q 33.9375 56 38.25 53.625 
Q 42.578125 51.265625 45.40625 46.390625 
z
M 14.796875 27.296875 
Q 14.796875 17.390625 18.875 11.75 
Q 22.953125 6.109375 30.078125 6.109375 
Q 37.203125 6.109375 41.296875 11.75 
Q 45.40625 17.390625 45.40625 27.296875 
Q 45.40625 37.203125 41.296875 42.84375 
Q 37.203125 48.484375 30.078125 48.484375 
Q 22.953125 48.484375 18.875 42.84375 
Q 14.796875 37.203125 14.796875 27.296875 
z
" id="DejaVuSans-100"/>
      </defs>
      <use xlink:href="#DejaVuSans-100"/>
      <use x="63.476562" xlink:href="#DejaVuSans-117"/>
      <use x="126.855469" xlink:href="#DejaVuSans-97"/>
      <use x="188.134766" xlink:href="#DejaVuSans-108"/>
      <use x="215.917969" xlink:href="#DejaVuSans-32"/>
      <use x="247.705078" xlink:href="#DejaVuSans-40"/>
      <use x="286.71875" xlink:href="#DejaVuSans-65"/>
      <use x="355.126953" xlink:href="#DejaVuSans-80"/>
      <use x="415.429688" xlink:href="#DejaVuSans-32"/>
      <use x="447.216797" xlink:href="#DejaVuSans-61"/>
      <use x="531.005859" xlink:href="#DejaVuSans-32"/>
      <use x="562.792969" xlink:href="#DejaVuSans-48"/>
      <use x="626.416016" xlink:href="#DejaVuSans-46"/>
      <use x="658.203125" xlink:href="#DejaVuSans-57"/>
      <use x="721.826172" xlink:href="#DejaVuSans-56"/>
      <use x="785.449219" xlink:href="#DejaVuSans-41"/>
     </g>
    </g>
    <g id="line2d_36">
     <path d="M 417.158815 100.231033 
L 441.158815 100.231033 
" style="fill:none;stroke:#029e73;stroke-linecap:round;stroke-opacity:0.3;"/>
    </g>
    <g id="line2d_37"/>
    <g id="text_18">
     <!-- gis (AP = 0.97) -->
     <g style="fill:#262626;" transform="translate(450.758815 104.431033)scale(0.12 -0.12)">
      <defs>
       <path d="M 45.40625 27.984375 
Q 45.40625 37.75 41.375 43.109375 
Q 37.359375 48.484375 30.078125 48.484375 
Q 22.859375 48.484375 18.828125 43.109375 
Q 14.796875 37.75 14.796875 27.984375 
Q 14.796875 18.265625 18.828125 12.890625 
Q 22.859375 7.515625 30.078125 7.515625 
Q 37.359375 7.515625 41.375 12.890625 
Q 45.40625 18.265625 45.40625 27.984375 
z
M 54.390625 6.78125 
Q 54.390625 -7.171875 48.1875 -13.984375 
Q 42 -20.796875 29.203125 -20.796875 
Q 24.46875 -20.796875 20.265625 -20.09375 
Q 16.0625 -19.390625 12.109375 -17.921875 
L 12.109375 -9.1875 
Q 16.0625 -11.328125 19.921875 -12.34375 
Q 23.78125 -13.375 27.78125 -13.375 
Q 36.625 -13.375 41.015625 -8.765625 
Q 45.40625 -4.15625 45.40625 5.171875 
L 45.40625 9.625 
Q 42.625 4.78125 38.28125 2.390625 
Q 33.9375 0 27.875 0 
Q 17.828125 0 11.671875 7.65625 
Q 5.515625 15.328125 5.515625 27.984375 
Q 5.515625 40.671875 11.671875 48.328125 
Q 17.828125 56 27.875 56 
Q 33.9375 56 38.28125 53.609375 
Q 42.625 51.21875 45.40625 46.390625 
L 45.40625 54.6875 
L 54.390625 54.6875 
z
" id="DejaVuSans-103"/>
       <path d="M 8.203125 72.90625 
L 55.078125 72.90625 
L 55.078125 68.703125 
L 28.609375 0 
L 18.3125 0 
L 43.21875 64.59375 
L 8.203125 64.59375 
z
" id="DejaVuSans-55"/>
      </defs>
      <use xlink:href="#DejaVuSans-103"/>
      <use x="63.476562" xlink:href="#DejaVuSans-105"/>
      <use x="91.259766" xlink:href="#DejaVuSans-115"/>
      <use x="143.359375" xlink:href="#DejaVuSans-32"/>
      <use x="175.146484" xlink:href="#DejaVuSans-40"/>
      <use x="214.160156" xlink:href="#DejaVuSans-65"/>
      <use x="282.568359" xlink:href="#DejaVuSans-80"/>
      <use x="342.871094" xlink:href="#DejaVuSans-32"/>
      <use x="374.658203" xlink:href="#DejaVuSans-61"/>
      <use x="458.447266" xlink:href="#DejaVuSans-32"/>
      <use x="490.234375" xlink:href="#DejaVuSans-48"/>
      <use x="553.857422" xlink:href="#DejaVuSans-46"/>
      <use x="585.644531" xlink:href="#DejaVuSans-57"/>
      <use x="649.267578" xlink:href="#DejaVuSans-55"/>
      <use x="712.890625" xlink:href="#DejaVuSans-41"/>
     </g>
    </g>
    <g id="line2d_38">
     <path d="M 417.158815 117.844783 
L 441.158815 117.844783 
" style="fill:none;stroke:#d55e00;stroke-linecap:round;stroke-opacity:0.3;"/>
    </g>
    <g id="line2d_39"/>
    <g id="text_19">
     <!-- hmp (AP = 0.92) -->
     <g style="fill:#262626;" transform="translate(450.758815 122.044783)scale(0.12 -0.12)">
      <defs>
       <path d="M 54.890625 33.015625 
L 54.890625 0 
L 45.90625 0 
L 45.90625 32.71875 
Q 45.90625 40.484375 42.875 44.328125 
Q 39.84375 48.1875 33.796875 48.1875 
Q 26.515625 48.1875 22.3125 43.546875 
Q 18.109375 38.921875 18.109375 30.90625 
L 18.109375 0 
L 9.078125 0 
L 9.078125 75.984375 
L 18.109375 75.984375 
L 18.109375 46.1875 
Q 21.34375 51.125 25.703125 53.5625 
Q 30.078125 56 35.796875 56 
Q 45.21875 56 50.046875 50.171875 
Q 54.890625 44.34375 54.890625 33.015625 
z
" id="DejaVuSans-104"/>
       <path d="M 18.109375 8.203125 
L 18.109375 -20.796875 
L 9.078125 -20.796875 
L 9.078125 54.6875 
L 18.109375 54.6875 
L 18.109375 46.390625 
Q 20.953125 51.265625 25.265625 53.625 
Q 29.59375 56 35.59375 56 
Q 45.5625 56 51.78125 48.09375 
Q 58.015625 40.1875 58.015625 27.296875 
Q 58.015625 14.40625 51.78125 6.484375 
Q 45.5625 -1.421875 35.59375 -1.421875 
Q 29.59375 -1.421875 25.265625 0.953125 
Q 20.953125 3.328125 18.109375 8.203125 
z
M 48.6875 27.296875 
Q 48.6875 37.203125 44.609375 42.84375 
Q 40.53125 48.484375 33.40625 48.484375 
Q 26.265625 48.484375 22.1875 42.84375 
Q 18.109375 37.203125 18.109375 27.296875 
Q 18.109375 17.390625 22.1875 11.75 
Q 26.265625 6.109375 33.40625 6.109375 
Q 40.53125 6.109375 44.609375 11.75 
Q 48.6875 17.390625 48.6875 27.296875 
z
" id="DejaVuSans-112"/>
      </defs>
      <use xlink:href="#DejaVuSans-104"/>
      <use x="63.378906" xlink:href="#DejaVuSans-109"/>
      <use x="160.791016" xlink:href="#DejaVuSans-112"/>
      <use x="224.267578" xlink:href="#DejaVuSans-32"/>
      <use x="256.054688" xlink:href="#DejaVuSans-40"/>
      <use x="295.068359" xlink:href="#DejaVuSans-65"/>
      <use x="363.476562" xlink:href="#DejaVuSans-80"/>
      <use x="423.779297" xlink:href="#DejaVuSans-32"/>
      <use x="455.566406" xlink:href="#DejaVuSans-61"/>
      <use x="539.355469" xlink:href="#DejaVuSans-32"/>
      <use x="571.142578" xlink:href="#DejaVuSans-48"/>
      <use x="634.765625" xlink:href="#DejaVuSans-46"/>
      <use x="666.552734" xlink:href="#DejaVuSans-57"/>
      <use x="730.175781" xlink:href="#DejaVuSans-50"/>
      <use x="793.798828" xlink:href="#DejaVuSans-41"/>
     </g>
    </g>
    <g id="line2d_40">
     <path d="M 417.158815 135.458533 
L 441.158815 135.458533 
" style="fill:none;stroke:#cc78bc;stroke-linecap:round;stroke-opacity:0.3;"/>
    </g>
    <g id="line2d_41"/>
    <g id="text_20">
     <!-- mbarc (AP = 0.95) -->
     <g style="fill:#262626;" transform="translate(450.758815 139.658533)scale(0.12 -0.12)">
      <defs>
       <path d="M 10.796875 72.90625 
L 49.515625 72.90625 
L 49.515625 64.59375 
L 19.828125 64.59375 
L 19.828125 46.734375 
Q 21.96875 47.46875 24.109375 47.828125 
Q 26.265625 48.1875 28.421875 48.1875 
Q 40.625 48.1875 47.75 41.5 
Q 54.890625 34.8125 54.890625 23.390625 
Q 54.890625 11.625 47.5625 5.09375 
Q 40.234375 -1.421875 26.90625 -1.421875 
Q 22.3125 -1.421875 17.546875 -0.640625 
Q 12.796875 0.140625 7.71875 1.703125 
L 7.71875 11.625 
Q 12.109375 9.234375 16.796875 8.0625 
Q 21.484375 6.890625 26.703125 6.890625 
Q 35.15625 6.890625 40.078125 11.328125 
Q 45.015625 15.765625 45.015625 23.390625 
Q 45.015625 31 40.078125 35.4375 
Q 35.15625 39.890625 26.703125 39.890625 
Q 22.75 39.890625 18.8125 39.015625 
Q 14.890625 38.140625 10.796875 36.28125 
z
" id="DejaVuSans-53"/>
      </defs>
      <use xlink:href="#DejaVuSans-109"/>
      <use x="97.412109" xlink:href="#DejaVuSans-98"/>
      <use x="160.888672" xlink:href="#DejaVuSans-97"/>
      <use x="222.167969" xlink:href="#DejaVuSans-114"/>
      <use x="261.03125" xlink:href="#DejaVuSans-99"/>
      <use x="316.011719" xlink:href="#DejaVuSans-32"/>
      <use x="347.798828" xlink:href="#DejaVuSans-40"/>
      <use x="386.8125" xlink:href="#DejaVuSans-65"/>
      <use x="455.220703" xlink:href="#DejaVuSans-80"/>
      <use x="515.523438" xlink:href="#DejaVuSans-32"/>
      <use x="547.310547" xlink:href="#DejaVuSans-61"/>
      <use x="631.099609" xlink:href="#DejaVuSans-32"/>
      <use x="662.886719" xlink:href="#DejaVuSans-48"/>
      <use x="726.509766" xlink:href="#DejaVuSans-46"/>
      <use x="758.296875" xlink:href="#DejaVuSans-57"/>
      <use x="821.919922" xlink:href="#DejaVuSans-53"/>
      <use x="885.542969" xlink:href="#DejaVuSans-41"/>
     </g>
    </g>
    <g id="line2d_42">
     <path d="M 417.158815 153.072283 
L 441.158815 153.072283 
" style="fill:none;stroke:#0173b2;stroke-linecap:round;stroke-opacity:0.8;stroke-width:2;"/>
    </g>
    <g id="line2d_43"/>
    <g id="text_21">
     <!-- Mean PR (AP = 0.96 $\pm$ 0.02) -->
     <g style="fill:#262626;" transform="translate(450.758815 157.272283)scale(0.12 -0.12)">
      <defs>
       <path d="M 9.8125 72.90625 
L 24.515625 72.90625 
L 43.109375 23.296875 
L 61.8125 72.90625 
L 76.515625 72.90625 
L 76.515625 0 
L 66.890625 0 
L 66.890625 64.015625 
L 48.09375 14.015625 
L 38.1875 14.015625 
L 19.390625 64.015625 
L 19.390625 0 
L 9.8125 0 
z
" id="DejaVuSans-77"/>
       <path d="M 46 62.703125 
L 46 43.796875 
L 73.1875 43.796875 
L 73.1875 35.5 
L 46 35.5 
L 46 16.609375 
L 37.796875 16.609375 
L 37.796875 35.5 
L 10.59375 35.5 
L 10.59375 43.796875 
L 37.796875 43.796875 
L 37.796875 62.703125 
z
M 10.59375 8.296875 
L 73.1875 8.296875 
L 73.1875 0 
L 10.59375 0 
z
" id="DejaVuSans-177"/>
      </defs>
      <use transform="translate(0 0.125)" xlink:href="#DejaVuSans-77"/>
      <use transform="translate(86.279297 0.125)" xlink:href="#DejaVuSans-101"/>
      <use transform="translate(147.802734 0.125)" xlink:href="#DejaVuSans-97"/>
      <use transform="translate(209.082031 0.125)" xlink:href="#DejaVuSans-110"/>
      <use transform="translate(272.460938 0.125)" xlink:href="#DejaVuSans-32"/>
      <use transform="translate(304.248047 0.125)" xlink:href="#DejaVuSans-80"/>
      <use transform="translate(364.550781 0.125)" xlink:href="#DejaVuSans-82"/>
      <use transform="translate(434.033203 0.125)" xlink:href="#DejaVuSans-32"/>
      <use transform="translate(465.820312 0.125)" xlink:href="#DejaVuSans-40"/>
      <use transform="translate(504.833984 0.125)" xlink:href="#DejaVuSans-65"/>
      <use transform="translate(573.242188 0.125)" xlink:href="#DejaVuSans-80"/>
      <use transform="translate(633.544922 0.125)" xlink:href="#DejaVuSans-32"/>
      <use transform="translate(665.332031 0.125)" xlink:href="#DejaVuSans-61"/>
      <use transform="translate(749.121094 0.125)" xlink:href="#DejaVuSans-32"/>
      <use transform="translate(780.908203 0.125)" xlink:href="#DejaVuSans-48"/>
      <use transform="translate(844.53125 0.125)" xlink:href="#DejaVuSans-46"/>
      <use transform="translate(876.318359 0.125)" xlink:href="#DejaVuSans-57"/>
      <use transform="translate(939.941406 0.125)" xlink:href="#DejaVuSans-54"/>
      <use transform="translate(1003.564453 0.125)" xlink:href="#DejaVuSans-32"/>
      <use transform="translate(1035.351562 0.125)" xlink:href="#DejaVuSans-177"/>
      <use transform="translate(1119.140625 0.125)" xlink:href="#DejaVuSans-32"/>
      <use transform="translate(1150.927734 0.125)" xlink:href="#DejaVuSans-48"/>
      <use transform="translate(1214.550781 0.125)" xlink:href="#DejaVuSans-46"/>
      <use transform="translate(1246.337891 0.125)" xlink:href="#DejaVuSans-48"/>
      <use transform="translate(1309.960938 0.125)" xlink:href="#DejaVuSans-50"/>
      <use transform="translate(1373.583984 0.125)" xlink:href="#DejaVuSans-41"/>
     </g>
    </g>
    <g id="line2d_44">
     <path d="M 417.158815 170.686033 
L 441.158815 170.686033 
" style="fill:none;stroke:#d55e00;stroke-linecap:round;stroke-opacity:0.8;stroke-width:2;"/>
    </g>
    <g id="line2d_45"/>
    <g id="text_22">
     <!-- Baseline Mean PR (AP = 0.80 $\pm$ 0.13) -->
     <g style="fill:#262626;" transform="translate(450.758815 174.886033)scale(0.12 -0.12)">
      <defs>
       <path d="M 19.671875 34.8125 
L 19.671875 8.109375 
L 35.5 8.109375 
Q 43.453125 8.109375 47.28125 11.40625 
Q 51.125 14.703125 51.125 21.484375 
Q 51.125 28.328125 47.28125 31.5625 
Q 43.453125 34.8125 35.5 34.8125 
z
M 19.671875 64.796875 
L 19.671875 42.828125 
L 34.28125 42.828125 
Q 41.5 42.828125 45.03125 45.53125 
Q 48.578125 48.25 48.578125 53.8125 
Q 48.578125 59.328125 45.03125 62.0625 
Q 41.5 64.796875 34.28125 64.796875 
z
M 9.8125 72.90625 
L 35.015625 72.90625 
Q 46.296875 72.90625 52.390625 68.21875 
Q 58.5 63.53125 58.5 54.890625 
Q 58.5 48.1875 55.375 44.234375 
Q 52.25 40.28125 46.1875 39.3125 
Q 53.46875 37.75 57.5 32.78125 
Q 61.53125 27.828125 61.53125 20.40625 
Q 61.53125 10.640625 54.890625 5.3125 
Q 48.25 0 35.984375 0 
L 9.8125 0 
z
" id="DejaVuSans-66"/>
       <path d="M 40.578125 39.3125 
Q 47.65625 37.796875 51.625 33 
Q 55.609375 28.21875 55.609375 21.1875 
Q 55.609375 10.40625 48.1875 4.484375 
Q 40.765625 -1.421875 27.09375 -1.421875 
Q 22.515625 -1.421875 17.65625 -0.515625 
Q 12.796875 0.390625 7.625 2.203125 
L 7.625 11.71875 
Q 11.71875 9.328125 16.59375 8.109375 
Q 21.484375 6.890625 26.8125 6.890625 
Q 36.078125 6.890625 40.9375 10.546875 
Q 45.796875 14.203125 45.796875 21.1875 
Q 45.796875 27.640625 41.28125 31.265625 
Q 36.765625 34.90625 28.71875 34.90625 
L 20.21875 34.90625 
L 20.21875 43.015625 
L 29.109375 43.015625 
Q 36.375 43.015625 40.234375 45.921875 
Q 44.09375 48.828125 44.09375 54.296875 
Q 44.09375 59.90625 40.109375 62.90625 
Q 36.140625 65.921875 28.71875 65.921875 
Q 24.65625 65.921875 20.015625 65.03125 
Q 15.375 64.15625 9.8125 62.3125 
L 9.8125 71.09375 
Q 15.4375 72.65625 20.34375 73.4375 
Q 25.25 74.21875 29.59375 74.21875 
Q 40.828125 74.21875 47.359375 69.109375 
Q 53.90625 64.015625 53.90625 55.328125 
Q 53.90625 49.265625 50.4375 45.09375 
Q 46.96875 40.921875 40.578125 39.3125 
z
" id="DejaVuSans-51"/>
      </defs>
      <use transform="translate(0 0.015625)" xlink:href="#DejaVuSans-66"/>
      <use transform="translate(68.603516 0.015625)" xlink:href="#DejaVuSans-97"/>
      <use transform="translate(129.882812 0.015625)" xlink:href="#DejaVuSans-115"/>
      <use transform="translate(181.982422 0.015625)" xlink:href="#DejaVuSans-101"/>
      <use transform="translate(243.505859 0.015625)" xlink:href="#DejaVuSans-108"/>
      <use transform="translate(271.289062 0.015625)" xlink:href="#DejaVuSans-105"/>
      <use transform="translate(299.072266 0.015625)" xlink:href="#DejaVuSans-110"/>
      <use transform="translate(362.451172 0.015625)" xlink:href="#DejaVuSans-101"/>
      <use transform="translate(423.974609 0.015625)" xlink:href="#DejaVuSans-32"/>
      <use transform="translate(455.761719 0.015625)" xlink:href="#DejaVuSans-77"/>
      <use transform="translate(542.041016 0.015625)" xlink:href="#DejaVuSans-101"/>
      <use transform="translate(603.564453 0.015625)" xlink:href="#DejaVuSans-97"/>
      <use transform="translate(664.84375 0.015625)" xlink:href="#DejaVuSans-110"/>
      <use transform="translate(728.222656 0.015625)" xlink:href="#DejaVuSans-32"/>
      <use transform="translate(760.009766 0.015625)" xlink:href="#DejaVuSans-80"/>
      <use transform="translate(820.3125 0.015625)" xlink:href="#DejaVuSans-82"/>
      <use transform="translate(889.794922 0.015625)" xlink:href="#DejaVuSans-32"/>
      <use transform="translate(921.582031 0.015625)" xlink:href="#DejaVuSans-40"/>
      <use transform="translate(960.595703 0.015625)" xlink:href="#DejaVuSans-65"/>
      <use transform="translate(1029.003906 0.015625)" xlink:href="#DejaVuSans-80"/>
      <use transform="translate(1089.306641 0.015625)" xlink:href="#DejaVuSans-32"/>
      <use transform="translate(1121.09375 0.015625)" xlink:href="#DejaVuSans-61"/>
      <use transform="translate(1204.882812 0.015625)" xlink:href="#DejaVuSans-32"/>
      <use transform="translate(1236.669922 0.015625)" xlink:href="#DejaVuSans-48"/>
      <use transform="translate(1300.292969 0.015625)" xlink:href="#DejaVuSans-46"/>
      <use transform="translate(1329.455078 0.015625)" xlink:href="#DejaVuSans-56"/>
      <use transform="translate(1393.078125 0.015625)" xlink:href="#DejaVuSans-48"/>
      <use transform="translate(1456.701172 0.015625)" xlink:href="#DejaVuSans-32"/>
      <use transform="translate(1488.488281 0.015625)" xlink:href="#DejaVuSans-177"/>
      <use transform="translate(1572.277344 0.015625)" xlink:href="#DejaVuSans-32"/>
      <use transform="translate(1604.064453 0.015625)" xlink:href="#DejaVuSans-48"/>
      <use transform="translate(1667.6875 0.015625)" xlink:href="#DejaVuSans-46"/>
      <use transform="translate(1699.474609 0.015625)" xlink:href="#DejaVuSans-49"/>
      <use transform="translate(1763.097656 0.015625)" xlink:href="#DejaVuSans-51"/>
      <use transform="translate(1826.720703 0.015625)" xlink:href="#DejaVuSans-41"/>
     </g>
    </g>
    <g id="patch_7">
     <path d="M 417.158815 192.499783 
L 441.158815 192.499783 
L 441.158815 184.099783 
L 417.158815 184.099783 
z
" style="fill:#808080;opacity:0.2;stroke:#808080;stroke-linejoin:miter;stroke-width:0.8;"/>
    </g>
    <g id="text_23">
     <!-- $\pm$ 1 std. dev. -->
     <g style="fill:#262626;" transform="translate(450.758815 192.499783)scale(0.12 -0.12)">
      <use transform="translate(0 0.015625)" xlink:href="#DejaVuSans-177"/>
      <use transform="translate(83.789062 0.015625)" xlink:href="#DejaVuSans-32"/>
      <use transform="translate(115.576172 0.015625)" xlink:href="#DejaVuSans-49"/>
      <use transform="translate(179.199219 0.015625)" xlink:href="#DejaVuSans-32"/>
      <use transform="translate(210.986328 0.015625)" xlink:href="#DejaVuSans-115"/>
      <use transform="translate(263.085938 0.015625)" xlink:href="#DejaVuSans-116"/>
      <use transform="translate(302.294922 0.015625)" xlink:href="#DejaVuSans-100"/>
      <use transform="translate(365.771484 0.015625)" xlink:href="#DejaVuSans-46"/>
      <use transform="translate(397.558594 0.015625)" xlink:href="#DejaVuSans-32"/>
      <use transform="translate(429.345703 0.015625)" xlink:href="#DejaVuSans-100"/>
      <use transform="translate(492.822266 0.015625)" xlink:href="#DejaVuSans-101"/>
      <use transform="translate(554.345703 0.015625)" xlink:href="#DejaVuSans-118"/>
      <use transform="translate(613.525391 0.015625)" xlink:href="#DejaVuSans-46"/>
     </g>
    </g>
   </g>
  </g>
 </g>
 <defs>
  <clipPath id="p178812068b">
   <rect height="210.444567" width="362.522565" x="43.83625" y="22.318125"/>
  </clipPath>
 </defs>
</svg>
