<?xml version="1.0" encoding="utf-8" standalone="no"?>
<!DOCTYPE svg PUBLIC "-//W3C//DTD SVG 1.1//EN"
  "http://www.w3.org/Graphics/SVG/1.1/DTD/svg11.dtd">
<!-- Created with matplotlib (https://matplotlib.org/) -->
<svg height="266.760567pt" version="1.1" viewBox="0 0 682.853856 266.760567" width="682.853856pt" xmlns="http://www.w3.org/2000/svg" xmlns:xlink="http://www.w3.org/1999/xlink">
 <metadata>
  <rdf:RDF xmlns:cc="http://creativecommons.org/ns#" xmlns:dc="http://purl.org/dc/elements/1.1/" xmlns:rdf="http://www.w3.org/1999/02/22-rdf-syntax-ns#">
   <cc:Work>
    <dc:type rdf:resource="http://purl.org/dc/dcmitype/StillImage"/>
    <dc:date>2021-06-01T00:30:15.708203</dc:date>
    <dc:format>image/svg+xml</dc:format>
    <dc:creator>
     <cc:Agent>
      <dc:title>Matplotlib v3.3.4, https://matplotlib.org/</dc:title>
     </cc:Agent>
    </dc:creator>
   </cc:Work>
  </rdf:RDF>
 </metadata>
 <defs>
  <style type="text/css">*{stroke-linecap:butt;stroke-linejoin:round;}</style>
 </defs>
 <g id="figure_1">
  <g id="patch_1">
   <path d="M 0 266.760567 
L 682.853856 266.760567 
L 682.853856 0 
L 0 0 
z
" style="fill:#ffffff;"/>
  </g>
  <g id="axes_1">
   <g id="patch_2">
    <path d="M 60.299541 211.22493 
L 401.29285 211.22493 
L 401.29285 23.162625 
L 60.299541 23.162625 
z
" style="fill:#ffffff;"/>
   </g>
   <g id="matplotlib.axis_1">
    <g id="xtick_1">
     <g id="line2d_1">
      <defs>
       <path d="M 0 0 
L 0 4.8 
" id="mbae5943161" style="stroke:#262626;"/>
      </defs>
      <g>
       <use style="fill:#262626;stroke:#262626;" x="75.799237" xlink:href="#mbae5943161" y="221.22493"/>
      </g>
     </g>
     <g id="text_1">
      <!-- $\mathdefault{0.0}$ -->
      <g style="fill:#262626;" transform="translate(67.572557 238.657325)scale(0.132 -0.132)">
       <defs>
        <path d="M 42 31.84375 
C 42 37.96875 41.90625 48.421875 37.703125 56.453125 
C 34 63.484375 28.09375 66 22.90625 66 
C 18.09375 66 12 63.78125 8.203125 56.5625 
C 4.203125 49.015625 3.796875 39.671875 3.796875 31.84375 
C 3.796875 26.109375 3.90625 17.375 7 9.734375 
C 11.296875 -0.609375 19 -2 22.90625 -2 
C 27.5 -2 34.5 -0.109375 38.59375 9.4375 
C 41.59375 16.375 42 24.5 42 31.84375 
z
M 22.90625 -0.40625 
C 16.5 -0.40625 12.703125 5.125 11.296875 12.75 
C 10.203125 18.6875 10.203125 27.328125 10.203125 32.953125 
C 10.203125 40.6875 10.203125 47.109375 11.5 53.234375 
C 13.40625 61.78125 19 64.390625 22.90625 64.390625 
C 27 64.390625 32.296875 61.671875 34.203125 53.4375 
C 35.5 47.71875 35.59375 40.984375 35.59375 32.953125 
C 35.59375 26.421875 35.59375 18.375 34.40625 12.453125 
C 32.296875 1.5 26.40625 -0.40625 22.90625 -0.40625 
z
" id="CMR17-48"/>
        <path d="M 18.40625 4.796875 
C 18.40625 7.6875 16 9.6875 13.59375 9.6875 
C 10.703125 9.6875 8.703125 7.296875 8.703125 4.890625 
C 8.703125 2 11.09375 0 13.5 0 
C 16.40625 0 18.40625 2.390625 18.40625 4.796875 
z
" id="CMMI12-58"/>
       </defs>
       <use transform="scale(0.996264)" xlink:href="#CMR17-48"/>
       <use transform="translate(45.690477 0)scale(0.996264)" xlink:href="#CMMI12-58"/>
       <use transform="translate(72.787654 0)scale(0.996264)" xlink:href="#CMR17-48"/>
      </g>
     </g>
    </g>
    <g id="xtick_2">
     <g id="line2d_2">
      <g>
       <use style="fill:#262626;stroke:#262626;" x="137.79802" xlink:href="#mbae5943161" y="221.22493"/>
      </g>
     </g>
     <g id="text_2">
      <!-- $\mathdefault{0.2}$ -->
      <g style="fill:#262626;" transform="translate(129.57134 238.657325)scale(0.132 -0.132)">
       <defs>
        <path d="M 41.703125 15.46875 
L 39.90625 15.46875 
C 38.90625 8.390625 38.09375 7.1875 37.703125 6.59375 
C 37.203125 5.796875 30 5.796875 28.59375 5.796875 
L 9.40625 5.796875 
C 13 9.6875 20 16.765625 28.5 24.9375 
C 34.59375 30.71875 41.703125 37.5 41.703125 47.390625 
C 41.703125 59.1875 32.296875 66 21.796875 66 
C 10.796875 66 4.09375 56.296875 4.09375 47.296875 
C 4.09375 43.390625 7 42.890625 8.203125 42.890625 
C 9.203125 42.890625 12.203125 43.484375 12.203125 46.984375 
C 12.203125 50.09375 9.59375 51 8.203125 51 
C 7.59375 51 7 50.890625 6.59375 50.6875 
C 8.5 59.1875 14.296875 63.390625 20.40625 63.390625 
C 29.09375 63.390625 34.796875 56.5 34.796875 47.390625 
C 34.796875 38.703125 29.703125 31.21875 24 24.734375 
L 4.09375 2.296875 
L 4.09375 0 
L 39.296875 0 
z
" id="CMR17-50"/>
       </defs>
       <use transform="scale(0.996264)" xlink:href="#CMR17-48"/>
       <use transform="translate(45.690477 0)scale(0.996264)" xlink:href="#CMMI12-58"/>
       <use transform="translate(72.787654 0)scale(0.996264)" xlink:href="#CMR17-50"/>
      </g>
     </g>
    </g>
    <g id="xtick_3">
     <g id="line2d_3">
      <g>
       <use style="fill:#262626;stroke:#262626;" x="199.796804" xlink:href="#mbae5943161" y="221.22493"/>
      </g>
     </g>
     <g id="text_3">
      <!-- $\mathdefault{0.4}$ -->
      <g style="fill:#262626;" transform="translate(191.570124 238.657325)scale(0.132 -0.132)">
       <defs>
        <path d="M 33.59375 64.796875 
C 33.59375 66.890625 33.5 67 31.703125 67 
L 2 19.59375 
L 2 17 
L 27.796875 17 
L 27.796875 7.1875 
C 27.796875 3.59375 27.59375 2.59375 20.59375 2.59375 
L 18.703125 2.59375 
L 18.703125 0 
C 21.90625 0.1875 27.296875 0.1875 30.703125 0.1875 
C 34.09375 0.1875 39.5 0.1875 42.703125 0 
L 42.703125 2.59375 
L 40.796875 2.59375 
C 33.796875 2.59375 33.59375 3.59375 33.59375 7.1875 
L 33.59375 17 
L 43.796875 17 
L 43.796875 19.59375 
L 33.59375 19.59375 
z
M 28.09375 58.171875 
L 28.09375 19.59375 
L 4 19.59375 
z
" id="CMR17-52"/>
       </defs>
       <use transform="scale(0.996264)" xlink:href="#CMR17-48"/>
       <use transform="translate(45.690477 0)scale(0.996264)" xlink:href="#CMMI12-58"/>
       <use transform="translate(72.787654 0)scale(0.996264)" xlink:href="#CMR17-52"/>
      </g>
     </g>
    </g>
    <g id="xtick_4">
     <g id="line2d_4">
      <g>
       <use style="fill:#262626;stroke:#262626;" x="261.795587" xlink:href="#mbae5943161" y="221.22493"/>
      </g>
     </g>
     <g id="text_4">
      <!-- $\mathdefault{0.6}$ -->
      <g style="fill:#262626;" transform="translate(253.568907 238.657325)scale(0.132 -0.132)">
       <defs>
        <path d="M 10.59375 34.34375 
C 10.59375 58 21.796875 63.6875 28.296875 63.6875 
C 30.40625 63.6875 35.5 63.265625 37.5 59.09375 
C 35.90625 59.09375 32.90625 59.09375 32.90625 55.59375 
C 32.90625 52.890625 35.09375 52 36.5 52 
C 37.40625 52 40.09375 52.390625 40.09375 55.796875 
C 40.09375 62.296875 35.09375 66 28.203125 66 
C 16.296875 66 3.796875 53.296875 3.796875 31.421875 
C 3.796875 4.015625 15.09375 -2 23.09375 -2 
C 32.796875 -2 42 6.734375 42 20.234375 
C 42 32.828125 33.90625 42 23.703125 42 
C 17.59375 42 13.09375 37.96875 10.59375 30.921875 
z
M 23.09375 0.390625 
C 10.796875 0.390625 10.796875 18.9375 10.796875 22.65625 
C 10.796875 29.90625 14.203125 40.390625 23.5 40.390625 
C 25.203125 40.390625 30.09375 40.390625 33.40625 33.4375 
C 35.203125 29.515625 35.203125 25.375 35.203125 20.34375 
C 35.203125 14.90625 35.203125 10.875 33.09375 6.84375 
C 30.90625 2.703125 27.703125 0.390625 23.09375 0.390625 
z
" id="CMR17-54"/>
       </defs>
       <use transform="scale(0.996264)" xlink:href="#CMR17-48"/>
       <use transform="translate(45.690477 0)scale(0.996264)" xlink:href="#CMMI12-58"/>
       <use transform="translate(72.787654 0)scale(0.996264)" xlink:href="#CMR17-54"/>
      </g>
     </g>
    </g>
    <g id="xtick_5">
     <g id="line2d_5">
      <g>
       <use style="fill:#262626;stroke:#262626;" x="323.794371" xlink:href="#mbae5943161" y="221.22493"/>
      </g>
     </g>
     <g id="text_5">
      <!-- $\mathdefault{0.8}$ -->
      <g style="fill:#262626;" transform="translate(315.567691 238.657325)scale(0.132 -0.132)">
       <defs>
        <path d="M 27.203125 35.765625 
C 33.5 38.96875 39.90625 43.796875 39.90625 51.53125 
C 39.90625 60.6875 31.09375 66 23 66 
C 13.90625 66 5.90625 59.375 5.90625 50.234375 
C 5.90625 47.71875 6.5 43.390625 10.40625 39.578125 
C 11.40625 38.578125 15.59375 35.5625 18.296875 33.65625 
C 13.796875 31.34375 3.296875 25.8125 3.296875 14.765625 
C 3.296875 4.40625 13.09375 -2 22.796875 -2 
C 33.5 -2 42.5 5.71875 42.5 15.96875 
C 42.5 25.109375 36.40625 29.328125 32.40625 32.046875 
z
M 14.09375 44.609375 
C 13.296875 45.109375 9.296875 48.21875 9.296875 52.9375 
C 9.296875 59.078125 15.59375 63.6875 22.796875 63.6875 
C 30.703125 63.6875 36.5 58.0625 36.5 51.53125 
C 36.5 42.1875 26.09375 36.859375 25.59375 36.859375 
C 25.5 36.859375 25.40625 36.859375 24.59375 37.46875 
z
M 32.5 24 
C 34 22.90625 38.796875 19.578125 38.796875 13.453125 
C 38.796875 6.015625 31.40625 0.390625 23 0.390625 
C 13.90625 0.390625 7 6.921875 7 14.859375 
C 7 22.796875 13.09375 29.4375 20 32.546875 
z
" id="CMR17-56"/>
       </defs>
       <use transform="scale(0.996264)" xlink:href="#CMR17-48"/>
       <use transform="translate(45.690477 0)scale(0.996264)" xlink:href="#CMMI12-58"/>
       <use transform="translate(72.787654 0)scale(0.996264)" xlink:href="#CMR17-56"/>
      </g>
     </g>
    </g>
    <g id="xtick_6">
     <g id="line2d_6">
      <g>
       <use style="fill:#262626;stroke:#262626;" x="385.793155" xlink:href="#mbae5943161" y="221.22493"/>
      </g>
     </g>
     <g id="text_6">
      <!-- $\mathdefault{1.0}$ -->
      <g style="fill:#262626;" transform="translate(377.566474 238.657325)scale(0.132 -0.132)">
       <defs>
        <path d="M 26.59375 63.796875 
C 26.59375 65.890625 26.5 66 25.09375 66 
C 21.203125 61.359375 15.296875 59.890625 9.703125 59.6875 
C 9.40625 59.6875 8.90625 59.6875 8.796875 59.5 
C 8.703125 59.296875 8.703125 59.09375 8.703125 57 
C 11.796875 57 17 57.59375 21 59.984375 
L 21 7.296875 
C 21 3.796875 20.796875 2.59375 12.203125 2.59375 
L 9.203125 2.59375 
L 9.203125 0 
C 14 0.09375 19 0.1875 23.796875 0.1875 
C 28.59375 0.1875 33.59375 0.09375 38.40625 0 
L 38.40625 2.59375 
L 35.40625 2.59375 
C 26.796875 2.59375 26.59375 3.6875 26.59375 7.296875 
z
" id="CMR17-49"/>
       </defs>
       <use transform="scale(0.996264)" xlink:href="#CMR17-49"/>
       <use transform="translate(45.690477 0)scale(0.996264)" xlink:href="#CMMI12-58"/>
       <use transform="translate(72.787654 0)scale(0.996264)" xlink:href="#CMR17-48"/>
      </g>
     </g>
    </g>
    <g id="text_7">
     <!-- Recall (Positive label: True) -->
     <g style="fill:#262626;" transform="translate(143.745431 255.974026)scale(0.144 -0.144)">
      <defs>
       <path d="M 39.203125 33.6875 
C 48.703125 35.59375 56.703125 42.015625 56.703125 50.046875 
C 56.703125 59.46875 46.09375 68 32.09375 68 
L 5.203125 68 
L 5.203125 65.390625 
C 12.09375 65.390625 13.203125 65.390625 13.203125 60.875 
L 13.203125 6.6875 
C 13.203125 2.1875 12.09375 2.1875 5.203125 2.1875 
L 5.203125 -0.40625 
C 8.09375 -0.203125 13.296875 -0.203125 16.40625 -0.203125 
C 19.5 -0.203125 24.703125 -0.203125 27.59375 -0.40625 
L 27.59375 2.1875 
C 20.703125 2.1875 19.59375 2.1875 19.59375 6.6875 
L 19.59375 33 
L 31.296875 33 
C 37 33 40.203125 30.6875 41.59375 29.390625 
C 45.59375 25.5 45.59375 22.796875 45.59375 16 
C 45.59375 9.296875 45.59375 5.890625 48.59375 2.5 
C 52.40625 -1.609375 57.5 -2 59.703125 -2 
C 67.09375 -2 68.203125 6.296875 68.203125 8 
C 68.203125 8.59375 68.203125 9.296875 67.296875 9.296875 
C 66.5 9.296875 66.40625 8.6875 66.40625 8.296875 
C 65.90625 1.796875 63 -0.40625 59.90625 -0.40625 
C 54.40625 -0.40625 53.796875 5.890625 53.203125 12 
C 52.90625 14.09375 52.703125 15.59375 52.5 17.796875 
C 51.90625 22.796875 51.09375 30.09375 39.203125 33.6875 
z
M 31 34.59375 
L 19.59375 34.59375 
L 19.59375 61.484375 
C 19.59375 64.890625 19.796875 65.390625 23.796875 65.390625 
L 31.09375 65.390625 
C 39.40625 65.390625 49.09375 62.484375 49.09375 50.046875 
C 49.09375 37.09375 38.5 34.59375 31 34.59375 
z
" id="CMR17-82"/>
       <path d="M 38.09375 23.484375 
C 38.5 23.890625 38.5 24.09375 38.5 25.09375 
C 38.5 35.171875 33.09375 44 21.703125 44 
C 11.09375 44 2.703125 33.984375 2.703125 21.78125 
C 2.703125 8.65625 12.203125 -1 22.796875 -1 
C 34 -1 38.40625 9.671875 38.40625 11.796875 
C 38.40625 12.5 37.796875 12.5 37.59375 12.5 
C 36.90625 12.5 36.796875 12.296875 36.40625 11.078125 
C 34.203125 4.21875 28.703125 0.796875 23.5 0.796875 
C 19.203125 0.796875 14.90625 3.21875 12.203125 7.65625 
C 9.09375 12.796875 9.09375 18.75 9.09375 23.484375 
z
M 9.203125 25 
C 9.90625 39.234375 17.59375 42.390625 21.59375 42.390625 
C 28.40625 42.390625 33 36.0625 33.09375 25 
z
" id="CMR17-101"/>
       <path d="M 34.90625 35 
C 33 35 30.203125 35 30.203125 31.484375 
C 30.203125 28.6875 32.5 27.890625 33.796875 27.890625 
C 34.5 27.890625 37.40625 28.1875 37.40625 31.6875 
C 37.40625 38.6875 30.59375 44 22.90625 44 
C 12.296875 44 3.296875 34.390625 3.296875 21.546875 
C 3.296875 8.140625 12.703125 -1 22.90625 -1 
C 35.296875 -1 38.40625 10.5625 38.40625 11.671875 
C 38.40625 12.078125 38.296875 12.375 37.59375 12.375 
C 36.90625 12.375 36.796875 12.28125 36.40625 10.96875 
C 33.796875 2.8125 28.09375 0.796875 23.796875 0.796875 
C 17.40625 0.796875 9.703125 6.734375 9.703125 21.640625 
C 9.703125 36.84375 17.09375 42.1875 23 42.1875 
C 26.90625 42.1875 32.703125 40.34375 34.90625 35 
z
" id="CMR17-99"/>
       <path d="M 36 25.875 
C 36 32 36 35.546875 31.796875 39.59375 
C 28.09375 42.984375 23.796875 44 20.40625 44 
C 12.5 44 6.796875 37.625 6.796875 30.890625 
C 6.796875 27.1875 9.796875 27 10.40625 27 
C 11.703125 27 14 27.796875 14 30.59375 
C 14 33.09375 12.09375 34.1875 10.40625 34.1875 
C 10 34.1875 9.5 34.09375 9.203125 34 
C 11.296875 40.53125 16.703125 42.390625 20.203125 42.390625 
C 25.203125 42.390625 30.703125 37.828125 30.703125 29.296875 
L 30.703125 25.5 
C 24.796875 25.296875 17.703125 24.5 12.09375 21.453125 
C 5.796875 17.921875 4 12.84375 4 9 
C 4 1.203125 13 -1 18.296875 -1 
C 23.796875 -1 28.90625 2.109375 31.09375 7.890625 
C 31.296875 3.421875 34.09375 -0.609375 38.5 -0.609375 
C 40.59375 -0.609375 45.90625 0.796875 45.90625 8.796875 
L 45.90625 14.46875 
L 44.09375 14.46875 
L 44.09375 8.703125 
C 44.09375 2.515625 41.40625 1.703125 40.09375 1.703125 
C 36 1.703125 36 6.96875 36 11.4375 
z
M 30.703125 13.859375 
C 30.703125 5.046875 24.5 0.59375 19 0.59375 
C 14 0.59375 10.09375 4.34375 10.09375 9 
C 10.09375 12.046875 11.40625 17.40625 17.203125 20.65625 
C 22 23.390625 27.5 23.796875 30.703125 24 
z
" id="CMR17-97"/>
       <path d="M 15.296875 69 
L 3.40625 67.890625 
L 3.40625 65.296875 
C 9.296875 65.296875 10.203125 64.703125 10.203125 59.921875 
L 10.203125 6.859375 
C 10.203125 3.09375 9.796875 2.59375 3.40625 2.59375 
L 3.40625 0 
C 5.796875 0.1875 10.203125 0.1875 12.703125 0.1875 
C 15.296875 0.1875 19.703125 0.1875 22.09375 0 
L 22.09375 2.59375 
C 15.703125 2.59375 15.296875 2.984375 15.296875 6.859375 
z
" id="CMR17-108"/>
       <path d="M 30.59375 -24.40625 
C 30.59375 -24.3125 30.59375 -24.109375 30.296875 -23.8125 
C 25.703125 -19.109375 13.40625 -6.296875 13.40625 24.9375 
C 13.40625 56.171875 25.5 68.875 30.40625 73.890625 
C 30.40625 73.984375 30.59375 74.1875 30.59375 74.484375 
C 30.59375 74.796875 30.296875 75 29.90625 75 
C 28.796875 75 20.296875 67.578125 15.40625 56.5625 
C 10.40625 45.453125 9 34.65625 9 25.046875 
C 9 17.828125 9.703125 5.625 15.703125 -7.296875 
C 20.5 -17.703125 28.703125 -25 29.90625 -25 
C 30.40625 -25 30.59375 -24.8125 30.59375 -24.40625 
z
" id="CMR17-40"/>
       <path d="M 19.796875 32 
L 35.796875 32 
C 48.703125 32 58.09375 40.359375 58.09375 49.796875 
C 58.09375 59.234375 48.90625 68 35.796875 68 
L 5.203125 68 
L 5.203125 65.390625 
C 12.09375 65.390625 13.203125 65.390625 13.203125 60.921875 
L 13.203125 7.078125 
C 13.203125 2.59375 12.09375 2.59375 5.203125 2.59375 
L 5.203125 0 
C 8.09375 0.1875 13.40625 0.1875 16.5 0.1875 
C 19.59375 0.1875 24.90625 0.1875 27.796875 0 
L 27.796875 2.59375 
C 20.90625 2.59375 19.796875 2.59375 19.796875 7.078125 
z
M 19.59375 34.09375 
L 19.59375 61.515625 
C 19.59375 64.890625 19.796875 65.390625 23.796875 65.390625 
L 33.90625 65.390625 
C 46.796875 65.390625 50.5 58.046875 50.5 49.796875 
C 50.5 40.75 46.09375 34.09375 33.90625 34.09375 
z
" id="CMR17-80"/>
       <path d="M 43.09375 21.1875 
C 43.09375 34 33.796875 44 22.90625 44 
C 12 44 2.703125 34 2.703125 21.1875 
C 2.703125 8.59375 12 -1 22.90625 -1 
C 33.796875 -1 43.09375 8.59375 43.09375 21.1875 
z
M 22.90625 0.796875 
C 18.203125 0.796875 14.203125 3.59375 11.90625 7.5 
C 9.40625 12 9.09375 17.59375 9.09375 22 
C 9.09375 26.1875 9.296875 31.390625 11.90625 35.890625 
C 13.90625 39.1875 17.796875 42.390625 22.90625 42.390625 
C 27.40625 42.390625 31.203125 39.890625 33.59375 36.390625 
C 36.703125 31.6875 36.703125 25.09375 36.703125 22 
C 36.703125 18.09375 36.5 12.09375 33.796875 7.296875 
C 31 2.6875 26.703125 0.796875 22.90625 0.796875 
z
" id="CMR17-111"/>
       <path d="M 30.90625 42 
C 30.90625 43.796875 30.796875 43.890625 30.203125 43.890625 
C 29.796875 43.890625 29.703125 43.796875 28.5 42.296875 
C 28.203125 41.890625 27.296875 40.890625 27 40.5 
C 23.796875 43.890625 19.296875 44 17.59375 44 
C 6.5 44 2.5 38.1875 2.5 32.390625 
C 2.5 23.390625 12.703125 21.296875 15.59375 20.6875 
C 21.90625 19.390625 24.09375 19 26.203125 17.1875 
C 27.5 16 29.703125 13.796875 29.703125 10.1875 
C 29.703125 6 27.296875 0.59375 18.09375 0.59375 
C 9.40625 0.59375 6.296875 7.1875 4.5 16 
C 4.203125 17.390625 4.203125 17.5 3.40625 17.5 
C 2.59375 17.5 2.5 17.390625 2.5 15.390625 
L 2.5 1 
C 2.5 -0.8125 2.59375 -0.90625 3.203125 -0.90625 
C 3.703125 -0.90625 3.796875 -0.8125 4.296875 0 
C 4.90625 0.890625 6.40625 3.296875 7 4.296875 
C 9 1.59375 12.5 -1 18.09375 -1 
C 28 -1 33.296875 4.390625 33.296875 12.1875 
C 33.296875 17.296875 30.59375 20 29.296875 21.1875 
C 26.296875 24.296875 22.796875 25 18.59375 25.796875 
C 13.09375 27 6.09375 28.390625 6.09375 34.5 
C 6.09375 37.09375 7.5 42.59375 17.59375 42.59375 
C 28.296875 42.59375 28.90625 32.59375 29.09375 29.390625 
C 29.203125 28.890625 29.703125 28.796875 30 28.796875 
C 30.90625 28.796875 30.90625 29.09375 30.90625 30.796875 
z
" id="CMR17-115"/>
       <path d="M 15.5 61.890625 
C 15.5 64.09375 13.703125 66 11.40625 66 
C 9.203125 66 7.296875 64.1875 7.296875 61.890625 
C 7.296875 59.6875 9.09375 57.796875 11.40625 57.796875 
C 13.59375 57.796875 15.5 59.59375 15.5 61.890625 
z
M 3.796875 42.890625 
L 3.796875 40.296875 
C 9.40625 40.296875 10.203125 39.6875 10.203125 34.859375 
L 10.203125 6.921875 
C 10.203125 3.09375 9.796875 2.59375 3.40625 2.59375 
L 3.40625 0 
C 5.796875 0.1875 10.09375 0.1875 12.59375 0.1875 
C 15 0.1875 19.09375 0.1875 21.40625 0 
L 21.40625 2.59375 
C 15.5 2.59375 15.296875 3.203125 15.296875 6.8125 
L 15.296875 44 
z
" id="CMR17-105"/>
       <path d="M 15.09375 40.390625 
L 29.09375 40.390625 
L 29.09375 43 
L 15.09375 43 
L 15.09375 62 
L 13.296875 62 
C 13.09375 51.4375 9.59375 42.1875 1.09375 41.984375 
L 1.09375 40.390625 
L 9.796875 40.390625 
L 9.796875 12.15625 
C 9.796875 10.234375 9.796875 -1 21.40625 -1 
C 27.296875 -1 30.703125 4.8125 30.703125 12.25 
L 30.703125 17.984375 
L 28.90625 17.984375 
L 28.90625 12.34375 
C 28.90625 5.421875 26.203125 0.796875 22 0.796875 
C 19.09375 0.796875 15.09375 2.796875 15.09375 11.953125 
z
" id="CMR17-116"/>
       <path d="M 39.09375 33.953125 
C 40 36.171875 41.59375 40.1875 47.40625 40.390625 
L 47.40625 43 
C 45.5 42.890625 43 42.796875 41.09375 42.796875 
C 39 42.796875 35.703125 42.796875 33.703125 43 
L 33.703125 40.390625 
C 36.203125 40.1875 37.59375 38.984375 37.59375 36.375 
C 37.59375 35.46875 37.59375 35.265625 37 33.859375 
L 26 5.921875 
L 14.09375 36.0625 
C 13.5 37.375 13.5 37.578125 13.5 37.984375 
C 13.5 40.390625 16.796875 40.390625 18.296875 40.390625 
L 18.296875 43 
C 15.90625 42.796875 11.5 42.796875 9 42.796875 
C 6.296875 42.796875 3.203125 42.796875 1 43 
L 1 40.390625 
C 4.796875 40.390625 6.90625 40.390625 8.09375 37.28125 
L 22.59375 0.6875 
C 23.203125 -0.8125 23.296875 -1 24.203125 -1 
C 25.09375 -1 25.203125 -0.8125 25.796875 0.6875 
z
" id="CMR17-118"/>
       <path d="M 15 69 
L 3.09375 67.890625 
L 3.09375 65.296875 
C 9 65.296875 9.90625 64.703125 9.90625 60.046875 
L 9.90625 -0.203125 
L 11.703125 -0.203125 
L 14.59375 6.953125 
C 17.5 2.203125 21.796875 -1 27.59375 -1 
C 37.59375 -1 47.703125 7.859375 47.703125 21.59375 
C 47.703125 34.515625 38.703125 44 28.59375 44 
C 22.40625 44 18 40.671875 15 36.734375 
z
M 15.203125 31.59375 
C 15.203125 33.40625 15.203125 33.703125 16.59375 35.828125 
C 20.5 41.890625 26.09375 42.390625 28 42.390625 
C 31 42.390625 41.296875 40.78125 41.296875 21.6875 
C 41.296875 1.703125 29.5 0.59375 27.09375 0.59375 
C 24 0.59375 19.5 1.796875 16.296875 7.65625 
C 15.203125 9.578125 15.203125 9.78125 15.203125 11.59375 
z
" id="CMR17-98"/>
       <path d="M 16.59375 38.890625 
C 16.59375 41.390625 14.59375 43 12.5 43 
C 10.5 43 8.40625 41.390625 8.40625 38.890625 
C 8.40625 36.390625 10.40625 34.796875 12.5 34.796875 
C 14.5 34.796875 16.59375 36.390625 16.59375 38.890625 
z
M 16.59375 4.09375 
C 16.59375 6.59375 14.59375 8.1875 12.5 8.1875 
C 10.5 8.1875 8.40625 6.59375 8.40625 4.09375 
C 8.40625 1.59375 10.40625 0 12.5 0 
C 14.5 0 16.59375 1.59375 16.59375 4.09375 
z
" id="CMR17-58"/>
       <path d="M 62.203125 67.6875 
L 4.5 67.6875 
L 2.796875 45.6875 
L 4.59375 45.6875 
C 5.90625 62.203125 7.296875 65.09375 22.703125 65.09375 
C 24.5 65.09375 27.40625 65.09375 28.203125 64.984375 
C 30.09375 64.6875 30.09375 63.5 30.09375 61.203125 
L 30.09375 7.265625 
C 30.09375 3.6875 29.796875 2.59375 21.5 2.59375 
L 18.703125 2.59375 
L 18.703125 0 
C 23.5 0.09375 28.5 0.1875 33.40625 0.1875 
C 38.296875 0.1875 43.296875 0.09375 48.09375 0 
L 48.09375 2.59375 
L 45.296875 2.59375 
C 37 2.59375 36.703125 3.6875 36.703125 7.265625 
L 36.703125 61.203125 
C 36.703125 63.390625 36.703125 64.59375 38.5 64.984375 
C 39.296875 65.09375 42.203125 65.09375 44 65.09375 
C 59.296875 65.09375 60.796875 62.203125 62.09375 45.6875 
L 63.90625 45.6875 
z
" id="CMR17-84"/>
       <path d="M 15 23.703125 
C 15 33.34375 19.09375 42.390625 26.59375 42.390625 
C 27.296875 42.390625 28 42.296875 28.703125 41.984375 
C 28.703125 41.984375 26.5 41.28125 26.5 38.671875 
C 26.5 36.265625 28.40625 35.265625 29.90625 35.265625 
C 31.09375 35.265625 33.296875 35.96875 33.296875 38.78125 
C 33.296875 41.984375 30.09375 44 26.703125 44 
C 19.09375 44 15.796875 36.5625 14.796875 33.046875 
L 14.703125 33.046875 
L 14.703125 44 
L 3.09375 42.890625 
L 3.09375 40.28125 
C 9 40.28125 9.90625 39.6875 9.90625 34.859375 
L 9.90625 6.921875 
C 9.90625 3.09375 9.5 2.59375 3.09375 2.59375 
L 3.09375 0 
C 5.5 0.1875 10.09375 0.1875 12.703125 0.1875 
C 15.59375 0.1875 20.703125 0.1875 23.40625 0 
L 23.40625 2.59375 
C 16.203125 2.59375 15 2.59375 15 7.109375 
z
" id="CMR17-114"/>
       <path d="M 29.40625 42.890625 
L 29.40625 40.296875 
C 35.296875 40.296875 36.203125 39.6875 36.203125 34.828125 
L 36.203125 16.453125 
C 36.203125 7.96875 31.703125 0.59375 24.296875 0.59375 
C 16.09375 0.59375 15.40625 5.546875 15.40625 10.796875 
L 15.40625 44 
L 3.296875 42.890625 
L 3.296875 40.296875 
C 7.296875 40.296875 10 40.296875 10.09375 36.25 
L 10.09375 16.859375 
C 10.09375 10.09375 10.09375 5.75 12.703125 2.921875 
C 14 1.609375 16.5 -1 23.703125 -1 
C 32.203125 -1 35.5 6.25 36.296875 8.375 
L 36.40625 8.375 
L 36.40625 -1 
L 48.296875 -0.203125 
L 48.296875 2.40625 
C 42.40625 2.40625 41.5 3.015625 41.5 7.859375 
L 41.5 44 
z
" id="CMR17-117"/>
       <path d="M 26.296875 24.9375 
C 26.296875 32.140625 25.59375 44.359375 19.59375 57.265625 
C 14.796875 67.6875 6.59375 75 5.40625 75 
C 5.09375 75 4.703125 74.890625 4.703125 74.390625 
C 4.703125 74.1875 4.796875 74.09375 4.90625 73.890625 
C 9.703125 68.875 21.90625 56.171875 21.90625 25.046875 
C 21.90625 -6.1875 9.796875 -18.90625 4.90625 -23.90625 
C 4.796875 -24.109375 4.703125 -24.203125 4.703125 -24.40625 
C 4.703125 -24.90625 5.09375 -25 5.40625 -25 
C 6.5 -25 15 -17.609375 19.90625 -6.59375 
C 24.90625 4.515625 26.296875 15.328125 26.296875 24.9375 
z
" id="CMR17-41"/>
      </defs>
      <use transform="scale(0.996264)" xlink:href="#CMR17-82"/>
      <use transform="translate(67.791102 0)scale(0.996264)" xlink:href="#CMR17-101"/>
      <use transform="translate(108.276762 0)scale(0.996264)" xlink:href="#CMR17-99"/>
      <use transform="translate(148.762423 0)scale(0.996264)" xlink:href="#CMR17-97"/>
      <use transform="translate(194.4529 0)scale(0.996264)" xlink:href="#CMR17-108"/>
      <use transform="translate(219.323958 0)scale(0.996264)" xlink:href="#CMR17-108"/>
      <use transform="translate(274.270983 0)scale(0.996264)" xlink:href="#CMR17-40"/>
      <use transform="translate(309.551751 0)scale(0.996264)" xlink:href="#CMR17-80"/>
      <use transform="translate(369.535598 0)scale(0.996264)" xlink:href="#CMR17-111"/>
      <use transform="translate(415.226075 0)scale(0.996264)" xlink:href="#CMR17-115"/>
      <use transform="translate(451.027412 0)scale(0.996264)" xlink:href="#CMR17-105"/>
      <use transform="translate(475.898471 0)scale(0.996264)" xlink:href="#CMR17-116"/>
      <use transform="translate(511.179239 0)scale(0.996264)" xlink:href="#CMR17-105"/>
      <use transform="translate(536.050297 0)scale(0.996264)" xlink:href="#CMR17-118"/>
      <use transform="translate(581.740759 0)scale(0.996264)" xlink:href="#CMR17-101"/>
      <use transform="translate(652.302386 0)scale(0.996264)" xlink:href="#CMR17-108"/>
      <use transform="translate(677.173444 0)scale(0.996264)" xlink:href="#CMR17-97"/>
      <use transform="translate(722.863922 0)scale(0.996264)" xlink:href="#CMR17-98"/>
      <use transform="translate(776.36173 0)scale(0.996264)" xlink:href="#CMR17-101"/>
      <use transform="translate(816.847391 0)scale(0.996264)" xlink:href="#CMR17-108"/>
      <use transform="translate(841.718449 0)scale(0.996264)" xlink:href="#CMR17-58"/>
      <use transform="translate(907.075168 0)scale(0.996264)" xlink:href="#CMR17-84"/>
      <use transform="translate(965.777793 0)scale(0.996264)" xlink:href="#CMR17-114"/>
      <use transform="translate(1001.058561 0)scale(0.996264)" xlink:href="#CMR17-117"/>
      <use transform="translate(1051.953931 0)scale(0.996264)" xlink:href="#CMR17-101"/>
      <use transform="translate(1092.439591 0)scale(0.996264)" xlink:href="#CMR17-41"/>
     </g>
    </g>
   </g>
   <g id="matplotlib.axis_2">
    <g id="ytick_1">
     <g id="line2d_7">
      <defs>
       <path d="M 0 0 
L -4.8 0 
" id="m67c6b582e1" style="stroke:#262626;"/>
      </defs>
      <g>
       <use style="fill:#262626;stroke:#262626;" x="50.299541" xlink:href="#m67c6b582e1" y="202.676644"/>
      </g>
     </g>
     <g id="text_8">
      <!-- $\mathdefault{0.0}$ -->
      <g style="fill:#262626;" transform="translate(25.54618 207.242841)scale(0.132 -0.132)">
       <use transform="scale(0.996264)" xlink:href="#CMR17-48"/>
       <use transform="translate(45.690477 0)scale(0.996264)" xlink:href="#CMMI12-58"/>
       <use transform="translate(72.787654 0)scale(0.996264)" xlink:href="#CMR17-48"/>
      </g>
     </g>
    </g>
    <g id="ytick_2">
     <g id="line2d_8">
      <g>
       <use style="fill:#262626;stroke:#262626;" x="50.299541" xlink:href="#m67c6b582e1" y="168.483497"/>
      </g>
     </g>
     <g id="text_9">
      <!-- $\mathdefault{0.2}$ -->
      <g style="fill:#262626;" transform="translate(25.54618 173.049695)scale(0.132 -0.132)">
       <use transform="scale(0.996264)" xlink:href="#CMR17-48"/>
       <use transform="translate(45.690477 0)scale(0.996264)" xlink:href="#CMMI12-58"/>
       <use transform="translate(72.787654 0)scale(0.996264)" xlink:href="#CMR17-50"/>
      </g>
     </g>
    </g>
    <g id="ytick_3">
     <g id="line2d_9">
      <g>
       <use style="fill:#262626;stroke:#262626;" x="50.299541" xlink:href="#m67c6b582e1" y="134.290351"/>
      </g>
     </g>
     <g id="text_10">
      <!-- $\mathdefault{0.4}$ -->
      <g style="fill:#262626;" transform="translate(25.54618 138.856548)scale(0.132 -0.132)">
       <use transform="scale(0.996264)" xlink:href="#CMR17-48"/>
       <use transform="translate(45.690477 0)scale(0.996264)" xlink:href="#CMMI12-58"/>
       <use transform="translate(72.787654 0)scale(0.996264)" xlink:href="#CMR17-52"/>
      </g>
     </g>
    </g>
    <g id="ytick_4">
     <g id="line2d_10">
      <g>
       <use style="fill:#262626;stroke:#262626;" x="50.299541" xlink:href="#m67c6b582e1" y="100.097204"/>
      </g>
     </g>
     <g id="text_11">
      <!-- $\mathdefault{0.6}$ -->
      <g style="fill:#262626;" transform="translate(25.54618 104.663402)scale(0.132 -0.132)">
       <use transform="scale(0.996264)" xlink:href="#CMR17-48"/>
       <use transform="translate(45.690477 0)scale(0.996264)" xlink:href="#CMMI12-58"/>
       <use transform="translate(72.787654 0)scale(0.996264)" xlink:href="#CMR17-54"/>
      </g>
     </g>
    </g>
    <g id="ytick_5">
     <g id="line2d_11">
      <g>
       <use style="fill:#262626;stroke:#262626;" x="50.299541" xlink:href="#m67c6b582e1" y="65.904058"/>
      </g>
     </g>
     <g id="text_12">
      <!-- $\mathdefault{0.8}$ -->
      <g style="fill:#262626;" transform="translate(25.54618 70.470255)scale(0.132 -0.132)">
       <use transform="scale(0.996264)" xlink:href="#CMR17-48"/>
       <use transform="translate(45.690477 0)scale(0.996264)" xlink:href="#CMMI12-58"/>
       <use transform="translate(72.787654 0)scale(0.996264)" xlink:href="#CMR17-56"/>
      </g>
     </g>
    </g>
    <g id="ytick_6">
     <g id="line2d_12">
      <g>
       <use style="fill:#262626;stroke:#262626;" x="50.299541" xlink:href="#m67c6b582e1" y="31.710912"/>
      </g>
     </g>
     <g id="text_13">
      <!-- $\mathdefault{1.0}$ -->
      <g style="fill:#262626;" transform="translate(25.54618 36.277109)scale(0.132 -0.132)">
       <use transform="scale(0.996264)" xlink:href="#CMR17-49"/>
       <use transform="translate(45.690477 0)scale(0.996264)" xlink:href="#CMMI12-58"/>
       <use transform="translate(72.787654 0)scale(0.996264)" xlink:href="#CMR17-48"/>
      </g>
     </g>
    </g>
    <g id="text_14">
     <!-- Precision (Positive label: True) -->
     <g style="fill:#262626;" transform="translate(17.959639 213.258127)rotate(-90)scale(0.144 -0.144)">
      <defs>
       <path d="M 41.5 30.53125 
C 41.5 35.65625 40.5 44 28.703125 44 
C 20.796875 44 16.703125 37.875 15.203125 33.84375 
L 15.09375 33.84375 
L 15.09375 44 
L 3.296875 42.890625 
L 3.296875 40.28125 
C 9.203125 40.28125 10.09375 39.6875 10.09375 34.859375 
L 10.09375 6.921875 
C 10.09375 3.09375 9.703125 2.59375 3.296875 2.59375 
L 3.296875 0 
C 5.703125 0.1875 10.09375 0.1875 12.703125 0.1875 
C 15.296875 0.1875 19.796875 0.1875 22.203125 0 
L 22.203125 2.59375 
C 15.796875 2.59375 15.40625 3 15.40625 6.921875 
L 15.40625 26.21875 
C 15.40625 35.453125 21 42.390625 28 42.390625 
C 35.40625 42.390625 36.203125 35.765625 36.203125 30.9375 
L 36.203125 6.921875 
C 36.203125 3.09375 35.796875 2.59375 29.40625 2.59375 
L 29.40625 0 
C 31.796875 0.1875 36.203125 0.1875 38.796875 0.1875 
C 41.40625 0.1875 45.90625 0.1875 48.296875 0 
L 48.296875 2.59375 
C 41.90625 2.59375 41.5 3 41.5 6.921875 
z
" id="CMR17-110"/>
      </defs>
      <use transform="scale(0.996264)" xlink:href="#CMR17-80"/>
      <use transform="translate(62.586301 0)scale(0.996264)" xlink:href="#CMR17-114"/>
      <use transform="translate(97.867068 0)scale(0.996264)" xlink:href="#CMR17-101"/>
      <use transform="translate(138.352729 0)scale(0.996264)" xlink:href="#CMR17-99"/>
      <use transform="translate(178.838389 0)scale(0.996264)" xlink:href="#CMR17-105"/>
      <use transform="translate(203.709448 0)scale(0.996264)" xlink:href="#CMR17-115"/>
      <use transform="translate(239.510785 0)scale(0.996264)" xlink:href="#CMR17-105"/>
      <use transform="translate(264.381844 0)scale(0.996264)" xlink:href="#CMR17-111"/>
      <use transform="translate(310.072321 0)scale(0.996264)" xlink:href="#CMR17-110"/>
      <use transform="translate(391.043657 0)scale(0.996264)" xlink:href="#CMR17-40"/>
      <use transform="translate(426.324425 0)scale(0.996264)" xlink:href="#CMR17-80"/>
      <use transform="translate(486.308271 0)scale(0.996264)" xlink:href="#CMR17-111"/>
      <use transform="translate(531.998749 0)scale(0.996264)" xlink:href="#CMR17-115"/>
      <use transform="translate(567.800086 0)scale(0.996264)" xlink:href="#CMR17-105"/>
      <use transform="translate(592.671145 0)scale(0.996264)" xlink:href="#CMR17-116"/>
      <use transform="translate(627.951913 0)scale(0.996264)" xlink:href="#CMR17-105"/>
      <use transform="translate(652.822971 0)scale(0.996264)" xlink:href="#CMR17-118"/>
      <use transform="translate(698.513433 0)scale(0.996264)" xlink:href="#CMR17-101"/>
      <use transform="translate(769.07506 0)scale(0.996264)" xlink:href="#CMR17-108"/>
      <use transform="translate(793.946118 0)scale(0.996264)" xlink:href="#CMR17-97"/>
      <use transform="translate(839.636595 0)scale(0.996264)" xlink:href="#CMR17-98"/>
      <use transform="translate(893.134404 0)scale(0.996264)" xlink:href="#CMR17-101"/>
      <use transform="translate(933.620064 0)scale(0.996264)" xlink:href="#CMR17-108"/>
      <use transform="translate(958.491123 0)scale(0.996264)" xlink:href="#CMR17-58"/>
      <use transform="translate(1023.847842 0)scale(0.996264)" xlink:href="#CMR17-84"/>
      <use transform="translate(1082.550467 0)scale(0.996264)" xlink:href="#CMR17-114"/>
      <use transform="translate(1117.831235 0)scale(0.996264)" xlink:href="#CMR17-117"/>
      <use transform="translate(1168.726604 0)scale(0.996264)" xlink:href="#CMR17-101"/>
      <use transform="translate(1209.212265 0)scale(0.996264)" xlink:href="#CMR17-41"/>
     </g>
    </g>
   </g>
   <g id="PolyCollection_1">
    <defs>
     <path d="M 75.799237 -235.049655 
L 75.799237 -235.049655 
L 78.930488 -235.049655 
L 82.06174 -235.049655 
L 85.192992 -235.049655 
L 88.324243 -235.049655 
L 91.455495 -235.049655 
L 94.586747 -235.049655 
L 97.717999 -235.049655 
L 100.84925 -201.719972 
L 103.980502 -203.964977 
L 107.111754 -206.209981 
L 110.243005 -208.454986 
L 113.374257 -210.181913 
L 116.505509 -211.528915 
L 119.63676 -212.875918 
L 122.768012 -214.222921 
L 125.899264 -215.224538 
L 129.030515 -216.12254 
L 132.161767 -217.020542 
L 135.293019 -217.918544 
L 138.424271 -218.569842 
L 141.555522 -219.211272 
L 144.686774 -219.852701 
L 147.818026 -220.469461 
L 150.949277 -220.950533 
L 154.080529 -221.431606 
L 157.211781 -221.912678 
L 160.343032 -222.356745 
L 163.474284 -222.730912 
L 166.605536 -223.10508 
L 169.736788 -223.479247 
L 172.868039 -223.81312 
L 175.999291 -224.112454 
L 179.130543 -224.411788 
L 182.261794 -224.711122 
L 185.393046 -224.970684 
L 188.524298 -225.215593 
L 191.655549 -218.391694 
L 194.786801 -218.775392 
L 197.918053 -219.134918 
L 201.049304 -219.492432 
L 204.180556 -219.849945 
L 207.311808 -220.190817 
L 210.44306 -220.482861 
L 213.574311 -220.774902 
L 216.705563 -221.06694 
L 219.836815 -221.354122 
L 222.968066 -221.626902 
L 226.099318 -221.870147 
L 229.23057 -222.113383 
L 232.361821 -222.350311 
L 235.493073 -222.580936 
L 238.624325 -222.802638 
L 241.755577 -223.001611 
L 244.886828 -223.190364 
L 248.01808 -223.386485 
L 251.149332 -223.571778 
L 254.280583 -223.768047 
L 257.411835 -223.943797 
L 260.543087 -224.10146 
L 263.674338 -224.270341 
L 266.80559 -224.414898 
L 269.936842 -224.577134 
L 273.068093 -224.719564 
L 276.199345 -224.866889 
L 279.330597 -222.533901 
L 282.461849 -222.711412 
L 285.5931 -222.887524 
L 288.724352 -223.05527 
L 291.855604 -223.213839 
L 294.986855 -223.364166 
L 298.118107 -223.506161 
L 301.249359 -223.641898 
L 304.38061 -223.737251 
L 307.511862 -223.867037 
L 310.643114 -223.968555 
L 313.774366 -223.959686 
L 316.905617 -223.968497 
L 320.036869 -223.979864 
L 323.168121 -224.356335 
L 326.299372 -222.3742 
L 329.430624 -222.518677 
L 332.561876 -195.332341 
L 335.693127 -195.623149 
L 338.824379 -190.975171 
L 341.955631 -189.02626 
L 345.086882 -189.364775 
L 348.218134 -186.500235 
L 351.349386 -186.397176 
L 354.480638 -186.695666 
L 357.611889 -169.486556 
L 360.743141 -169.785092 
L 363.874393 -163.268369 
L 367.005644 -163.616529 
L 370.136896 -146.696776 
L 373.268148 -144.512839 
L 376.399399 -101.628344 
L 379.530651 -100.851703 
L 382.661903 -101.177754 
L 385.793155 -64.083923 
L 385.793155 -106.378253 
L 385.793155 -106.378253 
L 382.661903 -191.475623 
L 379.530651 -193.713313 
L 376.399399 -196.205531 
L 373.268148 -199.659003 
L 370.136896 -200.444163 
L 367.005644 -225.931963 
L 363.874393 -226.261246 
L 360.743141 -234.984656 
L 357.611889 -235.049655 
L 354.480638 -229.804908 
L 351.349386 -230.09299 
L 348.218134 -232.667089 
L 345.086882 -232.088885 
L 341.955631 -232.191591 
L 338.824379 -231.667045 
L 335.693127 -235.049655 
L 332.561876 -235.049655 
L 329.430624 -227.584456 
L 326.299372 -227.496368 
L 323.168121 -227.171667 
L 320.036869 -231.660879 
L 316.905617 -231.760263 
L 313.774366 -231.916793 
L 310.643114 -232.230647 
L 307.511862 -232.328031 
L 304.38061 -232.339245 
L 301.249359 -232.604708 
L 298.118107 -232.73448 
L 294.986855 -232.875138 
L 291.855604 -232.965579 
L 288.724352 -232.998109 
L 285.5931 -233.162293 
L 282.461849 -233.201994 
L 279.330597 -233.244102 
L 276.199345 -235.049655 
L 273.068093 -235.049655 
L 269.936842 -235.049655 
L 266.80559 -235.049655 
L 263.674338 -235.049655 
L 260.543087 -235.049655 
L 257.411835 -235.049655 
L 254.280583 -235.049655 
L 251.149332 -235.049655 
L 248.01808 -235.049655 
L 244.886828 -235.049655 
L 241.755577 -235.049655 
L 238.624325 -235.049655 
L 235.493073 -235.049655 
L 232.361821 -235.049655 
L 229.23057 -235.049655 
L 226.099318 -235.049655 
L 222.968066 -235.049655 
L 219.836815 -235.049655 
L 216.705563 -235.049655 
L 213.574311 -235.049655 
L 210.44306 -235.049655 
L 207.311808 -235.049655 
L 204.180556 -235.049655 
L 201.049304 -235.049655 
L 197.918053 -235.049655 
L 194.786801 -235.049655 
L 191.655549 -235.049655 
L 188.524298 -235.049655 
L 185.393046 -235.049655 
L 182.261794 -235.049655 
L 179.130543 -235.049655 
L 175.999291 -235.049655 
L 172.868039 -235.049655 
L 169.736788 -235.049655 
L 166.605536 -235.049655 
L 163.474284 -235.049655 
L 160.343032 -235.049655 
L 157.211781 -235.049655 
L 154.080529 -235.049655 
L 150.949277 -235.049655 
L 147.818026 -235.049655 
L 144.686774 -235.049655 
L 141.555522 -235.049655 
L 138.424271 -235.049655 
L 135.293019 -235.049655 
L 132.161767 -235.049655 
L 129.030515 -235.049655 
L 125.899264 -235.049655 
L 122.768012 -235.049655 
L 119.63676 -235.049655 
L 116.505509 -235.049655 
L 113.374257 -235.049655 
L 110.243005 -235.049655 
L 107.111754 -235.049655 
L 103.980502 -235.049655 
L 100.84925 -235.049655 
L 97.717999 -235.049655 
L 94.586747 -235.049655 
L 91.455495 -235.049655 
L 88.324243 -235.049655 
L 85.192992 -235.049655 
L 82.06174 -235.049655 
L 78.930488 -235.049655 
L 75.799237 -235.049655 
z
" id="m64a575a4a7" style="stroke:#808080;stroke-opacity:0.2;stroke-width:0.8;"/>
    </defs>
    <g clip-path="url(#pb998e577cc)">
     <use style="fill:#808080;fill-opacity:0.2;stroke:#808080;stroke-opacity:0.2;stroke-width:0.8;" x="0" xlink:href="#m64a575a4a7" y="266.760567"/>
    </g>
   </g>
   <g id="PolyCollection_2">
    <defs>
     <path d="M 75.799237 -235.049655 
L 75.799237 -235.049655 
L 78.930488 -142.313698 
L 82.06174 -152.157179 
L 85.192992 -161.61531 
L 88.324243 -171.250054 
L 91.455495 -181.211316 
L 94.586747 -185.95456 
L 97.717999 -189.293334 
L 100.84925 -192.458118 
L 103.980502 -195.642284 
L 107.111754 -198.978091 
L 110.243005 -201.228701 
L 113.374257 -202.674445 
L 116.505509 -204.134434 
L 119.63676 -205.22148 
L 122.768012 -206.704012 
L 125.899264 -208.203996 
L 129.030515 -208.925662 
L 132.161767 -209.775346 
L 135.293019 -210.260792 
L 138.424271 -211.240172 
L 141.555522 -211.552729 
L 144.686774 -210.813304 
L 147.818026 -209.768165 
L 150.949277 -209.286438 
L 154.080529 -207.06399 
L 157.211781 -206.160484 
L 160.343032 -204.719152 
L 163.474284 -202.008439 
L 166.605536 -200.571073 
L 169.736788 -198.305193 
L 172.868039 -198.132096 
L 175.999291 -196.835087 
L 179.130543 -194.135321 
L 182.261794 -193.065711 
L 185.393046 -193.074831 
L 188.524298 -193.307207 
L 191.655549 -192.586055 
L 194.786801 -192.51978 
L 197.918053 -192.262962 
L 201.049304 -190.517946 
L 204.180556 -189.464955 
L 207.311808 -188.663348 
L 210.44306 -187.598118 
L 213.574311 -187.464585 
L 216.705563 -186.857134 
L 219.836815 -186.291592 
L 222.968066 -185.809782 
L 226.099318 -182.409004 
L 229.23057 -182.30457 
L 232.361821 -181.016915 
L 235.493073 -180.6231 
L 238.624325 -179.322997 
L 241.755577 -174.122293 
L 244.886828 -174.304773 
L 248.01808 -172.552676 
L 251.149332 -172.337917 
L 254.280583 -170.241334 
L 257.411835 -170.58364 
L 260.543087 -171.049103 
L 263.674338 -170.344111 
L 266.80559 -170.827037 
L 269.936842 -169.226618 
L 273.068093 -162.111684 
L 276.199345 -162.694684 
L 279.330597 -160.570768 
L 282.461849 -161.113675 
L 285.5931 -152.012897 
L 288.724352 -152.657631 
L 291.855604 -153.305254 
L 294.986855 -152.66613 
L 298.118107 -153.294464 
L 301.249359 -152.697728 
L 304.38061 -147.877519 
L 307.511862 -148.47963 
L 310.643114 -144.619311 
L 313.774366 -145.214968 
L 316.905617 -144.921956 
L 320.036869 -145.50293 
L 323.168121 -137.897191 
L 326.299372 -136.202699 
L 329.430624 -136.743475 
L 332.561876 -132.152645 
L 335.693127 -132.675972 
L 338.824379 -130.9071 
L 341.955631 -127.405692 
L 345.086882 -127.886332 
L 348.218134 -125.26269 
L 351.349386 -125.707021 
L 354.480638 -126.11513 
L 357.611889 -118.955319 
L 360.743141 -119.25166 
L 363.874393 -117.357733 
L 367.005644 -117.488744 
L 370.136896 -110.339734 
L 373.268148 -109.532564 
L 376.399399 -86.628996 
L 379.530651 -84.206553 
L 382.661903 -78.185789 
L 385.793155 -64.083923 
L 385.793155 -109.885377 
L 385.793155 -109.885377 
L 382.661903 -162.320823 
L 379.530651 -168.03565 
L 376.399399 -171.353488 
L 373.268148 -213.070089 
L 370.136896 -213.667888 
L 367.005644 -222.452423 
L 363.874393 -222.490506 
L 360.743141 -222.082924 
L 357.611889 -221.998293 
L 354.480638 -220.533878 
L 351.349386 -220.41642 
L 348.218134 -220.270719 
L 345.086882 -219.687053 
L 341.955631 -219.537933 
L 338.824379 -218.948014 
L 335.693127 -222.592407 
L 332.561876 -222.472584 
L 329.430624 -221.948316 
L 326.299372 -221.839121 
L 323.168121 -221.669755 
L 320.036869 -222.659383 
L 316.905617 -222.533347 
L 313.774366 -222.320443 
L 310.643114 -222.195052 
L 307.511862 -221.801776 
L 304.38061 -221.68281 
L 301.249359 -223.4092 
L 298.118107 -223.175563 
L 294.986855 -223.041809 
L 291.855604 -222.829043 
L 288.724352 -222.696411 
L 285.5931 -222.552061 
L 282.461849 -223.068632 
L 279.330597 -222.912196 
L 276.199345 -223.590925 
L 273.068093 -223.434565 
L 269.936842 -232.460629 
L 266.80559 -232.902788 
L 263.674338 -232.804401 
L 260.543087 -233.057041 
L 257.411835 -232.95102 
L 254.280583 -232.812948 
L 251.149332 -233.652643 
L 248.01808 -233.367111 
L 244.886828 -234.85146 
L 241.755577 -234.663959 
L 238.624325 -235.049655 
L 235.493073 -235.049655 
L 232.361821 -235.049655 
L 229.23057 -235.049655 
L 226.099318 -235.049655 
L 222.968066 -235.049655 
L 219.836815 -235.049655 
L 216.705563 -235.049655 
L 213.574311 -235.049655 
L 210.44306 -235.049655 
L 207.311808 -235.049655 
L 204.180556 -235.049655 
L 201.049304 -235.049655 
L 197.918053 -235.049655 
L 194.786801 -235.049655 
L 191.655549 -235.049655 
L 188.524298 -235.049655 
L 185.393046 -235.049655 
L 182.261794 -235.049655 
L 179.130543 -235.049655 
L 175.999291 -235.049655 
L 172.868039 -235.049655 
L 169.736788 -235.049655 
L 166.605536 -235.049655 
L 163.474284 -235.049655 
L 160.343032 -235.049655 
L 157.211781 -235.049655 
L 154.080529 -235.049655 
L 150.949277 -235.049655 
L 147.818026 -235.049655 
L 144.686774 -235.049655 
L 141.555522 -235.049655 
L 138.424271 -235.049655 
L 135.293019 -235.049655 
L 132.161767 -235.049655 
L 129.030515 -235.049655 
L 125.899264 -235.049655 
L 122.768012 -235.049655 
L 119.63676 -235.049655 
L 116.505509 -235.049655 
L 113.374257 -235.049655 
L 110.243005 -235.049655 
L 107.111754 -235.049655 
L 103.980502 -235.049655 
L 100.84925 -235.049655 
L 97.717999 -235.049655 
L 94.586747 -235.049655 
L 91.455495 -235.049655 
L 88.324243 -235.049655 
L 85.192992 -235.049655 
L 82.06174 -235.049655 
L 78.930488 -235.049655 
L 75.799237 -235.049655 
z
" id="md09b435781" style="stroke:#808080;stroke-opacity:0.2;stroke-width:0.8;"/>
    </defs>
    <g clip-path="url(#pb998e577cc)">
     <use style="fill:#808080;fill-opacity:0.2;stroke:#808080;stroke-opacity:0.2;stroke-width:0.8;" x="0" xlink:href="#md09b435781" y="266.760567"/>
    </g>
   </g>
   <g id="line2d_13">
    <path clip-path="url(#pb998e577cc)" d="M 385.793155 75.356369 
L 385.588403 75.356369 
L 385.588403 75.25243 
L 385.588403 72.886803 
L 385.383651 72.907473 
L 385.383651 72.777052 
L 385.383651 71.057404 
L 385.1789 71.057404 
L 385.1789 71.010374 
L 385.1789 69.10414 
L 384.974148 69.10414 
L 384.974148 69.054358 
L 384.974148 68.915889 
L 384.769397 68.915889 
L 384.769397 68.865809 
L 384.769397 67.746053 
L 384.359893 67.694275 
L 384.359893 67.642389 
L 384.359893 66.787742 
L 384.155142 66.787742 
L 384.155142 66.734515 
L 384.155142 66.302495 
L 383.95039 66.320827 
L 383.95039 66.248528 
L 383.95039 66.103699 
L 383.540887 66.049406 
L 383.540887 65.994997 
L 383.540887 65.264079 
L 383.336135 65.282032 
L 383.336135 65.20848 
L 383.336135 65.06114 
L 383.131384 65.06114 
L 383.131384 65.005204 
L 383.131384 62.905639 
L 382.926632 62.905639 
L 382.926632 62.846437 
L 382.926632 62.693784 
L 382.517129 62.634222 
L 382.517129 62.651129 
L 382.517129 62.497844 
L 382.312377 62.497844 
L 382.312377 62.437903 
L 382.312377 61.742888 
L 381.493371 61.636995 
L 381.493371 61.653529 
L 381.493371 60.948805 
L 381.288619 60.948805 
L 381.288619 60.886275 
L 381.288619 60.807415 
L 381.083868 60.823607 
L 381.083868 60.744624 
L 381.083868 59.869973 
L 380.879116 59.869973 
L 380.879116 59.805673 
L 380.879116 59.403898 
L 380.674365 59.403898 
L 380.674365 59.33882 
L 380.674365 59.096285 
L 380.469613 59.096285 
L 380.469613 59.030676 
L 380.469613 58.542361 
L 380.264861 58.542361 
L 380.264861 58.475825 
L 380.264861 58.393985 
L 380.06011 58.393985 
L 380.06011 58.327168 
L 380.06011 58.162947 
L 379.855358 58.162947 
L 379.855358 58.095714 
L 379.855358 57.682862 
L 379.650607 57.697703 
L 379.650607 57.61481 
L 379.650607 57.031898 
L 379.445855 57.031898 
L 379.445855 56.962747 
L 379.445855 56.542822 
L 379.241103 56.542822 
L 379.241103 56.472827 
L 379.241103 55.624284 
L 378.8316 55.638171 
L 378.8316 55.566595 
L 378.8316 54.879165 
L 378.422097 54.892706 
L 378.422097 54.819796 
L 378.422097 54.733229 
L 378.012594 54.746716 
L 378.012594 54.673464 
L 378.012594 53.536324 
L 377.807842 53.536324 
L 377.807842 53.46099 
L 377.807842 53.284194 
L 377.603091 53.296982 
L 377.603091 53.208382 
L 377.603091 52.763801 
L 377.193587 52.687053 
L 377.193587 52.699553 
L 377.193587 52.341185 
L 376.784084 52.26361 
L 376.784084 52.27591 
L 376.784084 52.185849 
L 376.374581 52.198117 
L 376.374581 52.120138 
L 376.374581 52.029768 
L 375.350823 51.988003 
L 375.350823 52.000218 
L 375.350823 51.909395 
L 374.531817 51.85491 
L 374.531817 51.867089 
L 374.531817 51.684511 
L 374.122313 51.696609 
L 374.122313 51.61717 
L 374.122313 51.525508 
L 373.71281 51.445717 
L 373.71281 51.457713 
L 373.71281 51.18143 
L 373.098555 51.112758 
L 373.098555 51.124603 
L 373.098555 50.846526 
L 372.893804 50.846526 
L 372.893804 50.765267 
L 372.893804 50.39225 
L 372.279549 50.321572 
L 372.279549 50.333025 
L 372.279549 50.145294 
L 371.460543 50.08524 
L 371.460543 50.096596 
L 371.460543 49.147715 
L 370.641536 49.084611 
L 370.641536 49.095449 
L 370.641536 48.999581 
L 370.232033 49.01038 
L 370.232033 49.021192 
L 370.232033 48.442815 
L 370.027282 48.442815 
L 370.027282 48.356444 
L 370.027282 48.065091 
L 369.82253 48.065091 
L 369.82253 47.977972 
L 369.82253 47.880432 
L 369.617778 47.880432 
L 369.617778 47.792915 
L 369.617778 47.400805 
L 369.003524 47.32224 
L 369.003524 47.332146 
L 369.003524 47.233514 
L 368.59402 47.243376 
L 368.59402 47.154381 
L 368.59402 47.055385 
L 366.341753 46.954168 
L 366.341753 46.963952 
L 366.341753 46.863944 
L 365.93225 46.773487 
L 365.93225 46.78318 
L 365.93225 46.582286 
L 365.727498 46.582286 
L 365.727498 46.491175 
L 365.727498 46.188294 
L 364.70374 46.124365 
L 364.70374 46.133718 
L 364.70374 46.032067 
L 363.065727 45.995255 
L 363.065727 46.004585 
L 363.065727 45.902185 
L 362.451472 45.818104 
L 362.451472 45.827348 
L 362.451472 45.621509 
L 361.837218 45.639789 
L 361.837218 45.545639 
L 361.837218 45.234898 
L 361.018211 45.157654 
L 361.018211 45.166548 
L 361.018211 44.853406 
L 359.789702 44.792122 
L 359.789702 44.800831 
L 359.789702 44.484869 
L 358.356441 44.430212 
L 358.356441 44.438743 
L 358.356441 44.119715 
L 356.923179 44.062926 
L 356.923179 44.071272 
L 356.923179 43.964034 
L 356.308925 43.873108 
L 356.308925 43.881353 
L 356.308925 43.773623 
L 354.670912 43.722829 
L 354.670912 43.731028 
L 354.670912 43.622458 
L 354.056657 43.529898 
L 354.056657 43.537993 
L 354.056657 43.428919 
L 352.828147 43.359643 
L 352.828147 43.367666 
L 352.828147 43.147929 
L 352.009141 43.061334 
L 352.009141 43.069189 
L 352.009141 42.958657 
L 351.599638 42.966452 
L 351.599638 42.86343 
L 351.599638 42.641313 
L 350.985383 42.656526 
L 350.985383 42.552641 
L 350.985383 42.440978 
L 349.552122 42.486063 
L 349.552122 42.381283 
L 349.552122 42.268795 
L 349.142619 42.27621 
L 349.142619 42.17084 
L 349.142619 41.604482 
L 347.914109 41.525387 
L 347.914109 41.532347 
L 347.914109 41.417979 
L 347.709357 41.417979 
L 347.709357 41.310267 
L 347.709357 40.850206 
L 346.890351 40.754131 
L 346.890351 40.7606 
L 346.890351 40.644697 
L 345.252338 40.689687 
L 345.252338 40.579451 
L 345.252338 40.462582 
L 344.023829 40.376807 
L 344.023829 40.383086 
L 344.023829 40.265397 
L 342.385816 40.190612 
L 342.385816 40.196802 
L 342.385816 40.078117 
L 340.952555 39.995595 
L 340.952555 40.001682 
L 340.952555 39.762278 
L 333.991 39.71686 
L 333.991 39.722911 
L 333.991 39.599648 
L 333.786249 39.599648 
L 333.786249 39.60562 
L 333.786249 39.482081 
L 332.352988 39.393302 
L 332.352988 39.399157 
L 332.352988 39.024954 
L 319.86314 38.98313 
L 319.86314 38.988971 
L 319.86314 38.857389 
L 319.658389 38.863138 
L 319.658389 38.863138 
L 319.658389 38.731244 
L 319.248885 38.736901 
L 319.248885 38.742567 
L 319.248885 38.610255 
L 318.634631 38.62141 
L 318.634631 38.627001 
L 318.634631 38.494167 
L 318.020376 38.50517 
L 318.020376 38.510685 
L 318.020376 38.377325 
L 316.587115 38.275772 
L 316.587115 38.28114 
L 316.587115 38.01186 
L 316.382363 38.01186 
L 316.382363 38.017025 
L 316.382363 37.746648 
L 313.720592 37.669883 
L 313.720592 37.674832 
L 313.720592 37.537674 
L 313.515841 37.542521 
L 313.515841 37.542521 
L 313.515841 37.405024 
L 312.696834 37.419283 
L 312.696834 37.424052 
L 312.696834 36.869978 
L 312.08258 36.878641 
L 312.08258 36.882984 
L 312.08258 36.60387 
L 311.263573 36.616257 
L 311.263573 36.6204 
L 311.263573 36.480032 
L 310.444567 36.492157 
L 310.444567 36.496212 
L 310.444567 36.355142 
L 310.239815 36.355142 
L 310.239815 36.359088 
L 310.239815 36.217661 
L 306.554286 36.140076 
L 306.554286 36.143904 
L 306.554286 35.999844 
L 303.892516 35.899048 
L 303.892516 35.902716 
L 303.892516 35.756551 
L 303.278261 35.763655 
L 303.278261 35.767216 
L 303.278261 35.620418 
L 302.868758 35.62386 
L 302.868758 35.627307 
L 302.868758 35.479997 
L 302.254503 35.486656 
L 302.254503 35.489995 
L 302.254503 35.193827 
L 301.230745 35.206211 
L 301.230745 35.209321 
L 301.230745 34.910805 
L 300.002235 34.925128 
L 300.002235 34.928009 
L 300.002235 34.777561 
L 297.954719 34.802516 
L 297.954719 34.805314 
L 297.954719 34.653257 
L 295.702452 34.680152 
L 295.702452 34.682868 
L 295.702452 34.529028 
L 295.088197 34.534199 
L 295.088197 34.536791 
L 295.088197 34.382251 
L 293.245433 34.402039 
L 293.245433 34.404533 
L 293.245433 34.248436 
L 292.426426 34.255518 
L 292.426426 34.257887 
L 292.426426 34.100926 
L 291.197917 34.112116 
L 291.197917 34.114366 
L 291.197917 33.95624 
L 287.71714 33.990455 
L 287.71714 33.992628 
L 287.71714 33.83167 
L 287.512388 33.83167 
L 287.512388 33.833695 
L 287.512388 33.510551 
L 284.645866 33.533221 
L 284.645866 33.534988 
L 284.645866 33.370773 
L 280.14133 33.405319 
L 280.14133 33.407 
L 280.14133 33.238907 
L 277.070057 33.26045 
L 277.070057 33.262012 
L 277.070057 33.091059 
L 272.36077 33.122393 
L 272.36077 33.123851 
L 272.36077 32.948512 
L 266.422973 32.985416 
L 266.422973 32.986775 
L 266.422973 32.805676 
L 264.580209 32.815104 
L 264.580209 32.816293 
L 264.580209 32.633057 
L 257.823406 32.666027 
L 257.823406 32.667096 
L 257.823406 32.476715 
L 248.200081 32.518306 
L 248.200081 32.51926 
L 248.200081 32.31789 
L 244.514553 32.330353 
L 244.514553 32.331102 
L 244.514553 32.124872 
L 239.805266 32.136199 
L 239.805266 32.136729 
L 239.805266 31.924086 
L 236.733992 31.927873 
L 236.733992 31.928149 
L 236.733992 31.710912 
L 75.799237 31.710912 
L 75.799237 31.710912 
" style="fill:none;stroke:#0173b2;stroke-linecap:round;stroke-opacity:0.3;"/>
   </g>
   <g id="line2d_14">
    <path clip-path="url(#pb998e577cc)" d="M 385.793155 107.13697 
L 369.477685 107.13697 
L 369.477685 109.422608 
L 369.477685 109.422608 
L 369.477685 106.508419 
L 369.477685 106.508419 
L 369.477685 103.406219 
L 369.477685 103.406219 
L 369.477685 100.097204 
L 369.477685 100.097204 
L 369.477685 96.559982 
L 369.477685 96.559982 
L 369.477685 92.770102 
L 369.477685 92.770102 
L 369.477685 88.699489 
L 369.477685 88.699489 
L 369.477685 84.315752 
L 369.477685 84.315752 
L 369.477685 79.581317 
L 369.477685 79.581317 
L 369.477685 74.452345 
L 369.477685 74.452345 
L 369.477685 68.877375 
L 369.477685 68.877375 
L 369.477685 62.79559 
L 369.477685 62.79559 
L 369.477685 56.134588 
L 369.477685 56.134588 
L 369.477685 48.807485 
L 369.477685 48.807485 
L 369.477685 40.709108 
L 353.162216 40.709108 
L 353.162216 41.209008 
L 336.846746 41.209008 
L 336.846746 41.767719 
L 320.531277 41.767719 
L 320.531277 42.39627 
L 304.215808 42.39627 
L 304.215808 43.108627 
L 287.900338 43.108627 
L 287.900338 43.92275 
L 271.584869 43.92275 
L 271.584869 44.862122 
L 255.2694 44.862122 
L 255.2694 45.958056 
L 238.95393 45.958056 
L 238.95393 47.253251 
L 222.638461 47.253251 
L 222.638461 48.807485 
L 206.322992 48.807485 
L 206.322992 50.707104 
L 190.007522 50.707104 
L 190.007522 53.081628 
L 190.007522 53.081628 
L 190.007522 31.710912 
L 173.692053 31.710912 
L 173.692053 31.710912 
L 157.376583 31.710912 
L 157.376583 31.710912 
L 141.061114 31.710912 
L 141.061114 31.710912 
L 124.745645 31.710912 
L 124.745645 31.710912 
L 108.430175 31.710912 
L 108.430175 31.710912 
L 92.114706 31.710912 
L 92.114706 31.710912 
L 75.799237 31.710912 
L 75.799237 31.710912 
" style="fill:none;stroke:#de8f05;stroke-linecap:round;stroke-opacity:0.3;"/>
   </g>
   <g id="line2d_15">
    <path clip-path="url(#pb998e577cc)" d="M 385.793155 97.891195 
L 369.477685 97.891195 
L 369.477685 100.097204 
L 369.477685 100.097204 
L 369.477685 96.559982 
L 369.477685 96.559982 
L 369.477685 92.770102 
L 369.477685 92.770102 
L 369.477685 88.699489 
L 369.477685 88.699489 
L 369.477685 84.315752 
L 369.477685 84.315752 
L 369.477685 79.581317 
L 369.477685 79.581317 
L 369.477685 74.452345 
L 369.477685 74.452345 
L 369.477685 68.877375 
L 369.477685 68.877375 
L 369.477685 62.79559 
L 353.162216 62.79559 
L 353.162216 64.275813 
L 336.846746 64.275813 
L 336.846746 65.904058 
L 336.846746 65.904058 
L 336.846746 58.705501 
L 336.846746 58.705501 
L 336.846746 50.707104 
L 336.846746 50.707104 
L 336.846746 41.767719 
L 320.531277 41.767719 
L 320.531277 42.39627 
L 320.531277 42.39627 
L 320.531277 31.710912 
L 304.215808 31.710912 
L 304.215808 31.710912 
L 287.900338 31.710912 
L 287.900338 31.710912 
L 271.584869 31.710912 
L 271.584869 31.710912 
L 255.2694 31.710912 
L 255.2694 31.710912 
L 238.95393 31.710912 
L 238.95393 31.710912 
L 222.638461 31.710912 
L 222.638461 31.710912 
L 206.322992 31.710912 
L 206.322992 31.710912 
L 190.007522 31.710912 
L 190.007522 31.710912 
L 173.692053 31.710912 
L 173.692053 31.710912 
L 157.376583 31.710912 
L 157.376583 31.710912 
L 141.061114 31.710912 
L 141.061114 31.710912 
L 124.745645 31.710912 
L 124.745645 31.710912 
L 108.430175 31.710912 
L 108.430175 31.710912 
L 92.114706 31.710912 
L 92.114706 31.710912 
L 75.799237 31.710912 
L 75.799237 31.710912 
" style="fill:none;stroke:#029e73;stroke-linecap:round;stroke-opacity:0.3;"/>
   </g>
   <g id="line2d_16">
    <path clip-path="url(#pb998e577cc)" d="M 385.793155 135.631259 
L 378.043307 135.631259 
L 378.043307 136.660173 
L 378.043307 132.490712 
L 370.293459 132.490712 
L 370.293459 133.562837 
L 370.293459 127.133646 
L 362.543611 127.133646 
L 362.543611 128.256266 
L 362.543611 127.370309 
L 354.793763 127.370309 
L 354.793763 128.522832 
L 354.793763 98.35857 
L 347.043915 98.35857 
L 347.043915 99.507667 
L 347.043915 93.880269 
L 339.294067 93.880269 
L 339.294067 95.031553 
L 339.294067 90.891357 
L 331.544219 90.891357 
L 331.544219 92.051758 
L 331.544219 45.958056 
L 323.794371 45.958056 
L 323.794371 46.365117 
L 323.794371 41.767719 
L 316.044523 41.767719 
L 316.044523 42.072471 
L 308.294675 42.072471 
L 308.294675 42.39627 
L 300.544827 42.39627 
L 300.544827 42.740959 
L 292.794979 42.740959 
L 292.794979 43.108627 
L 285.045131 43.108627 
L 285.045131 43.501652 
L 277.295283 43.501652 
L 277.295283 43.92275 
L 277.295283 31.710912 
L 75.799237 31.710912 
L 75.799237 31.710912 
" style="fill:none;stroke:#d55e00;stroke-linecap:round;stroke-opacity:0.3;"/>
   </g>
   <g id="line2d_17">
    <path clip-path="url(#pb998e577cc)" d="M 385.793155 198.05114 
L 373.870312 198.05114 
L 373.870312 80.558264 
L 361.947469 80.558264 
L 361.947469 81.99495 
L 361.947469 44.862122 
L 350.024626 44.862122 
L 350.024626 45.38817 
L 350.024626 38.834484 
L 338.101783 38.834484 
L 338.101783 39.144204 
L 326.17894 39.144204 
L 326.17894 39.482081 
L 314.256097 39.482081 
L 314.256097 39.852137 
L 302.333254 39.852137 
L 302.333254 40.259198 
L 290.410411 40.259198 
L 290.410411 40.709108 
L 278.487568 40.709108 
L 278.487568 41.209008 
L 266.564725 41.209008 
L 266.564725 41.767719 
L 254.641882 41.767719 
L 254.641882 42.39627 
L 242.719039 42.39627 
L 242.719039 43.108627 
L 230.796196 43.108627 
L 230.796196 43.92275 
L 218.873353 43.92275 
L 218.873353 44.862122 
L 206.95051 44.862122 
L 206.95051 45.958056 
L 195.027667 45.958056 
L 195.027667 47.253251 
L 183.104824 47.253251 
L 183.104824 48.807485 
L 171.181981 48.807485 
L 171.181981 50.707104 
L 159.259138 50.707104 
L 159.259138 53.081628 
L 147.336295 53.081628 
L 147.336295 56.134588 
L 135.413452 56.134588 
L 135.413452 60.2052 
L 123.490609 60.2052 
L 123.490609 65.904058 
L 111.567766 65.904058 
L 111.567766 74.452345 
L 99.644923 74.452345 
L 99.644923 88.699489 
L 99.644923 31.710912 
L 75.799237 31.710912 
L 75.799237 31.710912 
" style="fill:none;stroke:#cc78bc;stroke-linecap:round;stroke-opacity:0.3;"/>
   </g>
   <g id="line2d_18">
    <path clip-path="url(#pb998e577cc)" d="M 75.799237 31.710912 
L 78.930488 31.710912 
L 82.06174 31.710912 
L 85.192992 31.710912 
L 88.324243 31.710912 
L 91.455495 31.710912 
L 94.586747 31.710912 
L 97.717999 31.710912 
L 100.84925 42.820806 
L 103.980502 42.072471 
L 107.111754 41.324136 
L 110.243005 40.575801 
L 113.374257 40.000159 
L 116.505509 39.551158 
L 119.63676 39.102157 
L 122.768012 38.653156 
L 125.899264 38.319284 
L 129.030515 38.01995 
L 132.161767 37.720616 
L 135.293019 37.421282 
L 138.424271 37.204183 
L 141.555522 36.990373 
L 144.686774 36.776563 
L 147.818026 36.570976 
L 150.949277 36.410619 
L 154.080529 36.250261 
L 157.211781 36.089904 
L 160.343032 35.941882 
L 163.474284 35.817159 
L 166.605536 35.692437 
L 169.736788 35.567714 
L 172.868039 35.456423 
L 175.999291 35.356645 
L 179.130543 35.256867 
L 182.261794 35.157089 
L 185.393046 35.070569 
L 188.524298 34.988932 
L 191.655549 39.133469 
L 194.786801 38.960689 
L 197.918053 38.800468 
L 201.049304 38.641295 
L 204.180556 38.482121 
L 207.311808 38.329911 
L 210.44306 38.199432 
L 213.574311 38.068953 
L 216.705563 37.938474 
L 219.836815 37.810526 
L 222.968066 37.689666 
L 226.099318 37.580668 
L 229.23057 37.471669 
L 232.361821 37.365961 
L 235.493073 37.263541 
L 238.624325 37.204065 
L 241.755577 37.151764 
L 244.886828 37.102589 
L 248.01808 37.013215 
L 251.149332 36.963523 
L 254.280583 36.873616 
L 257.411835 36.792931 
L 260.543087 36.752781 
L 263.674338 36.674576 
L 266.80559 36.669129 
L 269.936842 36.593639 
L 273.068093 36.556068 
L 276.199345 36.486301 
L 279.330597 38.871565 
L 282.461849 38.803864 
L 285.5931 38.735658 
L 288.724352 38.733877 
L 291.855604 38.670858 
L 294.986855 38.640915 
L 298.118107 38.640246 
L 301.249359 38.637264 
L 304.38061 38.722319 
L 307.511862 38.663033 
L 310.643114 38.660966 
L 313.774366 38.822327 
L 316.905617 38.896187 
L 320.036869 38.940195 
L 323.168121 40.996566 
L 326.299372 41.825283 
L 329.430624 41.709 
L 332.561876 50.89187 
L 335.693127 50.788041 
L 338.824379 55.439459 
L 341.955631 56.151641 
L 345.086882 56.033737 
L 348.218134 57.176905 
L 351.349386 58.515484 
L 354.480638 58.51028 
L 357.611889 64.450409 
L 360.743141 64.375693 
L 363.874393 71.99576 
L 367.005644 71.986321 
L 370.136896 93.190097 
L 373.268148 94.674646 
L 376.399399 117.843629 
L 379.530651 119.478059 
L 382.661903 120.433879 
L 385.793155 202.676644 
" style="fill:none;stroke:#0173b2;stroke-linecap:round;stroke-opacity:0.8;stroke-width:2;"/>
   </g>
   <g id="line2d_19">
    <path clip-path="url(#pb998e577cc)" d="M 75.799237 31.710912 
L 78.930488 62.622897 
L 82.06174 59.341737 
L 85.192992 56.790007 
L 88.324243 53.862 
L 91.455495 50.369846 
L 94.586747 48.673432 
L 97.717999 47.47741 
L 100.84925 46.57498 
L 103.980502 45.628532 
L 107.111754 44.440699 
L 110.243005 43.779003 
L 113.374257 43.501513 
L 116.505509 43.179186 
L 119.63676 43.250097 
L 122.768012 42.834029 
L 125.899264 42.236969 
L 129.030515 42.138932 
L 132.161767 41.905719 
L 135.293019 41.962305 
L 138.424271 41.599447 
L 141.555522 41.701139 
L 144.686774 42.33012 
L 147.818026 42.989164 
L 150.949277 43.269696 
L 154.080529 44.272154 
L 157.211781 44.618186 
L 160.343032 45.15871 
L 163.474284 46.150037 
L 166.605536 46.624039 
L 169.736788 49.525368 
L 172.868039 49.455303 
L 175.999291 49.799866 
L 179.130543 52.061617 
L 182.261794 52.310772 
L 185.393046 52.167543 
L 188.524298 51.948012 
L 191.655549 52.075055 
L 194.786801 51.980788 
L 197.918053 51.953184 
L 201.049304 52.447082 
L 204.180556 52.697442 
L 207.311808 52.861265 
L 210.44306 53.127491 
L 213.574311 53.071323 
L 216.705563 53.179395 
L 219.836815 53.274552 
L 222.968066 53.340959 
L 226.099318 56.178335 
L 229.23057 56.111329 
L 232.361821 57.108997 
L 235.493073 57.146582 
L 238.624325 57.503267 
L 241.755577 62.36744 
L 244.886828 62.18245 
L 248.01808 63.800673 
L 251.149332 63.765287 
L 254.280583 65.233426 
L 257.411835 64.993237 
L 260.543087 64.707495 
L 263.674338 65.186311 
L 266.80559 64.895655 
L 269.936842 65.916943 
L 273.068093 73.987442 
L 276.199345 73.617762 
L 279.330597 75.019085 
L 282.461849 74.669414 
L 285.5931 79.478088 
L 288.724352 79.083546 
L 291.855604 78.693418 
L 294.986855 78.906598 
L 298.118107 78.525553 
L 301.249359 78.707103 
L 304.38061 81.980403 
L 307.511862 81.619864 
L 310.643114 83.353385 
L 313.774366 82.992862 
L 316.905617 83.032916 
L 320.036869 82.67941 
L 323.168121 86.977094 
L 326.299372 87.739657 
L 329.430624 87.414671 
L 332.561876 89.447952 
L 335.693127 89.126378 
L 338.824379 91.83301 
L 341.955631 93.288754 
L 345.086882 92.973874 
L 348.218134 93.993862 
L 351.349386 93.698846 
L 354.480638 93.436063 
L 357.611889 96.283761 
L 360.743141 96.093275 
L 363.874393 96.836447 
L 367.005644 96.789983 
L 370.136896 104.756756 
L 373.268148 105.459241 
L 376.399399 137.769325 
L 379.530651 140.639465 
L 382.661903 146.507261 
L 385.793155 202.676644 
" style="fill:none;stroke:#d55e00;stroke-linecap:round;stroke-opacity:0.8;stroke-width:2;"/>
   </g>
   <g id="patch_3">
    <path d="M 50.299541 202.676644 
L 50.299541 31.710912 
" style="fill:none;stroke:#262626;stroke-linecap:square;stroke-linejoin:miter;"/>
   </g>
   <g id="patch_4">
    <path d="M 75.799237 221.22493 
L 385.793155 221.22493 
" style="fill:none;stroke:#262626;stroke-linecap:square;stroke-linejoin:miter;"/>
   </g>
   <g id="text_15">
    <!-- Precision Recall Curves -->
    <g style="fill:#262626;" transform="translate(158.338823 17.162625)scale(0.144 -0.144)">
     <defs>
      <path d="M 62.09375 67.984375 
C 62.09375 69.796875 62 69.890625 61.40625 69.890625 
C 61 69.890625 60.90625 69.796875 60.203125 68.59375 
L 55.796875 60.140625 
C 50.90625 66.390625 44.90625 70 37.203125 70 
C 20.09375 70 4.59375 54.796875 4.59375 34.046875 
C 4.59375 13.078125 20.09375 -2 37.296875 -2 
C 52.59375 -2 62.09375 11.578125 62.09375 23.15625 
C 62.09375 24.171875 62.09375 24.578125 61.203125 24.578125 
C 60.40625 24.578125 60.40625 24.265625 60.296875 23.359375 
C 59.5 9.25 49.5 0.59375 38.703125 0.59375 
C 28.5 0.59375 12.203125 7.84375 12.203125 34.046875 
C 12.203125 60.34375 28.796875 67.390625 38.5 67.390625 
C 49.796875 67.390625 58 57.515625 59.90625 43.515625 
C 60.09375 42.296875 60.09375 42.109375 61 42.109375 
C 62.09375 42.109375 62.09375 42.296875 62.09375 44.125 
z
" id="CMR17-67"/>
     </defs>
     <use transform="scale(0.996264)" xlink:href="#CMR17-80"/>
     <use transform="translate(62.586301 0)scale(0.996264)" xlink:href="#CMR17-114"/>
     <use transform="translate(97.867068 0)scale(0.996264)" xlink:href="#CMR17-101"/>
     <use transform="translate(138.352729 0)scale(0.996264)" xlink:href="#CMR17-99"/>
     <use transform="translate(178.838389 0)scale(0.996264)" xlink:href="#CMR17-105"/>
     <use transform="translate(203.709448 0)scale(0.996264)" xlink:href="#CMR17-115"/>
     <use transform="translate(239.510785 0)scale(0.996264)" xlink:href="#CMR17-105"/>
     <use transform="translate(264.381844 0)scale(0.996264)" xlink:href="#CMR17-111"/>
     <use transform="translate(310.072321 0)scale(0.996264)" xlink:href="#CMR17-110"/>
     <use transform="translate(391.043657 0)scale(0.996264)" xlink:href="#CMR17-82"/>
     <use transform="translate(458.834759 0)scale(0.996264)" xlink:href="#CMR17-101"/>
     <use transform="translate(499.32042 0)scale(0.996264)" xlink:href="#CMR17-99"/>
     <use transform="translate(539.80608 0)scale(0.996264)" xlink:href="#CMR17-97"/>
     <use transform="translate(585.496557 0)scale(0.996264)" xlink:href="#CMR17-108"/>
     <use transform="translate(610.367616 0)scale(0.996264)" xlink:href="#CMR17-108"/>
     <use transform="translate(665.31464 0)scale(0.996264)" xlink:href="#CMR17-67"/>
     <use transform="translate(731.824521 0)scale(0.996264)" xlink:href="#CMR17-117"/>
     <use transform="translate(782.719891 0)scale(0.996264)" xlink:href="#CMR17-114"/>
     <use transform="translate(818.000659 0)scale(0.996264)" xlink:href="#CMR17-118"/>
     <use transform="translate(863.69112 0)scale(0.996264)" xlink:href="#CMR17-101"/>
     <use transform="translate(904.176781 0)scale(0.996264)" xlink:href="#CMR17-115"/>
    </g>
   </g>
   <g id="legend_1">
    <g id="line2d_20">
     <path d="M 413.17285 36.911065 
L 439.57285 36.911065 
" style="fill:none;stroke:#0173b2;stroke-linecap:round;stroke-opacity:0.3;"/>
    </g>
    <g id="line2d_21"/>
    <g id="text_16">
     <!-- assembly (AP = 0.98) -->
     <g style="fill:#262626;" transform="translate(450.13285 41.531065)scale(0.132 -0.132)">
      <defs>
       <path d="M 67.59375 30.53125 
C 67.59375 35.5625 66.703125 44 54.796875 44 
C 48 44 43.296875 39.375 41.5 33.953125 
L 41.40625 33.953125 
C 40.203125 42.1875 34.296875 44 28.703125 44 
C 20.796875 44 16.703125 37.875 15.203125 33.84375 
L 15.09375 33.84375 
L 15.09375 44 
L 3.296875 42.890625 
L 3.296875 40.28125 
C 9.203125 40.28125 10.09375 39.6875 10.09375 34.859375 
L 10.09375 6.921875 
C 10.09375 3.09375 9.703125 2.59375 3.296875 2.59375 
L 3.296875 0 
C 5.703125 0.1875 10.09375 0.1875 12.703125 0.1875 
C 15.296875 0.1875 19.796875 0.1875 22.203125 0 
L 22.203125 2.59375 
C 15.796875 2.59375 15.40625 3 15.40625 6.921875 
L 15.40625 26.21875 
C 15.40625 35.453125 21 42.390625 28 42.390625 
C 35.40625 42.390625 36.203125 35.765625 36.203125 30.9375 
L 36.203125 6.921875 
C 36.203125 3.09375 35.796875 2.59375 29.40625 2.59375 
L 29.40625 0 
C 31.796875 0.1875 36.203125 0.1875 38.796875 0.1875 
C 41.40625 0.1875 45.90625 0.1875 48.296875 0 
L 48.296875 2.59375 
C 41.90625 2.59375 41.5 3 41.5 6.921875 
L 41.5 26.21875 
C 41.5 35.453125 47.09375 42.390625 54.09375 42.390625 
C 61.5 42.390625 62.296875 35.765625 62.296875 30.9375 
L 62.296875 6.921875 
C 62.296875 3.09375 61.90625 2.59375 55.5 2.59375 
L 55.5 0 
C 57.90625 0.1875 62.296875 0.1875 64.90625 0.1875 
C 67.5 0.1875 72 0.1875 74.40625 0 
L 74.40625 2.59375 
C 68 2.59375 67.59375 3 67.59375 6.921875 
z
" id="CMR17-109"/>
       <path d="M 39 34.109375 
C 41.5 40.296875 46 40.390625 47.40625 40.390625 
L 47.40625 43 
C 45.5 42.890625 43 42.796875 41.09375 42.796875 
C 39 42.796875 35.703125 42.796875 33.703125 43 
L 33.703125 40.390625 
C 37.5 40.09375 37.59375 37.25 37.59375 36.4375 
C 37.59375 35.4375 37.40625 34.921875 36.90625 33.71875 
L 26 6.390625 
L 14.09375 35.9375 
C 13.59375 37.15625 13.59375 37.859375 13.59375 37.96875 
C 13.59375 40.1875 15.90625 40.390625 18.296875 40.390625 
L 18.296875 43 
C 15.90625 42.796875 11.59375 42.796875 9.09375 42.796875 
C 6.40625 42.796875 3.203125 42.796875 1 43 
L 1 40.390625 
C 6.40625 40.390625 7 39.890625 8.296875 36.640625 
L 23.203125 -0.484375 
C 18.703125 -12.421875 16.09375 -19.40625 9.796875 -19.40625 
C 8.703125 -19.40625 6.203125 -19.109375 4.40625 -17.28125 
C 6.703125 -17.078125 7.703125 -15.65625 7.703125 -13.9375 
C 7.703125 -12.21875 6.5 -10.703125 4.5 -10.703125 
C 2.296875 -10.703125 1.203125 -12.21875 1.203125 -14.046875 
C 1.203125 -18.09375 5.296875 -21 9.796875 -21 
C 15.59375 -21 19.203125 -15.359375 21.203125 -10.296875 
z
" id="CMR17-121"/>
       <path d="M 36.296875 69.390625 
C 35.796875 70.6875 35.59375 71 34.59375 71 
C 33.59375 71 33.40625 70.6875 32.90625 69.390625 
L 11.703125 9.0625 
C 9.796875 3.6875 5.796875 2.59375 2.296875 2.59375 
L 2.296875 0 
C 4.09375 0.1875 8.09375 0.1875 10 0.1875 
C 12.5 0.1875 16.5 0.1875 18.90625 0 
L 18.90625 2.59375 
C 14.203125 2.796875 13.5 5.96875 13.5 7.171875 
C 13.5 8.0625 13.703125 8.5625 13.90625 9.15625 
L 19.203125 24 
L 45.40625 24 
L 51.40625 7.078125 
C 51.90625 5.875 51.90625 5.671875 51.90625 5.28125 
C 51.90625 2.59375 47.59375 2.59375 45.703125 2.59375 
L 45.703125 0 
C 48.59375 0.1875 53.796875 0.1875 56.90625 0.1875 
C 59.5 0.1875 64.5 0.1875 66.90625 0 
L 66.90625 2.59375 
C 61.59375 2.59375 59.796875 2.59375 58.5 6.28125 
z
M 32.296875 61.3125 
L 44.5 26.59375 
L 20.09375 26.59375 
z
" id="CMR17-65"/>
       <path d="M 64.296875 32 
C 65.796875 32 67.296875 32 67.296875 33.6875 
C 67.296875 35.5 65.59375 35.5 63.90625 35.5 
L 8 35.5 
C 6.296875 35.5 4.59375 35.5 4.59375 33.6875 
C 4.59375 32 6.09375 32 7.59375 32 
z
M 63.90625 14.484375 
C 65.59375 14.484375 67.296875 14.484375 67.296875 16.296875 
C 67.296875 18 65.796875 18 64.296875 18 
L 7.59375 18 
C 6.09375 18 4.59375 18 4.59375 16.296875 
C 4.59375 14.484375 6.296875 14.484375 8 14.484375 
z
" id="CMR17-61"/>
       <path d="M 16.59375 4.09375 
C 16.59375 6.59375 14.59375 8.1875 12.5 8.1875 
C 10.5 8.1875 8.40625 6.59375 8.40625 4.09375 
C 8.40625 1.59375 10.40625 0 12.5 0 
C 14.5 0 16.59375 1.59375 16.59375 4.09375 
z
" id="CMR17-46"/>
       <path d="M 35.203125 29.234375 
C 35.203125 7 26.09375 0.390625 18.59375 0.390625 
C 16.296875 0.390625 10.703125 0.671875 8.40625 4.390625 
C 11 4 12.90625 5.390625 12.90625 7.890625 
C 12.90625 10.59375 10.703125 11.5 9.296875 11.5 
C 8.40625 11.5 5.703125 11.09375 5.703125 7.6875 
C 5.703125 1.0625 11.59375 -2 18.796875 -2 
C 30.296875 -2 42 10.390625 42 32.65625 
C 42 60.265625 30.796875 66 23.203125 66 
C 13.296875 66 3.796875 57.25 3.796875 43.75 
C 3.796875 31.25 11.90625 22 22.09375 22 
C 30.5 22 34.203125 29.84375 35.203125 33.15625 
z
M 22.296875 23.59375 
C 19.59375 23.59375 15.796875 24.09375 12.703125 30.140625 
C 10.59375 34.078125 10.59375 38.703125 10.59375 43.640625 
C 10.59375 49.59375 10.59375 53.71875 13.40625 58.15625 
C 14.796875 60.265625 17.40625 63.6875 23.203125 63.6875 
C 35 63.6875 35 45.453125 35 41.421875 
C 35 34.265625 31.796875 23.59375 22.296875 23.59375 
z
" id="CMR17-57"/>
      </defs>
      <use transform="scale(0.996264)" xlink:href="#CMR17-97"/>
      <use transform="translate(45.690477 0)scale(0.996264)" xlink:href="#CMR17-115"/>
      <use transform="translate(81.491815 0)scale(0.996264)" xlink:href="#CMR17-115"/>
      <use transform="translate(117.293152 0)scale(0.996264)" xlink:href="#CMR17-101"/>
      <use transform="translate(157.778813 0)scale(0.996264)" xlink:href="#CMR17-109"/>
      <use transform="translate(232.095949 0)scale(0.996264)" xlink:href="#CMR17-98"/>
      <use transform="translate(282.991319 0)scale(0.996264)" xlink:href="#CMR17-108"/>
      <use transform="translate(307.862377 0)scale(0.996264)" xlink:href="#CMR17-121"/>
      <use transform="translate(386.231259 0)scale(0.996264)" xlink:href="#CMR17-40"/>
      <use transform="translate(421.512027 0)scale(0.996264)" xlink:href="#CMR17-65"/>
      <use transform="translate(490.584457 0)scale(0.996264)" xlink:href="#CMR17-80"/>
      <use transform="translate(583.246724 0)scale(0.996264)" xlink:href="#CMR17-61"/>
      <use transform="translate(685.037478 0)scale(0.996264)" xlink:href="#CMR17-48"/>
      <use transform="translate(730.727956 0)scale(0.996264)" xlink:href="#CMR17-46"/>
      <use transform="translate(755.599014 0)scale(0.996264)" xlink:href="#CMR17-57"/>
      <use transform="translate(801.289491 0)scale(0.996264)" xlink:href="#CMR17-56"/>
      <use transform="translate(846.979968 0)scale(0.996264)" xlink:href="#CMR17-41"/>
     </g>
    </g>
    <g id="line2d_22">
     <path d="M 413.17285 56.828662 
L 439.57285 56.828662 
" style="fill:none;stroke:#de8f05;stroke-linecap:round;stroke-opacity:0.3;"/>
    </g>
    <g id="line2d_23"/>
    <g id="text_17">
     <!-- dual (AP = 0.93) -->
     <g style="fill:#262626;" transform="translate(450.13285 61.448662)scale(0.132 -0.132)">
      <defs>
       <path d="M 29.203125 67.890625 
L 29.203125 65.296875 
C 35.09375 65.296875 36 64.703125 36 60.046875 
L 36 37.046875 
C 35.59375 37.546875 31.5 44 23.40625 44 
C 13.203125 44 3.296875 34.8125 3.296875 21.5 
C 3.296875 8.265625 12.59375 -1 22.40625 -1 
C 30.90625 -1 35.296875 5.640625 35.796875 6.34375 
L 35.796875 -1 
L 47.90625 -0.203125 
L 47.90625 2.40625 
C 42 2.40625 41.09375 3.015625 41.09375 7.859375 
L 41.09375 69 
z
M 35.796875 11.90625 
C 35.796875 8.875 34 6.140625 31.703125 4.125 
C 28.296875 1.09375 24.90625 0.59375 23 0.59375 
C 20.09375 0.59375 9.703125 2.109375 9.703125 21.390625 
C 9.703125 41.1875 21.296875 42.390625 23.90625 42.390625 
C 28.5 42.390625 32.203125 39.765625 34.5 36.140625 
C 35.796875 34.015625 35.796875 33.703125 35.796875 31.890625 
z
" id="CMR17-100"/>
       <path d="M 22.09375 34 
C 31 34 34.90625 26.140625 34.90625 17.09375 
C 34.90625 5.03125 28.5 0.390625 22.703125 0.390625 
C 17.40625 0.390625 8.796875 3.015625 6.09375 10.796875 
C 6.59375 10.59375 7.09375 10.59375 7.59375 10.59375 
C 10 10.59375 11.796875 12.1875 11.796875 14.796875 
C 11.796875 17.6875 9.59375 19 7.59375 19 
C 5.90625 19 3.296875 18.1875 3.296875 14.484375 
C 3.296875 5.234375 12.296875 -2 22.90625 -2 
C 34 -2 42.5 6.75 42.5 16.984375 
C 42.5 26.84375 34.5 34 25 35.09375 
C 32.59375 36.671875 39.90625 43.375 39.90625 52.390625 
C 39.90625 60.25 32 66 23 66 
C 13.90625 66 5.90625 60.34375 5.90625 52.296875 
C 5.90625 48.796875 8.5 48.1875 9.796875 48.1875 
C 11.90625 48.1875 13.703125 49.484375 13.703125 52.09375 
C 13.703125 54.6875 11.90625 56 9.796875 56 
C 9.40625 56 8.90625 56 8.5 55.796875 
C 11.40625 62.484375 19.296875 63.6875 22.796875 63.6875 
C 26.296875 63.6875 32.90625 61.96875 32.90625 52.296875 
C 32.90625 49.484375 32.5 44.546875 29.09375 40.21875 
C 26.09375 36.390625 22.703125 36.1875 19.40625 35.890625 
C 18.90625 35.890625 16.59375 35.6875 16.203125 35.6875 
C 15.5 35.59375 15.09375 35.5 15.09375 34.796875 
C 15.09375 34.09375 15.203125 34 17.203125 34 
z
" id="CMR17-51"/>
      </defs>
      <use transform="scale(0.996264)" xlink:href="#CMR17-100"/>
      <use transform="translate(50.89537 0)scale(0.996264)" xlink:href="#CMR17-117"/>
      <use transform="translate(101.79074 0)scale(0.996264)" xlink:href="#CMR17-97"/>
      <use transform="translate(147.481217 0)scale(0.996264)" xlink:href="#CMR17-108"/>
      <use transform="translate(202.428242 0)scale(0.996264)" xlink:href="#CMR17-40"/>
      <use transform="translate(237.709009 0)scale(0.996264)" xlink:href="#CMR17-65"/>
      <use transform="translate(306.781439 0)scale(0.996264)" xlink:href="#CMR17-80"/>
      <use transform="translate(399.443706 0)scale(0.996264)" xlink:href="#CMR17-61"/>
      <use transform="translate(501.234461 0)scale(0.996264)" xlink:href="#CMR17-48"/>
      <use transform="translate(546.924938 0)scale(0.996264)" xlink:href="#CMR17-46"/>
      <use transform="translate(571.795996 0)scale(0.996264)" xlink:href="#CMR17-57"/>
      <use transform="translate(617.486473 0)scale(0.996264)" xlink:href="#CMR17-51"/>
      <use transform="translate(663.176951 0)scale(0.996264)" xlink:href="#CMR17-41"/>
     </g>
    </g>
    <g id="line2d_24">
     <path d="M 413.17285 76.746258 
L 439.57285 76.746258 
" style="fill:none;stroke:#029e73;stroke-linecap:round;stroke-opacity:0.3;"/>
    </g>
    <g id="line2d_25"/>
    <g id="text_18">
     <!-- gis (AP = 0.96) -->
     <g style="fill:#262626;" transform="translate(450.13285 81.366258)scale(0.132 -0.132)">
      <defs>
       <path d="M 11.09375 18.203125 
C 13 16.6875 16.296875 15 20.296875 15 
C 28.203125 15 35 21.234375 35 29.609375 
C 35 32.234375 34.203125 36.265625 31.203125 39.390625 
C 34 42.390625 38.09375 43.390625 40.40625 43.390625 
C 40.796875 43.390625 41.40625 43.390625 41.90625 43.09375 
C 41.5 42.984375 40.59375 42.59375 40.59375 40.984375 
C 40.59375 39.6875 41.5 38.796875 42.796875 38.796875 
C 44.296875 38.796875 45.09375 39.796875 45.09375 41.09375 
C 45.09375 42.984375 43.59375 45 40.40625 45 
C 36.40625 45 32.90625 43.09375 30.09375 40.484375 
C 27.09375 43.1875 23.5 44.1875 20.296875 44.1875 
C 12.40625 44.1875 5.59375 37.984375 5.59375 29.609375 
C 5.59375 23.859375 8.90625 20.21875 9.90625 19.21875 
C 6.90625 15.6875 6.90625 11.59375 6.90625 11.09375 
C 6.90625 8.5 7.90625 4.6875 11.296875 2.59375 
C 6.09375 1.28125 2 -2.875 2 -8.078125 
C 2 -15.5625 11.5 -21 22.90625 -21 
C 33.90625 -21 43.796875 -15.765625 43.796875 -7.96875 
C 43.796875 6 29 6 21.296875 6 
C 19 6 14.90625 6 14.40625 6.09375 
C 11.296875 6.59375 9.203125 9.390625 9.203125 12.890625 
C 9.203125 13.796875 9.203125 16 11.09375 18.203125 
z
M 20.296875 16.6875 
C 11.5 16.6875 11.5 27.59375 11.5 29.609375 
C 11.5 31.625 11.5 42.484375 20.296875 42.484375 
C 29.09375 42.484375 29.09375 31.625 29.09375 29.609375 
C 29.09375 27.59375 29.09375 16.6875 20.296875 16.6875 
z
M 22.90625 -19.3125 
C 12.90625 -19.3125 6 -13.796875 6 -8.078125 
C 6 -4.859375 7.703125 -1.84375 9.90625 -0.171875 
C 12.40625 1.59375 13.40625 1.59375 20.203125 1.59375 
C 28.40625 1.59375 39.796875 1.59375 39.796875 -8.078125 
C 39.796875 -13.796875 32.90625 -19.3125 22.90625 -19.3125 
z
" id="CMR17-103"/>
      </defs>
      <use transform="scale(0.996264)" xlink:href="#CMR17-103"/>
      <use transform="translate(45.690477 0)scale(0.996264)" xlink:href="#CMR17-105"/>
      <use transform="translate(70.561536 0)scale(0.996264)" xlink:href="#CMR17-115"/>
      <use transform="translate(136.43884 0)scale(0.996264)" xlink:href="#CMR17-40"/>
      <use transform="translate(171.719607 0)scale(0.996264)" xlink:href="#CMR17-65"/>
      <use transform="translate(240.792037 0)scale(0.996264)" xlink:href="#CMR17-80"/>
      <use transform="translate(333.454304 0)scale(0.996264)" xlink:href="#CMR17-61"/>
      <use transform="translate(435.245059 0)scale(0.996264)" xlink:href="#CMR17-48"/>
      <use transform="translate(480.935536 0)scale(0.996264)" xlink:href="#CMR17-46"/>
      <use transform="translate(505.806594 0)scale(0.996264)" xlink:href="#CMR17-57"/>
      <use transform="translate(551.497072 0)scale(0.996264)" xlink:href="#CMR17-54"/>
      <use transform="translate(597.187549 0)scale(0.996264)" xlink:href="#CMR17-41"/>
     </g>
    </g>
    <g id="line2d_26">
     <path d="M 413.17285 96.663855 
L 439.57285 96.663855 
" style="fill:none;stroke:#d55e00;stroke-linecap:round;stroke-opacity:0.3;"/>
    </g>
    <g id="line2d_27"/>
    <g id="text_19">
     <!-- hmp (AP = 0.90) -->
     <g style="fill:#262626;" transform="translate(450.13285 101.283855)scale(0.132 -0.132)">
      <defs>
       <path d="M 41.5 30.53125 
C 41.5 35.65625 40.5 44 28.703125 44 
C 20.5 44 16.5 37.375 15.296875 34.046875 
L 15.203125 34.046875 
L 15.203125 69 
L 3.296875 67.890625 
L 3.296875 65.296875 
C 9.203125 65.296875 10.09375 64.703125 10.09375 60.046875 
L 10.09375 6.921875 
C 10.09375 3.09375 9.703125 2.59375 3.296875 2.59375 
L 3.296875 0 
C 5.703125 0.1875 10.09375 0.1875 12.703125 0.1875 
C 15.296875 0.1875 19.796875 0.1875 22.203125 0 
L 22.203125 2.59375 
C 15.796875 2.59375 15.40625 3 15.40625 6.921875 
L 15.40625 26.21875 
C 15.40625 35.453125 21 42.390625 28 42.390625 
C 35.40625 42.390625 36.203125 35.765625 36.203125 30.9375 
L 36.203125 6.921875 
C 36.203125 3.09375 35.796875 2.59375 29.40625 2.59375 
L 29.40625 0 
C 31.796875 0.1875 36.203125 0.1875 38.796875 0.1875 
C 41.40625 0.1875 45.90625 0.1875 48.296875 0 
L 48.296875 2.59375 
C 41.90625 2.59375 41.5 3 41.5 6.921875 
z
" id="CMR17-104"/>
       <path d="M 22 -17.40625 
C 15.59375 -17.40625 15.203125 -17 15.203125 -13.03125 
L 15.203125 5.9375 
C 18.09375 1.703125 22.296875 -1 27.59375 -1 
C 37.59375 -1 47.703125 7.859375 47.703125 21.59375 
C 47.703125 34.3125 39 44 28.703125 44 
C 22.703125 44 17.796875 40.671875 15 36.640625 
L 15 44 
L 3.09375 42.890625 
L 3.09375 40.265625 
C 9 40.265625 9.90625 39.671875 9.90625 34.8125 
L 9.90625 -13.03125 
C 9.90625 -16.890625 9.5 -17.40625 3.09375 -17.40625 
L 3.09375 -20 
C 5.5 -19.8125 9.90625 -19.8125 12.5 -19.8125 
C 15.09375 -19.8125 19.59375 -19.8125 22 -20 
z
M 15.203125 31.484375 
C 15.203125 32.90625 15.203125 35.015625 19.09375 38.765625 
C 19.59375 39.15625 23 42.1875 28 42.1875 
C 35.296875 42.1875 41.296875 33 41.296875 21.5 
C 41.296875 9.984375 34.90625 0.59375 27 0.59375 
C 23.40625 0.59375 19.5 2.3125 16.5 7.046875 
C 15.203125 9.28125 15.203125 9.875 15.203125 11.5 
z
" id="CMR17-112"/>
      </defs>
      <use transform="scale(0.996264)" xlink:href="#CMR17-104"/>
      <use transform="translate(50.89537 0)scale(0.996264)" xlink:href="#CMR17-109"/>
      <use transform="translate(127.81496 0)scale(0.996264)" xlink:href="#CMR17-112"/>
      <use transform="translate(208.786296 0)scale(0.996264)" xlink:href="#CMR17-40"/>
      <use transform="translate(244.067064 0)scale(0.996264)" xlink:href="#CMR17-65"/>
      <use transform="translate(313.139493 0)scale(0.996264)" xlink:href="#CMR17-80"/>
      <use transform="translate(405.80176 0)scale(0.996264)" xlink:href="#CMR17-61"/>
      <use transform="translate(507.592515 0)scale(0.996264)" xlink:href="#CMR17-48"/>
      <use transform="translate(553.282992 0)scale(0.996264)" xlink:href="#CMR17-46"/>
      <use transform="translate(578.154051 0)scale(0.996264)" xlink:href="#CMR17-57"/>
      <use transform="translate(623.844528 0)scale(0.996264)" xlink:href="#CMR17-48"/>
      <use transform="translate(669.535005 0)scale(0.996264)" xlink:href="#CMR17-41"/>
     </g>
    </g>
    <g id="line2d_28">
     <path d="M 413.17285 116.581451 
L 439.57285 116.581451 
" style="fill:none;stroke:#cc78bc;stroke-linecap:round;stroke-opacity:0.3;"/>
    </g>
    <g id="line2d_29"/>
    <g id="text_20">
     <!-- mbarc (AP = 0.87) -->
     <g style="fill:#262626;" transform="translate(450.13285 121.201451)scale(0.132 -0.132)">
      <defs>
       <path d="M 45.09375 61.796875 
L 45.09375 64 
L 21.59375 64 
C 9.90625 64 9.703125 65.09375 9.296875 67 
L 7.5 67 
L 4.59375 48.5 
L 6.40625 48.5 
C 6.703125 50.40625 7.40625 55.5 8.59375 57.390625 
C 9.203125 58.1875 16.59375 58.1875 18.296875 58.1875 
L 40.296875 58.1875 
L 29.203125 41.71875 
C 21.796875 30.640625 16.703125 15.671875 16.703125 2.59375 
C 16.703125 1.390625 16.703125 -2 20.296875 -2 
C 23.90625 -2 23.90625 1.390625 23.90625 2.6875 
L 23.90625 7.28125 
C 23.90625 23.65625 26.703125 34.4375 31.296875 41.3125 
z
" id="CMR17-55"/>
      </defs>
      <use transform="scale(0.996264)" xlink:href="#CMR17-109"/>
      <use transform="translate(74.317136 0)scale(0.996264)" xlink:href="#CMR17-98"/>
      <use transform="translate(125.212506 0)scale(0.996264)" xlink:href="#CMR17-97"/>
      <use transform="translate(170.902983 0)scale(0.996264)" xlink:href="#CMR17-114"/>
      <use transform="translate(206.183751 0)scale(0.996264)" xlink:href="#CMR17-99"/>
      <use transform="translate(276.745377 0)scale(0.996264)" xlink:href="#CMR17-40"/>
      <use transform="translate(312.026145 0)scale(0.996264)" xlink:href="#CMR17-65"/>
      <use transform="translate(381.098575 0)scale(0.996264)" xlink:href="#CMR17-80"/>
      <use transform="translate(473.760842 0)scale(0.996264)" xlink:href="#CMR17-61"/>
      <use transform="translate(575.551597 0)scale(0.996264)" xlink:href="#CMR17-48"/>
      <use transform="translate(621.242074 0)scale(0.996264)" xlink:href="#CMR17-46"/>
      <use transform="translate(646.113132 0)scale(0.996264)" xlink:href="#CMR17-56"/>
      <use transform="translate(691.803609 0)scale(0.996264)" xlink:href="#CMR17-55"/>
      <use transform="translate(737.494087 0)scale(0.996264)" xlink:href="#CMR17-41"/>
     </g>
    </g>
    <g id="line2d_30">
     <path d="M 413.17285 136.499048 
L 439.57285 136.499048 
" style="fill:none;stroke:#0173b2;stroke-linecap:round;stroke-opacity:0.8;stroke-width:2;"/>
    </g>
    <g id="line2d_31"/>
    <g id="text_21">
     <!-- Mean PR (AP = 0.93 $\pm$ 0.04) -->
     <g style="fill:#262626;" transform="translate(450.13285 141.119048)scale(0.132 -0.132)">
      <defs>
       <path d="M 20.90625 66.390625 
C 20.296875 67.890625 20.203125 68 18.09375 68 
L 5.296875 68 
L 5.296875 65.390625 
C 12.203125 65.390625 13.296875 65.390625 13.296875 60.90625 
L 13.296875 9.75 
C 13.296875 7.265625 13.296875 2.59375 5.296875 2.59375 
L 5.296875 0 
C 7.59375 0.1875 11.796875 0.1875 14.296875 0.1875 
C 16.796875 0.1875 21 0.1875 23.296875 0 
L 23.296875 2.59375 
C 15.296875 2.59375 15.296875 7.265625 15.296875 9.75 
L 15.296875 64.984375 
L 15.40625 64.984375 
L 38.90625 1.59375 
C 39.296875 0.59375 39.5 0 40.296875 0 
C 41.09375 0 41.296875 0.59375 41.703125 1.59375 
L 65.40625 65.484375 
L 65.5 65.484375 
L 65.5 7.078125 
C 65.5 2.59375 64.40625 2.59375 57.5 2.59375 
L 57.5 0 
C 60.203125 0.1875 65.59375 0.1875 68.5 0.1875 
C 71.40625 0.1875 76.90625 0.1875 79.59375 0 
L 79.59375 2.59375 
C 72.703125 2.59375 71.59375 2.59375 71.59375 7.078125 
L 71.59375 60.90625 
C 71.59375 65.390625 72.703125 65.390625 79.59375 65.390625 
L 79.59375 68 
L 66.90625 68 
C 64.796875 68 64.703125 67.890625 64.09375 66.390625 
L 42.5 8.0625 
z
" id="CMR17-77"/>
       <path d="M 40.90625 31 
L 68.703125 31 
C 70.40625 31 72.203125 31 72.203125 33 
C 72.203125 35 70.40625 35 68.703125 35 
L 40.90625 35 
L 40.90625 63.25 
C 40.90625 64.890625 40.90625 67 38.90625 67 
C 36.90625 67 36.90625 65.1875 36.90625 63.5625 
L 36.90625 35 
L 9 35 
C 7.296875 35 5.5 35 5.5 33 
C 5.5 31 7.296875 31 9 31 
L 36.90625 31 
L 36.90625 4 
L 9 4 
C 7.296875 4 5.5 4 5.5 2 
C 5.5 0 7.296875 0 9 0 
L 68.703125 0 
C 70.40625 0 72.203125 0 72.203125 2 
C 72.203125 4 70.40625 4 68.703125 4 
L 40.90625 4 
z
" id="CMSY10-6"/>
      </defs>
      <use transform="scale(0.996264)" xlink:href="#CMR17-77"/>
      <use transform="translate(84.686941 0)scale(0.996264)" xlink:href="#CMR17-101"/>
      <use transform="translate(125.172601 0)scale(0.996264)" xlink:href="#CMR17-97"/>
      <use transform="translate(170.863078 0)scale(0.996264)" xlink:href="#CMR17-110"/>
      <use transform="translate(251.834414 0)scale(0.996264)" xlink:href="#CMR17-80"/>
      <use transform="translate(314.420715 0)scale(0.996264)" xlink:href="#CMR17-82"/>
      <use transform="translate(412.287783 0)scale(0.996264)" xlink:href="#CMR17-40"/>
      <use transform="translate(447.568551 0)scale(0.996264)" xlink:href="#CMR17-65"/>
      <use transform="translate(516.640981 0)scale(0.996264)" xlink:href="#CMR17-80"/>
      <use transform="translate(609.303248 0)scale(0.996264)" xlink:href="#CMR17-61"/>
      <use transform="translate(711.094002 0)scale(0.996264)" xlink:href="#CMR17-48"/>
      <use transform="translate(756.784479 0)scale(0.996264)" xlink:href="#CMR17-46"/>
      <use transform="translate(781.655538 0)scale(0.996264)" xlink:href="#CMR17-57"/>
      <use transform="translate(827.346015 0)scale(0.996264)" xlink:href="#CMR17-51"/>
      <use transform="translate(903.112459 0)scale(0.996264)" xlink:href="#CMSY10-6"/>
      <use transform="translate(1010.675893 0)scale(0.996264)" xlink:href="#CMR17-48"/>
      <use transform="translate(1056.36637 0)scale(0.996264)" xlink:href="#CMR17-46"/>
      <use transform="translate(1081.237428 0)scale(0.996264)" xlink:href="#CMR17-48"/>
      <use transform="translate(1126.927905 0)scale(0.996264)" xlink:href="#CMR17-52"/>
      <use transform="translate(1172.618382 0)scale(0.996264)" xlink:href="#CMR17-41"/>
     </g>
    </g>
    <g id="line2d_32">
     <path d="M 413.17285 156.416645 
L 439.57285 156.416645 
" style="fill:none;stroke:#d55e00;stroke-linecap:round;stroke-opacity:0.8;stroke-width:2;"/>
    </g>
    <g id="line2d_33"/>
    <g id="text_22">
     <!-- Baseline Mean PR (AP = 0.80 $\pm$ 0.13) -->
     <g style="fill:#262626;" transform="translate(450.13285 161.036645)scale(0.132 -0.132)">
      <defs>
       <path d="M 5.203125 68 
L 5.203125 65.390625 
C 12.09375 65.390625 13.203125 65.390625 13.203125 60.890625 
L 13.203125 7.046875 
C 13.203125 2.59375 12.09375 2.59375 5.203125 2.59375 
L 5.203125 0 
L 39.59375 0 
C 52.40625 0 60.703125 9.03125 60.703125 18.046875 
C 60.703125 26.96875 52.5 34.59375 41.796875 35.296875 
C 51.40625 37.1875 58.09375 43.59375 58.09375 51.1875 
C 58.09375 59.5 49.90625 68 37 68 
z
M 19.5 36 
L 19.5 61.5 
C 19.5 64.890625 19.703125 65.390625 23.703125 65.390625 
L 36.5 65.390625 
C 46.40625 65.390625 50.796875 57.390625 50.796875 51.1875 
C 50.796875 43.59375 44.703125 36 33.90625 36 
z
M 23.703125 2.59375 
C 19.703125 2.59375 19.5 3.09375 19.5 6.453125 
L 19.5 34.390625 
L 38 34.390625 
C 48.296875 34.390625 53.296875 25.375 53.296875 18.140625 
C 53.296875 10.90625 47.59375 2.59375 36.703125 2.59375 
z
" id="CMR17-66"/>
      </defs>
      <use transform="scale(0.996264)" xlink:href="#CMR17-66"/>
      <use transform="translate(65.188754 0)scale(0.996264)" xlink:href="#CMR17-97"/>
      <use transform="translate(110.879232 0)scale(0.996264)" xlink:href="#CMR17-115"/>
      <use transform="translate(146.680569 0)scale(0.996264)" xlink:href="#CMR17-101"/>
      <use transform="translate(187.16623 0)scale(0.996264)" xlink:href="#CMR17-108"/>
      <use transform="translate(212.037288 0)scale(0.996264)" xlink:href="#CMR17-105"/>
      <use transform="translate(236.908347 0)scale(0.996264)" xlink:href="#CMR17-110"/>
      <use transform="translate(287.803716 0)scale(0.996264)" xlink:href="#CMR17-101"/>
      <use transform="translate(358.365343 0)scale(0.996264)" xlink:href="#CMR17-77"/>
      <use transform="translate(443.052284 0)scale(0.996264)" xlink:href="#CMR17-101"/>
      <use transform="translate(483.537944 0)scale(0.996264)" xlink:href="#CMR17-97"/>
      <use transform="translate(529.228421 0)scale(0.996264)" xlink:href="#CMR17-110"/>
      <use transform="translate(610.199758 0)scale(0.996264)" xlink:href="#CMR17-80"/>
      <use transform="translate(672.786058 0)scale(0.996264)" xlink:href="#CMR17-82"/>
      <use transform="translate(770.653126 0)scale(0.996264)" xlink:href="#CMR17-40"/>
      <use transform="translate(805.933894 0)scale(0.996264)" xlink:href="#CMR17-65"/>
      <use transform="translate(875.006324 0)scale(0.996264)" xlink:href="#CMR17-80"/>
      <use transform="translate(967.668591 0)scale(0.996264)" xlink:href="#CMR17-61"/>
      <use transform="translate(1069.459346 0)scale(0.996264)" xlink:href="#CMR17-48"/>
      <use transform="translate(1115.149823 0)scale(0.996264)" xlink:href="#CMR17-46"/>
      <use transform="translate(1140.020881 0)scale(0.996264)" xlink:href="#CMR17-56"/>
      <use transform="translate(1185.711358 0)scale(0.996264)" xlink:href="#CMR17-48"/>
      <use transform="translate(1261.477802 0)scale(0.996264)" xlink:href="#CMSY10-6"/>
      <use transform="translate(1369.041236 0)scale(0.996264)" xlink:href="#CMR17-48"/>
      <use transform="translate(1414.731713 0)scale(0.996264)" xlink:href="#CMR17-46"/>
      <use transform="translate(1439.602771 0)scale(0.996264)" xlink:href="#CMR17-49"/>
      <use transform="translate(1485.293248 0)scale(0.996264)" xlink:href="#CMR17-51"/>
      <use transform="translate(1530.983726 0)scale(0.996264)" xlink:href="#CMR17-41"/>
     </g>
    </g>
    <g id="patch_5">
     <path d="M 413.17285 180.954241 
L 439.57285 180.954241 
L 439.57285 171.714241 
L 413.17285 171.714241 
z
" style="fill:#808080;opacity:0.2;stroke:#808080;stroke-linejoin:miter;stroke-width:0.8;"/>
    </g>
    <g id="text_23">
     <!-- $\pm$ 1 std. dev. -->
     <g style="fill:#262626;" transform="translate(450.13285 180.954241)scale(0.132 -0.132)">
      <use transform="scale(0.996264)" xlink:href="#CMSY10-6"/>
      <use transform="translate(107.563434 0)scale(0.996264)" xlink:href="#CMR17-49"/>
      <use transform="translate(183.329877 0)scale(0.996264)" xlink:href="#CMR17-115"/>
      <use transform="translate(219.131215 0)scale(0.996264)" xlink:href="#CMR17-116"/>
      <use transform="translate(254.411983 0)scale(0.996264)" xlink:href="#CMR17-100"/>
      <use transform="translate(305.307353 0)scale(0.996264)" xlink:href="#CMR17-46"/>
      <use transform="translate(370.664072 0)scale(0.996264)" xlink:href="#CMR17-100"/>
      <use transform="translate(421.559441 0)scale(0.996264)" xlink:href="#CMR17-101"/>
      <use transform="translate(462.045102 0)scale(0.996264)" xlink:href="#CMR17-118"/>
      <use transform="translate(510.338018 0)scale(0.996264)" xlink:href="#CMR17-46"/>
     </g>
    </g>
    <g id="patch_6">
     <path d="M 413.17285 200.329366 
L 439.57285 200.329366 
L 439.57285 191.089366 
L 413.17285 191.089366 
z
" style="fill:#808080;opacity:0.2;stroke:#808080;stroke-linejoin:miter;stroke-width:0.8;"/>
    </g>
    <g id="text_24">
     <!-- $\pm$ 1 std. dev. -->
     <g style="fill:#262626;" transform="translate(450.13285 200.329366)scale(0.132 -0.132)">
      <use transform="scale(0.996264)" xlink:href="#CMSY10-6"/>
      <use transform="translate(107.563434 0)scale(0.996264)" xlink:href="#CMR17-49"/>
      <use transform="translate(183.329877 0)scale(0.996264)" xlink:href="#CMR17-115"/>
      <use transform="translate(219.131215 0)scale(0.996264)" xlink:href="#CMR17-116"/>
      <use transform="translate(254.411983 0)scale(0.996264)" xlink:href="#CMR17-100"/>
      <use transform="translate(305.307353 0)scale(0.996264)" xlink:href="#CMR17-46"/>
      <use transform="translate(370.664072 0)scale(0.996264)" xlink:href="#CMR17-100"/>
      <use transform="translate(421.559441 0)scale(0.996264)" xlink:href="#CMR17-101"/>
      <use transform="translate(462.045102 0)scale(0.996264)" xlink:href="#CMR17-118"/>
      <use transform="translate(510.338018 0)scale(0.996264)" xlink:href="#CMR17-46"/>
     </g>
    </g>
   </g>
  </g>
 </g>
 <defs>
  <clipPath id="pb998e577cc">
   <rect height="188.062305" width="340.99331" x="60.299541" y="23.162625"/>
  </clipPath>
 </defs>
</svg>
